<svg id="Слой_1" xmlns="http://www.w3.org/2000/svg" viewBox="0 0 294 49"><style>.st0{fill:#00DDD0;}</style><path class="st0" d="M38.3 34.5c0 .6-.2 1.1-.6 1.6-.4.4-.9.7-1.5.7-.3 0-.5-.1-.7-.2-.2-.2-.5-.4-.7-.7-.3-.3-.5-.6-.8-1.1-.6-.9-1.1-1.8-1.5-2.7-.5-1-.8-1.8-1.1-2.5-.1-.2-.2-.4-.2-.6l-.3-.6-.3-.6s-.2-.5-.3-.8c-.4-1.3-.8-2.2-1-2.6-.2.2-.4.4-.6.5-.3.1-.5.1-.7.2s-.5.1-.7.1h-.8c-.2 0-.3 0-.6.1-.2.1-.5.1-.7.2-.3.1-.5.2-.8.3-.3.1-.5.2-.7.2-.8.2-1.5.4-2.3.6-.8.2-1.6.3-2.4.5-.8.2-1.7.3-2.6.5-.9.1-1.9.3-2.9.5-.5.1-.9.4-1.3.9s-1.2 1.7-2.5 3.4c-1.2 1.7-2.3 3-3.1 3.8-.8.8-1.7 1.2-2.5 1.2-1 0-1.9-.2-2.5-.6-.8-.5-1.1-1-1.1-1.6 0-.3.2-.5.5-.6.3-.1.8-.2 1.3-.4.2 0 .6-.4 1.3-1.1.6-.7 1.1-1.3 1.4-1.7.6-.8 1.3-1.7 2-2.7.7-1 1.4-2 2.2-3.2.4-.6.7-1.1 1.1-1.6.3-.4.6-.8.8-1.1.2-.3.5-.6.7-1 .3-.4.6-.8.9-1.3.2-.2.3-.5.6-.8.2-.3.5-.6.8-1 .3-.4.6-.7.8-1.1.2-.3.4-.6.6-.8.2-.2.4-.6.7-.9s.6-.8 1-1.3c.1-.2.4-.5.7-1.1.4-.6.8-1.3 1.5-2.3.9-1.4 1.4-2.5 1.7-3.1 1.8-4.3 3.1-6.5 4-6.5.4 0 .7 0 1 .1l.6.3.3.6s.1.6.1 1v2.1c0 .4 0 .8-.1 1.4.8 1.6 1.5 3.3 2.2 5.2.4.9.7 2 1.1 3.1.4 1.1.8 2.3 1.3 3.7.4 1.3.8 2.4 1.2 3.4.3.9.6 1.7.8 2.3.2.6.5 1.2.8 2 .3.8.7 1.6 1.1 2.5.2.4.7 1.2 1.7 2.5.6 1.1 1.1 2.1 1.1 2.7zM28.1 20.9c-.3-.8-.6-1.7-.9-2.7-.3-1-.7-1.9-1-2.9-.3-1-.7-1.9-1.1-2.8-.4-.9-.7-1.7-1.1-2.4-.9 1.2-1.7 2.3-2.4 3.4-.8 1.1-1.5 2.1-2.2 3.2L17.3 20c-.7 1.1-1.4 2.3-2.1 3.6.2.1.3.1.5.1s.5 0 .9-.1c.4 0 .7-.1 1.1-.1.4-.1.7-.1 1.1-.2.3-.1.6-.1.8-.2.4-.1.7-.2 1-.2.3-.1.5-.1.8-.2.2-.1.5-.1.8-.2.3-.1.6-.1 1-.2.9-.2 1.8-.5 2.6-.7.8-.2 1.6-.5 2.3-.7zM82.7 19.6c0 .3 0 .6-.1.9-.1.3-.2.6-.4.9-.1.3-.3.6-.5.9s-.4.6-.5.8c-.4.7-1 1.4-1.6 2.1-.6.7-1.2 1.4-1.9 2.1-.7.7-1.4 1.3-2.1 1.9-.7.6-1.4 1.1-2.1 1.6-.6.4-1.1.7-1.6 1s-1 .6-1.5.8-1 .4-1.6.6-1.2.2-1.8.2c-1.3 0-2.3-.3-3.1-1-.4-.3-.7-.7-1-1.3-.3-.5-.6-1.1-.8-1.7-.2-.6-.4-1.3-.6-2-.2-.7-.3-1.4-.4-2.1-.1-.9-.3-1.6-.4-2.3-.1-.7-.3-1.3-.4-1.7-.2-.5-.4-.8-.6-1.1-.2-.3-.5-.4-.9-.4-.3 0-.6 0-.8.1-.3.1-.5.2-.8.4s-.6.4-.9.8c-.3.3-.7.8-1.2 1.3s-1 1.2-1.5 2c-.6.8-1.3 1.7-2 2.8-.4.5-.8 1.1-1.4 1.8-.5.6-1.1 1.3-1.6 1.8-.5.6-1.1 1.1-1.6 1.5-.5.4-1 .7-1.4.8-1.3-.3-2-2-2-5 0-.8.1-2 .3-3.7.1-.7.2-1.5.3-2.4.1-.8.3-1.6.5-2.5l.6-2.4c.2-.8.5-1.5.8-2.1.2-.3.3-.5.5-.7.2-.2.3-.3.5-.4.2-.1.4-.1.6-.2h.6c.2 0 .5.2.7.5.2.3.3.8.3 1.4 0 .4 0 .7-.1 1-.1.3-.1.7-.3 1-.1.3-.2.7-.3 1.1-.1.4-.2.8-.4 1.3-.1.4-.2.9-.3 1.4l-.3 1.5-.3 1.5c-.2.8-.3 1.2-.3 1.6 0 .3 0 .6.1.8.4 0 1.1-.7 2.1-1.9.5-.6 1.1-1.3 1.7-2.1.6-.7 1.3-1.6 2-2.5.5-.7 1-1.3 1.5-1.9.5-.6 1-1.1 1.6-1.5.6-.4 1.1-.8 1.8-1 .6-.3 1.3-.4 2.1-.4s1.5.2 2 .5 1 .8 1.3 1.4c.3.6.6 1.3.7 2.2.2.8.3 1.8.4 2.8.1.9.2 1.7.3 2.5.1.8.2 1.6.5 2.3.2.7.6 1.2 1.1 1.6s1.1.6 2 .6c.7 0 1.3-.2 2.1-.5.7-.3 1.5-.7 2.3-1.3.8-.5 1.6-1.2 2.5-1.9.8-.7 1.7-1.5 2.6-2.4.4-.3.7-.8 1.2-1.3l1.2-1.5c.4-.5.8-.9 1.1-1.2.4-.3.6-.5.8-.5.1 0 .2 0 .4.1.2.3.3.5.3.7z"/><path class="st0" d="M103.8 21.1c0 .3-.1.8-.4 1.3-.3.6-.7 1.2-1.2 1.9s-1.1 1.4-1.8 2.2l-2.1 2.4-2.7 2.7c-1 .8-2 1.7-3.1 2.5-2.1 1.6-4.1 2.4-5.7 2.4-1.9 0-3.3-.6-4.3-1.9-1-1.3-1.7-2.8-2.1-4.5-.4-1.8-.6-3.6-.6-5.4 0-.8.1-2 .3-3.6.1-.8.2-1.5.3-2.1s.2-1.1.3-1.4c.2-.7.7-1.3 1.4-1.9.7-.6 1.4-.8 2.2-.8.4 0 .6.4.6 1.2 0 .5 0 1.1-.1 1.8s-.2 1.3-.3 2c-.2 1.2-.3 2.3-.4 3.2s-.1 1.8-.1 2.5c0 1.5.2 3.1.6 4.7.4 1.6 1.2 2.4 2.3 2.4 1.1 0 2.4-.4 3.9-1.2.7-.4 1.5-.9 2.2-1.4.7-.5 1.5-1.1 2.2-1.7.8-.6 1.5-1.3 2.2-1.9.7-.6 1.4-1.3 2.1-2 .7-.7 1.3-1.3 1.8-1.9.5-.6 1-1.1 1.4-1.7 0 0 0-.1.1-.1 0-.1.1-.1.1-.2s.1-.1.1-.2c0 0 .1-.1.1 0 .2 0 .4.2.5.5.1-.3.2 0 .2.2zM88.7 2.4c0 1-.3 1.8-.8 2.5-.4.8-1.2 1.1-2.2 1.1-.6 0-1.3-.1-2-.3-.7-.2-1.1-.5-1.1-.9 0-.7.2-1.5.7-2.1.5-.7 1-1.2 1.7-1.7.5-.3.9-.5 1-.5.9 0 1.5.1 2 .4.5.3.7.8.7 1.5z"/><path class="st0" d="M151.7 20c0 .1 0 .3-.1.5s-.1.4-.2.7c-.1.2-.2.5-.3.7-.1.3-.2.5-.4.7-.3.4-.6.9-1 1.4-.4.5-.9 1.1-1.4 1.6-.5.6-1 1.1-1.6 1.7-.6.6-1.1 1.1-1.7 1.5-.4.4-1 .8-1.5 1.2-.6.4-1.2.9-1.8 1.2-.6.4-1.3.7-2 1-.7.3-1.3.4-1.9.4-.5 0-1-.1-1.5-.2-.4-.2-.8-.4-1.2-.9-.4-.4-.7-1-1-1.7s-.5-1.7-.7-2.8c-.1-.5-.2-1-.2-1.6-.1-.6-.1-1.1-.2-1.7-.1-.6-.1-1.1-.2-1.6s-.1-1-.2-1.4c-.1-.4-.2-.7-.3-.9s-.2-.3-.3-.3c-.2 0-.5.2-.8.5-.4.3-.8.8-1.3 1.5-.5.6-1 1.4-1.6 2.3-.6.9-1.2 1.9-1.8 3-1.2 2.2-2.3 3.9-3.1 5-.9 1.1-1.6 1.7-2.3 1.7-1.1 0-1.8-.5-2.1-1.5-.3-1-.5-2.7-.6-5.1 0-2.3-.2-4.1-.5-5.3-.3-1.2-.6-1.9-1.1-1.9-.3 0-.7.2-1.2.7-.5.5-1.1 1.2-1.8 2.1-.7.9-1.4 1.9-2.2 3.1-.8 1.2-1.6 2.5-2.3 3.9-.2.4-.5.8-.7 1.3-.3.5-.6 1-.8 1.4-.3.5-.6.9-.8 1.4-.3.4-.5.8-.7 1.1-.4.6-1 1-1.6 1-1.2 0-1.9-.6-2.3-1.8-.1-.3-.2-.6-.2-.7-.1-.2-.1-.4-.1-.6 0-.2-.1-.4-.1-.6v-.9c0-.6 0-1.2.1-1.7 0-.5.1-1 .1-1.5.1-.5.1-1.1.2-1.7s.2-1.3.3-2.1c.1-.7.1-1.4.2-2.1.1-.7.1-1.5.2-2.2.1-.7.1-1.4.2-2 .1-.6.1-1.1.2-1.4 0-.2.2-.4.3-.6.2-.2.4-.5.6-.7.2-.2.5-.4.7-.6.2-.2.5-.2.6-.2.3 0 .6.1.8.2.2.1.4.3.5.6.1.2.2.5.3.9.1.3.1.7.1 1 0 .4 0 .8-.1 1.4-.1.6-.2 1.1-.3 1.8-.1.6-.2 1.3-.4 2-.1.7-.3 1.3-.4 2-.1.6-.2 1.2-.3 1.7-.1.5-.2 1-.2 1.3-.1.8-.2 1.5-.3 2 0 .5-.1.9-.1 1.2.2-.2.5-.5.8-.9.3-.4.6-.9 1-1.4.4-.5.8-1.1 1.2-1.8.4-.6.8-1.3 1.2-2 .3-.5.6-1 1-1.6.4-.6.7-1.2 1.1-1.8.4-.6.8-1.2 1.2-1.7.4-.5.7-1 1.1-1.4.6-.7 1.3-1.3 2-1.7.7-.4 1.4-.6 2.2-.6.7 0 1.4.3 1.9.9.5.6.9 1.3 1.1 2.2.1.4.2.9.2 1.5s.1 1.1.1 1.8c0 .6.1 1.2.1 1.8 0 .6.1 1.2.1 1.7s.1 1 .2 1.3c.1.4.2.6.3.8.1.2.2.4.3.4.1.1.1.1.2.1.3 0 .8-.6 1.5-1.8.4-.6.7-1.3 1.2-2 .4-.7.9-1.6 1.4-2.5.5-.9 1.1-1.7 1.7-2.6s1.2-1.6 1.8-2.2c.6-.6 1.1-1.1 1.6-1.5.5-.4.9-.6 1.3-.6.2 0 .5 0 .7.1.2 0 .5.1.7.2l.6.3.4.4c.2.4.4.8.5 1.3.1.5.2 1 .2 1.6 0 .6.1 1.3.1 2s.1 1.6.2 2.5c.2 1.9.5 3.3 1 4.3.5.9 1.1 1.4 1.9 1.4.3 0 .7-.1 1.2-.3.5-.2 1-.5 1.6-.8.6-.3 1.1-.7 1.7-1.2.6-.4 1.1-.9 1.6-1.3s1-.9 1.4-1.3c.5-.4.9-.9 1.4-1.3s.9-.9 1.4-1.4c.5-.5 1-1 1.5-1.6.2-.2.4-.3.5-.3-.1 0 0 .2 0 .6z"/><path class="st0" d="M182.6 20.4c0 .2 0 .4-.1.7 0 .3-.1.5-.2.8-.1.3-.2.5-.3.7l-.3.6c-.1.1-.2.3-.4.5s-.4.4-.6.7c-.2.2-.4.5-.7.8l-.8.8c-.9.9-1.9 1.7-2.8 2.5s-1.8 1.5-2.8 2.2c-1 .6-2 1.1-3 1.5s-2.2.6-3.4.5c-.6 0-1.1-.1-1.7-.3-.6-.2-1.1-.5-1.6-.9s-.9-.8-1.3-1.4c-.4-.5-.6-1.1-.8-1.8-.4.5-.9.9-1.4 1.4l-1.5 1.5c-.5.5-1.1 1-1.6 1.5-.6.5-1.1.9-1.7 1.3-.3.2-.7.4-1.2.7-.5.2-1 .5-1.5.7-.5.2-1 .4-1.5.5-.5.1-1 .2-1.4.2-.6 0-1.2-.2-1.6-.6-.5-.4-.8-.9-1.1-1.4-.3-.6-.5-1.2-.7-1.8s-.2-1.2-.2-1.7c0-1 .1-2 .4-3.1.3-1.1.7-2.1 1.1-3.1.5-1 1-2 1.6-2.9.6-.9 1.1-1.7 1.7-2.4.6-.7 1.3-1.5 2.1-2.2.8-.7 1.6-1.4 2.5-2 .9-.6 1.7-1 2.5-1.4.8-.4 1.6-.5 2.2-.5h1c.4 0 .7 0 1.1.1.4 0 .7.1 1 .2.3.1.6.2.9.4l.5.5c.2.3.4.6.5.9.2.3.3.6.4 1 .1.3.2.6.2.8 0 .5-.1 1.2-.3 2-.2 1.1-.5 2-.7 2.9-.2.9-.3 1.8-.3 2.7 0 .5.1 1.1.3 1.6.2.5.4 1 .7 1.5.3.4.7.8 1.1 1.1.5.3 1 .4 1.5.4.9 0 1.9-.2 2.9-.6 1-.4 2-.9 3-1.6s2-1.5 3-2.4c1-.9 2-1.8 2.9-2.9.1-.1.2-.2.4-.5s.4-.4.6-.7l.6-.6c.2-.2.3-.3.4-.3.2-.1.4.2.4.9zm-20.5-1.9v-1c0-.4-.1-.7-.3-.9-.2-.2-.4-.4-.6-.4h-.7c-.5 0-1.1.1-1.5.3-.5.2-1 .4-1.5.7-.5.3-.9.6-1.4 1-.4.4-.9.8-1.3 1.2-.4.4-.7.8-1.1 1.3-.4.5-.8 1.1-1.1 1.7-.4.6-.7 1.3-1.1 2-.4.7-.7 1.4-.9 2-.3.7-.5 1.3-.6 1.9-.2.6-.2 1.2-.2 1.7 0 .2 0 .4.1.6 0 .3.1.5.2.7l.3.6c.1.2.3.3.5.3.7 0 1.6-.2 2.6-.7 1.4-.6 2.7-1.4 3.9-2.5 1.2-1.1 2.2-2.3 3-3.7 1.1-2.1 1.7-4.4 1.7-6.8z"/><path class="st0" d="M203.4 15.8c0 .6-.2 1-.5 1.3-.3.3-.7.6-1.1.8-.5.2-1.1.4-1.7.6-.6.2-1.3.3-1.9.5s-1.3.3-2 .4c-.7.1-1.3.2-1.9.2-.6.1-1.3.1-2 .2s-1.4.1-2.1.2c-.7.1-1.3.1-1.9.2-.6.1-1 .2-1.4.3-.3 1.4-.7 2.7-1 4-.4 1.3-.7 2.5-.9 3.8-.1.3-.1.7-.2 1.3l-.3 1.8c-.1.6-.2 1.2-.2 1.8-.1.6-.1 1-.1 1.2 0 .6.1 1.1.3 1.4.2.3.4.6.7.8.2.2.5.4.7.5.2.2.3.4.3.8 0 .2-.1.4-.3.6-.2.2-.5.4-.7.5-.3.2-.6.3-.9.4-.3.1-.6.1-.9.1-.4 0-.8-.1-1.2-.4-.4-.2-.7-.6-.9-1-.2-.4-.4-.8-.6-1.3-.1-.5-.2-1-.2-1.6 0-.7.1-1.5.2-2.3.1-.8.3-1.6.5-2.5.2-.8.4-1.7.6-2.6.2-.9.4-1.8.6-2.6.1-.4.2-.7.2-1.1.1-.4.2-.8.2-1.1.1-.3.1-.6.2-.9 0-.2.1-.4.1-.4 0-.2-.1-.4-.3-.6-.2-.1-.4-.2-.6-.2h-.8c-.4 0-.8.1-1.2.1-.4 0-.8.1-1.2.1h-.8c-.6 0-1 0-1.4-.1-.4-.1-.7-.2-.9-.4s-.4-.4-.5-.8c-.1-.3-.2-.8-.2-1.3 0-.2.1-.4.3-.5.2-.1.4-.2.7-.3.3-.1.6-.1.9-.1h.8c.2 0 .5 0 1-.1.5 0 .9-.1 1.4-.1.5 0 1-.1 1.4-.1.5 0 .8-.1 1-.1h.3c.1 0 .2-.1.4-.1.1-.1.2-.2.4-.3.1-.2.2-.4.3-.7.1-.5.2-1 .4-1.7.2-.6.3-1.3.5-2s.3-1.3.5-1.9c.2-.6.3-1.2.4-1.6.1-.4.3-.9.4-1.4l.3-1.5c.1-.5.2-1 .3-1.4.1-.5.2-.9.4-1.3.3-.8.9-1.2 1.6-1.2 1.1 0 1.7.6 1.7 1.9 0 .8-.2 1.7-.5 2.7-.7 2.3-1.3 4.2-1.6 5.7-.4 1.5-.5 2.5-.5 3 0 .6.3.8.8.8h1.9c.6 0 1.2-.1 1.8-.1.6-.1 1.3-.1 2-.2s1.5-.2 2.3-.3l1.8-.3c.6-.1 1.1-.2 1.5-.3.5-.1.9-.2 1.3-.3s.7-.2.9-.2c.2 0 .3 0 .5-.1h.4c.1 0 .2.1.3.2-.2.8-.1 1-.1 1.2z"/><path class="st0" d="M221.8 21.1c0 .3-.1.8-.4 1.3-.3.6-.7 1.2-1.2 1.9s-1.1 1.4-1.8 2.2l-2.1 2.4-2.7 2.7c-1 .8-2 1.7-3.1 2.5-2.1 1.6-4.1 2.4-5.7 2.4-1.9 0-3.3-.6-4.3-1.9-1-1.3-1.7-2.8-2.1-4.5-.4-1.8-.6-3.6-.6-5.4 0-.8.1-2 .3-3.6.1-.8.2-1.5.3-2.1s.2-1.1.3-1.4c.2-.7.7-1.3 1.4-1.9.7-.6 1.4-.8 2.2-.8.4 0 .6.4.6 1.2 0 .5 0 1.1-.1 1.8s-.2 1.3-.3 2c-.2 1.2-.3 2.3-.4 3.2s-.1 1.8-.1 2.5c0 1.5.2 3.1.6 4.7.4 1.6 1.2 2.4 2.3 2.4 1.1 0 2.4-.4 3.9-1.2.7-.4 1.5-.9 2.2-1.4.7-.5 1.5-1.1 2.2-1.7.8-.6 1.5-1.3 2.2-1.9.7-.6 1.4-1.3 2.1-2 .7-.7 1.3-1.3 1.8-1.9.5-.6 1-1.1 1.4-1.7 0 0 0-.1.1-.1 0-.1.1-.1.1-.2s.1-.1.1-.2c0 0 .1-.1.1 0 .2 0 .4.2.5.5.2-.3.2 0 .2.2zm-15-18.7c0 1-.3 1.8-.8 2.5S204.8 6 203.8 6c-.6 0-1.3-.1-2-.3-.7-.2-1.1-.5-1.1-.9 0-.7.2-1.5.7-2.1.5-.7 1-1.2 1.7-1.7.5-.3.9-.5 1-.5.9 0 1.5.1 2 .4.5.3.7.8.7 1.5z"/><path class="st0" d="M247.5 20.2c0 .6-.2 1-.6 1.5-.1.2-.4.4-.6.6-.3.3-.6.5-.8.7l-2.1 2.1-1.1 1.1c-.3.3-.6.6-.9.8-.4.4-1 .8-1.6 1.3-.6.5-1.3 1.1-2.1 1.8-1.6 1.3-3.1 2.4-4.4 3.2-1.3.8-2.8 1.5-4.3 2s-3.2.7-4.9.7c-1.1 0-2-.2-2.8-.6-.8-.4-1.5-.9-2.1-1.6-.6-.7-1-1.5-1.3-2.4-.3-.9-.4-1.9-.4-2.9 0-2 .4-4.1 1.3-6.1s2-4 3.5-6c.8-1 1.7-2 2.8-3 1.1-.9 2.1-1.4 3-1.4.5 0 1 .4 1.6 1.2.3.4.6.8.9 1.3.3.5.5.9.8 1.4.5 1 .7 1.7.7 2.2 0 .4-.1 1-.4 1.7-.3.7-.6 1.1-1 1.1-.6 0-1-.4-1.4-1.1-.2-.4-.3-.7-.4-1l-.3-.9c-.4-.9-.7-1.6-.9-2-1 .2-1.9.7-2.5 1.5-.3.4-.7.9-1 1.4-.3.6-.7 1.2-1.1 1.9-.3.6-.6 1.2-.8 1.9-.3.7-.5 1.4-.7 2.1-.2.7-.3 1.5-.4 2.2-.1.7-.2 1.4-.2 2 0 .9.4 1.8 1.1 2.6.8.8 1.6 1.2 2.5 1.2 2 0 3.8-.3 5.6-1 1.8-.7 3.4-1.6 5.1-2.8 1.6-1.1 3.2-2.4 4.9-3.9.8-.7 1.6-1.5 2.4-2.1.7-.7 1.4-1.3 2.1-1.9 1.1-1 2-1.5 2.8-1.5-.1.1 0 .3 0 .7zM248 31.2c0 .3-.1.8-.2 1.5-.1.4-.6.9-1.4 1.6-.9.7-1.5 1.1-1.9 1.1-.4 0-.7-.1-1-.2-.2-.1-.4-.3-.6-.5-.1-.2-.2-.5-.3-.9 0-.4-.1-.8-.1-1.3 0-.9 0-1.5.1-1.9.1-.7 1.1-1 3.3-1h.5c.4 0 .9.3 1.4.8.2.2.2.4.2.8zM262.6 14.8c0 .1 0 .3-.1.6s-.2.5-.3.8c-.1.3-.2.5-.3.8-.1.3-.2.4-.2.6-.1.4-.2 1.1-.3 1.8-.1.8-.1 1.7-.1 2.8v10c0 1.1-.1 2.2-.2 3.2s-.2 1.9-.4 2.8l-.6 2.7c-.3 1-.6 1.8-1 2.6s-.9 1.5-1.4 2.1c-.6.6-1.2 1-1.9 1.3-.7.3-1.6.5-2.5.5-.5 0-1.1-.1-1.6-.2s-1-.3-1.5-.5-.9-.4-1.4-.7c-.4-.3-.8-.5-1.1-.8-.3-.3-.6-.5-.7-.7-.2-.2-.3-.4-.3-.6 0-.4.1-.7.4-.7.1 0 .3 0 .7.1.4.1.8.2 1.3.3.5.1 1.1.2 1.7.3.6.1 1.2.1 1.8.1 2.1 0 3.5-1.1 4.1-3.4.6-2.2.9-4.9.9-8.1v-1.4-1.7-1.8-1.8-1.5-1.1c0-3.5.4-6.1 1.1-7.8.6-1.4 1.4-2 2.5-2 .4 0 .8.1 1.1.4.2.2.3.6.3 1zM266.7 3c0 .1-.1.4-.3.7-.2.4-.4.7-.6 1.1-.2.4-.5.7-.7 1-.2.3-.4.4-.6.4-.4 0-.6 0-.9-.1-.2-.1-.4-.2-.6-.4s-.4-.4-.6-.7-.4-.6-.6-1c-.2-.3-.3-.5-.4-.7s-.1-.4-.1-.5c0-.2.1-.5.2-.8.2-.3.4-.5.6-.7.2-.2.5-.4.8-.5s.5-.2.8-.2c.3 0 .7.1 1 .2.4.1.7.3 1 .5.3.2.5.4.7.7s.3.6.3 1zM293.4 19.4c0 .2-.1.5-.2.8-.1.3-.3.6-.6.9s-.5.6-.8 1c-.3.3-.6.7-.9 1-.2.3-.5.5-.7.8l-.9.9c-.3.3-.7.7-1.2 1.1-.4.4-1 .9-1.6 1.5-.5.5-1.1 1.1-1.8 1.6-.7.6-1.3 1.1-2 1.7-.7.6-1.3 1.1-1.9 1.6-.6.5-1.2.9-1.6 1.3-1.1.9-2.1 1.8-3.1 2.6s-2 1.5-2.9 2.2c-1.9 1.3-3.4 1.9-4.5 1.9-.4 0-.8-.1-1.3-.3-.5-.2-.8-.5-.8-.8 0-1 .4-1.8 1.1-2.3.7-.5 1.9-1.1 3.4-1.7 1.5-.6 2.7-1.2 3.4-1.8.8-.6 1.1-1.4 1.1-2.4 0-.5-.5-1.5-1.6-3.1-.5-.8-1-1.5-1.4-2.1-.4-.6-.8-1.2-1-1.8-.6-1.1-.9-2.2-.9-3.4 0-1 .2-2.1.6-3.2.2-.6.5-1.3.9-1.9.4-.7.8-1.2 1.3-1.7s1-.9 1.4-1.2c.5-.3.9-.5 1.3-.4 1.3 0 2 .8 2 2.4 0 .6-.2 1.2-.7 1.8-.2.3-.5.6-.8.9-.3.3-.7.6-1.1 1-.4.3-.7.6-1 .8-.3.2-.5.5-.7.6 0 .8.2 1.7.7 2.8.3.5.6 1.1.9 1.7.3.6.7 1.3 1.2 2 .4.7.8 1.3 1.1 1.9.3.6.5 1 .7 1.2 0 .1.1.1.3.1.2 0 .6-.2 1.1-.5.5-.3 1.2-.7 1.9-1.3.7-.5 1.5-1.1 2.4-1.8.9-.7 1.7-1.4 2.6-2.2.9-.8 1.6-1.5 2.2-2.1.6-.6 1.1-1.2 1.7-1.7l1.2-1.2.4-.4c.1 0 .2 0 .3.1.1.1.2.2.3.4.1.1.1.3.2.5.2-.1.3.1.3.2z"/></svg>