<svg id="Слой_1" xmlns="http://www.w3.org/2000/svg" viewBox="0 0 258 104"><style>.st0{enable-background:new ;}</style><g class="st0"><path d="M58.1 100.7c-.9 0-1.6-.2-2.3-.5-.7-.3-1.2-.8-1.7-1.3-.4-.5-.8-1.2-1-1.9-.2-.7-.3-1.4-.3-2.1 0-.6.2-1.5.5-2.6s.8-2.3 1.3-3.7c.5-1.4 1.1-2.8 1.7-4.3s1.2-2.9 1.8-4.3c.6-1.4 1.1-2.6 1.5-3.8.4-1.2.7-2.1.9-2.8.2-.8.4-1.6.6-2.7.3-1 .5-2.2.8-3.4.3-1.2.6-2.5.9-3.9.3-1.4.6-2.7 1-4.1-.6.1-1.3.2-2.2.3l-2.7.3c-1.4.1-2.7.3-4.1.6-1.3.3-2.7.5-4.1.8-1.4.3-2.8.6-4.3 1s-3.1.7-4.8 1.1c-2.5.5-5 1.1-7.5 1.8s-5.1 1-7.8 1c-.8 0-1.6-.2-2.3-.7-.7-.4-1.5-.8-2.4-1-.8 1.3-1.6 2.8-2.4 4.3-.8 1.5-1.4 3.1-2.1 4.7-.6 1.6-1.2 3.2-1.7 4.8s-.9 3-1.3 4.4c-.2.8-.4 1.7-.5 2.9-.1 1.2-.3 2.4-.4 3.6-.1 1.2-.3 2.4-.4 3.5s-.3 2-.4 2.7c-.1.6-.4 1.2-.8 1.8-.4.6-.8 1.2-1.4 1.7-.5.5-1.1.9-1.8 1.2-.7.3-1.3.5-2 .5-1.2 0-2.1-.3-2.8-1C3 99 2.4 98.1 2 97.1c-.4-1-.7-2.1-.9-3.3-.2-1.2-.3-2.3-.3-3.3 0-2.5.3-5.2.9-7.9.6-2.7 1.5-5.5 2.5-8.3s2.3-5.6 3.8-8.5c1.4-2.9 3-5.7 4.7-8.5 1.4-2.5 3.1-5.5 5.1-8.8 2-3.3 4.3-6.8 6.8-10.3 2.5-3.5 5.3-7 8.2-10.3s6-6.4 9.2-9c3.2-2.6 6.4-4.8 9.8-6.4 3.3-1.6 6.6-2.4 9.9-2.4 3.5 0 6.3.6 8.7 1.9s4.2 2.9 5.5 5.1 2.3 4.6 2.9 7.4c.6 2.8.8 5.8.8 9 0 2.8-.2 5.7-.5 8.6-.4 3-.8 5.9-1.3 8.7-.5 2.8-1.1 5.6-1.7 8.2-.6 2.6-1.2 5-1.7 7.1l-2.2 8.5c-.1.3-.2.8-.5 1.5-.2.8-.5 1.7-.9 2.7-.4 1.1-.8 2.2-1.2 3.4-.4 1.2-.9 2.4-1.3 3.6s-.9 2.3-1.3 3.3-.7 1.8-1 2.4l.1-.1-.9 3.3c-.3 1.1-.8 2.1-1.4 3-.6.9-1.3 1.6-2.3 2.2-.8.5-2 .8-3.4.8zm3.2-78.3c-1.9 0-3.7.4-5.6 1.2-1.9.8-3.7 1.8-5.5 3-1.8 1.3-3.5 2.7-5.2 4.4-1.7 1.7-3.3 3.4-4.8 5.1-1.5 1.8-2.9 3.5-4.3 5.3-1.3 1.8-2.5 3.4-3.6 4.9-.2.3-.4.6-.7 1-.3.4-.5.8-.8 1.3-.3.5-.5 1-.8 1.5-.3.5-.5 1-.6 1.4h6.4c2.3 0 5-.2 8-.5s6-.7 8.9-1.2c2.9-.5 5.6-.9 8.1-1.4 2.5-.5 4.3-.8 5.6-1.1.2-.5.3-1.3.5-2.2.1-.9.3-1.9.4-3.1s.2-2.3.3-3.6c.1-1.3.1-2.6.1-3.9 0-1.1 0-2.3-.1-3.7-.1-1.4-.3-2.7-.8-4-.4-1.3-1.1-2.3-1.9-3.2-.9-.7-2.1-1.2-3.6-1.2zM92.5 68.2c.8-3.1 1.8-6.3 3.3-9.6 1.4-3.3 3.1-6.6 5-9.8 1.9-3.3 4.1-6.5 6.4-9.7 2.4-3.2 4.9-6.3 7.5-9.3 2.6-3 5.4-5.8 8.2-8.4 2.8-2.6 5.6-5.1 8.5-7.3 1.3-.9 2.6-1.5 3.7-1.8 1.1-.3 2.3-.4 3.6-.4 1.3 0 2.5.2 3.6.6 1 .4 2.1 1.1 3.1 2.2.3.4.7.7 1.1 1 .4.3.7.4 1.1.4.1 0 .2-.1.3-.3s.3-.4.4-.7c.1-.3.3-.5.5-.8.2-.3.5-.5.8-.6.7-.3 1.6-.6 2.5-.7 1-.1 2-.2 3-.2 1.9 0 3.7.3 5.4 1s3.3 1.7 4.6 2.9c3.2 3 5.6 6.5 7.2 10.6 1.6 4.1 2.5 8.6 2.5 13.3 0 4.3-.6 8.8-1.9 13.8-1.1 4.3-2.6 8.5-4.7 12.6-2 4.1-4.4 7.9-7.1 11.5-2.7 3.6-5.8 6.9-9.1 9.8-3.4 3-6.9 5.5-10.7 7.6-3.8 2.1-7.8 3.8-11.9 5s-8.3 1.8-12.6 1.8c-4 0-7.5-.6-10.7-1.8-3.1-1.2-5.8-2.9-8-5.1-2.2-2.2-3.9-4.8-5-7.9-1.1-3-1.7-6.4-1.7-10.1 0-1.6.1-3.2.3-4.8.1-1.5.4-3.1.8-4.8zm10.6 4.2c-.5 2.1-.7 4-.7 5.6 0 2.3.4 4.4 1.2 6.2.8 1.8 2 3.3 3.4 4.4 1.5 1.2 3.3 2.1 5.3 2.7 2.1.6 4.3.9 6.8.9 2.9 0 5.9-.5 8.9-1.4 3-.9 6-2.3 8.8-4s5.6-3.9 8.3-6.3c2.7-2.5 5.1-5.3 7.4-8.4 2.3-3.1 4.3-6.5 6.1-10.2 1.8-3.7 3.2-7.6 4.3-11.7.4-1.5.7-3.1.9-4.7s.3-3.2.3-4.7c0-2.4-.3-4.7-.8-6.9s-1.4-4.2-2.7-5.9c-1.3-1.7-2.9-3.1-4.9-4.1-2-1-4.5-1.5-7.5-1.5-.4 0-.7.2-1 .5-.2.4-.5.8-.7 1.3-.2.5-.4.9-.7 1.4-.3.5-.6.9-1.1 1.3-.4.4-1 .7-1.6 1-.6.3-1.4.4-2.4.4-.7 0-1.3-.2-1.9-.5-.5-.3-1.1-.7-1.6-1.3-.3-.3-.5-.4-.6-.6-.2-.1-.4-.2-.6-.2-.4 0-.9.2-1.5.5s-1.2.7-1.9 1.2c-.6.5-1.3.9-1.9 1.4-.6.5-1.1.9-1.4 1.3-2.8 2.9-5.7 6.1-8.5 9.5s-5.4 7-7.8 10.7c-2.4 3.7-4.4 7.4-6.2 11.1-1.7 3.9-2.9 7.5-3.7 11zM182.1 85.6c1.4.5 2.9 1.1 4.3 1.8 1.5.7 3 1.3 4.6 1.9 1.6.6 3.2 1.1 5 1.5 1.7.4 3.6.6 5.5.6 2.3 0 4.6-.3 6.9-.8 2.3-.5 4.6-1.3 6.8-2.4 2.2-1.1 4.4-2.4 6.4-3.9s3.9-3.3 5.6-5.3c1.9-2.1 3.4-4.1 4.7-5.8 1.3-1.7 2.3-3.3 3-4.6.8-1.4 1.3-2.5 1.7-3.5.3-1 .5-1.8.5-2.5 0-1-.4-1.9-1.1-2.7-.7-.8-1.7-1.4-2.8-1.9s-2.5-.9-4-1.1c-1.5-.2-3.1-.3-4.7-.3-1 0-2.1 0-3.4.1-1.3.1-2.6.1-3.9.2-1.3.1-2.6.1-3.9.2-1.3 0-2.3.1-3.3.1-1.4 0-2.8-.2-4.3-.5s-2.9-.8-4.3-1.5-2.7-1.7-3.9-2.9c-1.2-1.2-2.2-2.7-3-4.5-.3-.6-.5-1.3-.7-2.1-.2-.8-.3-1.6-.3-2.6s.1-1.9.2-2.8c.1-.9.3-1.8.5-2.6.6-2.1 1.6-4.2 2.9-6.3 1.4-2.1 3-4.2 4.9-6.3 1.9-2 4-4 6.2-5.9 2.2-1.9 4.5-3.7 6.9-5.4 2.4-1.7 4.7-3.2 6.9-4.6 2.3-1.4 4.4-2.5 6.3-3.5 2.8-1.3 5.6-2.3 8.4-2.9 2.9-.6 5.7-.9 8.5-.9 1.7 0 3.3.2 4.8.7s2.8 1.1 4 1.9c1.1.8 2.1 1.9 2.7 3.1.7 1.2 1 2.6 1 4.2 0 .9-.1 1.7-.3 2.3-.2.6-.5 1.1-.8 1.5-.3.4-.7.7-1.1.8-.4.2-.8.3-1.2.3-1.1 0-2.2-.1-3.1-.4s-1.8-.5-2.7-.8-1.8-.6-2.6-.9c-.9-.3-1.8-.4-2.9-.4-3.1 0-6.2.6-9.4 1.8-3.2 1.2-6.3 2.8-9.3 4.7-3 1.9-5.9 4-8.6 6.3-2.7 2.3-5.1 4.6-7.2 6.8-1.1 1.2-1.9 2.3-2.5 3.5-.5 1.2-.8 2.3-.8 3.3 0 1.5.7 2.8 2 3.6 1.3.9 3 1.3 4.9 1.3 1.1 0 2.4 0 3.8-.1 1.4 0 2.9-.1 4.3-.2 1.5-.1 2.9-.1 4.3-.2s2.6-.1 3.7-.1c2.6 0 5.1.4 7.4 1.1 2.4.7 4.5 1.8 6.3 3.2 1.8 1.4 3.3 3.2 4.4 5.3 1.1 2.1 1.7 4.5 1.7 7.2 0 1.7-.3 3.4-.8 5.1-.5 1.7-1.2 3.4-2.1 5.2-.9 1.7-1.9 3.4-3 5.1s-2.3 3.3-3.6 5c-2.3 2.9-4.8 5.7-7.5 8.3-2.8 2.6-5.7 4.8-8.8 6.8-3.1 1.9-6.4 3.4-9.9 4.6-3.5 1.1-7.1 1.7-10.7 1.7-1.6 0-3.2-.1-4.9-.4-1.7-.3-3.3-.7-4.9-1.3s-3.2-1.3-4.6-2.1-2.7-1.8-3.8-2.9c-1.1-1.1-1.9-2.3-2.6-3.6-.6-1.3-1-2.7-1-4.3 0-.8.1-1.5.3-2.2.5-.8 1.1-1.1 2-1.1z"/></g></svg>