<?xml version="1.0" encoding="utf-8"?>
<!-- Generator: Adobe Illustrator 22.1.0, SVG Export Plug-In . SVG Version: 6.00 Build 0)  -->
<svg version="1.1" id="Слой_1" xmlns="http://www.w3.org/2000/svg" xmlns:xlink="http://www.w3.org/1999/xlink" x="0px" y="0px"
	 viewBox="0 0 250 86" enable-background="new 0 0 250 86" xml:space="preserve">
<g>
	<path fill="#07B189" d="M5.4,36.6c3-17.6,5.1-28,6.4-31.3c1.3-3.2,3.6-4.9,6.8-4.9c2.5,0,3.8,2.2,3.8,6.7c0,3-1.3,9.3-3.8,18.9
		c-1.3,4.7-2.9,11.9-4.8,21.4c3.8-5.1,7.9-9.1,12.4-12.3c4.5-3.1,8.5-4.7,12-4.7c2.9,0,5.3,1.2,7.2,3.7c1.9,2.5,2.9,5.4,2.9,8.7
		c0,9.4-3.6,18.3-10.9,26.6c-7.2,8.3-14.9,12.5-23.1,12.5c-2.5,0-4.7-0.7-6.8-2c-2.1-1.3-3.3-3-3.6-5.1c-0.1-1.1-0.4-1.9-0.7-2.3
		c-0.3-0.4-0.7-0.8-1.1-1.2c-0.9-0.9-1.3-2.2-1.3-3.9c0-1.9,0.5-5.9,1.4-11.9L5.4,36.6z M10.8,69.2c1.3,2.1,2.7,3.2,4.3,3.2
		c2.9,0,6.1-1.3,9.6-4c3.5-2.6,6.6-6.4,9.1-11.2c2.6-4.8,3.9-8.8,3.9-12c0-3-0.5-4.5-1.4-4.5c-4.9,0-10.3,3.6-16.4,10.7
		C13.8,58.6,10.8,64.5,10.8,69.2z"/>
	<path fill="#07B189" d="M86.8,65.8C78.8,76.5,71,81.8,63.5,81.8c-2.8,0-5.1-1.1-7.1-3.3c-2-2.2-3-4.9-3-8.3
		c0-8.1,3.6-16.8,10.8-25.9c7.2-9.2,14.5-13.8,21.9-13.8c3.7,0,6.2,1.9,7.4,5.7c3.5,0,5.3,1.3,5.3,4c0,1.3-0.3,3.6-1,7
		c-1.2,6.3-1.8,11.3-1.8,15.1c0,3.9,0.3,6.7,0.8,8.3c0.5,1.6,0.9,2.6,1.2,3.1c0.2,0.5,1,1,2.2,1.6c1.2,0.6,1.8,1.4,1.8,2.4
		c0,1.6-0.8,2.9-2.4,3.9c-1.6,1-3.2,1.6-4.9,1.6C88.8,83.2,86.3,77.4,86.8,65.8z M84.1,40.3C81,40.3,77,43.8,72,50.6
		c-4.9,6.8-7.4,12.7-7.4,17.4c0,2.5,0.5,3.8,1.6,3.8c3.6,0,8.1-3.2,13.3-9.6c5.3-6.4,7.9-12,7.9-16.8c0-1.5-0.3-2.7-1-3.7
		C85.7,40.8,84.9,40.3,84.1,40.3z"/>
	<path fill="#07B189" d="M123,57.8l-0.8,8.2c-0.2,2.6-0.4,5.2-0.4,7.8c0,2.3,0.2,5,0.6,8.1c-0.3,1.1-1.1,2-2.3,2.8
		c-1.2,0.8-2.5,1.1-3.9,1.1c-4.2,0-6.3-2.7-6.3-8c0-2.4,0.7-8,2-16.9c0.9-6.4,1.4-11.2,1.4-14.3c0-0.2-0.2-0.4-0.6-0.6
		c-2.1-1.3-3.2-2.6-3.2-3.9c0-1.6,1.2-3.3,3.5-5.2c1.1-0.9,1.8-1.9,2.1-3.1c0.3-1.2,0.6-3,1.1-5.6c1.7-9.8,4.2-16.7,7.7-20.8
		c3.5-4.1,7.9-6.2,13.3-6.2c3.1,0,5.8,1,7.9,3.1s3.2,4.6,3.2,7.6c0,2.7-0.6,5.5-1.9,8.4c-1.2,2.9-2.9,4.3-4.9,4.3
		c-0.9,0-1.6-0.3-2.3-0.9c-0.6-0.6-0.9-1.3-0.9-2.2l0.3-4c0-4.8-1-7.2-3-7.2c-2.5,0-4.8,3.1-7,9.3c-2.2,6.2-3.2,11.5-3.2,15.9
		c0,0.5,0.3,0.7,0.9,0.7c6.3,0,10.8,0,13.4-0.1c2.6-0.1,3.9,0.9,3.9,3c0,2-1.6,3.5-4.8,4.5c-3.2,1-6.5,1.4-10,1.4
		c-2.4,0.2-3.9,0.4-4.6,0.6C123.9,50.3,123.3,54.3,123,57.8L123,57.8z"/>
	<path fill="#07B189" d="M157.9,57.8l-0.8,8.2c-0.2,2.6-0.4,5.2-0.4,7.8c0,2.3,0.2,5,0.6,8.1c-0.3,1.1-1.1,2-2.3,2.8
		c-1.2,0.8-2.5,1.1-3.9,1.1c-4.2,0-6.3-2.7-6.3-8c0-2.4,0.7-8,2-16.9c0.9-6.4,1.4-11.2,1.4-14.3c0-0.2-0.2-0.4-0.6-0.6
		c-2.1-1.3-3.2-2.6-3.2-3.9c0-1.6,1.2-3.3,3.5-5.2c1.1-0.9,1.8-1.9,2.1-3.1c0.3-1.2,0.6-3,1.1-5.6c1.7-9.8,4.2-16.7,7.7-20.8
		c3.5-4.1,7.9-6.2,13.3-6.2c3.1,0,5.8,1,7.9,3.1c2.2,2,3.2,4.6,3.2,7.6c0,2.7-0.6,5.5-1.9,8.4c-1.2,2.9-2.9,4.3-4.9,4.3
		c-0.9,0-1.6-0.3-2.3-0.9c-0.6-0.6-0.9-1.3-0.9-2.2l0.3-4c0-4.8-1-7.2-3-7.2c-2.5,0-4.8,3.1-7,9.3c-2.2,6.2-3.2,11.5-3.2,15.9
		c0,0.5,0.3,0.7,0.9,0.7c6.3,0,10.8,0,13.4-0.1c2.6-0.1,3.9,0.9,3.9,3c0,2-1.6,3.5-4.8,4.5c-3.2,1-6.5,1.4-10,1.4
		c-2.4,0.2-3.9,0.4-4.6,0.6C158.7,50.3,158.2,54.3,157.9,57.8L157.9,57.8z"/>
	<path fill="#07B189" d="M197,3.4c3.3,0,5,1.8,5,5.4c0,1.7-0.2,3.4-0.7,5.4c-0.5,1.9-1.7,6.7-3.8,14.2c-1.5,5.5-2.6,11.5-3.4,17.9
		c-0.8,6.5-1.2,11.5-1.2,15.2c0,3.9,0.3,8.5,0.9,13.9c0.2,1.4,0.2,2.3,0.2,2.7c0,1.8-0.7,3.4-2,4.7c-1.3,1.3-2.8,2-4.4,2
		c-2.2,0-3.7-1-4.6-3.1c-0.9-2.1-1.3-5.6-1.3-10.6c0-10.7,1.3-23.4,3.8-38c2.5-14.6,4.6-23.2,6.2-25.8C193.2,4.8,195,3.4,197,3.4z"
		/>
	<path fill="#07B189" d="M248,65.4c0,3.2-2.7,7-8,11.4c-5.4,4.4-11.4,6.6-18.1,6.6c-5.2,0-9.2-1.6-12.2-4.9c-3-3.3-4.5-7.8-4.5-13.6
		c0-8.6,3-16.6,9.1-24.1c6.1-7.5,12.5-11.3,19.4-11.3c3.4,0,6.2,1.1,8.3,3.3c2.1,2.2,3.1,4.8,3.1,7.8c0,5.3-2.6,10.4-7.7,15.2
		c-5.1,4.8-11.7,8.2-19.7,10c-0.9,0.2-1.4,0.8-1.4,1.7c0,1.5,0.7,2.9,2,4.2c1.3,1.3,3,2,5.2,2c6.2,0,12.3-3.2,18.3-9.5
		c1.2-1.2,2.3-1.8,3.4-1.8C247.1,62.3,248,63.4,248,65.4z M217.2,57.3c4.8-1,9.1-3,12.8-6.2c3.7-3.2,5.5-6,5.5-8.6
		c0-1-0.3-1.9-0.9-2.5c-0.6-0.7-1.3-1-2.2-1c-2.7,0-5.6,2-8.9,5.9C220.4,48.7,218.2,52.9,217.2,57.3z"/>
</g>
</svg>
