<?xml version="1.0" encoding="utf-8"?>
<!-- Generator: Adobe Illustrator 22.1.0, SVG Export Plug-In . SVG Version: 6.00 Build 0)  -->
<svg version="1.1" id="Слой_1" xmlns="http://www.w3.org/2000/svg" xmlns:xlink="http://www.w3.org/1999/xlink" x="0px" y="0px"
	 viewBox="0 0 241 43" enable-background="new 0 0 241 43" xml:space="preserve">
<g>
	<path d="M24.9,10.1c0,1-0.2,2-0.5,3c-0.3,1-0.8,2-1.4,2.9s-1.4,1.7-2.4,2.3c-1,0.7-2.1,1.2-3.5,1.5v0.2c1.2,0.2,2.3,0.5,3.4,1
		c1.1,0.5,2,1.1,2.9,2c0.8,0.8,1.5,1.8,2,3c0.5,1.2,0.8,2.6,0.8,4.2c0,2.1-0.4,4-1.3,5.5c-0.9,1.6-2.1,2.8-3.5,3.8
		c-1.4,1-3.1,1.7-4.9,2.2c-1.9,0.5-3.7,0.7-5.7,0.7c-0.7,0-1.5,0-2.4,0c-0.9,0-1.9,0-2.8-0.1c-1-0.1-2-0.1-3-0.2
		c-1-0.1-1.9-0.2-2.6-0.4V1C1.4,0.8,3.1,0.6,5,0.4c1.9-0.2,4-0.2,6.3-0.2c1.5,0,3.1,0.1,4.7,0.4c1.6,0.3,3,0.8,4.3,1.5
		c1.3,0.7,2.4,1.7,3.2,3.1C24.5,6.4,24.9,8.1,24.9,10.1z M7.9,18.9c0.7,0,1.5,0,2.4-0.1c0.9,0,1.7-0.1,2.4-0.2
		c0.9-0.3,1.8-0.7,2.7-1.2c0.8-0.5,1.6-1,2.2-1.6c0.7-0.6,1.2-1.3,1.5-2.1c0.4-0.8,0.6-1.7,0.6-2.6c0-1.3-0.2-2.4-0.7-3.3
		c-0.5-0.9-1.2-1.6-2-2.1c-0.8-0.5-1.8-0.9-2.8-1.1c-1.1-0.2-2.2-0.3-3.3-0.3c-1.3,0-2.5,0-3.6,0.1C6.2,4.6,5.4,4.7,4.8,4.8v14.1
		H7.9z M11.2,38.3c1.3,0,2.5-0.2,3.7-0.5c1.2-0.3,2.2-0.8,3.1-1.4c0.9-0.6,1.6-1.4,2.2-2.4c0.5-0.9,0.8-2.1,0.8-3.4
		c0-1.6-0.3-2.9-1-3.9c-0.7-1-1.5-1.8-2.5-2.3c-1-0.6-2.2-0.9-3.5-1.1C12.6,23.1,11.3,23,10,23H4.8v14.9C5.1,38,5.5,38.1,6,38.1
		c0.5,0,1.1,0.1,1.7,0.1c0.6,0,1.2,0.1,1.8,0.1C10.2,38.3,10.7,38.3,11.2,38.3z"/>
	<path d="M33.7,0.6h9.9v31.5c0,2.4,0.4,4.1,1.2,5.1c0.8,1,2,1.5,3.6,1.5c1.1,0,2.2-0.2,3.4-0.7c1.1-0.4,2.2-1,3.1-1.8l2.1,3.1
		c-0.6,0.6-1.3,1-2.1,1.5c-0.8,0.4-1.5,0.8-2.3,1.1c-0.8,0.3-1.6,0.5-2.4,0.7s-1.5,0.2-2.2,0.2c-1.5,0-2.8-0.2-3.9-0.6
		c-1.2-0.4-2.1-1-2.9-1.8c-0.8-0.8-1.4-1.9-1.8-3.3c-0.4-1.4-0.6-3.1-0.6-5.1V4.6h-5.2V0.6z"/>
	<path d="M68.5,27.3c0-4.8,1.2-8.6,3.7-11.4c2.5-2.8,6-4.2,10.7-4.2c2.5,0,4.6,0.4,6.4,1.2c1.8,0.8,3.3,1.9,4.5,3.3
		c1.2,1.4,2.1,3,2.6,4.9c0.6,1.9,0.9,3.9,0.9,6.1c0,2.4-0.3,4.5-0.9,6.4c-0.6,1.9-1.6,3.5-2.8,4.9c-1.2,1.3-2.7,2.4-4.5,3.1
		c-1.8,0.7-3.8,1.1-6.1,1.1c-2.5,0-4.6-0.4-6.4-1.2c-1.8-0.8-3.3-1.9-4.5-3.3c-1.2-1.4-2.1-3-2.6-4.9C68.8,31.5,68.5,29.5,68.5,27.3
		z M73.4,27.3c0,1.4,0.2,2.8,0.5,4.2c0.3,1.4,0.9,2.6,1.6,3.7c0.7,1.1,1.7,2,2.9,2.7c1.2,0.7,2.7,1,4.4,1c3.2,0,5.5-1,7.1-2.9
		c1.6-2,2.4-4.8,2.4-8.6c0-1.4-0.2-2.8-0.5-4.2c-0.3-1.4-0.9-2.6-1.7-3.7c-0.8-1.1-1.8-2-3-2.7c-1.2-0.7-2.7-1-4.4-1
		c-3.2,0-5.5,1-7.1,2.9C74.2,20.6,73.4,23.5,73.4,27.3z"/>
	<path d="M102.6,12.5h7.1V6.6l4.7-1.3v7.2h15.8v4h-15.8v14c0,2.9,0.7,5,2.1,6.4c1.4,1.4,3.4,2.1,6,2.1c1.8,0,3.3-0.3,4.6-1
		c1.3-0.7,2.5-1.4,3.6-2.2l1.5,3.5c-1.4,1.1-3,2-5,2.7c-1.9,0.7-3.9,1-5.9,1c-1.6,0-3.1-0.2-4.5-0.7c-1.4-0.5-2.6-1.2-3.7-2.1
		c-1.1-0.9-1.9-2.2-2.5-3.6c-0.6-1.5-0.9-3.3-0.9-5.3V16.5h-7.1V12.5z"/>
	<path d="M138.1,12.5h7.1V6.6l4.7-1.3v7.2h15.8v4h-15.8v14c0,2.9,0.7,5,2.1,6.4c1.4,1.4,3.4,2.1,6,2.1c1.8,0,3.3-0.3,4.6-1
		c1.3-0.7,2.5-1.4,3.6-2.2l1.5,3.5c-1.4,1.1-3,2-5,2.7c-1.9,0.7-3.9,1-5.9,1c-1.6,0-3.1-0.2-4.5-0.7c-1.4-0.5-2.6-1.2-3.7-2.1
		s-1.9-2.2-2.5-3.6c-0.6-1.5-0.9-3.3-0.9-5.3V16.5h-7.1V12.5z"/>
	<path d="M203.2,38.4c-0.7,0.6-1.6,1.2-2.5,1.8c-1,0.6-2,1-3.2,1.4c-1.1,0.4-2.3,0.7-3.6,0.9c-1.2,0.2-2.5,0.3-3.8,0.3
		c-2.4,0-4.5-0.4-6.3-1.1c-1.8-0.7-3.3-1.8-4.6-3.1c-1.2-1.4-2.2-3-2.8-4.9c-0.6-1.9-0.9-4-0.9-6.4c0-2.5,0.3-4.7,1-6.6
		c0.7-1.9,1.7-3.6,3-4.9s2.9-2.3,4.7-3c1.9-0.7,3.9-1,6.2-1c1.7,0,3.3,0.2,4.9,0.7c1.6,0.4,3.1,1.3,4.3,2.5c1.2,1.2,2.2,2.9,2.9,5
		c0.7,2.1,0.9,4.9,0.7,8.2h-22.9c0,3.6,1,6.2,2.9,8c1.9,1.8,4.5,2.6,7.7,2.6c1.1,0,2.1-0.1,3.2-0.4c1-0.3,2-0.6,3-0.9
		c0.9-0.4,1.8-0.8,2.5-1.2c0.7-0.4,1.3-0.8,1.7-1.2L203.2,38.4z M190.7,15.7c-1.3,0-2.5,0.1-3.7,0.4c-1.2,0.3-2.2,0.7-3.1,1.4
		c-0.9,0.7-1.6,1.5-2.2,2.5c-0.6,1-0.9,2.3-1.1,3.9h18.4c-0.2-2.6-1-4.6-2.5-6.1C195.1,16.4,193.1,15.7,190.7,15.7z"/>
	<path d="M211.3,42.1v-4h8V16.5h-8v-4h11.1l0.9,3.9h0.3c1.3-1.2,2.8-2.3,4.5-3.1c1.7-0.9,3.6-1.3,5.9-1.3c1.3,0,2.4,0.3,3.2,0.8
		c0.8,0.5,1.4,1.3,1.9,2.3c0.5,1,0.8,2.2,0.9,3.6c0.2,1.4,0.2,3,0.2,4.8l-4.1,0.1c0-2.5-0.2-4.4-0.7-5.5c-0.5-1.2-1.4-1.8-2.7-1.8
		c-1.2,0-2.3,0.2-3.3,0.5c-1,0.4-1.8,0.8-2.6,1.3c-0.7,0.5-1.4,1-1.9,1.5c-0.5,0.5-0.9,0.9-1.1,1.3v17.4h11.4v4H211.3z"/>
</g>
</svg>
