<svg id="Слой_1" xmlns="http://www.w3.org/2000/svg" viewBox="0 0 295 87"><style>.st0{fill:#FFBA6F;}</style><path class="st0" d="M11.5 11.8c0-.7-.1-1.3-.2-1.8s-.3-1-.6-1.3c-.3-.3-.7-.5-1.3-.7-.5-.2-1.2-.2-2-.2-1.1 0-2.5.1-4.3.4l-.2-2.3c1.5-.3 3.2-.6 5-.9 1.8-.3 3.7-.6 5.6-.8 1.9-.3 3.9-.5 5.8-.6 1.9-.2 3.8-.2 5.6-.2 1.5 0 2.9.1 4.3.2s2.8.4 4 .7c1.3.3 2.4.8 3.5 1.4s2 1.3 2.8 2.2c.8.9 1.4 1.9 1.8 3.1.4 1.2.7 2.5.7 4 0 2.2-.4 4.1-1.2 5.8S39 24 37.7 25.2c-1.3 1.3-2.9 2.3-4.6 3.2-1.7.9-3.6 1.5-5.5 2v.2c2.5.2 4.9.6 7 1.3 2.1.7 4 1.6 5.6 2.8s2.8 2.7 3.7 4.5c.9 1.8 1.3 3.9 1.3 6.4 0 2.1-.3 3.9-.9 5.6-.6 1.7-1.4 3.1-2.3 4.4-1 1.3-2.2 2.4-3.5 3.3-1.4.9-2.8 1.7-4.4 2.3-1.6.6-3.3 1-5 1.3-1.8.3-3.5.4-5.3.4-1.5 0-2.9-.1-4.3-.3-1.4-.2-2.8-.4-4.4-.6l-4.9.6-.5-.1c.2-2.2.4-4.6.6-7.2s.3-5.3.5-8.1c.1-2.8.2-5.7.3-8.7.1-3 .2-6 .2-9 .1-3 .1-6 .1-9 .1-3 .1-5.9.1-8.7zm4.7 47.3c1.3.3 2.5.5 3.6.7 1.2.1 2.3.2 3.5.2 2.1 0 4.1-.3 5.9-.8 1.8-.5 3.4-1.3 4.8-2.4 1.3-1.1 2.4-2.5 3.2-4.3.8-1.7 1.2-3.8 1.2-6.2 0-2.3-.4-4.2-1.2-5.9-.8-1.7-1.9-3.1-3.4-4.3-1.5-1.1-3.3-2-5.5-2.6-2.2-.6-4.6-.9-7.4-.9h-1.7c-.6 0-1.1.1-1.7.1 0 1-.1 2.2-.1 3.6-.1 1.4-.1 2.9-.2 4.4-.1 1.6-.1 3.2-.2 4.9s-.2 3.3-.2 4.9c-.1 1.6-.2 3.1-.3 4.6-.1 1.5-.2 2.8-.3 4zm1.9-52.5c0 1.1 0 2.5-.1 4 0 1.6-.1 3.4-.1 5.4-.1 2-.1 4.2-.2 6.5s-.1 4.8-.2 7.4c1.5 0 2.9-.2 4.4-.4 1.4-.2 2.8-.5 4.1-1 1.3-.4 2.5-1 3.6-1.7s2.1-1.5 2.9-2.5c.8-1 1.5-2.1 1.9-3.4.5-1.3.7-2.8.7-4.4 0-1.9-.3-3.6-.9-4.9-.6-1.3-1.5-2.4-2.6-3.2S29.2 7 27.8 6.6c-1.5-.4-3-.5-4.7-.5-.8 0-1.6 0-2.5.1-.8.2-1.6.3-2.5.4zM50.6 47.7c0-1.7.2-3.4.5-5.2.4-1.8.9-3.5 1.6-5.1.7-1.7 1.6-3.2 2.6-4.6 1-1.4 2.2-2.7 3.5-3.8 1.3-1.1 2.8-1.9 4.5-2.6 1.6-.6 3.4-.9 5.4-.9 2.2 0 4.1.5 5.8 1.4 1.7.9 3.1 2.1 4.2 3.6s2 3.2 2.6 5.1c.6 1.9.9 3.9.9 5.9 0 1.7-.2 3.4-.5 5.2-.4 1.8-.9 3.5-1.6 5.1-.7 1.7-1.6 3.2-2.6 4.6-1 1.4-2.2 2.7-3.5 3.8-1.3 1.1-2.8 1.9-4.5 2.6-1.6.6-3.4.9-5.4.9-2.2 0-4.1-.5-5.8-1.4-1.7-.9-3.1-2.1-4.2-3.6s-2-3.2-2.6-5.1c-.6-2-.9-4-.9-5.9zm6.1-2.5c0 1.2.1 2.3.3 3.5.2 1.2.5 2.3.8 3.4.4 1.1.8 2.1 1.4 3.1.5 1 1.2 1.8 2 2.5s1.6 1.3 2.5 1.7 2 .6 3.1.6c1.2 0 2.3-.3 3.3-.8s1.8-1.2 2.4-2.1c.7-.9 1.3-1.9 1.7-3 .4-1.1.8-2.3 1.1-3.5.3-1.2.5-2.4.6-3.6.1-1.2.2-2.3.2-3.3 0-1.2-.1-2.3-.3-3.5-.2-1.2-.5-2.3-.8-3.4-.4-1.1-.8-2.1-1.4-3.1-.6-1-1.2-1.8-2-2.5S70 30 69 29.6s-2-.6-3.1-.6c-1.2 0-2.3.3-3.3.8-.9.5-1.8 1.2-2.4 2.1-.7.9-1.3 1.9-1.7 3-.4 1.1-.8 2.3-1.1 3.5-.3 1.2-.5 2.4-.6 3.6 0 1.2-.1 2.3-.1 3.2zM98.3 30.5c0 1.2 0 2.4-.1 3.7-.1 1.3-.2 2.6-.3 4-.1 1.4-.2 2.7-.4 4s-.2 2.6-.4 3.8c-.1 1.2-.2 2.3-.3 3.3-.1 1-.1 1.8-.1 2.5 0 2 .4 3.5 1.1 4.4.8.9 1.8 1.4 3 1.4 1.4 0 2.9-.8 4.4-2.3 1.5-1.5 2.9-3.8 4.3-6.8s2.5-6.3 3.5-10 1.6-7.7 1.9-12l5.4-.7h.4c-.2 1.6-.3 3.3-.4 5.1l-.3 5.4s-.2 3.6-.2 5.3-.1 3.3-.1 4.8c0 2.8.2 5 .5 6.8.3 1.8.7 3.1 1.2 4.1.5 1 1.1 1.7 1.7 2.1.7.4 1.3.6 2 .6.4 0 .8-.1 1.2-.2s.7-.2 1.1-.4c.3-.1.6-.3.9-.5.3-.2.5-.3.7-.5l.8 1.2c-.5.5-1 1-1.7 1.4-.6.4-1.3.8-2 1.2-.7.3-1.4.6-2.2.8-.8.2-1.5.3-2.3.3-1 0-1.9-.2-2.9-.6-.9-.4-1.7-1-2.5-2s-1.3-2.1-1.7-3.7-.6-3.4-.6-5.7c0-.7 0-1.5.1-2.2 0-.7.1-1.5.2-2.4.1-.8.2-1.7.3-2.7.1-1 .2-2 .4-3.2l-.3-.1c-1.2 4.2-2.4 7.8-3.7 10.7-1.3 2.9-2.7 5.2-4.1 7-1.4 1.8-2.8 3-4.3 3.8s-2.8 1.1-4.1 1.1c-1 0-1.9-.2-2.8-.5s-1.7-.9-2.4-1.6c-.7-.8-1.2-1.7-1.7-3-.4-1.2-.6-2.8-.6-4.6 0-1.2.1-2.6.2-4.1.1-1.6.3-3.2.4-5 .2-1.8.3-3.6.4-5.5.1-1.9.2-3.8.2-5.6 0-.7 0-1.4-.1-1.9s-.2-1-.3-1.3c-.2-.4-.4-.6-.7-.8-.3-.2-.8-.3-1.4-.3-.6 0-1.3.1-2.2.3-.9.2-1.9.4-2.9.7l-.4-1.8c1.4-.5 2.7-.9 3.9-1.3 1.2-.4 2.3-.7 3.2-.9.9-.2 1.7-.4 2.4-.5.7-.1 1.1-.2 1.4-.2.6 0 1.1.1 1.5.3.4.2.7.5.9 1 .2.4.4.9.5 1.5.3.8.4 1.5.4 2.3zM135.8 33.1c0-.7-.1-1.3-.2-1.8s-.3-.9-.5-1.1-.5-.5-.8-.6c-.3-.1-.7-.2-1.1-.2-.6 0-1.3.1-2.2.3-.8.2-1.8.4-2.9.7l-.4-1.8c1.2-.4 2.4-.8 3.5-1.2 1.1-.3 2.1-.6 3.1-.9s1.8-.4 2.5-.6c.7-.1 1.3-.2 1.7-.2 1 0 1.7.3 2.3.9s.8 1.6.8 3c0 .2 0 .6-.1 1.2 0 .6-.1 1.4-.1 2.3-.1.9-.1 2-.2 3.3-.1 1.2-.2 2.5-.3 3.9-.1 1.4-.2 2.8-.4 4.3-.1 1.5-.3 3-.4 4.4h.2c1.3-4.4 2.7-8.1 4.1-11.1 1.5-3 3-5.4 4.5-7.3 1.5-1.9 3-3.2 4.5-4 1.5-.8 2.9-1.2 4.3-1.2.9 0 1.9.2 2.7.5s1.7.9 2.3 1.7c.7.8 1.2 1.8 1.6 3 .4 1.2.6 2.7.6 4.5 0 .5 0 1.2-.1 2-.1.9-.1 1.8-.2 2.9-.1 1-.2 2.2-.3 3.3-.1 1.2-.2 2.3-.3 3.5-.1 1.1-.2 2.2-.2 3.2-.1 1-.1 1.9-.1 2.7 0 1.3.1 2.4.2 3.2.1.8.3 1.5.5 2s.6.8 1 1 .9.3 1.5.3c.9 0 1.8-.1 2.7-.4.9-.2 1.9-.6 2.9-1l.5 1.3c-.6.5-1.4 1-2.3 1.5s-1.9 1-2.9 1.4-2 .8-3.1 1c-1 .3-1.9.4-2.7.4-.9 0-1.6-.2-2.2-.7s-.9-1.2-1.2-2c-.3-.8-.4-1.8-.5-3-.1-1.1-.1-2.4-.1-3.7 0-1.6.1-3.2.2-4.9.1-1.7.2-3.3.4-4.8s.3-2.9.4-4.2.2-2.2.2-3c0-2-.4-3.4-1.1-4.4s-1.7-1.4-3-1.4c-1 0-2 .4-3.1 1.2-1.1.8-2.2 2-3.2 3.4s-2.1 3.2-3.1 5.1c-1 2-1.9 4.1-2.7 6.4-.8 2.3-1.5 4.7-2 7.2s-.9 5-1 7.5l-5.3.7h-.4c.1-1.6.3-3.4.4-5.3.1-1.9.2-3.8.3-5.8s.2-3.9.3-5.8c.1-1.9.1-3.7.2-5.4.1-1.7.1-3.2.1-4.5s.2-2.2.2-2.9zM196.8 36.2c.5-.9.7-1.9.7-2.8 0-.7-.1-1.3-.3-1.9s-.6-1.1-1-1.5c-.5-.4-1-.8-1.7-1.1-.7-.3-1.5-.4-2.4-.4-1.3 0-2.5.2-3.6.7-1 .5-2 1.1-2.8 1.9s-1.5 1.8-2.1 2.8-1 2.2-1.4 3.4-.6 2.5-.8 3.7c-.2 1.3-.3 2.5-.3 3.7 0 2.2.3 4.2.9 6 .6 1.8 1.3 3.3 2.3 4.6 1 1.3 2.1 2.2 3.4 2.9 1.3.7 2.7 1 4.1 1 1.5 0 3.1-.4 4.7-1.2 1.6-.8 3.1-2.1 4.6-3.9.1.1.2.1.4.2s.3.2.4.3c.1.1.3.2.4.4.1.1.2.2.2.3v.1l-.1.1c-1.6 2.7-3.6 4.6-5.9 6s-4.8 2-7.6 2c-1.5 0-2.9-.2-4.1-.6-1.3-.4-2.4-1-3.4-1.7s-1.9-1.6-2.7-2.6c-.8-1-1.4-2.1-1.9-3.3-.5-1.2-.9-2.4-1.2-3.7s-.4-2.6-.4-3.9c0-1.8.2-3.6.6-5.3.4-1.8 1-3.5 1.7-5.2s1.7-3.2 2.7-4.6c1.1-1.4 2.3-2.7 3.7-3.7 1.4-1.1 2.9-1.9 4.5-2.5 1.6-.6 3.4-.9 5.3-.9 1.4 0 2.7.2 3.9.5 1.2.3 2.2.8 3.1 1.4.9.6 1.6 1.4 2.1 2.2.5.9.7 1.8.7 2.9 0 .7-.1 1.3-.3 1.8s-.5 1-.9 1.4-.8.7-1.3.9c-.5.2-1.1.3-1.7.3-.4 0-.8 0-1.2-.1s-.8-.2-1.2-.4l-.1-.2zM233.2 54.4c.1.1.2.1.4.2s.3.2.4.3c.1.1.3.2.4.4s.2.3.2.4c0 .1 0 .1-.1.2-.9 1.3-2 2.5-3.1 3.4-1.1 1-2.2 1.8-3.4 2.4s-2.4 1.1-3.6 1.4c-1.2.3-2.4.5-3.6.5-2 0-3.9-.4-5.6-1.2s-3.1-2-4.4-3.4c-1.2-1.4-2.2-3.1-2.9-5.1-.7-1.9-1-4-1-6.2 0-1.8.2-3.6.6-5.4.4-1.8 1-3.5 1.7-5.2.8-1.6 1.7-3.2 2.8-4.6 1.1-1.4 2.3-2.6 3.7-3.7s2.9-1.9 4.5-2.5c1.7-.6 3.4-.9 5.3-.9 1.3 0 2.4.2 3.6.5 1.1.3 2.1.8 3 1.5s1.5 1.4 2 2.3c.5.9.8 2 .8 3.2 0 1.7-.6 3.2-1.7 4.5-1.1 1.3-2.7 2.4-4.7 3.3-2 .9-4.3 1.6-7 2.2-2.7.6-5.6 1-8.7 1.2v.4c0 2.2.3 4.1.8 5.9.5 1.8 1.3 3.3 2.3 4.6 1 1.3 2.1 2.3 3.4 3s2.7 1.1 4.2 1.1 3.1-.4 4.7-1.1c1.7-.7 3.4-1.9 5-3.6zM228.4 34c0-.8-.1-1.5-.4-2.2-.3-.7-.6-1.3-1.1-1.8-.5-.5-1-.9-1.7-1.2-.6-.3-1.3-.4-2.1-.4-1.1 0-2.1.2-3 .6-.9.4-1.7.9-2.4 1.6-.7.7-1.3 1.4-1.9 2.3s-1 1.8-1.4 2.8c-.4 1-.7 2-.9 3.1-.2 1-.4 2.1-.5 3.1 2.4-.2 4.6-.5 6.5-.9 1.9-.4 3.5-.9 4.8-1.6 1.3-.7 2.3-1.4 3-2.3.8-.9 1.1-1.9 1.1-3.1z"/><path class="st0" d="M252.5 10.7v2.1c0 1-.1 2.1-.1 3.3 0 1.3-.1 2.6-.1 4.1 0 1.5-.1 2.9-.1 4.4-.1 3.9-.2 7.9-.4 11.9-.1 4-.4 8-.6 11.9-.3 3.9-.7 7.7-1.2 11.4s-1.2 7.1-2.1 10.2c-.6 2-1.3 3.8-2 5.4s-1.6 2.9-2.6 4.1c-.9 1.2-1.9 2.1-2.9 2.9-1 .8-2.1 1.4-3.1 1.9-1.1.5-2.1.8-3.2 1s-2.1.3-3.1.3c-1.4 0-2.6-.2-3.7-.5s-2.1-.7-3-1.3c-.8-.5-1.5-1.1-1.9-1.8s-.7-1.4-.7-2.2c0-.4.1-.9.3-1.3s.5-.9.9-1.2.8-.7 1.3-.9 1-.3 1.6-.3c1 1.8 2.2 3.2 3.6 3.9s2.9 1.2 4.5 1.2c1.7 0 3.1-.4 4.3-1.2s2.2-2 3-3.5 1.5-3.4 2-5.5.9-4.6 1.2-7.3.5-5.6.7-8.7.3-6.4.4-9.9c.1-2.9.2-5.7.3-8.5.1-2.8.1-5.5.2-8.2s.1-5.4.1-8.2v-8.4c0-.8 0-1.5-.1-2-.1-.6-.3-1-.5-1.4s-.7-.6-1.2-.8c-.5-.2-1.2-.2-2-.2h-1c-.4 0-.8 0-1.2.1-.4 0-.9.1-1.4.1s-.9.1-1.4.2l-.3-2.1c2.5-.6 4.7-1.1 6.6-1.4 1.9-.3 3.4-.5 4.6-.5 1.1 0 2 .1 2.6.4.6.3 1 .7 1.3 1.3s.4 1.3.5 2.1c-.1 1-.1 2-.1 3.1zM264.3 47.3c-.1.4-.1.8-.1 1.2v1.1c0 1.9.3 3.6.8 4.9s1.3 2.4 2.2 3.3c1 .8 2.1 1.5 3.5 1.8s2.9.6 4.5.6 3.3-.2 4.8-.7c1.5-.5 2.8-1.2 4-2.1 1.1-.9 2.1-2.1 2.7-3.5.7-1.4 1-3 1-4.8 0-1.2-.2-2.2-.5-3.2s-.7-1.8-1.3-2.6c-.5-.8-1.2-1.5-2-2.2-.8-.7-1.6-1.3-2.5-1.9-.9-.6-1.8-1.2-2.8-1.7-1-.5-2-1.1-3-1.7-1.1-.6-2.1-1.2-3.2-1.8s-2.1-1.3-3-2c-1-.7-1.9-1.4-2.7-2.2-.8-.8-1.5-1.7-2.1-2.7-.6-1-1.1-2.1-1.4-3.3-.3-1.2-.5-2.5-.5-3.9 0-1.8.2-3.5.7-5s1.1-3 1.9-4.3 1.8-2.5 2.9-3.5 2.4-1.9 3.8-2.6c1.4-.7 2.8-1.2 4.4-1.6 1.5-.4 3.1-.5 4.8-.5.7 0 1.5 0 2.4.1.8.1 1.7.2 2.5.4s1.7.4 2.4.7c.8.3 1.5.6 2 .9.6.3 1.1.7 1.4 1.1s.5.8.5 1.3v1.8s0 1.6-.1 2.5-.1 2-.1 3.1c-.1 1.1-.1 2.3-.2 3.5l-2.6-.1c.1-.6.1-1.2.1-1.8 0-1.7-.3-3.2-.7-4.4-.5-1.3-1.2-2.3-2.1-3.2-.9-.9-2-1.5-3.3-1.9s-2.7-.6-4.3-.6-3 .3-4.4.8c-1.3.5-2.5 1.2-3.5 2.2-1 .9-1.8 2-2.3 3.3s-.8 2.7-.8 4.2c0 1.2.2 2.4.5 3.4s.8 1.9 1.3 2.8c.6.8 1.2 1.6 2 2.3.8.7 1.6 1.4 2.5 2 .9.6 1.9 1.2 2.9 1.8s2 1.1 3.1 1.7c1.1.6 2.1 1.1 3.2 1.7 1.1.6 2.1 1.2 3 1.9 1 .7 1.9 1.4 2.7 2.2s1.5 1.7 2.1 2.6c.6 1 1.1 2 1.4 3.2.3 1.2.5 2.4.5 3.8 0 2.3-.3 4.4-1 6.2-.6 1.8-1.5 3.4-2.6 4.7-1.1 1.3-2.3 2.5-3.7 3.4s-2.8 1.7-4.3 2.2-3 1-4.5 1.2c-1.5.2-2.9.4-4.1.4-1.7 0-3.3-.1-4.7-.3s-2.8-.5-3.9-.9-2-.8-2.6-1.3-1-1-1-1.5c0-1.1 0-2.8.1-4.9.1-2.1.2-4.6.4-7.5l2.9-.1z"/></svg>