<svg id="Слой_1" xmlns="http://www.w3.org/2000/svg" viewBox="0 0 292 52"><style>.st0{fill:#264E6F;}</style><path class="st0" d="M35.8 6.6V4.2c0-.8.2-1.4.5-1.8.3-.4.7-.5 1.2-.5s.9.2 1.2.5c.3.4.5.9.5 1.8v9.5c0 .8-.2 1.4-.5 1.8-.3.4-.7.5-1.2.5s-.8-.2-1.2-.5c-.3-.3-.5-.9-.5-1.6-.1-2.3-1.4-4.3-3.7-6.1-3.1-2.4-6.7-3.6-10.7-3.6-2.6 0-5.1.6-7.5 1.8-1.7.8-3.1 1.8-4.1 3-1.8 2.1-3.2 4.5-4.3 7-.8 1.9-1.1 4-1.1 6.4v6c0 5.1 1.8 9.5 5.5 13.3 3.7 3.8 8 5.6 12.9 5.6 2.9 0 5.6-.6 7.9-1.9 2.3-1.3 4.6-3.2 6.7-5.8.5-.6 1-.9 1.5-.9s.9.1 1.2.4c.3.3.4.7.4 1.1 0 .6-.6 1.6-1.8 2.9-2.2 2.5-4.7 4.4-7.5 5.6-2.8 1.3-5.6 1.9-8.5 1.9-2.5 0-5-.5-7.5-1.4-2-.7-3.6-1.6-4.8-2.6-1.3-1-2.8-2.6-4.7-4.9s-3.1-4.5-3.8-6.4c-.7-2-1-4.1-1-6.5v-7c0-3.4.9-6.8 2.7-10.3 1.8-3.3 4.3-6 7.4-7.9C14.1 1.7 17.5.8 21.2.8c5.7 0 10.6 1.9 14.6 5.8zM89.3 32.7H54.5c.6 4.4 2.5 8 5.6 10.7 3.1 2.7 7 4.1 11.5 4.1 2.6 0 5.2-.4 8-1.3 2.8-.8 5.1-2 6.8-3.3.5-.4 1-.6 1.3-.6.4 0 .8.2 1.1.5.3.3.5.7.5 1.2s-.2.9-.7 1.3c-1.3 1.4-3.6 2.6-6.9 3.8-3.3 1.2-6.7 1.8-10.2 1.8-5.9 0-10.8-1.9-14.7-5.8C53 41.3 51 36.6 51 31.2c0-5 1.8-9.2 5.5-12.8 3.7-3.6 8.2-5.3 13.7-5.3 5.6 0 10.2 1.8 13.8 5.5 3.6 3.6 5.4 8.3 5.3 14.1zm-3.4-3.5c-.7-3.8-2.5-6.8-5.4-9.2-2.9-2.4-6.3-3.5-10.3-3.5s-7.4 1.2-10.3 3.5c-2.9 2.3-4.7 5.4-5.4 9.2h31.4zM130.7 49.5v-4.9c-5 4.2-10.3 6.3-15.9 6.3-4.1 0-7.3-1-9.6-3.1s-3.5-4.6-3.5-7.6c0-3.3 1.5-6.2 4.6-8.7 3-2.5 7.5-3.7 13.3-3.7 1.6 0 3.3.1 5.1.3 1.8.2 3.8.5 6 1v-5.5c0-1.9-.9-3.5-2.6-4.9-1.7-1.4-4.3-2.1-7.8-2.1-2.7 0-6.4.8-11.2 2.3-.9.3-1.4.4-1.7.4-.4 0-.8-.2-1.1-.5-.3-.3-.5-.7-.5-1.2s.1-.8.4-1.1c.4-.4 1.9-1 4.6-1.7 4.2-1.1 7.4-1.7 9.6-1.7 4.3 0 7.7 1.1 10.1 3.2 2.4 2.1 3.6 4.5 3.6 7.2v22.6h4.6c.8 0 1.4.2 1.8.5.4.3.5.7.5 1.2s-.2.9-.5 1.2c-.4.3-1 .5-1.8.5h-8zm0-17c-1.6-.5-3.3-.8-5.1-1-1.8-.2-3.7-.3-5.7-.3-5 0-8.9 1.1-11.6 3.2-2.1 1.6-3.2 3.5-3.2 5.7 0 2.1.8 3.8 2.4 5.2 1.6 1.4 4 2.1 7.1 2.1 3 0 5.7-.6 8.2-1.8 2.5-1.2 5.2-3.1 7.8-5.6v-7.5zM182.2 16.5c0-.8.2-1.4.5-1.7.3-.4.7-.5 1.2-.5s.9.2 1.3.5c.3.4.5 1 .5 1.8v5.9c0 .8-.2 1.4-.5 1.8-.3.4-.7.5-1.3.5-.5 0-.8-.1-1.2-.4-.3-.3-.5-.8-.6-1.5-.2-1.6-1-3-2.5-4-2.2-1.5-5.2-2.3-8.8-2.3-3.8 0-6.8.8-8.9 2.3-1.6 1.2-2.4 2.5-2.4 3.9 0 1.6 1 3 2.9 4.1 1.3.8 3.8 1.3 7.4 1.8 4.8.5 8.1 1.1 9.9 1.8 2.6 1 4.6 2.3 5.9 4 1.3 1.7 1.9 3.5 1.9 5.5 0 2.9-1.4 5.5-4.2 7.8s-6.9 3.4-12.3 3.4-9.8-1.4-13.3-4.1c0 .9-.1 1.5-.2 1.8-.1.3-.3.5-.6.7-.3.2-.6.3-1 .3-.5 0-.9-.2-1.2-.5s-.5-.9-.5-1.8v-7c0-.8.2-1.4.5-1.8.3-.4.7-.5 1.2-.5s.9.2 1.2.5c.3.3.5.8.5 1.4 0 1.2.3 2.3.9 3.1 1 1.3 2.5 2.4 4.5 3.2 2.1.9 4.6 1.3 7.6 1.3 4.5 0 7.8-.8 9.9-2.5 2.2-1.7 3.3-3.4 3.3-5.3 0-2.1-1.1-3.8-3.3-5.1-2.2-1.3-5.5-2.1-9.7-2.6-4.3-.4-7.3-1-9.1-1.7-1.8-.7-3.3-1.8-4.3-3.2-1-1.4-1.5-2.9-1.5-4.6 0-2.9 1.4-5.3 4.3-7 2.9-1.7 6.3-2.6 10.3-2.6 4.9-.2 8.8 1 11.7 3.3zM239.5 32.7h-34.9c.6 4.4 2.5 8 5.6 10.7 3.1 2.7 7 4.1 11.5 4.1 2.6 0 5.2-.4 8-1.3 2.8-.8 5.1-2 6.8-3.3.5-.4 1-.6 1.3-.6.4 0 .8.2 1.1.5.3.3.5.7.5 1.2s-.2.9-.7 1.3c-1.3 1.4-3.6 2.6-6.9 3.8-3.3 1.2-6.7 1.8-10.2 1.8-5.9 0-10.8-1.9-14.7-5.8-3.9-3.8-5.9-8.5-5.9-13.9 0-5 1.8-9.2 5.5-12.8 3.7-3.6 8.2-5.3 13.7-5.3 5.6 0 10.2 1.8 13.8 5.5 3.8 3.6 5.6 8.3 5.5 14.1zm-3.5-3.5c-.7-3.8-2.5-6.8-5.4-9.2s-6.3-3.5-10.3-3.5c-4 0-7.4 1.2-10.3 3.5-2.9 2.3-4.7 5.4-5.4 9.2H236zM267 14.3v8.6c4.5-4 7.8-6.6 10-7.8 2.2-1.2 4.3-1.7 6.1-1.7 2 0 3.9.7 5.7 2.1 1.8 1.4 2.6 2.4 2.6 3.1 0 .5-.2.9-.5 1.3-.3.3-.8.5-1.3.5-.3 0-.5 0-.7-.1-.2-.1-.5-.4-1.1-.9-1-.9-1.8-1.6-2.5-2-.7-.4-1.4-.5-2.1-.5-1.5 0-3.3.6-5.4 1.8-2.1 1.2-5.7 4.1-10.9 8.8v18.7h15.2c.8 0 1.4.2 1.8.5.4.3.5.7.5 1.2s-.2.9-.5 1.2c-.4.3-1 .5-1.8.5h-26.8c-.8 0-1.4-.2-1.8-.5-.4-.3-.5-.7-.5-1.2s.2-.8.5-1.2c.3-.3.9-.5 1.8-.5h8.3V17.7h-6.3c-.8 0-1.4-.2-1.8-.5-.4-.3-.5-.7-.5-1.3 0-.5.2-.9.5-1.2.3-.3.9-.5 1.8-.5h9.7z"/></svg>