<svg id="Слой_1" xmlns="http://www.w3.org/2000/svg" viewBox="0 0 287 106"><style>.st0{fill:#405261;}</style><path class="st0" d="M120.8 20.7h-10.7v-7.1c0-2.1-.1-3.4-.3-3.9s-.7-.8-1.5-.8c-.9 0-1.4.3-1.7.9-.2.6-.4 2-.4 4.1V33c0 2 .1 3.3.4 3.9.2.6.8.9 1.6.9s1.3-.3 1.6-.9c.2-.6.4-2 .4-4.3v-5.2h10.7V29c0 4.3-.3 7.3-.9 9.1-.6 1.8-1.9 3.3-4 4.7-2.1 1.3-4.6 2-7.6 2-3.1 0-5.7-.6-7.7-1.7s-3.4-2.7-4-4.7-1-5-1-9.1v-12c0-3 .1-5.2.3-6.7.2-1.5.8-2.9 1.8-4.3s2.4-2.5 4.2-3.2c1.8-.8 3.8-1.2 6.2-1.2 3.1 0 5.7.6 7.8 1.8 2 1.2 3.4 2.7 4 4.6.6 1.8 1 4.6 1 8.5v3.9zM147.3 15.3h-9.9v-3c0-1.4-.1-2.3-.4-2.7-.3-.4-.7-.6-1.3-.6-.6 0-1.1.3-1.5.8-.3.5-.5 1.3-.5 2.4 0 1.4.2 2.4.6 3.1.4.7 1.4 1.5 3 2.5 4.8 2.8 7.8 5.1 9 7 1.2 1.8 1.9 4.7 1.9 8.8 0 2.9-.3 5.1-1 6.5-.7 1.4-2 2.6-4 3.5S139 45 136.3 45c-2.9 0-5.3-.5-7.3-1.6s-3.3-2.5-4-4.1-.9-4.1-.9-7.1v-2.7h9.9v5c0 1.5.1 2.5.4 3 .3.4.8.7 1.5.7s1.2-.3 1.6-.8.5-1.4.5-2.5c0-2.4-.3-4-1-4.7-.7-.7-2.3-2-5-3.7-2.7-1.8-4.4-3-5.3-3.8-.9-.8-1.6-1.9-2.1-3.3-.6-1.4-.9-3.2-.9-5.4 0-3.1.4-5.5 1.2-6.9.8-1.5 2.1-2.6 3.9-3.4 1.8-.8 4-1.2 6.5-1.2 2.8 0 5.1.4 7.1 1.3s3.3 2 3.9 3.4c.6 1.4 1 3.7 1 6.9v1.2zM174.2 15.3h-9.9v-3c0-1.4-.1-2.3-.4-2.7-.3-.4-.7-.6-1.3-.6-.6 0-1.1.3-1.5.8-.3.5-.5 1.3-.5 2.4 0 1.4.2 2.4.6 3.1.4.7 1.4 1.5 3 2.5 4.8 2.8 7.8 5.1 9 7 1.2 1.8 1.9 4.7 1.9 8.8 0 2.9-.3 5.1-1 6.5-.7 1.4-2 2.6-4 3.5s-4.2 1.4-6.9 1.4c-2.9 0-5.3-.5-7.3-1.6s-3.3-2.5-4-4.1-.9-4.3-.9-7.4v-2.7h9.9v5c0 1.5.1 2.5.4 3 .3.4.8.7 1.5.7s1.2-.3 1.6-.8.5-1.4.5-2.5c0-2.4-.3-4-1-4.7-.7-.7-2.3-2-5-3.7-2.7-1.8-4.4-3-5.3-3.8-.9-.8-1.6-1.9-2.1-3.3-.6-1.4-.9-3.2-.9-5.4 0-3.1.4-5.5 1.2-6.9.8-1.5 2.1-2.6 3.9-3.4 1.8-.8 4-1.2 6.5-1.2 2.8 0 5.1.4 7.1 1.3s3.3 2 3.9 3.4c.6 1.4 1 3.7 1 6.9v1.5zM22.7 65.2l6.1 41.1H17.9l-.6-7.4h-3.8l-.6 7.4H1.8l5.5-41.1h15.4zM17 91.6c-.5-4.7-1.1-10.4-1.6-17.3-1.1 7.9-1.8 13.6-2.1 17.3H17zM40.8 72.6l-.2 3.1c.7-1.2 1.7-2.2 2.7-2.8 1.1-.6 2.3-.9 3.7-.9 1.8 0 3.2.4 4.3 1.2 1.1.8 1.8 1.9 2.2 3.1.3 1.3.5 3.4.5 6.3v23.6H43.7V83c0-2.3-.1-3.7-.2-4.2s-.6-.8-1.3-.8c-.7 0-1.2.3-1.4.9-.2.6-.3 2.1-.3 4.7v22.8H30.3V72.6h10.5zM68.1 65.2v5.4H57.5v-5.4h10.6zm0 7.4v33.7H57.5V72.6h10.6zM81.9 72.6l-.2 3.2c.8-1.3 1.7-2.2 2.8-2.9 1.1-.6 2.4-1 3.8-1 2.7 0 4.9 1.3 6.5 3.8.9-1.3 1.8-2.2 2.9-2.9 1.1-.6 2.3-1 3.6-1 1.7 0 3.2.4 4.3 1.3 1.1.8 1.9 1.9 2.2 3.1.3 1.2.5 3.2.5 6v23.9h-10v-22c0-2.9-.1-4.7-.3-5.3-.2-.7-.6-1-1.4-1-.7 0-1.2.3-1.4 1-.2.7-.3 2.5-.3 5.4v22H85V84.9c0-3.3-.1-5.3-.2-5.9-.2-.7-.6-1-1.3-1-.5 0-.8.2-1.2.5-.3.3-.5.8-.5 1.3s-.1 1.6-.1 3.2v23.4h-10V72.6h10.2zM121 85.7h-9.6v-2.3c0-2.6.3-4.6.9-6 .6-1.4 1.8-2.7 3.6-3.7 1.8-1.1 4.2-1.6 7.1-1.6 3.5 0 6.1.6 7.8 1.8 1.8 1.2 2.8 2.7 3.2 4.5.4 1.8.5 5.5.5 11v16.9h-10v-3c-.6 1.2-1.4 2.1-2.4 2.7-1 .6-2.2.9-3.5.9-1.8 0-3.4-.5-4.9-1.5s-2.2-3.2-2.2-6.6V96c0-2.5.4-4.2 1.2-5.2s2.8-2 5.9-3.2c3.4-1.3 5.2-2.2 5.4-2.7s.4-1.4.4-2.8c0-1.8-.1-2.9-.4-3.4s-.7-.8-1.3-.8c-.7 0-1.1.2-1.3.7-.2.4-.3 1.6-.3 3.5v3.6zm3.3 4.6c-1.6 1.2-2.6 2.2-2.9 3s-.4 2-.4 3.5c0 1.7.1 2.9.3 3.4s.7.8 1.4.8c.6 0 1.1-.2 1.3-.6s.3-1.4.3-3.1v-7zM148.9 68.1v5.3h2.8v5.3h-2.8v18c0 2.2.1 3.5.3 3.7s1.2.4 2.9.4v5.4H148c-2.3 0-4-.1-5-.3s-1.9-.6-2.6-1.3-1.2-1.5-1.4-2.4-.3-3-.3-6.4v-17h-2.2v-5.3h2.2v-5.3h10.2zM164.5 65.2v5.4h-10.6v-5.4h10.6zm0 7.4v33.7h-10.6V72.6h10.6zM191.3 84.5v8.3c0 3-.2 5.3-.5 6.7s-1 2.7-2 4-2.3 2.1-3.8 2.7-3.4.9-5.4.9c-2.3 0-4.2-.3-5.8-.7s-2.8-1.3-3.7-2.3-1.5-2.2-1.9-3.7-.6-3.6-.6-6.4v-8.6c0-3.1.3-5.6 1-7.3.7-1.8 1.9-3.2 3.7-4.2s4-1.6 6.8-1.6c2.3 0 4.3.3 5.9 1s2.9 1.6 3.8 2.7c.9 1.1 1.5 2.2 1.8 3.4s.7 2.7.7 5.1zm-10.2-2.6c0-1.7-.1-2.8-.3-3.3-.2-.4-.6-.7-1.2-.7s-1 .2-1.2.7c-.2.4-.3 1.5-.3 3.3v15.2c0 1.6.1 2.6.3 3.1s.6.7 1.2.7 1-.2 1.2-.7c.2-.4.3-1.4.3-2.8V81.9zM205.2 72.6l-.2 3.1c.7-1.2 1.7-2.2 2.7-2.8 1.1-.6 2.3-.9 3.7-.9 1.8 0 3.2.4 4.3 1.2 1.1.8 1.8 1.9 2.2 3.1.3 1.3.5 3.4.5 6.3v23.6h-10.3V83c0-2.3-.1-3.7-.2-4.2s-.6-.8-1.3-.8c-.7 0-1.2.3-1.4.9s-.2 2.1-.2 4.6v22.8h-10.3V72.6h10.5zM256.9 65.2l-6.1 18.6 6.7 22.5h-11l-4.3-17.6v17.6h-10.7V65.2h10.7v16l4.8-16h9.9zM269.5 65.2v5.4H259v-5.4h10.5zm0 7.4v33.7H259V72.6h10.5zM284 68.1v5.3h2.8v5.3H284v18c0 2.2.1 3.5.3 3.7s1.2.4 2.9.4v5.4h-4.1c-2.3 0-4-.1-5-.3s-1.9-.6-2.6-1.3-1.2-1.5-1.4-2.4-.3-3-.3-6.4v-17h-2.2v-5.3h2.2v-5.3H284z"/></svg>