<?xml version="1.0" encoding="utf-8"?>
<!-- Generator: Adobe Illustrator 22.1.0, SVG Export Plug-In . SVG Version: 6.00 Build 0)  -->
<svg version="1.1" id="Слой_1" xmlns="http://www.w3.org/2000/svg" xmlns:xlink="http://www.w3.org/1999/xlink" x="0px" y="0px"
	 viewBox="0 0 249 51" enable-background="new 0 0 249 51" xml:space="preserve">
<g>
	<path fill="#FF0D55" d="M14.8,13.9c-1.5,0-2.6,0.8-3.2,2.4c-0.6,1.6-1,4.3-1,8.1v2.7c0,3.4,0.4,5.8,1.1,7.2
		c0.7,1.5,2.1,2.2,4.1,2.2c2,0,3.6-0.7,4.8-2c1.2-1.4,2-2.9,2.3-4.6l0.9,0.1c-0.6,2.9-1.8,5-3.6,6.3c-1.8,1.3-4.2,2-7.3,2
		c-3.9,0-7-1.1-9.1-3.2c-2.1-2.1-3.2-5.2-3.2-9.3c0-4.1,1.2-7.2,3.6-9.5c2.4-2.2,5.7-3.3,10-3.3c3,0,5.3,0.6,6.9,1.8
		c1.6,1.2,2.4,2.6,2.4,4.4c0,1.8-0.4,3.1-1.1,3.9c-0.8,0.8-1.8,1.2-3.2,1.2c-1.3,0-2.4-0.4-3.2-1.1c-0.8-0.7-1.2-1.8-1.2-3.2
		c0-0.6,0.1-1.2,0.3-1.8h1.7c0.2-0.7,0.4-1.3,0.4-1.8C17.2,14.8,16.4,13.9,14.8,13.9z"/>
	<path fill="#FF0D55" d="M55,37.8H43.3l-0.6-3.7c-0.5,1.4-1.4,2.4-2.4,3.1c-1.1,0.7-2.7,1.1-4.8,1.1c-5.3,0-7.9-2.8-7.9-8.5V14.4
		h-2.9v-0.9h12.3V31c0,2,0.1,3.4,0.4,4c0.3,0.6,0.9,1,1.7,1c0.9,0,1.6-0.5,2.3-1.6c0.7-1.1,1-2.5,1-4.4V14.4h-2.3v-0.9h11.8v23.4H55
		V37.8z"/>
	<path fill="#FF0D55" d="M73,15c-1.3,0-2.4,0.8-3.3,2.4c-1,1.6-1.4,3.6-1.4,5.8v13.7h3.6v0.9H56v-0.9h2.8V14.4H56v-0.9h12.3v4.9
		c0.4-1.7,1.3-3.1,2.5-4c1.3-0.9,2.7-1.4,4.3-1.4c1.6,0,2.9,0.5,3.9,1.4c1,0.9,1.5,2.2,1.5,3.8c0,1.6-0.4,2.9-1.1,3.8
		c-0.7,0.9-1.9,1.3-3.4,1.3c-1.5,0-2.7-0.5-3.4-1.5c-0.7-1-0.8-2.4-0.3-4.2h1.8C74.9,15.8,74.6,15,73,15z"/>
	<path fill="#FF0D55" d="M83.8,30.5V14.4H81v-0.9h2.8V7l9.5-2.3v8.9h6.6v0.9h-6.6v17.2c0,1.6,0.2,2.8,0.5,3.5c0.3,0.7,1,1.1,2,1.1
		c1,0,1.9-0.5,2.7-1.5c0.8-1,1.3-2.4,1.5-4.2l0.9,0.1c-0.3,2.3-1,4.2-2.2,5.6c-1.2,1.4-3.2,2.1-6.1,2.1c-2.8,0-5-0.6-6.5-1.7
		C84.5,35.5,83.8,33.5,83.8,30.5z"/>
	<path fill="#FF0D55" d="M113.5,25.8h1.5v-3.9c0-3.2-0.2-5.4-0.5-6.5c-0.4-1.1-1-1.7-2.1-1.7c-0.6,0-1.2,0.2-1.7,0.5
		c-0.5,0.3-0.7,0.8-0.7,1.3c0,0.6,0.1,1.1,0.3,1.7h1.3c0.3,0.7,0.4,1.6,0.4,2.6c0,1-0.4,1.9-1.3,2.6c-0.9,0.7-1.9,1.1-3.2,1.1
		c-2.9,0-4.4-1.4-4.4-4.2c0-4.2,3.6-6.3,10.7-6.3c4,0,6.8,0.7,8.4,2.1c1.5,1.4,2.3,3.9,2.3,7.6V33c0,1.8,0.5,2.7,1.5,2.7
		c1.2,0,1.8-1.8,2-5.3l0.8,0.1c-0.1,3-0.7,5-1.7,6.2c-1,1.1-2.6,1.7-4.8,1.7c-4.1,0-6.4-1.3-7-3.8c-0.4,1.3-1.1,2.2-2,2.9
		c-0.9,0.6-2.2,0.9-3.9,0.9c-5,0-7.5-2.1-7.5-6.2c0-2.4,1-4.1,2.9-5C106.6,26.3,109.6,25.8,113.5,25.8z M111.8,35.5
		c0.2,0.5,0.5,0.8,1.1,0.8c0.5,0,1-0.4,1.5-1.3c0.5-0.9,0.7-2.1,0.7-3.6v-4.7h-0.4c-2.1,0-3.2,1.5-3.2,4.6v0.8
		C111.5,33.9,111.6,35,111.8,35.5z"/>
	<path fill="#FF0D55" d="M129.1,13.5h12.5v23.4h2.9v0.9h-15.1v-0.9h2.8V14.4h-3V13.5z M136.8,10c-1.8,0-3.1-0.5-3.9-1.4
		c-0.8-0.9-1.1-2.1-1.1-3.4c0-1.4,0.4-2.5,1.2-3.4c0.8-0.9,2.1-1.3,3.8-1.3c1.7,0,3,0.4,3.9,1.2c0.9,0.8,1.3,1.9,1.3,3.4
		c0,1.5-0.4,2.7-1.3,3.5C139.9,9.6,138.6,10,136.8,10z"/>
	<path fill="#FF0D55" d="M145.6,13.5h12.3v4.7c0.5-1.6,1.4-2.8,2.5-3.8c1.1-1,2.8-1.4,5.1-1.4c5.3,0,7.9,2.8,7.9,8.5v15.3h2.9v0.9
		h-14.4v-0.9h2.1V20.3c0-2-0.1-3.4-0.4-4c-0.3-0.6-0.8-0.9-1.5-0.9c-1.1,0-2,0.7-2.9,2.1s-1.2,3.2-1.2,5.2v14.1h2.2v0.9h-14.5v-0.9
		h2.8V14.4h-2.8V13.5z"/>
	<path fill="#FF0D55" d="M178,38.3v-9.1h0.6c0.9,3,2.1,5,3.6,6.2c1.5,1.2,3.4,1.8,5.6,1.8c3.5,0,5.2-1.1,5.2-3.3
		c0-1-0.4-1.7-1.3-2.1c-1.3-0.7-3-1.3-5.1-1.7c-2.3-0.6-4.3-1.4-5.8-2.4c-1.9-1.2-2.8-3.2-2.8-5.8c0-2.7,0.8-4.8,2.4-6.3
		s3.8-2.4,6.5-2.4c1.7,0,3.4,0.4,5.1,1.2c0.6,0.3,1.1,0.4,1.5,0.4s0.6-0.1,0.9-0.4c0.2-0.2,0.5-0.7,0.9-1.3h0.6v7.8h-0.6
		c-1.7-4.4-4.4-6.6-8.1-6.6c-1.6,0-2.8,0.3-3.6,0.8c-0.8,0.6-1.2,1.3-1.2,2.1c0,0.5,0.1,0.9,0.4,1.2c0.2,0.3,0.4,0.5,0.6,0.6
		c0.1,0.1,0.4,0.3,0.7,0.4c0.3,0.2,0.6,0.3,0.8,0.4c0.2,0.1,0.5,0.2,0.9,0.3c0.4,0.1,0.7,0.2,0.9,0.3c2.3,0.6,4,1.1,5,1.5
		c1,0.4,2,0.9,2.9,1.6c1.9,1.3,2.8,3.4,2.8,6.2c0,2.9-0.8,5-2.5,6.5c-1.7,1.5-4,2.2-7,2.2c-2.1,0-4.1-0.5-6.1-1.5
		c-0.4-0.3-0.7-0.4-1-0.4c-0.7,0-1.5,0.6-2.2,1.9H178z"/>
	<path fill="#FF0D55" d="M205.2,38.3c-1.5,0-2.6-0.4-3.3-1.3c-0.7-0.9-1.1-1.9-1.1-3.2c0-1.2,0.4-2.3,1.1-3.1
		c0.8-0.8,1.8-1.3,3.2-1.3c1.4,0,2.5,0.4,3.3,1.1c0.8,0.7,1.2,1.8,1.2,3.2s-0.4,2.5-1.1,3.4S206.7,38.3,205.2,38.3z"/>
	<path fill="#FF0D55" d="M224.8,13.5v19.9c0,5.6-1,9.8-2.9,12.7c-1.9,2.9-5.1,4.4-9.4,4.4c-2.8,0-4.9-0.6-6.2-1.7
		c-1.3-1.1-2-2.4-2-3.9c0-1.5,0.4-2.6,1.3-3.4s2-1.2,3.3-1.2c1.3,0,2.3,0.4,3,1.1c0.7,0.7,1,1.5,1,2.4s-0.1,1.7-0.3,2.5h-1.9
		c-0.5,0.9-0.6,1.7-0.2,2.3c0.4,0.6,1.1,1,2.1,1c1,0,1.7-0.6,2.1-1.8c0.4-1.2,0.6-3.6,0.6-7.3V14.4H212v-0.9H224.8z M220,10
		c-1.8,0-3.1-0.5-3.8-1.4c-0.8-0.9-1.1-2.1-1.1-3.4c0-1.4,0.4-2.5,1.3-3.4c0.8-0.9,2.1-1.3,3.8-1.3c1.7,0,3,0.4,3.9,1.2
		c0.9,0.8,1.3,1.9,1.3,3.4c0,1.5-0.4,2.7-1.3,3.5C223.1,9.6,221.8,10,220,10z"/>
	<path fill="#FF0D55" d="M229.5,38.3v-9.1h0.6c0.9,3,2.1,5,3.6,6.2c1.5,1.2,3.4,1.8,5.6,1.8c3.5,0,5.2-1.1,5.2-3.3
		c0-1-0.4-1.7-1.3-2.1c-1.3-0.7-3-1.3-5.1-1.7c-2.3-0.6-4.3-1.4-5.8-2.4c-1.9-1.2-2.8-3.2-2.8-5.8c0-2.7,0.8-4.8,2.4-6.3
		s3.8-2.4,6.5-2.4c1.7,0,3.4,0.4,5.1,1.2c0.6,0.3,1.1,0.4,1.5,0.4s0.6-0.1,0.9-0.4c0.2-0.2,0.5-0.7,0.9-1.3h0.6v7.8h-0.6
		c-1.7-4.4-4.4-6.6-8.1-6.6c-1.6,0-2.8,0.3-3.6,0.8c-0.8,0.6-1.2,1.3-1.2,2.1c0,0.5,0.1,0.9,0.4,1.2c0.2,0.3,0.4,0.5,0.6,0.6
		c0.1,0.1,0.4,0.3,0.7,0.4c0.3,0.2,0.6,0.3,0.8,0.4c0.2,0.1,0.5,0.2,0.9,0.3c0.4,0.1,0.7,0.2,0.9,0.3c2.3,0.6,4,1.1,5,1.5
		c1,0.4,2,0.9,2.9,1.6c1.9,1.3,2.8,3.4,2.8,6.2c0,2.9-0.8,5-2.5,6.5c-1.7,1.5-4,2.2-7,2.2c-2.1,0-4.1-0.5-6.1-1.5
		c-0.4-0.3-0.7-0.4-1-0.4c-0.7,0-1.5,0.6-2.2,1.9H229.5z"/>
</g>
</svg>
