<svg id="Слой_1" xmlns="http://www.w3.org/2000/svg" viewBox="0 0 277 87"><style>.st0{fill:#FF0D55;}</style><path class="st0" d="M1.4.6h37.9v17.2H23.8v16.3h13.8v16.4H23.8v36.2H1.4V.6zM66.2.6v11.2H44.1V.6h22.1zm0 15.5v70.6H44.1V16.1h22.1zM95.4 16.1l-.9 9.3c3.1-6.7 7.6-10.2 13.6-10.6v24.9c-3.9 0-6.8.5-8.7 1.6-1.8 1.1-3 2.5-3.4 4.4-.4 1.9-.6 6.3-.6 13.1v27.9H73.9V16.1h21.5zM134.2 16.1l-.4 6.7c1.7-2.7 3.7-4.7 6-6 2.3-1.3 4.9-2 7.9-2 5.7 0 10.3 2.7 13.6 8 1.8-2.7 3.8-4.7 6.1-6 2.3-1.3 4.8-2 7.6-2 3.7 0 6.7.9 9.1 2.7 2.4 1.8 3.9 3.9 4.6 6.5.7 2.6 1 6.8 1 12.5v50.2h-20.9v-46c0-6-.2-9.8-.6-11.2-.4-1.4-1.4-2.2-2.8-2.2-1.5 0-2.5.7-3 2.1-.4 1.4-.7 5.2-.7 11.2v46h-20.9V41.9c0-6.9-.2-11.1-.5-12.5-.3-1.4-1.3-2.1-2.8-2.1-1 0-1.8.4-2.4 1.1-.7.7-1 1.6-1.1 2.7-.1 1-.1 3.3-.1 6.7v49H113V16.1h21.2zM219.1.6v11.2H197V.6h22.1zm0 15.5v70.6H197V16.1h22.1zM248.7 16.1l-.4 6.5c1.6-2.6 3.5-4.5 5.7-5.8 2.3-1.3 4.9-1.9 7.8-1.9 3.7 0 6.7.9 9 2.6 2.3 1.7 3.8 3.9 4.5 6.6.7 2.6 1 7.1 1 13.2v49.5H255v-49c0-4.9-.2-7.8-.5-8.9-.3-1.1-1.2-1.6-2.7-1.6-1.5 0-2.5.6-2.9 1.8-.4 1.2-.6 4.5-.6 9.8v47.7h-21.5V16.1h21.9z"/></svg>