<?xml version="1.0" encoding="utf-8"?>
<!-- Generator: Adobe Illustrator 21.1.0, SVG Export Plug-In . SVG Version: 6.00 Build 0)  -->
<svg version="1.1" id="Слой_1" xmlns="http://www.w3.org/2000/svg" xmlns:xlink="http://www.w3.org/1999/xlink" x="0px" y="0px"
	 viewBox="0 0 142.1 56.8" style="enable-background:new 0 0 142.1 56.8;" xml:space="preserve">
<style type="text/css">
	.st0{fill:#07B189;}
</style>
<g>
	<g>
		<path class="st0" d="M30.1,9.6c0-5.5,4.1-9.6,10.7-9.6c5.6,0,8.8,3.2,8.8,5.4c0,1.8-1.1,2.9-3.5,2.9c-2.6,0-2.9-2.2-5.3-2.2
			c-2.1,0-3.5,1.4-3.5,3.5V14c0,2.1,1.4,3.5,3.5,3.5c1.8,0,3-1,3-1v-1.3h-1c-1.9,0-3.2-1.3-3.2-2.9s1.3-2.9,3.2-2.9h4.5
			c1.9,0,2.9,1,2.9,2.9V18c0,2.2-3.5,5.4-9.4,5.4c-6.6,0.2-10.7-4-10.7-9.4V9.6z"/>
		<path class="st0" d="M68.2,16.6c2.2,0,3.5,1.3,3.5,3.2S70.4,23,68.2,23H57c-2.2,0-3.5-1.3-3.5-3.2V3.5c0-1.9,1.3-3.2,3.5-3.2
			s3.5,1.3,3.5,3.2v13.1H68.2z"/>
		<path class="st0" d="M72.7,7.3c0-4.1,3.2-7.3,9.6-7.3c5.6,0,8.8,3.2,8.8,5.4c0,1.8-1.1,2.9-3.5,2.9c-2.6,0-2.9-2.2-5.3-2.2
			c-1.6,0-2.2,0.6-2.2,1.3c0,2.2,11.8,1.3,11.8,8.6c0,4.1-3.5,7.7-10.5,7.7c-5.9,0-9.1-3.2-9.1-5.4c0-1.8,1.1-2.9,3.5-2.9
			c2.6,0,2.9,2.2,5.6,2.2c2.4,0,3.2-0.8,3.2-1.6C84.5,14,72.7,15,72.7,7.3z"/>
		<path class="st0" d="M109,16.6c2.2,0,3.5,1.3,3.5,3.2S111.3,23,109,23H97.9c-2.2,0-3.5-1.3-3.5-3.2V3.5c0-1.9,1.3-3.2,3.5-3.2
			s3.5,1.3,3.5,3.2v13.1H109z"/>
	</g>
	<g>
		<path class="st0" d="M27.1,53.2c-0.8,1.9-2.1,3.2-3.8,3.2c-2.1,0-3.5-1.4-3.5-3.2c0-1,0.8-2.9,0.8-2.9l5.1-13.4
			c1-2.4,2.4-3.8,5.6-3.8s4.7,1.4,5.6,3.8L42,50.3c0,0,0.8,1.9,0.8,2.9c0,1.8-1.4,3.2-3.5,3.2c-1.8,0-3-1.3-3.8-3.2l-0.8-1.9H28
			L27.1,53.2z M33.1,45.5l-1.8-4.8H31l-1.8,4.8H33.1z"/>
		<path class="st0" d="M43.6,40.4c0-4.1,3.2-7.3,9.6-7.3c5.6,0,8.8,3.2,8.8,5.4c0,1.8-1.1,2.9-3.5,2.9c-2.6,0-2.9-2.2-5.3-2.2
			c-1.6,0-2.2,0.6-2.2,1.3c0,2.2,11.8,1.3,11.8,8.6c0,4.1-3.5,7.7-10.5,7.7c-5.9,0-9.1-3.2-9.1-5.4c0-1.8,1.1-2.9,3.5-2.9
			c2.6,0,2.9,2.2,5.6,2.2c2.4,0,3.2-0.8,3.2-1.6C55.4,47.1,43.6,48.1,43.6,40.4z"/>
		<path class="st0" d="M72.3,53.2c0,1.9-1.3,3.2-3.5,3.2s-3.5-1.3-3.5-3.2V36.6c0-1.9,1.3-3.2,3.5-3.2s3.5,1.3,3.5,3.2V53.2z"/>
		<path class="st0" d="M83.5,45.9v7.3c0,1.9-1.3,3.2-3.5,3.2s-3.5-1.3-3.5-3.2V36.6c0-1.9,1.3-3.2,3.5-3.2c1.9,0,3,1.1,4.5,3.2
			l5.4,7.3h0.3v-7.3c0-1.9,1.3-3.2,3.5-3.2s3.5,1.3,3.5,3.2v16.6c0,1.9-1.3,3.2-3.5,3.2c-1.9,0-3-1.1-4.5-3.2l-5.4-7.3H83.5z"/>
		<path class="st0" d="M100.6,42.7c0-5.4,4.1-9.6,10.7-9.6c5.6,0,8.8,3.2,8.8,5.4c0,1.8-1.1,2.9-3.5,2.9c-2.6,0-2.9-2.2-5.3-2.2
			c-2.1,0-3.5,1.4-3.5,3.5v4.4c0,2.1,1.4,3.5,3.5,3.5c1.8,0,3-1,3-1v-1.3h-1c-1.9,0-3.2-1.3-3.2-2.9c0-1.6,1.3-2.9,3.2-2.9h4.5
			c1.9,0,2.9,1,2.9,2.9v5.7c0,2.2-3.5,5.4-9.4,5.4c-6.5,0-10.7-4.1-10.7-9.6V42.7z"/>
		<g>
			<path class="st0" d="M7,40.1V42h6.1c1.9,0,3.2,1.3,3.2,2.9s-1.3,2.9-3.2,2.9H7v1.9h8.9c2.2,0,3.5,1.3,3.5,3.2s-1.3,3.2-3.5,3.2
				H3.5c-2.2,0-3.5-1.3-3.5-3.2v-16c0-1.9,1.3-3.2,3.5-3.2h12.1c2.2,0,3.5,1.3,3.5,3.2c0,1.9-1.3,3.2-3.5,3.2H7z"/>
			<path class="st0" d="M122.9,40.4c0-4.1,3.2-7.3,9.6-7.3c5.6,0,8.8,3.2,8.8,5.4c0,1.8-1.1,2.9-3.5,2.9c-2.6,0-2.9-2.2-5.3-2.2
				c-1.6,0-2.2,0.6-2.2,1.3c0,2.2,11.8,1.3,11.8,8.6c0,4.1-3.5,7.7-10.5,7.7c-5.9,0-9.1-3.2-9.1-5.4c0-1.8,1.1-2.9,3.5-2.9
				c2.6,0,2.9,2.2,5.6,2.2c2.4,0,3.2-0.8,3.2-1.6C134.7,47.1,122.9,48.1,122.9,40.4z"/>
		</g>
	</g>
</g>
</svg>
