<svg width="80" height="80" viewBox="0 0 22 25" xmlns="http://www.w3.org/2000/svg"><defs><linearGradient x1="50%" y1="-8.06520239%" x2="50%" y2="92.1099078%" id="linearGradient-1"><stop stop-color="#FFDE64" offset="0%"></stop><stop stop-color="#D62563" offset="100%"></stop></linearGradient></defs><g id="Share-Page-&amp;-Publish-&amp;-Community" stroke="none" stroke-width="1" fill="none" fill-rule="evenodd"><g id="Community-Gallery" transform="translate(-47.000000, -8.000000)" fill="url(#linearGradient-1)" fill-rule="nonzero"><g id="haiku_gitlab_gradio" transform="translate(47.000000, 8.000000)"><path d="M14.4278502,13.3027698 L14.4278502,16.3367878 C14.4278502,16.7149063 14.1300726,17.0214319 13.7627452,17.0214319 C13.6563376,17.0214319 13.5557663,16.9957098 13.4665791,16.9499766 C13.4526188,16.9450454 13.4387229,16.939607 13.4249115,16.9336528 L4.49280835,13.0829618 C4.30611026,13.0800828 4.12704529,12.9958981 4.002802,12.8504024 C3.84025991,12.7255806 3.73500961,12.5260867 3.73500961,12.3012881 L3.73500961,4.45127149 C3.71469796,4.42470718 3.69600604,4.39647225 3.67914597,4.36665935 L3.25517506,4.19023174 L1.33039951,3.38927224 L1.33039951,22.1273826 L3.73500961,23.1280162 L3.73500961,16.8304724 C3.73500961,16.8206758 3.73520949,16.8109273 3.7356053,16.8012309 C3.73098258,16.7025976 3.74711198,16.6013829 3.78663793,16.504232 C3.9285343,16.1554646 4.31822683,15.9911419 4.65704062,16.1372068 L13.6346027,20.0077513 L13.8082096,20.0881711 C14.154332,20.1122232 14.4278502,20.4088518 14.4278502,20.7712408 L14.4278502,22.1273826 L16.8093144,23.1183846 L16.8324603,23.1280163 L16.8324603,12.2084509 L14.4278502,13.3027698 Z M13.0976404,13.6245658 L8.24691867,11.5333863 L6.28974294,12.3731092 L13.0976404,15.3080406 L13.0976404,13.6245658 Z M5.06521945,17.7976989 L5.06521945,23.2322037 L7.46982953,22.2315699 L7.46982953,18.8343428 L5.06521945,17.7976989 Z M4.41345028,24.9934019 C4.40901553,24.9934917 4.40457015,24.9935368 4.40011452,24.9935368 C4.22210262,24.9935368 4.06042453,24.921549 3.94105525,24.8043117 L3.25517506,24.5188955 L0.554381128,23.3950104 C0.239849104,23.3406598 0.000189683816,23.0590615 0.000189683816,22.7198433 L0.000189683816,22.6838436 C-6.26532156e-05,22.6725941 -6.38018597e-05,22.6613174 0.000189683816,22.6500218 L0.000189683816,2.35517965 C-4.25784188e-05,2.34482524 -6.2029361e-05,2.33444771 0.000134018133,2.32405357 C-6.2029361e-05,2.31365942 -4.25784188e-05,2.30328189 0.000189683816,2.29292748 L0.000189683816,2.28557818 C0.000189683816,2.07699564 0.090803011,1.89019872 0.233719076,1.76462349 C0.294864978,1.70721652 0.366785946,1.65982474 0.44800746,1.62602592 L4.12848723,0.0944628039 C4.31431722,-0.0126932306 4.54446449,-0.0337940259 4.75609909,0.0576060631 L8.20966024,1.5491193 C8.2188131,1.54873475 8.22801365,1.54854059 8.23725827,1.54854059 C8.60458555,1.54854059 8.90236319,1.85506621 8.90236319,2.23318471 L8.90236319,2.32207053 C8.90261081,2.33321707 8.90261188,2.34438943 8.90236319,2.35557941 L8.90236319,6.80652687 L13.0976404,5.06712108 L13.0976404,2.35517932 C13.0974081,2.34482502 13.0973886,2.33444759 13.0975847,2.32405357 C13.0973886,2.31365954 13.0974081,2.30328211 13.0976404,2.29292781 L13.0976404,2.23318471 C13.0976404,1.86648528 13.377704,1.56711985 13.7296623,1.5493728 L17.225938,0.0944627566 C17.411768,-0.0126932367 17.6419152,-0.0337940124 17.8535498,0.0576060631 L21.4514082,1.61143795 C21.7630887,1.66822216 21.9998139,1.94844296 21.9998139,2.28557818 L21.9998139,2.32206881 C22.0000615,2.33321662 22.0000626,2.34439006 21.9998139,2.35558114 L21.9998139,22.7198433 C21.9998139,22.9723865 21.8669804,23.1929933 21.6693109,23.3116688 C21.6068633,23.3716907 21.532853,23.4211427 21.448908,23.4560748 L17.8683381,24.9460624 C17.6355043,25.0429518 17.3822165,25.0048455 17.1903517,24.8674996 L16.2724163,24.4855179 L13.5454582,23.350745 C13.3308009,23.2614194 13.1811053,23.0771507 13.1235906,22.8639833 C13.1082299,22.8091363 13.0993513,22.7514611 13.0978639,22.6918934 C13.0974031,22.677976 13.0973264,22.6640136 13.0976404,22.6500221 L13.0976404,21.2605615 L13.088722,21.2564302 L13.0976404,21.2360299 L13.0976404,21.2605307 L8.80003933,19.4078054 L8.80003933,22.7142288 C8.80003933,22.7346099 8.79917418,22.7547829 8.79747965,22.7747112 C8.79653469,23.0654369 8.62748908,23.3403849 8.34947614,23.4560748 L4.77088743,24.9452379 C4.65344319,24.9941101 4.53079482,25.0086352 4.41345028,24.9934019 Z M18.1626701,23.2330281 L20.669604,22.1898142 L20.669604,3.42758209 L18.1626701,4.47079592 L18.1626701,6.75935079 C18.1626701,6.97542644 18.0654295,7.16812313 17.9135377,7.29360013 C17.8458522,7.381482 17.7561993,7.45344532 17.6485147,7.49964717 L9.97279711,10.792901 L13.4033932,12.2718545 L17.1648518,10.5600448 C17.5008108,10.4071524 17.893566,10.5635584 18.0420948,10.9093872 C18.045647,10.917658 18.0490274,10.9259622 18.0522374,10.9342956 C18.1220225,11.042603 18.1626701,11.1725313 18.1626701,11.3122324 L18.1626701,23.2330281 Z M16.8324603,4.45127149 C16.8121486,4.42470718 16.7934567,4.39647225 16.7765967,4.36665935 L16.3526257,4.19023174 L14.4278502,3.38927224 L14.4278502,4.9787843 L16.8324603,5.979418 L16.8324603,4.45127149 Z M5.06521945,11.4150213 L7.57215335,10.3394255 L7.57215335,3.42758205 L5.06521945,4.47079592 L5.06521945,11.4150213 Z M8.90236319,8.28271228 L8.90236319,9.76870117 L15.4083073,6.9773367 L13.7501058,6.28730701 C13.7443384,6.28490699 13.7386179,6.28243843 13.7329448,6.27990265 L8.90236319,8.28271228 Z M15.6902755,2.32405357 L16.8895238,2.82309846 L17.5947581,3.11656853 L19.4480238,2.34536648 L17.578903,1.53813639 L15.6902755,2.32405357 Z M2.59282478,2.32405357 L3.79207318,2.82309846 L4.49730736,3.11656853 L6.35057316,2.34536647 L4.48145231,1.53813638 L2.59282478,2.32405357 Z" id="Combined-Shape"></path></g></g></g></svg>