<?xml version="1.0" encoding="utf-8"?>
<!-- Generator: Adobe Illustrator 22.1.0, SVG Export Plug-In . SVG Version: 6.00 Build 0)  -->
<svg version="1.1" id="Слой_1" xmlns="http://www.w3.org/2000/svg" xmlns:xlink="http://www.w3.org/1999/xlink" x="0px" y="0px"
	 viewBox="0 0 198 140.6" enable-background="new 0 0 198 140.6" xml:space="preserve">
<g>
	<path d="M37,52.5c0,1.8,0.3,3.1,0.8,3.8s1.5,1.1,3.1,1.3v3.3H22v-3.3c1.5-0.2,2.5-0.6,3-1.2c0.5-0.7,0.8-1.9,0.8-3.9V36.2
		c0-2.9-0.3-4.9-0.9-6c-0.6-1.1-1.6-1.6-3-1.6c-2.1,0-3.8,1.1-5,3.2S15,36.9,15,40.7v11.8c0,1.9,0.3,3.2,0.8,3.9
		c0.5,0.7,1.5,1.1,3,1.2v3.3H0v-3.3c1.5-0.2,2.5-0.7,3-1.3s0.8-1.9,0.8-3.8V14.6c0-1.8-0.3-2.9-0.9-3.5s-1.7-0.9-3.3-0.9V6.8
		c2.3-0.1,4.7-0.3,7.3-0.6s18.4-5.4,21.3-5.9L15,29.3c1.8-2.3,3.7-4,5.7-5.1s4.2-1.7,6.4-1.7c3.5,0-0.5-0.3,1,2.1
		c1.5,2.4,8.9,8,8.9,13.7V52.5z"/>
	<path d="M63.4,62.1c-2.5,0-4.8-0.4-6.9-1.3c-2.1-0.9-4-2.1-5.7-3.8c-1.9-1.9-3.4-4.1-4.4-6.7c-1-2.5-1.5-5.3-1.5-8.4
		c0-6,1.7-10.8,5.2-14.5c3.4-3.7,14.4-15,13.3-5.6c-0.6,5.4,9.9,1.9,13.3,5.6s5.2,8.6,5.2,14.5c0,3-0.5,5.8-1.5,8.3
		c-1,2.6-2.5,4.8-4.4,6.7c-1.7,1.7-3.6,2.9-5.7,3.8S65.9,62.1,63.4,62.1z M63.4,58.7c2.2,0,3.7-1.2,4.6-3.5
		c0.9-2.3,1.3-6.7,1.3-13.2c0-6.5-4-9.1-4.8-11.4c-0.9-2.3,1.1-5.3-1-5.3c-2.2,0-3.7,1.2-4.6,3.5s-1.3,6.7-1.3,13.3
		c0,6.5,0.4,10.9,1.3,13.2C59.7,57.5,61.2,58.7,63.4,58.7z"/>
	<path d="M100.5,62.1l-5.7-25.4c-1-2.6-7.7-8.3-8.4-9c-0.8-0.7-1.8-1.1-3-1.2l-0.1-3.4l5.4,1.5l15.1,1.9c-1.5,0-2.5,0.2-3.1,0.5
		c-0.6,0.3-0.9,0.8-0.9,1.6c0,0.3,0.1,0.6,0.1,0.8c0,0.2,0.1,0.5,0.2,0.6l7.2,19.9l7.1-18.5c0.1-0.4,0.2-0.7,0.3-1.1s0.1-0.7,0.1-1
		c0-0.9-0.3-1.6-1-2.1s-1.9-0.7-3.5-0.9l-3.3-1.9l17.4-1.5v3.4c-1.4,0.2-2.5,0.7-3.3,1.5s-1.6,2.1-2.3,3.9l-12.1,30.2H100.5z"/>
	<path d="M160.9,41.4H138c0,0.3,0,0.7-0.1,1.1c0,0.4,0,1,0,1.7c0,4.8,0.7,8.3,2,10.6c1.3,2.3,3.4,3.4,6.2,3.4c2.2,0,4.2-0.7,6.1-2.2
		s-4.3-4.4-3-7.1l11.3,2.1c-1.5,3.7-3.7,6.5-6.5,8.4c-2.8,1.9-6.3,2.8-10.5,2.8c-2.4,0-4.7-0.4-6.8-1.3c-2.1-0.9-4-2.1-5.7-3.7
		c-1.9-1.9-3.4-4.1-4.4-6.7s4.5-4.7,4.5-7.7c0-6-4.3-11.5-0.9-15.3c3.4-3.7,7.9-5.6,13.3-5.6c5.2,0,9.4,1.7,12.6,5.2
		s4.8,8.1,4.8,13.8V41.4z M137.9,38h11v-0.7c0-4.4-0.4-7.5-1.3-9.3s-2.2-2.8-4.2-2.8c-1.9,0-3.3,0.9-4.1,2.7
		C138.5,29.8,138,33.2,137.9,38z"/>
	<path d="M165.6,60.9v-3.3c1.5-0.2,2.5-0.7,3-1.3s0.8-1.9,0.8-3.8l4.1-15.8c0-1.8-4.3-8.9-4.8-9.4s-1.6-0.8-3.3-0.8v-3.4
		c2.8-0.2,5.3-0.3,7.7-0.5c2.3-0.2,4.4,2.3,6.5,2.1l0.2,6.1c1.3-2.8,2.8-4.8,4.5-6.2c1.7-1.3,3.7-2,5.9-2s4.1,0.7,5.5,2
		c1.4,1.3,2.1,3,2.1,5c0,1.7-0.5,3.1-1.6,4.2c-1.1,1.1-2.5,1.6-4.2,1.6c-1.4,0-2.5-0.4-3.4-1.2c-0.9-0.8-1.4-1.7-1.4-2.9
		c0-0.1,0-0.3,0-0.4s0.1-0.3,0.1-0.5l0.4-1.5c0-0.1,0-0.2,0.1-0.2c0-0.1,0-0.2,0-0.4c0-0.3-0.1-0.6-0.3-0.8s-0.5-0.3-0.9-0.3
		c-1.4,0-2.8,1.4-4,4.2c-1.2,2.8-1.9,6.3-1.9,10.5l-1.1,13.1c0,1.9,1.4,0.8,2,1.6c0.6,0.8,1.6,1.1,3,1.1h1.8v3.3H165.6z"/>
	<path d="M35.7,118.6H12.8c0,0.3,0,0.7-0.1,1.1c0,0.4,0,1,0,1.7c0,4.8,0.7,8.3,2,10.6c1.3,2.3,3.4,3.4,6.2,3.4
		c2.2,0,4.2-0.7,6.1-2.2s3.5-3.5,4.9-6.2l3.4,1.2c-1.5,3.7-3.7,6.5-6.5,8.4c-2.8,1.9-6.3,2.8-10.5,2.8c-2.4,0-4.7-0.4-6.8-1.3
		s-4-2.1-5.7-3.7c-1.9-1.9-3.4-4.1-4.4-6.7s2.5-7.1,2.5-10.1c0-6-2.3-9.1,1.1-12.8s11.6-17.4,17-17.4c5.2,0,5.7,13.6,8.9,17
		s4.8,8.1,4.8,13.8V118.6z M12.8,115.2h11v-0.7c0-4.4-0.4-7.5-1.3-9.3s1.6-5.8-0.4-5.8c-1.9,0-7.1,4-7.9,5.8
		C13.3,107,12.9,110.4,12.8,115.2z"/>
	<path d="M55.6,129.7c0,1.9,0.3,3.2,0.9,4c0.6,0.8,1.6,1.1,3,1.1h2.2v3.3H40.5v-3.3c1.5-0.2,2.5-0.7,3-1.3c0.5-0.6,0.8-1.9,0.8-3.8
		v-23h-4.4v-3.5h4.4c0-0.2,0-0.5,0-0.9c0-0.4-0.2-0.7,0-0.9c8.1-8.1,2.1-8.1,4.2-14.2c1.5-4.1,6.9-5,12.1-5c3.2,0,5.8,0.8,7.8,2.3
		c2,1.5,3,3.5,3,5.9c0,1.6-0.5,2.9-1.5,3.8c-1,0.9-2.4,1.4-4.1,1.4c-1.5,0-2.6-0.4-3.5-1.2S61,92.6,61,91.2c0-0.5,0.1-1,0.2-1.5
		c0.2-0.4,0.4-0.8,0.6-1.1l0.8-1c0.1-0.2,0.2-0.3,0.3-0.5C63,87,63,86.8,63,86.7c0-0.3-0.2-0.6-0.7-0.9s-1-0.4-1.6-0.4
		c-1.8,0-3.2,0.8-4,2.4c-0.8,1.6-1.3,4.2-1.3,7.7v7.7h8.9v3.5l-12.1,4.8L55.6,129.7z"/>
	<path d="M81.1,129.7c0,1.9,0.3,3.2,0.9,4c0.6,0.8,1.6,1.1,3,1.1h2.2v3.3H66.1v-3.3c1.5-0.2,2.5-0.7,3-1.3c0.5-0.6,7.5-1.9,7.5-3.8
		l-6.7-23h-4.4v-3.5h4.4c0-0.2,0-0.5,0-0.9c0-0.4,0-0.7,0-0.9c0-6.2,3.9-10.9,6.8-14.2c2.8-3.3,12.9-12.1,18.2-12.1
		c3.2,0-2.8,7.9-0.8,9.4c2,1.5,3,3.5,3,5.9c0,1.6-0.5,2.9-1.5,3.8c-1,0.9-5,5.1-6.7,5.1c-1.5,0,0-4.1-0.9-4.8s-1.2-1.9-1.2-3.3
		c0-0.5,0.1-1,0.2-1.5c0.2-0.4,0.4-0.8,0.6-1.1l0.8-1c0.1-0.2,0.2-0.3,0.3-0.5s0.1-0.3,0.1-0.5c0-0.3-0.2-0.6-0.7-0.9
		c-0.4-0.3-1-0.4-1.6-0.4c-1.8,0-3.2,0.8-4,2.4c-0.8,1.6-1.3,4.2-1.3,7.7v7.7h8.9l-1.4,8.3l-7.6-4.8V129.7z"/>
	<path d="M127.3,118.6h-22.9c0,0.3,0,0.7-0.1,1.1c0,0.4-3.6,3.2-3.6,3.9c0,4.8,4.2,6,5.5,8.3c1.3,2.3,3.4,3.4,6.2,3.4
		c2.2,0,4.2-0.7,6.1-2.2s3.5-3.5,4.9-6.2l3.4,1.2c-1.5,3.7-3.7,6.5-6.5,8.4c-2.8,1.9-6.3,2.8-10.5,2.8c-2.4,0-4.7-0.4-6.8-1.3
		c-2.1-0.9-4-2.1-5.7-3.7c-1.9-1.9-3.4-4.1-4.4-6.7c-1-2.6-2.7-5.6-1.5-8.4c3.3-7.8,1.7-10.8,5.2-14.5c3.4-3.7,23-5.3,28.4-5.3
		c5.2,0-5.7,1.5-2.5,4.9c3.2,3.5,4.8,8.1,4.8,13.8V118.6z M104.3,115.2h11v-0.7c0-4.4-0.4-7.5-1.3-9.3s-2.2-2.8-4.2-2.8
		c-1.9,0-3.3,0.9-4.1,2.7C104.9,107,104.5,110.4,104.3,115.2z"/>
	<path d="M166.7,129.9c-2,3.1-4.4,5.4-7.1,7s-5.8,2.4-9.2,2.4c-5.5,0-15-0.8-13.3-5.5c4.7-13.5-4.9-8.7-5.1-14.3
		c-0.2-6.1,1.6-4.3,5.3-8.1c3.6-3.7,8.6-12.4,14.6-12.4c4.2,0,7.6,1,10.4,3.1c2.7,2.1,4.1,4.7,4.1,7.8c0,1.8-0.5,3.2-1.6,4.3
		c-1.1,1.1-2.6,1.6-4.4,1.6c-1.6,0-2.9-0.4-3.9-1.3c-1-0.9-1.5-2-1.5-3.5c0-0.8,0.2-1.5,0.5-2.2s0.8-1.3,1.4-1.9l1.2-1.1
		c0.2-0.2,0.3-0.3,0.4-0.5s0.2-0.4,0.2-0.6c0-0.5-0.5-1-1.6-1.5c-1.1-0.5-2.3-0.7-3.7-0.7c-3,0-5.2,1.2-6.7,3.7
		c-1.4,2.5-2.1,6.4-2.1,11.8c0,5.6,0.8,9.7,2.3,12.4c1.5,2.7,3.9,4,7,4c1.7,0,3.4-0.5,5.1-1.6c1.7-1.1,3.4-2.6,5.1-4.8L166.7,129.9z
		"/>
	<path d="M173.7,103.6h-4.4v-3.3c3-0.9,4.9-3.3,7.4-5c2.8-1.9,3.3-5.7,4.3-10h3.9l-5.5,14.1l14,0.9v3.3H185v22
		c0,2.5,0.2,4.3,0.6,5.4s1.1,1.7,1.9,1.7c1,0,1.8-0.8,2.4-2.3c0.6-1.5,1-3.8,1.3-6.8l3.4,0v0.5c0,4.9-1,8.6-3,11.2s-4.8,3.9-8.5,3.9
		c-3.4,0-5.8-1-7.3-3.1c-1.5-2,3.6-7.9,3.6-12.7L173.7,103.6z"/>
</g>
</svg>
