<svg id="Слой_1" xmlns="http://www.w3.org/2000/svg" viewBox="0 0 290 60"><style>.st0{enable-background:new ;}</style><g class="st0"><path d="M33.5.3l-8 24.3 8.8 29.5H19.8l-5.7-23v23H.1V.3h14v20.9L20.3.3h13.2zM66.7 32.8H49.3v9.5c0 2 .1 3.3.4 3.9.3.6.8.9 1.7.9 1 0 1.7-.4 2-1.1.3-.8.5-2.2.5-4.4v-5.8h12.7v3.3c0 2.7-.2 4.8-.5 6.3s-1.1 3-2.4 4.7-2.9 2.9-4.8 3.7c-1.9.8-4.4 1.2-7.3 1.2-2.8 0-5.3-.4-7.5-1.2-2.2-.8-3.9-1.9-5.1-3.4-1.2-1.4-2-3-2.5-4.7-.5-1.7-.7-4.2-.7-7.5v-13c0-3.9.5-6.9 1.6-9.1 1-2.2 2.7-3.9 5.1-5.1 2.4-1.2 5.1-1.8 8.2-1.8 3.8 0 6.9.7 9.3 2.1 2.4 1.4 4.2 3.3 5.1 5.7 1 2.4 1.5 5.7 1.5 9.9v5.9zm-13.5-7.1v-3.2c0-2.3-.1-3.8-.4-4.4-.2-.7-.7-1-1.5-1-.9 0-1.5.3-1.7.8-.2.6-.3 2.1-.3 4.6v3.2h3.9zM99.1 10l-3.8 31.9c-.6 5-1.1 8.5-1.5 10.3-.4 1.8-1.1 3.4-2 4.5-1 1.2-2.3 2.1-4 2.6s-4.4.8-8.1.8h-8.1v-7c2.1 0 3.4-.1 4-.3.6-.2.9-.7.9-1.4 0-.4-.3-1.9-.8-4.6L68.3 10h12.2l4.4 29.8L87 10h12.1zM120 .3v6.8c-2.8 0-4.4.1-4.9.4-.5.3-.7 1-.7 2.2v1.4h5.6v7h-3.2v36h-13.4v-36h-2.8v-7h2.8c0-2.9.1-4.8.3-5.8.2-1 .7-1.8 1.5-2.6s1.9-1.3 3.3-1.7c1.4-.4 3.6-.6 6.6-.6h4.9zM136 10l-.5 5.8c1.9-4.1 4.8-6.3 8.5-6.6v15.5c-2.5 0-4.3.3-5.4 1-1.2.7-1.9 1.6-2.1 2.8-.3 1.2-.4 3.9-.4 8.2v17.4h-13.4V10H136zM158.9 27.1h-12.6v-3c0-3.4.4-6 1.2-7.9.8-1.8 2.4-3.5 4.7-4.9 2.4-1.4 5.4-2.1 9.2-2.1 4.5 0 8 .8 10.3 2.4 2.3 1.6 3.7 3.6 4.2 5.9.5 2.3.7 7.1.7 14.4V54h-13v-3.9c-.8 1.6-1.9 2.8-3.2 3.5s-2.8 1.2-4.6 1.2c-2.3 0-4.5-.7-6.5-2s-2.9-4.2-2.9-8.6v-3.6c0-3.3.5-5.5 1.6-6.7s3.6-2.6 7.7-4.2c4.4-1.7 6.8-2.9 7.1-3.5s.5-1.8.5-3.7c0-2.3-.2-3.8-.5-4.5-.3-.7-.9-1-1.7-1-.9 0-1.5.3-1.7.9-.2.6-.3 2.1-.3 4.6v4.6zm4.2 6c-2.1 1.6-3.4 2.9-3.7 4-.3 1.1-.5 2.6-.5 4.6 0 2.3.2 3.8.4 4.4s.9 1 1.8 1c.8 0 1.4-.3 1.6-.8.3-.5.4-1.9.4-4.1v-9.1zM194.4 10l-.2 4.2c1-1.7 2.3-2.9 3.7-3.7 1.4-.8 3.1-1.2 4.9-1.2 3.6 0 6.4 1.7 8.5 5 1.1-1.7 2.4-2.9 3.8-3.7 1.4-.8 3-1.2 4.7-1.2 2.3 0 4.2.6 5.7 1.7s2.5 2.5 2.9 4.1c.4 1.6.6 4.2.6 7.8v31.3h-13V25.4c0-3.8-.1-6.1-.4-7-.3-.9-.8-1.3-1.8-1.3s-1.6.4-1.8 1.3c-.3.9-.4 3.2-.4 7v28.7h-13v-28c0-4.3-.1-6.9-.3-7.8-.2-.9-.8-1.3-1.7-1.3-.6 0-1.1.2-1.5.7-.4.5-.7 1-.7 1.7s-.1 2-.1 4.2v30.5h-13V10h13.1zM264 32.8h-17.4v9.5c0 2 .1 3.3.4 3.9.3.6.8.9 1.7.9 1 0 1.7-.4 2-1.1.3-.8.5-2.2.5-4.4v-5.8H264v3.3c0 2.7-.2 4.8-.5 6.3s-1.1 3-2.4 4.7-2.9 2.9-4.8 3.7c-1.9.8-4.4 1.2-7.3 1.2-2.8 0-5.3-.4-7.5-1.2s-3.9-1.9-5.1-3.4c-1.2-1.4-2-3-2.5-4.7-.5-1.7-.7-4.2-.7-7.5v-13c0-3.9.5-6.9 1.6-9.1s2.7-3.9 5.1-5.1c2.4-1.2 5.1-1.8 8.2-1.8 3.8 0 6.9.7 9.3 2.1 2.4 1.4 4.2 3.3 5.1 5.7 1 2.4 1.5 5.7 1.5 9.9v5.9zm-13.5-7.1v-3.2c0-2.3-.1-3.8-.4-4.4s-.7-1-1.5-1c-.9 0-1.5.3-1.7.8s-.3 2.1-.3 4.6v3.2h3.9zM281.8 10l-.5 5.8c1.9-4.1 4.8-6.3 8.5-6.6v15.5c-2.5 0-4.3.3-5.4 1s-1.9 1.6-2.1 2.8c-.3 1.2-.4 3.9-.4 8.2v17.4h-13.4V10h13.3z"/></g></svg>