<?xml version="1.0" encoding="utf-8"?>
<!-- Generator: Adobe Illustrator 22.1.0, SVG Export Plug-In . SVG Version: 6.00 Build 0)  -->
<svg version="1.1" id="Слой_1" xmlns="http://www.w3.org/2000/svg" xmlns:xlink="http://www.w3.org/1999/xlink" x="0px" y="0px"
	 viewBox="0 0 234.1 45.5" enable-background="new 0 0 234.1 45.5" xml:space="preserve">
<g>
	<path fill="#07B189" d="M17,34.4H1.8v-6.1h2.4v-7.2H1.8V15h12.5v2.7c1-0.8,2.2-1.5,3.8-2.1c1.5-0.6,3-0.9,4.4-0.9
		c3.3,0,5.5,1.3,6.6,3.8c3-2.5,6-3.8,9.1-3.8c1.7,0,3.1,0.4,4.2,1.1c1.1,0.7,1.9,1.7,2.4,2.9c0.5,1.3,0.7,3,0.7,5.3v4.4h2.6v6.1
		H35.4v-8.3c0-2.2-0.2-3.5-0.5-4.1c-0.3-0.5-0.9-0.8-1.8-0.8c-1.1,0-2.2,0.4-3.3,1.2v5.9h2.7v6.1H19.8v-8.3c0-2.1-0.1-3.5-0.4-4.1
		c-0.3-0.6-0.9-0.8-1.8-0.8c-1,0-2.1,0.4-3.2,1.2v5.9H17V34.4z"/>
	<path fill="#07B189" d="M58.6,20.4l-7.9-0.8c0.9-1.9,2.3-3.2,4.2-4c1.9-0.8,4.7-1.2,8.4-1.2c1.4,0,2.6,0,3.7,0.1
		c1.1,0.1,2.1,0.2,2.9,0.4c1.8,0.3,3.1,0.8,3.9,1.5c0.9,0.7,1.4,1.5,1.8,2.3c0.3,0.8,0.5,2.1,0.5,3.9v5.6h2.5v6.1H66.2v-1.3
		c-1.7,1.1-4.1,1.7-7,1.7c-2.7,0-4.8-0.6-6.2-1.8c-1.4-1.2-2.1-2.6-2.1-4.3c0-1.8,0.9-3.3,2.6-4.5c1.7-1.2,3.9-1.7,6.7-1.7
		c2.5,0,4.5,0.3,6,1v-0.6c0-1.2-0.1-2-0.3-2.5c-0.2-0.5-0.6-0.9-1.2-1.3c-0.7-0.3-1.4-0.5-2.3-0.5C60.7,18.6,59.5,19.2,58.6,20.4z
		 M66.2,29.5v-3.5c-0.9-0.5-1.8-0.7-2.8-0.7c-0.9,0-1.6,0.2-2.1,0.7c-0.5,0.5-0.8,1.1-0.8,1.9c0,0.8,0.3,1.4,0.8,1.9
		c0.5,0.5,1.2,0.8,1.9,0.8C64.4,30.5,65.4,30.1,66.2,29.5z"/>
	<path fill="#07B189" d="M95.2,34.4H81.2v-6.1h2.1V12.7h-2.1V6.6h12.1v21.7h1.8V34.4z"/>
	<path fill="#07B189" d="M106,20.4l-7.9-0.8c0.9-1.9,2.3-3.2,4.2-4c1.9-0.8,4.7-1.2,8.4-1.2c1.4,0,2.6,0,3.7,0.1
		c1.1,0.1,2.1,0.2,2.9,0.4c1.8,0.3,3.1,0.8,3.9,1.5c0.9,0.7,1.4,1.5,1.8,2.3c0.3,0.8,0.5,2.1,0.5,3.9v5.6h2.5v6.1h-12.6v-1.3
		c-1.7,1.1-4.1,1.7-7,1.7c-2.7,0-4.8-0.6-6.2-1.8c-1.4-1.2-2.1-2.6-2.1-4.3c0-1.8,0.9-3.3,2.6-4.5c1.7-1.2,3.9-1.7,6.7-1.7
		c2.5,0,4.5,0.3,6,1v-0.6c0-1.2-0.1-2-0.3-2.5c-0.2-0.5-0.6-0.9-1.2-1.3c-0.7-0.3-1.4-0.5-2.3-0.5C108.1,18.6,106.9,19.2,106,20.4z
		 M113.6,29.5v-3.5c-0.9-0.5-1.8-0.7-2.8-0.7c-0.9,0-1.6,0.2-2.1,0.7c-0.5,0.5-0.8,1.1-0.8,1.9c0,0.8,0.3,1.4,0.8,1.9
		c0.5,0.5,1.2,0.8,1.9,0.8C111.8,30.5,112.8,30.1,113.6,29.5z"/>
	<path fill="#07B189" d="M144.2,34.4h-15.7v-6.1h2.6v-7.2h-2.6V15h12.1v4.9c0.5-1.2,1.2-2.3,2.1-3.1c0.9-0.9,1.8-1.4,2.8-1.7
		c0.9-0.3,2.2-0.4,3.9-0.4v8.5c-0.2,0-0.5,0-0.8,0c-2.1,0-3.6,0.2-4.6,0.6c-1,0.4-1.7,1-2.1,1.7c-0.4,0.7-0.6,1.7-0.6,2.8h2.9V34.4z
		"/>
	<path fill="#07B189" d="M163,34.4h-12.6v-6.1h2.5V12.7h-2.5V6.6H163V26l6.3-6.2h-3.5V15h12.4v5.3H176l-3.6,3.6l4.4,4.5h1.6v6.1
		h-7.2l-8-8.4V34.4z"/>
	<path fill="#07B189" d="M197.5,28.3l8.3,1c-0.4,0.9-0.9,1.6-1.6,2.3c-0.7,0.7-1.5,1.3-2.4,1.8c-1.9,1-4.3,1.6-6.9,1.6
		c-4.5,0-7.9-0.9-10.2-2.8c-2.3-1.9-3.4-4.3-3.4-7.3c0-3,1.1-5.4,3.4-7.4c2.2-2,5.3-3,9.1-3c3.7,0,6.7,0.9,9,2.8
		c2.3,1.9,3.5,4.7,3.6,8.5H191c0,3.1,1.2,4.7,3.5,4.7C195.9,30.4,196.9,29.7,197.5,28.3z M191.1,23.2h5.7c0-0.4,0-0.6,0-0.7
		c0-1.1-0.3-1.9-0.8-2.6c-0.5-0.7-1.2-1-2.1-1c-0.9,0-1.6,0.4-2.1,1.1c-0.5,0.8-0.7,1.7-0.7,2.8C191.1,22.9,191.1,23.1,191.1,23.2z"
		/>
	<path fill="#07B189" d="M220.8,43.3h-8.5v-5.9h3.3l1-2l-7.4-14.3h-1.5V15h13.2v6.1h-2.1l3.4,7.6l3.1-7.6h-1.9V15h10v6.1h-1.9
		L220.8,43.3z"/>
</g>
</svg>
