<?xml version="1.0" encoding="utf-8"?>
<!-- Generator: Adobe Illustrator 22.1.0, SVG Export Plug-In . SVG Version: 6.00 Build 0)  -->
<svg version="1.1" id="Слой_1" xmlns="http://www.w3.org/2000/svg" xmlns:xlink="http://www.w3.org/1999/xlink" x="0px" y="0px"
	 viewBox="0 0 141 81" enable-background="new 0 0 141 81" xml:space="preserve">
<g>
	<path fill="#428AFF" d="M0,26.8h3.1v0.2c0,2.6,0.6,4.6,1.7,6s2.8,2,5.1,2c1.6,0,2.9-0.4,3.8-1.2c0.9-0.8,1.4-1.9,1.4-3.3
		c0-1.3-0.4-2.3-1.2-3s-2.4-1.2-4.9-1.6c-3.2-0.5-5.4-1.3-6.7-2.5c-1.3-1.2-1.9-2.9-1.9-5.1c0-2.3,0.7-4.1,2.1-5.5
		c1.4-1.3,3.3-2,5.7-2c1.2,0,2.3,0.2,3.3,0.7c1,0.5,1.8,1.2,2.6,2.3v-2.4h2.9v8.8H14c0-2.3-0.5-4-1.4-5.1c-0.9-1.1-2.2-1.7-4-1.7
		c-1.5,0-2.8,0.4-3.6,1.1c-0.9,0.7-1.3,1.7-1.3,3c0,1.2,0.4,2.1,1.1,2.8c0.8,0.7,2,1.2,3.8,1.5c0.3,0,0.8,0.1,1.5,0.2
		c2.7,0.4,4.6,1,5.7,1.7c1,0.7,1.8,1.5,2.3,2.4c0.5,1,0.7,2.2,0.7,3.6c0,2.3-0.8,4.2-2.4,5.6s-3.6,2.2-6.1,2.2
		c-1.7,0-3.2-0.3-4.3-0.9s-2.2-1.5-3.1-2.8v2.9H0V26.8z"/>
	<path fill="#428AFF" d="M22.1,3.2V1h7.4v13.9c0.8-1.2,1.7-2.1,2.8-2.7c1.1-0.6,2.4-0.9,3.9-0.9c2.8,0,4.7,0.8,6,2.5
		c1.2,1.6,1.9,4.3,1.9,8.1v12.6h3.4v2.2H36.7v-2.2h3.4V21.7c0-2.8-0.4-4.8-1.1-5.9c-0.7-1.1-1.9-1.7-3.6-1.7c-2,0-3.4,0.7-4.5,2
		c-1,1.3-1.5,3.3-1.5,5.9v12.6H33v2.2H22.1v-2.2h3.5V3.2H22.1z"/>
	<path fill="#428AFF" d="M70.7,34.6h3.5v2.2h-7.4v-4.2c-0.6,1.5-1.4,2.6-2.6,3.4c-1.2,0.8-2.7,1.1-4.4,1.1c-2.6,0-4.5-0.8-5.7-2.5
		c-1.2-1.7-1.8-4.4-1.8-8.1V13.8h-3.5v-2.2h7.4v14.5c0,3,0.4,5.2,1.1,6.4s1.9,1.8,3.6,1.8c1.8,0,3.2-0.7,4.3-2.2s1.7-3.5,1.7-5.9
		V13.8h-3.6v-2.2h7.5V34.6z"/>
	<path fill="#428AFF" d="M88.8,1.7L87.1,5c-0.5-0.3-0.9-0.4-1.3-0.5c-0.3-0.1-0.6-0.1-0.9-0.1c-0.8,0-1.5,0.3-2,0.8
		c-0.5,0.5-0.7,1.3-0.7,2.2c0,1.3,0.4,2.3,1.3,3.1c0.9,0.7,2.1,1.1,3.6,1.1h1v2.2h-4.3v20.8h4.3v2.2H76.2v-2.2h3.5V13.8h-2.9v-2.2
		h2.9c-0.1-1.1-0.1-2-0.2-2.7c0-0.7-0.1-1.2-0.1-1.7c0-2.1,0.5-3.8,1.5-5c1-1.2,2.4-1.8,4.1-1.8c0.6,0,1.3,0.1,1.9,0.3
		C87.6,0.9,88.2,1.3,88.8,1.7z"/>
	<path fill="#428AFF" d="M103.4,1.7L101.7,5c-0.5-0.3-0.9-0.4-1.3-0.5c-0.3-0.1-0.6-0.1-0.9-0.1c-0.8,0-1.5,0.3-2,0.8
		c-0.5,0.5-0.7,1.3-0.7,2.2c0,1.3,0.4,2.3,1.3,3.1c0.9,0.7,2.1,1.1,3.6,1.1h1v2.2h-4.3v20.8h4.3v2.2H90.8v-2.2h3.5V13.8h-2.9v-2.2
		h2.9c-0.1-1.1-0.1-2-0.2-2.7c0-0.7-0.1-1.2-0.1-1.7c0-2.1,0.5-3.8,1.5-5c1-1.2,2.4-1.8,4.1-1.8c0.6,0,1.3,0.1,1.9,0.3
		C102.2,0.9,102.8,1.3,103.4,1.7z"/>
	<path fill="#428AFF" d="M113.1,1v33.5h4v2.2h-11.7v-2.2h3.7V3.2h-3.7V1H113.1z"/>
	<path fill="#428AFF" d="M124.2,24.4v0.9c0,3.4,0.6,5.9,1.7,7.6c1.1,1.7,2.9,2.5,5.2,2.5c1.9,0,3.4-0.6,4.5-1.9
		c1.1-1.3,1.7-3,1.8-5.3h3.5c-0.2,3.1-1.1,5.4-2.9,7c-1.8,1.6-4.2,2.4-7.5,2.4c-3.6,0-6.3-1.1-8-3.3c-1.8-2.2-2.7-5.5-2.7-10
		c0-4.5,0.9-7.9,2.6-10.1c1.7-2.2,4.4-3.3,7.9-3.3c3.3,0,5.8,1,7.5,3.1c1.7,2.1,2.5,5.2,2.5,9.4v1.1H124.2z M136.2,22.2v-0.8
		c0-2.8-0.5-4.9-1.5-6.3c-1-1.4-2.4-2.1-4.3-2.1c-2,0-3.5,0.7-4.5,2.2c-1,1.4-1.5,3.8-1.6,7H136.2z"/>
	<path fill="#428AFF" d="M38.5,57v15.4c0,1.9,0.2,3.1,0.6,3.8c0.4,0.7,1,1,1.9,1c0.4,0,0.9-0.1,1.4-0.4c0.5-0.3,1.1-0.6,1.7-1.1v3
		c-0.7,0.5-1.3,0.9-2,1.2s-1.5,0.4-2.3,0.4c-1.9,0-3.2-0.6-4.1-1.7s-1.2-3-1.2-5.6V57h-3v-2.2h3v-6.7h4.1v6.7h5.6V57H38.5z"/>
	<path fill="#428AFF" d="M52.8,67.4v0.9c0,3.4,0.6,5.9,1.7,7.6c1.1,1.7,2.9,2.5,5.2,2.5c1.9,0,3.4-0.6,4.5-1.9
		c1.1-1.3,1.7-3,1.8-5.3h3.5c-0.2,3.1-1.1,5.4-2.9,7c-1.8,1.6-4.2,2.4-7.5,2.4c-3.6,0-6.3-1.1-8-3.3c-1.8-2.2-2.7-5.5-2.7-10
		c0-4.5,0.9-7.9,2.6-10.1c1.7-2.2,4.4-3.3,7.9-3.3c3.3,0,5.8,1,7.5,3.1c1.7,2.1,2.5,5.2,2.5,9.4v1.1H52.8z M64.7,65.2v-0.8
		c0-2.8-0.5-4.9-1.5-6.3c-1-1.4-2.4-2.1-4.3-2.1c-2,0-3.5,0.7-4.5,2.2c-1,1.4-1.5,3.8-1.6,7H64.7z"/>
	<path fill="#428AFF" d="M80.8,67.3l-6.4-10.5h-2.5v-2.2h9.5v2.2h-2.6l4.2,7.3l4.7-7.3h-2.6v-2.2h8.6v2.2h-3l-6.3,9.4l7.2,11.4h2.9
		v2.2h-9.9v-2.2h2.5l-5-8.2l-5.3,8.2h2.6v2.2H71v-2.2h3L80.8,67.3z"/>
	<path fill="#428AFF" d="M103.4,57v15.4c0,1.9,0.2,3.1,0.6,3.8c0.4,0.7,1,1,1.9,1c0.4,0,0.9-0.1,1.4-0.4c0.5-0.3,1.1-0.6,1.7-1.1v3
		c-0.7,0.5-1.3,0.9-2,1.2c-0.7,0.2-1.5,0.4-2.3,0.4c-1.9,0-3.2-0.6-4.1-1.7s-1.2-3-1.2-5.6V57h-3v-2.2h3v-6.7h4.1v6.7h5.6V57H103.4z
		"/>
</g>
</svg>
