<svg id="Слой_1" xmlns="http://www.w3.org/2000/svg" viewBox="0 0 288 69"><style>.st0{fill:#428AFF;}</style><path class="st0" d="M99.1 7.2c0 .2 0 .3-.1.5 0 .2-.1.4-.2.7-.1.2-.2.5-.3.7-.1.2-.2.4-.3.5-.3.4-1.2.6-2.4.6 0-.5 0-.9-.1-1.2 0-.3-.1-.6-.2-.8-.1-.2-.2-.3-.4-.4s-.4-.2-.7-.3c-.2-.1-.5-.1-.7-.2s-.5-.1-.6-.1h-1.4s-.7.2-1.1.2c-.4.1-.9.2-1.3.3-.4.1-.9.3-1.3.5-.3.1-.7.3-1 .5-.4.2-.7.4-1 .7-.3.2-.6.5-.8.8-.2.3-.4.6-.4.9 0 .3.1.5.3.9.2.3.4.6.7.9.3.3.6.6 1 .8.4.3.8.4 1.2.6 0 0 .1 0 .3.1s.3.1.5.2.4.1.7.2c.2.1.5.2.7.2.2.1.4.1.5.2.1 0 .2.1.3.1 2.5.6 4.3 1.4 5.5 2.3s1.8 2 1.8 3.3c0 .4-.1.8-.3 1.2-.2.4-.4.8-.7 1.2s-.6.7-.9 1c-.3.3-.6.6-.9.8-.3.2-.7.5-1.1.8-.4.3-.8.5-1.3.8s-.9.5-1.4.7l-1.5.6c-.5.2-1 .3-1.5.4-.5.1-1 .3-1.6.3s-1 .2-1.5.2-.9.1-1.3.1c-.2 0-.5 0-.7-.1-.3 0-.6-.1-.9-.2-.3-.1-.7-.2-1-.3s-.6-.3-.9-.4-.5-.3-.6-.5-.2-.5-.2-.7c0-.2 0-.4.1-.6s.2-.5.3-.7c.1-.2.3-.4.4-.6s.3-.3.5-.3c.3 0 .5 0 .8.1s.5.1.8.2c.3.1.6.2 1 .2s.9.1 1.5.1 1.2-.1 1.8-.2c.6-.1 1.2-.3 1.9-.5.6-.2 1.2-.4 1.8-.7s1.1-.5 1.5-.8c.2-.1.4-.3.6-.4.2-.2.4-.3.6-.5.2-.2.4-.4.5-.6.1-.2.2-.4.2-.7 0-.3-.2-.5-.6-.7-.6-.3-1.1-.6-1.7-.8s-1-.3-1.5-.5c-1.2-.3-2.6-.8-4.3-1.4-.7-.3-1.4-.6-2.1-1.1s-1.2-.9-1.7-1.4c-1.1-1.2-1.6-2.6-1.6-4.1 0-.6.2-1.2.5-1.8s.8-1.1 1.4-1.6 1.3-1 2.1-1.4c.8-.4 1.6-.8 2.5-1.1.9-.3 1.8-.5 2.7-.7.9-.2 1.8-.3 2.7-.3.3 0 .6 0 1 .1.4 0 .8 0 1.3.1l1.2.3c.4.1.7.2.9.3.6.3 1.1.7 1.5 1.2.3.4.5.9.5 1.3zM122.6 19.6c-.2 1.2-.7 2.2-1.3 3.2-.7 1-1.5 1.8-2.5 2.5s-2.1 1.3-3.4 1.7c-1.3.4-2.6.6-4 .6-.5 0-1-.1-1.5-.2-.6-.1-1.1-.3-1.6-.5s-1-.4-1.5-.7-.8-.5-1.1-.8c-.5-.5-1-1.1-1.4-1.7s-.7-1.3-1-2c-.2-.7-.4-1.4-.5-2.2s-.2-1.5-.2-2.2c0-.4 0-.8.1-1.2 0-.4.1-.9.2-1.4.1-.5.1-1 .2-1.4s.2-.9.2-1.4c.1-.6.2-1.1.3-1.6.1-.5.2-1 .2-1.5.1-.7.3-1.5.4-2.2.1-.7.3-1.4.5-2s.5-1 .8-1.4.8-.5 1.4-.5c.2 0 .4.1.6.3s.4.4.6.7c.2.3.3.5.4.8s.2.5.2.6c0 .1 0 .2-.1.4 0 .2-.1.5-.2.8-.1.3-.2.6-.3 1-.1.3-.2.7-.3 1-.1.3-.2.6-.2.8-.1.2-.1.4-.1.4 0 .2-.1.5-.2.9s-.1.8-.2 1.3-.2 1-.2 1.5c-.1.5-.2 1.1-.2 1.6-.1.5-.1 1-.2 1.4 0 .4-.1.8-.1 1 0 1.6.3 3 .8 4.3.1.3.4.6.7 1 .3.3.7.6 1.1.9s.8.5 1.2.6.8.2 1 .2c1.6 0 3-.2 4-.7s1.9-1.2 2.4-2.2c.3-.5.5-1 .6-1.5.1-.5.3-1 .3-1.5.1-.5.2-1 .2-1.5s.1-.9.2-1.4c.1-1.1.2-2.1.3-3.1.1-1 .1-1.9.2-2.8s.2-1.7.3-2.4c.1-.7.3-1.3.5-1.8s.5-.9.8-1.2c.3-.3.8-.4 1.3-.4.3 0 .6.1.8.2.2.1.4.3.5.5.1.2.2.4.3.7s.1.5.1.8c0 .4 0 .9-.1 1.4-.1.6-.2 1.1-.2 1.7-.1.6-.2 1.1-.3 1.7s-.2 1-.2 1.4c-.1.3-.1.8-.1 1.2s-.1 1-.1 1.5c0 .7-.1 1.5-.2 2.3.1.7 0 1.6-.2 2.5zM150.9 7.7c0 .2 0 .4-.1.7-.1.3-.2.6-.3 1-.1.3-.3.7-.4 1-.2.3-.3.6-.5.8-.4.5-.9 1.1-1.5 1.6-.6.6-1.4 1.1-2.3 1.7-.8.5-1.6 1.1-2.5 1.6-.9.5-1.7 1-2.5 1.4-1 .5-2.1 1-3.1 1.5-1.1.5-2.1.9-3.2 1.2v1.5c0 .3 0 .7.1 1.1 0 .4.1.8.1 1.3s.1.9.1 1.4c0 .4 0 .8.1 1.2v.9c0 .5-.2 1-.5 1.3-.3.3-.8.5-1.4.5-1.5 0-2.3-2.6-2.3-7.8v-1.4c0-.5.1-1 .1-1.5.1-.5.1-1.1.2-1.7s.2-1.3.3-2.1c.1-.6.2-1.3.3-1.9.1-.6.2-1.2.3-1.7.1-.6.3-1.1.5-1.7.2-.5.4-1.1.6-1.7-.3.1-.7.2-1.1.3-.4.1-.7.3-1.1.4-.1.1-.2.1-.4.1h-.4c-.4 0-.7-.1-1-.3-.3-.2-.4-.5-.4-.9s.1-.8.3-1.2c.2-.3.5-.6.9-.9.4-.3.9-.5 1.5-.7.6-.2 1.4-.4 2.3-.6.5-.1 1.1-.2 1.7-.3l1.8-.3c.6-.1 1.2-.1 1.8-.2s1.1-.1 1.6-.1h1.7c.5 0 1.1 0 1.6.1s1 .1 1.5.2 1 .2 1.6.3c1.2.3 2.1.7 2.8 1.3.8.7 1.2 1.6 1.2 2.6zm-9.2-1.2c-.8 0-1.8.1-2.8.2-1 .1-2 .2-3 .4.3.3.5.8.5 1.3 0 .1 0 .2-.1.5l-.3.9-.3.9c-.1.3-.2.5-.2.5-.1.1-.1.3-.2.5 0 .2-.1.4-.1.7 0 .2-.1.5-.1.8 0 .3-.1.5-.1.8-.1.3-.1.6-.2.9 0 .3-.1.5-.1.7 0 .2 0 .4-.1.6v.6c.4-.2.8-.3 1.2-.5s.9-.4 1.4-.6c.5-.2.9-.4 1.4-.6.4-.2.8-.4 1.2-.5l.6-.3c.2-.1.5-.2.7-.4.2-.1.5-.3.7-.4s.5-.3.7-.4c.5-.3 1-.7 1.6-1.1.6-.4 1.1-.9 1.5-1.4s.8-1 1.1-1.5c.3-.5.4-1 .4-1.4 0-.2-.3-.4-.8-.5-.8-.2-1.6-.4-2.5-.4-.7-.3-1.4-.3-2.1-.3zM176.6 4.9c0 .1 0 .3-.1.4-.1.2-.1.4-.2.5-.1.2-.2.4-.3.5s-.3.3-.4.3c-.3.1-.6.2-.8.3-.3.1-.6.1-1 .2-1 .2-2 .4-2.9.5s-1.9.3-2.7.4c-.8.1-1.6.1-2.3.2s-1.3 0-1.8 0h-4.2c0 .4-.1.8-.1 1.3s-.1 1-.1 1.5-.1 1-.1 1.5-.1.9-.1 1.2c.3 0 .6.1 1 .1h1.1c.5 0 1 0 1.6-.1.5 0 1-.1 1.3-.1.2 0 .4 0 .8-.1s.8 0 1.2-.1c.4 0 .8-.1 1.2-.1.4 0 .7-.1.9-.1l.6-.3c.2-.1.4-.1.5-.2.2 0 .4-.1.5-.1h.6c.3 0 .5.1.7.2.2.1.3.3.5.5.1.2.2.4.2.6 0 .2.1.5.1.7 0 .3-.1.6-.3.8-.2.2-.4.4-.7.5s-.5.2-.8.3c-.3.1-.5.1-.7.2-.2 0-.5.1-1 .1s-1 .1-1.6.1c-.6 0-1.3.1-1.9.1-.7 0-1.3.1-1.9.1-.6 0-1.2.1-1.6.1h-1c-.3 0-.6 0-.9.1s-.6.1-.9.2c-.1.5-.2 1.1-.3 1.7s-.2 1.2-.3 1.9c-.1.3-.1.5-.2.8-.1.3-.1.5-.2.8 0 .2-.1.5-.1.7 0 .2-.1.4-.1.5H159.5s.6 0 1-.1c.3 0 .6-.1.9-.1.8-.1 1.4-.1 2-.2.5 0 1-.1 1.5-.1.4 0 .8-.1 1.2-.1.4 0 .8-.1 1.2-.2.2 0 .5-.1.8-.1.3 0 .6-.1 1-.1.3 0 .7-.1 1-.1.3 0 .6-.1.9-.2.2 0 .3-.1.5-.2s.4-.1.5-.2.4-.1.6-.2c.2 0 .4-.1.6-.1.2 0 .4 0 .7.1.2.1.4.2.6.4s.3.4.4.6c.1.2.1.5.1.8 0 .1-.1.2-.2.4s-.2.4-.4.5c-.2.2-.4.3-.6.5s-.5.3-.8.3c-.9.2-1.9.3-2.9.4s-2 .2-3.2.4c-.8.1-1.7.2-2.5.3-.8.1-1.6.2-2.3.3-.7.1-1.3.2-1.9.2s-.9.1-1.2.2c-.2 0-.5.1-.8.2-.3.1-.6.2-.8.2-.3.1-.6.1-.8.2s-.5.1-.7.1c-.4 0-.7 0-1-.1-.3-.1-.5-.3-.7-.5-.2-.2-.3-.5-.4-.9-.1-.4-.2-.9-.2-1.5 0-.5.1-1 .2-1.5.1-.6.3-1.2.4-2 .2-.8.3-1.4.4-2.1s.3-1.2.4-1.8l.3-1.8c.1-.6.2-1.2.2-1.9v-.5c0-.3 0-.6.1-1 0-.4.1-.8.1-1.3s.1-.9.1-1.3.1-.7.1-1v-.6-.3-.3c0-.2 0-.5.1-.8.1-.3.2-.6.4-.9.1-.2.3-.3.5-.5s.5-.3.8-.5c.3-.1.6-.3.8-.3.3-.1.5-.1.7-.1.1 0 .3 0 .6.1.3 0 .5.1.8.1.3.1.5.1.8.1s.4.1.5.1h2.4c.9 0 1.9 0 2.9-.1s1.9-.2 2.9-.3c.4-.1.9-.2 1.2-.3s.8-.2 1.1-.3c.4-.1.7-.2 1.1-.3.4-.1.8-.1 1.2-.1.2 0 .4 0 .6.1.2.1.4.2.6.4.2.2.3.3.4.5.2.3.3.5.3.7zM205.4 26.4c0 .3-.1.5-.3.8s-.4.4-.7.6c-.2.1-.5.2-.7.3-.3.1-.6.1-.8.1-.6 0-1.3-.1-1.9-.4s-1.3-.6-2-1.1c-.4-.2-.8-.6-1.4-.9-.5-.4-1.2-.9-1.9-1.4-.2-.1-.5-.4-1-.8s-1.2-.9-2-1.6c-.8-.6-1.4-1.1-1.9-1.4-.5-.3-.7-.5-.8-.6-.1-.1-.3-.1-.4-.1h-2.3c-.7-.5-1-1.1-1-1.9 0-.4.1-.7.3-1s.4-.4.8-.5h.9c.3 0 .6 0 .9-.1s.6-.2.8-.3c.3-.1.5-.2.8-.4.3-.1.5-.3.7-.4.3-.2.7-.4 1.1-.6.4-.2.7-.5 1.1-.7.3-.2.7-.5 1-.7l.9-.9c.2-.2.4-.5.5-.7.1-.3.2-.5.2-.7 0-.4-.1-.7-.4-1.1s-.5-.7-.9-.9c-.4-.3-.8-.5-1.2-.7-.4-.2-.8-.4-1.2-.5-.7-.2-1.5-.3-2.2-.3h-.8s-.7.1-1.1.1c-.4 0-.7.1-1.1.1-.3 0-.7.1-1 .1h-.7c-.1 0-.2 0-.3.1-.1 0-.3.1-.5.1.1.2.2.4.2.6s.1.5.2.7c.1.4.2.8.2 1.2v2.7c0 .6-.1 1.1-.2 1.7-.1.6-.2 1.3-.4 2.2-.1.8-.2 1.4-.3 2-.1.6-.2 1.1-.2 1.6-.1.4-.1.8-.1 1.3v2.2s.1.6.2.9c.1.3.2.6.3.8.1.3.3.6.5.9-.1.2-.2.3-.4.5s-.3.3-.5.4l-.6.3c-.2.1-.4.1-.5.1-.9 0-1.5-.2-1.9-.5-.5-.4-.7-.8-.8-1.4-.1-.3-.1-.5-.1-.9v-1.1c0-.6 0-1.2.1-1.7s.1-.9.2-1.4c.1-.4.1-.9.2-1.3.1-.2.1-.4.1-.5 0-.2.1-.4.1-.5 0-.2.1-.4.1-.6s.1-.5.1-.8c.1-.9.3-1.7.3-2.5s.1-1.6.1-2.2v-1.6c0-.6-.1-1.2-.1-1.8-.2-.4-.5-.3-.7-.3-.2 0-.4.1-.5.1-.6 0-.9-.1-1.1-.4-.2-.3-.3-.7-.3-1.2 0-.6.5-1.1 1.4-1.5.4-.2.8-.3 1.1-.5.4-.2.8-.3 1.1-.4.4-.1.9-.3 1.5-.4s1.2-.2 1.9-.3c.7-.1 1.3-.2 1.9-.2s1.1-.1 1.6-.1c1.6 0 3.2.2 4.7.6.8.2 1.5.5 2.2.8s1.3.8 1.8 1.2c1.2 1 1.7 2.4 1.7 4 0 1.1-.4 2.1-1.2 3.2-.7.9-1.5 1.6-2.4 2.2s-1.9 1.3-3 1.8c.3.2.7.5 1 .7s.7.5 1.1.8c.6.4 1.1.8 1.7 1.2.5.4 1 .7 1.4 1s.9.7 1.5 1c.5.4 1.1.8 1.8 1.2.6.4 1.2.8 1.7 1.1.5.3 1 .6 1.3.8l.5.7zM19.9 46.8c0 .2 0 .3-.1.5 0 .2-.1.4-.2.7s-.2.5-.2.7c-.1.2-.2.4-.3.5-.3.4-1.2.6-2.4.6 0-.5 0-.9-.1-1.2 0-.3-.1-.6-.2-.8-.1-.2-.2-.3-.4-.4s-.4-.2-.7-.3c-.2-.1-.5-.1-.7-.2s-.5-.1-.6-.1h-1.4s-.8.2-1.2.2c-.4.1-.9.2-1.3.3-.4.1-.9.3-1.3.5-.3.1-.7.3-1 .5-.4.2-.7.4-1 .7-.3.2-.6.5-.8.8-.2.3-.4.6-.4.9 0 .3.1.5.3.9.1.1.3.4.6.7.3.3.6.6 1 .8.4.3.8.4 1.2.6 0 0 .1 0 .3.1s.3.1.5.2.4.1.7.2c.2.1.5.2.7.2.2.1.4.1.5.2.1 0 .2.1.3.1 2.5.6 4.3 1.4 5.5 2.3s1.8 2 1.8 3.3c0 .4-.1.8-.3 1.2s-.4.8-.7 1.2-.6.7-.9 1c-.3.3-.6.6-.9.8-.3.2-.7.5-1.1.8-.4.3-.8.5-1.3.8s-.9.5-1.4.7l-1.5.6c-.5.2-1 .3-1.5.4-.5.1-1 .3-1.6.3s-1 .2-1.5.2-.9.1-1.3.1c-.2 0-.5 0-.7-.1-.3 0-.6-.1-.9-.2-.3-.1-.7-.2-1-.3s-.4-.2-.7-.4-.5-.3-.6-.4-.2-.4-.2-.5c0-.2 0-.4.1-.6s.2-.5.3-.7c.1-.2.3-.4.4-.6s.3-.3.5-.3c.3 0 .5 0 .8.1s.5.1.8.2c.3.1.6.2 1 .2s.9.1 1.5.1 1.2-.1 1.8-.2c.6-.1 1.2-.3 1.9-.5.6-.2 1.2-.4 1.8-.7s1.1-.5 1.5-.8c.2-.1.4-.3.6-.4.2-.2.4-.3.6-.5.2-.2.4-.4.5-.6s.2-.4.2-.7c0-.3-.2-.5-.6-.7-.6-.3-1.1-.6-1.7-.8s-1-.3-1.5-.5c-1.2-.3-2.6-.8-4.3-1.4-.7-.3-1.4-.6-2.1-1.1s-1.2-1-1.7-1.5c-1.1-1.2-1.6-2.6-1.6-4.1 0-.6.2-1.2.5-1.8S3 47.5 3.6 47s1.3-1 2.1-1.4c.8-.4 1.6-.8 2.5-1.1.9-.3 1.8-.5 2.7-.7.9-.2 1.8-.3 2.7-.3.3 0 .6 0 1 .1.4 0 .8.1 1.2.2l1.2.3c.4.1.7.2.9.3.6.3 1.1.7 1.5 1.2.3.3.5.8.5 1.2zM48.5 56.5c0 .4-.1.8-.4 1.3s-.7 1-1.2 1.5-1.1 1.1-1.7 1.6-1.3 1.1-2.1 1.7c-1 .8-2 1.5-3.1 2.2-1.1.7-2.2 1.3-3.4 1.8-1.1.5-2.3 1-3.4 1.3s-2.2.5-3.3.5c-1.2 0-2.3-.2-3.2-.5-.9-.3-1.6-.8-2.2-1.5s-1-1.4-1.3-2.3c-.3-.9-.4-1.9-.4-3 0-.9.1-1.9.3-2.8s.5-1.9.9-2.9c.4-.9.8-1.9 1.3-2.7s1.1-1.7 1.7-2.4c.3-.4.8-.9 1.2-1.3.5-.5 1-.9 1.5-1.4s1.1-.9 1.6-1.3 1-.7 1.5-1c.3-.2.8-.4 1.3-.7.5-.3 1.1-.5 1.7-.7.6-.2 1.1-.4 1.7-.6s1-.2 1.5-.2c.7 0 1.3 0 1.7.1s.8.3 1.1.5c.2.1.3.3.5.5s.4.5.6.8.3.6.5.9c.1.3.2.5.2.7 0 .1 0 .3-.1.5s-.2.5-.3.7-.3.5-.4.8c-.2.3-.3.5-.5.8s-.3.5-.4.7-.2.3-.3.4c-.5.6-1.1.9-1.8.9-.6 0-1.1-.2-1.4-.5-.3-.3-.5-.8-.5-1.3 0-.2.1-.4.3-.8s.5-.7.9-1.2c.2-.2.4-.4.5-.6.2-.2.3-.4.4-.5-.3-.1-.5-.1-.8-.1-.3 0-.7.1-1.2.2-.5.2-1 .4-1.6.6s-1.4.4-1.9.8-1 .6-1.3.9c-1 .8-1.9 1.7-2.8 2.7s-1.6 2.1-2.2 3.3l-.6 1.5s-.4 1.1-.6 1.6-.3 1.1-.4 1.7c-.1.6-.1 1.1-.1 1.6s.1 1.1.2 1.5.3.9.6 1.2c.3.3.6.6 1.1.8s1 .3 1.6.3c.8 0 1.6-.1 2.4-.3.8-.2 1.7-.5 2.5-.9.9-.4 1.7-.8 2.6-1.2.9-.5 1.7-1 2.5-1.5s1.6-1 2.3-1.6 1.4-1 1.9-1.5c.2-.2.5-.4.7-.6.3-.2.6-.5.8-.8.3-.3.6-.5.8-.8.3-.3.5-.5.7-.8l.6.3c.1.1.3.2.3.3.1.1.1.2.1.3s.3.3.3.5zM74.5 66c0 .3-.1.5-.3.8s-.4.4-.7.6c-.2.1-.5.2-.7.3-.3.1-.6.1-.8.1-.6 0-1.3-.1-1.9-.4s-1.3-.6-2-1.1c-.4-.2-.8-.6-1.4-.9-.5-.4-1.2-.9-1.9-1.4-.2-.1-.5-.4-1-.8s-1.2-.9-2-1.6c-.8-.6-1.4-1.1-1.9-1.4-.5-.3-.7-.5-.8-.6-.1-.1-.3-.1-.4-.1h-2.3c-.7-.5-1-1.1-1-1.9 0-.4.1-.7.3-1s.4-.4.8-.5h.9c.3 0 .6 0 .9-.1s.6-.2.8-.3c.3-.1.5-.2.8-.4.3-.1.5-.3.7-.4.3-.2.7-.4 1.1-.6.4-.2.7-.5 1.1-.7.3-.2.7-.5 1-.7l.9-.9c.2-.2.4-.5.5-.7.1-.3.2-.5.2-.7 0-.4-.1-.7-.4-1.1s-.5-.7-.9-.9-.8-.5-1.2-.7c-.4-.2-.8-.4-1.2-.5-.7-.2-1.5-.3-2.2-.3h-.8s-.7.1-1.1.1c-.4 0-.7.1-1.1.1-.3 0-.7.1-1 .1h-.7c-.1 0-.2 0-.3.1-.1 0-.3.1-.5.1.1.2.2.4.2.6s.1.5.2.7c.1.4.2.8.2 1.2v2.7c0 .6-.1 1.1-.2 1.7-.1.6-.2 1.3-.4 2.2-.1.8-.2 1.4-.3 2-.1.6-.2 1.1-.2 1.6-.1.4-.1.8-.1 1.3v2.2s.1.6.2.9c.1.3.2.6.3.8.1.3.3.6.5.9-.1.2-.2.3-.4.5s-.3.3-.5.4l-.6.3c-.2.1-.4.1-.5.1-.9 0-1.5-.2-1.9-.5-.5-.4-.7-.8-.8-1.4-.1-.3-.1-.5-.1-.9v-1.1c0-.6 0-1.2.1-1.7s.1-.9.2-1.4.1-.9.2-1.3c.1-.2.1-.4.1-.5s.1-.4.1-.5.1-.4.1-.6.1-.5.1-.8c.1-.9.3-1.7.3-2.5s.1-1.6.1-2.2v-1.6c0-.6-.1-1.2-.1-1.8-.3.1-.6.2-.9.2-.2 0-.4.1-.5.1-.6 0-.9-.1-1.1-.4-.2-.3-.3-.7-.3-1.2 0-.6.5-1.1 1.5-1.5.4-.2.8-.3 1.1-.5.4-.2.8-.3 1.1-.4.4-.1.9-.3 1.5-.4s1.2-.2 1.9-.3c.7-.1 1.3-.2 1.9-.2s1.1-.1 1.6-.1c1.6 0 3.2.2 4.7.6.8.2 1.5.5 2.2.8s1.3.8 1.8 1.2c1.2 1 1.7 2.4 1.7 4 0 1.1-.4 2.1-1.2 3.2-.7.9-1.5 1.6-2.4 2.2s-1.9 1.3-3 1.8c.3.2.7.5 1 .7s.7.5 1.1.8c.6.4 1.1.8 1.7 1.2s1 .7 1.4 1 .9.7 1.5 1 1.1.8 1.8 1.2c.6.4 1.2.8 1.7 1.1.5.3 1 .6 1.3.8l.6.2zM99.5 52.1c0 .7-.1 1.4-.3 2.3-.2.8-.5 1.7-.9 2.6s-.9 1.8-1.5 2.7c-.6.9-1.2 1.7-1.9 2.4-1.1 1.2-2.1 2.1-3.1 2.9-1 .8-1.9 1.4-2.9 1.8-1 .5-2 .8-3 1-1 .2-2.1.3-3.4.3-.6 0-1.3-.1-1.9-.4-.6-.2-1.1-.6-1.7-1-.5-.4-1-.9-1.4-1.4s-.8-1.1-1.1-1.7c-.3-.6-.5-1.2-.7-1.8s-.2-1.2-.2-1.8c0-1 .2-2.1.5-3.4.3-1.2.8-2.4 1.4-3.7s1.3-2.4 2.1-3.6c.8-1.2 1.8-2.2 2.8-3.1 1-.9 2.1-1.6 3.3-2.2 1.2-.5 2.5-.8 3.8-.8.7 0 1.3 0 2 .1s1.3.2 1.8.4c.6.2 1.1.3 1.6.6s.9.5 1.3.8c.8.6 1.4 1.1 1.8 1.7.4.5.8 1.1 1 1.6.2.5.4 1.1.4 1.7.2.6.2 1.3.2 2zm-10.1-5.5c-.7 0-1.3.1-1.9.4s-1.2.6-1.7 1.1-1.1 1-1.6 1.5c-.5.6-1 1.2-1.4 1.7-.4.5-.8 1.1-1.2 1.8-.4.7-.7 1.4-1 2.1s-.5 1.5-.7 2.3-.3 1.6-.3 2.3c0 .7.1 1.3.3 1.9s.5 1.1.9 1.5c.4.4.8.7 1.2.9s.9.3 1.4.3c.8 0 1.6-.1 2.4-.3s1.5-.5 2.2-.9c.7-.4 1.4-.9 2-1.4.6-.5 1.2-1.1 1.7-1.7s1-1.2 1.4-1.9c.4-.7.8-1.3 1.1-2 .3-.6.5-1.4.8-2.2.2-.8.3-1.7.3-2.5 0-.4 0-.7-.1-1 0-.3-.1-.7-.2-1-.1-.3-.3-.6-.6-1-.3-.3-.7-.7-1.2-1s-1-.6-1.7-.8c-.5 0-1.2-.1-2.1-.1zM121.9 65c-.1.2-.3.3-.4.4-.2.1-.4.2-.5.3-.2.1-.4.1-.6.2-.2 0-.4.1-.5.1h-2.4c-.5 0-1 0-1.6.1l-1.8.3s-1.2.3-1.8.4c-.6.2-1.2.3-1.7.5-.9.2-1.7.5-2.4.6-.8.2-1.4.3-2 .3-.5 0-.9-.1-1.2-.2-.3-.1-.6-.3-.8-.5-.2-.2-.4-.4-.5-.7s-.1-.5-.1-.8c0-.5.1-1.2.2-2s.3-1.6.5-2.4c0-.2.1-.7.2-1.3.1-.6.2-1.4.4-2.3.1-.9.3-1.8.5-2.8.2-1 .3-1.9.4-2.8s.3-1.7.4-2.4c.1-.7.2-1.2.2-1.5.1-.5.1-1 .1-1.5s.1-.9.1-1.3.1-.7.2-1.1.2-.6.4-.8c.2-.2.4-.4.7-.5.3-.1.7-.2 1.1-.2.4 0 .7.1 1 .2s.5.3.6.5c.1.2.3.5.3.8.1.3.1.6.1.9 0 .1 0 .4-.1.7-.1.4-.2.9-.3 1.5-.1.6-.2 1.2-.4 1.9-.1.7-.3 1.4-.4 2.2s-.3 1.4-.4 2.1c-.1.7-.2 1.3-.3 1.9-.1.5-.2 1.1-.3 1.7-.1.6-.3 1.2-.4 1.8-.1.5-.2.9-.2 1.4-.1.5-.2.9-.2 1.3s-.1.8-.2 1.1c0 .3-.1.6-.1.8v.3c0 .1.1.2.1.2.2 0 .5 0 .9-.1l1.2-.3s.9-.2 1.3-.4c.5-.1.9-.3 1.3-.4.1 0 .3-.1.5-.1.3-.1.6-.1.9-.2.4-.1.7-.2 1.1-.2.4-.1.8-.1 1.1-.2.4-.1.7-.1 1-.2.3 0 .5-.1.6-.1.1 0 .4 0 .8-.1s.9-.1 1.4-.1c.9 0 1.5.1 1.9.3.4.2.6.6.6 1.1 0 .2 0 .4-.1.7-.1.6-.2.8-.4.9zM144.3 65c-.1.2-.3.3-.4.4-.2.1-.4.2-.5.3-.2.1-.4.1-.6.2-.2 0-.4.1-.5.1h-2.4c-.5 0-1 0-1.6.1l-1.8.3s-1.2.3-1.8.4c-.6.2-1.2.3-1.7.5-.9.2-1.7.5-2.4.6-.8.2-1.4.3-2 .3-.5 0-.9-.1-1.2-.2-.3-.1-.6-.3-.8-.5-.2-.2-.4-.4-.5-.7s-.1-.5-.1-.8c0-.5.1-1.2.2-2s.3-1.6.5-2.4c0-.2.1-.7.2-1.3.1-.6.2-1.4.4-2.3.1-.9.3-1.8.5-2.8.2-1 .3-1.9.4-2.8s.3-1.7.4-2.4c.1-.7.2-1.2.2-1.5.1-.5.1-1 .1-1.5s.1-.9.1-1.3.1-.7.2-1.1.2-.6.4-.8c.2-.2.4-.4.7-.5.3-.1.7-.2 1.1-.2.4 0 .7.1 1 .2s.5.3.6.5c.1.2.3.5.3.8.1.3.1.6.1.9 0 .1 0 .4-.1.7-.1.4-.2.9-.3 1.5-.1.6-.2 1.2-.4 1.9-.1.7-.3 1.4-.4 2.2s-.3 1.4-.4 2.1c-.1.7-.2 1.3-.3 1.9-.1.5-.2 1.1-.3 1.7-.1.6-.3 1.2-.4 1.8-.1.5-.2.9-.2 1.4-.1.5-.2.9-.2 1.3s-.1.8-.2 1.1c0 .3-.1.6-.1.8v.3c0 .1.1.2.1.2.2 0 .5 0 .9-.1l1.2-.3s.9-.2 1.3-.4c.5-.1.9-.3 1.3-.4.1 0 .3-.1.5-.1.3-.1.6-.1.9-.2.4-.1.7-.2 1.1-.2.4-.1.8-.1 1.1-.2.4-.1.7-.1 1-.2.3 0 .5-.1.6-.1.1 0 .4 0 .8-.1s.9-.1 1.4-.1c.9 0 1.5.1 1.9.3.4.2.6.6.6 1.1 0 .2 0 .4-.1.7-.2.6-.3.8-.4.9zM170.7 52.1c0 .7-.1 1.4-.3 2.3-.2.8-.5 1.7-.9 2.6-.4.9-.9 1.8-1.5 2.7s-1.2 1.7-1.9 2.4c-1.1 1.2-2.1 2.1-3.1 2.9-1 .8-2 1.4-2.9 1.8-1 .5-2 .8-3 1-1 .2-2.1.3-3.4.3-.6 0-1.3-.1-1.9-.4-.6-.2-1.1-.6-1.7-1-.5-.4-1-.9-1.4-1.4-.4-.5-.8-1.1-1.1-1.7-.3-.6-.5-1.2-.7-1.8-.2-.6-.3-1.2-.3-1.8 0-1 .2-2.1.5-3.4.3-1.2.8-2.4 1.4-3.7.6-1.2 1.3-2.4 2.1-3.6.8-1.2 1.8-2.2 2.8-3.1 1-.9 2.1-1.6 3.3-2.2 1.2-.5 2.5-.8 3.8-.8.7 0 1.3 0 2 .1s1.3.2 1.8.4c.6.2 1.1.3 1.6.6.5.2.9.5 1.3.8.8.6 1.4 1.1 1.8 1.7.4.5.8 1.1 1 1.6.2.5.4 1.1.4 1.7.3.6.3 1.3.3 2zm-10.1-5.5c-.7 0-1.3.1-1.9.4-.6.3-1.2.6-1.7 1.1-.6.5-1.1 1-1.6 1.5-.5.6-1 1.2-1.4 1.7-.4.5-.8 1.1-1.2 1.8-.4.7-.7 1.4-1 2.1-.3.7-.5 1.5-.7 2.3s-.3 1.6-.3 2.3c0 .7.1 1.3.3 1.9.2.6.5 1.1.9 1.5.4.4.8.7 1.2.9s.9.3 1.4.3c.8 0 1.6-.1 2.4-.3s1.5-.5 2.2-.9c.7-.4 1.4-.9 2-1.4s1.2-1.1 1.7-1.7c.5-.6 1-1.2 1.4-1.9.4-.7.8-1.3 1.1-2 .3-.6.5-1.4.7-2.2.2-.8.3-1.7.3-2.5 0-.4 0-.7-.1-1 0-.3-.1-.7-.2-1-.1-.3-.3-.6-.6-1-.3-.3-.7-.7-1.2-1-.5-.3-1-.6-1.7-.8-.4 0-1.1-.1-2-.1zM201.1 66c0 .3-.1.5-.3.8s-.4.4-.7.6c-.2.1-.5.2-.7.3-.3.1-.6.1-.8.1-.6 0-1.3-.1-1.9-.4s-1.3-.6-2-1.1c-.4-.2-.8-.6-1.4-.9-.5-.4-1.2-.9-1.9-1.4-.2-.1-.5-.4-1-.8s-1.2-.9-2-1.6c-.8-.6-1.4-1.1-1.9-1.4-.5-.3-.7-.5-.8-.6-.1-.1-.3-.1-.4-.1H183c-.7-.5-1-1.1-1-1.9 0-.4.1-.7.3-1s.4-.4.8-.5h.9c.3 0 .6 0 .9-.1s.6-.2.8-.3c.3-.1.5-.2.8-.4.3-.1.5-.3.7-.4.3-.2.7-.4 1.1-.6.4-.2.7-.5 1.1-.7.3-.2.7-.5 1-.7l.9-.9c.2-.2.4-.5.5-.7.1-.3.2-.5.2-.7 0-.4-.1-.7-.4-1.1s-.5-.7-.9-.9c-.4-.3-.8-.5-1.2-.7-.4-.2-.8-.4-1.2-.5-.7-.2-1.5-.3-2.2-.3h-.8s-.7.1-1.1.1c-.4 0-.7.1-1.1.1-.3 0-.7.1-1 .1h-.7c-.1 0-.2 0-.3.1-.1 0-.3.1-.5.1.1.2.2.4.2.6s.1.5.2.7c.1.4.2.8.2 1.2v2.7c0 .6-.1 1.1-.2 1.7-.1.6-.2 1.3-.4 2.2-.1.8-.2 1.4-.3 2-.1.6-.2 1.1-.2 1.6-.1.4-.1.8-.1 1.3v2.2s.1.6.2.9c.1.3.2.6.3.8.1.3.3.6.5.9-.1.2-.2.3-.4.5s-.3.3-.5.4l-.6.3c-.2.1-.4.1-.5.1-.9 0-1.5-.2-1.9-.5-.5-.4-.7-.8-.8-1.4-.1-.3-.1-.5-.1-.9v-1.1c0-.6 0-1.2.1-1.7s.1-.9.2-1.4c.1-.4.1-.9.2-1.3.1-.2.1-.4.1-.5 0-.2.1-.4.1-.5 0-.2.1-.4.1-.6s.1-.5.1-.8c.1-.9.3-1.7.3-2.5s.1-1.6.1-2.2v-1.6c0-.6-.1-1.2-.1-1.8-.3.1-.6.2-.9.2-.2 0-.4.1-.5.1-.6 0-.9-.1-1.1-.4-.2-.3-.3-.7-.3-1.2 0-.6.5-1.1 1.4-1.5.4-.2.8-.3 1.1-.5.4-.2.8-.3 1.1-.4.4-.1.9-.3 1.5-.4s1.2-.2 1.9-.3c.7-.1 1.3-.2 1.9-.2s1.1-.1 1.6-.1c1.6 0 3.2.2 4.7.6.8.2 1.5.5 2.2.8s1.3.8 1.8 1.2c1.2 1 1.7 2.4 1.7 4 0 1.1-.4 2.1-1.2 3.2-.7.9-1.5 1.6-2.4 2.2s-1.9 1.3-3 1.8c.3.2.7.5 1 .7s.7.5 1.1.8c.6.4 1.1.8 1.7 1.2.5.4 1 .7 1.4 1s.9.7 1.5 1c.5.4 1.1.8 1.8 1.2.6.4 1.2.8 1.7 1.1.5.3 1 .6 1.3.8l.7.2z"/><path class="st0" d="M227.5 65.5c0 .3-.1.5-.2.8-.1.2-.2.4-.4.6-.2.2-.4.3-.6.4-.3.1-.5.2-.8.2-.3 0-.5-.1-.8-.3s-.5-.4-.7-.7c-.2-.3-.5-.6-.7-.9-.2-.3-.4-.7-.6-1-.2-.3-.3-.7-.5-1s-.3-.6-.3-.8c-.1-.3-.2-.6-.4-.8s-.2-.6-.4-1c-.1-.2-.1-.4-.2-.5 0-.1-.1-.2-.1-.2 0-.1 0-.1-.1-.1 0 0 0-.1-.1-.2-.2.1-.4.2-.7.2h-.8c-.1 0-.1 0-.3.1s-.3.1-.4.1c-.2.1-.3.1-.5.2s-.3.1-.5.2c-.5.1-1.1.3-1.7.4s-1.2.2-1.9.3c-.7.1-1.3.2-2 .3l-2.1.3c-.1 0-.1 0-.2.1l-.2.2c-.1.1-.2.3-.4.6s-.5.7-.8 1.2c-.4.6-.8 1.1-1.2 1.5-.4.4-.7.8-1 1.1-.3.3-.6.5-1 .7-.3.2-.7.2-1.1.2-.5 0-.9-.1-1.3-.2s-.7-.3-1-.5c-.3-.2-.5-.4-.6-.6-.1-.2-.2-.4-.2-.6 0-.4.2-.6.5-.8.3-.1.7-.3 1.3-.4l.2-.2c.1-.2.3-.3.4-.5.2-.2.3-.4.5-.6.2-.2.3-.3.3-.4.4-.6.9-1.2 1.3-1.8.5-.6 1-1.4 1.5-2.2.3-.4.5-.7.7-1 .2-.3.3-.5.5-.8s.3-.5.5-.7c.2-.2.4-.6.7-.9.7-.9 1.2-1.7 1.7-2.4.5-.6.9-1.2 1.2-1.6.4-.6.8-1.2 1.1-1.7.2-.2.3-.5.4-.7.1-.2.3-.5.4-.7l.3-.6c.1-.2.2-.4.2-.5 1.3-3.1 2.4-4.7 3.3-4.7.4 0 .7 0 1 .1s.4.2.6.3c.1.1.2.3.3.6 0 .2.1.5.1.9V46.8c.3.5.5 1.1.8 1.7.2.6.5 1.2.7 1.7 0 .1.1.4.3.8.1.4.3.9.5 1.5s.4 1.1.6 1.8l.6 1.8c.2.5.4 1 .5 1.4.1.4.2.6.3.8.1.6.5 1.6 1.2 3 .1.2.2.3.2.5.1.1.1.3.2.4.1.1.2.3.3.5s.3.4.5.7c.7.8 1.1 1.6 1.1 2.1zm-10.8-8.2c.5-.1 1-.2 1.4-.4.5-.1.9-.3 1.4-.4-.2-.5-.3-1.1-.5-1.6s-.4-1.1-.6-1.7c-.2-.6-.4-1.1-.6-1.6l-.6-1.5c-.9 1.2-1.8 2.6-2.7 3.9-.9 1.4-1.8 2.8-2.6 4.2.3 0 .7-.1 1-.1.4 0 .6-.1.9-.1.3-.1.5-.2.8-.2.2-.1.5-.1.7-.2.2-.1.5-.1.7-.2.1.1.4 0 .7-.1zM258.9 43c0 .2 0 .3-.1.4 0 .1-.1.2-.2.3s-.1.2-.2.4-.2.4-.2.7c-.1.3-.1.6-.2.8-.1.2-.1.4-.2.6 0 .2-.1.4-.1.6V48.9s-.1 1-.1 1.5-.1 1-.2 1.6c-.1.6-.1 1.2-.2 1.8-.1.9-.2 1.9-.3 2.9s-.2 2.1-.2 3.2v2.2c0 .4 0 .9.1 1.3 0 .5.1.9.1 1.3l.1.1s.1.1.2.1c.4.2.7.5.8.6s.3.4.3.7c0 .2-.1.5-.2.7-.1.3-.3.5-.6.7-.2.2-.5.4-.8.5-.3.1-.6.2-.9.2-.6 0-1.1-.2-1.5-.6s-.7-.9-1-1.5c-.2-.6-.4-1.3-.5-2-.1-.7-.1-1.5-.1-2.2v-.6c0-.3 0-.8.1-1.4.1-.6.1-1.3.2-2.1s.2-1.6.3-2.5c.1-.9.2-1.7.4-2.6.1-.8.2-1.6.4-2.4.1-.7.2-1.3.3-1.8-.1.2-.3.4-.5.7-.2.3-.5.6-.8 1l-.9 1.2-.9 1.2c-.3.4-.6.8-.8 1.1-.3.4-.5.7-.7.9-.4.6-.8 1.1-1.2 1.7-.4.5-.8 1.1-1.2 1.7l-.2.2c-.1.1-.1.2-.2.4s-.2.3-.3.4-.2.2-.2.3c-.8 1-1.6 1.6-2.5 1.9-.6-.2-1-.4-1.4-.6-.3-.2-.6-.4-.9-.7s-.4-.5-.6-.8c-.2-.3-.3-.6-.5-1s-.4-.7-.6-1-.3-.6-.5-.8c-.3-.5-.5-1-.8-1.6s-.5-1.1-.7-1.7c-.2-.5-.3-.9-.4-1.2-.1-.3-.2-.7-.3-1l-.3-.9c-.1-.3-.2-.7-.3-1.1 0 .1-.1.3-.1.5s-.1.6-.2 1.1-.2.9-.3 1.4-.2 1.1-.4 1.6-.2 1.1-.3 1.6c-.1.5-.2 1-.3 1.4-.1.4-.2.8-.2 1-.1.3-.1.4-.1.5-.2.9-.3 1.7-.3 2.4v3.7c0 .2 0 .4-.1.6s-.2.5-.4.7l-.6.6c-.2.2-.5.2-.7.2h-.9s-.5-.1-.7-.2c-.2-.1-.4-.2-.5-.4-.1-.2-.3-.4-.4-.7 0-.1-.1-.2-.1-.3 0-.1 0-.3-.1-.4v-.6-1c0-.1 0-.4.1-.7.1-.4.2-.8.3-1.3.1-.5.3-1 .4-1.6.1-.6.3-1.2.5-1.7.2-.6.3-1.1.4-1.6.1-.5.2-.9.3-1.2.1-.5.3-1.1.5-1.7s.3-1.2.5-1.8c.2-.6.3-1.2.5-1.8.2-.6.3-1.1.4-1.7.1-.5.1-.9.2-1.2l.3-.9c.1-.3.2-.6.4-.9.2-.3.3-.5.6-.7.2-.2.5-.3.8-.3.9 0 1.6.1 2.1.3.5.2.9.5 1.3.9.3.4.6.9.8 1.6.2.6.4 1.4.6 2.3.1.2.1.5.2.7s.2.4.2.6c.4 1.1.8 2.2 1.3 3.3.5 1.1 1.1 2.2 1.8 3.3.3-.2.5-.5.8-.9.2-.3.5-.8.8-1.3.2-.4.5-.9.7-1.2.3-.4.5-.8.9-1.1.1-.1.3-.4.6-.7s.6-.7.9-1.1c.3-.4.7-.9 1.1-1.3s.7-.9 1.1-1.3.6-.8.9-1.1.4-.6.5-.7c.1-.1.2-.3.3-.3.1-.1.1-.2.2-.3.1-.2.3-.4.6-.8s.5-.7.8-1.1c.3-.4.6-.8.9-1.1.3-.4.5-.6.6-.8.2-.2.4-.3.9-.3.2 0 .5.1.7.2s.5.3.7.5c.2.2.4.4.5.6-.2.4-.1.5-.1.6zM288.3 65.5c0 .3-.1.5-.2.8-.1.2-.2.4-.4.6-.2.2-.4.3-.6.4-.3.1-.5.2-.8.2-.3 0-.5-.1-.8-.3s-.5-.4-.7-.7c-.2-.3-.5-.6-.7-.9-.2-.3-.4-.7-.6-1-.2-.3-.3-.7-.5-1s-.3-.6-.3-.8c-.1-.3-.2-.6-.4-.8s-.2-.6-.4-1c-.1-.2-.1-.4-.2-.5 0-.1-.1-.2-.1-.2 0-.1 0-.1-.1-.1 0 0 0-.1-.1-.2-.2.1-.4.2-.7.2h-.8c-.1 0-.1 0-.3.1s-.3.1-.4.1c-.2.1-.3.1-.5.2s-.3.1-.5.2c-.5.1-1.1.3-1.7.4s-1.2.2-1.9.3c-.7.1-1.3.2-2 .3l-2.1.3c-.1 0-.1 0-.2.1l-.2.2c-.1.1-.2.3-.4.6s-.5.7-.8 1.2c-.4.6-.8 1.1-1.2 1.5-.4.4-.7.8-1 1.1-.3.3-.6.5-1 .7-.3.2-.7.2-1.1.2-.5 0-.9-.1-1.3-.2s-.7-.3-1-.5c-.3-.2-.5-.4-.6-.6-.1-.2-.2-.4-.2-.6 0-.4.2-.6.5-.8.3-.1.7-.3 1.3-.4l.2-.2c.1-.2.3-.3.4-.5.2-.2.3-.4.5-.6.2-.2.3-.3.3-.4.4-.6.9-1.2 1.3-1.8.5-.6 1-1.4 1.5-2.2.3-.4.5-.7.7-1 .2-.3.3-.5.5-.8s.3-.5.5-.7c.2-.2.4-.6.7-.9.7-.9 1.2-1.7 1.7-2.4.5-.6.9-1.2 1.2-1.6.4-.6.8-1.2 1.1-1.7.2-.2.3-.5.4-.7.1-.2.3-.5.4-.7l.3-.6c.1-.2.2-.4.2-.5 1.3-3.1 2.4-4.7 3.3-4.7.4 0 .7 0 1 .1s.4.2.6.3c.1.1.2.3.3.6 0 .2.1.5.1.9V46.8c.3.5.5 1.1.8 1.7.2.6.5 1.2.7 1.7 0 .1.1.4.3.8.1.4.3.9.5 1.5s.4 1.1.6 1.8l.6 1.8c.2.5.4 1 .5 1.4.1.4.2.6.3.8.1.6.5 1.6 1.2 3 .1.2.2.3.2.5.1.1.1.3.2.4.1.1.2.3.3.5s.3.4.5.7c.7.8 1.1 1.6 1.1 2.1zm-10.8-8.2c.5-.1 1-.2 1.4-.4.5-.1.9-.3 1.4-.4-.2-.5-.3-1.1-.5-1.6s-.4-1.1-.6-1.7c-.2-.6-.4-1.1-.6-1.6l-.6-1.5c-.9 1.2-1.8 2.6-2.7 3.9-.9 1.4-1.8 2.8-2.6 4.2.3 0 .7-.1 1-.1.4 0 .6-.1.9-.1.3-.1.5-.2.8-.2.2-.1.5-.1.7-.2.2-.1.5-.1.7-.2.1.1.4 0 .7-.1z"/></svg>