<svg id="Слой_1" xmlns="http://www.w3.org/2000/svg" viewBox="0 0 270 75"><style>.st0{enable-background:new ;} .st1{fill:#405261;}</style><g class="st0"><path class="st1" d="M18.3 16.6c-.7 3.1-1.3 6.3-1.7 9.6-.5 3.3-.9 6.5-1.2 9.8.8 0 1.5.1 2.2.1h5c1.5 0 2.7-.1 3.6-.3.1.3.1.5.2.8 0 .2.1.4.1.6 0 .7-.3 1.2-.9 1.4-.6.2-1.5.3-2.6.3s-2.3-.1-3.6-.2c-1.3-.1-2.8-.3-4.4-.4-.2 1.7-.3 3.4-.5 5.1-.1 1.7-.2 3.2-.3 4.7s-.1 2.8-.2 4.1v3.3c0 1.7.1 3.3.3 4.7.2 1.4.5 2.5 1 3.5s1.1 1.7 1.9 2.2c.8.5 1.8.8 3 .8.9 0 1.9-.2 2.9-.5 1.1-.3 2.3-.8 3.7-1.5.4.4.7 1 .8 1.6-1 .7-2 1.3-3.1 1.8-1 .5-2 1-3 1.4-1 .4-2 .7-2.9.9-.9.2-1.8.3-2.6.3-1.1 0-2.1-.2-3-.6-.9-.4-1.7-1.1-2.3-2.1-.7-1-1.2-2.4-1.5-4.1-.4-1.7-.5-3.9-.5-6.5 0-1.5 0-3 .1-4.6 0-1.6.1-3.2.2-4.8l.3-4.8c.1-1.6.3-3.2.4-4.8-1.3 0-2.5.1-3.6.2s-2 .2-2.8.4c0-.1-.1-.2-.1-.3 0-.3.2-.7.5-1 .3-.3.8-.6 1.4-.8.6-.2 1.3-.4 2.1-.6.8-.2 1.7-.3 2.7-.3.4-3.4.8-6.6 1.2-9.6.4-3 .8-5.7 1.3-8.1.1-.4.2-.8.5-1 .2-.3.5-.5.8-.7.3-.2.6-.3 1-.3.3-.1.7-.1 1-.1.5 0 1 .1 1.5.2.3-.1.7 0 1.1.2zM54.2 61.8c.1 0 .2.1.4.2s.3.2.4.3l.3.3c.1.1.1.2.1.4 0 .1 0 .1-.1.2-.9 1.3-1.9 2.4-2.9 3.3-1 .9-2.1 1.7-3.3 2.3-1.1.6-2.3 1.1-3.5 1.4-1.2.3-2.3.5-3.5.5-2 0-3.7-.4-5.4-1.2-1.6-.8-3-1.9-4.2-3.3-1.2-1.4-2.1-3-2.7-4.9-.7-1.9-1-3.9-1-6 0-1.7.2-3.5.6-5.2.4-1.7.9-3.4 1.7-5 .7-1.6 1.6-3 2.6-4.4 1-1.4 2.2-2.5 3.6-3.5 1.3-1 2.8-1.8 4.4-2.4 1.6-.6 3.3-.9 5.1-.9 1.2 0 2.4.2 3.4.5 1.1.3 2 .8 2.9 1.4.8.6 1.5 1.4 2 2.3.5.9.7 1.9.7 3.1 0 1.7-.5 3.1-1.6 4.3-1.1 1.2-2.6 2.3-4.5 3.1-1.9.9-4.1 1.6-6.7 2.1-2.6.5-5.4.9-8.4 1.2v.4c0 2.1.3 4 .8 5.7.5 1.7 1.3 3.2 2.2 4.4.9 1.2 2 2.2 3.3 2.9 1.3.7 2.6 1 4.1 1 1.5 0 3-.4 4.5-1.1 1.5-.5 3.1-1.7 4.7-3.4zm-4.6-19.6c0-.7-.1-1.4-.4-2.1-.3-.7-.6-1.2-1.1-1.7-.4-.5-1-.9-1.6-1.1-.6-.3-1.3-.4-2-.4-1.1 0-2 .2-2.9.6-.9.4-1.6.9-2.3 1.5-.7.6-1.3 1.4-1.8 2.2-.5.9-1 1.8-1.3 2.7-.4 1-.7 1.9-.9 3-.2 1-.4 2-.5 3 2.3-.2 4.4-.4 6.2-.8 1.8-.4 3.4-.9 4.6-1.5 1.3-.6 2.2-1.4 2.9-2.2.8-1 1.1-2 1.1-3.2zM60 36.7c1.1-.4 2.2-.7 3.2-1 1-.3 1.9-.6 2.8-.8.8-.2 1.6-.4 2.2-.5.6-.1 1.1-.2 1.4-.2.5 0 1 .1 1.4.2.4.1.9.4 1.3.9.4.4.8 1 1.2 1.8.4.7.8 1.7 1.2 2.9.5 1.4 1 2.8 1.5 4.1.5 1.3 1 2.6 1.4 3.8 1-2.1 2.1-4 3.1-5.7 1-1.7 2.1-3.2 3.1-4.3 1-1.2 2.1-2.1 3.2-2.8 1.1-.7 2.2-1 3.3-1 .7 0 1.4.1 1.9.3.6.2 1 .5 1.4.9.4.4.7.8.9 1.3.2.5.3 1 .3 1.5 0 .7-.2 1.4-.5 2-.3.7-.9 1.2-1.6 1.7h-.2c-.3-.4-.6-.6-.9-.9-.3-.2-.6-.4-1-.5-.3-.1-.6-.2-1-.2-.3 0-.6-.1-.9-.1-1 0-1.9.3-2.8.8-.9.5-1.7 1.3-2.6 2.3-.8 1-1.6 2.1-2.4 3.4-.8 1.3-1.6 2.8-2.4 4.3.8 2.1 1.5 3.9 2.1 5.5.6 1.6 1.2 3 1.8 4.1.6 1.2 1.1 2.1 1.7 2.9s1.1 1.4 1.6 1.9c.6.5 1.1.8 1.7 1 .6.2 1.3.3 2 .3h1.4c.4 0 .8-.1 1.2-.2.4-.1.8-.2 1.3-.3.4-.1.9-.3 1.5-.5l.5 1.4c-.8.5-1.6 1-2.5 1.5-.9.4-1.8.8-2.7 1.1-.9.3-1.8.6-2.7.7-.9.2-1.7.3-2.4.3-1.1 0-2-.3-2.8-.8-.8-.5-1.6-1.3-2.4-2.4-.8-1.1-1.5-2.5-2.3-4.3-.8-1.7-1.6-3.8-2.5-6.3-1.2 2.1-2.3 3.9-3.4 5.6-1.1 1.7-2.3 3.2-3.4 4.4-1.1 1.2-2.3 2.2-3.4 2.9-1.1.7-2.3 1-3.5 1-.7 0-1.3-.1-1.9-.3s-1-.5-1.3-.8c-.4-.3-.6-.7-.8-1.1-.2-.4-.3-.9-.3-1.4 0-.6.1-1.1.4-1.7.2-.6.6-1.1 1.1-1.6.9.3 1.7.6 2.4.7.7.1 1.3.2 1.9.2 1 0 2-.3 3-.8s1.9-1.3 2.8-2.2c.9-1 1.8-2.1 2.7-3.5.9-1.4 1.8-2.9 2.7-4.5l-.9-2.4c-.3-.8-.6-1.7-1-2.6-.3-.9-.7-1.9-1.1-2.9-.4-1-.8-2.1-1.2-3.3-.4-1-.7-1.8-1.1-2.4-.4-.6-.8-1.1-1.2-1.5-.4-.4-.9-.6-1.3-.7-.5-.1-1-.2-1.6-.2-.5 0-1.1.1-1.8.2s-1.5.3-2.3.5l-.5-1.7zM111.4 16.6c-.7 3.1-1.3 6.3-1.7 9.6-.5 3.3-.9 6.5-1.2 9.8.8 0 1.5.1 2.2.1h5c1.5 0 2.7-.1 3.6-.3.1.3.1.5.2.8 0 .2.1.4.1.6 0 .7-.3 1.2-.9 1.4-.6.2-1.5.3-2.6.3s-2.3-.1-3.6-.2c-1.3-.1-2.8-.3-4.4-.4-.2 1.7-.3 3.4-.5 5.1-.1 1.7-.2 3.2-.3 4.7-.1 1.5-.1 2.8-.2 4.1v3.3c0 1.7.1 3.3.3 4.7.2 1.4.5 2.5 1 3.5s1.1 1.7 1.9 2.2c.8.5 1.8.8 3 .8.9 0 1.9-.2 2.9-.5 1.1-.3 2.3-.8 3.7-1.5.4.4.7 1 .8 1.6-1 .7-2 1.3-3.1 1.8-1 .5-2 1-3 1.4-1 .4-2 .7-2.9.9-.9.2-1.8.3-2.6.3-1.1 0-2.1-.2-3-.6-.9-.4-1.7-1.1-2.3-2.1-.7-1-1.2-2.4-1.5-4.1-.4-1.7-.5-3.9-.5-6.5 0-1.5 0-3 .1-4.6 0-1.6.1-3.2.2-4.8l.3-4.8c.1-1.6.3-3.2.4-4.8-1.3 0-2.5.1-3.6.2s-2 .2-2.8.4c0-.1-.1-.2-.1-.3 0-.3.2-.7.5-1 .3-.3.8-.6 1.4-.8.6-.2 1.3-.4 2.1-.6.8-.2 1.7-.3 2.7-.3.4-3.4.8-6.6 1.2-9.6.4-3 .8-5.7 1.3-8.1.1-.4.2-.8.5-1 .2-.3.5-.5.8-.7.3-.2.6-.3 1-.3.3-.1.7-.1 1-.1.5 0 1 .1 1.5.2.4-.1.8 0 1.1.2zM132.7 35.1c-.3 1.9-.5 3.7-.7 5.6-.2 1.9-.4 3.7-.5 5.4-.1 1.7-.2 3.4-.3 4.9-.1 1.6-.1 3-.1 4.2 0 1.7 0 3.1.1 4.4 0 1.2.1 2.2.2 3.1.1.8.3 1.5.4 2 .2.5.4.9.6 1.1.3.3.5.4.9.5.3.1.7.1 1.1.1.8 0 1.6-.1 2.5-.4.9-.2 1.8-.6 2.7-1l.5 1.3c-.6.5-1.3 1-2.2 1.4-.9.5-1.8.9-2.8 1.3-1 .4-1.9.7-2.9 1-.9.3-1.7.4-2.4.4-.5 0-.9 0-1.2-.1-.4-.1-.7-.3-1-.5-.3-.3-.6-.7-.8-1.3-.2-.6-.4-1.3-.6-2.3-.2-1-.3-2.2-.4-3.7-.1-1.5-.1-3.2-.1-5.3v-4.1c0-1.5.1-3.2.1-5 0-1.8.1-3.6.2-5.6.1-2 .2-4 .3-6.1 0-.5.2-.8.4-1.1.2-.3.5-.5.8-.7.3-.2.6-.3 1-.3.3-.1.7-.1 1-.1 1.2.1 2.2.4 3.2.9zM130.6 24c-.6 0-1.1-.1-1.5-.4-.4-.2-.8-.5-1.1-.9-.3-.4-.5-.8-.7-1.3-.2-.5-.2-1-.2-1.5 0-.7.1-1.4.4-1.9s.6-1 1-1.4c.4-.4.8-.7 1.3-.9.5-.2.9-.3 1.4-.3.6 0 1 .1 1.5.3.4.2.8.5 1.1.8.3.4.6.8.7 1.2.2.5.3 1 .3 1.5 0 .6-.1 1.1-.3 1.7-.2.6-.5 1.1-.8 1.5-.4.5-.8.8-1.3 1.1-.7.4-1.2.5-1.8.5zM154.2 3.9c-.3 2.8-.6 5.6-1 8.5-.3 2.9-.6 5.8-.9 8.8-.3 3-.5 6-.8 8.9-.2 3-.5 5.9-.6 8.8-.2 2.9-.3 5.8-.4 8.6-.1 2.8-.1 5.5-.1 8.1 0 1.6 0 3 .1 4.2 0 1.2.1 2.1.2 2.9.1.8.2 1.4.4 1.9s.3.9.6 1.1c.2.3.5.4.8.5.3.1.7.1 1.1.1.8 0 1.6-.1 2.5-.4.9-.2 1.8-.6 2.7-1l.5 1.3c-.6.5-1.3 1-2.2 1.4s-1.8.9-2.8 1.3-1.9.7-2.9 1c-.9.3-1.7.4-2.4.4-.9 0-1.6-.2-2.1-.7-.5-.4-.9-1.2-1.2-2.2-.3-1-.4-2.3-.5-3.9-.1-1.6-.1-3.6-.1-5.9 0-.8 0-2.1.1-3.6 0-1.6.1-3.4.2-5.5s.2-4.4.3-6.8c.1-2.5.2-5 .4-7.7.1-2.6.3-5.3.4-8 .1-2.7.3-5.3.4-7.8.1-2.5.3-4.9.4-7.1.1-2.2.3-4.2.4-5.9 0-.4.1-.7.3-1 .2-.3.5-.5.8-.7.3-.2.7-.3 1.1-.4.4-.1.8-.1 1.3-.1.9.1 2 .4 3 .9zM173.6 3.9c-.3 2.8-.6 5.6-1 8.5-.3 2.9-.6 5.8-.9 8.8-.3 3-.6 6-.8 8.9-.2 3-.5 5.9-.6 8.8-.2 2.9-.3 5.8-.4 8.6-.1 2.8-.1 5.5-.1 8.1 0 1.6 0 3 .1 4.2 0 1.2.1 2.1.2 2.9.1.8.2 1.4.4 1.9s.3.9.6 1.1c.2.3.5.4.8.5.3.1.7.1 1.1.1.8 0 1.6-.1 2.5-.4.9-.2 1.8-.6 2.7-1l.5 1.3c-.6.5-1.3 1-2.2 1.4-.9.5-1.8.9-2.8 1.3s-1.9.7-2.9 1c-.9.3-1.7.4-2.4.4-.9 0-1.6-.2-2.1-.7-.5-.4-.9-1.2-1.2-2.2-.3-1-.4-2.3-.5-3.9-.1-1.6-.1-3.6-.1-5.9 0-.8 0-2.1.1-3.6 0-1.6.1-3.4.2-5.5s.2-4.4.3-6.8c.1-2.5.2-5 .4-7.7.1-2.6.3-5.3.4-8 .1-2.7.3-5.3.4-7.8.1-2.5.3-4.9.4-7.1.1-2.2.3-4.2.4-5.9 0-.4.1-.7.3-1 .2-.3.5-.5.8-.7s.7-.3 1.1-.4c.4-.1.8-.1 1.3-.1.9.1 1.9.4 3 .9zM201.4 44.3c0-1.3-.2-2.4-.6-3.3-.4-.9-1-1.7-1.7-2.3-.7-.6-1.5-1-2.3-1.3s-1.7-.4-2.6-.4c-1.2 0-2.1.1-2.9.4s-1.4.6-1.9 1-.9.9-1.1 1.5c-.2.6-.3 1.2-.3 1.9 0 .8.1 1.6.4 2.4.3.8.7 1.6 1.3 2.3l-.1.3c-.9.5-1.9.7-2.8.7-.6 0-1.1-.1-1.6-.3-.5-.2-.9-.4-1.2-.7-.3-.3-.6-.7-.8-1.2-.2-.5-.3-1-.3-1.6 0-1 .2-1.9.7-2.7.5-.8 1.1-1.6 1.8-2.3.8-.7 1.7-1.3 2.7-1.9 1-.6 2.1-1 3.1-1.4 1.1-.4 2.2-.7 3.2-.9 1.1-.2 2.1-.3 3-.3 1.7 0 3.2.2 4.4.7 1.2.5 2.2 1.1 3 2 .8.9 1.3 1.9 1.7 3.2.3 1.2.5 2.6.5 4.2 0 1.1 0 2.3-.1 3.5-.1 1.3-.2 2.6-.3 4-.1 1.4-.2 2.9-.3 4.4-.1 1.5-.1 3-.1 4.5 0 2.3.4 4.1 1.3 5.3.9 1.2 2 1.8 3.4 1.8 1.3 0 2.7-.5 4.2-1.4l.7 1c-1.1 1.1-2.3 1.9-3.6 2.5s-2.6.9-4.1.9c-1.1 0-2-.2-2.9-.5-.9-.4-1.7-.9-2.3-1.6-.7-.7-1.2-1.6-1.5-2.7-.4-1.1-.5-2.3-.5-3.7V61c0-.4.1-.9.2-1.3h-.1c-.7 1.4-1.5 2.8-2.4 4.1-.9 1.4-1.9 2.6-3 3.6-1.1 1.1-2.3 1.9-3.5 2.6-1.2.7-2.6 1-3.9 1-1.1 0-2.1-.2-3.1-.6s-1.7-.9-2.4-1.6c-.7-.7-1.2-1.5-1.5-2.4-.4-.9-.5-2-.5-3.1 0-1.4.3-2.7.8-3.9.5-1.2 1.3-2.2 2.2-3.1.9-.9 2.1-1.7 3.4-2.4 1.3-.7 2.7-1.2 4.2-1.7 1.5-.4 3.2-.8 4.9-1 1.7-.2 3.4-.3 5.2-.3l.3-3c-.3-1.4-.3-2.4-.3-3.6zm-15 16.8c0 .6.1 1.2.2 1.8.1.6.4 1.1.7 1.5.3.4.7.8 1.1 1 .5.3 1 .4 1.7.4s1.5-.2 2.3-.5 1.5-.8 2.3-1.4c.8-.6 1.5-1.3 2.2-2.2.7-.8 1.3-1.8 1.9-2.7.6-1 1-2 1.4-3.1.4-1.1.6-2.2.7-3.4-1.2 0-2.4.1-3.6.2-1.2.1-2.3.3-3.4.6s-2.1.6-3 1c-.9.4-1.7.9-2.4 1.6-.7.6-1.2 1.4-1.6 2.2-.3.9-.5 1.9-.5 3zM229.4 16.6c-.7 3.1-1.3 6.3-1.7 9.6-.5 3.3-.9 6.5-1.2 9.8.8 0 1.5.1 2.2.1h5c1.5 0 2.7-.1 3.6-.3.1.3.1.5.2.8 0 .2.1.4.1.6 0 .7-.3 1.2-.9 1.4-.6.2-1.5.3-2.6.3s-2.3-.1-3.6-.2c-1.3-.1-2.8-.3-4.4-.4-.2 1.7-.3 3.4-.5 5.1-.1 1.7-.2 3.2-.3 4.7-.1 1.5-.1 2.8-.2 4.1v3.3c0 1.7.1 3.3.3 4.7s.5 2.5 1 3.5 1.1 1.7 1.9 2.2c.8.5 1.8.8 3 .8.9 0 1.9-.2 2.9-.5 1.1-.3 2.3-.8 3.7-1.5.4.4.7 1 .8 1.6-1 .7-2 1.3-3.1 1.8-1 .5-2 1-3 1.4s-2 .7-2.9.9c-.9.2-1.8.3-2.6.3-1.1 0-2.1-.2-3-.6-.9-.4-1.7-1.1-2.3-2.1-.7-1-1.2-2.4-1.5-4.1-.4-1.7-.6-3.9-.6-6.5 0-1.5 0-3 .1-4.6 0-1.6.1-3.2.2-4.8l.3-4.8s.3-3.2.4-4.8c-1.3 0-2.5.1-3.6.2s-2 .2-2.8.4c0-.1-.1-.2-.1-.3 0-.3.2-.7.5-1 .3-.3.8-.6 1.4-.8.6-.2 1.3-.4 2.1-.6.8-.2 1.7-.3 2.7-.3.4-3.4.8-6.6 1.2-9.6.4-3 .8-5.7 1.3-8.1.1-.4.2-.8.5-1 .2-.3.5-.5.8-.7.3-.2.6-.3 1-.3.3-.1.7-.1 1-.1.5 0 1 .1 1.5.2.4-.1.8 0 1.2.2zM265.3 61.8c.1 0 .2.1.4.2s.3.2.4.3l.3.3c.1.1.1.2.1.4 0 .1 0 .1-.1.2-.9 1.3-1.9 2.4-2.9 3.3-1 .9-2.1 1.7-3.3 2.3-1.1.6-2.3 1.1-3.5 1.4-1.2.3-2.3.5-3.5.5-2 0-3.7-.4-5.4-1.2-1.6-.8-3-1.9-4.2-3.3-1.2-1.4-2.1-3-2.7-4.9-.7-1.9-1-3.9-1-6 0-1.7.2-3.5.6-5.2.4-1.7.9-3.4 1.7-5 .7-1.6 1.6-3 2.6-4.4 1-1.4 2.2-2.5 3.6-3.5 1.3-1 2.8-1.8 4.4-2.4 1.6-.6 3.3-.9 5.1-.9 1.2 0 2.4.2 3.4.5 1.1.3 2 .8 2.9 1.4.8.6 1.5 1.4 2 2.3.5.9.7 1.9.7 3.1 0 1.7-.5 3.1-1.6 4.3-1.1 1.2-2.6 2.3-4.5 3.1-1.9.9-4.1 1.6-6.7 2.1-2.6.5-5.4.9-8.4 1.2v.4c0 2.1.3 4 .8 5.7.5 1.7 1.3 3.2 2.2 4.4.9 1.2 2 2.2 3.3 2.9 1.3.7 2.6 1 4.1 1 1.5 0 3-.4 4.5-1.1 1.6-.5 3.1-1.7 4.7-3.4zm-4.6-19.6c0-.7-.1-1.4-.4-2.1-.3-.7-.6-1.2-1.1-1.7-.4-.5-1-.9-1.6-1.1-.6-.3-1.3-.4-2-.4-1.1 0-2 .2-2.9.6-.9.4-1.6.9-2.3 1.5-.7.6-1.3 1.4-1.8 2.2-.5.9-1 1.8-1.3 2.7-.4 1-.7 1.9-.9 3-.2 1-.4 2-.5 3 2.3-.2 4.4-.4 6.2-.8 1.8-.4 3.4-.9 4.6-1.5 1.3-.6 2.2-1.4 2.9-2.2.8-1 1.1-2 1.1-3.2z"/></g></svg>