<?xml version="1.0" encoding="utf-8"?>
<!-- Generator: Adobe Illustrator 22.1.0, SVG Export Plug-In . SVG Version: 6.00 Build 0)  -->
<svg version="1.1" id="Слой_1" xmlns="http://www.w3.org/2000/svg" xmlns:xlink="http://www.w3.org/1999/xlink" x="0px" y="0px"
	 viewBox="0 0 244 38" enable-background="new 0 0 244 38" xml:space="preserve">
<g>
	<g>
		<path fill="#428AFF" d="M0.1,7.3c2.8,0.4,4.2,0.5,7,0.8c0-2.6,0-3.9,0-6.5C9,1.1,10,0.8,11.8,0.2c0,3.4,0,5.1,0,8.5
			c6.3,0.6,9.5,0.9,15.8,1.2c0,2.1,0,3.1,0,5.1c-6.3-0.5-9.5-0.9-15.8-1.8c0,6.4,0,9.4,0,14.1c0,2.5,0.7,4.3,2.1,5.5
			c1.4,1.2,3.4,1.8,6,1.9c1.8,0.1,3.3-0.1,4.6-0.5c1.3-0.4,2.5-0.8,3.6-1.3c0.6,1,0.9,1.4,1.5,2.3c-1.4,0.6-3,1.2-4.9,1.6
			c-1.9,0.4-3.9,0.6-5.9,0.6c-1.6,0-3.1-0.2-4.5-0.5c-1.4-0.4-2.6-0.9-3.7-1.8c-1.1-0.8-1.9-1.9-2.5-3.3c-0.6-1.4-0.9-3-0.9-4.8
			c0-5.3,0-8.3,0-14.7c-2.8-0.5-4.2-0.7-7-1.2C0.1,9.7,0.1,8.9,0.1,7.3z"/>
		<path fill="#428AFF" d="M48.6,28c-4.6-4.4-6.8-9.5-11.4-17.6c2.4,0.1,3.5,0.1,5.9,0.2c3.4,6.3,5.1,9.3,8.5,14.7
			c3.5-5.3,5.2-8.1,8.7-14.4c2.1,0,3.2,0,5.3,0c-4.6,8-6.8,12.7-11.4,17c4.8,4.7,7.3,6.7,12.1,9.4c-2.3,0-3.4,0-5.7,0
			c-3.8-2.2-5.6-3.6-9.4-7.1c-3.8,3.3-5.7,4.6-9.6,7c-2.1,0-3.2,0-5.4,0C41.3,33.9,43.7,32.4,48.6,28z"/>
		<path fill="#428AFF" d="M70.9,10.8c2.8,0,4.2-0.1,7-0.1c0-3.2,0-4.9,0-8.5c1.9-0.8,2.8-1.2,4.7-2c0,4.4,0,6.5,0,10.3
			c6.3-0.4,9.5-0.7,15.8-1.2c0,1.9,0,2.9,0,4.7c-6.3,0.7-9.5,1-15.8,1.6c0,6.8,0,9.7,0,14.2c0,2.3,0.7,3.7,2.1,4.4
			c1.4,0.8,3.4,1.1,6,1c1.8-0.1,3.3-0.4,4.6-0.9c1.3-0.6,2.5-1.2,3.6-1.9c0.6,1,0.9,1.6,1.5,2.6c-1.4,0.9-3,1.5-4.9,2
			c-1.9,0.5-3.9,0.6-5.9,0.6c-1.6,0-3.1-0.1-4.5-0.3c-1.4-0.2-2.6-0.5-3.7-1c-1.1-0.5-1.9-1.1-2.5-2c-0.6-0.9-0.9-2.1-0.9-3.6
			c0-4.5,0-7.5,0-14.8c-2.8,0.1-4.2,0.2-7,0.2C70.9,14,70.9,13,70.9,10.8z"/>
		<path fill="#428AFF" d="M118.2,33.8c0-1.2,0.4-2.2,1.1-2.9c0.7-0.7,1.7-1.2,2.8-1.3c1.3-0.1,2.2,0.1,3,0.8c0.7,0.7,1.1,1.6,1.1,3
			c0,1.2-0.4,2.2-1.1,3c-0.7,0.8-1.7,1.2-3,1.2c-1.2,0-2.1-0.4-2.8-1.1C118.6,35.7,118.2,34.9,118.2,33.8z"/>
		<path fill="#428AFF" d="M159.9,9.1c2.4,5.3,3.5,8.8,5.9,17.6c0.2,0,0.2,0,0.4,0c1.7-12.5,2.5-17.2,4.2-22.9c1.7,0,2.6,0,4.3,0
			c-3.3,10.4-4.3,21.8-5.8,32.5c-2.1,0-3.2,0-5.3,0c-2.3-10.1-3.4-14.1-5.7-20.7c-0.1,0-0.1,0-0.2,0c-2.4,7.1-3.5,11.5-5.9,20.8
			c-2.1,0-3.2,0-5.3,0.1c-1.8-10.3-3.5-20.7-6.2-30.8c1.8-0.2,2.7-0.2,4.5-0.4c1.9,7.1,2.9,11.2,4.8,22.6c0.1,0,0.2,0,0.4,0
			c2.3-8.5,3.4-12.4,5.7-18.4C157.5,9.4,158.3,9.3,159.9,9.1z"/>
		<path fill="#428AFF" d="M181.7,5.2c1.7-0.6,3.6-1.1,5.7-1.3c2.1-0.2,4.2-0.3,6.3-0.3c2,0,3.6,0.3,4.9,0.7c1.3,0.4,2.3,1,3,1.6
			c0.7,0.7,1.2,1.5,1.5,2.4c0.3,0.9,0.4,1.9,0.4,2.9c0,1.1,0,3.2-0.1,5.3c-0.1,2.1-0.2,4.4-0.2,6.6c0,2.6,0.1,5.2,0.4,7.8
			c1.6,0,2.4,0.1,4,0.1c0,2.2,0,3.3,0,5.5c-3.1,0-4.7,0-7.8,0c-0.2-2.7-0.3-4-0.5-6.5c-0.1,0-0.2,0-0.3,0c-0.2,0.5-0.6,1.1-1.1,1.9
			c-0.5,0.8-1.1,1.6-1.9,2.4c-0.8,0.8-1.7,1.5-2.8,2.1c-1.1,0.6-2.4,0.9-3.9,0.9c-2.9,0-5.2-1.2-6.9-3.5c-1.7-2.3-2.5-5.3-2.5-8.9
			c0-2.8,0.4-4.9,1.3-6.6c0.9-1.7,2.2-3,3.8-3.8c1.7-0.9,3.7-1.4,6-1.6c2.3-0.1,5,0.1,7.9,0.7c0.2-2.2,0.2-3.1,0.1-4
			c-0.1-0.9-0.5-1.6-0.9-2.1c-0.5-0.5-1.2-0.9-2.1-1.1c-0.9-0.2-2-0.3-3.3-0.4c-1.8,0-3.5,0.1-5.1,0.4c-1.6,0.3-3.1,0.7-4.3,1.1
			C182.6,6.6,182.3,6.1,181.7,5.2z M190.4,31.3c1.1,0,2.1-0.2,3.1-0.7c0.9-0.5,1.8-1.1,2.5-1.9s1.3-1.6,1.8-2.5
			c0.5-0.9,0.8-1.7,1.1-2.5c0-2.2,0-3.3,0-5.5c-2-0.5-3.9-0.8-5.7-0.8c-1.7,0-3.2,0.2-4.5,0.7c-1.3,0.5-2.2,1.2-3,2.2
			c-0.7,1-1.1,2.4-1.1,4.1c0,1.8,0.4,3.4,1.3,4.8C186.8,30.5,188.3,31.2,190.4,31.3z"/>
		<path fill="#428AFF" d="M228.5,29.6c0.3,0,0.4,0,0.6,0.1c3.7-11.1,5.5-14.6,9.2-23c2.1,0.2,3.1,0.4,5.1,0.6
			c-4.8,9.6-8.7,19.3-12.4,29.3c-2.1,0-3.1,0-5.1-0.1c-3.4-10.3-6.3-22.9-12.7-32c2.2,0.1,3.3,0.2,5.4,0.3
			C222.6,11.9,224.6,17.8,228.5,29.6z"/>
	</g>
</g>
</svg>
