<?xml version="1.0" encoding="utf-8"?>
<!-- Generator: Adobe Illustrator 22.1.0, SVG Export Plug-In . SVG Version: 6.00 Build 0)  -->
<svg version="1.1" id="Слой_1" xmlns="http://www.w3.org/2000/svg" xmlns:xlink="http://www.w3.org/1999/xlink" x="0px" y="0px"
	 viewBox="0 0 231 48" enable-background="new 0 0 231 48" xml:space="preserve">
<g>
	<path fill="#FF0D55" d="M16.6,37.8h-4.7c-1.9,0-3.6-0.7-5-2.1c-1.4-1.4-2.1-3-2.1-5V15.6H2.4c-0.6,0-1.2-0.2-1.7-0.7
		c-0.5-0.4-0.7-1-0.7-1.7c0-0.6,0.2-1.2,0.7-1.7c0.5-0.5,1-0.7,1.7-0.7h2.4V5.2c0-0.6,0.2-1.2,0.7-1.7c0.5-0.5,1-0.7,1.7-0.7
		c0.6,0,1.2,0.2,1.6,0.7c0.5,0.5,0.7,1,0.7,1.6V11H19c0.6,0,1.2,0.2,1.6,0.7c0.5,0.5,0.7,1,0.7,1.6c0,0.6-0.2,1.2-0.7,1.7
		c-0.5,0.5-1,0.7-1.6,0.7H9.5v15.2c0,0.6,0.2,1.2,0.7,1.6c0.5,0.5,1,0.7,1.7,0.7h4.6c1.2,0,2.1-0.7,2.5-2c0.4-1.3,1.2-2,2.4-2
		c0.7,0,1.2,0.2,1.7,0.7c0.4,0.5,0.7,1,0.7,1.7c0,1.4-0.7,2.8-2,4.2C20.3,37.1,18.6,37.8,16.6,37.8z"/>
	<path fill="#FF0D55" d="M58.2,17.8L45.6,46.3c-0.4,1-1.2,1.5-2.2,1.5h-6.5c-0.6,0-1.2-0.2-1.7-0.7s-0.7-1-0.7-1.7
		c0-0.6,0.2-1.2,0.7-1.6c0.5-0.4,1-0.7,1.7-0.7h5l3.2-7.4h-1.1c-1.1,0-1.8-0.5-2.3-1.6l-7-16.3v-4.5c0-0.6,0.2-1.2,0.7-1.7
		s1-0.7,1.6-0.7c0.6,0,1.2,0.2,1.7,0.7c0.5,0.5,0.7,1,0.7,1.7v3.5L45.5,31h1.6l6.4-14.2l0-3.6c0-0.6,0.2-1.2,0.7-1.6
		c0.5-0.5,1-0.7,1.7-0.7c0.6,0,1.2,0.2,1.6,0.7c0.5,0.5,0.7,1,0.7,1.6V17.8z"/>
	<path fill="#FF0D55" d="M73.7,35.2v10.4c0,0.7-0.2,1.2-0.7,1.7c-0.5,0.5-1,0.7-1.7,0.7s-1.2-0.2-1.7-0.7c-0.5-0.5-0.7-1-0.7-1.7
		V12.2c0-0.6,0.2-1.2,0.7-1.6c0.5-0.5,1-0.7,1.7-0.7c0.6,0,1.2,0.2,1.6,0.7c0.5,0.5,0.7,1,0.7,1.6v1.5c2.3-2.5,4.5-3.8,6.7-3.8h1.1
		c1.7,0,3.2,0.6,4.6,1.8l3.9,3.4c1.7,1.5,2.6,3.4,2.6,5.6V28c0,2.3-0.9,4.2-2.8,5.8L86,37.1c-1.3,1.2-2.9,1.7-4.8,1.7h-1
		c-1.8,0-3.4-0.6-4.6-1.9L73.7,35.2z M80.3,34.1h1.2c0.6,0,1.2-0.3,1.8-0.9l3.6-3.2c0.6-0.5,0.9-1.1,0.9-2v-7.5c0-0.7-0.3-1.4-1-2
		L83,15.2c-0.4-0.4-0.9-0.6-1.4-0.6h-1.4c-0.5,0-1.2,0.4-2,1.3l-3.5,3.5c-0.6,0.6-0.9,1.3-0.9,2.1v6c0,0.7,0.3,1.4,1,2.1l3.4,3.4
		C79,33.7,79.7,34.1,80.3,34.1z"/>
	<path fill="#FF0D55" d="M127,19.8v5.6c0,0.6-0.2,1.2-0.7,1.6c-0.5,0.5-1,0.7-1.6,0.7h-16.5v1.4c0,0.8,0.3,1.5,1,2l1.4,1.1
		c0.7,0.6,1.4,0.9,2.1,0.9h12c0.6,0,1.2,0.2,1.6,0.7c0.5,0.5,0.7,1,0.7,1.7c0,0.6-0.2,1.2-0.7,1.6c-0.5,0.5-1,0.7-1.6,0.7h-12.3
		c-0.8,0-1.7-0.2-2.6-0.5c-0.9-0.3-1.6-0.7-2-1.1l-2.1-1.8c-0.7-0.5-1.2-1.2-1.6-2.2c-0.4-0.9-0.7-1.8-0.7-2.6V19
		c0-0.6,0.2-1.4,0.7-2.5c0.5-1,1.1-1.8,1.8-2.4l1.9-1.5c1.3-1,2.7-1.6,4.3-1.6h6.6c1.7,0,3.2,0.7,4.7,2.1l1.8,1.7
		C126.4,15.8,127,17.5,127,19.8z M108.2,19.4V23h14.2v-3.3c0-0.9-0.3-1.5-0.8-2l-1.4-1.2c-0.7-0.6-1.3-0.9-1.9-0.9h-5.9
		c-0.7,0-1.4,0.3-2,0.8l-1.4,1.1C108.5,18.1,108.2,18.7,108.2,19.4z"/>
	<path fill="#FF0D55" d="M142.7,3.2v11l2.1-1.6c1.3-1.1,2.6-1.6,4-1.6h4.3c1.6,0,3,0.5,4.2,1.6l2.2,1.9c0.6,0.5,1.1,1.3,1.5,2.3
		c0.4,1,0.6,2,0.6,3v9.5c0,0.9-0.2,1.8-0.6,2.7c-0.4,0.9-0.8,1.6-1.3,2.1l-2,1.9c-0.5,0.5-1.3,1-2.2,1.3c-1,0.4-1.8,0.6-2.4,0.6h-4
		c-1.9,0-4.1-1.1-6.4-3.3v0.9c0,0.6-0.2,1.2-0.7,1.7s-1,0.7-1.7,0.7c-0.7,0-1.2-0.2-1.7-0.7c-0.5-0.5-0.7-1-0.7-1.7V3.2
		c0-0.6,0.2-1.2,0.7-1.7s1-0.7,1.6-0.7c0.6,0,1.2,0.2,1.7,0.7S142.7,2.5,142.7,3.2z M152.7,15.6h-3.2c-0.8,0-1.4,0.2-1.8,0.5
		l-4.2,3.6c-0.5,0.5-0.8,1.2-0.8,2.2v5.3c0,0.8,0.3,1.4,0.9,1.9l3.8,3.2c0.5,0.5,1.1,0.8,1.7,0.8h3.8c0.5,0,1-0.2,1.4-0.5l1.9-1.7
		c0.5-0.4,0.8-0.9,0.8-1.6v-9.9c0-0.8-0.3-1.4-0.8-1.8l-1.7-1.4C153.9,15.9,153.3,15.6,152.7,15.6z"/>
	<path fill="#FF0D55" d="M195.8,19.4v9.9c0,2.1-1,4-3,5.8c-2,1.8-4,2.7-6.1,2.7h-5.5c-2.1,0-4.2-0.9-6.1-2.7
		c-1.9-1.8-2.9-3.7-2.9-5.8v-9.9c0-2,1-4,2.9-5.8c1.9-1.8,4-2.7,6.2-2.7h5.5c2.1,0,4.1,0.8,6.1,2.6
		C194.9,15.3,195.8,17.3,195.8,19.4z M177,19.6v9.5c0,0.9,0.3,1.5,0.9,2l1.8,1.5c0.4,0.3,0.9,0.5,1.6,0.5h5.4c0.8,0,1.5-0.3,2.2-0.9
		l1.4-1.3c0.6-0.4,0.9-1.1,0.9-1.9v-9.5c0-0.9-0.3-1.6-0.9-2.1l-1.6-1.3c-0.6-0.5-1.2-0.7-1.9-0.7h-4.8c-1.1,0-1.9,0.3-2.4,0.8
		l-1.6,1.4C177.3,18.2,177,18.8,177,19.6z"/>
	<path fill="#FF0D55" d="M223.1,37.8h-4.7c-1.9,0-3.6-0.7-5-2.1c-1.4-1.4-2.1-3-2.1-5V15.6H209c-0.6,0-1.2-0.2-1.7-0.7
		c-0.5-0.4-0.7-1-0.7-1.7c0-0.6,0.2-1.2,0.7-1.7c0.5-0.5,1-0.7,1.7-0.7h2.4V5.2c0-0.6,0.2-1.2,0.7-1.7c0.5-0.5,1-0.7,1.7-0.7
		c0.6,0,1.2,0.2,1.6,0.7c0.5,0.5,0.7,1,0.7,1.6V11h9.4c0.6,0,1.2,0.2,1.6,0.7c0.5,0.5,0.7,1,0.7,1.6c0,0.6-0.2,1.2-0.7,1.7
		c-0.5,0.5-1,0.7-1.6,0.7h-9.5v15.2c0,0.6,0.2,1.2,0.7,1.6c0.5,0.5,1,0.7,1.7,0.7h4.6c1.2,0,2.1-0.7,2.5-2s1.2-2,2.4-2
		c0.7,0,1.2,0.2,1.7,0.7c0.4,0.5,0.7,1,0.7,1.7c0,1.4-0.7,2.8-2,4.2C226.9,37.1,225.2,37.8,223.1,37.8z"/>
</g>
</svg>
