<svg id="Слой_1" xmlns="http://www.w3.org/2000/svg" viewBox="0 0 261 90"><style>.st0{fill:#FF0066;}</style><path class="st0" d="M1.8 6c5.9 18.3 13 36.2 21.2 53.6.4 1 2.2 1 2.6 0 3.4-8.1 7-16.2 13.4-22.5-.9-.4-1.7-.7-2.6-1.1-.3 6-.1 11.7 3.8 16.7.7.9 2.2.3 2.5-.7 5-17 12.2-33.1 21.5-48.2 1-1.6-1.6-3.2-2.6-1.5C52.2 17.6 44.9 34 39.8 51.2c.8-.2 1.7-.4 2.5-.7-3.3-4.2-3.1-9.5-2.9-14.6.1-1.3-1.7-1.9-2.6-1.1-6.6 6.5-10.4 14.7-14 23.1h2.6c-8-17.2-15-34.8-20.9-52.9-.4-1.6-3.3-.9-2.7 1zM59 44.8c-4.8 3.6-3.2 10.4 2.1 12.7 7.4 3.3 16.5-1.5 21-7.3 3.1-4.1 6.5-12.8 0-15.6-7.6-3.2-17.6 1.8-22.8 7-1.4 1.4.8 3.5 2.1 2.1 3.3-3.3 7.3-5.6 11.9-6.5 1.3-.3 3.9-.6 5.4-.3 5.8 1.3 4.3 5.9 2.5 9.1-1.8 3.4-4.9 6.2-8.4 7.9-2.2 1-4.8 1.7-7.3 1.6-3.3-.2-9.9-4.4-5-8.1 1.5-1.2 0-3.8-1.5-2.6z"/><path class="st0" d="M81.3 48.3v10.6c0 1.9 3 1.9 3 0V48.3c0-2-3-2-3 0zM111.6 3.7C103.3 20.9 95 39 98.1 58.6c.3 1.9 3.2 1.1 2.9-.8-3-18.6 5.2-36.3 13.2-52.6.8-1.7-1.7-3.3-2.6-1.5zM127.5 7.4c-9.8 17.3-13.5 37.2-10.6 56.8.3 1.9 3.2 1.1 2.9-.8-2.8-18.9.9-38 10.3-54.5.9-1.6-1.7-3.2-2.6-1.5z"/><path class="st0" d="M119.3 45.7l14.1-13.5c1.4-1.3-.7-3.5-2.1-2.1l-14.1 13.5c-1.4 1.4.7 3.5 2.1 2.1z"/><path class="st0" d="M118.2 42.5c2.5 2.5 4.1 6 5.9 9.1 1.7 3 3.5 6 5.2 9 1 1.7 3.6.2 2.6-1.5-2-3.4-3.9-6.8-5.9-10.2-1.7-2.9-3.2-6.1-5.6-8.5-1.5-1.4-3.6.7-2.2 2.1zM144.4 33.3c5.2 4.2 7 10.3 8.1 16.7.5 3 .2 10.2 3.5 11.9 3.1 1.5 5.1-2.7 6.4-4.7.6-.8 4.2-7.4 5.4-6.8 1.1.5 2.1 10.1 2.3 11.4.3 1.6 2.4 1.2 2.9 0 4.9-11.8 12.8-21.9 23.1-29.4 1.5-1.1 0-3.7-1.5-2.6-11 8-19.3 18.6-24.5 31.2h2.9c-.8-3.7-1.1-7.8-2.3-11.4-.4-1.3-.8-2.6-2.2-3-3.4-1-5.8 4.9-7.2 6.9-.7 1.1-1.5 2.8-2.5 3.7-2.9 2.4-2.3-.7-2.6-2.6-.6-3.5-1-7.1-2-10.6-1.4-5-3.7-9.4-7.7-12.7-1.4-1.3-3.6.8-2.1 2zM201.2 43.9c-3.1 6.5-11.6 19.2-3 25.1 6.7 4.7 15.8-2.9 19.6-8.2 4.2-5.8 7.1-15.4-.4-19.8-3.9-2.3-15.5-5.4-16.4 1.6-.2 1.9 2.8 1.9 3 0 .2-2 5.9-.9 6.9-.7 2.3.5 4.8 1.1 6.4 2.9 4.3 4.8-.2 12.5-3.8 16.5-1.6 1.7-3.5 3.3-5.6 4.4-3.5 1.9-9 1.9-10.2-2.8-1.3-5.5 3.8-12.7 6.1-17.6.8-1.6-1.7-3.2-2.6-1.4z"/><path class="st0" d="M216.6 56.8c.2 4.7 1.3 9.2 3.4 13.4.9 1.7 3.5.2 2.6-1.5-1.9-3.7-2.9-7.7-3-11.9-.1-1.9-3.1-1.9-3 0zM215.3 84.8c22.5-4.2 40.8-21.7 44.2-44.6.3-1.9-2.6-2.7-2.9-.8-3.2 22-20.5 38.5-42.1 42.5-1.9.4-1.1 3.3.8 2.9z"/><path class="st0" d="M246.9 63.5c-5.3-7.2-10.5-14.4-15.8-21.7-1.1-1.5-3.7-.1-2.6 1.5 5.3 7.2 10.5 14.4 15.8 21.7 1.1 1.5 3.7.1 2.6-1.5z"/></svg>