<svg id="Слой_1" xmlns="http://www.w3.org/2000/svg" viewBox="0 0 291 56"><style>.st0{fill:none;}</style><path d="M5.3 38.2H.7L10.3.9h3.8l9.6 37.3h-4.6l-2.7-10.9H8L5.3 38.2zM12.4 11H12L8.9 23.7h6.5l-3-12.7zM41.1 16.6c-.8-.8-1.8-1.1-3.1-1.1-1.4 0-2.8.7-4.2 2.1-1.8 1.8-2.7 4.1-2.7 6.9v13.8h-3.8V12h3.8v5c.6-.9 1.4-1.8 2.3-2.7 1.5-1.5 3.4-2.3 5.7-2.3 2 0 3.7.6 5 1.9 1.3 1.3 1.9 3 1.9 5.2v19.1h-3.8V19.4c0-1.1-.4-2.1-1.1-2.8zM62.9.9v5h-3.8v-5h3.8zm0 37.3h-3.8V12h3.8v26.2zM96.6 38.2h-3.8V18.5c0-1-.3-1.8-.8-2.3-.4-.4-.9-.6-1.5-.6s-1.3.3-1.9 1c-.9.9-1.3 2.3-1.3 4.2v17.4h-3.8V18.3c0-1-.2-1.7-.6-2.1s-.8-.6-1.3-.6c-.8 0-1.5.3-2.1 1-.9.9-1.3 2.3-1.3 4.2v17.4h-3.8V12H78v3.3c1.3-2.2 2.9-3.3 5-3.3 2 0 3.4 1.1 4 3.3 1.3-2.2 2.9-3.3 5-3.3 1.5 0 2.7.4 3.4 1.1s1.1 2 1.1 3.6v21.5zM107.7 38.2c-2.3 0-4.1-.7-5.6-2.1-1.3-1.3-1.9-2.9-1.9-4.8 0-2 .7-3.8 2.1-5.2 1.3-1.3 2.7-2.2 4.4-2.7 4.3-1.4 6.7-2.4 7.1-2.9.6-.8 1-1.5 1-2.3s-.4-1.5-1.1-2.1c-.6-.5-1.8-.8-3.4-.8-1.3 0-2.3.4-3.1 1.1-1 1-1.6 2.4-1.7 4h-4.2c.1-2.6 1-4.7 2.7-6.3 1.5-1.5 3.6-2.3 6.3-2.3 3.1 0 5.2.6 6.5 1.9 1.3 1.3 1.9 2.9 1.9 4.8v15.1c0 1.5.5 3 1.5 4.4h-4.6c-.5-.5-.8-1.5-.8-2.9-2 2.1-4.3 3.1-7.1 3.1zm7.1-14.4c-1.5.9-3.3 1.7-5.4 2.3-1.5.5-2.7 1.2-3.6 2.1-.6.6-1 1.5-1 2.7 0 1.3.3 2.2 1 2.9.6.6 1.7 1 3.1 1 2.3 0 4.3-1.3 5.9-4v-7zM130.5 15h-6.1v-3h6.1V3.6h3.8V12h8.6v3h-8.6v17.4c0 1.4 1 2.1 3.1 2.1 2.2 0 4.4-.5 6.7-1.5v4c-3.2.8-5.6 1.1-7.3 1.1-4.2 0-6.3-1.7-6.3-5V15zM166.1 35.7c-1.7 1.7-3.8 2.5-6.3 2.5-2.8 0-5-.8-6.7-2.5-2.4-2.4-3.6-5.9-3.6-10.5 0-4.7 1.1-8.2 3.3-10.3 1.9-1.9 4.2-2.9 6.9-2.9 2.2 0 4.1.8 5.9 2.3 2.3 1.9 3.4 5.6 3.3 10.9h-15.1c0 4.2.8 6.9 2.3 8 .9.9 2.2 1.3 3.8 1.3 1.4 0 2.6-.4 3.4-1.3.8-.8 1.2-2.1 1.3-4h4.4c-.5 2.8-1.4 5-2.9 6.5zm-1.8-13.6c.1-2.6-.4-4.4-1.7-5.6-1.1-1-2.3-1.5-3.4-1.3-1.3.1-2.5.8-3.6 1.9-1 1-1.7 2.7-1.9 5h10.6zM215.8 3.6c1.9 1.9 2.9 4.6 2.9 8s-1 6.1-2.9 8c-1.8 1.8-4.2 2.7-7.3 2.7H203v15.9h-4.4V.9h10c3 0 5.4.9 7.2 2.7zm-12.8.9v14.2h4.4c2.3 0 4.1-.6 5.4-1.9 1.1-1.1 1.7-2.9 1.7-5.2s-.6-4-1.7-5.2c-1.3-1.3-3.1-1.9-5.4-1.9H203zM234.6 38.2h-3.8V.9h3.8v37.3zM254.5 38.2c-2.2 0-3.8-.6-5-1.7-1.3-1.3-1.9-2.9-1.9-4.8V12h3.8v18.8c0 1.5.3 2.6 1 3.3.6.6 1.7 1 3.3 1 1.8 0 3.3-.6 4.6-1.9 1.4-1.4 2.1-3.2 2.1-5.4V12h3.8v26.2h-3.8v-3.8c-2.1 2.5-4.7 3.8-7.9 3.8zM284.7 16.6c-.8-.8-1.8-1.1-3.1-1.1-1.7 0-2.8.3-3.4 1-.8.8-1.1 1.6-1.1 2.5 0 .6.3 1.3 1 1.9.9.9 2.8 1.9 5.7 2.9 2.3.8 4 1.7 5 2.7 1.1 1.1 1.7 2.7 1.7 4.6 0 1.8-.6 3.3-1.9 4.6-1.8 1.8-4.1 2.7-6.9 2.7-3.1 0-5.4-.8-6.9-2.3-1.7-1.7-2.4-4.3-2.3-7.8h3.8c0 2.8.4 4.6 1.1 5.4.9.9 2.2 1.3 4 1.3 1.8 0 3.1-.4 4-1.3.8-.8 1.1-1.7 1.1-2.7 0-.8-.4-1.5-1.1-2.3s-2.2-1.5-4.4-2.3c-3.2-1.1-5.3-2.2-6.3-3.3-1.1-1.1-1.7-2.6-1.7-4.2 0-1.7.7-3.2 2.1-4.6 1.4-1.4 3.6-2.1 6.5-2.1 2.6 0 4.6.8 6.1 2.3s2.2 3.4 2.1 5.6H286c-.1-1.7-.5-2.8-1.3-3.5z"/><path class="st0" d="M0 48h291M124 86h291"/><g><path d="M289 51.5c-17.9-5.1-36.2 1-54.3-1.1-9.4-1.1-18.5-3.7-27.9-4.4-9.2-.7-18.3.7-27.4 2.1-10.6 1.6-21 3-31.7 1.3-9.3-1.4-18.1-3.1-27.6-2.5-9.9.6-19.7 2.4-29.6 2.9-9.7.5-19.4-1.6-29-.6-5 .5-10 1.9-15 2.2-5.3.4-10.5-.5-15.7-1.4-9.1-1.6-18.1-3.4-27.1-.2-1.8.6-1 3.5.8 2.9 9-3.2 18-1 27.1.5 7.9 1.3 15.2 1.4 23.1 0 10.3-1.8 19.7-.5 30-.4 9.6.1 19.1-1.5 28.6-2.5 10.2-1 19.7-.5 29.8 1.3 8.9 1.5 17.5 1.9 26.4.8 9.3-1.1 18.5-3.1 27.9-3.6 10-.5 19.6 1.6 29.4 3.3 10 1.8 19.6 1.8 29.7 1 10.6-.9 21.2-1.8 31.7 1.2 1.8.6 2.6-2.3.8-2.8z"/></g></svg>