<?xml version="1.0" encoding="utf-8"?>
<!-- Generator: Adobe Illustrator 21.0.0, SVG Export Plug-In . SVG Version: 6.00 Build 0)  -->
<svg version="1.1" id="Слой_1" xmlns="http://www.w3.org/2000/svg" xmlns:xlink="http://www.w3.org/1999/xlink" x="0px" y="0px"
	 viewBox="0 0 291 56" style="enable-background:new 0 0 291 56;" xml:space="preserve">
<style type="text/css">
	.st0{fill:none;}
</style>
<g>
	<path d="M5.3,38.2H0.7l9.6-37.3h3.8l9.6,37.3h-4.6l-2.7-10.9H8L5.3,38.2z M12.4,11H12L8.9,23.7h6.5L12.4,11z"/>
	<path d="M41.1,16.6c-0.8-0.8-1.8-1.1-3.1-1.1c-1.4,0-2.8,0.7-4.2,2.1c-1.8,1.8-2.7,4.1-2.7,6.9v13.8h-3.8V12h3.8v5
		c0.6-0.9,1.4-1.8,2.3-2.7c1.5-1.5,3.4-2.3,5.7-2.3c2,0,3.7,0.6,5,1.9c1.3,1.3,1.9,3,1.9,5.2v19.1h-3.8V19.4
		C42.2,18.3,41.8,17.3,41.1,16.6z"/>
	<path d="M62.9,0.9v5h-3.8v-5H62.9z M62.9,38.2h-3.8V12h3.8V38.2z"/>
	<path d="M96.6,38.2h-3.8V18.5c0-1-0.3-1.8-0.8-2.3c-0.4-0.4-0.9-0.6-1.5-0.6c-0.6,0-1.3,0.3-1.9,1c-0.9,0.9-1.3,2.3-1.3,4.2v17.4
		h-3.8V18.3c0-1-0.2-1.7-0.6-2.1s-0.8-0.6-1.3-0.6c-0.8,0-1.5,0.3-2.1,1c-0.9,0.9-1.3,2.3-1.3,4.2v17.4h-3.8V12H78v3.3
		c1.3-2.2,2.9-3.3,5-3.3c2,0,3.4,1.1,4,3.3c1.3-2.2,2.9-3.3,5-3.3c1.5,0,2.7,0.4,3.4,1.1s1.1,2,1.1,3.6V38.2z"/>
	<path d="M107.7,38.2c-2.3,0-4.1-0.7-5.6-2.1c-1.3-1.3-1.9-2.9-1.9-4.8c0-2,0.7-3.8,2.1-5.2c1.3-1.3,2.7-2.2,4.4-2.7
		c4.3-1.4,6.7-2.4,7.1-2.9c0.6-0.8,1-1.5,1-2.3s-0.4-1.5-1.1-2.1c-0.6-0.5-1.8-0.8-3.4-0.8c-1.3,0-2.3,0.4-3.1,1.1
		c-1,1-1.6,2.4-1.7,4h-4.2c0.1-2.6,1-4.7,2.7-6.3c1.5-1.5,3.6-2.3,6.3-2.3c3.1,0,5.2,0.6,6.5,1.9c1.3,1.3,1.9,2.9,1.9,4.8v15.1
		c0,1.5,0.5,3,1.5,4.4h-4.6c-0.5-0.5-0.8-1.5-0.8-2.9C112.8,37.2,110.5,38.2,107.7,38.2z M114.8,23.8c-1.5,0.9-3.3,1.7-5.4,2.3
		c-1.5,0.5-2.7,1.2-3.6,2.1c-0.6,0.6-1,1.5-1,2.7c0,1.3,0.3,2.2,1,2.9c0.6,0.6,1.7,1,3.1,1c2.3,0,4.3-1.3,5.9-4V23.8z"/>
	<path d="M130.5,15h-6.1V12h6.1V3.6h3.8V12h8.6V15h-8.6v17.4c0,1.4,1,2.1,3.1,2.1c2.2,0,4.4-0.5,6.7-1.5v4c-3.2,0.8-5.6,1.1-7.3,1.1
		c-4.2,0-6.3-1.7-6.3-5V15z"/>
	<path d="M166.1,35.7c-1.7,1.7-3.8,2.5-6.3,2.5c-2.8,0-5-0.8-6.7-2.5c-2.4-2.4-3.6-5.9-3.6-10.5c0-4.7,1.1-8.2,3.3-10.3
		c1.9-1.9,4.2-2.9,6.9-2.9c2.2,0,4.1,0.8,5.9,2.3c2.3,1.9,3.4,5.6,3.3,10.9h-15.1c0,4.2,0.8,6.9,2.3,8c0.9,0.9,2.2,1.3,3.8,1.3
		c1.4,0,2.6-0.4,3.4-1.3c0.8-0.8,1.2-2.1,1.3-4h4.4C168.5,32,167.6,34.2,166.1,35.7z M164.3,22.1c0.1-2.6-0.4-4.4-1.7-5.6
		c-1.1-1-2.3-1.5-3.4-1.3c-1.3,0.1-2.5,0.8-3.6,1.9c-1,1-1.7,2.7-1.9,5H164.3z"/>
	<path d="M215.8,3.6c1.9,1.9,2.9,4.6,2.9,8s-1,6.1-2.9,8c-1.8,1.8-4.2,2.7-7.3,2.7H203v15.9h-4.4V0.9h10
		C211.6,0.9,214,1.8,215.8,3.6z M203,4.5v14.2h4.4c2.3,0,4.1-0.6,5.4-1.9c1.1-1.1,1.7-2.9,1.7-5.2s-0.6-4-1.7-5.2
		c-1.3-1.3-3.1-1.9-5.4-1.9H203z"/>
	<path d="M234.6,38.2h-3.8V0.9h3.8V38.2z"/>
	<path d="M254.5,38.2c-2.2,0-3.8-0.6-5-1.7c-1.3-1.3-1.9-2.9-1.9-4.8V12h3.8v18.8c0,1.5,0.3,2.6,1,3.3c0.6,0.6,1.7,1,3.3,1
		c1.8,0,3.3-0.6,4.6-1.9c1.4-1.4,2.1-3.2,2.1-5.4V12h3.8v26.2h-3.8v-3.8C260.3,36.9,257.7,38.2,254.5,38.2z"/>
	<path d="M284.7,16.6c-0.8-0.8-1.8-1.1-3.1-1.1c-1.7,0-2.8,0.3-3.4,1c-0.8,0.8-1.1,1.6-1.1,2.5c0,0.6,0.3,1.3,1,1.9
		c0.9,0.9,2.8,1.9,5.7,2.9c2.3,0.8,4,1.7,5,2.7c1.1,1.1,1.7,2.7,1.7,4.6c0,1.8-0.6,3.3-1.9,4.6c-1.8,1.8-4.1,2.7-6.9,2.7
		c-3.1,0-5.4-0.8-6.9-2.3c-1.7-1.7-2.4-4.3-2.3-7.8h3.8c0,2.8,0.4,4.6,1.1,5.4c0.9,0.9,2.2,1.3,4,1.3c1.8,0,3.1-0.4,4-1.3
		c0.8-0.8,1.1-1.7,1.1-2.7c0-0.8-0.4-1.5-1.1-2.3s-2.2-1.5-4.4-2.3c-3.2-1.1-5.3-2.2-6.3-3.3c-1.1-1.1-1.7-2.6-1.7-4.2
		c0-1.7,0.7-3.2,2.1-4.6c1.4-1.4,3.6-2.1,6.5-2.1c2.6,0,4.6,0.8,6.1,2.3s2.2,3.4,2.1,5.6h-3.8C285.9,18.4,285.5,17.3,284.7,16.6z"/>
</g>
<line class="st0" x1="0" y1="48" x2="291" y2="48"/>
<line class="st0" x1="124" y1="86" x2="415" y2="86"/>
<g>
	<g>
		<path d="M289,51.5c-17.9-5.1-36.2,1-54.3-1.1c-9.4-1.1-18.5-3.7-27.9-4.4c-9.2-0.7-18.3,0.7-27.4,2.1c-10.6,1.6-21,3-31.7,1.3
			c-9.3-1.4-18.1-3.1-27.6-2.5c-9.9,0.6-19.7,2.4-29.6,2.9c-9.7,0.5-19.4-1.6-29-0.6c-5,0.5-10,1.9-15,2.2
			c-5.3,0.4-10.5-0.5-15.7-1.4c-9.1-1.6-18.1-3.4-27.1-0.2c-1.8,0.6-1,3.5,0.8,2.9c9-3.2,18-1,27.1,0.5c7.9,1.3,15.2,1.4,23.1,0
			c10.3-1.8,19.7-0.5,30-0.4c9.6,0.1,19.1-1.5,28.6-2.5c10.2-1,19.7-0.5,29.8,1.3c8.9,1.5,17.5,1.9,26.4,0.8
			c9.3-1.1,18.5-3.1,27.9-3.6c10-0.5,19.6,1.6,29.4,3.3c10,1.8,19.6,1.8,29.7,1c10.6-0.9,21.2-1.8,31.7,1.2
			C290,54.9,290.8,52,289,51.5L289,51.5z"/>
	</g>
</g>
</svg>
