<?xml version="1.0" encoding="utf-8"?>
<!-- Generator: Adobe Illustrator 21.0.0, SVG Export Plug-In . SVG Version: 6.00 Build 0)  -->
<svg version="1.1" id="Слой_1" xmlns="http://www.w3.org/2000/svg" xmlns:xlink="http://www.w3.org/1999/xlink" x="0px" y="0px"
	 viewBox="0 0 258 104" style="enable-background:new 0 0 258 104;" xml:space="preserve">
<style type="text/css">
	.st0{enable-background:new    ;}
</style>
<g class="st0">
	<path d="M58.1,100.7c-0.9,0-1.6-0.2-2.3-0.5c-0.7-0.3-1.2-0.8-1.7-1.3c-0.4-0.5-0.8-1.2-1-1.9c-0.2-0.7-0.3-1.4-0.3-2.1
		c0-0.6,0.2-1.5,0.5-2.6c0.3-1.1,0.8-2.3,1.3-3.7c0.5-1.4,1.1-2.8,1.7-4.3s1.2-2.9,1.8-4.3c0.6-1.4,1.1-2.6,1.5-3.8
		c0.4-1.2,0.7-2.1,0.9-2.8c0.2-0.8,0.4-1.6,0.6-2.7c0.3-1,0.5-2.2,0.8-3.4c0.3-1.2,0.6-2.5,0.9-3.9c0.3-1.4,0.6-2.7,1-4.1
		c-0.6,0.1-1.3,0.2-2.2,0.3c-0.9,0.1-1.8,0.2-2.7,0.3c-1.4,0.1-2.7,0.3-4.1,0.6c-1.3,0.3-2.7,0.5-4.1,0.8c-1.4,0.3-2.8,0.6-4.3,1
		c-1.5,0.4-3.1,0.7-4.8,1.1c-2.5,0.5-5,1.1-7.5,1.8c-2.5,0.7-5.1,1-7.8,1c-0.8,0-1.6-0.2-2.3-0.7c-0.7-0.4-1.5-0.8-2.4-1
		c-0.8,1.3-1.6,2.8-2.4,4.3c-0.8,1.5-1.4,3.1-2.1,4.7c-0.6,1.6-1.2,3.2-1.7,4.8s-0.9,3-1.3,4.4c-0.2,0.8-0.4,1.7-0.5,2.9
		c-0.1,1.2-0.3,2.4-0.4,3.6c-0.1,1.2-0.3,2.4-0.4,3.5s-0.3,2-0.4,2.7c-0.1,0.6-0.4,1.2-0.8,1.8c-0.4,0.6-0.8,1.2-1.4,1.7
		c-0.5,0.5-1.1,0.9-1.8,1.2c-0.7,0.3-1.3,0.5-2,0.5c-1.2,0-2.1-0.3-2.8-1C3,99,2.4,98.1,2,97.1c-0.4-1-0.7-2.1-0.9-3.3
		c-0.2-1.2-0.3-2.3-0.3-3.3c0-2.5,0.3-5.2,0.9-7.9c0.6-2.7,1.5-5.5,2.5-8.3s2.3-5.6,3.8-8.5c1.4-2.9,3-5.7,4.7-8.5
		c1.4-2.5,3.1-5.5,5.1-8.8c2-3.3,4.3-6.8,6.8-10.3c2.5-3.5,5.3-7,8.2-10.3s6-6.4,9.2-9c3.2-2.6,6.4-4.8,9.8-6.4
		c3.3-1.6,6.6-2.4,9.9-2.4c3.5,0,6.3,0.6,8.7,1.9s4.2,2.9,5.5,5.1s2.3,4.6,2.9,7.4c0.6,2.8,0.8,5.8,0.8,9c0,2.8-0.2,5.7-0.5,8.6
		c-0.4,3-0.8,5.9-1.3,8.7c-0.5,2.8-1.1,5.6-1.7,8.2c-0.6,2.6-1.2,5-1.7,7.1l-2.2,8.5c-0.1,0.3-0.2,0.8-0.5,1.5
		c-0.2,0.8-0.5,1.7-0.9,2.7c-0.4,1.1-0.8,2.2-1.2,3.4c-0.4,1.2-0.9,2.4-1.3,3.6s-0.9,2.3-1.3,3.3c-0.4,1-0.7,1.8-1,2.4l0.1-0.1
		c-0.3,1.1-0.6,2.2-0.9,3.3c-0.3,1.1-0.8,2.1-1.4,3c-0.6,0.9-1.3,1.6-2.3,2.2C60.7,100.4,59.5,100.7,58.1,100.7z M61.3,22.4
		c-1.9,0-3.7,0.4-5.6,1.2c-1.9,0.8-3.7,1.8-5.5,3c-1.8,1.3-3.5,2.7-5.2,4.4c-1.7,1.7-3.3,3.4-4.8,5.1c-1.5,1.8-2.9,3.5-4.3,5.3
		c-1.3,1.8-2.5,3.4-3.6,4.9c-0.2,0.3-0.4,0.6-0.7,1c-0.3,0.4-0.5,0.8-0.8,1.3c-0.3,0.5-0.5,1-0.8,1.5c-0.3,0.5-0.5,1-0.6,1.4h6.4
		c2.3,0,5-0.2,8-0.5c3-0.3,6-0.7,8.9-1.2c2.9-0.5,5.6-0.9,8.1-1.4c2.5-0.5,4.3-0.8,5.6-1.1c0.2-0.5,0.3-1.3,0.5-2.2
		c0.1-0.9,0.3-1.9,0.4-3.1s0.2-2.3,0.3-3.6c0.1-1.3,0.1-2.6,0.1-3.9c0-1.1,0-2.3-0.1-3.7c-0.1-1.4-0.3-2.7-0.8-4
		c-0.4-1.3-1.1-2.3-1.9-3.2C64,22.9,62.8,22.4,61.3,22.4z"/>
	<path d="M92.5,68.2c0.8-3.1,1.8-6.3,3.3-9.6c1.4-3.3,3.1-6.6,5-9.8c1.9-3.3,4.1-6.5,6.4-9.7c2.4-3.2,4.9-6.3,7.5-9.3
		c2.6-3,5.4-5.8,8.2-8.4c2.8-2.6,5.6-5.1,8.5-7.3c1.3-0.9,2.6-1.5,3.7-1.8c1.1-0.3,2.3-0.4,3.6-0.4c1.3,0,2.5,0.2,3.6,0.6
		c1,0.4,2.1,1.1,3.1,2.2c0.3,0.4,0.7,0.7,1.1,1c0.4,0.3,0.7,0.4,1.1,0.4c0.1,0,0.2-0.1,0.3-0.3s0.3-0.4,0.4-0.7
		c0.1-0.3,0.3-0.5,0.5-0.8c0.2-0.3,0.5-0.5,0.8-0.6c0.7-0.3,1.6-0.6,2.5-0.7c1-0.1,2-0.2,3-0.2c1.9,0,3.7,0.3,5.4,1s3.3,1.7,4.6,2.9
		c3.2,3,5.6,6.5,7.2,10.6c1.6,4.1,2.5,8.6,2.5,13.3c0,4.3-0.6,8.8-1.9,13.8c-1.1,4.3-2.6,8.5-4.7,12.6c-2,4.1-4.4,7.9-7.1,11.5
		c-2.7,3.6-5.8,6.9-9.1,9.8c-3.4,3-6.9,5.5-10.7,7.6c-3.8,2.1-7.8,3.8-11.9,5s-8.3,1.8-12.6,1.8c-4,0-7.5-0.6-10.7-1.8
		c-3.1-1.2-5.8-2.9-8-5.1c-2.2-2.2-3.9-4.8-5-7.9c-1.1-3-1.7-6.4-1.7-10.1c0-1.6,0.1-3.2,0.3-4.8C91.8,71.5,92.1,69.9,92.5,68.2z
		 M103.1,72.4c-0.5,2.1-0.7,4-0.7,5.6c0,2.3,0.4,4.4,1.2,6.2c0.8,1.8,2,3.3,3.4,4.4c1.5,1.2,3.3,2.1,5.3,2.7
		c2.1,0.6,4.3,0.9,6.8,0.9c2.9,0,5.9-0.5,8.9-1.4c3-0.9,6-2.3,8.8-4s5.6-3.9,8.3-6.3c2.7-2.5,5.1-5.3,7.4-8.4
		c2.3-3.1,4.3-6.5,6.1-10.2c1.8-3.7,3.2-7.6,4.3-11.7c0.4-1.5,0.7-3.1,0.9-4.7s0.3-3.2,0.3-4.7c0-2.4-0.3-4.7-0.8-6.9
		c-0.5-2.2-1.4-4.2-2.7-5.9c-1.3-1.7-2.9-3.1-4.9-4.1c-2-1-4.5-1.5-7.5-1.5c-0.4,0-0.7,0.2-1,0.5c-0.2,0.4-0.5,0.8-0.7,1.3
		c-0.2,0.5-0.4,0.9-0.7,1.4c-0.3,0.5-0.6,0.9-1.1,1.3c-0.4,0.4-1,0.7-1.6,1c-0.6,0.3-1.4,0.4-2.4,0.4c-0.7,0-1.3-0.2-1.9-0.5
		c-0.5-0.3-1.1-0.7-1.6-1.3c-0.3-0.3-0.5-0.4-0.6-0.6c-0.2-0.1-0.4-0.2-0.6-0.2c-0.4,0-0.9,0.2-1.5,0.5c-0.6,0.3-1.2,0.7-1.9,1.2
		c-0.6,0.5-1.3,0.9-1.9,1.4c-0.6,0.5-1.1,0.9-1.4,1.3c-2.8,2.9-5.7,6.1-8.5,9.5s-5.4,7-7.8,10.7c-2.4,3.7-4.4,7.4-6.2,11.1
		C105.1,65.3,103.9,68.9,103.1,72.4z"/>
	<path d="M182.1,85.6c1.4,0.5,2.9,1.1,4.3,1.8c1.5,0.7,3,1.3,4.6,1.9c1.6,0.6,3.2,1.1,5,1.5c1.7,0.4,3.6,0.6,5.5,0.6
		c2.3,0,4.6-0.3,6.9-0.8c2.3-0.5,4.6-1.3,6.8-2.4c2.2-1.1,4.4-2.4,6.4-3.9c2-1.5,3.9-3.3,5.6-5.3c1.9-2.1,3.4-4.1,4.7-5.8
		c1.3-1.7,2.3-3.3,3-4.6c0.8-1.4,1.3-2.5,1.7-3.5c0.3-1,0.5-1.8,0.5-2.5c0-1-0.4-1.9-1.1-2.7c-0.7-0.8-1.7-1.4-2.8-1.9
		s-2.5-0.9-4-1.1c-1.5-0.2-3.1-0.3-4.7-0.3c-1,0-2.1,0-3.4,0.1c-1.3,0.1-2.6,0.1-3.9,0.2c-1.3,0.1-2.6,0.1-3.9,0.2
		c-1.3,0-2.3,0.1-3.3,0.1c-1.4,0-2.8-0.2-4.3-0.5c-1.5-0.3-2.9-0.8-4.3-1.5c-1.4-0.7-2.7-1.7-3.9-2.9c-1.2-1.2-2.2-2.7-3-4.5
		c-0.3-0.6-0.5-1.3-0.7-2.1c-0.2-0.8-0.3-1.6-0.3-2.6c0-1,0.1-1.9,0.2-2.8c0.1-0.9,0.3-1.8,0.5-2.6c0.6-2.1,1.6-4.2,2.9-6.3
		c1.4-2.1,3-4.2,4.9-6.3c1.9-2,4-4,6.2-5.9c2.2-1.9,4.5-3.7,6.9-5.4c2.4-1.7,4.7-3.2,6.9-4.6c2.3-1.4,4.4-2.5,6.3-3.5
		c2.8-1.3,5.6-2.3,8.4-2.9c2.9-0.6,5.7-0.9,8.5-0.9c1.7,0,3.3,0.2,4.8,0.7s2.8,1.1,4,1.9c1.1,0.8,2.1,1.9,2.7,3.1
		c0.7,1.2,1,2.6,1,4.2c0,0.9-0.1,1.7-0.3,2.3c-0.2,0.6-0.5,1.1-0.8,1.5c-0.3,0.4-0.7,0.7-1.1,0.8c-0.4,0.2-0.8,0.3-1.2,0.3
		c-1.1,0-2.2-0.1-3.1-0.4s-1.8-0.5-2.7-0.8s-1.8-0.6-2.6-0.9c-0.9-0.3-1.8-0.4-2.9-0.4c-3.1,0-6.2,0.6-9.4,1.8
		c-3.2,1.2-6.3,2.8-9.3,4.7c-3,1.9-5.9,4-8.6,6.3c-2.7,2.3-5.1,4.6-7.2,6.8c-1.1,1.2-1.9,2.3-2.5,3.5c-0.5,1.2-0.8,2.3-0.8,3.3
		c0,1.5,0.7,2.8,2,3.6c1.3,0.9,3,1.3,4.9,1.3c1.1,0,2.4,0,3.8-0.1c1.4,0,2.9-0.1,4.3-0.2c1.5-0.1,2.9-0.1,4.3-0.2
		c1.4-0.1,2.6-0.1,3.7-0.1c2.6,0,5.1,0.4,7.4,1.1c2.4,0.7,4.5,1.8,6.3,3.2c1.8,1.4,3.3,3.2,4.4,5.3c1.1,2.1,1.7,4.5,1.7,7.2
		c0,1.7-0.3,3.4-0.8,5.1c-0.5,1.7-1.2,3.4-2.1,5.2c-0.9,1.7-1.9,3.4-3,5.1s-2.3,3.3-3.6,5c-2.3,2.9-4.8,5.7-7.5,8.3
		c-2.8,2.6-5.7,4.8-8.8,6.8c-3.1,1.9-6.4,3.4-9.9,4.6c-3.5,1.1-7.1,1.7-10.7,1.7c-1.6,0-3.2-0.1-4.9-0.4c-1.7-0.3-3.3-0.7-4.9-1.3
		s-3.2-1.3-4.6-2.1s-2.7-1.8-3.8-2.9c-1.1-1.1-1.9-2.3-2.6-3.6c-0.6-1.3-1-2.7-1-4.3c0-0.8,0.1-1.5,0.3-2.2
		C180.6,85.9,181.2,85.6,182.1,85.6z"/>
</g>
</svg>
