<svg id="Слой_1" xmlns="http://www.w3.org/2000/svg" viewBox="0 0 333 49"><style>.st0{fill:#405261;}</style><path class="st0" d="M34 23.7c0 .4 0 .9-.1 1.5-.1.7-.2 1.1-.2 1.2-.2.8-.6 1.7-1.1 2.6-.5.9-1.1 1.8-1.8 2.7-.7.8-1.3 1.6-2 2.3-.7.7-1.2 1.2-1.7 1.5-.5.4-1.1.7-1.8 1-.7.3-1.6.7-2.6 1-2 .6-3.8.9-5.3.9-1.3 0-2.5-.2-3.5-.7-1.1-.4-1.6-1.3-1.6-2.5 0-.7.2-1.3.6-1.6.4-.3 1.1-.5 2.1-.5 1.1 0 2.1.2 2.9.6.8.4 1.6.6 2.2.6.3 0 1-.1 2-.3 1-.2 1.8-.6 2.4-1 .6-.4 1.3-1 2-1.7s1.3-1.4 1.9-2.2c.6-.8 1-1.6 1.4-2.4.4-.8.5-1.6.5-2.3 0-1-.4-2-1.2-2.8-.8-.8-1.8-1.5-2.9-1.9-1.1-.5-2.1-.7-2.9-.7-1.2 0-2.2.1-2.8.3-.7.2-1.3.4-1.9.7-.6.3-1.1.4-1.5.4-.5 0-1-.2-1.5-.5s-.8-.7-.8-1.2c0-.4.1-.8.2-1.1.1-.3.3-.6.5-.8.2-.2.5-.4.7-.5l.9-.3c.3-.1.6-.1 1-.2s.7-.1 1.1-.1c.8-.1 1.3-.1 1.4-.2 1.1-.6 2.1-1.3 3.3-2.2.6-.4 1.1-.9 1.6-1.3s1-.9 1.4-1.4c.9-.9 1.3-1.7 1.3-2.3 0-.8-.3-1.4-1-1.8-.7-.4-1.8-.6-3.3-.6-.5 0-1 0-1.6.1-.6 0-1.2.1-1.8.2-.6.1-1.2.2-1.8.4-.6.1-1.2.3-1.8.5-.6.2-1.2.4-1.7.6s-1.3.3-1.8.6-.9.6-1.3.9c-.4.3-.7.6-.9 1-.1.1-.2.4-.2.8-.1.4-.1 1.1-.1 2.1v1.5c0 .6 0 1.2-.1 1.9 0 .7-.1 1.3-.1 1.8s0 .9-.1 1.3c0 .3-.1.6-.1 1.1-.1.4-.1.9-.2 1.5-.2 1.1-.3 2.1-.4 2.9-.1.8-.1 1.6-.1 2.3v.9c0 .3 0 .7.1 1.2 0 .4.1.8.1 1.2v.8c0 1.3-.2 2.3-.5 2.9-.4.6-.9.9-1.8.9-1.8 0-2.7-1.6-2.7-4.7 0-.4.2-1.6.6-3.7.2-2.1.4-3.4.5-3.9.1-.7.1-1.4.2-2 .1-.6.1-1.2.2-1.8.1-.6.1-1.2.2-2s.2-1.6.3-2.6c0-.6 0-1.1.1-1.5 0-.4.1-.6.1-.8 0-.4-.1-.8-.2-1.2-.1-.2-.1-.5-.1-.6v-.4c0-1.1.2-2.1.6-2.9.5-1.2.9-1.7 1.2-1.7l1.5-.3c.5-.1.9-.2 1.4-.4 2-.7 3.6-1.2 4.7-1.6 1.2-.4 1.9-.6 2.3-.7.7-.3 1.4-.4 2.2-.5.4-.1.9-.1 1.4-.1h3.2c.3 0 .7.1 1.3.2.5.2 1.1.4 1.6.7l1.5.9c.5.3.8.7 1 1 .2.3.4.8.5 1.5.1.3.1.6.2.9 0 .3.1.5.1.7 0 1.2-.5 2.5-1.6 3.8-1.1 1.3-2.6 2.8-4.6 4.4 1.1.2 2.2.6 3.3 1.1 1 .5 2 1.1 2.8 1.8.8.7 1.4 1.5 1.9 2.3.4.9.6 1.7.6 2.5zM67.5 20.2c0 .2-.2.6-.5 1.2-.8 1.1-1.7 2.3-2.7 3.4-1 1.1-2 2.2-3.1 3.3-1.1 1-2.3 2-3.5 2.9-1.2.9-2.4 1.7-3.6 2.3-1.2.7-2.4 1.2-3.7 1.5-1.2.4-2.4.5-3.5.5-2.4 0-4.3-.7-5.7-2.1-1.4-1.4-2-3.6-2-6.4 0-2.4.4-4.7 1.1-7 .7-2.3 2-4.4 3.8-6.5.3-.4.7-.7 1.1-1.1.4-.3.9-.6 1.3-.9.5-.3.9-.5 1.4-.6.5-.2 1-.2 1.5-.3h.5c.2 0 .4.1.7.2.2.1.5.2.7.3.2.1.4.3.6.4.4.5.8 1 1 1.5.3.5.4 1.1.4 1.7 0 .7 0 1.4-.2 2.1-.2.7-.5 1.4-1 2.1-.5.7-1 1.4-1.8 2.2-.7.8-1.6 1.6-2.7 2.4-.7.6-1.4 1.2-2.2 1.8-.8.7-1.8 1.4-2.9 2.1 0 1.5.4 2.6 1.3 3.4.9.8 2.1 1.2 3.7 1.2.9 0 1.8-.1 2.6-.3.9-.2 1.8-.5 2.6-.9.9-.4 1.7-.8 2.5-1.3s1.6-1 2.3-1.5c1.3-.9 2.5-1.9 3.5-2.8 1.1-.9 2.1-1.9 3.1-3l1.2-1.2c.7-.7 1.3-1 1.6-1 .5-.1.6.1.6.4zM50 15.6c0-.2 0-.5-.1-.7-.1-.2-.1-.4-.2-.6-.1-.2-.2-.3-.4-.4s-.3-.1-.5-.1c-.8 0-1.6.5-2.4 1.5-.8.9-1.6 2.2-2.3 3.7-.2.3-.3.7-.4 1.1s-.3.8-.4 1.3c-.1.4-.2.9-.3 1.3-.1.4-.2.8-.2 1.1.8-.6 1.5-1.1 2.2-1.7.7-.5 1.3-1 1.9-1.6.4-.3.7-.7 1.1-1.1.4-.4.7-.8 1-1.2.3-.4.6-.9.7-1.3s.3-.8.3-1.3z"/><path class="st0" d="M87.5 31.3c.4 0 .6.1.7.4.1.3.2.5.2.8 0 .4-.1.8-.6 1.3-.4.5-1 1-1.6 1.5-.7.5-1.4.9-2.2 1.2-.8.3-1.6.5-2.4.5-.2 0-.5 0-1-.1s-1-.2-1.6-.3c-.6-.1-1.3-.2-2-.4-.7-.1-1.4-.3-2-.4-.7-.1-1.2-.2-1.8-.3-.5-.1-.9-.1-1.2-.1-.8 0-1.4.1-1.9.2s-.9.3-1.3.6c-.4.2-.7.4-1 .6-.3.2-.6.4-.8.6-.3.2-.6.3-.8.4-.3.1-.6.2-1 .2-.2 0-.4-.1-.5-.2-.2-.1-.3-.3-.4-.5l-.3-.6c-.1-.2-.1-.5-.2-.7.8-1 1.7-1.9 2.5-2.8.9-.8 1.7-1.7 2.6-2.5.9-.8 1.7-1.7 2.6-2.5.8-.9 1.7-1.8 2.6-2.8 1-1.2 1.9-2.3 2.7-3.4.8-1.1 1.5-2.1 2.1-3.1-.3-.2-.7-.2-1-.2-.3 0-.8.1-1.3.1-.4 0-.8.1-1.1.1h-.9c-.3 0-.6 0-.9.1-.3 0-.7.1-1.2.1-.5.1-1 .1-1.4.2s-.8.1-1 .1c-3.4 0-5-.9-5-2.6 0-.5.2-.9.5-1.2.4-.3.8-.5 1.3-.5.1 0 .3 0 .5.1.2 0 .4.1.6.1.2.1.4.1.5.2.2.1.3.1.4.1.8.2 1.6.3 2.5.3.8 0 1.6 0 2.5-.1l2.7-.3c.9-.1 1.8-.2 2.8-.3.9-.1 1.8-.1 2.7-.1.2 0 .5 0 .8.1.3.1.5.1.8.3.2.1.5.3.6.5.2.2.3.4.3.7v.1c-.4.8-.9 1.6-1.3 2.2-.4.7-.8 1.3-1.3 1.9-.5.6-.9 1.2-1.4 1.8-.5.6-1.1 1.3-1.7 2.1-.5.6-1.1 1.3-1.8 2s-1.4 1.4-2 2.2c-.7.7-1.3 1.4-1.8 2.1-.5.7-.9 1.2-1.1 1.7 0 0 .1.1.4.1h2.1c.5 0 1 0 1.6.1.6.1 1.3.2 2 .3.7.1 1.5.2 2.3.3.8.1 1.7.1 2.7.1.5 0 1-.1 1.5-.3.5-.2.9-.4 1.3-.7.4-.2.7-.5 1-.7 0-.6.2-.7.4-.7zM117.4 21.1c0 .3-.1.8-.4 1.3-.3.6-.7 1.2-1.2 1.9s-1.1 1.4-1.8 2.2l-2.1 2.4-2.7 2.7c-1 .8-2 1.7-3.1 2.5-2.1 1.6-4.1 2.4-5.7 2.4-1.9 0-3.3-.6-4.3-1.9-1-1.3-1.7-2.8-2.1-4.5-.4-1.8-.6-3.6-.6-5.4 0-.8.1-2 .3-3.6.1-.8.2-1.5.3-2.1s.2-1.1.3-1.4c.2-.7.7-1.3 1.4-1.9.7-.6 1.4-.8 2.2-.8.4 0 .6.4.6 1.2 0 .5 0 1.1-.1 1.8s-.2 1.3-.3 2c-.2 1.2-.3 2.3-.4 3.2s-.1 1.8-.1 2.5c0 1.5.2 3.1.6 4.7.4 1.6 1.2 2.4 2.3 2.4 1.1 0 2.4-.4 3.9-1.2.7-.4 1.5-.9 2.2-1.4.7-.5 1.5-1.1 2.2-1.7.8-.6 1.5-1.3 2.2-1.9.7-.6 1.4-1.3 2.1-2 .7-.7 1.3-1.3 1.8-1.9.5-.6 1-1.1 1.4-1.7 0 0 0-.1.1-.1 0-.1.1-.1.1-.2s.1-.1.1-.2c0 0 .1-.1.1 0 .2 0 .4.2.5.5.1-.3.2 0 .2.2zm-15-18.7c0 1-.3 1.8-.8 2.5S100.4 6 99.4 6c-.6 0-1.3-.1-2-.3-.7-.2-1.1-.5-1.1-.9 0-.7.2-1.5.7-2.1.5-.7 1-1.2 1.7-1.7.5-.3.9-.5 1-.5.9 0 1.5.1 2 .4.4.3.7.8.7 1.5z"/><path class="st0" d="M142.5 20.2c0 .2-.2.6-.5 1.2-.8 1.1-1.7 2.3-2.7 3.4-1 1.1-2 2.2-3.1 3.3-1.1 1-2.3 2-3.5 2.9-1.2.9-2.4 1.7-3.6 2.3-1.2.7-2.4 1.2-3.7 1.5-1.2.4-2.4.5-3.5.5-2.4 0-4.3-.7-5.7-2.1-1.4-1.4-2-3.6-2-6.4 0-2.4.4-4.7 1.1-7 .7-2.3 2-4.4 3.8-6.5.3-.4.7-.7 1.1-1.1.4-.3.9-.6 1.3-.9.5-.3.9-.5 1.4-.6.5-.2 1-.2 1.5-.3h.5c.2 0 .4.1.7.2.2.1.5.2.7.3.2.1.4.3.6.4.4.5.8 1 1 1.5.3.5.4 1.1.4 1.7 0 .7 0 1.4-.2 2.1-.2.7-.5 1.4-1 2.1-.5.7-1 1.4-1.8 2.2-.7.8-1.6 1.6-2.7 2.4-.7.6-1.4 1.2-2.2 1.8-.8.7-1.8 1.4-2.9 2.1 0 1.5.4 2.6 1.3 3.4.9.8 2.1 1.2 3.7 1.2.9 0 1.8-.1 2.6-.3.9-.2 1.8-.5 2.6-.9.9-.4 1.7-.8 2.5-1.3s1.6-1 2.3-1.5c1.3-.9 2.5-1.9 3.5-2.8 1.1-.9 2.1-1.9 3.1-3l1.2-1.2c.7-.7 1.3-1 1.6-1 .5-.1.6.1.6.4zM125 15.6c0-.2 0-.5-.1-.7-.1-.2-.1-.4-.2-.6-.1-.2-.2-.3-.4-.4s-.3-.1-.5-.1c-.8 0-1.6.5-2.4 1.5-.8.9-1.6 2.2-2.3 3.7-.2.3-.3.7-.4 1.1s-.3.8-.4 1.3c-.1.4-.2.9-.3 1.3-.1.4-.2.8-.2 1.1.8-.6 1.5-1.1 2.2-1.7.7-.5 1.3-1 1.9-1.6.4-.3.7-.7 1.1-1.1.4-.4.7-.8 1-1.2.3-.4.6-.9.7-1.3s.3-.8.3-1.3z"/><path class="st0" d="M161.1 17.5v.4c0 .2-.1.4-.1.5-.1.2-.1.3-.2.5-.1.1-.2.2-.3.2h-2.4c-2.9.2-5.4 1.3-7.3 3.2-1.9 1.9-3.6 4.5-5 7.7-.3.7-.5 1.3-.8 2-.3.7-.5 1.4-.7 2.2-.1.4-.2.8-.3 1.1-.1.3-.1.7-.3 1 0 .1-.2.2-.4.4-.2.1-.5.2-.8.3-.3.1-.6.2-.8.2-.3.1-.4.1-.5.1-1.1.1-1.7-1-1.8-3.3 0-.6-.1-1.2-.1-1.7s0-1 .1-1.4c0-.5.1-1 .1-1.5s.1-1.1.2-1.7c.1-.8.2-1.7.3-2.8.1-1 .2-2.1.4-3.1.1-1.1.3-2.1.4-3 .2-1 .3-1.7.5-2.4s.4-1.3.7-1.6c.3-.4.7-.5 1.3-.6.2 0 .3 0 .5.1s.3.2.5.3.3.3.4.4c.1.2.2.3.2.4v1.3c0 .5-.1.9-.2 1.4l-.3 1.5c-.1.5-.2 1-.3 1.4-.2.9-.4 1.6-.5 2.2l-.3 1.8c-.1.6-.2 1.2-.2 1.9-.1.7-.2 1.5-.3 2.5.3-.6.5-1.1.7-1.5s.4-.8.5-1.1c.2-.3.3-.6.4-.8.1-.2.3-.5.4-.8.2-.3.3-.6.5-.9s.4-.7.7-1.2c1.1-1.8 2.2-3.2 3.4-4.3 1.2-1.1 2.4-1.9 3.5-2.4 1.3-.6 2.3-.9 3.2-1 .4 0 .9 0 1.4.1.6.1 1.1.2 1.6.3.5.2.9.4 1.3.7.5.3.7.6.7 1zM210.1 20.2c0 .2-.2.6-.5 1.2-.8 1.1-1.7 2.3-2.7 3.4-1 1.1-2 2.2-3.1 3.3-1.1 1-2.3 2-3.5 2.9-1.2.9-2.4 1.7-3.6 2.3-1.2.7-2.4 1.2-3.7 1.5-1.2.4-2.4.5-3.5.5-2.4 0-4.3-.7-5.7-2.1-1.4-1.4-2-3.6-2-6.4 0-2.4.4-4.7 1.1-7 .7-2.3 2-4.4 3.8-6.5.3-.4.7-.7 1.1-1.1.4-.3.9-.6 1.3-.9.5-.3.9-.5 1.4-.6.5-.2 1-.2 1.5-.3h.5c.2 0 .4.1.7.2.2.1.5.2.7.3.2.1.4.3.6.4.4.5.8 1 1 1.5.3.5.4 1.1.4 1.7 0 .7 0 1.4-.2 2.1-.2.7-.5 1.4-1 2.1-.5.7-1 1.4-1.8 2.2-.7.8-1.6 1.6-2.7 2.4-.7.6-1.4 1.2-2.2 1.8-.8.7-1.8 1.4-2.9 2.1 0 1.5.4 2.6 1.3 3.4.9.8 2.1 1.2 3.7 1.2.9 0 1.8-.1 2.6-.3.9-.2 1.8-.5 2.6-.9.9-.4 1.7-.8 2.5-1.3s1.6-1 2.3-1.5c1.3-.9 2.5-1.9 3.5-2.8 1.1-.9 2.1-1.9 3.1-3l1.2-1.2c.7-.7 1.3-1 1.6-1 .5-.1.6.1.6.4zm-17.6-4.6c0-.2 0-.5-.1-.7-.1-.2-.1-.4-.2-.6-.1-.2-.2-.3-.4-.4s-.3-.1-.5-.1c-.8 0-1.6.5-2.4 1.5-.8.9-1.6 2.2-2.3 3.7-.2.3-.3.7-.4 1.1s-.3.8-.4 1.3c-.1.4-.2.9-.3 1.3-.1.4-.2.8-.2 1.1.8-.6 1.5-1.1 2.2-1.7.7-.5 1.3-1 1.9-1.6.4-.3.7-.7 1.1-1.1.4-.4.7-.8 1-1.2.3-.4.6-.9.7-1.3s.4-.8.3-1.3z"/><path class="st0" d="M240.7 20.4c0 .2 0 .4-.1.7 0 .3-.1.5-.2.8-.1.3-.2.5-.3.7l-.3.6c-.1.1-.2.3-.4.5s-.4.4-.6.7c-.2.2-.4.5-.7.8l-.8.8c-.9.9-1.9 1.7-2.8 2.5s-1.8 1.5-2.8 2.2c-1 .6-2 1.1-3 1.5s-2.2.6-3.4.5c-.6 0-1.1-.1-1.7-.3-.6-.2-1.1-.5-1.6-.9s-.9-.8-1.3-1.4c-.4-.5-.6-1.1-.8-1.8-.4.5-.9.9-1.4 1.4l-1.5 1.5c-.5.5-1.1 1-1.6 1.5-.6.5-1.1.9-1.7 1.3-.3.2-.7.4-1.2.7-.5.2-1 .5-1.5.7-.5.2-1 .4-1.5.5-.5.1-1 .2-1.4.2-.6 0-1.2-.2-1.6-.6-.5-.4-.8-.9-1.1-1.4-.3-.6-.5-1.2-.7-1.8s-.2-1.2-.2-1.7c0-1 .1-2 .4-3.1.3-1.1.7-2.1 1.1-3.1.5-1 1-2 1.6-2.9.6-.9 1.1-1.7 1.7-2.4.6-.7 1.3-1.5 2.1-2.2.8-.7 1.6-1.4 2.5-2 .9-.6 1.7-1 2.5-1.4.8-.4 1.6-.5 2.2-.5h1c.4 0 .7 0 1.1.1.4 0 .7.1 1 .2.3.1.6.2.9.4l.5.5c.2.3.4.6.5.9.2.3.3.6.4 1 .1.3.2.6.2.8 0 .5-.1 1.2-.3 2-.2 1.1-.5 2-.7 2.9-.2.9-.3 1.8-.3 2.7 0 .5.1 1.1.3 1.6.2.5.4 1 .7 1.5.3.4.7.8 1.1 1.1.5.3 1 .4 1.5.4.9 0 1.9-.2 2.9-.6 1-.4 2-.9 3-1.6s2-1.5 3-2.4c1-.9 2-1.8 2.9-2.9.1-.1.2-.2.4-.5s.4-.4.6-.7l.6-.6c.2-.2.3-.3.4-.3.2-.1.4.2.4.9zm-20.5-1.9v-1c0-.4-.1-.7-.3-.9-.2-.2-.4-.4-.6-.4h-.7c-.5 0-1.1.1-1.5.3-.5.2-1 .4-1.5.7-.5.3-.9.6-1.4 1-.4.4-.9.8-1.3 1.2-.4.4-.7.8-1.1 1.3-.4.5-.8 1.1-1.1 1.7-.4.6-.7 1.3-1.1 2-.4.7-.7 1.4-.9 2-.3.7-.5 1.3-.6 1.9-.2.6-.2 1.2-.2 1.7 0 .2 0 .4.1.6 0 .3.1.5.2.7l.3.6c.1.2.3.3.5.3.7 0 1.6-.2 2.6-.7 1.4-.6 2.7-1.4 3.9-2.5 1.2-1.1 2.2-2.3 3-3.7 1.1-2.1 1.7-4.4 1.7-6.8z"/><path class="st0" d="M261.3 19.4c0 .2-.1.5-.2.8-.1.3-.3.6-.6.9s-.5.6-.8 1c-.3.3-.6.7-.9 1-.2.3-.5.5-.7.8l-.9.9c-.3.3-.7.7-1.2 1.1-.4.4-1 .9-1.6 1.5-.5.5-1.1 1.1-1.8 1.6-.7.6-1.3 1.1-2 1.7-.7.6-1.3 1.1-1.9 1.6-.6.5-1.2.9-1.6 1.3-1.1.9-2.1 1.8-3.1 2.6s-2 1.5-2.9 2.2c-1.9 1.3-3.4 1.9-4.5 1.9-.4 0-.8-.1-1.3-.3-.5-.2-.8-.5-.8-.8 0-1 .4-1.8 1.1-2.3.7-.5 1.9-1.1 3.4-1.7 1.5-.6 2.7-1.2 3.4-1.8.8-.6 1.1-1.4 1.1-2.4 0-.5-.5-1.5-1.6-3.1-.5-.8-1-1.5-1.4-2.1-.4-.6-.8-1.2-1-1.8-.6-1.1-.9-2.2-.9-3.4 0-1 .2-2.1.6-3.2.2-.6.5-1.3.9-1.9.4-.7.8-1.2 1.3-1.7s1-.9 1.4-1.2c.5-.3.9-.5 1.3-.4 1.3 0 2 .8 2 2.4 0 .6-.2 1.2-.7 1.8-.2.3-.5.6-.8.9-.3.3-.7.6-1.1 1-.4.3-.7.6-1 .8-.3.2-.5.5-.7.6 0 .8.2 1.7.7 2.8.3.5.6 1.1.9 1.7.3.6.7 1.3 1.2 2 .4.7.8 1.3 1.1 1.9.3.6.5 1 .7 1.2 0 .1.1.1.3.1.2 0 .6-.2 1.1-.5.5-.3 1.2-.7 1.9-1.3.7-.5 1.5-1.1 2.4-1.8.9-.7 1.7-1.4 2.6-2.2.9-.8 1.6-1.5 2.2-2.1.6-.6 1.1-1.2 1.7-1.7l1.2-1.2.4-.4c.1 0 .2 0 .3.1.1.1.2.2.3.4.1.1.1.3.2.5.3-.1.3.1.3.2z"/><path class="st0" d="M282 21.1c0 .3-.1.8-.4 1.3-.3.6-.7 1.2-1.2 1.9s-1.1 1.4-1.8 2.2l-2.1 2.4-2.7 2.7c-1 .8-2 1.7-3.1 2.5-2.1 1.6-4.1 2.4-5.7 2.4-1.9 0-3.3-.6-4.3-1.9-1-1.3-1.7-2.8-2.1-4.5-.4-1.8-.6-3.6-.6-5.4 0-.8.1-2 .3-3.6.1-.8.2-1.5.3-2.1s.2-1.1.3-1.4c.2-.7.7-1.3 1.4-1.9.7-.6 1.4-.8 2.2-.8.4 0 .6.4.6 1.2 0 .5 0 1.1-.1 1.8s-.2 1.3-.3 2c-.2 1.2-.3 2.3-.4 3.2s-.1 1.8-.1 2.5c0 1.5.2 3.1.6 4.7.4 1.6 1.2 2.4 2.3 2.4 1.1 0 2.4-.4 3.9-1.2.7-.4 1.5-.9 2.2-1.4.7-.5 1.5-1.1 2.2-1.7.8-.6 1.5-1.3 2.2-1.9.7-.6 1.4-1.3 2.1-2 .7-.7 1.3-1.3 1.8-1.9.5-.6 1-1.1 1.4-1.7 0 0 0-.1.1-.1 0-.1.1-.1.1-.2s.1-.1.1-.2c0 0 .1-.1.1 0 .2 0 .4.2.5.5.2-.3.2 0 .2.2zM267 2.4c0 1-.3 1.8-.8 2.5-.5.8-1.2 1.1-2.2 1.1-.6 0-1.3-.1-2-.3-.7-.2-1.1-.5-1.1-.9 0-.7.2-1.5.7-2.1.5-.7 1-1.2 1.7-1.7.5-.3.9-.5 1-.5.9 0 1.5.1 2 .4.5.3.7.8.7 1.5z"/><path class="st0" d="M318.4 19.6c0 .3 0 .6-.1.9-.1.3-.2.6-.4.9-.1.3-.3.6-.5.9s-.4.6-.5.8c-.4.7-1 1.4-1.6 2.1-.6.7-1.2 1.4-1.9 2.1-.7.7-1.4 1.3-2.1 1.9-.7.6-1.4 1.1-2.1 1.6-.6.4-1.1.7-1.6 1s-1 .6-1.5.8-1 .4-1.6.6-1.2.2-1.8.2c-1.3 0-2.3-.3-3.1-1-.4-.3-.7-.7-1-1.3-.3-.5-.6-1.1-.8-1.7-.2-.6-.4-1.3-.6-2-.2-.7-.3-1.4-.4-2.1-.1-.9-.3-1.6-.4-2.3-.1-.7-.3-1.3-.4-1.7-.2-.5-.4-.8-.6-1.1-.2-.3-.5-.4-.9-.4-.3 0-.6 0-.8.1-.3.1-.5.2-.8.4s-.6.4-.9.8c-.3.3-.7.8-1.2 1.3s-1 1.2-1.5 2c-.6.8-1.3 1.7-2 2.8-.4.5-.8 1.1-1.4 1.8-.5.6-1.1 1.3-1.6 1.8-.5.6-1.1 1.1-1.6 1.5-.5.4-1 .7-1.4.8-1.3-.3-2-2-2-5 0-.8.1-2 .3-3.7.1-.7.2-1.5.3-2.4.1-.8.3-1.6.5-2.5l.6-2.4c.2-.8.5-1.5.8-2.1.2-.3.3-.5.5-.7.2-.2.3-.3.5-.4.2-.1.4-.1.6-.2h.6c.2 0 .5.2.7.5.2.3.3.8.3 1.4 0 .4 0 .7-.1 1-.1.3-.1.7-.3 1-.1.3-.2.7-.3 1.1-.1.4-.2.8-.4 1.3-.1.4-.2.9-.3 1.4l-.3 1.5-.3 1.5c-.1.5-.1.9-.1 1.3 0 .3 0 .6.1.8.4 0 1.1-.7 2.1-1.9.5-.6 1.1-1.3 1.7-2.1.6-.7 1.3-1.6 2-2.5.5-.7 1-1.3 1.5-1.9.5-.6 1-1.1 1.6-1.5.6-.4 1.1-.8 1.8-1 .6-.3 1.3-.4 2.1-.4s1.5.2 2 .5 1 .8 1.3 1.4c.3.6.6 1.3.7 2.2.2.8.3 1.8.4 2.8.1.9.2 1.7.3 2.5.1.8.2 1.6.5 2.3.2.7.6 1.2 1.1 1.6s1.1.6 2 .6c.7 0 1.3-.2 2.1-.5.7-.3 1.5-.7 2.3-1.3.8-.5 1.6-1.2 2.5-1.9.8-.7 1.7-1.5 2.6-2.4.4-.3.7-.8 1.2-1.3l1.2-1.5c.4-.5.8-.9 1.1-1.2.4-.3.6-.5.8-.5.1 0 .2 0 .4.1 0 .6.1.8.1 1z"/><path class="st0" d="M331.5 18.4c-.1 1.1-.2 2.2-.3 3.5-.1 1.3-.2 2.7-.3 4.3 0 .6-.1 1.2-.2 2-.1.7-.2 1.5-.3 2.3s-.2 1.5-.3 2.3c-.1.8-.2 1.4-.3 2.1-.1.9-.3 1.8-.5 2.8-.2 1-.5 1.9-.8 2.8-.3.9-.7 1.8-1.2 2.7-.5.8-1 1.6-1.7 2.2s-1.4 1.1-2.2 1.5c-.8.4-1.8.6-2.9.6-.7 0-1.4-.1-2.1-.3-.7-.2-1.4-.4-2.1-.7-.7-.3-1.3-.6-2-1-.6-.4-1.2-.8-1.8-1.3-.6-.5-1.1-1-1.6-1.5s-.8-1-1.1-1.6c-.3-.5-.5-1-.5-1.5s.2-.7.5-.7c.1 0 .2.1.3.2.1 0 .1.1.2.2s.2.2.2.3c.1.1.1.2.2.2l.1.1c3 2.7 6.1 4.1 9.5 4.1 1.1 0 2-.3 2.7-.8.7-.5 1.3-1.2 1.7-2s.7-1.7 1-2.7l.6-3c.1-.6.2-1.2.2-1.8.1-.6.1-1.3.2-1.9.1-.7.1-1.4.2-2.1.1-.7.1-1.5.2-2.4-.6.7-1.4 1.4-2.4 2.1-1 .8-2 1.5-3.1 2.1-1.1.6-2.2 1.2-3.3 1.6-1.1.4-2.1.6-3.1.6-.4 0-.8-.1-1.1-.3-.3-.2-.6-.4-.9-.8-.2-.3-.4-.8-.6-1.3s-.2-1.1-.2-1.7c0-.9.2-1.8.5-2.8.3-1 .7-2 1.2-3s1-2 1.6-2.9c.6-.9 1.1-1.8 1.7-2.5.6-.7 1.2-1.5 2-2.3.8-.8 1.6-1.5 2.5-2.2.9-.7 1.8-1.2 2.8-1.6 1-.4 1.9-.6 2.8-.6.8 0 1.6.2 2.3.5.7.4 1.2.9 1.6 1.6.1.2.1.4.2.7v1.1c0 .4-.1.9-.1 1.4.1.4 0 .9 0 1.4zm-3.8 4.2c.1-.5.1-1 .2-1.7.1-.6.1-1.5.2-2.4 0-.5.1-1 .1-1.5s0-.9-.1-1.2c-.1-.4-.4-.7-.7-.8-.4-.1-.9-.2-1.7-.2-.7.5-1.5 1-2.2 1.7-.7.7-1.4 1.4-2.1 2.2-.7.8-1.3 1.6-1.8 2.4-.6.8-1.1 1.6-1.5 2.4-.5.9-.8 1.7-1.1 2.6-.3.9-.4 1.6-.4 2.2 0 .3 0 .5.1.6.1.2.2.3.4.4.2.1.3.2.6.2.2 0 .4.1.6.1.5 0 1.1-.1 1.7-.3.6-.2 1.2-.5 1.8-.8.6-.3 1.2-.7 1.7-1.1.6-.4 1-.7 1.4-1 .2-.1.4-.3.7-.6.3-.3.6-.6.8-.9.3-.3.5-.7.7-1.1.4-.5.6-.9.6-1.2z"/></svg>