<svg xmlns="http://www.w3.org/2000/svg" width="150" height="180" viewBox="0 0 150 180"><path fill-rule="evenodd" clip-rule="evenodd" fill="#16313B" d="M77.618 30.333c22.455 0 40.66 18.204 40.66 40.66 0 22.454-18.205 40.66-40.66 40.66-22.456 0-40.66-18.206-40.66-40.66 0-22.455 18.205-40.66 40.66-40.66z"/><path fill-rule="evenodd" clip-rule="evenodd" fill="#116360" d="M73.163 39.762c17.248 0 31.23 13.983 31.23 31.23 0 17.25-13.982 31.23-31.23 31.23-17.25 0-31.232-13.98-31.232-31.23 0-17.247 13.984-31.23 31.233-31.23z"/><path fill="#24A9A8" d="M52.2 71.342c1.082 4.28 3.104 7.85 5.367 10.96 2.296 3.084 4.924 5.65 7.724 7.738 5.655 4.137 11.733 6.59 18.167 7.63l.142-5.26c-5.81-.28-11.895-1.963-17.367-5.256-2.742-1.666-5.362-3.81-7.688-6.476-2.288-2.656-4.423-5.943-5.612-9.686l-.734.35z"/><path fill="#24A9A8" d="M82.985 93.72c-5.943-.44-12.13-2.352-17.65-5.928-2.763-1.808-5.39-4.113-7.703-6.953-2.14-2.667-4.128-5.913-5.29-9.565l.588-.282c1.19 3.743 3.325 7.03 5.612 9.686 2.326 2.666 4.946 4.81 7.688 6.475 5.473 3.293 11.558 4.977 17.366 5.256l-.142 5.262c-.223-.035-.445-.077-.67-.117l.2-3.834zM86.924 65.847c-.496 3.05-1.635 5.796-2.917 8.047-1.31 2.262-2.843 4.125-4.492 5.613-.453.407-.92.788-1.393 1.147l.277 3.008c.655-.59 1.3-1.228 1.932-1.912 1.658-1.83 3.166-4.027 4.423-6.62 1.234-2.612 2.28-5.576 2.667-9.05l-.498-.233z"/><path fill="#24A9A8" d="M79.515 79.507c1.65-1.488 3.184-3.352 4.492-5.613 1.282-2.25 2.42-4.996 2.917-8.047l.498.235c-.008.076-.02.146-.03.22l-.022-.01c-.497 3.05-1.637 5.795-2.92 8.046-1.307 2.263-2.842 4.125-4.49 5.614-.454.407-.92.788-1.392 1.148l.202 2.215c-.124.115-.247.237-.37.35l-.277-3.01c.473-.36.94-.74 1.392-1.148z"/><path fill="#24A9A8" d="M68.477 66.818c10.59 19.02 9.736 39.61 3.572 58.98h13.52c1.576-11.344 1.806-18.844-.664-30.02-2.434-11.173-7.362-21.677-14.153-30.476l-2.276 1.516z"/><path fill="#24A9A8" d="M83.394 96.03c-2.39-10.962-7.18-21.275-13.775-29.972l1.134-.756c6.79 8.8 11.72 19.303 14.153 30.477 2.47 11.174 2.24 18.674.664 30.018h-1.477c1.544-11.203 1.753-18.674-.7-29.767z"/><path fill-rule="evenodd" clip-rule="evenodd" fill="#FFF" d="M22.442 22.042s.673 6.33 3.623 8.38c2.95 2.05 8.18.82 8.18.82s-5.38.747-7.455 3.733c-2.024 2.914-.746 8.07-.746 8.07s-.672-5.328-3.624-7.38c-2.95-2.05-8.18-.82-8.18-.82s5.38-.747 7.456-3.733c2.025-2.913.746-9.07.746-9.07z"/><path fill-rule="evenodd" clip-rule="evenodd" fill="#24A9A8" d="M123.453 15.347s.89 7.045 4.79 9.755c3.9 2.71 10.812 1.087 10.812 1.087s-7.112.985-9.855 4.934c-2.677 3.852-.986 10.668-.986 10.668s-.89-7.045-4.79-9.755c-3.9-2.71-10.813-1.087-10.813-1.087s7.113-.986 9.856-4.935c2.677-3.85.987-10.668.987-10.668z"/><path fill="#FFF" d="M22.435 111.024l-8.805-3.928-6.617-7.015 8.805 3.93 6.617 7.014z"/><path fill="#FFF" d="M20.316 97.67l-3.928 8.806-7.013 6.617 3.928-8.806 7.013-6.616z"/><path fill-rule="evenodd" clip-rule="evenodd" fill="#24A9A8" d="M66 10.347c1.38 0 2.5 1.12 2.5 2.5s-1.12 2.5-2.5 2.5-2.5-1.12-2.5-2.5 1.12-2.5 2.5-2.5z"/><path fill-rule="evenodd" clip-rule="evenodd" fill="#FFF" d="M22.435 75c1.104 0 2 .896 2 2 0 1.105-.896 2-2 2s-2-.895-2-2c0-1.104.896-2 2-2z"/><path fill-rule="evenodd" clip-rule="evenodd" fill="#24A9A8" d="M44 111.643c1.104 0 2 .896 2 2s-.896 2-2 2-2-.896-2-2 .896-2 2-2z"/><path fill-rule="evenodd" clip-rule="evenodd" fill="#FFF" d="M133 83c2.21 0 4 1.79 4 4s-1.79 4-4 4-4-1.79-4-4 1.79-4 4-4z"/><g fill="#FFF"><path d="M43.417 153.052c0 1.51-.24 2.867-.72 4.076-.482 1.21-1.14 2.242-1.97 3.1-.834.858-1.802 1.516-2.906 1.97-1.104.455-2.268.683-3.49.683-.6 0-1.28-.07-2.047-.214-.768-.143-1.45-.318-2.048-.526l-5.655.78v-26.364l6.045-.74-.04 10.257c.573-.598 1.275-1.157 2.107-1.678.832-.52 1.833-.78 3.003-.78 1.118 0 2.15.222 3.1.664.95.44 1.762 1.07 2.44 1.89.675.82 1.208 1.808 1.598 2.965s.584 2.46.584 3.917zm-6.045.312c0-1.56-.315-2.775-.944-3.646-.63-.87-1.562-1.307-2.795-1.307-.668 0-1.234.118-1.696.352-.463.234-.9.533-1.31.897v7.994c.744.494 1.657.74 2.736.74 1.285 0 2.274-.46 2.968-1.384.695-.922 1.042-2.138 1.042-3.646zM65.178 153.208c0 1.508-.26 2.866-.78 4.075-.52 1.21-1.223 2.23-2.106 3.062-.884.833-1.924 1.47-3.12 1.91-1.196.443-2.47.664-3.822.664-1.353 0-2.62-.21-3.803-.625-1.184-.416-2.204-1.033-3.062-1.853s-1.534-1.826-2.028-3.022c-.494-1.195-.74-2.56-.74-4.095s.252-2.905.76-4.114c.507-1.208 1.21-2.228 2.106-3.06s1.943-1.464 3.14-1.893c1.195-.43 2.482-.644 3.86-.644 1.378 0 2.652.214 3.822.644 1.17.43 2.184 1.053 3.042 1.872.858.817 1.527 1.818 2.01 3.002.48 1.183.72 2.542.72 4.076zm-5.967.06c0-1.528-.318-2.752-.955-3.672-.637-.92-1.58-1.38-2.828-1.38s-2.184.46-2.808 1.38c-.625.92-.937 2.156-.937 3.71s.318 2.778.955 3.67c.637.895 1.58 1.342 2.828 1.342s2.184-.453 2.808-1.36c.625-.907.937-2.138.937-3.69zM80.31 162.334V151.61c0-1.094-.224-1.847-.673-2.264-.45-.415-1.07-.624-1.866-.624-.666 0-1.275.137-1.827.41-.552.272-1.02.592-1.405.955v12.246h-6.045V144.51l6.045-.74-.04 2.964c.802-.91 1.72-1.658 2.752-2.243s2.13-.876 3.294-.876c1.832 0 3.26.553 4.28 1.657 1.02 1.106 1.53 2.634 1.53 4.583v12.48h-6.043zM105.23 156.952c0 .806-.175 1.573-.526 2.3-.35.73-.877 1.366-1.58 1.912s-1.565.975-2.593 1.287c-1.026.313-2.202.47-3.528.47-.624 0-1.287-.034-1.99-.1-.7-.064-1.39-.168-2.065-.31-.677-.145-1.333-.313-1.97-.508-.638-.195-1.19-.423-1.658-.683l1.17-4.33c1.065.546 2.17.97 3.314 1.268 1.144.3 2.25.448 3.315.448 1.637 0 2.456-.493 2.456-1.482 0-.52-.254-.902-.76-1.15-.508-.246-1.282-.487-2.32-.722-1.04-.207-1.99-.468-2.85-.78-.856-.31-1.585-.7-2.183-1.17-.6-.468-1.06-1.026-1.385-1.677-.325-.65-.487-1.416-.487-2.3 0-.858.183-1.64.547-2.34s.884-1.313 1.56-1.834c.677-.52 1.515-.922 2.516-1.208s2.126-.43 3.374-.43c.598 0 1.234.04 1.91.118.677.077 1.347.188 2.01.33.662.145 1.293.313 1.89.508.6.195 1.12.396 1.562.604l-1.205 4.29c-1.036-.52-2.118-.923-3.244-1.21s-2.116-.428-2.97-.428c-1.477 0-2.214.455-2.214 1.365 0 .493.27.863.815 1.11.544.247 1.31.475 2.293.683 1.062.233 2.014.507 2.854.818.842.313 1.555.697 2.137 1.15.583.457 1.03 1.01 1.34 1.66.31.652.466 1.432.466 2.342zM118.256 160.15c-.65.754-1.37 1.403-2.164 1.95s-1.813.818-3.062.818c-.78 0-1.508-.13-2.184-.39-.677-.26-1.262-.617-1.756-1.073-.494-.454-.884-.987-1.17-1.6-.286-.61-.43-1.267-.43-1.97 0-.856.177-1.662.527-2.417.352-.754.942-1.417 1.774-1.988.833-.572 1.938-1.04 3.316-1.404 1.378-.364 3.08-.57 5.108-.624v-.352c0-.96-.253-1.663-.76-2.105s-1.32-.663-2.438-.663c-.937 0-1.93.176-2.983.526-1.054.352-2.113.787-3.18 1.307l-1.247-4.407c.962-.52 2.164-1.007 3.607-1.462s3.022-.683 4.738-.683c1.562 0 2.874.175 3.94.526 1.065.35 1.924.863 2.574 1.54.65.676 1.11 1.5 1.384 2.476.273.976.396 2.1.37 3.374l-.038 5.382c0 .624.09 1.014.272 1.17s.585.26 1.21.312l-.586 4.29c-1.976.26-3.484.15-4.523-.33-1.04-.48-1.77-1.216-2.185-2.204h-.112zm-.04-5.89c-1.87.21-3.184.515-3.937.918-.756.403-1.132 1.008-1.132 1.813 0 .6.208 1.073.624 1.424.415.352.96.527 1.638.527.598 0 1.137-.11 1.618-.33.48-.222.878-.514 1.19-.878v-3.47zM134.948 138.427c0 1.04-.312 1.833-.937 2.38s-1.494.818-2.61.818c-1.094 0-1.958-.273-2.595-.82-.638-.545-.956-1.338-.956-2.378 0-1.065.317-1.872.955-2.418.637-.547 1.5-.82 2.594-.82 1.116 0 1.987.273 2.61.82s.938 1.35.938 2.417zm-6.552 23.907V144.51l6.046-.74v18.564h-6.046z"/></g></svg>