<?xml version="1.0" encoding="utf-8"?>
<!-- Generator: Adobe Illustrator 21.0.0, SVG Export Plug-In . SVG Version: 6.00 Build 0)  -->
<svg version="1.1" id="Слой_1" xmlns="http://www.w3.org/2000/svg" xmlns:xlink="http://www.w3.org/1999/xlink" x="0px" y="0px"
	 viewBox="0 0 295 87" style="enable-background:new 0 0 295 87;" xml:space="preserve">
<style type="text/css">
	.st0{fill:#FFBA6F;}
</style>
<g>
	<path class="st0" d="M11.5,11.8c0-0.7-0.1-1.3-0.2-1.8C11.2,9.5,11,9,10.7,8.7C10.4,8.4,10,8.2,9.4,8c-0.5-0.2-1.2-0.2-2-0.2
		c-1.1,0-2.5,0.1-4.3,0.4L2.9,5.9c1.5-0.3,3.2-0.6,5-0.9c1.8-0.3,3.7-0.6,5.6-0.8c1.9-0.3,3.9-0.5,5.8-0.6c1.9-0.2,3.8-0.2,5.6-0.2
		c1.5,0,2.9,0.1,4.3,0.2s2.8,0.4,4,0.7c1.3,0.3,2.4,0.8,3.5,1.4s2,1.3,2.8,2.2c0.8,0.9,1.4,1.9,1.8,3.1c0.4,1.2,0.7,2.5,0.7,4
		c0,2.2-0.4,4.1-1.2,5.8S39,24,37.7,25.2c-1.3,1.3-2.9,2.3-4.6,3.2c-1.7,0.9-3.6,1.5-5.5,2v0.2c2.5,0.2,4.9,0.6,7,1.3
		c2.1,0.7,4,1.6,5.6,2.8s2.8,2.7,3.7,4.5c0.9,1.8,1.3,3.9,1.3,6.4c0,2.1-0.3,3.9-0.9,5.6c-0.6,1.7-1.4,3.1-2.3,4.4
		c-1,1.3-2.2,2.4-3.5,3.3c-1.4,0.9-2.8,1.7-4.4,2.3c-1.6,0.6-3.3,1-5,1.3c-1.8,0.3-3.5,0.4-5.3,0.4c-1.5,0-2.9-0.1-4.3-0.3
		c-1.4-0.2-2.8-0.4-4.4-0.6l-4.9,0.6l-0.5-0.1c0.2-2.2,0.4-4.6,0.6-7.2s0.3-5.3,0.5-8.1c0.1-2.8,0.2-5.7,0.3-8.7c0.1-3,0.2-6,0.2-9
		c0.1-3,0.1-6,0.1-9C11.5,17.5,11.5,14.6,11.5,11.8z M16.2,59.1c1.3,0.3,2.5,0.5,3.6,0.7c1.2,0.1,2.3,0.2,3.5,0.2
		c2.1,0,4.1-0.3,5.9-0.8c1.8-0.5,3.4-1.3,4.8-2.4c1.3-1.1,2.4-2.5,3.2-4.3c0.8-1.7,1.2-3.8,1.2-6.2c0-2.3-0.4-4.2-1.2-5.9
		c-0.8-1.7-1.9-3.1-3.4-4.3c-1.5-1.1-3.3-2-5.5-2.6c-2.2-0.6-4.6-0.9-7.4-0.9c-0.5,0-1.1,0-1.7,0c-0.6,0-1.1,0.1-1.7,0.1
		c0,1-0.1,2.2-0.1,3.6c-0.1,1.4-0.1,2.9-0.2,4.4c-0.1,1.6-0.1,3.2-0.2,4.9s-0.2,3.3-0.2,4.9c-0.1,1.6-0.2,3.1-0.3,4.6
		C16.4,56.6,16.3,57.9,16.2,59.1z M18.1,6.6c0,1.1,0,2.5-0.1,4c0,1.6-0.1,3.4-0.1,5.4c-0.1,2-0.1,4.2-0.2,6.5
		c-0.1,2.3-0.1,4.8-0.2,7.4c1.5,0,2.9-0.2,4.4-0.4c1.4-0.2,2.8-0.5,4.1-1c1.3-0.4,2.5-1,3.6-1.7s2.1-1.5,2.9-2.5
		c0.8-1,1.5-2.1,1.9-3.4c0.5-1.3,0.7-2.8,0.7-4.4c0-1.9-0.3-3.6-0.9-4.9c-0.6-1.3-1.5-2.4-2.6-3.2s-2.4-1.4-3.8-1.8
		c-1.5-0.4-3-0.5-4.7-0.5c-0.8,0-1.6,0-2.5,0.1C19.8,6.4,19,6.5,18.1,6.6z"/>
	<path class="st0" d="M50.6,47.7c0-1.7,0.2-3.4,0.5-5.2c0.4-1.8,0.9-3.5,1.6-5.1c0.7-1.7,1.6-3.2,2.6-4.6c1-1.4,2.2-2.7,3.5-3.8
		c1.3-1.1,2.8-1.9,4.5-2.6c1.6-0.6,3.4-0.9,5.4-0.9c2.2,0,4.1,0.5,5.8,1.4c1.7,0.9,3.1,2.1,4.2,3.6c1.1,1.5,2,3.2,2.6,5.1
		c0.6,1.9,0.9,3.9,0.9,5.9c0,1.7-0.2,3.4-0.5,5.2c-0.4,1.8-0.9,3.5-1.6,5.1c-0.7,1.7-1.6,3.2-2.6,4.6c-1,1.4-2.2,2.7-3.5,3.8
		c-1.3,1.1-2.8,1.9-4.5,2.6c-1.6,0.6-3.4,0.9-5.4,0.9c-2.2,0-4.1-0.5-5.8-1.4c-1.7-0.9-3.1-2.1-4.2-3.6c-1.1-1.5-2-3.2-2.6-5.1
		C50.9,51.6,50.6,49.6,50.6,47.7z M56.7,45.2c0,1.2,0.1,2.3,0.3,3.5c0.2,1.2,0.5,2.3,0.8,3.4c0.4,1.1,0.8,2.1,1.4,3.1
		c0.5,1,1.2,1.8,2,2.5c0.8,0.7,1.6,1.3,2.5,1.7s2,0.6,3.1,0.6c1.2,0,2.3-0.3,3.3-0.8s1.8-1.2,2.4-2.1c0.7-0.9,1.3-1.9,1.7-3
		c0.4-1.1,0.8-2.3,1.1-3.5c0.3-1.2,0.5-2.4,0.6-3.6c0.1-1.2,0.2-2.3,0.2-3.3c0-1.2-0.1-2.3-0.3-3.5c-0.2-1.2-0.5-2.3-0.8-3.4
		c-0.4-1.1-0.8-2.1-1.4-3.1c-0.6-1-1.2-1.8-2-2.5C70.8,30.5,70,30,69,29.6s-2-0.6-3.1-0.6c-1.2,0-2.3,0.3-3.3,0.8
		c-0.9,0.5-1.8,1.2-2.4,2.1c-0.7,0.9-1.3,1.9-1.7,3c-0.4,1.1-0.8,2.3-1.1,3.5c-0.3,1.2-0.5,2.4-0.6,3.6
		C56.8,43.2,56.7,44.3,56.7,45.2z"/>
	<path class="st0" d="M98.3,30.5c0,1.2,0,2.4-0.1,3.7c-0.1,1.3-0.2,2.6-0.3,4c-0.1,1.4-0.2,2.7-0.4,4s-0.2,2.6-0.4,3.8
		c-0.1,1.2-0.2,2.3-0.3,3.3c-0.1,1-0.1,1.8-0.1,2.5c0,2,0.4,3.5,1.1,4.4c0.8,0.9,1.8,1.4,3,1.4c1.4,0,2.9-0.8,4.4-2.3
		c1.5-1.5,2.9-3.8,4.3-6.8c1.4-3,2.5-6.3,3.5-10c1-3.7,1.6-7.7,1.9-12l5.4-0.7l0.4,0c-0.2,1.6-0.3,3.3-0.4,5.1s-0.2,3.6-0.3,5.4
		s-0.2,3.6-0.2,5.3s-0.1,3.3-0.1,4.8c0,2.8,0.2,5,0.5,6.8c0.3,1.8,0.7,3.1,1.2,4.1c0.5,1,1.1,1.7,1.7,2.1c0.7,0.4,1.3,0.6,2,0.6
		c0.4,0,0.8-0.1,1.2-0.2s0.7-0.2,1.1-0.4c0.3-0.1,0.6-0.3,0.9-0.5c0.3-0.2,0.5-0.3,0.7-0.5l0.8,1.2c-0.5,0.5-1,1-1.7,1.4
		c-0.6,0.4-1.3,0.8-2,1.2c-0.7,0.3-1.4,0.6-2.2,0.8c-0.8,0.2-1.5,0.3-2.3,0.3c-1,0-1.9-0.2-2.9-0.6c-0.9-0.4-1.7-1-2.5-2
		s-1.3-2.1-1.7-3.7s-0.6-3.4-0.6-5.7c0-0.7,0-1.5,0.1-2.2c0-0.7,0.1-1.5,0.2-2.4c0.1-0.8,0.2-1.7,0.3-2.7c0.1-1,0.2-2,0.4-3.2
		l-0.3-0.1c-1.2,4.2-2.4,7.8-3.7,10.7c-1.3,2.9-2.7,5.2-4.1,7c-1.4,1.8-2.8,3-4.3,3.8s-2.8,1.1-4.1,1.1c-1,0-1.9-0.2-2.8-0.5
		s-1.7-0.9-2.4-1.6c-0.7-0.8-1.2-1.7-1.7-3c-0.4-1.2-0.6-2.8-0.6-4.6c0-1.2,0.1-2.6,0.2-4.1c0.1-1.6,0.3-3.2,0.4-5
		c0.2-1.8,0.3-3.6,0.4-5.5c0.1-1.9,0.2-3.8,0.2-5.6c0-0.7,0-1.4-0.1-1.9c-0.1-0.5-0.2-1-0.3-1.3c-0.2-0.4-0.4-0.6-0.7-0.8
		c-0.3-0.2-0.8-0.3-1.4-0.3c-0.6,0-1.3,0.1-2.2,0.3c-0.9,0.2-1.9,0.4-2.9,0.7l-0.4-1.8c1.4-0.5,2.7-0.9,3.9-1.3
		c1.2-0.4,2.3-0.7,3.2-0.9c0.9-0.2,1.7-0.4,2.4-0.5c0.7-0.1,1.1-0.2,1.4-0.2c0.6,0,1.1,0.1,1.5,0.3c0.4,0.2,0.7,0.5,0.9,1
		c0.2,0.4,0.4,0.9,0.5,1.5C98.2,29,98.3,29.7,98.3,30.5z"/>
	<path class="st0" d="M135.8,33.1c0-0.7-0.1-1.3-0.2-1.8c-0.1-0.5-0.3-0.9-0.5-1.1s-0.5-0.5-0.8-0.6c-0.3-0.1-0.7-0.2-1.1-0.2
		c-0.6,0-1.3,0.1-2.2,0.3c-0.8,0.2-1.8,0.4-2.9,0.7l-0.4-1.8c1.2-0.4,2.4-0.8,3.5-1.2c1.1-0.3,2.1-0.6,3.1-0.9s1.8-0.4,2.5-0.6
		c0.7-0.1,1.3-0.2,1.7-0.2c1,0,1.7,0.3,2.3,0.9s0.8,1.6,0.8,3c0,0.2,0,0.6-0.1,1.2c0,0.6-0.1,1.4-0.1,2.3c-0.1,0.9-0.1,2-0.2,3.3
		c-0.1,1.2-0.2,2.5-0.3,3.9c-0.1,1.4-0.2,2.8-0.4,4.3c-0.1,1.5-0.3,3-0.4,4.4l0.2,0c1.3-4.4,2.7-8.1,4.1-11.1c1.5-3,3-5.4,4.5-7.3
		c1.5-1.9,3-3.2,4.5-4c1.5-0.8,2.9-1.2,4.3-1.2c0.9,0,1.9,0.2,2.7,0.5s1.7,0.9,2.3,1.7c0.7,0.8,1.2,1.8,1.6,3
		c0.4,1.2,0.6,2.7,0.6,4.5c0,0.5,0,1.2-0.1,2c-0.1,0.9-0.1,1.8-0.2,2.9c-0.1,1-0.2,2.2-0.3,3.3c-0.1,1.2-0.2,2.3-0.3,3.5
		c-0.1,1.1-0.2,2.2-0.2,3.2c-0.1,1-0.1,1.9-0.1,2.7c0,1.3,0.1,2.4,0.2,3.2c0.1,0.8,0.3,1.5,0.5,2s0.6,0.8,1,1s0.9,0.3,1.5,0.3
		c0.9,0,1.8-0.1,2.7-0.4c0.9-0.2,1.9-0.6,2.9-1l0.5,1.3c-0.6,0.5-1.4,1-2.3,1.5s-1.9,1-2.9,1.4s-2,0.8-3.1,1c-1,0.3-1.9,0.4-2.7,0.4
		c-0.9,0-1.6-0.2-2.2-0.7s-0.9-1.2-1.2-2c-0.3-0.8-0.4-1.8-0.5-3c-0.1-1.1-0.1-2.4-0.1-3.7c0-1.6,0.1-3.2,0.2-4.9
		c0.1-1.7,0.2-3.3,0.4-4.8s0.3-2.9,0.4-4.2s0.2-2.2,0.2-3c0-2-0.4-3.4-1.1-4.4s-1.7-1.4-3-1.4c-1,0-2,0.4-3.1,1.2
		c-1.1,0.8-2.2,2-3.2,3.4s-2.1,3.2-3.1,5.1c-1,2-1.9,4.1-2.7,6.4c-0.8,2.3-1.5,4.7-2,7.2c-0.5,2.5-0.9,5-1,7.5l-5.3,0.7l-0.4,0
		c0.1-1.6,0.3-3.4,0.4-5.3c0.1-1.9,0.2-3.8,0.3-5.8s0.2-3.9,0.3-5.8c0.1-1.9,0.1-3.7,0.2-5.4c0.1-1.7,0.1-3.2,0.1-4.5
		S135.8,33.8,135.8,33.1z"/>
	<path class="st0" d="M196.8,36.2c0.5-0.9,0.7-1.9,0.7-2.8c0-0.7-0.1-1.3-0.3-1.9s-0.6-1.1-1-1.5c-0.5-0.4-1-0.8-1.7-1.1
		c-0.7-0.3-1.5-0.4-2.4-0.4c-1.3,0-2.5,0.2-3.6,0.7c-1,0.5-2,1.1-2.8,1.9s-1.5,1.8-2.1,2.8s-1,2.2-1.4,3.4s-0.6,2.5-0.8,3.7
		c-0.2,1.3-0.3,2.5-0.3,3.7c0,2.2,0.3,4.2,0.9,6c0.6,1.8,1.3,3.3,2.3,4.6c1,1.3,2.1,2.2,3.4,2.9c1.3,0.7,2.7,1,4.1,1
		c1.5,0,3.1-0.4,4.7-1.2c1.6-0.8,3.1-2.1,4.6-3.9c0.1,0.1,0.2,0.1,0.4,0.2c0.2,0.1,0.3,0.2,0.4,0.3c0.1,0.1,0.3,0.2,0.4,0.4
		c0.1,0.1,0.2,0.2,0.2,0.3c0,0.1,0,0.1,0,0.1l-0.1,0.1c-1.6,2.7-3.6,4.6-5.9,6s-4.8,2-7.6,2c-1.5,0-2.9-0.2-4.1-0.6
		c-1.3-0.4-2.4-1-3.4-1.7s-1.9-1.6-2.7-2.6c-0.8-1-1.4-2.1-1.9-3.3c-0.5-1.2-0.9-2.4-1.2-3.7s-0.4-2.6-0.4-3.9
		c0-1.8,0.2-3.6,0.6-5.3c0.4-1.8,1-3.5,1.7-5.2s1.7-3.2,2.7-4.6c1.1-1.4,2.3-2.7,3.7-3.7c1.4-1.1,2.9-1.9,4.5-2.5
		c1.6-0.6,3.4-0.9,5.3-0.9c1.4,0,2.7,0.2,3.9,0.5c1.2,0.3,2.2,0.8,3.1,1.4c0.9,0.6,1.6,1.4,2.1,2.2c0.5,0.9,0.7,1.8,0.7,2.9
		c0,0.7-0.1,1.3-0.3,1.8s-0.5,1-0.9,1.4s-0.8,0.7-1.3,0.9c-0.5,0.2-1.1,0.3-1.7,0.3c-0.4,0-0.8,0-1.2-0.1s-0.8-0.2-1.2-0.4
		L196.8,36.2z"/>
	<path class="st0" d="M233.2,54.4c0.1,0.1,0.2,0.1,0.4,0.2c0.2,0.1,0.3,0.2,0.4,0.3c0.1,0.1,0.3,0.2,0.4,0.4s0.2,0.3,0.2,0.4
		c0,0.1,0,0.1-0.1,0.2c-0.9,1.3-2,2.5-3.1,3.4c-1.1,1-2.2,1.8-3.4,2.4s-2.4,1.1-3.6,1.4c-1.2,0.3-2.4,0.5-3.6,0.5
		c-2,0-3.9-0.4-5.6-1.2s-3.1-2-4.4-3.4c-1.2-1.4-2.2-3.1-2.9-5.1c-0.7-1.9-1-4-1-6.2c0-1.8,0.2-3.6,0.6-5.4c0.4-1.8,1-3.5,1.7-5.2
		c0.8-1.6,1.7-3.2,2.8-4.6c1.1-1.4,2.3-2.6,3.7-3.7s2.9-1.9,4.5-2.5c1.7-0.6,3.4-0.9,5.3-0.9c1.3,0,2.4,0.2,3.6,0.5
		c1.1,0.3,2.1,0.8,3,1.5s1.5,1.4,2,2.3c0.5,0.9,0.8,2,0.8,3.2c0,1.7-0.6,3.2-1.7,4.5c-1.1,1.3-2.7,2.4-4.7,3.3c-2,0.9-4.3,1.6-7,2.2
		c-2.7,0.6-5.6,1-8.7,1.2v0.4c0,2.2,0.3,4.1,0.8,5.9c0.5,1.8,1.3,3.3,2.3,4.6c1,1.3,2.1,2.3,3.4,3s2.7,1.1,4.2,1.1
		c1.5,0,3.1-0.4,4.7-1.1C229.9,57.3,231.6,56.1,233.2,54.4z M228.4,34c0-0.8-0.1-1.5-0.4-2.2c-0.3-0.7-0.6-1.3-1.1-1.8
		c-0.5-0.5-1-0.9-1.7-1.2c-0.6-0.3-1.3-0.4-2.1-0.4c-1.1,0-2.1,0.2-3,0.6c-0.9,0.4-1.7,0.9-2.4,1.6c-0.7,0.7-1.3,1.4-1.9,2.3
		s-1,1.8-1.4,2.8c-0.4,1-0.7,2-0.9,3.1c-0.2,1-0.4,2.1-0.5,3.1c2.4-0.2,4.6-0.5,6.5-0.9c1.9-0.4,3.5-0.9,4.8-1.6
		c1.3-0.7,2.3-1.4,3-2.3C228.1,36.2,228.4,35.2,228.4,34z"/>
	<path class="st0" d="M252.5,10.7c0,0.5,0,1.2,0,2.1c0,1-0.1,2.1-0.1,3.3c0,1.3-0.1,2.6-0.1,4.1c0,1.5-0.1,2.9-0.1,4.4
		c-0.1,3.9-0.2,7.9-0.4,11.9c-0.1,4-0.4,8-0.6,11.9c-0.3,3.9-0.7,7.7-1.2,11.4s-1.2,7.1-2.1,10.2c-0.6,2-1.3,3.8-2,5.4
		s-1.6,2.9-2.6,4.1c-0.9,1.2-1.9,2.1-2.9,2.9c-1,0.8-2.1,1.4-3.1,1.9c-1.1,0.5-2.1,0.8-3.2,1s-2.1,0.3-3.1,0.3
		c-1.4,0-2.6-0.2-3.7-0.5s-2.1-0.7-3-1.3c-0.8-0.5-1.5-1.1-1.9-1.8s-0.7-1.4-0.7-2.2c0-0.4,0.1-0.9,0.3-1.3s0.5-0.9,0.9-1.2
		s0.8-0.7,1.3-0.9s1-0.3,1.6-0.3c1,1.8,2.2,3.2,3.6,3.9s2.9,1.2,4.5,1.2c1.7,0,3.1-0.4,4.3-1.2s2.2-2,3-3.5s1.5-3.4,2-5.5
		s0.9-4.6,1.2-7.3s0.5-5.6,0.7-8.7s0.3-6.4,0.4-9.9c0.1-2.9,0.2-5.7,0.3-8.5c0.1-2.8,0.1-5.5,0.2-8.2s0.1-5.4,0.1-8.2
		c0-2.7,0-5.5,0-8.4c0-0.8,0-1.5-0.1-2c-0.1-0.6-0.3-1-0.5-1.4s-0.7-0.6-1.2-0.8c-0.5-0.2-1.2-0.2-2-0.2c-0.3,0-0.6,0-1,0
		c-0.4,0-0.8,0-1.2,0.1c-0.4,0-0.9,0.1-1.4,0.1s-0.9,0.1-1.4,0.2l-0.3-2.1c2.5-0.6,4.7-1.1,6.6-1.4c1.9-0.3,3.4-0.5,4.6-0.5
		c1.1,0,2,0.1,2.6,0.4c0.6,0.3,1,0.7,1.3,1.3s0.4,1.3,0.5,2.1C252.5,8.6,252.5,9.6,252.5,10.7z"/>
	<path class="st0" d="M264.3,47.3c-0.1,0.4-0.1,0.8-0.1,1.2c0,0.4,0,0.7,0,1.1c0,1.9,0.3,3.6,0.8,4.9s1.3,2.4,2.2,3.3
		c1,0.8,2.1,1.5,3.5,1.8s2.9,0.6,4.5,0.6s3.3-0.2,4.8-0.7c1.5-0.5,2.8-1.2,4-2.1c1.1-0.9,2.1-2.1,2.7-3.5c0.7-1.4,1-3,1-4.8
		c0-1.2-0.2-2.2-0.5-3.2c-0.3-1-0.7-1.8-1.3-2.6c-0.5-0.8-1.2-1.5-2-2.2c-0.8-0.7-1.6-1.3-2.5-1.9c-0.9-0.6-1.8-1.2-2.8-1.7
		c-1-0.5-2-1.1-3-1.7c-1.1-0.6-2.1-1.2-3.2-1.8s-2.1-1.3-3-2c-1-0.7-1.9-1.4-2.7-2.2c-0.8-0.8-1.5-1.7-2.1-2.7
		c-0.6-1-1.1-2.1-1.4-3.3c-0.3-1.2-0.5-2.5-0.5-3.9c0-1.8,0.2-3.5,0.7-5s1.1-3,1.9-4.3s1.8-2.5,2.9-3.5s2.4-1.9,3.8-2.6
		c1.4-0.7,2.8-1.2,4.4-1.6c1.5-0.4,3.1-0.5,4.8-0.5c0.7,0,1.5,0,2.4,0.1c0.8,0.1,1.7,0.2,2.5,0.4c0.8,0.2,1.7,0.4,2.4,0.7
		c0.8,0.3,1.5,0.6,2,0.9c0.6,0.3,1.1,0.7,1.4,1.1s0.5,0.8,0.5,1.3c0,0.5,0,1.1,0,1.8s0,1.6-0.1,2.5s-0.1,2-0.1,3.1
		c-0.1,1.1-0.1,2.3-0.2,3.5l-2.6-0.1c0.1-0.6,0.1-1.2,0.1-1.8c0-1.7-0.3-3.2-0.7-4.4c-0.5-1.3-1.2-2.3-2.1-3.2
		c-0.9-0.9-2-1.5-3.3-1.9s-2.7-0.6-4.3-0.6s-3,0.3-4.4,0.8c-1.3,0.5-2.5,1.2-3.5,2.2c-1,0.9-1.8,2-2.3,3.3s-0.8,2.7-0.8,4.2
		c0,1.2,0.2,2.4,0.5,3.4c0.3,1,0.8,1.9,1.3,2.8c0.6,0.8,1.2,1.6,2,2.3c0.8,0.7,1.6,1.4,2.5,2c0.9,0.6,1.9,1.2,2.9,1.8s2,1.1,3.1,1.7
		c1.1,0.6,2.1,1.1,3.2,1.7c1.1,0.6,2.1,1.2,3,1.9c1,0.7,1.9,1.4,2.7,2.2s1.5,1.7,2.1,2.6c0.6,1,1.1,2,1.4,3.2
		c0.3,1.2,0.5,2.4,0.5,3.8c0,2.3-0.3,4.4-1,6.2c-0.6,1.8-1.5,3.4-2.6,4.7c-1.1,1.3-2.3,2.5-3.7,3.4s-2.8,1.7-4.3,2.2s-3,1-4.5,1.2
		c-1.5,0.2-2.9,0.4-4.1,0.4c-1.7,0-3.3-0.1-4.7-0.3s-2.8-0.5-3.9-0.9s-2-0.8-2.6-1.3s-1-1-1-1.5c0-1.1,0-2.8,0.1-4.9
		c0.1-2.1,0.2-4.6,0.4-7.5L264.3,47.3z"/>
</g>
</svg>
