<svg id="Слой_1" xmlns="http://www.w3.org/2000/svg" viewBox="0 0 98.2 112.1"><style>.st0{fill:#405261;}</style><path class="st0" d="M96.7 26.9L50.6.4c-.9-.5-2.1-.5-3 0L1.5 26.9c-.9.6-1.5 1.6-1.5 2.6v53c0 1.1.6 2.1 1.5 2.6l46.1 26.5c.9.5 2.1.5 3 0l46.1-26.5c.9-.5 1.5-1.5 1.5-2.6v-53c0-1.1-.6-2-1.5-2.6zm-51.1-9.5c0 .2-.1.3-.3.4l-16.5 9.5c-.3.2-.3.7 0 .9l16.5 9.5c.2.1.3.3.3.4V45c0 .4-.4.6-.7.4l-30-17.2c-.3-.2-.3-.7 0-.9l30-17.3c.3-.2.8 0 .8.4-.1.1-.1 7-.1 7zm37.7 10.8l-30 17.3c-.3.2-.7 0-.7-.4v-6.9c0-.2.1-.3.3-.4l16.5-9.5c.3-.2.3-.7 0-.9l-16.5-9.5c-.2-.1-.3-.3-.3-.4v-6.9c0-.4.4-.6.8-.4l30 17.3c.2 0 .2.5-.1.7z"/></svg>