<?xml version="1.0" encoding="utf-8"?>
<!-- Generator: Adobe Illustrator 21.0.0, SVG Export Plug-In . SVG Version: 6.00 Build 0)  -->
<svg version="1.1" id="Слой_1" xmlns="http://www.w3.org/2000/svg" xmlns:xlink="http://www.w3.org/1999/xlink" x="0px" y="0px"
	 viewBox="0 0 277 87" style="enable-background:new 0 0 277 87;" xml:space="preserve">
<style type="text/css">
	.st0{fill:#FF0D55;}
</style>
<g>
	<path class="st0" d="M1.4,0.6h37.9v17.2H23.8v16.3h13.8v16.4H23.8v36.2H1.4V0.6z"/>
	<path class="st0" d="M66.2,0.6v11.2H44.1V0.6H66.2z M66.2,16.1v70.6H44.1V16.1H66.2z"/>
	<path class="st0" d="M95.4,16.1l-0.9,9.3c3.1-6.7,7.6-10.2,13.6-10.6v24.9c-3.9,0-6.8,0.5-8.7,1.6c-1.8,1.1-3,2.5-3.4,4.4
		c-0.4,1.9-0.6,6.3-0.6,13.1v27.9H73.9V16.1H95.4z"/>
	<path class="st0" d="M134.2,16.1l-0.4,6.7c1.7-2.7,3.7-4.7,6-6c2.3-1.3,4.9-2,7.9-2c5.7,0,10.3,2.7,13.6,8c1.8-2.7,3.8-4.7,6.1-6
		c2.3-1.3,4.8-2,7.6-2c3.7,0,6.7,0.9,9.1,2.7c2.4,1.8,3.9,3.9,4.6,6.5c0.7,2.6,1,6.8,1,12.5v50.2h-20.9v-46c0-6-0.2-9.8-0.6-11.2
		c-0.4-1.4-1.4-2.2-2.8-2.2c-1.5,0-2.5,0.7-3,2.1c-0.4,1.4-0.7,5.2-0.7,11.2v46h-20.9V41.9c0-6.9-0.2-11.1-0.5-12.5
		c-0.3-1.4-1.3-2.1-2.8-2.1c-1,0-1.8,0.4-2.4,1.1c-0.7,0.7-1,1.6-1.1,2.7c-0.1,1-0.1,3.3-0.1,6.7v49H113V16.1H134.2z"/>
	<path class="st0" d="M219.1,0.6v11.2H197V0.6H219.1z M219.1,16.1v70.6H197V16.1H219.1z"/>
	<path class="st0" d="M248.7,16.1l-0.4,6.5c1.6-2.6,3.5-4.5,5.7-5.8c2.3-1.3,4.9-1.9,7.8-1.9c3.7,0,6.7,0.9,9,2.6
		c2.3,1.7,3.8,3.9,4.5,6.6c0.7,2.6,1,7.1,1,13.2v49.5H255V37.8c0-4.9-0.2-7.8-0.5-8.9c-0.3-1.1-1.2-1.6-2.7-1.6
		c-1.5,0-2.5,0.6-2.9,1.8c-0.4,1.2-0.6,4.5-0.6,9.8v47.7h-21.5V16.1H248.7z"/>
</g>
</svg>
