<?xml version="1.0" encoding="utf-8"?>
<!-- Generator: Adobe Illustrator 21.0.0, SVG Export Plug-In . SVG Version: 6.00 Build 0)  -->
<svg version="1.1" id="Слой_1" xmlns="http://www.w3.org/2000/svg" xmlns:xlink="http://www.w3.org/1999/xlink" x="0px" y="0px"
	 viewBox="0 0 300 66" style="enable-background:new 0 0 300 66;" xml:space="preserve">
<style type="text/css">
	.st0{fill:#FF0066;}
</style>
<g>
	<path class="st0" d="M57.4,2.3v63.2H43l0-42.7l-5.7,42.7H27l-6-41.7l0,41.7H6.6V2.3h21.3c0.6,3.8,1.3,8.3,2,13.4l2.3,16.1L36,2.3
		H57.4z"/>
	<path class="st0" d="M99.2,32v12.7c0,4.7-0.2,8.1-0.7,10.3c-0.5,2.2-1.5,4.2-3,6.1c-1.5,1.9-3.5,3.3-5.9,4.2
		c-2.4,0.9-5.2,1.3-8.3,1.3c-3.5,0-6.4-0.4-8.9-1.2s-4.3-1.9-5.6-3.5c-1.3-1.5-2.3-3.4-2.9-5.6c-0.6-2.2-0.9-5.5-0.9-9.9V33.1
		c0-4.8,0.5-8.6,1.6-11.3c1-2.7,2.9-4.9,5.6-6.5c2.7-1.6,6.2-2.5,10.4-2.5c3.5,0,6.6,0.5,9.1,1.6s4.5,2.4,5.9,4.1
		c1.4,1.7,2.3,3.4,2.8,5.2S99.2,28.3,99.2,32z M83.4,28c0-2.7-0.1-4.3-0.4-5c-0.3-0.7-0.9-1-1.8-1s-1.6,0.3-1.9,1
		c-0.3,0.7-0.5,2.4-0.5,5v23.4c0,2.4,0.2,4,0.5,4.8s0.9,1.1,1.8,1.1c0.9,0,1.6-0.3,1.9-1c0.3-0.7,0.4-2.1,0.4-4.4V28z"/>
	<path class="st0" d="M121,6.8V15h4.3v8.2H121v27.7c0,3.4,0.2,5.3,0.5,5.7s1.8,0.6,4.4,0.6v8.4h-6.4c-3.6,0-6.2-0.1-7.7-0.4
		c-1.5-0.3-2.9-1-4.1-2.1c-1.2-1.1-1.9-2.3-2.2-3.7c-0.3-1.4-0.4-4.7-0.4-9.8V23.2h-3.4V15h3.4V6.8H121z"/>
	<path class="st0" d="M145,2.3v8.2h-16.3V2.3H145z M145,13.7v51.8h-16.3V13.7H145z"/>
	<path class="st0" d="M186.4,32v12.7c0,4.7-0.2,8.1-0.7,10.3c-0.5,2.2-1.5,4.2-3,6.1c-1.5,1.9-3.5,3.3-5.9,4.2
		c-2.4,0.9-5.2,1.3-8.3,1.3c-3.5,0-6.4-0.4-8.9-1.2s-4.3-1.9-5.6-3.5c-1.3-1.5-2.3-3.4-2.9-5.6c-0.6-2.2-0.9-5.5-0.9-9.9V33.1
		c0-4.8,0.5-8.6,1.6-11.3c1-2.7,2.9-4.9,5.6-6.5c2.7-1.6,6.2-2.5,10.4-2.5c3.5,0,6.6,0.5,9.1,1.6s4.5,2.4,5.9,4.1
		c1.4,1.7,2.3,3.4,2.8,5.2S186.4,28.3,186.4,32z M170.6,28c0-2.7-0.1-4.3-0.4-5c-0.3-0.7-0.9-1-1.8-1s-1.6,0.3-1.9,1
		c-0.3,0.7-0.5,2.4-0.5,5v23.4c0,2.4,0.2,4,0.5,4.8s0.9,1.1,1.8,1.1c0.9,0,1.6-0.3,1.9-1c0.3-0.7,0.4-2.1,0.4-4.4V28z"/>
	<path class="st0" d="M207.6,13.7l-0.3,4.8c1.1-1.9,2.5-3.3,4.2-4.3c1.7-1,3.6-1.4,5.7-1.4c2.7,0,4.9,0.6,6.6,1.9
		c1.7,1.3,2.8,2.9,3.3,4.8c0.5,1.9,0.7,5.2,0.7,9.7v36.3h-15.8V29.7c0-3.6-0.1-5.7-0.4-6.5s-0.9-1.2-2-1.2c-1.1,0-1.8,0.4-2.1,1.3
		c-0.3,0.9-0.4,3.3-0.4,7.2v35h-15.8V13.7H207.6z"/>
	<path class="st0" d="M271.3,2.3v42.3c0,4.8-0.2,8.2-0.5,10.1c-0.3,1.9-1.2,3.9-2.8,6c-1.5,2-3.6,3.6-6.1,4.6
		c-2.5,1.1-5.5,1.6-8.9,1.6c-3.8,0-7.1-0.6-10-1.9s-5.1-2.9-6.5-4.9c-1.4-2-2.3-4.1-2.5-6.3c-0.3-2.2-0.4-6.9-0.4-14V2.3h16.4v47.4
		c0,2.8,0.1,4.5,0.4,5.3c0.3,0.8,0.9,1.2,1.8,1.2c1,0,1.7-0.4,2-1.3c0.3-0.8,0.4-2.8,0.4-6V2.3H271.3z"/>
	<path class="st0" d="M294.1,2.3v63.2h-16.4V2.3H294.1z"/>
</g>
</svg>
