<svg id="Слой_1" xmlns="http://www.w3.org/2000/svg" viewBox="0 0 283 81"><style>.st0{fill:#FF0066;}</style><path class="st0" d="M19.6 13.5l-.3 5.2c1.6-2.1 3.3-3.6 5.2-4.7 1.9-1 4-1.5 6.2-1.5 2.8 0 5.1.7 7.1 2.2 2 1.5 3.3 3.2 3.8 5.1.5 1.9.7 5.2.7 9.8v24.6c0 5.3-.3 9.1-.9 11.3-.6 2.2-1.9 4-3.9 5.4-1.9 1.3-4.3 2-7.1 2-2.2 0-4.2-.5-6.1-1.5-1.9-1-3.6-2.6-5.1-4.6v13.4H1.5V13.5h18.1zm5 17c0-3.6-.1-5.8-.4-6.5-.3-.8-1-1.1-2.2-1.1-1.2 0-1.9.4-2.3 1.3-.3.9-.5 3-.5 6.4v24.2c0 3.5.2 5.7.5 6.6s1.1 1.3 2.3 1.3c1.1 0 1.9-.4 2.1-1.2.3-.8.4-2.8.4-5.9V30.5zM64.1 36.1H47.4v-3.9c0-4.5.5-8 1.6-10.4 1-2.4 3.1-4.6 6.3-6.5 3.1-1.9 7.2-2.8 12.2-2.8 6 0 10.5 1.1 13.6 3.2 3 2.1 4.9 4.7 5.5 7.8.6 3.1.9 9.5.9 19.1v29.3H70.2v-5.2c-1.1 2.1-2.5 3.6-4.2 4.7-1.7 1-3.8 1.6-6.1 1.6-3.1 0-6-.9-8.5-2.6-2.6-1.7-3.9-5.6-3.9-11.4v-5c0-4.4.7-7.3 2.1-8.9 1.4-1.6 4.8-3.4 10.2-5.5 5.8-2.3 8.9-3.8 9.4-4.6.4-.8.6-2.4.6-4.8 0-3-.2-5-.7-6-.5-.9-1.2-1.4-2.3-1.4-1.2 0-1.9.4-2.2 1.2-.3.8-.4 2.8-.4 6v6.1zm5.6 8c-2.8 2.1-4.5 3.8-4.9 5.2-.5 1.4-.7 3.4-.7 6.1 0 3 .2 5 .6 5.8s1.2 1.3 2.4 1.3c1.1 0 1.8-.3 2.2-1 .3-.7.5-2.5.5-5.4v-12zM111.6 13.5l-.3 5.2c1.6-2.1 3.3-3.6 5.2-4.7 1.9-1 4-1.5 6.2-1.5 2.8 0 5.1.7 7.1 2.2 2 1.5 3.3 3.2 3.8 5.1s.7 5.2.7 9.8v24.6c0 5.3-.3 9.1-.9 11.3s-1.9 4-3.9 5.4-4.3 2-7.1 2c-2.2 0-4.2-.5-6.1-1.5s-3.6-2.6-5.1-4.6v13.4H93.6V13.5h18zm5.1 17c0-3.6-.1-5.8-.4-6.5-.3-.8-1-1.1-2.2-1.1-1.2 0-1.9.4-2.3 1.3-.3.9-.5 3-.5 6.4v24.2c0 3.5.2 5.7.5 6.6s1.1 1.3 2.3 1.3c1.1 0 1.9-.4 2.1-1.2.3-.8.4-2.8.4-5.9V30.5zM180.5 43.7h-23v12.6c0 2.6.2 4.3.6 5.1.4.8 1.1 1.1 2.2 1.1 1.3 0 2.2-.5 2.7-1.5s.7-3 .7-5.9v-7.7h16.8v4.3c0 3.6-.2 6.4-.7 8.3-.5 1.9-1.5 4-3.2 6.2s-3.8 3.8-6.4 4.9-5.8 1.6-9.6 1.6-7.1-.5-9.9-1.6c-2.9-1.1-5.1-2.6-6.7-4.5s-2.7-4-3.3-6.2c-.6-2.3-.9-5.6-.9-9.9v-17c0-5.1.7-9.1 2.1-12.1s3.6-5.2 6.8-6.8c3.1-1.6 6.7-2.4 10.8-2.4 5 0 9.1.9 12.3 2.8 3.2 1.9 5.5 4.4 6.8 7.5s2 7.5 2 13.2v8zm-17.8-9.5V30c0-3-.2-5-.5-5.8s-1-1.3-2-1.3c-1.2 0-2 .4-2.3 1.1s-.4 2.8-.4 6v4.3h5.2zM204 13.5l-.7 7.7c2.6-5.5 6.3-8.4 11.2-8.7V33c-3.3 0-5.6.4-7.2 1.3s-2.5 2.1-2.8 3.7c-.4 1.6-.5 5.2-.5 10.8v23h-17.8V13.5H204zM237.3 13.5v46.1c0 5.4-.1 9.1-.3 11-.2 1.9-.9 3.6-2 5.1s-2.6 2.5-4.5 3.2c-1.9.7-4.7 1.1-8.5 1.1h-6.9v-9.3c2.1 0 3.3-.2 3.6-.7.3-.5.4-3.4.4-8.8V13.5h18.2zm0-12.8V10H219V.7h18.3zM279.9 32.2h-15.7V29c0-2.7-.2-4.4-.5-5.1-.3-.7-1.1-1.1-2.3-1.1-1 0-1.7.3-2.2 1s-.7 1.6-.7 3c0 1.8.1 3.1.4 3.9s1 1.8 2.2 2.7c1.2 1 3.8 2.4 7.7 4.4 5.2 2.5 8.5 4.9 10.2 7.1 1.6 2.2 2.4 5.5 2.4 9.7 0 4.7-.6 8.3-1.8 10.7s-3.3 4.3-6.2 5.6c-2.9 1.3-6.4 2-10.4 2-4.5 0-8.4-.7-11.6-2.1-3.2-1.4-5.4-3.3-6.6-5.7-1.2-2.4-1.8-6-1.8-10.9v-2.8h15.7V55c0 3.1.2 5.2.6 6.1.4.9 1.2 1.4 2.4 1.4 1.3 0 2.1-.3 2.6-.9.5-.6.7-2 .7-4 0-2.8-.3-4.5-1-5.2-.7-.7-4.1-2.8-10.3-6.2-5.2-2.9-8.4-5.6-9.5-8-1.1-2.4-1.7-5.2-1.7-8.5 0-4.7.6-8.1 1.8-10.3 1.2-2.2 3.3-3.9 6.3-5.1 2.9-1.2 6.4-1.8 10.3-1.8 3.9 0 7.2.5 9.9 1.5s4.8 2.3 6.2 3.9c1.5 1.6 2.3 3.1 2.6 4.5.3 1.4.5 3.5.5 6.5v3.3z"/></svg>