<svg width="100" height="100" xmlns="http://www.w3.org/2000/svg" style="position:relative;left:-0.5px" overflow="hidden"><path fill="#f89938" d="M49.973 94.128c-5.212 0-10.113-2.03-13.8-5.717l-24.75-24.75c-3.69-3.684-5.722-8.586-5.722-13.8 0-5.217 2.034-10.12 5.725-13.807l24.75-24.75C39.86 7.618 44.76 5.59 49.973 5.59c5.212 0 10.113 2.027 13.8 5.713l24.75 24.752c3.69 3.683 5.724 8.586 5.724 13.803 0 5.217-2.034 10.12-5.726 13.805L63.773 88.41c-3.686 3.69-8.587 5.718-13.8 5.718z" style="-webkit-tap-highlight-color:rgba(0, 0, 0, 0)"/><path fill="#39f" d="M33.014 23.398c0-9.366 7.593-16.96 16.96-16.96 9.366 0 16.958 7.594 16.958 16.96 0 9.367-7.592 16.96-16.96 16.96-9.366 0-16.958-7.593-16.958-16.96" style="-webkit-tap-highlight-color:rgba(0, 0, 0, 0)"/><path fill="#333" d="M93.816 61.314c2.23-3.37 3.43-7.32 3.43-11.455 0-5.572-2.172-10.807-6.112-14.74L64.707 8.69l-.01.01c-3.77-3.776-8.98-6.116-14.725-6.116S39.02 4.924 35.25 8.702l-.01-.01L8.813 35.118C4.873 39.055 2.7 44.29 2.7 49.858c0 5.57 2.17 10.804 6.11 14.738l23.83 23.83c.955 1.07 1.96 2.074 3.017 2.996 3.885 3.68 8.943 5.705 14.315 5.705 5.565 0 10.8-2.167 14.734-6.104l25.71-25.71c.065-.063.13-.13.195-.194l.522-.52c.993-.992 1.873-2.067 2.635-3.208l.056-.074-.007-.004zm-4.28-11.455c0 2.59-.753 5.065-2.145 7.183-.834 1.14-1.705 2.136-2.603 2.997l-.064.064c-4.227 4.02-9.003 5.16-13.056 5.16-2.23 0-4.243-.346-5.825-.745-9.263-2.34-19.332-10.312-23.94-21.937 2.483 1.05 5.21 1.63 8.07 1.63 10.747 0 19.616-8.188 20.702-18.65l15.01 15.007c2.483 2.483 3.85 5.78 3.85 9.29zM49.972 10.293c7.227 0 13.104 5.88 13.104 13.104 0 7.226-5.878 13.105-13.104 13.105-7.225 0-13.103-5.88-13.103-13.105 0-7.225 5.878-13.104 13.103-13.104zm-35.71 48.852c-2.484-2.48-3.852-5.78-3.852-9.286 0-3.508 1.368-6.806 3.85-9.286L24.416 30.42c-2.65 9.02-3.788 18.515-3.178 27.616.22 3.27.67 6.41 1.32 9.404l-8.295-8.294zm17.358-25.94c2.23 17.45 16.043 34.672 32.334 38.79 2.654.67 5.256 1 7.773 1 .036 0 .073-.004.11-.004l-12.58 12.58c-2.482 2.48-5.78 3.846-9.285 3.846-2.44 0-4.773-.676-6.805-1.914l.004-.007c-.8-.53-1.56-1.13-2.302-1.763-.058-.057-.12-.104-.177-.16l-2.54-2.543c-5.228-6-8.515-14.93-9.222-25.51-.535-8.005.426-16.353 2.693-24.314" style="-webkit-tap-highlight-color:rgba(0, 0, 0, 0)"/></svg>