<svg id="Слой_1" xmlns="http://www.w3.org/2000/svg" viewBox="0 0 287 56"><style>.st0{fill:#89EBE2;}</style><path class="st0" d="M4.6 39.4c0 .4-.1.7-.1 1v1c0 1.7.2 3.1.7 4.3.5 1.2 1.1 2.1 1.9 2.9s1.8 1.3 3 1.6c1.2.3 2.5.5 4 .5s2.9-.2 4.2-.6c1.3-.4 2.5-1 3.5-1.8s1.8-1.8 2.4-3c.5-1.3.8-2.7.8-4.3 0-1-.1-1.9-.4-2.8s-.7-1.6-1.1-2.3c-.5-.7-1.1-1.4-1.7-1.9s-1.4-1.2-2.2-1.7c-.8-.5-1.6-1-2.5-1.5-.9-.5-1.7-1-2.6-1.5-.9-.5-1.9-1-2.8-1.6-.9-.5-1.8-1-2.7-1.7-.8-.6-1.6-1.3-2.4-2-.7-.7-1.4-1.5-1.9-2.3-.5-.9-.9-1.8-1.2-2.8-.3-1-.5-2.2-.5-3.4 0-1.6.2-3 .6-4.4.4-1.4 1-2.6 1.7-3.7C6.1 6.2 7 5.2 8 4.3c1-.9 2.1-1.6 3.3-2.3 1.2-.6 2.5-1.1 3.8-1.4 1.4-.3 2.7-.5 4.2-.5.7 0 1.3 0 2.1.1.7.1 1.5.2 2.2.4l2.1.6s1.3.5 1.8.8c.5.3.9.6 1.2 1s.5.7.5 1.1v1.6c0 .6 0 1.4-.1 2.2 0 .8-.1 1.7-.1 2.7 0 1-.1 2-.2 3.1l-2.2-.1c0-.5.1-1 .1-1.5 0-1.5-.2-2.8-.7-3.9-.4-1.1-1.1-2.1-1.8-2.8-.8-.7-1.7-1.3-2.9-1.7-1.1-.4-2.4-.6-3.7-.6s-2.6.2-3.8.7c-1.2.5-2.2 1.1-3.1 1.9-.9.8-1.5 1.8-2 2.9-.5 1.1-.7 2.3-.7 3.6 0 1.1.1 2.1.4 2.9.3.9.7 1.7 1.2 2.4s1.1 1.4 1.8 2c.7.6 1.4 1.2 2.2 1.7s1.6 1.1 2.5 1.5 1.8 1 2.7 1.5c.9.5 1.9 1 2.8 1.5.9.5 1.8 1.1 2.7 1.7.8.6 1.6 1.2 2.3 1.9.7.7 1.3 1.5 1.9 2.3.5.8.9 1.8 1.2 2.8.3 1 .5 2.1.5 3.4 0 2-.3 3.8-.8 5.4-.6 1.6-1.3 2.9-2.2 4.1-.9 1.2-2 2.1-3.2 2.9-1.2.8-2.5 1.4-3.8 1.9s-2.6.8-3.9 1.1-2.5.3-3.6.3c-1.5 0-2.8-.1-4.1-.3-1.5-.1-2.6-.3-3.6-.7-1-.3-1.7-.7-2.3-1.1-.6-.4-.8-.9-.8-1.3 0-1 0-2.4.1-4.3s.2-4.1.3-6.6l2.3.2zM60.1.2c1.9 0 3.7.2 5.4.5s3.1.8 4.3 1.3c1.2.5 2.1 1.1 2.8 1.7.7.6 1 1.1 1 1.6 0 1 0 2.3-.1 4-.1 1.6-.2 3.6-.3 5.9l-1.9-.1v-.6-.6c0-1-.1-2-.3-2.9-.2-.9-.6-1.8-1.2-2.7-.6-.8-1.3-1.6-2.1-2.2-.8-.6-1.7-1.2-2.7-1.6s-2-.8-3.1-1-2.2-.3-3.4-.3c-2 0-3.8.3-5.4.9-1.6.6-3.1 1.5-4.3 2.6-1.3 1.1-2.4 2.4-3.3 3.9-.9 1.5-1.7 3.1-2.3 4.9-.6 1.7-1.1 3.6-1.4 5.5-.3 1.9-.5 3.9-.5 5.8 0 2.3.2 4.5.6 6.6.4 2.1.9 4 1.6 5.7.7 1.7 1.6 3.3 2.6 4.7 1 1.4 2.1 2.5 3.4 3.5 1.3 1 2.6 1.7 4.1 2.2 1.5.5 3 .8 4.6.8 1.1 0 2.3-.1 3.5-.4 1.2-.2 2.4-.6 3.6-1.2 1.2-.5 2.5-1.2 3.7-2s2.5-1.8 3.7-2.9c.1.1.3.1.4.2.2.1.3.2.4.3.1.1.2.2.3.4s.1.3.1.4c0 .1-.1.2-.2.4-1.5 1.6-2.9 2.9-4.4 4-1.5 1.1-3 2-4.5 2.6s-3 1.1-4.5 1.4c-1.5.3-3 .4-4.5.4-2 0-3.9-.3-5.7-.8-1.8-.6-3.5-1.4-5.1-2.4s-3-2.3-4.2-3.8c-1.3-1.5-2.3-3.1-3.2-5-.9-1.8-1.6-3.8-2.1-6s-.7-4.4-.7-6.8c0-2.3.2-4.6.7-7 .5-2.3 1.2-4.6 2.1-6.7s2.1-4.1 3.5-6c1.4-1.9 3-3.5 4.9-4.8 1.9-1.4 4-2.4 6.3-3.2 2.4-.8 5-1.2 7.8-1.2zM84.3 8.3c0-.6-.1-1.2-.2-1.6-.1-.4-.3-.8-.5-1.1-.2-.3-.6-.5-1-.6-.5-.1-1-.2-1.8-.2-1 0-2.2.1-3.8.3l-.3-2c1.4-.3 2.9-.5 4.5-.8 1.6-.3 3.3-.5 5-.7 1.7-.2 3.5-.4 5.2-.5s3.4-.2 5-.2c2.1 0 4.1.2 6 .6 1.8.4 3.4 1 4.8 1.9 1.3.9 2.4 2 3.2 3.5.8 1.4 1.2 3.2 1.2 5.4 0 2-.3 3.8-1 5.4-.6 1.6-1.6 3.1-2.7 4.4-1.2 1.3-2.6 2.4-4.3 3.3s-3.5 1.6-5.6 2.2c1.5 2.6 2.9 5 4.2 7 1.3 2 2.4 3.8 3.5 5.3s2 2.8 2.9 3.9c.9 1.1 1.7 2 2.5 2.8.6.6 1.2 1.2 1.7 1.6s1 .8 1.5 1.1 1 .5 1.5.6c.5.1 1 .2 1.6.2.6 0 1.2-.1 1.7-.2s1.1-.3 1.8-.5l.6 1.8c-1.9.9-3.5 1.5-5 1.9-1.5.4-2.7.6-3.6.6-.5 0-1-.1-1.4-.2-.4-.1-.9-.3-1.3-.5s-.9-.5-1.3-.9c-.4-.3-.9-.8-1.4-1.2-.8-.8-1.7-1.8-2.8-3.1-1.1-1.3-2.2-2.9-3.6-4.9-1.3-1.9-2.8-4.3-4.4-6.9-1.6-2.7-3.4-5.7-5.3-9.2v-.3c2.6-.1 4.8-.5 6.6-1.1s3.3-1.5 4.4-2.5c1.1-1.1 1.9-2.3 2.4-3.8s.8-3.1.8-4.9c0-3.5-.9-6.1-2.8-7.8-1.8-1.7-4.6-2.6-8.2-2.6-.8 0-1.5 0-2.2.1-.7.1-1.5.1-2.3.2 0 1.1-.1 2.7-.1 4.6-.1 1.9-.1 4.1-.2 6.6s-.1 5.2-.2 8.2c-.1 3-.2 6-.3 9.3-.1 3.2-.2 6.5-.3 9.9l-.3 10.2-5.3.7H83c.2-4.3.3-8.3.5-12.1.1-3.8.3-7.5.4-11.1.1-3.6.2-7.2.2-10.7.2-4.1.2-7.7.2-11.4zM140.3 53.6c-3 0-5.7-.5-8.2-1.6-2.5-1-4.6-2.6-6.4-4.6-1.8-2-3.2-4.6-4.2-7.6s-1.5-6.6-1.5-10.6c0-2.5.2-5 .6-7.5.4-2.4 1-4.7 1.9-6.9.8-2.2 1.9-4.1 3.1-5.9 1.2-1.8 2.7-3.4 4.3-4.7 1.6-1.3 3.5-2.3 5.5-3s4.3-1.1 6.7-1.1c3 0 5.7.5 8.2 1.6 2.5 1 4.6 2.6 6.4 4.6s3.2 4.6 4.2 7.6c1 3.1 1.5 6.6 1.5 10.6 0 2.5-.2 5-.6 7.5-.4 2.4-1 4.7-1.9 6.9-.8 2.2-1.9 4.1-3.1 5.9-1.2 1.8-2.7 3.4-4.3 4.7-1.6 1.3-3.5 2.3-5.5 3s-4.3 1.1-6.7 1.1zm1-2.8c1.7 0 3.3-.3 4.7-.8 1.4-.6 2.7-1.4 3.8-2.4 1.1-1 2.1-2.3 2.9-3.7s1.5-3.1 2-4.9c.5-1.8.9-3.7 1.2-5.8.3-2.1.4-4.2.4-6.5 0-4-.4-7.5-1.2-10.5-.8-3-1.9-5.4-3.2-7.4-1.4-1.9-3-3.4-4.8-4.4-1.8-1-3.7-1.4-5.8-1.4-1.7 0-3.3.3-4.7.8-1.4.6-2.7 1.4-3.8 2.4-1.1 1-2.1 2.3-2.9 3.7-.8 1.5-1.5 3.1-2 4.9-.5 1.8-.9 3.7-1.2 5.8-.3 2.1-.4 4.2-.4 6.5 0 4 .4 7.5 1.2 10.5s1.9 5.4 3.2 7.4 3 3.4 4.8 4.4c1.8.9 3.7 1.4 5.8 1.4zM173.6 8.4c0-.7 0-1.3-.1-1.8s-.2-.9-.5-1.2c-.2-.3-.6-.5-1-.7s-1-.2-1.7-.2c-.5 0-1.1 0-1.8.1s-1.5.1-2.2.3L166 3c2.2-.6 4-1 5.6-1.2s2.9-.4 3.9-.4 1.7.1 2.3.4c.5.3.9.6 1.2 1.2.2.5.4 1.1.4 1.9 0 .7.1 1.6.1 2.5v1.5c0 .9 0 2.1-.1 3.7 0 1.5-.1 3.3-.1 5.3-.1 2-.1 4.1-.2 6.4-.1 2.2-.1 4.6-.2 6.9-.1 2.4-.2 4.7-.3 6.9-.1 2.2-.2 4.4-.4 6.4-.1 2-.3 3.7-.4 5.2 1.4-.2 2.8-.4 4-.5s2.4-.1 3.5-.1c1.5 0 3 0 4.3.1 1.3.1 2.6.1 3.9.1.9 0 1.7-.1 2.4-.4.7-.3 1.3-.7 1.8-1.4s.9-1.6 1.3-2.7c.3-1.1.6-2.6.8-4.4l1.9.2c0 2.6-.2 4.8-.5 6.4s-.7 3-1.3 4c-.6 1-1.2 1.6-2.1 2-.8.4-1.7.6-2.8.6-.8 0-1.7-.1-2.6-.2-.9-.1-2-.3-3.1-.5s-2.3-.4-3.6-.5c-1.3-.1-2.7-.2-4.2-.2-1.3 0-2.8.1-4.4.3-1.6.2-3.2.5-4.9.9h-.4c.3-2 .5-4.2.7-6.5.2-2.3.3-4.8.5-7.3.1-2.5.2-5.1.3-7.7.1-2.6.2-5.3.2-7.9 0-2.6.1-5.2.1-7.8-.1-3 0-5.4 0-7.8zM210.3 8.4c0-.7 0-1.3-.1-1.8s-.2-.9-.5-1.2c-.2-.3-.6-.5-1-.7s-1-.2-1.7-.2c-.5 0-1.1 0-1.8.1s-1.5.1-2.2.3l-.2-1.9c2.2-.6 4-1 5.6-1.2s2.9-.4 3.9-.4 1.7.1 2.3.4c.5.3.9.6 1.2 1.2.2.5.4 1.1.4 1.9 0 .7.1 1.6.1 2.5v1.5c0 .9 0 2.1-.1 3.7 0 1.5-.1 3.3-.1 5.3-.1 2-.1 4.1-.2 6.4-.1 2.2-.1 4.6-.2 6.9-.1 2.4-.2 4.7-.3 6.9-.1 2.2-.2 4.4-.4 6.4-.1 2-.3 3.7-.4 5.2 1.4-.2 2.8-.4 4-.5s2.4-.1 3.5-.1c1.5 0 3 0 4.3.1 1.3.1 2.6.1 3.9.1.9 0 1.7-.1 2.4-.4.7-.3 1.3-.7 1.8-1.4s.9-1.6 1.3-2.7c.3-1.1.6-2.6.8-4.4l1.9.2c0 2.6-.2 4.8-.5 6.4s-.7 3-1.3 4c-.6 1-1.2 1.6-2.1 2-.8.4-1.7.6-2.8.6-.8 0-1.7-.1-2.6-.2-.9-.1-2-.3-3.1-.5s-2.3-.4-3.6-.5c-1.3-.1-2.7-.2-4.2-.2-1.3 0-2.8.1-4.4.3-1.6.2-3.2.5-4.9.9h-.4c.3-2 .5-4.2.7-6.5.2-2.3.3-4.8.5-7.3.1-2.5.2-5.1.3-7.7.1-2.6.2-5.3.2-7.9 0-2.6.1-5.2.1-7.8-.1-3-.1-5.4-.1-7.8zM247.1 8.3c0-.6-.1-1.2-.2-1.6s-.3-.8-.5-1.1c-.3-.3-.6-.5-1.1-.6-.5-.1-1-.2-1.8-.2-1 0-2.2.1-3.8.3l-.3-2c1.4-.3 2.9-.5 4.5-.8s3.3-.5 5-.7c1.7-.2 3.5-.4 5.2-.5s3.4-.2 5-.2c2.1 0 4.1.2 6 .6 1.8.4 3.4 1 4.8 1.9 1.3.9 2.4 2 3.2 3.5.8 1.4 1.2 3.2 1.2 5.4 0 2-.3 3.8-1 5.4s-1.6 3.1-2.7 4.4c-1.2 1.3-2.6 2.4-4.3 3.3s-3.5 1.6-5.6 2.2c1.5 2.6 2.9 5 4.2 7s2.4 3.8 3.5 5.3 2 2.8 2.9 3.9c.9 1.1 1.7 2 2.5 2.8.6.6 1.2 1.2 1.7 1.6s1 .8 1.5 1.1c.5.3 1 .5 1.5.6.5.1 1 .2 1.6.2.6 0 1.2-.1 1.7-.2s1.1-.3 1.8-.5l.6 1.8c-1.9.9-3.5 1.5-5 1.9-1.5.4-2.7.6-3.6.6-.5 0-1-.1-1.4-.2-.4-.1-.9-.3-1.3-.5s-.9-.5-1.3-.9-.9-.8-1.4-1.2c-.8-.8-1.7-1.8-2.8-3.1-1.1-1.3-2.2-2.9-3.6-4.9-1.3-1.9-2.8-4.3-4.4-6.9-1.6-2.7-3.4-5.7-5.3-9.2v-.3c2.6-.1 4.8-.5 6.6-1.1s3.3-1.5 4.4-2.5 1.9-2.3 2.4-3.8.8-3.1.8-4.9c0-3.5-.9-6.1-2.8-7.8-1.8-1.7-4.6-2.6-8.2-2.6-.8 0-1.5 0-2.2.1-.7.1-1.5.1-2.3.2 0 1.1-.1 2.7-.1 4.6-.1 1.9-.1 4.1-.2 6.6s-.1 5.2-.2 8.2c-.1 3-.2 6-.3 9.3-.1 3.2-.2 6.5-.3 9.9l-.3 10.2-5.3.7h-.4c.2-4.3.3-8.3.5-12.1.1-3.8.3-7.5.4-11.1.1-3.6.2-7.2.2-10.7.2-4.1.3-7.7.3-11.4z"/></svg>