<?xml version="1.0" encoding="utf-8"?>
<!-- Generator: Adobe Illustrator 21.0.0, SVG Export Plug-In . SVG Version: 6.00 Build 0)  -->
<svg version="1.1" id="Слой_1" xmlns="http://www.w3.org/2000/svg" xmlns:xlink="http://www.w3.org/1999/xlink" x="0px" y="0px"
	 viewBox="0 0 292 60" style="enable-background:new 0 0 292 60;" xml:space="preserve">
<style type="text/css">
	.st0{fill:#428AFF;}
</style>
<g>
	<path class="st0" d="M2.1,48.7c0.8,0.3,1.6,0.6,2.4,1c0.8,0.4,1.7,0.7,2.5,1.1c0.9,0.3,1.8,0.6,2.8,0.8c1,0.2,2,0.3,3.1,0.3
		c1.3,0,2.6-0.1,3.8-0.5c1.3-0.3,2.6-0.7,3.8-1.3c1.2-0.6,2.4-1.3,3.6-2.1c1.1-0.8,2.2-1.8,3.1-2.9c1-1.2,1.9-2.2,2.6-3.2
		c0.7-1,1.3-1.8,1.7-2.6c0.4-0.8,0.7-1.4,0.9-1.9c0.2-0.5,0.3-1,0.3-1.4c0-0.6-0.2-1.1-0.6-1.5c-0.4-0.4-0.9-0.8-1.6-1.1
		c-0.7-0.3-1.4-0.5-2.2-0.6c-0.8-0.1-1.7-0.2-2.6-0.2c-0.5,0-1.2,0-1.9,0.1c-0.7,0-1.4,0.1-2.2,0.1c-0.7,0-1.5,0.1-2.1,0.1
		c-0.7,0-1.3,0-1.8,0c-0.8,0-1.6-0.1-2.4-0.3c-0.8-0.2-1.6-0.5-2.4-0.8c-0.8-0.4-1.5-0.9-2.2-1.6C10,29.4,9.5,28.6,9,27.6
		c-0.1-0.3-0.3-0.7-0.4-1.1C8.5,26,8.5,25.6,8.5,25c0-0.6,0-1.1,0.1-1.6c0.1-0.5,0.2-1,0.3-1.4c0.3-1.2,0.9-2.3,1.6-3.5
		c0.8-1.2,1.7-2.4,2.7-3.5c1.1-1.1,2.2-2.2,3.4-3.3c1.2-1.1,2.5-2.1,3.8-3c1.3-0.9,2.6-1.8,3.8-2.5s2.4-1.4,3.5-1.9
		c1.5-0.7,3.1-1.3,4.7-1.6s3.1-0.5,4.7-0.5c0.9,0,1.8,0.1,2.6,0.4c0.8,0.2,1.6,0.6,2.2,1.1c0.6,0.5,1.1,1,1.5,1.7
		c0.4,0.7,0.6,1.5,0.6,2.3c0,0.5-0.1,0.9-0.2,1.3c-0.1,0.3-0.3,0.6-0.5,0.8c-0.2,0.2-0.4,0.4-0.6,0.5c-0.2,0.1-0.4,0.1-0.7,0.1
		c-0.6,0-1.2-0.1-1.7-0.2c-0.5-0.1-1-0.3-1.5-0.5c-0.5-0.2-1-0.3-1.5-0.5C37,9.1,36.5,9,35.9,9c-1.7,0-3.4,0.3-5.2,1
		c-1.8,0.7-3.5,1.5-5.2,2.6c-1.7,1.1-3.3,2.2-4.8,3.5c-1.5,1.3-2.8,2.6-4,3.8c-0.6,0.6-1.1,1.3-1.4,1.9c-0.3,0.6-0.4,1.3-0.4,1.8
		c0,0.9,0.4,1.5,1.1,2c0.7,0.5,1.6,0.7,2.7,0.7c0.6,0,1.3,0,2.1,0c0.8,0,1.6-0.1,2.4-0.1c0.8,0,1.6-0.1,2.4-0.1
		c0.8,0,1.5-0.1,2.1-0.1c1.4,0,2.8,0.2,4.1,0.6c1.3,0.4,2.5,1,3.5,1.8c1,0.8,1.8,1.8,2.4,2.9c0.6,1.2,0.9,2.5,0.9,4
		c0,0.9-0.1,1.9-0.4,2.8c-0.3,0.9-0.7,1.9-1.1,2.9s-1,1.9-1.7,2.8c-0.6,0.9-1.3,1.9-2,2.8c-1.2,1.6-2.6,3.1-4.2,4.6
		c-1.5,1.4-3.2,2.7-4.9,3.7c-1.7,1.1-3.6,1.9-5.5,2.5s-3.9,0.9-5.9,0.9c-0.9,0-1.8-0.1-2.7-0.2c-0.9-0.2-1.8-0.4-2.7-0.7
		c-0.9-0.3-1.8-0.7-2.5-1.2c-0.8-0.5-1.5-1-2.1-1.6c-0.6-0.6-1.1-1.3-1.4-2C1.1,52.1,1,51.3,1,50.4C1,50,1,49.6,1.2,49.2
		C1.3,48.8,1.6,48.7,2.1,48.7z"/>
	<path class="st0" d="M45.2,55c0.1-0.4,0.2-0.8,0.4-1.2c0.2-0.4,0.4-0.8,0.6-1.2c0.2-0.5,0.4-1,0.7-1.6c0.2-0.6,0.5-1.4,0.7-2.4
		l1.4-5.5c0.3-1.3,0.7-2.7,1-4.1s0.8-3,1.2-4.7c0.4-1.4,0.8-2.9,1.3-4.4c0.5-1.5,1.1-3.1,1.6-4.8c0.6-1.6,1.1-3.3,1.7-5.1
		c0.6-1.7,1.1-3.5,1.6-5.4c0-0.1,0-0.2,0-0.3c0-0.2-0.1-0.3-0.2-0.3c-0.1,0-0.3-0.1-0.5-0.1c-0.6,0-1.1-0.1-1.4-0.3
		c-0.4-0.2-0.7-0.4-0.9-0.7s-0.4-0.6-0.5-1c-0.1-0.4-0.1-0.7-0.1-1.1c0-1,0.1-1.8,0.4-2.4c0.2-0.6,0.6-1.1,0.9-1.4
		c0.4-0.3,0.8-0.6,1.2-0.7c0.5-0.2,0.9-0.3,1.3-0.4c0.4-0.1,0.8-0.2,1.1-0.3c0.3-0.1,0.6-0.3,0.7-0.6c0.2-0.5,0.4-1,0.6-1.5
		c0.2-0.5,0.4-1,0.7-1.5c0.3-0.5,0.7-0.8,1.1-1.1c0.4-0.3,1-0.5,1.7-0.5c0.5,0,1,0.1,1.4,0.4c0.4,0.3,0.7,0.6,1,1
		c0.3,0.4,0.5,0.9,0.7,1.3c0.2,0.5,0.4,0.9,0.6,1.3c2.4,0.1,4.4,0.2,6.2,0.4c1.7,0.2,3.1,0.4,3.9,0.6c1.7,0.3,3.5,0.8,5.2,1.5
		c1.7,0.6,3.3,1.5,4.7,2.5c1.4,1,2.5,2.2,3.4,3.6s1.3,3,1.3,4.8c0,0.9-0.1,1.9-0.3,2.9L91.7,22c-0.2,1-0.6,1.9-1.2,2.7
		c-0.6,0.8-1.3,1.6-2,2.3c-2.1,1.9-4.3,3.5-6.8,4.8c-2.5,1.3-5,2.4-7.7,3.2c-2.7,0.9-5.4,1.6-8.1,2.2c-2.8,0.6-5.5,1.2-8.2,1.7
		l-1,0.1c-0.5,0.1-0.8,0.3-0.9,0.6c-0.5,1.6-0.8,3-1.1,4.2c-0.3,1.2-0.5,2.4-0.7,3.4c-0.2,1.1-0.5,2.2-0.7,3.3
		c-0.2,1.1-0.5,2.3-0.9,3.7c-0.1,0.4-0.3,1-0.6,1.6c-0.3,0.6-0.7,1.2-1.1,1.7c-0.4,0.5-0.9,1-1.4,1.4c-0.5,0.4-1.1,0.6-1.7,0.6
		c-0.4,0-0.8-0.1-1.1-0.3c-0.3-0.2-0.5-0.5-0.7-0.9c-0.2-0.4-0.3-0.7-0.5-1.2c-0.1-0.4-0.2-0.8-0.2-1.2c0-0.1,0-0.3,0-0.4
		C45.2,55.3,45.2,55.2,45.2,55z M59,29.4c0,0.2-0.1,0.4-0.2,0.6c-0.1,0.2-0.2,0.5-0.2,0.8c-0.1,0.3-0.1,0.5-0.2,0.7
		c0,0.2-0.1,0.4-0.1,0.5c0,0.1,0,0.2,0.1,0.3c0,0.1,0.1,0.1,0.2,0.1c0.1,0,0.3,0,0.7-0.1c0.4-0.1,0.8-0.1,1.3-0.2
		c0.5-0.1,1.1-0.2,1.7-0.3c0.6-0.1,1.2-0.2,1.7-0.3c1.5-0.3,3.1-0.7,4.8-1.2c1.7-0.5,3.4-1.1,5.1-1.7c1.7-0.6,3.3-1.3,4.9-2
		c1.5-0.7,2.9-1.5,4.1-2.3c1.3-0.9,2.3-1.7,3.1-2.6c0.8-0.9,1.1-1.8,1.1-2.7c0-0.6-0.1-1.1-0.2-1.5c-0.2-0.5-0.3-0.9-0.5-1.2
		c-0.7-1.1-1.6-2-2.6-2.7c-1-0.6-2.2-1.1-3.4-1.5c-1.2-0.3-2.5-0.5-3.8-0.6c-1.3-0.1-2.7-0.1-4-0.1c-0.3,0-0.9,0-1.6,0.1
		c-0.7,0-1.4,0.1-2.2,0.2c-0.8,0.1-1.5,0.2-2.1,0.3c-0.7,0.1-1.1,0.2-1.3,0.4c-0.1,0.1-0.2,0.2-0.3,0.3c-0.1,0.2-0.1,0.3-0.2,0.4
		c-0.2,0.5-0.4,1.1-0.8,1.9c-0.3,0.8-0.7,1.7-1,2.8c-0.4,1-0.8,2.1-1.2,3.2c-0.4,1.1-0.8,2.2-1.2,3.3c-0.4,1.1-0.7,2.1-1,3
		C59.4,28,59.2,28.8,59,29.4z"/>
	<path class="st0" d="M97,36.8c0.2-0.9,0.5-1.9,0.7-3c0.3-1.1,0.6-2.2,0.9-3.4s0.7-2.4,1-3.6c0.3-1.2,0.7-2.4,1-3.5
		c0.3-1.1,0.6-2.1,0.9-3.1s0.5-1.8,0.7-2.4c0.4-1.5,0.9-3,1.2-4.5c0.4-1.5,0.8-3.1,1.1-4.8c0.5-0.9,1.1-1.5,1.9-1.9
		c0.8-0.4,1.6-0.6,2.6-0.6c0.7,0.4,1.3,0.9,1.8,1.6s0.6,1.5,0.6,2.3c0,0.6-0.1,1.3-0.3,2.1s-0.4,1.6-0.7,2.5c-0.3,0.9-0.6,1.8-1,2.8
		c-0.4,1-0.7,2-1.1,3c-0.6,1.9-1.3,3.8-1.9,5.7c-0.6,1.9-1.3,3.9-1.9,6c-0.2,0.6-0.3,1.1-0.5,1.7c-0.2,0.6-0.4,1.2-0.6,1.8
		c-0.2,0.6-0.4,1.4-0.6,2.2c-0.2,0.8-0.5,1.7-0.7,2.8c-0.3,1.2-0.5,2.5-0.7,3.7s-0.4,2.5-0.6,3.7c-0.2,1.2-0.4,2.5-0.6,3.8
		c-0.2,1.3-0.5,2.6-0.8,3.8c-0.1,0.5-0.3,0.9-0.6,1.2c-0.3,0.4-0.6,0.7-1,0.9c-0.4,0.3-0.8,0.5-1.2,0.6s-0.8,0.2-1.2,0.2
		c-0.4,0-0.7,0-1.1-0.1c-0.3-0.1-0.6-0.2-0.8-0.4c-0.3-0.3-0.5-0.6-0.7-1c-0.2-0.4-0.2-0.8-0.2-1.2c0-0.1,0-0.2,0-0.3
		c0-0.1,0-0.2,0.1-0.3L97,36.8z"/>
	<path class="st0" d="M124.1,14.7c0.1-0.6,0.3-1.2,0.5-1.9s0.5-1.3,0.8-1.9s0.8-1,1.4-1.4c0.6-0.4,1.3-0.6,2.1-0.6
		c0.8,0,1.5,0.2,2.2,0.7c0.6,0.5,1.2,0.9,1.7,1.4c0.6,0.4,1.2,1.2,1.7,2.4c0.6,1.2,1.1,2.7,1.7,4.4c0.6,1.8,1.2,3.7,1.9,6
		s1.4,4.5,2.3,7c0.8,2.4,1.7,4.9,2.8,7.4c1,2.5,2.2,5,3.5,7.4c0.2,0.4,0.4,0.8,0.7,1.3c0.3,0.5,0.6,1,0.8,1.4
		c0.3,0.4,0.6,0.8,0.8,1.1c0.2,0.3,0.4,0.5,0.5,0.5c0.1,0,0.2-0.2,0.2-0.5s0.2-0.8,0.3-1.2c0.1-0.5,0.2-1,0.4-1.5
		c0.1-0.5,0.2-0.9,0.4-1.2c0.4-1.1,0.9-2.3,1.4-3.7c0.5-1.4,1.1-3,1.7-5c0.6-2,1.3-4.3,2.1-7c0.8-2.7,1.6-5.9,2.5-9.5
		c0.2-0.9,0.5-1.9,0.7-3.1c0.3-1.1,0.5-2.3,0.8-3.5c0.2-1.2,0.5-2.4,0.6-3.5c0.2-1.1,0.3-2.1,0.4-2.9c0-0.1,0-0.4,0-0.7
		c0-0.3,0.1-0.7,0.1-1.2c0.1-0.4,0.1-0.9,0.2-1.4s0.2-0.9,0.4-1.3c0.1-0.4,0.3-0.7,0.6-1c0.2-0.3,0.5-0.4,0.8-0.4
		c0.3,0,0.7,0,1.2,0.1c0.5,0.1,0.9,0.2,1.3,0.4c0.4,0.6,0.8,1.3,1.2,2.2c0.4,0.8,0.5,2,0.5,3.4c0,0.9-0.1,2-0.3,3.2
		s-0.4,2.6-0.7,4.1c-0.3,1.4-0.6,2.9-1,4.5s-0.7,3-1.1,4.4s-0.7,2.7-1.1,3.8c-0.3,1.2-0.6,2.1-0.8,2.9c-0.4,1.3-0.8,2.7-1.3,4.1
		c-0.5,1.4-0.9,2.9-1.5,4.5c-0.5,1.6-1.1,3.2-1.8,5c-0.6,1.7-1.3,3.6-2.1,5.6c-0.3,0.9-0.7,1.8-1.2,2.7c-0.5,0.9-1,1.7-1.5,2.4
		c-0.6,0.7-1.2,1.3-2,1.8c-0.7,0.5-1.5,0.7-2.4,0.7c-0.5,0-1.1-0.1-1.6-0.2c-0.6-0.2-1-0.5-1.4-0.9c-1.9-2.2-3.6-4.7-5.1-7.5
		c-1.5-2.8-2.8-5.7-4-8.7s-2.2-6.1-3.1-9.2s-1.7-6.1-2.5-8.9l-0.2-0.8c-0.1-0.3-0.2-0.7-0.3-1c-0.1-0.3-0.2-0.6-0.2-0.9
		c-0.1-0.3-0.2-0.5-0.3-0.7c-0.1-0.2-0.2-0.3-0.4-0.3s-0.3,0.3-0.5,0.8c-0.2,0.5-0.4,1.1-0.6,1.7c-0.2,0.6-0.4,1.3-0.6,1.9
		c-0.2,0.6-0.3,1-0.3,1.1c-0.2,0.6-0.4,1.5-0.7,2.6c-0.3,1.1-0.7,2.4-1.1,3.8c-0.4,1.4-0.8,2.9-1.3,4.5c-0.5,1.6-0.9,3.1-1.4,4.6
		c-0.4,1.5-0.9,2.8-1.2,4.1c-0.4,1.2-0.7,2.3-1,3c-0.2,0.6-0.5,1.4-0.8,2.3c-0.3,0.9-0.6,1.9-0.9,2.9c-0.3,1-0.6,1.8-0.8,2.6
		c-0.3,0.8-0.4,1.3-0.5,1.6c-0.3,0.9-0.7,1.5-1.2,2c-0.5,0.5-1.1,0.7-1.6,0.7c-0.3,0-0.7-0.1-1-0.4c-0.3-0.2-0.7-0.5-0.9-0.9
		s-0.5-0.7-0.7-1.1c-0.2-0.4-0.3-0.8-0.3-1.1c0-0.2,0.1-0.5,0.2-0.9c0.1-0.4,0.3-1.1,0.6-2.1l0.9-3.6L124.1,14.7z"/>
	<path class="st0" d="M183.4,8.8c0.6,0,1.1,0.1,1.5,0.2c0.4,0.1,0.7,0.3,0.9,0.6c0.2,0.3,0.4,0.6,0.4,1.1c0.1,0.4,0.1,1,0.1,1.6
		c0,0.5,0,1-0.1,1.5c0,0.5-0.1,1-0.2,1.4c-0.1,0.5-0.2,1-0.3,1.5c-0.1,0.5-0.2,1.1-0.4,1.7c-0.4,1.8-1,3.7-1.6,5.5
		c-0.6,1.8-1.2,3.7-1.8,5.7l-1.3,4.2c1.3-0.3,2.6-0.8,3.7-1.5s2.3-1.4,3.4-2.2s2.2-1.8,3.3-2.8c1.1-1,2.1-2.1,3.3-3.2
		c1.7-1.8,3.5-3.6,5.2-5.5c1.7-1.9,3.4-3.9,5-5.8c0.3-0.3,0.5-0.8,0.8-1.4c0.3-0.6,0.6-1.2,1-1.8c0.4-0.6,0.8-1.1,1.3-1.6
		c0.5-0.4,1.1-0.7,1.8-0.7c0.5,0,0.9,0.2,1.2,0.5c0.4,0.3,0.7,0.7,0.9,1.1c0.2,0.5,0.4,0.9,0.5,1.5c0.1,0.5,0.2,1,0.2,1.5
		c0,0.4,0,0.7-0.1,1c-1.3,1.9-2.7,3.8-4.2,5.6c-1.5,1.8-3,3.5-4.6,5.2s-3.3,3.3-5,4.9c-1.7,1.6-3.4,3.1-5.1,4.7
		c2.4,0.8,4.6,1.9,6.5,3.2c2,1.3,3.7,2.9,5.2,4.7c1.5,1.8,2.8,4,3.8,6.4s1.8,5.2,2.3,8.2c-0.1,0.4-0.3,0.8-0.6,1.2
		c-0.3,0.4-0.6,0.7-0.9,1c-0.3,0.3-0.7,0.5-1.2,0.7c-0.4,0.2-0.9,0.3-1.4,0.3c-0.8,0-1.4-0.2-1.9-0.5c-0.5-0.3-0.8-0.8-1-1.3
		c-0.2-0.5-0.4-1.1-0.5-1.7c-0.1-0.6-0.2-1.2-0.3-1.8l-0.1-0.9c-0.3-1.5-0.7-3-1.4-4.4c-0.7-1.4-1.5-2.6-2.4-3.6
		c-0.9-1.1-1.9-2-3-2.7c-1.1-0.8-2.1-1.3-3.2-1.7l-1-0.4c-0.4-0.2-0.9-0.3-1.4-0.5c-0.5-0.2-1.1-0.4-1.6-0.5
		c-0.5-0.2-1.1-0.3-1.6-0.4c-0.5-0.1-1-0.2-1.4-0.2c-0.2,0-0.7,0.1-1.4,0.4c-0.7,0.3-1.4,0.6-2.2,0.9c-0.8,0.3-1.6,0.6-2.3,0.9
		c-0.8,0.3-1.3,0.5-1.7,0.6l-0.9,3.5c-0.3,1-0.4,2-0.5,3c-0.1,1-0.2,1.9-0.2,2.7c0,0.7-0.1,1.5-0.1,2.3c0,0.8-0.2,1.6-0.4,2.3
		c-0.2,0.7-0.6,1.3-1.1,1.8s-1.2,0.7-2.2,0.7c-0.6,0-1.1-0.2-1.4-0.5c-0.4-0.3-0.6-0.8-0.8-1.3c-0.2-0.5-0.3-1.1-0.3-1.7
		c0-0.6-0.1-1.1-0.1-1.6c0-0.6,0-1.3,0.1-2c0.1-0.8,0.2-1.5,0.3-2.3c0.1-0.8,0.3-1.6,0.4-2.3c0.2-0.8,0.3-1.5,0.5-2.1l8.1-32.5
		C180.5,9.6,181.6,8.8,183.4,8.8z"/>
	<path class="st0" d="M222.7,36.8c0.2-0.9,0.5-1.9,0.7-3c0.3-1.1,0.6-2.2,0.9-3.4s0.7-2.4,1-3.6c0.3-1.2,0.7-2.4,1-3.5
		c0.3-1.1,0.6-2.1,0.9-3.1s0.5-1.8,0.7-2.4c0.4-1.5,0.9-3,1.2-4.5c0.4-1.5,0.8-3.1,1.1-4.8c0.5-0.9,1.1-1.5,1.9-1.9
		c0.8-0.4,1.6-0.6,2.6-0.6c0.7,0.4,1.3,0.9,1.8,1.6s0.6,1.5,0.6,2.3c0,0.6-0.1,1.3-0.3,2.1s-0.4,1.6-0.7,2.5c-0.3,0.9-0.6,1.8-1,2.8
		c-0.4,1-0.7,2-1.1,3c-0.6,1.9-1.3,3.8-1.9,5.7c-0.6,1.9-1.3,3.9-1.9,6c-0.2,0.6-0.3,1.1-0.5,1.7c-0.2,0.6-0.4,1.2-0.6,1.8
		c-0.2,0.6-0.4,1.4-0.6,2.2c-0.2,0.8-0.5,1.7-0.7,2.8c-0.3,1.2-0.5,2.5-0.7,3.7s-0.4,2.5-0.6,3.7c-0.2,1.2-0.4,2.5-0.6,3.8
		c-0.2,1.3-0.5,2.6-0.8,3.8c-0.1,0.5-0.3,0.9-0.6,1.2c-0.3,0.4-0.6,0.7-1,0.9c-0.4,0.3-0.8,0.5-1.2,0.6s-0.8,0.2-1.2,0.2
		c-0.4,0-0.7,0-1.1-0.1c-0.3-0.1-0.6-0.2-0.8-0.4c-0.3-0.3-0.5-0.6-0.7-1c-0.2-0.4-0.2-0.8-0.2-1.2c0-0.1,0-0.2,0-0.3
		c0-0.1,0-0.2,0.1-0.3L222.7,36.8z"/>
	<path class="st0" d="M253.9,51.1c0.9-3.8,1.9-7.7,3-11.6c1.1-3.9,2.2-7.8,3.2-11.6c0.4-1.6,0.8-3,1.2-4.4c0.3-1.3,0.6-2.5,0.8-3.6
		c0.2-1.1,0.4-2,0.5-2.9c0.1-0.9,0.2-1.7,0.2-2.4c0-0.1,0-0.3,0-0.5c0-0.2,0-0.4,0-0.6c-0.2,0-0.7,0.1-1.5,0.4
		c-0.8,0.3-1.7,0.6-2.8,1c-1.1,0.4-2.2,0.9-3.4,1.4c-1.2,0.5-2.3,1-3.3,1.6c-0.8,0.4-1.5,0.8-2,1s-1,0.5-1.4,0.6
		c-0.4,0.2-0.8,0.3-1.1,0.3c-0.3,0.1-0.7,0.1-1,0.1c-0.7,0-1.3-0.3-1.9-0.8c-0.5-0.6-0.8-1.3-0.8-2.1c0-0.5,0.1-1,0.2-1.3
		c0.1-0.4,0.3-0.7,0.5-1c0.2-0.3,0.5-0.6,0.9-0.8c0.4-0.3,0.8-0.5,1.4-0.8c5.8-3.1,11.8-5.3,17.8-6.7c6-1.4,12-2.1,18-2.1
		c0.5,0,1.1,0,1.7,0c0.7,0,1.4,0.1,2.1,0.1c0.7,0.1,1.4,0.1,2.1,0.2c0.7,0.1,1.3,0.2,1.8,0.4c0.5,0.2,1,0.5,1.4,1
		c0.4,0.5,0.6,1.1,0.6,1.6c0,0.5,0,0.9-0.1,1.4c-0.1,0.4-0.2,0.8-0.4,1.1c-0.2,0.3-0.5,0.6-0.8,0.8c-0.3,0.2-0.7,0.3-1.2,0.3
		c-0.8-0.1-1.8-0.2-2.9-0.3c-1.1-0.1-2.2-0.2-3.2-0.2c-2.2,0-4.3,0.1-6.5,0.2c-2.2,0.1-4.4,0.4-6.6,0.9c-0.1,0-0.2,0.2-0.2,0.4
		c0,0.2-0.1,0.4-0.1,0.7c-0.1,1.2-0.2,2.3-0.3,3.3c-0.1,0.9-0.3,1.9-0.6,2.8c-0.2,0.9-0.5,2-0.9,3.1c-0.3,1.1-0.8,2.4-1.2,4
		c-0.5,1.5-1,3.4-1.6,5.5c-0.6,2.1-1.3,4.7-2,7.7l-1.7,6.7c-0.4,1.5-0.7,2.9-0.9,4.2c-0.2,1.2-0.4,2.5-0.6,3.7
		c-0.1,0.4-0.4,0.8-1.1,1.1s-1.3,0.5-2.2,0.5c-0.5,0-0.9-0.1-1.3-0.4c-0.4-0.3-0.7-0.6-1-1c-0.3-0.4-0.4-0.9-0.5-1.4
		C253.8,52.1,253.8,51.6,253.9,51.1z"/>
</g>
</svg>
