<?xml version="1.0" encoding="utf-8"?>
<!-- Generator: Adobe Illustrator 21.0.0, SVG Export Plug-In . SVG Version: 6.00 Build 0)  -->
<svg version="1.1" id="Слой_1" xmlns="http://www.w3.org/2000/svg" xmlns:xlink="http://www.w3.org/1999/xlink" x="0px" y="0px"
	 viewBox="0 0 288 69" style="enable-background:new 0 0 288 69;" xml:space="preserve">
<style type="text/css">
	.st0{fill:#428AFF;}
</style>
<g>
	<path class="st0" d="M99.1,7.2c0,0.2,0,0.3-0.1,0.5c0,0.2-0.1,0.4-0.2,0.7c-0.1,0.2-0.2,0.5-0.3,0.7c-0.1,0.2-0.2,0.4-0.3,0.5h0
		c-0.3,0.4-1.2,0.6-2.4,0.6c0-0.5,0-0.9-0.1-1.2c0-0.3-0.1-0.6-0.2-0.8c-0.1-0.2-0.2-0.3-0.4-0.4s-0.4-0.2-0.7-0.3
		c-0.2-0.1-0.5-0.1-0.7-0.2s-0.5-0.1-0.6-0.1c-0.5,0-0.9,0-1.4,0S91,7.4,90.6,7.4c-0.4,0.1-0.9,0.2-1.3,0.3
		c-0.4,0.1-0.9,0.3-1.3,0.5c-0.3,0.1-0.7,0.3-1,0.5c-0.4,0.2-0.7,0.4-1,0.7c-0.3,0.2-0.6,0.5-0.8,0.8c-0.2,0.3-0.4,0.6-0.4,0.9l0,0
		c0,0.3,0.1,0.5,0.3,0.9c0.2,0.3,0.4,0.6,0.7,0.9c0.3,0.3,0.6,0.6,1,0.8c0.4,0.3,0.8,0.4,1.2,0.6c0,0,0.1,0,0.3,0.1s0.3,0.1,0.5,0.2
		c0.2,0.1,0.4,0.1,0.7,0.2c0.2,0.1,0.5,0.2,0.7,0.2c0.2,0.1,0.4,0.1,0.5,0.2c0.1,0,0.2,0.1,0.3,0.1c2.5,0.6,4.3,1.4,5.5,2.3
		s1.8,2,1.8,3.3c0,0.4-0.1,0.8-0.3,1.2c-0.2,0.4-0.4,0.8-0.7,1.2s-0.6,0.7-0.9,1c-0.3,0.3-0.6,0.6-0.9,0.8l0,0
		c-0.3,0.2-0.7,0.5-1.1,0.8c-0.4,0.3-0.8,0.5-1.3,0.8s-0.9,0.5-1.4,0.7s-1,0.4-1.5,0.6c-0.5,0.2-1,0.3-1.5,0.4
		c-0.5,0.1-1,0.3-1.6,0.3s-1,0.2-1.5,0.2s-0.9,0.1-1.3,0.1c-0.2,0-0.5,0-0.7-0.1c-0.3,0-0.6-0.1-0.9-0.2c-0.3-0.1-0.7-0.2-1-0.3
		s-0.6-0.3-0.9-0.4s-0.5-0.3-0.6-0.5S80,27,80,26.8c0-0.2,0-0.4,0.1-0.6s0.2-0.5,0.3-0.7c0.1-0.2,0.3-0.4,0.4-0.6s0.3-0.3,0.5-0.3
		c0.3,0,0.5,0,0.8,0.1s0.5,0.1,0.8,0.2c0.3,0.1,0.6,0.2,1,0.2s0.9,0.1,1.5,0.1s1.2-0.1,1.8-0.2c0.6-0.1,1.2-0.3,1.9-0.5
		c0.6-0.2,1.2-0.4,1.8-0.7s1.1-0.5,1.5-0.8c0.2-0.1,0.4-0.3,0.6-0.4c0.2-0.2,0.4-0.3,0.6-0.5c0.2-0.2,0.4-0.4,0.5-0.6
		c0.1-0.2,0.2-0.4,0.2-0.7c0-0.3-0.2-0.5-0.6-0.7v0c-0.6-0.3-1.1-0.6-1.7-0.8s-1-0.3-1.5-0.5c-1.2-0.3-2.6-0.8-4.3-1.4h0
		c-0.7-0.3-1.4-0.6-2.1-1.1s-1.2-0.9-1.7-1.4c-1.1-1.2-1.6-2.6-1.6-4.1c0-0.6,0.2-1.2,0.5-1.8s0.8-1.1,1.4-1.6s1.3-1,2.1-1.4
		c0.8-0.4,1.6-0.8,2.5-1.1c0.9-0.3,1.8-0.5,2.7-0.7c0.9-0.2,1.8-0.3,2.7-0.3c0.3,0,0.6,0,1,0.1C94.1,4,94.5,4,95,4.1
		c0.4,0.1,0.8,0.2,1.2,0.3c0.4,0.1,0.7,0.2,0.9,0.3h0c0.6,0.3,1.1,0.7,1.5,1.2C98.9,6.3,99.1,6.8,99.1,7.2z"/>
	<path class="st0" d="M122.6,19.6c-0.2,1.2-0.7,2.2-1.3,3.2c-0.7,1-1.5,1.8-2.5,2.5c-1,0.7-2.1,1.3-3.4,1.7c-1.3,0.4-2.6,0.6-4,0.6
		c-0.5,0-1-0.1-1.5-0.2c-0.6-0.1-1.1-0.3-1.6-0.5c-0.5-0.2-1-0.4-1.5-0.7s-0.8-0.5-1.1-0.8c-0.5-0.5-1-1.1-1.4-1.7s-0.7-1.3-1-2
		c-0.2-0.7-0.4-1.4-0.5-2.2s-0.2-1.5-0.2-2.2c0-0.4,0-0.8,0.1-1.2c0-0.4,0.1-0.9,0.2-1.4c0.1-0.5,0.1-1,0.2-1.4s0.2-0.9,0.2-1.4
		c0.1-0.6,0.2-1.1,0.3-1.6c0.1-0.5,0.2-1,0.2-1.5c0.1-0.7,0.3-1.5,0.4-2.2c0.1-0.7,0.3-1.4,0.5-2s0.5-1,0.8-1.4s0.8-0.5,1.4-0.5
		c0.2,0,0.4,0.1,0.6,0.3s0.4,0.4,0.6,0.7c0.2,0.3,0.3,0.5,0.4,0.8s0.2,0.5,0.2,0.6c0,0.1,0,0.2-0.1,0.4c0,0.2-0.1,0.5-0.2,0.8
		c-0.1,0.3-0.2,0.6-0.3,1c-0.1,0.3-0.2,0.7-0.3,1c-0.1,0.3-0.2,0.6-0.2,0.8c-0.1,0.2-0.1,0.4-0.1,0.4c0,0.2-0.1,0.5-0.2,0.9
		s-0.1,0.8-0.2,1.3c-0.1,0.5-0.2,1-0.2,1.5c-0.1,0.5-0.2,1.1-0.2,1.6c-0.1,0.5-0.1,1-0.2,1.4c0,0.4-0.1,0.8-0.1,1
		c0,1.6,0.3,3,0.8,4.3c0.1,0.3,0.4,0.6,0.7,1c0.3,0.3,0.7,0.6,1.1,0.9s0.8,0.5,1.2,0.6s0.8,0.2,1,0.2c1.6,0,3-0.2,4-0.7
		s1.9-1.2,2.4-2.2c0.3-0.5,0.5-1,0.6-1.5c0.1-0.5,0.3-1,0.3-1.5c0.1-0.5,0.2-1,0.2-1.5s0.1-0.9,0.2-1.4c0.1-1.1,0.2-2.1,0.3-3.1
		c0.1-1,0.1-1.9,0.2-2.8s0.2-1.7,0.3-2.4c0.1-0.7,0.3-1.3,0.5-1.8c0.2-0.5,0.5-0.9,0.8-1.2c0.3-0.3,0.8-0.4,1.3-0.4
		c0.3,0,0.6,0.1,0.8,0.2c0.2,0.1,0.4,0.3,0.5,0.5c0.1,0.2,0.2,0.4,0.3,0.7s0.1,0.5,0.1,0.8c0,0.4,0,0.9-0.1,1.4
		c-0.1,0.6-0.2,1.1-0.2,1.7c-0.1,0.6-0.2,1.1-0.3,1.7s-0.2,1-0.2,1.4c-0.1,0.3-0.1,0.8-0.1,1.2s-0.1,1-0.1,1.5
		c0,0.7-0.1,1.5-0.2,2.3C122.9,17.8,122.8,18.7,122.6,19.6z"/>
	<path class="st0" d="M150.9,7.7c0,0.2,0,0.4-0.1,0.7c-0.1,0.3-0.2,0.6-0.3,1c-0.1,0.3-0.3,0.7-0.4,1c-0.2,0.3-0.3,0.6-0.5,0.8
		c-0.4,0.5-0.9,1.1-1.5,1.6c-0.6,0.6-1.4,1.1-2.3,1.7c-0.8,0.5-1.6,1.1-2.5,1.6c-0.9,0.5-1.7,1-2.5,1.4c-1,0.5-2.1,1-3.1,1.5
		c-1.1,0.5-2.1,0.9-3.2,1.2V21c0,0.1,0,0.4,0,0.7c0,0.3,0,0.7,0.1,1.1c0,0.4,0.1,0.8,0.1,1.3c0,0.5,0.1,0.9,0.1,1.4
		c0,0.4,0,0.8,0.1,1.2c0,0.4,0,0.7,0,0.9c0,0.5-0.2,1-0.5,1.3c-0.3,0.3-0.8,0.5-1.4,0.5c-1.5,0-2.3-2.6-2.3-7.8c0-0.5,0-0.9,0-1.4
		c0-0.5,0.1-1,0.1-1.5c0.1-0.5,0.1-1.1,0.2-1.7s0.2-1.3,0.3-2.1c0.1-0.6,0.2-1.3,0.3-1.9c0.1-0.6,0.2-1.2,0.3-1.7
		c0.1-0.6,0.3-1.1,0.5-1.7c0.2-0.5,0.4-1.1,0.6-1.7c-0.3,0.1-0.7,0.2-1.1,0.3c-0.4,0.1-0.7,0.3-1.1,0.4c-0.1,0.1-0.2,0.1-0.4,0.1
		s-0.2,0-0.4,0c-0.4,0-0.7-0.1-1-0.3c-0.3-0.2-0.4-0.5-0.4-0.9c0-0.4,0.1-0.8,0.3-1.2c0.2-0.3,0.5-0.6,0.9-0.9
		c0.4-0.3,0.9-0.5,1.5-0.7c0.6-0.2,1.4-0.4,2.3-0.6c0.5-0.1,1.1-0.2,1.7-0.3s1.2-0.2,1.8-0.3c0.6-0.1,1.2-0.1,1.8-0.2
		s1.1-0.1,1.6-0.1c0.6,0,1.1,0,1.7,0c0.5,0,1.1,0,1.6,0.1s1,0.1,1.5,0.2c0.5,0.1,1,0.2,1.6,0.3c1.2,0.3,2.1,0.7,2.8,1.3
		C150.5,5.8,150.9,6.7,150.9,7.7z M141.7,6.5c-0.8,0-1.8,0.1-2.8,0.2c-1,0.1-2,0.2-3,0.4c0.3,0.3,0.5,0.8,0.5,1.3
		c0,0.1,0,0.2-0.1,0.5c-0.1,0.3-0.2,0.6-0.3,0.9s-0.2,0.6-0.3,0.9c-0.1,0.3-0.2,0.5-0.2,0.5c-0.1,0.1-0.1,0.3-0.2,0.5
		c0,0.2-0.1,0.4-0.1,0.7c0,0.2-0.1,0.5-0.1,0.8c0,0.3-0.1,0.5-0.1,0.8c-0.1,0.3-0.1,0.6-0.2,0.9c0,0.3-0.1,0.5-0.1,0.7
		c0,0.2,0,0.4-0.1,0.6c0,0.2,0,0.4,0,0.6c0.4-0.2,0.8-0.3,1.2-0.5s0.9-0.4,1.4-0.6c0.5-0.2,0.9-0.4,1.4-0.6c0.4-0.2,0.8-0.4,1.2-0.5
		c0.2-0.1,0.4-0.2,0.6-0.3c0.2-0.1,0.5-0.2,0.7-0.4c0.2-0.1,0.5-0.3,0.7-0.4s0.5-0.3,0.7-0.4c0.5-0.3,1-0.7,1.6-1.1
		c0.6-0.4,1.1-0.9,1.5-1.4s0.8-1,1.1-1.5c0.3-0.5,0.4-1,0.4-1.4c0-0.2-0.3-0.4-0.8-0.5c-0.8-0.2-1.6-0.4-2.5-0.4
		C143.1,6.5,142.4,6.5,141.7,6.5z"/>
	<path class="st0" d="M176.6,4.9c0,0.1,0,0.3-0.1,0.4c-0.1,0.2-0.1,0.4-0.2,0.5c-0.1,0.2-0.2,0.4-0.3,0.5s-0.3,0.3-0.4,0.3
		c-0.3,0.1-0.6,0.2-0.8,0.3c-0.3,0.1-0.6,0.1-1,0.2c-1,0.2-2,0.4-2.9,0.5S169,7.9,168.2,8c-0.8,0.1-1.6,0.1-2.3,0.2s-1.3,0-1.8,0
		h-2.4c-0.3,0-0.7,0-1,0c-0.3,0-0.6,0-0.8,0c0,0.4-0.1,0.8-0.1,1.3c0,0.5-0.1,1-0.1,1.5s-0.1,1-0.1,1.5s-0.1,0.9-0.1,1.2
		c0.3,0,0.6,0.1,1,0.1c0.4,0,0.8,0,1.1,0c0.5,0,1,0,1.6-0.1c0.5,0,1-0.1,1.3-0.1c0.2,0,0.4,0,0.8-0.1s0.8,0,1.2-0.1
		c0.4,0,0.8-0.1,1.2-0.1c0.4,0,0.7-0.1,0.9-0.1c0.2-0.1,0.4-0.2,0.6-0.3c0.2-0.1,0.4-0.1,0.5-0.2c0.2,0,0.4-0.1,0.5-0.1
		c0.2,0,0.4,0,0.6,0c0.3,0,0.5,0.1,0.7,0.2c0.2,0.1,0.3,0.3,0.5,0.5c0.1,0.2,0.2,0.4,0.2,0.6c0,0.2,0.1,0.5,0.1,0.7
		c0,0.3-0.1,0.6-0.3,0.8c-0.2,0.2-0.4,0.4-0.7,0.5s-0.5,0.2-0.8,0.3c-0.3,0.1-0.5,0.1-0.7,0.2c-0.2,0-0.5,0.1-1,0.1
		c-0.5,0-1,0.1-1.6,0.1c-0.6,0-1.3,0.1-1.9,0.1c-0.7,0-1.3,0.1-1.9,0.1c-0.6,0-1.2,0.1-1.6,0.1c-0.5,0-0.8,0-1,0
		c-0.3,0-0.6,0-0.9,0.1s-0.6,0.1-0.9,0.2c-0.1,0.5-0.2,1.1-0.3,1.7s-0.2,1.2-0.3,1.9c-0.1,0.3-0.1,0.5-0.2,0.8
		c-0.1,0.3-0.1,0.5-0.2,0.8c0,0.2-0.1,0.5-0.1,0.7c0,0.2-0.1,0.4-0.1,0.5c0.2,0,0.5,0,0.8,0c0.3,0,0.6,0,0.9,0s0.6,0,1-0.1
		c0.3,0,0.6-0.1,0.9-0.1c0.8-0.1,1.4-0.1,2-0.2c0.5,0,1-0.1,1.5-0.1c0.4,0,0.8-0.1,1.2-0.1c0.4,0,0.8-0.1,1.2-0.2
		c0.2,0,0.5-0.1,0.8-0.1c0.3,0,0.6-0.1,1-0.1c0.3,0,0.7-0.1,1-0.1c0.3,0,0.6-0.1,0.9-0.2c0.2,0,0.3-0.1,0.5-0.2
		c0.2-0.1,0.4-0.1,0.5-0.2s0.4-0.1,0.6-0.2c0.2,0,0.4-0.1,0.6-0.1c0.2,0,0.4,0,0.7,0.1c0.2,0.1,0.4,0.2,0.6,0.4s0.3,0.4,0.4,0.6
		c0.1,0.2,0.1,0.5,0.1,0.8c0,0.1-0.1,0.2-0.2,0.4c-0.1,0.2-0.2,0.4-0.4,0.5c-0.2,0.2-0.4,0.3-0.6,0.5s-0.5,0.3-0.8,0.3
		c-0.9,0.2-1.9,0.3-2.9,0.4s-2,0.2-3.2,0.4c-0.8,0.1-1.7,0.2-2.5,0.3c-0.8,0.1-1.6,0.2-2.3,0.3c-0.7,0.1-1.3,0.2-1.9,0.2
		s-0.9,0.1-1.2,0.2c-0.2,0-0.5,0.1-0.8,0.2c-0.3,0.1-0.6,0.2-0.8,0.2c-0.3,0.1-0.6,0.1-0.8,0.2s-0.5,0.1-0.7,0.1h0
		c-0.4,0-0.7,0-1-0.1c-0.3-0.1-0.5-0.3-0.7-0.5c-0.2-0.2-0.3-0.5-0.4-0.9c-0.1-0.4-0.2-0.9-0.2-1.5c0-0.5,0.1-1,0.2-1.5
		c0.1-0.6,0.3-1.2,0.4-2c0.2-0.8,0.3-1.4,0.4-2.1s0.3-1.2,0.4-1.8c0.1-0.6,0.2-1.2,0.3-1.8c0.1-0.6,0.2-1.2,0.2-1.9
		c0-0.1,0-0.3,0-0.5c0-0.3,0-0.6,0.1-1c0-0.4,0.1-0.8,0.1-1.3c0-0.5,0.1-0.9,0.1-1.3c0-0.4,0.1-0.7,0.1-1c0-0.3,0-0.5,0-0.6
		c0-0.1,0-0.2,0-0.3c0-0.1,0-0.3,0-0.3c0-0.2,0-0.5,0.1-0.8c0.1-0.3,0.2-0.6,0.4-0.9c0.1-0.2,0.3-0.3,0.5-0.5
		c0.2-0.2,0.5-0.3,0.8-0.5c0.3-0.1,0.6-0.3,0.8-0.3c0.3-0.1,0.5-0.1,0.7-0.1c0.1,0,0.3,0,0.6,0.1c0.3,0,0.5,0.1,0.8,0.1
		c0.3,0.1,0.5,0.1,0.8,0.1s0.4,0.1,0.5,0.1c0.2,0,0.6,0,1,0c0.4,0,0.9,0,1.4,0c0.9,0,1.9,0,2.9-0.1c1-0.1,1.9-0.2,2.9-0.3
		c0.4-0.1,0.9-0.2,1.2-0.3s0.8-0.2,1.1-0.3c0.4-0.1,0.7-0.2,1.1-0.3c0.4-0.1,0.8-0.1,1.2-0.1c0.2,0,0.4,0,0.6,0.1
		c0.2,0.1,0.4,0.2,0.6,0.4c0.2,0.2,0.3,0.3,0.4,0.5C176.5,4.5,176.6,4.7,176.6,4.9z"/>
	<path class="st0" d="M205.4,26.4c0,0.3-0.1,0.5-0.3,0.8s-0.4,0.4-0.7,0.6c-0.2,0.1-0.5,0.2-0.7,0.3c-0.3,0.1-0.6,0.1-0.8,0.1
		c-0.6,0-1.3-0.1-1.9-0.4s-1.3-0.6-2-1.1c-0.4-0.2-0.8-0.6-1.4-0.9c-0.5-0.4-1.2-0.9-1.9-1.4c-0.2-0.1-0.5-0.4-1-0.8
		c-0.5-0.4-1.2-0.9-2-1.6c-0.8-0.6-1.4-1.1-1.9-1.4c-0.5-0.3-0.7-0.5-0.8-0.6c-0.1-0.1-0.3-0.1-0.4-0.1c-0.1,0-0.4,0-0.7,0
		c-0.1,0-0.2,0-0.2,0s-0.2,0-0.3,0c-0.1,0-0.2,0-0.4,0c-0.2,0-0.4,0-0.7,0c-0.7-0.5-1-1.1-1-1.9c0-0.4,0.1-0.7,0.3-1
		s0.4-0.4,0.8-0.5c0.1,0,0.2,0,0.2,0s0.1,0,0.1,0c0,0,0.1,0,0.2,0c0.1,0,0.2,0,0.4,0c0.3,0,0.6,0,0.9-0.1s0.6-0.2,0.8-0.3
		c0.3-0.1,0.5-0.2,0.8-0.4c0.3-0.1,0.5-0.3,0.7-0.4c0.3-0.2,0.7-0.4,1.1-0.6c0.4-0.2,0.7-0.5,1.1-0.7c0.3-0.2,0.7-0.5,1-0.7
		c0.3-0.3,0.6-0.6,0.9-0.9c0.2-0.2,0.4-0.5,0.5-0.7c0.1-0.3,0.2-0.5,0.2-0.7c0-0.4-0.1-0.7-0.4-1.1s-0.5-0.7-0.9-0.9
		c-0.4-0.3-0.8-0.5-1.2-0.7c-0.4-0.2-0.8-0.4-1.2-0.5c-0.7-0.2-1.5-0.3-2.2-0.3c-0.2,0-0.5,0-0.8,0s-0.7,0.1-1.1,0.1
		c-0.4,0-0.7,0.1-1.1,0.1c-0.3,0-0.7,0.1-1,0.1c-0.2,0-0.3,0-0.4,0c-0.1,0-0.2,0-0.3,0c-0.1,0-0.2,0-0.3,0.1c-0.1,0-0.3,0.1-0.5,0.1
		c0.1,0.2,0.2,0.4,0.2,0.6s0.1,0.5,0.2,0.7c0.1,0.4,0.2,0.8,0.2,1.2c0,0.3,0,0.7,0,0.9c0,0.3,0,0.6,0,0.9c0,0.3,0,0.6,0,0.9
		c0,0.6-0.1,1.1-0.2,1.7c-0.1,0.6-0.2,1.3-0.4,2.2c-0.1,0.8-0.2,1.4-0.3,2c-0.1,0.6-0.2,1.1-0.2,1.6c-0.1,0.4-0.1,0.8-0.1,1.3
		c0,0.4,0,0.8,0,1.2c0,0.3,0,0.6,0,1s0.1,0.6,0.2,0.9c0.1,0.3,0.2,0.6,0.3,0.8c0.1,0.3,0.3,0.6,0.5,0.9c-0.1,0.2-0.2,0.3-0.4,0.5
		c-0.2,0.2-0.3,0.3-0.5,0.4c-0.2,0.1-0.4,0.2-0.6,0.3c-0.2,0.1-0.4,0.1-0.5,0.1c-0.9,0-1.5-0.2-1.9-0.5c-0.5-0.4-0.7-0.8-0.8-1.4
		c-0.1-0.3-0.1-0.5-0.1-0.9c0-0.3,0-0.7,0-1.1c0-0.6,0-1.2,0.1-1.7c0.1-0.5,0.1-0.9,0.2-1.4c0.1-0.4,0.1-0.9,0.2-1.3
		c0.1-0.2,0.1-0.4,0.1-0.5c0-0.2,0.1-0.4,0.1-0.5c0-0.2,0.1-0.4,0.1-0.6s0.1-0.5,0.1-0.8c0.1-0.9,0.3-1.7,0.3-2.5s0.1-1.6,0.1-2.2
		c0-0.5,0-1.1,0-1.6c0-0.6-0.1-1.2-0.1-1.8C181.5,8.9,181.2,9,181,9c-0.2,0-0.4,0.1-0.5,0.1c-0.6,0-0.9-0.1-1.1-0.4
		c-0.2-0.3-0.3-0.7-0.3-1.2c0-0.6,0.5-1.1,1.4-1.5c0.4-0.2,0.8-0.3,1.1-0.5c0.4-0.2,0.8-0.3,1.1-0.4c0.4-0.1,0.9-0.3,1.5-0.4
		s1.2-0.2,1.9-0.3c0.7-0.1,1.3-0.2,1.9-0.2s1.1-0.1,1.6-0.1c1.6,0,3.2,0.2,4.7,0.6c0.8,0.2,1.5,0.5,2.2,0.8s1.3,0.8,1.8,1.2
		c1.2,1,1.7,2.4,1.7,4c0,1.1-0.4,2.1-1.2,3.2c-0.7,0.9-1.5,1.6-2.4,2.2s-1.9,1.3-3,1.8c0.3,0.2,0.7,0.5,1,0.7s0.7,0.5,1.1,0.8
		c0.6,0.4,1.1,0.8,1.7,1.2c0.5,0.4,1,0.7,1.4,1s0.9,0.7,1.5,1c0.5,0.4,1.1,0.8,1.8,1.2c0.6,0.4,1.2,0.8,1.7,1.1
		c0.5,0.3,1,0.6,1.3,0.8L205.4,26.4z"/>
	<path class="st0" d="M19.9,46.8c0,0.2,0,0.3-0.1,0.5c0,0.2-0.1,0.4-0.2,0.7s-0.2,0.5-0.2,0.7c-0.1,0.2-0.2,0.4-0.3,0.5h0
		c-0.3,0.4-1.2,0.6-2.4,0.6c0-0.5,0-0.9-0.1-1.2c0-0.3-0.1-0.6-0.2-0.8c-0.1-0.2-0.2-0.3-0.4-0.4s-0.4-0.2-0.7-0.3
		c-0.2-0.1-0.5-0.1-0.7-0.2s-0.5-0.1-0.6-0.1c-0.5,0-0.9,0-1.4,0S11.8,47,11.4,47c-0.4,0.1-0.9,0.2-1.3,0.3
		c-0.4,0.1-0.9,0.3-1.3,0.5c-0.3,0.1-0.7,0.3-1,0.5c-0.4,0.2-0.7,0.4-1,0.7c-0.3,0.2-0.6,0.5-0.8,0.8c-0.2,0.3-0.4,0.6-0.4,0.9l0,0
		c0,0.3,0.1,0.5,0.3,0.9C6,51.7,6.2,52,6.5,52.3c0.3,0.3,0.6,0.6,1,0.8c0.4,0.3,0.8,0.4,1.2,0.6c0,0,0.1,0,0.3,0.1s0.3,0.1,0.5,0.2
		c0.2,0.1,0.4,0.1,0.7,0.2c0.2,0.1,0.5,0.2,0.7,0.2c0.2,0.1,0.4,0.1,0.5,0.2c0.1,0,0.2,0.1,0.3,0.1c2.5,0.6,4.3,1.4,5.5,2.3
		s1.8,2,1.8,3.3c0,0.4-0.1,0.8-0.3,1.2s-0.4,0.8-0.7,1.2s-0.6,0.7-0.9,1c-0.3,0.3-0.6,0.6-0.9,0.8l0,0c-0.3,0.2-0.7,0.5-1.1,0.8
		c-0.4,0.3-0.8,0.5-1.3,0.8s-0.9,0.5-1.4,0.7s-1,0.4-1.5,0.6c-0.5,0.2-1,0.3-1.5,0.4c-0.5,0.1-1,0.3-1.6,0.3s-1,0.2-1.5,0.2
		s-0.9,0.1-1.3,0.1c-0.2,0-0.5,0-0.7-0.1c-0.3,0-0.6-0.1-0.9-0.2c-0.3-0.1-0.7-0.2-1-0.3S2,67.6,1.7,67.4S1.2,67.1,1.1,67
		s-0.2-0.4-0.2-0.5c0-0.2,0-0.4,0.1-0.6s0.2-0.5,0.3-0.7c0.1-0.2,0.3-0.4,0.4-0.6s0.3-0.3,0.5-0.3c0.3,0,0.5,0,0.8,0.1
		s0.5,0.1,0.8,0.2c0.3,0.1,0.6,0.2,1,0.2s0.9,0.1,1.5,0.1s1.2-0.1,1.8-0.2c0.6-0.1,1.2-0.3,1.9-0.5c0.6-0.2,1.2-0.4,1.8-0.7
		s1.1-0.5,1.5-0.8c0.2-0.1,0.4-0.3,0.6-0.4c0.2-0.2,0.4-0.3,0.6-0.5c0.2-0.2,0.4-0.4,0.5-0.6s0.2-0.4,0.2-0.7c0-0.3-0.2-0.5-0.6-0.7
		v0c-0.6-0.3-1.1-0.6-1.7-0.8s-1-0.3-1.5-0.5c-1.2-0.3-2.6-0.8-4.3-1.4h0c-0.7-0.3-1.4-0.6-2.1-1.1S3.8,55,3.3,54.5
		c-1.1-1.2-1.6-2.6-1.6-4.1c0-0.6,0.2-1.2,0.5-1.8s0.8-1.1,1.4-1.6s1.3-1,2.1-1.4c0.8-0.4,1.6-0.8,2.5-1.1c0.9-0.3,1.8-0.5,2.7-0.7
		c0.9-0.2,1.8-0.3,2.7-0.3c0.3,0,0.6,0,1,0.1c0.4,0,0.8,0.1,1.2,0.2c0.4,0.1,0.8,0.2,1.2,0.3c0.4,0.1,0.7,0.2,0.9,0.3h0
		c0.6,0.3,1.1,0.7,1.5,1.2C19.7,45.9,19.9,46.4,19.9,46.8z"/>
	<path class="st0" d="M48.5,56.5c0,0.4-0.1,0.8-0.4,1.3s-0.7,1-1.2,1.5s-1.1,1.1-1.7,1.6s-1.3,1.1-2.1,1.7c-1,0.8-2,1.5-3.1,2.2
		c-1.1,0.7-2.2,1.3-3.4,1.8c-1.1,0.5-2.3,1-3.4,1.3s-2.2,0.5-3.3,0.5c-1.2,0-2.3-0.2-3.2-0.5c-0.9-0.3-1.6-0.8-2.2-1.5
		s-1-1.4-1.3-2.3c-0.3-0.9-0.4-1.9-0.4-3c0-0.9,0.1-1.9,0.3-2.8s0.5-1.9,0.9-2.9c0.4-0.9,0.8-1.9,1.3-2.7s1.1-1.7,1.7-2.4
		c0.3-0.4,0.8-0.9,1.2-1.3c0.5-0.5,1-0.9,1.5-1.4s1.1-0.9,1.6-1.3c0.5-0.4,1-0.7,1.5-1c0.3-0.2,0.8-0.4,1.3-0.7
		c0.5-0.3,1.1-0.5,1.7-0.7c0.6-0.2,1.1-0.4,1.7-0.6s1-0.2,1.5-0.2c0.7,0,1.3,0,1.7,0.1s0.8,0.3,1.1,0.5c0.2,0.1,0.3,0.3,0.5,0.5
		s0.4,0.5,0.6,0.8s0.3,0.6,0.5,0.9c0.1,0.3,0.2,0.5,0.2,0.7c0,0.1,0,0.3-0.1,0.5c-0.1,0.2-0.2,0.5-0.3,0.7s-0.3,0.5-0.4,0.8
		c-0.2,0.3-0.3,0.5-0.5,0.8s-0.3,0.5-0.4,0.7s-0.2,0.3-0.3,0.4c-0.5,0.6-1.1,0.9-1.8,0.9c-0.6,0-1.1-0.2-1.4-0.5
		c-0.3-0.3-0.5-0.8-0.5-1.3c0-0.2,0.1-0.4,0.3-0.8s0.5-0.7,0.9-1.2c0.2-0.2,0.4-0.4,0.5-0.6c0.2-0.2,0.3-0.4,0.4-0.5
		c-0.3-0.1-0.5-0.1-0.8-0.1c-0.3,0-0.7,0.1-1.2,0.2c-0.5,0.2-1,0.4-1.6,0.6S35,47.6,34.5,48s-1,0.6-1.3,0.9c-1,0.8-1.9,1.7-2.8,2.7
		s-1.6,2.1-2.2,3.3c-0.2,0.5-0.4,1-0.6,1.5S27.2,57.5,27,58s-0.3,1.1-0.4,1.7c-0.1,0.6-0.1,1.1-0.1,1.6c0,0.5,0.1,1.1,0.2,1.5
		s0.3,0.9,0.6,1.2c0.3,0.3,0.6,0.6,1.1,0.8s1,0.3,1.6,0.3c0.8,0,1.6-0.1,2.4-0.3c0.8-0.2,1.7-0.5,2.5-0.9c0.9-0.4,1.7-0.8,2.6-1.2
		c0.9-0.5,1.7-1,2.5-1.5c0.8-0.5,1.6-1,2.3-1.6s1.4-1,1.9-1.5c0.2-0.2,0.5-0.4,0.7-0.6c0.3-0.2,0.6-0.5,0.8-0.8
		c0.3-0.3,0.6-0.5,0.8-0.8c0.3-0.3,0.5-0.5,0.7-0.8c0.2,0.1,0.4,0.2,0.6,0.3c0.1,0.1,0.3,0.2,0.3,0.3c0.1,0.1,0.1,0.2,0.1,0.3
		S48.5,56.3,48.5,56.5z"/>
	<path class="st0" d="M74.5,66c0,0.3-0.1,0.5-0.3,0.8s-0.4,0.4-0.7,0.6c-0.2,0.1-0.5,0.2-0.7,0.3c-0.3,0.1-0.6,0.1-0.8,0.1
		c-0.6,0-1.3-0.1-1.9-0.4s-1.3-0.6-2-1.1c-0.4-0.2-0.8-0.6-1.4-0.9c-0.5-0.4-1.2-0.9-1.9-1.4c-0.2-0.1-0.5-0.4-1-0.8
		c-0.5-0.4-1.2-0.9-2-1.6c-0.8-0.6-1.4-1.1-1.9-1.4c-0.5-0.3-0.7-0.5-0.8-0.6c-0.1-0.1-0.3-0.1-0.4-0.1s-0.4,0-0.7,0
		c-0.1,0-0.2,0-0.2,0s-0.2,0-0.3,0c-0.1,0-0.2,0-0.4,0s-0.4,0-0.7,0c-0.7-0.5-1-1.1-1-1.9c0-0.4,0.1-0.7,0.3-1s0.4-0.4,0.8-0.5
		c0.1,0,0.2,0,0.2,0s0.1,0,0.1,0c0,0,0.1,0,0.2,0c0.1,0,0.2,0,0.4,0c0.3,0,0.6,0,0.9-0.1s0.6-0.2,0.8-0.3c0.3-0.1,0.5-0.2,0.8-0.4
		c0.3-0.1,0.5-0.3,0.7-0.4c0.3-0.2,0.7-0.4,1.1-0.6c0.4-0.2,0.7-0.5,1.1-0.7c0.3-0.2,0.7-0.5,1-0.7c0.3-0.3,0.6-0.6,0.9-0.9
		c0.2-0.2,0.4-0.5,0.5-0.7c0.1-0.3,0.2-0.5,0.2-0.7c0-0.4-0.1-0.7-0.4-1.1s-0.5-0.7-0.9-0.9s-0.8-0.5-1.2-0.7
		c-0.4-0.2-0.8-0.4-1.2-0.5c-0.7-0.2-1.5-0.3-2.2-0.3c-0.2,0-0.5,0-0.8,0s-0.7,0.1-1.1,0.1c-0.4,0-0.7,0.1-1.1,0.1
		c-0.3,0-0.7,0.1-1,0.1c-0.2,0-0.3,0-0.4,0s-0.2,0-0.3,0c-0.1,0-0.2,0-0.3,0.1c-0.1,0-0.3,0.1-0.5,0.1c0.1,0.2,0.2,0.4,0.2,0.6
		s0.1,0.5,0.2,0.7c0.1,0.4,0.2,0.8,0.2,1.2s0,0.7,0,0.9c0,0.3,0,0.6,0,0.9s0,0.6,0,0.9c0,0.6-0.1,1.1-0.2,1.7
		c-0.1,0.6-0.2,1.3-0.4,2.2c-0.1,0.8-0.2,1.4-0.3,2c-0.1,0.6-0.2,1.1-0.2,1.6c-0.1,0.4-0.1,0.8-0.1,1.3c0,0.4,0,0.8,0,1.2
		c0,0.3,0,0.6,0,1s0.1,0.6,0.2,0.9c0.1,0.3,0.2,0.6,0.3,0.8c0.1,0.3,0.3,0.6,0.5,0.9c-0.1,0.2-0.2,0.3-0.4,0.5s-0.3,0.3-0.5,0.4
		c-0.2,0.1-0.4,0.2-0.6,0.3c-0.2,0.1-0.4,0.1-0.5,0.1c-0.9,0-1.5-0.2-1.9-0.5c-0.5-0.4-0.7-0.8-0.8-1.4c-0.1-0.3-0.1-0.5-0.1-0.9
		c0-0.3,0-0.7,0-1.1c0-0.6,0-1.2,0.1-1.7c0.1-0.5,0.1-0.9,0.2-1.4s0.1-0.9,0.2-1.3c0.1-0.2,0.1-0.4,0.1-0.5s0.1-0.4,0.1-0.5
		s0.1-0.4,0.1-0.6s0.1-0.5,0.1-0.8c0.1-0.9,0.3-1.7,0.3-2.5s0.1-1.6,0.1-2.2c0-0.5,0-1.1,0-1.6c0-0.6-0.1-1.2-0.1-1.8
		c-0.3,0.1-0.6,0.2-0.9,0.2c-0.2,0-0.4,0.1-0.5,0.1c-0.6,0-0.9-0.1-1.1-0.4c-0.2-0.3-0.3-0.7-0.3-1.2c0-0.6,0.5-1.1,1.5-1.5
		c0.4-0.2,0.8-0.3,1.1-0.5c0.4-0.2,0.8-0.3,1.1-0.4c0.4-0.1,0.9-0.3,1.5-0.4s1.2-0.2,1.9-0.3c0.7-0.1,1.3-0.2,1.9-0.2
		s1.1-0.1,1.6-0.1c1.6,0,3.2,0.2,4.7,0.6c0.8,0.2,1.5,0.5,2.2,0.8s1.3,0.8,1.8,1.2c1.2,1,1.7,2.4,1.7,4c0,1.1-0.4,2.1-1.2,3.2
		c-0.7,0.9-1.5,1.6-2.4,2.2s-1.9,1.3-3,1.8c0.3,0.2,0.7,0.5,1,0.7s0.7,0.5,1.1,0.8c0.6,0.4,1.1,0.8,1.7,1.2s1,0.7,1.4,1
		s0.9,0.7,1.5,1s1.1,0.8,1.8,1.2c0.6,0.4,1.2,0.8,1.7,1.1c0.5,0.3,1,0.6,1.3,0.8L74.5,66z"/>
	<path class="st0" d="M99.5,52.1c0,0.7-0.1,1.4-0.3,2.3c-0.2,0.8-0.5,1.7-0.9,2.6s-0.9,1.8-1.5,2.7c-0.6,0.9-1.2,1.7-1.9,2.4
		c-1.1,1.2-2.1,2.1-3.1,2.9c-1,0.8-1.9,1.4-2.9,1.8c-1,0.5-2,0.8-3,1c-1,0.2-2.1,0.3-3.4,0.3c-0.6,0-1.3-0.1-1.9-0.4
		c-0.6-0.2-1.1-0.6-1.7-1c-0.5-0.4-1-0.9-1.4-1.4s-0.8-1.1-1.1-1.7c-0.3-0.6-0.5-1.2-0.7-1.8s-0.2-1.2-0.2-1.8c0-1,0.2-2.1,0.5-3.4
		c0.3-1.2,0.8-2.4,1.4-3.7s1.3-2.4,2.1-3.6c0.8-1.2,1.8-2.2,2.8-3.1c1-0.9,2.1-1.6,3.3-2.2c1.2-0.5,2.5-0.8,3.8-0.8
		c0.7,0,1.3,0,2,0.1c0.7,0.1,1.3,0.2,1.8,0.4c0.6,0.2,1.1,0.3,1.6,0.6s0.9,0.5,1.3,0.8c0.8,0.6,1.4,1.1,1.8,1.7
		c0.4,0.5,0.8,1.1,1,1.6c0.2,0.5,0.4,1.1,0.4,1.7C99.5,50.7,99.5,51.4,99.5,52.1z M89.4,46.6c-0.7,0-1.3,0.1-1.9,0.4
		s-1.2,0.6-1.7,1.1s-1.1,1-1.6,1.5c-0.5,0.6-1,1.2-1.4,1.7c-0.4,0.5-0.8,1.1-1.2,1.8c-0.4,0.7-0.7,1.4-1,2.1s-0.5,1.5-0.7,2.3
		s-0.3,1.6-0.3,2.3c0,0.7,0.1,1.3,0.3,1.9s0.5,1.1,0.9,1.5c0.4,0.4,0.8,0.7,1.2,0.9s0.9,0.3,1.4,0.3c0.8,0,1.6-0.1,2.4-0.3
		s1.5-0.5,2.2-0.9c0.7-0.4,1.4-0.9,2-1.4c0.6-0.5,1.2-1.1,1.7-1.7s1-1.2,1.4-1.9c0.4-0.7,0.8-1.3,1.1-2c0.3-0.6,0.5-1.4,0.8-2.2
		c0.2-0.8,0.3-1.7,0.3-2.5c0-0.4,0-0.7-0.1-1c0-0.3-0.1-0.7-0.2-1c-0.1-0.3-0.3-0.6-0.6-1c-0.3-0.3-0.7-0.7-1.2-1s-1-0.6-1.7-0.8
		C91,46.7,90.3,46.6,89.4,46.6z"/>
	<path class="st0" d="M121.9,65c-0.1,0.2-0.3,0.3-0.4,0.4c-0.2,0.1-0.4,0.2-0.5,0.3c-0.2,0.1-0.4,0.1-0.6,0.2
		c-0.2,0-0.4,0.1-0.5,0.1h-2.4c-0.5,0-1,0-1.6,0.1c-0.6,0.1-1.2,0.2-1.8,0.3s-1.2,0.3-1.8,0.4c-0.6,0.2-1.2,0.3-1.7,0.5
		c-0.9,0.2-1.7,0.5-2.4,0.6c-0.8,0.2-1.4,0.3-2,0.3c-0.5,0-0.9-0.1-1.2-0.2c-0.3-0.1-0.6-0.3-0.8-0.5c-0.2-0.2-0.4-0.4-0.5-0.7
		s-0.1-0.5-0.1-0.8c0-0.5,0.1-1.2,0.2-2c0.1-0.8,0.3-1.6,0.5-2.4c0-0.2,0.1-0.7,0.2-1.3c0.1-0.6,0.2-1.4,0.4-2.3
		c0.1-0.9,0.3-1.8,0.5-2.8c0.2-1,0.3-1.9,0.4-2.8s0.3-1.7,0.4-2.4c0.1-0.7,0.2-1.2,0.2-1.5c0.1-0.5,0.1-1,0.1-1.5
		c0-0.5,0.1-0.9,0.1-1.3c0-0.4,0.1-0.7,0.2-1.1s0.2-0.6,0.4-0.8c0.2-0.2,0.4-0.4,0.7-0.5c0.3-0.1,0.7-0.2,1.1-0.2
		c0.4,0,0.7,0.1,1,0.2s0.5,0.3,0.6,0.5c0.1,0.2,0.3,0.5,0.3,0.8c0.1,0.3,0.1,0.6,0.1,0.9c0,0.1,0,0.4-0.1,0.7
		c-0.1,0.4-0.2,0.9-0.3,1.5c-0.1,0.6-0.2,1.2-0.4,1.9c-0.1,0.7-0.3,1.4-0.4,2.2s-0.3,1.4-0.4,2.1c-0.1,0.7-0.2,1.3-0.3,1.9
		c-0.1,0.5-0.2,1.1-0.3,1.7c-0.1,0.6-0.3,1.2-0.4,1.8c-0.1,0.5-0.2,0.9-0.2,1.4c-0.1,0.5-0.2,0.9-0.2,1.3s-0.1,0.8-0.2,1.1
		c0,0.3-0.1,0.6-0.1,0.8c0,0.1,0,0.2,0,0.3c0,0.1,0.1,0.2,0.1,0.2c0.2,0,0.5,0,0.9-0.1s0.8-0.2,1.2-0.3s0.9-0.2,1.3-0.4
		c0.5-0.1,0.9-0.3,1.3-0.4c0.1,0,0.3-0.1,0.5-0.1c0.3-0.1,0.6-0.1,0.9-0.2c0.4-0.1,0.7-0.2,1.1-0.2c0.4-0.1,0.8-0.1,1.1-0.2
		c0.4-0.1,0.7-0.1,1-0.2c0.3,0,0.5-0.1,0.6-0.1c0.1,0,0.4,0,0.8-0.1s0.9-0.1,1.4-0.1c0.9,0,1.5,0.1,1.9,0.3c0.4,0.2,0.6,0.6,0.6,1.1
		c0,0.2,0,0.4-0.1,0.7C122.2,64.7,122.1,64.9,121.9,65z"/>
	<path class="st0" d="M144.3,65c-0.1,0.2-0.3,0.3-0.4,0.4c-0.2,0.1-0.4,0.2-0.5,0.3c-0.2,0.1-0.4,0.1-0.6,0.2
		c-0.2,0-0.4,0.1-0.5,0.1h-2.4c-0.5,0-1,0-1.6,0.1c-0.6,0.1-1.2,0.2-1.8,0.3s-1.2,0.3-1.8,0.4c-0.6,0.2-1.2,0.3-1.7,0.5
		c-0.9,0.2-1.7,0.5-2.4,0.6c-0.8,0.2-1.4,0.3-2,0.3c-0.5,0-0.9-0.1-1.2-0.2c-0.3-0.1-0.6-0.3-0.8-0.5c-0.2-0.2-0.4-0.4-0.5-0.7
		s-0.1-0.5-0.1-0.8c0-0.5,0.1-1.2,0.2-2c0.1-0.8,0.3-1.6,0.5-2.4c0-0.2,0.1-0.7,0.2-1.3c0.1-0.6,0.2-1.4,0.4-2.3
		c0.1-0.9,0.3-1.8,0.5-2.8c0.2-1,0.3-1.9,0.4-2.8s0.3-1.7,0.4-2.4c0.1-0.7,0.2-1.2,0.2-1.5c0.1-0.5,0.1-1,0.1-1.5
		c0-0.5,0.1-0.9,0.1-1.3c0-0.4,0.1-0.7,0.2-1.1s0.2-0.6,0.4-0.8c0.2-0.2,0.4-0.4,0.7-0.5c0.3-0.1,0.7-0.2,1.1-0.2
		c0.4,0,0.7,0.1,1,0.2s0.5,0.3,0.6,0.5c0.1,0.2,0.3,0.5,0.3,0.8c0.1,0.3,0.1,0.6,0.1,0.9c0,0.1,0,0.4-0.1,0.7
		c-0.1,0.4-0.2,0.9-0.3,1.5c-0.1,0.6-0.2,1.2-0.4,1.9c-0.1,0.7-0.3,1.4-0.4,2.2s-0.3,1.4-0.4,2.1c-0.1,0.7-0.2,1.3-0.3,1.9
		c-0.1,0.5-0.2,1.1-0.3,1.7c-0.1,0.6-0.3,1.2-0.4,1.8c-0.1,0.5-0.2,0.9-0.2,1.4c-0.1,0.5-0.2,0.9-0.2,1.3s-0.1,0.8-0.2,1.1
		c0,0.3-0.1,0.6-0.1,0.8c0,0.1,0,0.2,0,0.3c0,0.1,0.1,0.2,0.1,0.2c0.2,0,0.5,0,0.9-0.1s0.8-0.2,1.2-0.3s0.9-0.2,1.3-0.4
		c0.5-0.1,0.9-0.3,1.3-0.4c0.1,0,0.3-0.1,0.5-0.1c0.3-0.1,0.6-0.1,0.9-0.2c0.4-0.1,0.7-0.2,1.1-0.2c0.4-0.1,0.8-0.1,1.1-0.2
		c0.4-0.1,0.7-0.1,1-0.2c0.3,0,0.5-0.1,0.6-0.1c0.1,0,0.4,0,0.8-0.1s0.9-0.1,1.4-0.1c0.9,0,1.5,0.1,1.9,0.3c0.4,0.2,0.6,0.6,0.6,1.1
		c0,0.2,0,0.4-0.1,0.7C144.5,64.7,144.4,64.9,144.3,65z"/>
	<path class="st0" d="M170.7,52.1c0,0.7-0.1,1.4-0.3,2.3c-0.2,0.8-0.5,1.7-0.9,2.6c-0.4,0.9-0.9,1.8-1.5,2.7s-1.2,1.7-1.9,2.4
		c-1.1,1.2-2.1,2.1-3.1,2.9c-1,0.8-2,1.4-2.9,1.8c-1,0.5-2,0.8-3,1c-1,0.2-2.1,0.3-3.4,0.3c-0.6,0-1.3-0.1-1.9-0.4
		c-0.6-0.2-1.1-0.6-1.7-1c-0.5-0.4-1-0.9-1.4-1.4c-0.4-0.5-0.8-1.1-1.1-1.7c-0.3-0.6-0.5-1.2-0.7-1.8c-0.2-0.6-0.3-1.2-0.3-1.8
		c0-1,0.2-2.1,0.5-3.4c0.3-1.2,0.8-2.4,1.4-3.7c0.6-1.2,1.3-2.4,2.1-3.6c0.8-1.2,1.8-2.2,2.8-3.1c1-0.9,2.1-1.6,3.3-2.2
		c1.2-0.5,2.5-0.8,3.8-0.8c0.7,0,1.3,0,2,0.1c0.7,0.1,1.3,0.2,1.8,0.4c0.6,0.2,1.1,0.3,1.6,0.6c0.5,0.2,0.9,0.5,1.3,0.8
		c0.8,0.6,1.4,1.1,1.8,1.7c0.4,0.5,0.8,1.1,1,1.6c0.2,0.5,0.4,1.1,0.4,1.7C170.7,50.7,170.7,51.4,170.7,52.1z M160.6,46.6
		c-0.7,0-1.3,0.1-1.9,0.4c-0.6,0.3-1.2,0.6-1.7,1.1c-0.6,0.5-1.1,1-1.6,1.5c-0.5,0.6-1,1.2-1.4,1.7c-0.4,0.5-0.8,1.1-1.2,1.8
		c-0.4,0.7-0.7,1.4-1,2.1c-0.3,0.7-0.5,1.5-0.7,2.3s-0.3,1.6-0.3,2.3c0,0.7,0.1,1.3,0.3,1.9c0.2,0.6,0.5,1.1,0.9,1.5
		c0.4,0.4,0.8,0.7,1.2,0.9s0.9,0.3,1.4,0.3c0.8,0,1.6-0.1,2.4-0.3s1.5-0.5,2.2-0.9c0.7-0.4,1.4-0.9,2-1.4s1.2-1.1,1.7-1.7
		c0.5-0.6,1-1.2,1.4-1.9c0.4-0.7,0.8-1.3,1.1-2c0.3-0.6,0.5-1.4,0.7-2.2c0.2-0.8,0.3-1.7,0.3-2.5c0-0.4,0-0.7-0.1-1
		c0-0.3-0.1-0.7-0.2-1c-0.1-0.3-0.3-0.6-0.6-1c-0.3-0.3-0.7-0.7-1.2-1c-0.5-0.3-1-0.6-1.7-0.8C162.2,46.7,161.5,46.6,160.6,46.6z"/>
	<path class="st0" d="M201.1,66c0,0.3-0.1,0.5-0.3,0.8s-0.4,0.4-0.7,0.6c-0.2,0.1-0.5,0.2-0.7,0.3c-0.3,0.1-0.6,0.1-0.8,0.1
		c-0.6,0-1.3-0.1-1.9-0.4s-1.3-0.6-2-1.1c-0.4-0.2-0.8-0.6-1.4-0.9c-0.5-0.4-1.2-0.9-1.9-1.4c-0.2-0.1-0.5-0.4-1-0.8
		c-0.5-0.4-1.2-0.9-2-1.6c-0.8-0.6-1.4-1.1-1.9-1.4c-0.5-0.3-0.7-0.5-0.8-0.6c-0.1-0.1-0.3-0.1-0.4-0.1c-0.1,0-0.4,0-0.7,0
		c-0.1,0-0.2,0-0.2,0s-0.2,0-0.3,0c-0.1,0-0.2,0-0.4,0c-0.2,0-0.4,0-0.7,0c-0.7-0.5-1-1.1-1-1.9c0-0.4,0.1-0.7,0.3-1
		s0.4-0.4,0.8-0.5c0.1,0,0.2,0,0.2,0s0.1,0,0.1,0c0,0,0.1,0,0.2,0c0.1,0,0.2,0,0.4,0c0.3,0,0.6,0,0.9-0.1s0.6-0.2,0.8-0.3
		c0.3-0.1,0.5-0.2,0.8-0.4c0.3-0.1,0.5-0.3,0.7-0.4c0.3-0.2,0.7-0.4,1.1-0.6c0.4-0.2,0.7-0.5,1.1-0.7c0.3-0.2,0.7-0.5,1-0.7
		c0.3-0.3,0.6-0.6,0.9-0.9c0.2-0.2,0.4-0.5,0.5-0.7c0.1-0.3,0.2-0.5,0.2-0.7c0-0.4-0.1-0.7-0.4-1.1s-0.5-0.7-0.9-0.9
		c-0.4-0.3-0.8-0.5-1.2-0.7c-0.4-0.2-0.8-0.4-1.2-0.5c-0.7-0.2-1.5-0.3-2.2-0.3c-0.2,0-0.5,0-0.8,0s-0.7,0.1-1.1,0.1
		c-0.4,0-0.7,0.1-1.1,0.1c-0.3,0-0.7,0.1-1,0.1c-0.2,0-0.3,0-0.4,0c-0.1,0-0.2,0-0.3,0c-0.1,0-0.2,0-0.3,0.1c-0.1,0-0.3,0.1-0.5,0.1
		c0.1,0.2,0.2,0.4,0.2,0.6s0.1,0.5,0.2,0.7c0.1,0.4,0.2,0.8,0.2,1.2c0,0.3,0,0.7,0,0.9c0,0.3,0,0.6,0,0.9c0,0.3,0,0.6,0,0.9
		c0,0.6-0.1,1.1-0.2,1.7c-0.1,0.6-0.2,1.3-0.4,2.2c-0.1,0.8-0.2,1.4-0.3,2c-0.1,0.6-0.2,1.1-0.2,1.6c-0.1,0.4-0.1,0.8-0.1,1.3
		c0,0.4,0,0.8,0,1.2c0,0.3,0,0.6,0,1s0.1,0.6,0.2,0.9c0.1,0.3,0.2,0.6,0.3,0.8c0.1,0.3,0.3,0.6,0.5,0.9c-0.1,0.2-0.2,0.3-0.4,0.5
		c-0.2,0.2-0.3,0.3-0.5,0.4c-0.2,0.1-0.4,0.2-0.6,0.3c-0.2,0.1-0.4,0.1-0.5,0.1c-0.9,0-1.5-0.2-1.9-0.5c-0.5-0.4-0.7-0.8-0.8-1.4
		c-0.1-0.3-0.1-0.5-0.1-0.9c0-0.3,0-0.7,0-1.1c0-0.6,0-1.2,0.1-1.7c0.1-0.5,0.1-0.9,0.2-1.4c0.1-0.4,0.1-0.9,0.2-1.3
		c0.1-0.2,0.1-0.4,0.1-0.5c0-0.2,0.1-0.4,0.1-0.5c0-0.2,0.1-0.4,0.1-0.6s0.1-0.5,0.1-0.8c0.1-0.9,0.3-1.7,0.3-2.5s0.1-1.6,0.1-2.2
		c0-0.5,0-1.1,0-1.6c0-0.6-0.1-1.2-0.1-1.8c-0.3,0.1-0.6,0.2-0.9,0.2c-0.2,0-0.4,0.1-0.5,0.1c-0.6,0-0.9-0.1-1.1-0.4
		c-0.2-0.3-0.3-0.7-0.3-1.2c0-0.6,0.5-1.1,1.4-1.5c0.4-0.2,0.8-0.3,1.1-0.5c0.4-0.2,0.8-0.3,1.1-0.4c0.4-0.1,0.9-0.3,1.5-0.4
		s1.2-0.2,1.9-0.3c0.7-0.1,1.3-0.2,1.9-0.2s1.1-0.1,1.6-0.1c1.6,0,3.2,0.2,4.7,0.6c0.8,0.2,1.5,0.5,2.2,0.8s1.3,0.8,1.8,1.2
		c1.2,1,1.7,2.4,1.7,4c0,1.1-0.4,2.1-1.2,3.2c-0.7,0.9-1.5,1.6-2.4,2.2s-1.9,1.3-3,1.8c0.3,0.2,0.7,0.5,1,0.7s0.7,0.5,1.1,0.8
		c0.6,0.4,1.1,0.8,1.7,1.2c0.5,0.4,1,0.7,1.4,1s0.9,0.7,1.5,1c0.5,0.4,1.1,0.8,1.8,1.2c0.6,0.4,1.2,0.8,1.7,1.1
		c0.5,0.3,1,0.6,1.3,0.8L201.1,66z"/>
	<path class="st0" d="M227.5,65.5c0,0.3-0.1,0.5-0.2,0.8c-0.1,0.2-0.2,0.4-0.4,0.6c-0.2,0.2-0.4,0.3-0.6,0.4
		c-0.3,0.1-0.5,0.2-0.8,0.2c-0.3,0-0.5-0.1-0.8-0.3s-0.5-0.4-0.7-0.7c-0.2-0.3-0.5-0.6-0.7-0.9c-0.2-0.3-0.4-0.7-0.6-1
		c-0.2-0.3-0.3-0.7-0.5-1s-0.3-0.6-0.3-0.8c-0.1-0.3-0.2-0.6-0.4-0.8s-0.2-0.6-0.4-1c-0.1-0.2-0.1-0.4-0.2-0.5
		c0-0.1-0.1-0.2-0.1-0.2c0-0.1,0-0.1-0.1-0.1c0,0,0-0.1-0.1-0.2c-0.2,0.1-0.4,0.2-0.7,0.2c-0.2,0-0.5,0-0.8,0c-0.1,0-0.1,0-0.3,0.1
		s-0.3,0.1-0.4,0.1c-0.2,0.1-0.3,0.1-0.5,0.2c-0.2,0.1-0.3,0.1-0.5,0.2c-0.5,0.1-1.1,0.3-1.7,0.4s-1.2,0.2-1.9,0.3
		c-0.7,0.1-1.3,0.2-2,0.3c-0.7,0.1-1.4,0.2-2.1,0.3c-0.1,0-0.1,0-0.2,0.1s-0.1,0.1-0.2,0.2c-0.1,0.1-0.2,0.3-0.4,0.6
		s-0.5,0.7-0.8,1.2c-0.4,0.6-0.8,1.1-1.2,1.5c-0.4,0.4-0.7,0.8-1,1.1c-0.3,0.3-0.6,0.5-1,0.7c-0.3,0.2-0.7,0.2-1.1,0.2
		c-0.5,0-0.9-0.1-1.3-0.2c-0.4-0.1-0.7-0.3-1-0.5c-0.3-0.2-0.5-0.4-0.6-0.6c-0.1-0.2-0.2-0.4-0.2-0.6c0-0.4,0.2-0.6,0.5-0.8
		c0.3-0.1,0.7-0.3,1.3-0.4c0,0,0.1-0.1,0.2-0.2c0.1-0.2,0.3-0.3,0.4-0.5c0.2-0.2,0.3-0.4,0.5-0.6c0.2-0.2,0.3-0.3,0.3-0.4
		c0.4-0.6,0.9-1.2,1.3-1.8c0.5-0.6,1-1.4,1.5-2.2v0c0.3-0.4,0.5-0.7,0.7-1c0.2-0.3,0.3-0.5,0.5-0.8s0.3-0.5,0.5-0.7
		c0.2-0.2,0.4-0.6,0.7-0.9c0.7-0.9,1.2-1.7,1.7-2.4c0.5-0.6,0.9-1.2,1.2-1.6c0.4-0.6,0.8-1.2,1.1-1.7c0.2-0.2,0.3-0.5,0.4-0.7
		c0.1-0.2,0.3-0.5,0.4-0.7s0.2-0.4,0.3-0.6c0.1-0.2,0.2-0.4,0.2-0.5c1.3-3.1,2.4-4.7,3.3-4.7c0.4,0,0.7,0,1,0.1s0.4,0.2,0.6,0.3
		c0.1,0.1,0.2,0.3,0.3,0.6c0,0.2,0.1,0.5,0.1,0.9c0,0.3,0,0.6,0,0.8s0,0.4,0,0.5s0,0.3,0,0.4c0,0.1,0,0.3,0,0.6
		c0.3,0.5,0.5,1.1,0.8,1.7c0.2,0.6,0.5,1.2,0.7,1.7c0,0.1,0.1,0.4,0.3,0.8c0.1,0.4,0.3,0.9,0.5,1.5c0.2,0.6,0.4,1.1,0.6,1.8
		c0.2,0.6,0.4,1.2,0.6,1.8c0.2,0.5,0.4,1,0.5,1.4c0.1,0.4,0.2,0.6,0.3,0.8c0.1,0.6,0.5,1.6,1.2,3c0.1,0.2,0.2,0.3,0.2,0.5
		c0.1,0.1,0.1,0.3,0.2,0.4c0.1,0.1,0.2,0.3,0.3,0.5s0.3,0.4,0.5,0.7C227.1,64.2,227.5,65,227.5,65.5z M216.7,57.3
		c0.5-0.1,1-0.2,1.4-0.4c0.5-0.1,0.9-0.3,1.4-0.4c-0.2-0.5-0.3-1.1-0.5-1.6s-0.4-1.1-0.6-1.7c-0.2-0.6-0.4-1.1-0.6-1.6
		c-0.2-0.5-0.4-1-0.6-1.5c-0.9,1.2-1.8,2.6-2.7,3.9c-0.9,1.4-1.8,2.8-2.6,4.2c0.3,0,0.7-0.1,1-0.1c0.4,0,0.6-0.1,0.9-0.1
		c0.3-0.1,0.5-0.2,0.8-0.2c0.2-0.1,0.5-0.1,0.7-0.2c0.2-0.1,0.5-0.1,0.7-0.2C216.1,57.5,216.4,57.4,216.7,57.3z"/>
	<path class="st0" d="M258.9,43c0,0.2,0,0.3-0.1,0.4c0,0.1-0.1,0.2-0.2,0.3s-0.1,0.2-0.2,0.4c-0.1,0.2-0.2,0.4-0.2,0.7
		c-0.1,0.3-0.1,0.6-0.2,0.8c-0.1,0.2-0.1,0.4-0.2,0.6c0,0.2-0.1,0.4-0.1,0.6c0,0.2,0,0.5,0,0.7c0,0.5,0,1,0,1.4s-0.1,1-0.1,1.5
		c0,0.5-0.1,1-0.2,1.6c-0.1,0.6-0.1,1.2-0.2,1.8c-0.1,0.9-0.2,1.9-0.3,2.9s-0.2,2.1-0.2,3.2c0,0.3,0,0.6,0,1s0,0.8,0,1.2
		c0,0.4,0,0.9,0.1,1.3c0,0.5,0.1,0.9,0.1,1.3c0.1,0.1,0.1,0.1,0.1,0.1c0,0,0.1,0.1,0.2,0.1c0.4,0.2,0.7,0.5,0.8,0.6s0.3,0.4,0.3,0.7
		c0,0.2-0.1,0.5-0.2,0.7c-0.1,0.3-0.3,0.5-0.6,0.7c-0.2,0.2-0.5,0.4-0.8,0.5c-0.3,0.1-0.6,0.2-0.9,0.2c-0.6,0-1.1-0.2-1.5-0.6
		s-0.7-0.9-1-1.5c-0.2-0.6-0.4-1.3-0.5-2c-0.1-0.7-0.1-1.5-0.1-2.2v-0.6c0-0.3,0-0.8,0.1-1.4c0.1-0.6,0.1-1.3,0.2-2.1
		c0.1-0.8,0.2-1.6,0.3-2.5c0.1-0.9,0.2-1.7,0.4-2.6c0.1-0.8,0.2-1.6,0.4-2.4c0.1-0.7,0.2-1.3,0.3-1.8c-0.1,0.2-0.3,0.4-0.5,0.7
		c-0.2,0.3-0.5,0.6-0.8,1c-0.3,0.4-0.6,0.8-0.9,1.2c-0.3,0.4-0.6,0.8-0.9,1.2c-0.3,0.4-0.6,0.8-0.8,1.1c-0.3,0.4-0.5,0.7-0.7,0.9
		c-0.4,0.6-0.8,1.1-1.2,1.7c-0.4,0.5-0.8,1.1-1.2,1.7c0,0-0.1,0.1-0.2,0.2c-0.1,0.1-0.1,0.2-0.2,0.4s-0.2,0.3-0.3,0.4
		s-0.2,0.2-0.2,0.3c-0.8,1-1.6,1.6-2.5,1.9c-0.6-0.2-1-0.4-1.4-0.6c-0.3-0.2-0.6-0.4-0.9-0.7s-0.4-0.5-0.6-0.8
		c-0.2-0.3-0.3-0.6-0.5-1c-0.2-0.4-0.4-0.7-0.6-1s-0.3-0.6-0.5-0.8c-0.3-0.5-0.5-1-0.8-1.6s-0.5-1.1-0.7-1.7
		c-0.2-0.5-0.3-0.9-0.4-1.2c-0.1-0.3-0.2-0.7-0.3-1c-0.1-0.3-0.2-0.6-0.3-0.9c-0.1-0.3-0.2-0.7-0.3-1.1c0,0.1-0.1,0.3-0.1,0.5
		s-0.1,0.6-0.2,1.1s-0.2,0.9-0.3,1.4s-0.2,1.1-0.4,1.6s-0.2,1.1-0.3,1.6c-0.1,0.5-0.2,1-0.3,1.4c-0.1,0.4-0.2,0.8-0.2,1
		c-0.1,0.3-0.1,0.4-0.1,0.5c-0.2,0.9-0.3,1.7-0.3,2.4c0,0.2,0,0.4,0,0.7c0,0.3,0,0.7,0,1.1c0,0.4,0,0.7,0,1.1s0,0.6,0,0.8
		c0,0.2,0,0.4-0.1,0.6s-0.2,0.5-0.4,0.7s-0.4,0.4-0.6,0.6c-0.2,0.2-0.5,0.2-0.7,0.2c-0.4,0-0.7,0-0.9,0s-0.5-0.1-0.7-0.2
		c-0.2-0.1-0.4-0.2-0.5-0.4c-0.1-0.2-0.3-0.4-0.4-0.7c0-0.1-0.1-0.2-0.1-0.3c0-0.1,0-0.3-0.1-0.4c0-0.2,0-0.4,0-0.6c0-0.3,0-0.6,0-1
		c0-0.1,0-0.4,0.1-0.7c0.1-0.4,0.2-0.8,0.3-1.3c0.1-0.5,0.3-1,0.4-1.6c0.1-0.6,0.3-1.2,0.5-1.7c0.2-0.6,0.3-1.1,0.4-1.6
		c0.1-0.5,0.2-0.9,0.3-1.2c0.1-0.5,0.3-1.1,0.5-1.7s0.3-1.2,0.5-1.8c0.2-0.6,0.3-1.2,0.5-1.8c0.2-0.6,0.3-1.1,0.4-1.7
		c0.1-0.5,0.1-0.9,0.2-1.2c0.1-0.3,0.2-0.6,0.3-0.9c0.1-0.3,0.2-0.6,0.4-0.9c0.2-0.3,0.3-0.5,0.6-0.7c0.2-0.2,0.5-0.3,0.8-0.3
		c0.9,0,1.6,0.1,2.1,0.3c0.5,0.2,0.9,0.5,1.3,0.9c0.3,0.4,0.6,0.9,0.8,1.6c0.2,0.6,0.4,1.4,0.6,2.3c0.1,0.2,0.1,0.5,0.2,0.7
		s0.2,0.4,0.2,0.6c0.4,1.1,0.8,2.2,1.3,3.3c0.5,1.1,1.1,2.2,1.8,3.3c0.3-0.2,0.5-0.5,0.8-0.9c0.2-0.3,0.5-0.8,0.8-1.3
		c0.2-0.4,0.5-0.9,0.7-1.2c0.3-0.4,0.5-0.8,0.9-1.1c0.1-0.1,0.3-0.4,0.6-0.7s0.6-0.7,0.9-1.1c0.3-0.4,0.7-0.9,1.1-1.3
		s0.7-0.9,1.1-1.3s0.6-0.8,0.9-1.1s0.4-0.6,0.5-0.7c0.1-0.1,0.2-0.3,0.3-0.3c0.1-0.1,0.1-0.2,0.2-0.3c0.1-0.2,0.3-0.4,0.6-0.8
		c0.3-0.4,0.5-0.7,0.8-1.1c0.3-0.4,0.6-0.8,0.9-1.1c0.3-0.4,0.5-0.6,0.6-0.8c0.2-0.2,0.4-0.3,0.9-0.3c0.2,0,0.5,0.1,0.7,0.2
		s0.5,0.3,0.7,0.5c0.2,0.2,0.4,0.4,0.5,0.6C258.8,42.8,258.9,42.9,258.9,43L258.9,43z"/>
	<path class="st0" d="M288.3,65.5c0,0.3-0.1,0.5-0.2,0.8c-0.1,0.2-0.2,0.4-0.4,0.6c-0.2,0.2-0.4,0.3-0.6,0.4
		c-0.3,0.1-0.5,0.2-0.8,0.2c-0.3,0-0.5-0.1-0.8-0.3s-0.5-0.4-0.7-0.7c-0.2-0.3-0.5-0.6-0.7-0.9c-0.2-0.3-0.4-0.7-0.6-1
		c-0.2-0.3-0.3-0.7-0.5-1s-0.3-0.6-0.3-0.8c-0.1-0.3-0.2-0.6-0.4-0.8s-0.2-0.6-0.4-1c-0.1-0.2-0.1-0.4-0.2-0.5
		c0-0.1-0.1-0.2-0.1-0.2c0-0.1,0-0.1-0.1-0.1c0,0,0-0.1-0.1-0.2c-0.2,0.1-0.4,0.2-0.7,0.2c-0.2,0-0.5,0-0.8,0c-0.1,0-0.1,0-0.3,0.1
		s-0.3,0.1-0.4,0.1c-0.2,0.1-0.3,0.1-0.5,0.2c-0.2,0.1-0.3,0.1-0.5,0.2c-0.5,0.1-1.1,0.3-1.7,0.4s-1.2,0.2-1.9,0.3
		c-0.7,0.1-1.3,0.2-2,0.3c-0.7,0.1-1.4,0.2-2.1,0.3c-0.1,0-0.1,0-0.2,0.1s-0.1,0.1-0.2,0.2c-0.1,0.1-0.2,0.3-0.4,0.6
		s-0.5,0.7-0.8,1.2c-0.4,0.6-0.8,1.1-1.2,1.5c-0.4,0.4-0.7,0.8-1,1.1c-0.3,0.3-0.6,0.5-1,0.7c-0.3,0.2-0.7,0.2-1.1,0.2
		c-0.5,0-0.9-0.1-1.3-0.2c-0.4-0.1-0.7-0.3-1-0.5c-0.3-0.2-0.5-0.4-0.6-0.6c-0.1-0.2-0.2-0.4-0.2-0.6c0-0.4,0.2-0.6,0.5-0.8
		c0.3-0.1,0.7-0.3,1.3-0.4c0,0,0.1-0.1,0.2-0.2c0.1-0.2,0.3-0.3,0.4-0.5c0.2-0.2,0.3-0.4,0.5-0.6c0.2-0.2,0.3-0.3,0.3-0.4
		c0.4-0.6,0.9-1.2,1.3-1.8c0.5-0.6,1-1.4,1.5-2.2v0c0.3-0.4,0.5-0.7,0.7-1c0.2-0.3,0.3-0.5,0.5-0.8s0.3-0.5,0.5-0.7
		c0.2-0.2,0.4-0.6,0.7-0.9c0.7-0.9,1.2-1.7,1.7-2.4c0.5-0.6,0.9-1.2,1.2-1.6c0.4-0.6,0.8-1.2,1.1-1.7c0.2-0.2,0.3-0.5,0.4-0.7
		c0.1-0.2,0.3-0.5,0.4-0.7s0.2-0.4,0.3-0.6c0.1-0.2,0.2-0.4,0.2-0.5c1.3-3.1,2.4-4.7,3.3-4.7c0.4,0,0.7,0,1,0.1s0.4,0.2,0.6,0.3
		c0.1,0.1,0.2,0.3,0.3,0.6c0,0.2,0.1,0.5,0.1,0.9c0,0.3,0,0.6,0,0.8s0,0.4,0,0.5s0,0.3,0,0.4c0,0.1,0,0.3,0,0.6
		c0.3,0.5,0.5,1.1,0.8,1.7c0.2,0.6,0.5,1.2,0.7,1.7c0,0.1,0.1,0.4,0.3,0.8c0.1,0.4,0.3,0.9,0.5,1.5c0.2,0.6,0.4,1.1,0.6,1.8
		c0.2,0.6,0.4,1.2,0.6,1.8c0.2,0.5,0.4,1,0.5,1.4c0.1,0.4,0.2,0.6,0.3,0.8c0.1,0.6,0.5,1.6,1.2,3c0.1,0.2,0.2,0.3,0.2,0.5
		c0.1,0.1,0.1,0.3,0.2,0.4c0.1,0.1,0.2,0.3,0.3,0.5s0.3,0.4,0.5,0.7C287.9,64.2,288.3,65,288.3,65.5z M277.5,57.3
		c0.5-0.1,1-0.2,1.4-0.4c0.5-0.1,0.9-0.3,1.4-0.4c-0.2-0.5-0.3-1.1-0.5-1.6s-0.4-1.1-0.6-1.7c-0.2-0.6-0.4-1.1-0.6-1.6
		c-0.2-0.5-0.4-1-0.6-1.5c-0.9,1.2-1.8,2.6-2.7,3.9c-0.9,1.4-1.8,2.8-2.6,4.2c0.3,0,0.7-0.1,1-0.1c0.4,0,0.6-0.1,0.9-0.1
		c0.3-0.1,0.5-0.2,0.8-0.2c0.2-0.1,0.5-0.1,0.7-0.2c0.2-0.1,0.5-0.1,0.7-0.2C276.9,57.5,277.2,57.4,277.5,57.3z"/>
</g>
</svg>
