<?xml version="1.0" encoding="iso-8859-1"?>
<!-- Generator: Adobe Illustrator 18.1.1, SVG Export Plug-In . SVG Version: 6.00 Build 0)  -->
<svg version="1.1" id="Capa_1" xmlns="http://www.w3.org/2000/svg" xmlns:xlink="http://www.w3.org/1999/xlink" x="0px" y="0px"
	 viewBox="0 0 21.821 21.821" style="enable-background:new 0 0 21.821 21.821;" xml:space="preserve">
<g>
	<g>
		<g>
			<g>
				<path style="fill:#030104;" d="M0.011,9.122c0-0.001,0-0.003,0-0.006C-0.001,9.205-0.006,9.24,0.011,9.122z"/>
				<polygon style="fill:#030104;" points="0.011,9.116 0.011,9.117 0.012,9.115 				"/>
				<path style="fill:#030104;" d="M21.636,8.263c-0.098,0.75-0.205,1.136-0.313,1.162c0,0-0.038-4.012-1.369-5.343
					c0.227,2.34,0.003,1.397,0.003,1.408c-1.806-3.115-5.176-5.217-9.028-5.217C7.711,0.272,4.831,1.736,2.915,4.03
					C2.9,4.017,2.883,4.001,2.863,3.982c-0.3-0.274-0.472-1.59-0.472-1.59C2.39,2.387,2.388,2.383,2.388,2.379
					S2.386,2.371,2.386,2.365c0-0.002,0-0.005-0.002-0.008C2.381,2.359,2.38,2.363,2.376,2.365C2.372,2.37,2.37,2.373,2.366,2.377
					C2.362,2.38,2.36,2.386,2.356,2.389C2.352,2.393,2.349,2.398,2.345,2.401C2.343,2.405,2.339,2.41,2.335,2.413
					c-0.004,0.004-0.007,0.009-0.01,0.012C2.321,2.429,2.318,2.434,2.313,2.437C2.31,2.442,2.306,2.445,2.303,2.449
					C2.3,2.454,2.296,2.458,2.292,2.462C2.289,2.466,2.286,2.47,2.282,2.474c-0.003,0.004-0.007,0.008-0.01,0.012
					C2.268,2.49,2.265,2.494,2.261,2.498C2.258,2.503,2.255,2.506,2.25,2.511c0,0-0.56,0.736-0.758,1.537
					C1.36,4.683,1.49,4.056,1.488,4.059c-0.001,0.004-0.001,0.01-0.002,0.014C1.485,4.077,1.484,4.081,1.483,4.085
					c-0.001,0-0.001,0-0.001,0C1.316,4.744,1.235,5.529,1.245,6.449C1.238,6.457,1.23,6.463,1.224,6.471c0,0-0.986,1.069-1.15,2.214
					C0.042,8.912,0.022,9.048,0.011,9.122c0,0.002,0,0.005,0,0.006C0.009,9.162,0.005,9.196,0.004,9.23
					c0.003-0.005,0.007-0.01,0.01-0.015c0.002,0.086,0.011,0.171,0.033,0.249l0.592-0.482c-0.008,0.057-0.02,0.112-0.028,0.17
					c-0.188,0.521-0.322,1.065-0.389,1.643c-0.194,1.754,0.184,3.493,1.121,5.213c0,0,0.376,0.676,0.605,0.997
					c0.029,0.046,0.055,0.091,0.087,0.137l0.007,0.001C4,19.816,7.14,21.549,10.681,21.549c3.134,0,5.95-1.357,7.914-3.52
					l0.038,0.001c0.13-0.159,0.249-0.321,0.372-0.482c0.327-0.405,0.629-0.833,0.897-1.283l-0.025,0.002
					c0.84-1.378,1.391-2.798,1.641-4.264C21.878,10.558,21.918,9.311,21.636,8.263z M2.902,4.047
					C2.899,4.043,2.897,4.04,2.895,4.036c-0.003-0.004-0.006-0.01-0.008-0.014C2.883,4.018,2.881,4.014,2.878,4.01
					C2.876,4.005,2.873,4,2.871,3.995c0,0,0.019,0.017,0.042,0.037C2.91,4.038,2.906,4.042,2.902,4.047z M18.628,7.786
					c-0.222-0.345-0.515-0.571-0.889-0.684c0.463,1.798,0.509,3.282,0.134,4.452c-0.257-0.78-0.493-1.248-0.704-1.412
					c0.293,2.408-0.104,4.19-1.187,5.351c0.206-0.708,0.288-1.289,0.241-1.746c-1.273,1.906-2.723,2.892-4.344,2.954
					c-0.643-0.007-1.248-0.104-1.818-0.288c-0.011,0-0.024-0.002-0.035-0.002c-0.056-0.018-0.111-0.039-0.166-0.06
					c0,0,0,0-0.001-0.001c-0.048-0.018-0.096-0.036-0.143-0.057c-0.047-0.02-0.093-0.04-0.139-0.062
					c-0.045-0.021-0.091-0.039-0.137-0.062c-0.043-0.021-0.086-0.045-0.13-0.067c-0.043-0.021-0.088-0.043-0.129-0.065
					c-0.042-0.022-0.082-0.048-0.122-0.072c-0.042-0.023-0.083-0.047-0.122-0.072c-0.041-0.023-0.079-0.048-0.118-0.074
					c-0.039-0.024-0.076-0.051-0.114-0.077s-0.076-0.051-0.114-0.077c-0.036-0.027-0.071-0.055-0.107-0.082
					c-0.035-0.027-0.072-0.054-0.106-0.082c-0.036-0.028-0.07-0.056-0.104-0.085c-0.034-0.027-0.067-0.058-0.101-0.086
					c-0.033-0.028-0.067-0.056-0.1-0.087c-0.032-0.028-0.063-0.06-0.095-0.09c-0.032-0.028-0.064-0.059-0.094-0.089
					c-0.025-0.024-0.05-0.047-0.074-0.071c0.01,0.002,0.02,0.002,0.03,0.002C7.865,14.997,7.889,14.998,7.914,15
					c0.023,0.001,0.048,0.002,0.074,0.003c0.024,0.002,0.048,0.003,0.072,0.004c0.026,0.002,0.05,0.004,0.073,0.004
					c0.026,0.001,0.05,0.004,0.074,0.004c0.026,0,0.052-0.002,0.077,0c0.025,0,0.05-0.003,0.076-0.003c0.025,0,0.05,0,0.076,0
					c0.024-0.001,0.05,0,0.076-0.001c0.025-0.001,0.05-0.001,0.075-0.002c0.027-0.002,0.053-0.004,0.078-0.006
					c0.026-0.002,0.054-0.005,0.08-0.006c0.025-0.002,0.051-0.004,0.076-0.007c0.027-0.002,0.053-0.003,0.079-0.005
					c0.027-0.004,0.053-0.006,0.08-0.009c0.027-0.003,0.054-0.009,0.081-0.013c0.026-0.004,0.053-0.007,0.08-0.012
					c0.027-0.003,0.053-0.008,0.08-0.011c0.027-0.005,0.055-0.008,0.081-0.013c0.028-0.005,0.056-0.012,0.083-0.018
					c0.027-0.005,0.055-0.013,0.083-0.018c0.029-0.007,0.057-0.013,0.084-0.02c0.028-0.006,0.057-0.011,0.083-0.018
					c0.029-0.008,0.057-0.015,0.086-0.023c0.027-0.008,0.058-0.018,0.086-0.026c0.03-0.008,0.059-0.016,0.088-0.025
					c0.028-0.009,0.058-0.016,0.086-0.025c0.03-0.01,0.06-0.021,0.089-0.031c0.03-0.012,0.062-0.022,0.091-0.034
					c0.03-0.011,0.061-0.023,0.091-0.034c0.029-0.012,0.06-0.021,0.09-0.034c0.032-0.015,0.063-0.029,0.094-0.044
					c0.032-0.014,0.063-0.029,0.096-0.044c0.032-0.015,0.063-0.028,0.095-0.043c0.014-0.008,0.03-0.013,0.043-0.021l0.059-0.038
					l0.106-0.069l0.106-0.068l0.107-0.069l0.107-0.069l0.106-0.068l0.106-0.069l0.107-0.068l0.106-0.069l0.105-0.069l0.107-0.069
					l0.106-0.068l0.106-0.069l0.049-0.031l-0.004-0.005c0.18-0.067,0.35-0.063,0.514,0.015c0.338-0.047,0.457-0.227,0.344-0.529
					c-0.164-0.226-0.412-0.431-0.729-0.61c-0.694-0.361-1.417-0.304-2.173,0.174c-0.718,0.405-1.411,0.39-2.084-0.041
					c-0.442-0.303-0.869-0.709-1.278-1.218l-0.165-0.24c-0.002,0.009-0.002,0.02-0.002,0.029c0-0.01,0-0.021,0.002-0.031v-0.005
					c0-0.007,0.001-0.013,0.001-0.021c0.003-0.058,0.008-0.114,0.017-0.165c0.01-0.066,0.027-0.127,0.046-0.185
					c0.031-0.095,0.077-0.176,0.133-0.243c0.076-0.089,0.171-0.154,0.29-0.194c0.045-0.014,0.093-0.025,0.143-0.033
					c-0.029-0.003-0.053-0.004-0.081-0.007c-0.076-0.006-0.142-0.013-0.204-0.018c-0.079-0.007-0.15-0.013-0.204-0.017
					c-0.04-0.003-0.074-0.005-0.101-0.006c-0.037-0.003-0.073-0.004-0.109-0.007c-0.058-0.002-0.113-0.006-0.169-0.01
					c-0.016,0-0.026-0.002-0.042-0.003c-0.064-0.004-0.119-0.009-0.166-0.016c0.063,0,0.127-0.001,0.189,0
					c0.092,0.005,0.184,0.01,0.277,0.016c0.104,0.005,0.303,0.021,0.589,0.046c0.454,0.042,0.973,0.145,1.557,0.313
					c0.098-0.56-0.031-1.146-0.385-1.746c0-0.006,0-0.01,0-0.01c-0.031-0.07-0.075-0.136-0.129-0.2
					C8.151,8.63,8.171,8.651,8.187,8.673c0.028,0.038,0.049,0.076,0.07,0.116c0.007,0.014,0.017,0.026,0.022,0.04
					C8.295,8.814,8.31,8.803,8.326,8.788c0.023-0.021,0.045-0.041,0.069-0.062s0.046-0.041,0.07-0.061
					c0.023-0.021,0.047-0.042,0.07-0.062C8.557,8.582,8.581,8.561,8.603,8.54c0.023-0.019,0.046-0.041,0.069-0.062
					c0.024-0.02,0.046-0.036,0.07-0.057c0.023-0.02,0.046-0.037,0.07-0.055c0.023-0.02,0.046-0.038,0.069-0.057
					C8.903,8.29,8.927,8.271,8.949,8.253c0.023-0.018,0.049-0.039,0.07-0.056c0.023-0.019,0.047-0.036,0.07-0.054
					c0.024-0.018,0.046-0.032,0.069-0.05c0.024-0.018,0.047-0.033,0.069-0.05C9.25,8.026,9.274,8.009,9.298,7.992
					c0.023-0.016,0.046-0.034,0.069-0.048C9.39,7.927,9.414,7.911,9.436,7.896c0.025-0.016,0.046-0.029,0.07-0.044
					c0.024-0.014,0.046-0.028,0.07-0.043c0.023-0.013,0.046-0.028,0.069-0.043c0.023-0.014,0.047-0.03,0.069-0.043
					C9.72,7.72,9.727,7.716,9.732,7.712c0.019-0.011,0.034-0.023,0.053-0.035c0.023-0.015,0.048-0.029,0.069-0.046
					c0.027-0.022,0.048-0.047,0.07-0.073c0.027-0.032,0.049-0.066,0.069-0.104c0.03-0.057,0.055-0.118,0.069-0.189
					c0.005-0.005,0.009-0.01,0.015-0.01l0.005-0.005c0.005-0.005,0.015-0.015,0.02-0.02c0.108-0.159,0.072-0.288-0.113-0.4
					c-0.383,0.019-1.151-0.067-1.16-0.068C8.824,6.76,8.819,6.758,8.814,6.756c-0.91-0.38-1.413-1.18-1.413-1.18
					c0,0.005-0.021-0.023-0.021-0.023L7.351,5.516c0.002-0.002,0.002-0.003,0.005-0.004c0.005-0.003,0.007-0.005,0.012-0.008
					c0.003-0.002,0.006-0.005,0.01-0.007c0.002-0.002,0.006-0.005,0.01-0.008s0.008-0.005,0.011-0.008h0.002
					c0-0.004,0.002-0.007,0.002-0.009c0.001-0.003,0.002-0.008,0.002-0.011c0-0.004,0.001-0.008,0.003-0.012
					c0-0.003-0.015,0.014,0.002-0.011C7.238,4.047,9.065,3.132,9.065,3.132S6.868,3.747,6.184,4.545L6.083,4.552l0.091,0.002
					C6.172,4.556,6.169,4.558,6.165,4.56C6.162,4.564,6.16,4.566,6.157,4.57c-0.004,0.003-0.006,0.006-0.01,0.008
					c0,0-0.003,0.002-0.004,0.003c-0.004-0.002-0.01-0.003-0.015-0.005C6.114,4.572,6.101,4.568,6.087,4.564
					c-1.326-0.32-2.413,0.159-2.413,0.159C3.666,4.724,3.659,4.727,3.653,4.729C3.644,4.732,3.638,4.735,3.632,4.737
					C3.623,4.74,3.617,4.742,3.61,4.744C3.603,4.747,3.597,4.749,3.591,4.751C3.398,4.658,3.226,4.508,3.074,4.309
					c1.859-2.279,4.688-3.737,7.854-3.737c2.447,0,4.694,0.872,6.447,2.323c-0.278-0.139-0.574-0.258-0.891-0.354
					c-0.892-0.266-1.956-0.42-3.183-0.456c0.538,0.107,0.996,0.242,1.364,0.41c0.022,0.006,0.045,0.016,0.066,0.021
					c0.521,0.247,0.87,0.556,1.034,0.92c-0.528-0.097-1.007-0.061-1.428,0.103C17.358,4.73,18.791,6.147,18.628,7.786z"/>
				<path style="fill:#030104;" d="M0.064,8.728c-0.027,0.128-0.041,0.25-0.049,0.367C0.035,8.949,0.07,8.703,0.07,8.707
					C0.067,8.714,0.065,8.721,0.064,8.728z"/>
				<path style="fill:#030104;" d="M0.015,9.095c0,0.007-0.002,0.013-0.003,0.02c0-0.001,0-0.001,0-0.002
					C0.012,9.107,0.014,9.101,0.015,9.095z"/>
			</g>
		</g>
	</g>
</g>
<g>
</g>
<g>
</g>
<g>
</g>
<g>
</g>
<g>
</g>
<g>
</g>
<g>
</g>
<g>
</g>
<g>
</g>
<g>
</g>
<g>
</g>
<g>
</g>
<g>
</g>
<g>
</g>
<g>
</g>
</svg>
