<?xml version="1.0" encoding="iso-8859-1"?>
<!-- Generator: Adobe Illustrator 16.0.0, SVG Export Plug-In . SVG Version: 6.00 Build 0)  -->
<!DOCTYPE svg PUBLIC "-//W3C//DTD SVG 1.1//EN" "http://www.w3.org/Graphics/SVG/1.1/DTD/svg11.dtd">
<svg version="1.1" id="Capa_1" xmlns="http://www.w3.org/2000/svg" xmlns:xlink="http://www.w3.org/1999/xlink" x="0px" y="0px"
	 width="486.399px" height="486.399px" viewBox="0 0 486.399 486.399" style="enable-background:new 0 0 486.399 486.399;"
	 xml:space="preserve">
<g>
	<path d="M367.101,280.795h118.025c0.909-8.185,1.273-16.549,1.273-25.099c0-40.111-10.768-77.733-29.562-110.132
		c19.439-51.654,18.746-95.494-7.278-121.695C424.812-0.77,358.414,3.23,283.354,36.469c-5.552-0.42-11.158-0.636-16.817-0.636
		c-103.024,0-189.463,70.897-213.354,166.425c32.318-41.377,66.318-71.377,111.738-93.224c-4.13,3.87-28.227,27.826-32.28,31.882
		C12.866,260.654-24.905,417.068,15.736,457.717c30.893,30.887,86.879,25.671,151.188-5.824
		c29.903,15.229,63.75,23.815,99.61,23.815c96.565,0,178.4-62.158,208.044-148.725H355.645
		c-16.366,30.19-48.373,50.739-85.107,50.739s-68.743-20.549-85.108-50.739c-7.275-13.638-11.457-29.276-11.457-45.828v-0.36
		H367.101z M174.15,222.783c2.728-48.555,43.1-87.292,92.384-87.292c49.282,0,89.655,38.736,92.382,87.292H174.15z M448.482,48.285
		c16.763,16.94,16.344,48.107,2.006,87.011c-24.567-37.454-60.259-66.968-102.396-83.82
		C393.146,32.157,429.796,29.598,448.482,48.285z M46.741,450.008C25.35,428.611,31.798,383.7,59.355,329.592
		c17.154,48.136,50.578,88.545,93.668,114.577C105.309,465.829,66.255,469.506,46.741,450.008z"/>
</g>
<g>
</g>
<g>
</g>
<g>
</g>
<g>
</g>
<g>
</g>
<g>
</g>
<g>
</g>
<g>
</g>
<g>
</g>
<g>
</g>
<g>
</g>
<g>
</g>
<g>
</g>
<g>
</g>
<g>
</g>
</svg>
