<?xml version="1.0" encoding="utf-8"?>
<!-- Generator: Adobe Illustrator 21.0.0, SVG Export Plug-In . SVG Version: 6.00 Build 0)  -->
<svg version="1.1" id="Слой_1" xmlns="http://www.w3.org/2000/svg" xmlns:xlink="http://www.w3.org/1999/xlink" x="0px" y="0px"
	 viewBox="0 0 333 49" style="enable-background:new 0 0 333 49;" xml:space="preserve">
<style type="text/css">
	.st0{fill:#405261;}
</style>
<g>
	<path class="st0" d="M34,23.7c0,0.4,0,0.9-0.1,1.5c-0.1,0.7-0.2,1.1-0.2,1.2c-0.2,0.8-0.6,1.7-1.1,2.6c-0.5,0.9-1.1,1.8-1.8,2.7
		c-0.7,0.8-1.3,1.6-2,2.3c-0.7,0.7-1.2,1.2-1.7,1.5c-0.5,0.4-1.1,0.7-1.8,1c-0.7,0.3-1.6,0.7-2.6,1c-2,0.6-3.8,0.9-5.3,0.9
		c-1.3,0-2.5-0.2-3.5-0.7c-1.1-0.4-1.6-1.3-1.6-2.5c0-0.7,0.2-1.3,0.6-1.6c0.4-0.3,1.1-0.5,2.1-0.5c1.1,0,2.1,0.2,2.9,0.6
		c0.8,0.4,1.6,0.6,2.2,0.6c0.3,0,1-0.1,2-0.3c1-0.2,1.8-0.6,2.4-1c0.6-0.4,1.3-1,2-1.7s1.3-1.4,1.9-2.2c0.6-0.8,1-1.6,1.4-2.4
		c0.4-0.8,0.5-1.6,0.5-2.3c0-1-0.4-2-1.2-2.8c-0.8-0.8-1.8-1.5-2.9-1.9c-1.1-0.5-2.1-0.7-2.9-0.7c-1.2,0-2.2,0.1-2.8,0.3
		c-0.7,0.2-1.3,0.4-1.9,0.7c-0.6,0.3-1.1,0.4-1.5,0.4c-0.5,0-1-0.2-1.5-0.5c-0.5-0.3-0.8-0.7-0.8-1.2c0-0.4,0.1-0.8,0.2-1.1
		c0.1-0.3,0.3-0.6,0.5-0.8c0.2-0.2,0.5-0.4,0.7-0.5c0.3-0.1,0.6-0.2,0.9-0.3c0.3-0.1,0.6-0.1,1-0.2c0.4-0.1,0.7-0.1,1.1-0.1
		c0.8-0.1,1.3-0.1,1.4-0.2c1.1-0.6,2.1-1.3,3.3-2.2c0.6-0.4,1.1-0.9,1.6-1.3s1-0.9,1.4-1.4c0.9-0.9,1.3-1.7,1.3-2.3
		c0-0.8-0.3-1.4-1-1.8c-0.7-0.4-1.8-0.6-3.3-0.6c-0.5,0-1,0-1.6,0.1c-0.6,0-1.2,0.1-1.8,0.2c-0.6,0.1-1.2,0.2-1.8,0.4
		c-0.6,0.1-1.2,0.3-1.8,0.5c-0.6,0.2-1.2,0.4-1.7,0.6S13.9,8,13.4,8.3c-0.5,0.3-0.9,0.6-1.3,0.9c-0.4,0.3-0.7,0.6-0.9,1
		C11.1,10.3,11,10.6,11,11c-0.1,0.4-0.1,1.1-0.1,2.1c0,0.5,0,1,0,1.5c0,0.6,0,1.2-0.1,1.9c0,0.7-0.1,1.3-0.1,1.8
		c0,0.5,0,0.9-0.1,1.3c0,0.3-0.1,0.6-0.1,1.1c-0.1,0.4-0.1,0.9-0.2,1.5c-0.2,1.1-0.3,2.1-0.4,2.9c-0.1,0.8-0.1,1.6-0.1,2.3
		c0,0.2,0,0.5,0,0.9c0,0.3,0,0.7,0.1,1.2c0,0.4,0.1,0.8,0.1,1.2c0,0.3,0,0.6,0,0.8c0,1.3-0.2,2.3-0.5,2.9c-0.4,0.6-0.9,0.9-1.8,0.9
		c-1.8,0-2.7-1.6-2.7-4.7c0-0.4,0.2-1.6,0.6-3.7C5.8,24.8,6,23.5,6.1,23c0.1-0.7,0.1-1.4,0.2-2c0.1-0.6,0.1-1.2,0.2-1.8
		c0.1-0.6,0.1-1.2,0.2-2c0.1-0.8,0.2-1.6,0.3-2.6C7,14,7,13.5,7.1,13.1c0-0.4,0.1-0.6,0.1-0.8c0-0.4-0.1-0.8-0.2-1.2
		c-0.1-0.2-0.1-0.5-0.1-0.6c0-0.2,0-0.3,0-0.4c0-1.1,0.2-2.1,0.6-2.9C8,6,8.4,5.5,8.7,5.5c0.5-0.1,1-0.2,1.5-0.3
		c0.5-0.1,0.9-0.2,1.4-0.4c2-0.7,3.6-1.2,4.7-1.6c1.2-0.4,1.9-0.6,2.3-0.7C19.3,2.2,20,2.1,20.8,2c0.4-0.1,0.9-0.1,1.4-0.1
		c0.6,0,1.2,0,1.9,0h1.3c0.3,0,0.7,0.1,1.3,0.2c0.5,0.2,1.1,0.4,1.6,0.7s1,0.6,1.5,0.9c0.5,0.3,0.8,0.7,1,1C31,5,31.2,5.5,31.3,6.2
		c0.1,0.3,0.1,0.6,0.2,0.9c0,0.3,0.1,0.5,0.1,0.7c0,1.2-0.5,2.5-1.6,3.8c-1.1,1.3-2.6,2.8-4.6,4.4c1.1,0.2,2.2,0.6,3.3,1.1
		c1,0.5,2,1.1,2.8,1.8c0.8,0.7,1.4,1.5,1.9,2.3C33.8,22.1,34,22.9,34,23.7z"/>
	<path class="st0" d="M67.5,20.2c0,0.2-0.2,0.6-0.5,1.2c-0.8,1.1-1.7,2.3-2.7,3.4c-1,1.1-2,2.2-3.1,3.3c-1.1,1-2.3,2-3.5,2.9
		c-1.2,0.9-2.4,1.7-3.6,2.3c-1.2,0.7-2.4,1.2-3.7,1.5c-1.2,0.4-2.4,0.5-3.5,0.5c-2.4,0-4.3-0.7-5.7-2.1c-1.4-1.4-2-3.6-2-6.4
		c0-2.4,0.4-4.7,1.1-7c0.7-2.3,2-4.4,3.8-6.5c0.3-0.4,0.7-0.7,1.1-1.1c0.4-0.3,0.9-0.6,1.3-0.9c0.5-0.3,0.9-0.5,1.4-0.6
		c0.5-0.2,1-0.2,1.5-0.3c0.1,0,0.3,0,0.5,0c0.2,0,0.4,0.1,0.7,0.2c0.2,0.1,0.5,0.2,0.7,0.3c0.2,0.1,0.4,0.3,0.6,0.4
		c0.4,0.5,0.8,1,1,1.5c0.3,0.5,0.4,1.1,0.4,1.7c0,0.7,0,1.4-0.2,2.1c-0.2,0.7-0.5,1.4-1,2.1c-0.5,0.7-1,1.4-1.8,2.2
		c-0.7,0.8-1.6,1.6-2.7,2.4c-0.7,0.6-1.4,1.2-2.2,1.8c-0.8,0.7-1.8,1.4-2.9,2.1c0,1.5,0.4,2.6,1.3,3.4c0.9,0.8,2.1,1.2,3.7,1.2
		c0.9,0,1.8-0.1,2.6-0.3c0.9-0.2,1.8-0.5,2.6-0.9c0.9-0.4,1.7-0.8,2.5-1.3c0.8-0.5,1.6-1,2.3-1.5c1.3-0.9,2.5-1.9,3.5-2.8
		c1.1-0.9,2.1-1.9,3.1-3l1.2-1.2c0.7-0.7,1.3-1,1.6-1C67.4,19.7,67.5,19.9,67.5,20.2z M50,15.6c0-0.2,0-0.5-0.1-0.7
		c-0.1-0.2-0.1-0.4-0.2-0.6c-0.1-0.2-0.2-0.3-0.4-0.4s-0.3-0.1-0.5-0.1c-0.8,0-1.6,0.5-2.4,1.5c-0.8,0.9-1.6,2.2-2.3,3.7
		c-0.2,0.3-0.3,0.7-0.4,1.1s-0.3,0.8-0.4,1.3c-0.1,0.4-0.2,0.9-0.3,1.3c-0.1,0.4-0.2,0.8-0.2,1.1c0.8-0.6,1.5-1.1,2.2-1.7
		c0.7-0.5,1.3-1,1.9-1.6c0.4-0.3,0.7-0.7,1.1-1.1c0.4-0.4,0.7-0.8,1-1.2c0.3-0.4,0.6-0.9,0.7-1.3S50,16.1,50,15.6z"/>
	<path class="st0" d="M87.5,31.3c0.4,0,0.6,0.1,0.7,0.4c0.1,0.3,0.2,0.5,0.2,0.8c0,0.4-0.1,0.8-0.6,1.3c-0.4,0.5-1,1-1.6,1.5
		c-0.7,0.5-1.4,0.9-2.2,1.2c-0.8,0.3-1.6,0.5-2.4,0.5c-0.2,0-0.5,0-1-0.1c-0.5-0.1-1-0.2-1.6-0.3c-0.6-0.1-1.3-0.2-2-0.4
		c-0.7-0.1-1.4-0.3-2-0.4c-0.7-0.1-1.2-0.2-1.8-0.3c-0.5-0.1-0.9-0.1-1.2-0.1c-0.8,0-1.4,0.1-1.9,0.2c-0.5,0.1-0.9,0.3-1.3,0.6
		c-0.4,0.2-0.7,0.4-1,0.6c-0.3,0.2-0.6,0.4-0.8,0.6c-0.3,0.2-0.6,0.3-0.8,0.4c-0.3,0.1-0.6,0.2-1,0.2c-0.2,0-0.4-0.1-0.5-0.2
		c-0.2-0.1-0.3-0.3-0.4-0.5c-0.1-0.2-0.2-0.4-0.3-0.6c-0.1-0.2-0.1-0.5-0.2-0.7c0.8-1,1.7-1.9,2.5-2.8c0.9-0.8,1.7-1.7,2.6-2.5
		c0.9-0.8,1.7-1.7,2.6-2.5c0.8-0.9,1.7-1.8,2.6-2.8c1-1.2,1.9-2.3,2.7-3.4c0.8-1.1,1.5-2.1,2.1-3.1c-0.3-0.2-0.7-0.2-1-0.2
		c-0.3,0-0.8,0.1-1.3,0.1c-0.4,0-0.8,0.1-1.1,0.1c-0.3,0-0.6,0-0.9,0c-0.3,0-0.6,0-0.9,0.1c-0.3,0-0.7,0.1-1.2,0.1
		c-0.5,0.1-1,0.1-1.4,0.2s-0.8,0.1-1,0.1c-3.4,0-5-0.9-5-2.6c0-0.5,0.2-0.9,0.5-1.2c0.4-0.3,0.8-0.5,1.3-0.5c0.1,0,0.3,0,0.5,0.1
		c0.2,0,0.4,0.1,0.6,0.1c0.2,0.1,0.4,0.1,0.5,0.2c0.2,0.1,0.3,0.1,0.4,0.1c0.8,0.2,1.6,0.3,2.5,0.3c0.8,0,1.6,0,2.5-0.1
		c0.9-0.1,1.8-0.2,2.7-0.3c0.9-0.1,1.8-0.2,2.8-0.3c0.9-0.1,1.8-0.1,2.7-0.1c0.2,0,0.5,0,0.8,0.1c0.3,0.1,0.5,0.1,0.8,0.3
		c0.2,0.1,0.5,0.3,0.6,0.5c0.2,0.2,0.3,0.4,0.3,0.7v0.1c-0.4,0.8-0.9,1.6-1.3,2.2c-0.4,0.7-0.8,1.3-1.3,1.9
		c-0.5,0.6-0.9,1.2-1.4,1.8c-0.5,0.6-1.1,1.3-1.7,2.1c-0.5,0.6-1.1,1.3-1.8,2c-0.7,0.7-1.4,1.4-2,2.2c-0.7,0.7-1.3,1.4-1.8,2.1
		c-0.5,0.7-0.9,1.2-1.1,1.7c0,0,0.1,0.1,0.4,0.1c0.2,0,0.5,0,0.8,0s0.5,0,0.8,0c0.3,0,0.4,0,0.5,0c0.5,0,1,0,1.6,0.1
		c0.6,0.1,1.3,0.2,2,0.3c0.7,0.1,1.5,0.2,2.3,0.3c0.8,0.1,1.7,0.1,2.7,0.1c0.5,0,1-0.1,1.5-0.3c0.5-0.2,0.9-0.4,1.3-0.7
		c0.4-0.2,0.7-0.5,1-0.7C87.1,31.4,87.3,31.3,87.5,31.3z"/>
	<path class="st0" d="M117.4,21.1c0,0.3-0.1,0.8-0.4,1.3c-0.3,0.6-0.7,1.2-1.2,1.9c-0.5,0.7-1.1,1.4-1.8,2.2
		c-0.7,0.8-1.4,1.6-2.1,2.4c-0.9,0.9-1.8,1.8-2.7,2.7c-1,0.8-2,1.7-3.1,2.5c-2.1,1.6-4.1,2.4-5.7,2.4c-1.9,0-3.3-0.6-4.3-1.9
		c-1-1.3-1.7-2.8-2.1-4.5c-0.4-1.8-0.6-3.6-0.6-5.4c0-0.8,0.1-2,0.3-3.6c0.1-0.8,0.2-1.5,0.3-2.1s0.2-1.1,0.3-1.4
		c0.2-0.7,0.7-1.3,1.4-1.9c0.7-0.6,1.4-0.8,2.2-0.8c0.4,0,0.6,0.4,0.6,1.2c0,0.5,0,1.1-0.1,1.8c-0.1,0.7-0.2,1.3-0.3,2
		c-0.2,1.2-0.3,2.3-0.4,3.2s-0.1,1.8-0.1,2.5c0,1.5,0.2,3.1,0.6,4.7c0.4,1.6,1.2,2.4,2.3,2.4c1.1,0,2.4-0.4,3.9-1.2
		c0.7-0.4,1.5-0.9,2.2-1.4c0.7-0.5,1.5-1.1,2.2-1.7c0.8-0.6,1.5-1.3,2.2-1.9c0.7-0.6,1.4-1.3,2.1-2c0.7-0.7,1.3-1.3,1.8-1.9
		c0.5-0.6,1-1.1,1.4-1.7c0,0,0-0.1,0.1-0.1c0-0.1,0.1-0.1,0.1-0.2c0-0.1,0.1-0.1,0.1-0.2c0,0,0.1-0.1,0.1,0c0.2,0,0.4,0.2,0.5,0.5
		C117.3,20.6,117.4,20.9,117.4,21.1z M102.4,2.4c0,1-0.3,1.8-0.8,2.5c-0.5,0.7-1.2,1.1-2.2,1.1c-0.6,0-1.3-0.1-2-0.3
		c-0.7-0.2-1.1-0.5-1.1-0.9c0-0.7,0.2-1.5,0.7-2.1c0.5-0.7,1-1.2,1.7-1.7c0.5-0.3,0.9-0.5,1-0.5c0.9,0,1.5,0.1,2,0.4
		C102.1,1.2,102.4,1.7,102.4,2.4z"/>
	<path class="st0" d="M142.5,20.2c0,0.2-0.2,0.6-0.5,1.2c-0.8,1.1-1.7,2.3-2.7,3.4c-1,1.1-2,2.2-3.1,3.3c-1.1,1-2.3,2-3.5,2.9
		c-1.2,0.9-2.4,1.7-3.6,2.3c-1.2,0.7-2.4,1.2-3.7,1.5c-1.2,0.4-2.4,0.5-3.5,0.5c-2.4,0-4.3-0.7-5.7-2.1c-1.4-1.4-2-3.6-2-6.4
		c0-2.4,0.4-4.7,1.1-7c0.7-2.3,2-4.4,3.8-6.5c0.3-0.4,0.7-0.7,1.1-1.1c0.4-0.3,0.9-0.6,1.3-0.9c0.5-0.3,0.9-0.5,1.4-0.6
		c0.5-0.2,1-0.2,1.5-0.3c0.1,0,0.3,0,0.5,0c0.2,0,0.4,0.1,0.7,0.2c0.2,0.1,0.5,0.2,0.7,0.3c0.2,0.1,0.4,0.3,0.6,0.4
		c0.4,0.5,0.8,1,1,1.5c0.3,0.5,0.4,1.1,0.4,1.7c0,0.7,0,1.4-0.2,2.1c-0.2,0.7-0.5,1.4-1,2.1c-0.5,0.7-1,1.4-1.8,2.2
		c-0.7,0.8-1.6,1.6-2.7,2.4c-0.7,0.6-1.4,1.2-2.2,1.8c-0.8,0.7-1.8,1.4-2.9,2.1c0,1.5,0.4,2.6,1.3,3.4c0.9,0.8,2.1,1.2,3.7,1.2
		c0.9,0,1.8-0.1,2.6-0.3c0.9-0.2,1.8-0.5,2.6-0.9c0.9-0.4,1.7-0.8,2.5-1.3c0.8-0.5,1.6-1,2.3-1.5c1.3-0.9,2.5-1.9,3.5-2.8
		c1.1-0.9,2.1-1.9,3.1-3l1.2-1.2c0.7-0.7,1.3-1,1.6-1C142.4,19.7,142.5,19.9,142.5,20.2z M125,15.6c0-0.2,0-0.5-0.1-0.7
		c-0.1-0.2-0.1-0.4-0.2-0.6c-0.1-0.2-0.2-0.3-0.4-0.4s-0.3-0.1-0.5-0.1c-0.8,0-1.6,0.5-2.4,1.5c-0.8,0.9-1.6,2.2-2.3,3.7
		c-0.2,0.3-0.3,0.7-0.4,1.1s-0.3,0.8-0.4,1.3c-0.1,0.4-0.2,0.9-0.3,1.3c-0.1,0.4-0.2,0.8-0.2,1.1c0.8-0.6,1.5-1.1,2.2-1.7
		c0.7-0.5,1.3-1,1.9-1.6c0.4-0.3,0.7-0.7,1.1-1.1c0.4-0.4,0.7-0.8,1-1.2c0.3-0.4,0.6-0.9,0.7-1.3S125,16.1,125,15.6z"/>
	<path class="st0" d="M161.1,17.5c0,0.1,0,0.2,0,0.4c0,0.2-0.1,0.4-0.1,0.5c-0.1,0.2-0.1,0.3-0.2,0.5c-0.1,0.1-0.2,0.2-0.3,0.2
		c-0.1,0-0.2,0-0.5,0c-0.2,0-0.4,0-0.7,0c-0.2,0-0.5,0-0.7,0c-0.2,0-0.4,0-0.5,0c-2.9,0.2-5.4,1.3-7.3,3.2c-1.9,1.9-3.6,4.5-5,7.7
		c-0.3,0.7-0.5,1.3-0.8,2c-0.3,0.7-0.5,1.4-0.7,2.2c-0.1,0.4-0.2,0.8-0.3,1.1c-0.1,0.3-0.1,0.7-0.3,1c0,0.1-0.2,0.2-0.4,0.4
		c-0.2,0.1-0.5,0.2-0.8,0.3c-0.3,0.1-0.6,0.2-0.8,0.2c-0.3,0.1-0.4,0.1-0.5,0.1c-1.1,0.1-1.7-1-1.8-3.3c0-0.6-0.1-1.2-0.1-1.7
		c0-0.5,0-1,0.1-1.4c0-0.5,0.1-1,0.1-1.5s0.1-1.1,0.2-1.7c0.1-0.8,0.2-1.7,0.3-2.8c0.1-1,0.2-2.1,0.4-3.1c0.1-1.1,0.3-2.1,0.4-3
		c0.2-1,0.3-1.7,0.5-2.4c0.2-0.7,0.4-1.3,0.7-1.6c0.3-0.4,0.7-0.5,1.3-0.6c0.2,0,0.3,0,0.5,0.1c0.2,0.1,0.3,0.2,0.5,0.3
		s0.3,0.3,0.4,0.4c0.1,0.2,0.2,0.3,0.2,0.4c0,0.4,0,0.8,0,1.3c0,0.5-0.1,0.9-0.2,1.4c-0.1,0.5-0.2,1-0.3,1.5c-0.1,0.5-0.2,1-0.3,1.4
		c-0.2,0.9-0.4,1.6-0.5,2.2c-0.1,0.6-0.2,1.2-0.3,1.8c-0.1,0.6-0.2,1.2-0.2,1.9c-0.1,0.7-0.2,1.5-0.3,2.5c0.3-0.6,0.5-1.1,0.7-1.5
		s0.4-0.8,0.5-1.1c0.2-0.3,0.3-0.6,0.4-0.8c0.1-0.2,0.3-0.5,0.4-0.8c0.2-0.3,0.3-0.6,0.5-0.9s0.4-0.7,0.7-1.2
		c1.1-1.8,2.2-3.2,3.4-4.3c1.2-1.1,2.4-1.9,3.5-2.4c1.3-0.6,2.3-0.9,3.2-1c0.4,0,0.9,0,1.4,0.1c0.6,0.1,1.1,0.2,1.6,0.3
		c0.5,0.2,0.9,0.4,1.3,0.7C160.9,16.8,161.1,17.1,161.1,17.5z"/>
	<path class="st0" d="M210.1,20.2c0,0.2-0.2,0.6-0.5,1.2c-0.8,1.1-1.7,2.3-2.7,3.4c-1,1.1-2,2.2-3.1,3.3c-1.1,1-2.3,2-3.5,2.9
		c-1.2,0.9-2.4,1.7-3.6,2.3c-1.2,0.7-2.4,1.2-3.7,1.5c-1.2,0.4-2.4,0.5-3.5,0.5c-2.4,0-4.3-0.7-5.7-2.1c-1.4-1.4-2-3.6-2-6.4
		c0-2.4,0.4-4.7,1.1-7c0.7-2.3,2-4.4,3.8-6.5c0.3-0.4,0.7-0.7,1.1-1.1c0.4-0.3,0.9-0.6,1.3-0.9c0.5-0.3,0.9-0.5,1.4-0.6
		c0.5-0.2,1-0.2,1.5-0.3c0.1,0,0.3,0,0.5,0c0.2,0,0.4,0.1,0.7,0.2c0.2,0.1,0.5,0.2,0.7,0.3c0.2,0.1,0.4,0.3,0.6,0.4
		c0.4,0.5,0.8,1,1,1.5c0.3,0.5,0.4,1.1,0.4,1.7c0,0.7,0,1.4-0.2,2.1c-0.2,0.7-0.5,1.4-1,2.1c-0.5,0.7-1,1.4-1.8,2.2
		c-0.7,0.8-1.6,1.6-2.7,2.4c-0.7,0.6-1.4,1.2-2.2,1.8c-0.8,0.7-1.8,1.4-2.9,2.1c0,1.5,0.4,2.6,1.3,3.4c0.9,0.8,2.1,1.2,3.7,1.2
		c0.9,0,1.8-0.1,2.6-0.3c0.9-0.2,1.8-0.5,2.6-0.9c0.9-0.4,1.7-0.8,2.5-1.3c0.8-0.5,1.6-1,2.3-1.5c1.3-0.9,2.5-1.9,3.5-2.8
		c1.1-0.9,2.1-1.9,3.1-3l1.2-1.2c0.7-0.7,1.3-1,1.6-1C210,19.7,210.1,19.9,210.1,20.2z M192.5,15.6c0-0.2,0-0.5-0.1-0.7
		c-0.1-0.2-0.1-0.4-0.2-0.6c-0.1-0.2-0.2-0.3-0.4-0.4s-0.3-0.1-0.5-0.1c-0.8,0-1.6,0.5-2.4,1.5c-0.8,0.9-1.6,2.2-2.3,3.7
		c-0.2,0.3-0.3,0.7-0.4,1.1s-0.3,0.8-0.4,1.3c-0.1,0.4-0.2,0.9-0.3,1.3c-0.1,0.4-0.2,0.8-0.2,1.1c0.8-0.6,1.5-1.1,2.2-1.7
		c0.7-0.5,1.3-1,1.9-1.6c0.4-0.3,0.7-0.7,1.1-1.1c0.4-0.4,0.7-0.8,1-1.2c0.3-0.4,0.6-0.9,0.7-1.3S192.6,16.1,192.5,15.6z"/>
	<path class="st0" d="M240.7,20.4c0,0.2,0,0.4-0.1,0.7c0,0.3-0.1,0.5-0.2,0.8c-0.1,0.3-0.2,0.5-0.3,0.7c-0.1,0.2-0.2,0.4-0.3,0.6
		c-0.1,0.1-0.2,0.3-0.4,0.5c-0.2,0.2-0.4,0.4-0.6,0.7c-0.2,0.2-0.4,0.5-0.7,0.8c-0.3,0.3-0.5,0.5-0.8,0.8c-0.9,0.9-1.9,1.7-2.8,2.5
		s-1.8,1.5-2.8,2.2c-1,0.6-2,1.1-3,1.5s-2.2,0.6-3.4,0.5c-0.6,0-1.1-0.1-1.7-0.3c-0.6-0.2-1.1-0.5-1.6-0.9c-0.5-0.4-0.9-0.8-1.3-1.4
		c-0.4-0.5-0.6-1.1-0.8-1.8c-0.4,0.5-0.9,0.9-1.4,1.4c-0.5,0.5-1,1-1.5,1.5c-0.5,0.5-1.1,1-1.6,1.5c-0.6,0.5-1.1,0.9-1.7,1.3
		c-0.3,0.2-0.7,0.4-1.2,0.7c-0.5,0.2-1,0.5-1.5,0.7c-0.5,0.2-1,0.4-1.5,0.5c-0.5,0.1-1,0.2-1.4,0.2c-0.6,0-1.2-0.2-1.6-0.6
		c-0.5-0.4-0.8-0.9-1.1-1.4c-0.3-0.6-0.5-1.2-0.7-1.8s-0.2-1.2-0.2-1.7c0-1,0.1-2,0.4-3.1c0.3-1.1,0.7-2.1,1.1-3.1
		c0.5-1,1-2,1.6-2.9c0.6-0.9,1.1-1.7,1.7-2.4c0.6-0.7,1.3-1.5,2.1-2.2c0.8-0.7,1.6-1.4,2.5-2c0.9-0.6,1.7-1,2.5-1.4
		c0.8-0.4,1.6-0.5,2.2-0.5c0.3,0,0.7,0,1,0c0.4,0,0.7,0,1.1,0.1c0.4,0,0.7,0.1,1,0.2c0.3,0.1,0.6,0.2,0.9,0.4
		c0.1,0.1,0.3,0.3,0.5,0.5c0.2,0.3,0.4,0.6,0.5,0.9c0.2,0.3,0.3,0.6,0.4,1c0.1,0.3,0.2,0.6,0.2,0.8c0,0.5-0.1,1.2-0.3,2
		c-0.2,1.1-0.5,2-0.7,2.9c-0.2,0.9-0.3,1.8-0.3,2.7c0,0.5,0.1,1.1,0.3,1.6c0.2,0.5,0.4,1,0.7,1.5c0.3,0.4,0.7,0.8,1.1,1.1
		c0.5,0.3,1,0.4,1.5,0.4c0.9,0,1.9-0.2,2.9-0.6c1-0.4,2-0.9,3-1.6s2-1.5,3-2.4c1-0.9,2-1.8,2.9-2.9c0.1-0.1,0.2-0.2,0.4-0.5
		s0.4-0.4,0.6-0.7c0.2-0.2,0.4-0.4,0.6-0.6c0.2-0.2,0.3-0.3,0.4-0.3C240.5,19.4,240.7,19.7,240.7,20.4z M220.2,18.5c0-0.3,0-0.6,0-1
		c0-0.4-0.1-0.7-0.3-0.9c-0.2-0.2-0.4-0.4-0.6-0.4c-0.2,0-0.5,0-0.7,0c-0.5,0-1.1,0.1-1.5,0.3c-0.5,0.2-1,0.4-1.5,0.7
		c-0.5,0.3-0.9,0.6-1.4,1c-0.4,0.4-0.9,0.8-1.3,1.2c-0.4,0.4-0.7,0.8-1.1,1.3c-0.4,0.5-0.8,1.1-1.1,1.7c-0.4,0.6-0.7,1.3-1.1,2
		c-0.4,0.7-0.7,1.4-0.9,2c-0.3,0.7-0.5,1.3-0.6,1.9c-0.2,0.6-0.2,1.2-0.2,1.7c0,0.2,0,0.4,0.1,0.6c0,0.3,0.1,0.5,0.2,0.7
		s0.2,0.4,0.3,0.6c0.1,0.2,0.3,0.3,0.5,0.3c0.7,0,1.6-0.2,2.6-0.7c1.4-0.6,2.7-1.4,3.9-2.5c1.2-1.1,2.2-2.3,3-3.7
		C219.6,23.2,220.2,20.9,220.2,18.5z"/>
	<path class="st0" d="M261.3,19.4c0,0.2-0.1,0.5-0.2,0.8c-0.1,0.3-0.3,0.6-0.6,0.9s-0.5,0.6-0.8,1c-0.3,0.3-0.6,0.7-0.9,1
		c-0.2,0.3-0.5,0.5-0.7,0.8c-0.3,0.3-0.6,0.6-0.9,0.9c-0.3,0.3-0.7,0.7-1.2,1.1c-0.4,0.4-1,0.9-1.6,1.5c-0.5,0.5-1.1,1.1-1.8,1.6
		c-0.7,0.6-1.3,1.1-2,1.7c-0.7,0.6-1.3,1.1-1.9,1.6c-0.6,0.5-1.2,0.9-1.6,1.3c-1.1,0.9-2.1,1.8-3.1,2.6c-1,0.8-2,1.5-2.9,2.2
		c-1.9,1.3-3.4,1.9-4.5,1.9c-0.4,0-0.8-0.1-1.3-0.3c-0.5-0.2-0.8-0.5-0.8-0.8c0-1,0.4-1.8,1.1-2.3c0.7-0.5,1.9-1.1,3.4-1.7
		c1.5-0.6,2.7-1.2,3.4-1.8c0.8-0.6,1.1-1.4,1.1-2.4c0-0.5-0.5-1.5-1.6-3.1c-0.5-0.8-1-1.5-1.4-2.1c-0.4-0.6-0.8-1.2-1-1.8
		c-0.6-1.1-0.9-2.2-0.9-3.4c0-1,0.2-2.1,0.6-3.2c0.2-0.6,0.5-1.3,0.9-1.9c0.4-0.7,0.8-1.2,1.3-1.7c0.5-0.5,1-0.9,1.4-1.2
		c0.5-0.3,0.9-0.5,1.3-0.4c1.3,0,2,0.8,2,2.4c0,0.6-0.2,1.2-0.7,1.8c-0.2,0.3-0.5,0.6-0.8,0.9c-0.3,0.3-0.7,0.6-1.1,1
		c-0.4,0.3-0.7,0.6-1,0.8c-0.3,0.2-0.5,0.5-0.7,0.6c0,0.8,0.2,1.7,0.7,2.8c0.3,0.5,0.6,1.1,0.9,1.7c0.3,0.6,0.7,1.3,1.2,2
		c0.4,0.7,0.8,1.3,1.1,1.9c0.3,0.6,0.5,1,0.7,1.2c0,0.1,0.1,0.1,0.3,0.1c0.2,0,0.6-0.2,1.1-0.5c0.5-0.3,1.2-0.7,1.9-1.3
		c0.7-0.5,1.5-1.1,2.4-1.8c0.9-0.7,1.7-1.4,2.6-2.2c0.9-0.8,1.6-1.5,2.2-2.1c0.6-0.6,1.1-1.2,1.7-1.7c0.5-0.5,0.9-0.9,1.2-1.2
		c0.3-0.3,0.4-0.4,0.4-0.4c0.1,0,0.2,0,0.3,0.1c0.1,0.1,0.2,0.2,0.3,0.4c0.1,0.1,0.1,0.3,0.2,0.5C261.3,19.1,261.3,19.3,261.3,19.4z
		"/>
	<path class="st0" d="M282,21.1c0,0.3-0.1,0.8-0.4,1.3c-0.3,0.6-0.7,1.2-1.2,1.9c-0.5,0.7-1.1,1.4-1.8,2.2c-0.7,0.8-1.4,1.6-2.1,2.4
		c-0.9,0.9-1.8,1.8-2.7,2.7c-1,0.8-2,1.7-3.1,2.5c-2.1,1.6-4.1,2.4-5.7,2.4c-1.9,0-3.3-0.6-4.3-1.9c-1-1.3-1.7-2.8-2.1-4.5
		c-0.4-1.8-0.6-3.6-0.6-5.4c0-0.8,0.1-2,0.3-3.6c0.1-0.8,0.2-1.5,0.3-2.1s0.2-1.1,0.3-1.4c0.2-0.7,0.7-1.3,1.4-1.9
		c0.7-0.6,1.4-0.8,2.2-0.8c0.4,0,0.6,0.4,0.6,1.2c0,0.5,0,1.1-0.1,1.8c-0.1,0.7-0.2,1.3-0.3,2c-0.2,1.2-0.3,2.3-0.4,3.2
		s-0.1,1.8-0.1,2.5c0,1.5,0.2,3.1,0.6,4.7c0.4,1.6,1.2,2.4,2.3,2.4c1.1,0,2.4-0.4,3.9-1.2c0.7-0.4,1.5-0.9,2.2-1.4
		c0.7-0.5,1.5-1.1,2.2-1.7c0.8-0.6,1.5-1.3,2.2-1.9c0.7-0.6,1.4-1.3,2.1-2c0.7-0.7,1.3-1.3,1.8-1.9c0.5-0.6,1-1.1,1.4-1.7
		c0,0,0-0.1,0.1-0.1c0-0.1,0.1-0.1,0.1-0.2c0-0.1,0.1-0.1,0.1-0.2c0,0,0.1-0.1,0.1,0c0.2,0,0.4,0.2,0.5,0.5
		C282,20.6,282,20.9,282,21.1z M267,2.4c0,1-0.3,1.8-0.8,2.5C265.7,5.7,265,6,264,6c-0.6,0-1.3-0.1-2-0.3c-0.7-0.2-1.1-0.5-1.1-0.9
		c0-0.7,0.2-1.5,0.7-2.1c0.5-0.7,1-1.2,1.7-1.7c0.5-0.3,0.9-0.5,1-0.5c0.9,0,1.5,0.1,2,0.4C266.8,1.2,267,1.7,267,2.4z"/>
	<path class="st0" d="M318.4,19.6c0,0.3,0,0.6-0.1,0.9c-0.1,0.3-0.2,0.6-0.4,0.9c-0.1,0.3-0.3,0.6-0.5,0.9s-0.4,0.6-0.5,0.8
		c-0.4,0.7-1,1.4-1.6,2.1c-0.6,0.7-1.2,1.4-1.9,2.1c-0.7,0.7-1.4,1.3-2.1,1.9c-0.7,0.6-1.4,1.1-2.1,1.6c-0.6,0.4-1.1,0.7-1.6,1
		s-1,0.6-1.5,0.8s-1,0.4-1.6,0.6s-1.2,0.2-1.8,0.2c-1.3,0-2.3-0.3-3.1-1c-0.4-0.3-0.7-0.7-1-1.3c-0.3-0.5-0.6-1.1-0.8-1.7
		c-0.2-0.6-0.4-1.3-0.6-2c-0.2-0.7-0.3-1.4-0.4-2.1c-0.1-0.9-0.3-1.6-0.4-2.3c-0.1-0.7-0.3-1.3-0.4-1.7c-0.2-0.5-0.4-0.8-0.6-1.1
		c-0.2-0.3-0.5-0.4-0.9-0.4c-0.3,0-0.6,0-0.8,0.1c-0.3,0.1-0.5,0.2-0.8,0.4s-0.6,0.4-0.9,0.8c-0.3,0.3-0.7,0.8-1.2,1.3s-1,1.2-1.5,2
		c-0.6,0.8-1.3,1.7-2,2.8c-0.4,0.5-0.8,1.1-1.4,1.8c-0.5,0.6-1.1,1.3-1.6,1.8c-0.5,0.6-1.1,1.1-1.6,1.5c-0.5,0.4-1,0.7-1.4,0.8
		c-1.3-0.3-2-2-2-5c0-0.8,0.1-2,0.3-3.7c0.1-0.7,0.2-1.5,0.3-2.4c0.1-0.8,0.3-1.6,0.5-2.5c0.2-0.8,0.4-1.6,0.6-2.4
		c0.2-0.8,0.5-1.5,0.8-2.1c0.2-0.3,0.3-0.5,0.5-0.7c0.2-0.2,0.3-0.3,0.5-0.4c0.2-0.1,0.4-0.1,0.6-0.2c0.2,0,0.4,0,0.6,0
		c0.2,0,0.5,0.2,0.7,0.5c0.2,0.3,0.3,0.8,0.3,1.4c0,0.4,0,0.7-0.1,1c-0.1,0.3-0.1,0.7-0.3,1c-0.1,0.3-0.2,0.7-0.3,1.1
		c-0.1,0.4-0.2,0.8-0.4,1.3c-0.1,0.4-0.2,0.9-0.3,1.4c-0.1,0.5-0.2,1-0.3,1.5c-0.1,0.5-0.2,1-0.3,1.5c-0.1,0.5-0.1,0.9-0.1,1.3
		c0,0.3,0,0.6,0.1,0.8c0.4,0,1.1-0.7,2.1-1.9c0.5-0.6,1.1-1.3,1.7-2.1c0.6-0.7,1.3-1.6,2-2.5c0.5-0.7,1-1.3,1.5-1.9
		c0.5-0.6,1-1.1,1.6-1.5c0.6-0.4,1.1-0.8,1.8-1c0.6-0.3,1.3-0.4,2.1-0.4c0.8,0,1.5,0.2,2,0.5c0.5,0.3,1,0.8,1.3,1.4
		c0.3,0.6,0.6,1.3,0.7,2.2c0.2,0.8,0.3,1.8,0.4,2.8c0.1,0.9,0.2,1.7,0.3,2.5c0.1,0.8,0.2,1.6,0.5,2.3c0.2,0.7,0.6,1.2,1.1,1.6
		s1.1,0.6,2,0.6c0.7,0,1.3-0.2,2.1-0.5c0.7-0.3,1.5-0.7,2.3-1.3c0.8-0.5,1.6-1.2,2.5-1.9c0.8-0.7,1.7-1.5,2.6-2.4
		c0.4-0.3,0.7-0.8,1.2-1.3c0.4-0.5,0.8-1,1.2-1.5c0.4-0.5,0.8-0.9,1.1-1.2c0.4-0.3,0.6-0.5,0.8-0.5c0.1,0,0.2,0,0.4,0.1
		C318.3,19.2,318.4,19.4,318.4,19.6z"/>
	<path class="st0" d="M331.5,18.4c-0.1,1.1-0.2,2.2-0.3,3.5c-0.1,1.3-0.2,2.7-0.3,4.3c0,0.6-0.1,1.2-0.2,2c-0.1,0.7-0.2,1.5-0.3,2.3
		s-0.2,1.5-0.3,2.3c-0.1,0.8-0.2,1.4-0.3,2.1c-0.1,0.9-0.3,1.8-0.5,2.8c-0.2,1-0.5,1.9-0.8,2.8c-0.3,0.9-0.7,1.8-1.2,2.7
		c-0.5,0.8-1,1.6-1.7,2.2s-1.4,1.1-2.2,1.5c-0.8,0.4-1.8,0.6-2.9,0.6c-0.7,0-1.4-0.1-2.1-0.3c-0.7-0.2-1.4-0.4-2.1-0.7
		c-0.7-0.3-1.3-0.6-2-1c-0.6-0.4-1.2-0.8-1.8-1.3c-0.6-0.5-1.1-1-1.6-1.5s-0.8-1-1.1-1.6c-0.3-0.5-0.5-1-0.5-1.5
		c0-0.5,0.2-0.7,0.5-0.7c0.1,0,0.2,0.1,0.3,0.2c0.1,0,0.1,0.1,0.2,0.2c0.1,0.1,0.2,0.2,0.2,0.3c0.1,0.1,0.1,0.2,0.2,0.2
		c0.1,0.1,0.1,0.1,0.1,0.1c3,2.7,6.1,4.1,9.5,4.1c1.1,0,2-0.3,2.7-0.8c0.7-0.5,1.3-1.2,1.7-2s0.7-1.7,1-2.7c0.2-1,0.4-2,0.6-3
		c0.1-0.6,0.2-1.2,0.2-1.8c0.1-0.6,0.1-1.3,0.2-1.9c0.1-0.7,0.1-1.4,0.2-2.1c0.1-0.7,0.1-1.5,0.2-2.4c-0.6,0.7-1.4,1.4-2.4,2.1
		c-1,0.8-2,1.5-3.1,2.1c-1.1,0.6-2.2,1.2-3.3,1.6c-1.1,0.4-2.1,0.6-3.1,0.6c-0.4,0-0.8-0.1-1.1-0.3c-0.3-0.2-0.6-0.4-0.9-0.8
		c-0.2-0.3-0.4-0.8-0.6-1.3s-0.2-1.1-0.2-1.7c0-0.9,0.2-1.8,0.5-2.8c0.3-1,0.7-2,1.2-3c0.5-1,1-2,1.6-2.9c0.6-0.9,1.1-1.8,1.7-2.5
		c0.6-0.7,1.2-1.5,2-2.3c0.8-0.8,1.6-1.5,2.5-2.2c0.9-0.7,1.8-1.2,2.8-1.6c1-0.4,1.9-0.6,2.8-0.6c0.8,0,1.6,0.2,2.3,0.5
		c0.7,0.4,1.2,0.9,1.6,1.6c0.1,0.2,0.1,0.4,0.2,0.7c0,0.3,0,0.7,0,1.1c0,0.4-0.1,0.9-0.1,1.4C331.6,17.4,331.5,17.9,331.5,18.4z
		 M327.7,22.6c0.1-0.5,0.1-1,0.2-1.7c0.1-0.6,0.1-1.5,0.2-2.4c0-0.5,0.1-1,0.1-1.5s0-0.9-0.1-1.2c-0.1-0.4-0.4-0.7-0.7-0.8
		c-0.4-0.1-0.9-0.2-1.7-0.2c-0.7,0.5-1.5,1-2.2,1.7c-0.7,0.7-1.4,1.4-2.1,2.2c-0.7,0.8-1.3,1.6-1.8,2.4c-0.6,0.8-1.1,1.6-1.5,2.4
		c-0.5,0.9-0.8,1.7-1.1,2.6c-0.3,0.9-0.4,1.6-0.4,2.2c0,0.3,0,0.5,0.1,0.6c0.1,0.2,0.2,0.3,0.4,0.4c0.2,0.1,0.3,0.2,0.6,0.2
		c0.2,0,0.4,0.1,0.6,0.1c0.5,0,1.1-0.1,1.7-0.3c0.6-0.2,1.2-0.5,1.8-0.8c0.6-0.3,1.2-0.7,1.7-1.1c0.6-0.4,1-0.7,1.4-1
		c0.2-0.1,0.4-0.3,0.7-0.6c0.3-0.3,0.6-0.6,0.8-0.9c0.3-0.3,0.5-0.7,0.7-1.1C327.5,23.3,327.7,22.9,327.7,22.6z"/>
</g>
</svg>
