<?xml version="1.0" encoding="utf-8"?>
<!-- Generator: Adobe Illustrator 16.0.0, SVG Export Plug-In . SVG Version: 6.00 Build 0)  -->
<!DOCTYPE svg PUBLIC "-//W3C//DTD SVG 1.1//EN" "http://www.w3.org/Graphics/SVG/1.1/DTD/svg11.dtd">
<svg version="1.1" id="Layer_1" xmlns="http://www.w3.org/2000/svg" xmlns:xlink="http://www.w3.org/1999/xlink" x="0px" y="0px"
	 width="150px" height="180px" viewBox="0 0 150 180" enable-background="new 0 0 150 180" xml:space="preserve">
<path fill-rule="evenodd" clip-rule="evenodd" fill="#16313B" d="M77.618,30.333c22.455,0,40.659,18.204,40.659,40.659
	c0,22.455-18.204,40.662-40.659,40.662c-22.456,0-40.659-18.207-40.659-40.662C36.959,48.538,55.163,30.333,77.618,30.333z"/>
<path fill-rule="evenodd" clip-rule="evenodd" fill="#116360" d="M73.163,39.762c17.248,0,31.23,13.983,31.23,31.231
	c0,17.248-13.982,31.23-31.23,31.23c-17.249,0-31.232-13.982-31.232-31.23C41.931,53.745,55.914,39.762,73.163,39.762z"/>
<path fill="#24A9A8" d="M52.199,71.342c1.083,4.279,3.105,7.851,5.368,10.959c2.296,3.085,4.924,5.65,7.724,7.739
	c5.654,4.137,11.732,6.59,18.166,7.631l0.142-5.261c-5.809-0.279-11.894-1.963-17.366-5.256c-2.742-1.666-5.362-3.809-7.688-6.476
	c-2.288-2.656-4.423-5.943-5.612-9.686L52.199,71.342z"/>
<path fill="#24A9A8" d="M82.985,93.721c-5.943-0.442-12.13-2.353-17.649-5.929c-2.764-1.808-5.391-4.113-7.704-6.953
	c-2.14-2.666-4.128-5.912-5.29-9.564l0.588-0.282c1.189,3.743,3.325,7.029,5.612,9.686c2.326,2.667,4.946,4.81,7.688,6.476
	c5.473,3.293,11.558,4.977,17.366,5.256l-0.142,5.261c-0.223-0.035-0.445-0.077-0.669-0.117L82.985,93.721z"/>
<path fill="#24A9A8" d="M86.924,65.847c-0.496,3.051-1.635,5.796-2.917,8.047c-1.309,2.262-2.843,4.125-4.492,5.613
	c-0.453,0.407-0.919,0.788-1.393,1.147l0.277,3.008c0.656-0.591,1.302-1.228,1.933-1.912c1.658-1.829,3.166-4.027,4.423-6.621
	c1.234-2.611,2.279-5.575,2.667-9.048L86.924,65.847z"/>
<path fill="#24A9A8" d="M79.515,79.507c1.649-1.488,3.184-3.352,4.492-5.613c1.282-2.251,2.421-4.996,2.917-8.047l0.498,0.235
	c-0.008,0.076-0.021,0.146-0.03,0.221l-0.022-0.012c-0.497,3.051-1.637,5.796-2.92,8.047c-1.307,2.263-2.842,4.125-4.489,5.614
	c-0.455,0.407-0.921,0.788-1.393,1.148l0.202,2.215c-0.124,0.115-0.247,0.237-0.37,0.349l-0.277-3.008
	C78.596,80.295,79.062,79.914,79.515,79.507z"/>
<path fill="#24A9A8" d="M68.477,66.818c10.589,19.02,9.736,39.61,3.572,58.98H85.57c1.576-11.344,1.806-18.844-0.664-30.019
	c-2.434-11.174-7.362-21.678-14.153-30.477L68.477,66.818z"/>
<path fill="#24A9A8" d="M83.394,96.031c-2.389-10.963-7.181-21.276-13.775-29.973l1.135-0.756
	c6.791,8.799,11.72,19.303,14.153,30.477c2.47,11.175,2.24,18.675,0.664,30.019h-1.478C85.637,114.595,85.846,107.124,83.394,96.031
	z"/>
<path fill-rule="evenodd" clip-rule="evenodd" fill="#FFFFFF" d="M22.442,22.042c0,0,0.673,6.329,3.623,8.379
	c2.951,2.051,8.181,0.822,8.181,0.822s-5.38,0.746-7.456,3.732c-2.024,2.914-0.746,8.071-0.746,8.071s-0.672-5.329-3.624-7.38
	c-2.951-2.05-8.18-0.822-8.18-0.822s5.38-0.746,7.456-3.732C23.721,28.199,22.442,22.042,22.442,22.042z"/>
<path fill-rule="evenodd" clip-rule="evenodd" fill="#24A9A8" d="M123.453,15.347c0,0,0.889,7.045,4.789,9.755
	c3.901,2.71,10.813,1.087,10.813,1.087s-7.112,0.986-9.855,4.935c-2.677,3.852-0.986,10.668-0.986,10.668s-0.89-7.045-4.79-9.755
	c-3.9-2.711-10.813-1.087-10.813-1.087s7.112-0.986,9.855-4.935C125.143,22.164,123.453,15.347,123.453,15.347z"/>
<path fill="#FFFFFF" d="M22.435,111.024l-8.805-3.928l-6.617-7.015l8.805,3.93L22.435,111.024z"/>
<path fill="#FFFFFF" d="M20.316,97.671l-3.928,8.805l-7.013,6.617l3.928-8.806L20.316,97.671z"/>
<path fill-rule="evenodd" clip-rule="evenodd" fill="#24A9A8" d="M66,10.347c1.381,0,2.5,1.12,2.5,2.5c0,1.381-1.119,2.5-2.5,2.5
	s-2.5-1.119-2.5-2.5C63.5,11.466,64.619,10.347,66,10.347z"/>
<path fill-rule="evenodd" clip-rule="evenodd" fill="#FFFFFF" d="M22.435,75c1.104,0,2,0.896,2,2c0,1.105-0.896,2-2,2s-2-0.895-2-2
	C20.435,75.896,21.331,75,22.435,75z"/>
<path fill-rule="evenodd" clip-rule="evenodd" fill="#24A9A8" d="M44,111.643c1.104,0,2,0.896,2,2s-0.896,2-2,2s-2-0.896-2-2
	S42.896,111.643,44,111.643z"/>
<path fill-rule="evenodd" clip-rule="evenodd" fill="#FFFFFF" d="M133,83c2.209,0,4,1.791,4,4s-1.791,4-4,4s-4-1.791-4-4
	S130.791,83,133,83z"/>
<g>
	<path fill="#FFFFFF" d="M43.417,153.052c0,1.509-0.241,2.867-0.721,4.076c-0.481,1.209-1.138,2.242-1.97,3.1
		c-0.833,0.858-1.801,1.516-2.905,1.97c-1.105,0.455-2.269,0.683-3.491,0.683c-0.599,0-1.281-0.072-2.047-0.215
		c-0.768-0.143-1.45-0.318-2.048-0.526l-5.655,0.78v-26.364l6.045-0.74l-0.039,10.257c0.572-0.598,1.274-1.157,2.106-1.678
		c0.832-0.52,1.833-0.779,3.003-0.779c1.118,0,2.151,0.221,3.101,0.663c0.949,0.442,1.761,1.072,2.438,1.892
		c0.676,0.818,1.209,1.807,1.599,2.964S43.417,151.596,43.417,153.052z M37.372,153.364c0-1.561-0.315-2.775-0.944-3.646
		c-0.63-0.871-1.562-1.307-2.795-1.307c-0.668,0-1.234,0.117-1.696,0.351c-0.463,0.234-0.9,0.533-1.311,0.897v7.995
		c0.745,0.494,1.658,0.74,2.737,0.74c1.285,0,2.274-0.461,2.968-1.384C37.025,156.088,37.372,154.872,37.372,153.364z"/>
	<path fill="#FFFFFF" d="M65.178,153.208c0,1.508-0.26,2.866-0.78,4.075c-0.521,1.209-1.223,2.23-2.106,3.062
		c-0.884,0.833-1.924,1.47-3.12,1.911c-1.196,0.442-2.47,0.663-3.822,0.663c-1.353,0-2.62-0.208-3.803-0.624
		c-1.184-0.416-2.204-1.033-3.062-1.853s-1.534-1.826-2.028-3.022c-0.494-1.195-0.741-2.561-0.741-4.095s0.253-2.905,0.761-4.114
		c0.507-1.209,1.209-2.229,2.106-3.062s1.943-1.463,3.139-1.892c1.196-0.43,2.483-0.644,3.861-0.644
		c1.378,0,2.652,0.214,3.822,0.644c1.17,0.429,2.184,1.053,3.042,1.872c0.858,0.818,1.527,1.819,2.009,3.003
		C64.938,150.315,65.178,151.674,65.178,153.208z M59.211,153.267c0-1.527-0.319-2.751-0.956-3.671
		c-0.637-0.92-1.58-1.38-2.828-1.38s-2.184,0.46-2.808,1.38c-0.624,0.92-0.936,2.156-0.936,3.71s0.318,2.778,0.955,3.671
		c0.637,0.894,1.58,1.341,2.828,1.341s2.184-0.453,2.808-1.36C58.899,156.051,59.211,154.82,59.211,153.267z"/>
	<path fill="#FFFFFF" d="M80.311,162.334v-10.725c0-1.093-0.225-1.846-0.674-2.263c-0.449-0.415-1.071-0.624-1.866-0.624
		c-0.667,0-1.276,0.137-1.828,0.41c-0.552,0.272-1.02,0.592-1.405,0.955v12.246h-6.045v-17.823l6.045-0.741l-0.039,2.965
		c0.801-0.91,1.718-1.658,2.751-2.243s2.131-0.877,3.294-0.877c1.832,0,3.259,0.553,4.28,1.657c1.021,1.105,1.531,2.633,1.531,4.582
		v12.48H80.311z"/>
	<path fill="#FFFFFF" d="M105.23,156.952c0,0.806-0.175,1.573-0.526,2.301c-0.351,0.729-0.877,1.365-1.579,1.911
		s-1.566,0.975-2.594,1.287c-1.027,0.312-2.203,0.468-3.529,0.468c-0.624,0-1.287-0.033-1.989-0.098
		c-0.702-0.065-1.391-0.169-2.066-0.312c-0.677-0.144-1.333-0.312-1.97-0.507c-0.638-0.195-1.19-0.423-1.658-0.683l1.171-4.329
		c1.065,0.546,2.17,0.969,3.314,1.268c1.144,0.299,2.249,0.448,3.315,0.448c1.638,0,2.457-0.493,2.457-1.482
		c0-0.52-0.254-0.902-0.761-1.15c-0.507-0.246-1.281-0.487-2.32-0.722c-1.04-0.207-1.989-0.468-2.848-0.779
		c-0.857-0.312-1.586-0.702-2.184-1.17c-0.599-0.469-1.06-1.027-1.385-1.678c-0.325-0.649-0.487-1.416-0.487-2.301
		c0-0.857,0.182-1.638,0.546-2.34s0.884-1.312,1.561-1.833c0.676-0.52,1.514-0.923,2.515-1.209s2.126-0.429,3.374-0.429
		c0.598,0,1.234,0.039,1.911,0.117c0.676,0.077,1.346,0.188,2.008,0.331c0.663,0.144,1.294,0.312,1.892,0.507
		c0.599,0.195,1.118,0.396,1.561,0.604l-1.204,4.29c-1.036-0.52-2.118-0.923-3.244-1.209s-2.117-0.429-2.971-0.429
		c-1.477,0-2.214,0.455-2.214,1.365c0,0.494,0.271,0.864,0.815,1.111c0.543,0.247,1.308,0.475,2.292,0.683
		c1.062,0.233,2.014,0.507,2.854,0.818c0.842,0.312,1.555,0.696,2.137,1.15c0.583,0.456,1.03,1.008,1.341,1.658
		C105.075,155.262,105.23,156.042,105.23,156.952z"/>
	<path fill="#FFFFFF" d="M118.256,160.15c-0.649,0.754-1.371,1.403-2.164,1.949s-1.813,0.819-3.062,0.819
		c-0.78,0-1.508-0.13-2.184-0.39c-0.677-0.26-1.262-0.617-1.756-1.073c-0.494-0.454-0.884-0.987-1.17-1.599
		c-0.286-0.61-0.429-1.268-0.429-1.97c0-0.857,0.176-1.663,0.526-2.418c0.352-0.754,0.942-1.417,1.774-1.988
		c0.832-0.572,1.937-1.04,3.315-1.404c1.378-0.364,3.081-0.571,5.108-0.624v-0.352c0-0.961-0.253-1.663-0.76-2.105
		s-1.32-0.663-2.438-0.663c-0.937,0-1.931,0.176-2.983,0.526c-1.054,0.352-2.113,0.787-3.179,1.307l-1.248-4.407
		c0.962-0.52,2.164-1.007,3.607-1.462s3.022-0.683,4.738-0.683c1.561,0,2.873,0.175,3.939,0.526c1.065,0.351,1.924,0.864,2.574,1.54
		c0.649,0.677,1.111,1.502,1.384,2.477c0.273,0.976,0.396,2.101,0.371,3.374l-0.039,5.382c0,0.624,0.091,1.014,0.272,1.17
		s0.585,0.26,1.209,0.312l-0.585,4.29c-1.976,0.26-3.484,0.149-4.523-0.331c-1.041-0.48-1.769-1.215-2.185-2.203H118.256z
		 M118.217,154.261c-1.871,0.209-3.185,0.514-3.938,0.917c-0.755,0.403-1.131,1.008-1.131,1.813c0,0.599,0.208,1.072,0.624,1.423
		c0.415,0.352,0.961,0.527,1.638,0.527c0.598,0,1.137-0.11,1.618-0.332c0.481-0.221,0.878-0.513,1.189-0.877V154.261z"/>
	<path fill="#FFFFFF" d="M134.948,138.427c0,1.04-0.312,1.833-0.937,2.379s-1.495,0.819-2.612,0.819
		c-1.093,0-1.957-0.273-2.594-0.819c-0.638-0.546-0.956-1.339-0.956-2.379c0-1.065,0.318-1.872,0.956-2.418
		c0.637-0.546,1.501-0.818,2.594-0.818c1.117,0,1.988,0.272,2.612,0.818S134.948,137.361,134.948,138.427z M128.396,162.334v-17.823
		l6.046-0.741v18.564H128.396z"/>
</g>
</svg>
