<?xml version="1.0" encoding="utf-8"?>
<!-- Generator: Adobe Illustrator 21.0.0, SVG Export Plug-In . SVG Version: 6.00 Build 0)  -->
<svg version="1.1" id="Слой_1" xmlns="http://www.w3.org/2000/svg" xmlns:xlink="http://www.w3.org/1999/xlink" x="0px" y="0px"
	 viewBox="0 0 292 52" style="enable-background:new 0 0 292 52;" xml:space="preserve">
<style type="text/css">
	.st0{fill:#264E6F;}
</style>
<g>
	<path class="st0" d="M35.8,6.6V4.2c0-0.8,0.2-1.4,0.5-1.8c0.3-0.4,0.7-0.5,1.2-0.5c0.5,0,0.9,0.2,1.2,0.5c0.3,0.4,0.5,0.9,0.5,1.8
		v9.5c0,0.8-0.2,1.4-0.5,1.8c-0.3,0.4-0.7,0.5-1.2,0.5c-0.5,0-0.8-0.2-1.2-0.5c-0.3-0.3-0.5-0.9-0.5-1.6c-0.1-2.3-1.4-4.3-3.7-6.1
		C29,5.4,25.4,4.2,21.4,4.2c-2.6,0-5.1,0.6-7.5,1.8C12.2,6.8,10.8,7.8,9.8,9c-1.8,2.1-3.2,4.5-4.3,7c-0.8,1.9-1.1,4-1.1,6.4v6
		c0,5.1,1.8,9.5,5.5,13.3c3.7,3.8,8,5.6,12.9,5.6c2.9,0,5.6-0.6,7.9-1.9c2.3-1.3,4.6-3.2,6.7-5.8c0.5-0.6,1-0.9,1.5-0.9
		c0.5,0,0.9,0.1,1.2,0.4c0.3,0.3,0.4,0.7,0.4,1.1c0,0.6-0.6,1.6-1.8,2.9c-2.2,2.5-4.7,4.4-7.5,5.6c-2.8,1.3-5.6,1.9-8.5,1.9
		c-2.5,0-5-0.5-7.5-1.4c-2-0.7-3.6-1.6-4.8-2.6c-1.3-1-2.8-2.6-4.7-4.9s-3.1-4.5-3.8-6.4c-0.7-2-1-4.1-1-6.5v-7
		c0-3.4,0.9-6.8,2.7-10.3C5.4,8.2,7.9,5.5,11,3.6c3.1-1.9,6.5-2.8,10.2-2.8C26.9,0.8,31.8,2.7,35.8,6.6z"/>
	<path class="st0" d="M89.3,32.7H54.5c0.6,4.4,2.5,8,5.6,10.7c3.1,2.7,7,4.1,11.5,4.1c2.6,0,5.2-0.4,8-1.3c2.8-0.8,5.1-2,6.8-3.3
		c0.5-0.4,1-0.6,1.3-0.6c0.4,0,0.8,0.2,1.1,0.5c0.3,0.3,0.5,0.7,0.5,1.2c0,0.5-0.2,0.9-0.7,1.3c-1.3,1.4-3.6,2.6-6.9,3.8
		c-3.3,1.2-6.7,1.8-10.2,1.8c-5.9,0-10.8-1.9-14.7-5.8C53,41.3,51,36.6,51,31.2c0-5,1.8-9.2,5.5-12.8c3.7-3.6,8.2-5.3,13.7-5.3
		c5.6,0,10.2,1.8,13.8,5.5C87.6,22.2,89.4,26.9,89.3,32.7z M85.9,29.2c-0.7-3.8-2.5-6.8-5.4-9.2c-2.9-2.4-6.3-3.5-10.3-3.5
		s-7.4,1.2-10.3,3.5c-2.9,2.3-4.7,5.4-5.4,9.2H85.9z"/>
	<path class="st0" d="M130.7,49.5v-4.9c-5,4.2-10.3,6.3-15.9,6.3c-4.1,0-7.3-1-9.6-3.1c-2.3-2.1-3.5-4.6-3.5-7.6
		c0-3.3,1.5-6.2,4.6-8.7c3-2.5,7.5-3.7,13.3-3.7c1.6,0,3.3,0.1,5.1,0.3c1.8,0.2,3.8,0.5,6,1v-5.5c0-1.9-0.9-3.5-2.6-4.9
		c-1.7-1.4-4.3-2.1-7.8-2.1c-2.7,0-6.4,0.8-11.2,2.3c-0.9,0.3-1.4,0.4-1.7,0.4c-0.4,0-0.8-0.2-1.1-0.5c-0.3-0.3-0.5-0.7-0.5-1.2
		c0-0.5,0.1-0.8,0.4-1.1c0.4-0.4,1.9-1,4.6-1.7c4.2-1.1,7.4-1.7,9.6-1.7c4.3,0,7.7,1.1,10.1,3.2c2.4,2.1,3.6,4.5,3.6,7.2v22.6h4.6
		c0.8,0,1.4,0.2,1.8,0.5c0.4,0.3,0.5,0.7,0.5,1.2c0,0.5-0.2,0.9-0.5,1.2c-0.4,0.3-1,0.5-1.8,0.5H130.7z M130.7,32.5
		c-1.6-0.5-3.3-0.8-5.1-1c-1.8-0.2-3.7-0.3-5.7-0.3c-5,0-8.9,1.1-11.6,3.2c-2.1,1.6-3.2,3.5-3.2,5.7c0,2.1,0.8,3.8,2.4,5.2
		c1.6,1.4,4,2.1,7.1,2.1c3,0,5.7-0.6,8.2-1.8c2.5-1.2,5.2-3.1,7.8-5.6V32.5z"/>
	<path class="st0" d="M182.2,16.5c0-0.8,0.2-1.4,0.5-1.7c0.3-0.4,0.7-0.5,1.2-0.5c0.5,0,0.9,0.2,1.3,0.5c0.3,0.4,0.5,1,0.5,1.8v5.9
		c0,0.8-0.2,1.4-0.5,1.8c-0.3,0.4-0.7,0.5-1.3,0.5c-0.5,0-0.8-0.1-1.2-0.4c-0.3-0.3-0.5-0.8-0.6-1.5c-0.2-1.6-1-3-2.5-4
		c-2.2-1.5-5.2-2.3-8.8-2.3c-3.8,0-6.8,0.8-8.9,2.3c-1.6,1.2-2.4,2.5-2.4,3.9c0,1.6,1,3,2.9,4.1c1.3,0.8,3.8,1.3,7.4,1.8
		c4.8,0.5,8.1,1.1,9.9,1.8c2.6,1,4.6,2.3,5.9,4c1.3,1.7,1.9,3.5,1.9,5.5c0,2.9-1.4,5.5-4.2,7.8s-6.9,3.4-12.3,3.4
		c-5.4,0-9.8-1.4-13.3-4.1c0,0.9-0.1,1.5-0.2,1.8c-0.1,0.3-0.3,0.5-0.6,0.7c-0.3,0.2-0.6,0.3-1,0.3c-0.5,0-0.9-0.2-1.2-0.5
		s-0.5-0.9-0.5-1.8v-7c0-0.8,0.2-1.4,0.5-1.8c0.3-0.4,0.7-0.5,1.2-0.5c0.5,0,0.9,0.2,1.2,0.5c0.3,0.3,0.5,0.8,0.5,1.4
		c0,1.2,0.3,2.3,0.9,3.1c1,1.3,2.5,2.4,4.5,3.2c2.1,0.9,4.6,1.3,7.6,1.3c4.5,0,7.8-0.8,9.9-2.5c2.2-1.7,3.3-3.4,3.3-5.3
		c0-2.1-1.1-3.8-3.3-5.1c-2.2-1.3-5.5-2.1-9.7-2.6c-4.3-0.4-7.3-1-9.1-1.7c-1.8-0.7-3.3-1.8-4.3-3.2c-1-1.4-1.5-2.9-1.5-4.6
		c0-2.9,1.4-5.3,4.3-7c2.9-1.7,6.3-2.6,10.3-2.6C175.4,13,179.3,14.2,182.2,16.5z"/>
	<path class="st0" d="M239.5,32.7h-34.9c0.6,4.4,2.5,8,5.6,10.7c3.1,2.7,7,4.1,11.5,4.1c2.6,0,5.2-0.4,8-1.3c2.8-0.8,5.1-2,6.8-3.3
		c0.5-0.4,1-0.6,1.3-0.6c0.4,0,0.8,0.2,1.1,0.5c0.3,0.3,0.5,0.7,0.5,1.2c0,0.5-0.2,0.9-0.7,1.3c-1.3,1.4-3.6,2.6-6.9,3.8
		c-3.3,1.2-6.7,1.8-10.2,1.8c-5.9,0-10.8-1.9-14.7-5.8c-3.9-3.8-5.9-8.5-5.9-13.9c0-5,1.8-9.2,5.5-12.8c3.7-3.6,8.2-5.3,13.7-5.3
		c5.6,0,10.2,1.8,13.8,5.5C237.8,22.2,239.6,26.9,239.5,32.7z M236,29.2c-0.7-3.8-2.5-6.8-5.4-9.2s-6.3-3.5-10.3-3.5
		c-4,0-7.4,1.2-10.3,3.5c-2.9,2.3-4.7,5.4-5.4,9.2H236z"/>
	<path class="st0" d="M267,14.3v8.6c4.5-4,7.8-6.6,10-7.8c2.2-1.2,4.3-1.7,6.1-1.7c2,0,3.9,0.7,5.7,2.1c1.8,1.4,2.6,2.4,2.6,3.1
		c0,0.5-0.2,0.9-0.5,1.3c-0.3,0.3-0.8,0.5-1.3,0.5c-0.3,0-0.5,0-0.7-0.1c-0.2-0.1-0.5-0.4-1.1-0.9c-1-0.9-1.8-1.6-2.5-2
		c-0.7-0.4-1.4-0.5-2.1-0.5c-1.5,0-3.3,0.6-5.4,1.8c-2.1,1.2-5.7,4.1-10.9,8.8v18.7h15.2c0.8,0,1.4,0.2,1.8,0.5
		c0.4,0.3,0.5,0.7,0.5,1.2c0,0.5-0.2,0.9-0.5,1.2c-0.4,0.3-1,0.5-1.8,0.5h-26.8c-0.8,0-1.4-0.2-1.8-0.5c-0.4-0.3-0.5-0.7-0.5-1.2
		c0-0.5,0.2-0.8,0.5-1.2c0.3-0.3,0.9-0.5,1.8-0.5h8.3V17.7h-6.3c-0.8,0-1.4-0.2-1.8-0.5c-0.4-0.3-0.5-0.7-0.5-1.3
		c0-0.5,0.2-0.9,0.5-1.2c0.3-0.3,0.9-0.5,1.8-0.5H267z"/>
</g>
</svg>
