<?xml version="1.0" encoding="utf-8"?>
<!-- Generator: Adobe Illustrator 21.0.0, SVG Export Plug-In . SVG Version: 6.00 Build 0)  -->
<svg version="1.1" id="Слой_1" xmlns="http://www.w3.org/2000/svg" xmlns:xlink="http://www.w3.org/1999/xlink" x="0px" y="0px"
	 viewBox="0 0 284 89" style="enable-background:new 0 0 284 89;" xml:space="preserve">
<style type="text/css">
	.st0{fill:#FF0D54;}
</style>
<g>
	<path class="st0" d="M23.3,16.2h-9v-6c0-1.8-0.1-2.9-0.3-3.3c-0.2-0.4-0.6-0.7-1.3-0.7c-0.7,0-1.2,0.3-1.4,0.8
		c-0.2,0.5-0.3,1.7-0.3,3.4v16.2c0,1.7,0.1,2.8,0.3,3.3c0.2,0.5,0.7,0.8,1.4,0.8c0.7,0,1.1-0.3,1.3-0.8c0.2-0.5,0.3-1.7,0.3-3.6
		v-4.4h9v1.4c0,3.6-0.3,6.2-0.8,7.7c-0.5,1.5-1.6,2.8-3.4,4s-3.9,1.7-6.4,1.7c-2.6,0-4.8-0.5-6.6-1.4s-2.9-2.3-3.4-4
		s-0.8-4.3-0.8-7.7V13.3c0-2.5,0.1-4.4,0.3-5.6c0.2-1.3,0.7-2.5,1.5-3.6c0.9-1.2,2-2.1,3.5-2.7c1.5-0.7,3.2-1,5.2-1
		c2.7,0,4.9,0.5,6.6,1.5c1.7,1,2.9,2.3,3.4,3.9c0.5,1.5,0.8,3.9,0.8,7.2V16.2z"/>
	<path class="st0" d="M45.7,11.6h-8.4V9c0-1.2-0.1-2-0.3-2.3c-0.2-0.3-0.6-0.5-1.1-0.5c-0.5,0-1,0.2-1.2,0.7c-0.3,0.4-0.4,1.1-0.4,2
		c0,1.2,0.2,2,0.5,2.6c0.3,0.6,1.2,1.3,2.6,2.1c4,2.4,6.6,4.4,7.6,5.9c1,1.5,1.6,4,1.6,7.4c0,2.5-0.3,4.3-0.9,5.5
		c-0.6,1.2-1.7,2.2-3.4,3c-1.7,0.8-3.6,1.2-5.8,1.2c-2.4,0-4.5-0.5-6.2-1.4c-1.7-0.9-2.8-2.1-3.4-3.5c-0.5-1.4-0.8-3.4-0.8-6v-2.3
		h8.4v4.2c0,1.3,0.1,2.1,0.4,2.5c0.2,0.4,0.7,0.6,1.3,0.6s1-0.2,1.3-0.7c0.3-0.5,0.4-1.2,0.4-2.1c0-2-0.3-3.4-0.8-4
		c-0.6-0.6-2-1.7-4.2-3.2c-2.2-1.5-3.7-2.6-4.5-3.2c-0.7-0.7-1.3-1.6-1.8-2.8c-0.5-1.2-0.7-2.7-0.7-4.6c0-2.7,0.3-4.6,1-5.8
		c0.7-1.2,1.8-2.2,3.3-2.9c1.5-0.7,3.4-1,5.5-1c2.3,0,4.4,0.4,6,1.1c1.7,0.8,2.8,1.7,3.3,2.9c0.5,1.2,0.8,3.1,0.8,5.9V11.6z"/>
	<path class="st0" d="M68.4,11.6H60V9c0-1.2-0.1-2-0.3-2.3c-0.2-0.3-0.6-0.5-1.1-0.5c-0.5,0-1,0.2-1.2,0.7C57.1,7.3,57,8,57,8.9
		c0,1.2,0.2,2,0.5,2.6c0.3,0.6,1.2,1.3,2.6,2.1c4,2.4,6.6,4.4,7.6,5.9c1,1.5,1.6,4,1.6,7.4c0,2.5-0.3,4.3-0.9,5.5
		c-0.6,1.2-1.7,2.2-3.4,3c-1.7,0.8-3.6,1.2-5.8,1.2c-2.4,0-4.5-0.5-6.2-1.4c-1.7-0.9-2.8-2.1-3.4-3.5c-0.5-1.4-0.8-3.4-0.8-6v-2.3
		h8.4v4.2c0,1.3,0.1,2.1,0.4,2.5c0.2,0.4,0.7,0.6,1.3,0.6s1-0.2,1.3-0.7c0.3-0.5,0.4-1.2,0.4-2.1c0-2-0.3-3.4-0.8-4
		c-0.6-0.6-2-1.7-4.2-3.2c-2.2-1.5-3.7-2.6-4.5-3.2c-0.7-0.7-1.3-1.6-1.8-2.8c-0.5-1.2-0.7-2.7-0.7-4.6c0-2.7,0.3-4.6,1-5.8
		c0.7-1.2,1.8-2.2,3.3-2.9c1.5-0.7,3.4-1,5.5-1c2.3,0,4.4,0.4,6,1.1c1.7,0.8,2.8,1.7,3.3,2.9c0.5,1.2,0.8,3.1,0.8,5.9V11.6z"/>
	<path class="st0" d="M88.1,16.1c1.3,0.4,2.3,1.2,2.9,2.2c0.6,1,1,3.4,1,7.1c0,2.8-0.3,4.9-0.9,6.4c-0.6,1.5-1.7,2.7-3.3,3.5
		c-1.5,0.8-3.5,1.2-6,1.2c-2.8,0-4.9-0.5-6.5-1.4s-2.6-2.1-3.1-3.4c-0.5-1.3-0.7-3.7-0.7-7V22h8.7v5.7c0,1.5,0.1,2.5,0.3,2.9
		c0.2,0.4,0.6,0.6,1.2,0.6c0.7,0,1.1-0.3,1.3-0.8s0.3-1.9,0.3-4v-2.4c0-1.3-0.2-2.3-0.5-2.9c-0.3-0.6-0.7-1-1.3-1.2
		c-0.6-0.2-1.7-0.3-3.4-0.3v-5c2.1,0,3.3-0.1,3.8-0.2c0.5-0.2,0.8-0.5,1.1-1c0.2-0.5,0.3-1.4,0.3-2.5V8.7c0-1.2-0.1-2-0.4-2.4
		c-0.3-0.4-0.6-0.6-1.2-0.6c-0.6,0-1,0.2-1.2,0.6c-0.2,0.4-0.3,1.3-0.3,2.6v2.9h-8.7v-3c0-3.3,0.8-5.6,2.3-6.7
		c1.5-1.2,3.9-1.8,7.2-1.8c4.1,0,6.9,0.8,8.4,2.4c1.5,1.6,2.2,3.9,2.2,6.7c0,1.9-0.3,3.4-0.8,4.2C90.3,14.6,89.4,15.4,88.1,16.1z"/>
	<path class="st0" d="M118.7,1.1l5.2,34.8h-9.2l-0.5-6.3h-3.2l-0.5,6.3H101l4.6-34.8H118.7z M113.9,23.4c-0.5-3.9-0.9-8.8-1.4-14.6
		c-0.9,6.7-1.5,11.5-1.7,14.6H113.9z"/>
	<path class="st0" d="M134,7.3l-0.2,2.6c0.6-1,1.4-1.8,2.3-2.4c0.9-0.5,2-0.8,3.1-0.8c1.5,0,2.7,0.4,3.7,1.1
		c0.9,0.7,1.6,1.6,1.8,2.7c0.3,1.1,0.4,2.8,0.4,5.3v20h-8.7V16.1c0-2-0.1-3.2-0.2-3.6s-0.5-0.6-1.1-0.6c-0.6,0-1,0.2-1.2,0.7
		c-0.2,0.5-0.2,1.8-0.2,4v19.3h-8.7V7.3H134z"/>
	<path class="st0" d="M157.1,1.1v4.5h-8.9V1.1H157.1z M157.1,7.3v28.5h-8.9V7.3H157.1z"/>
	<path class="st0" d="M168.8,7.3l-0.2,2.7c0.7-1.1,1.5-1.9,2.4-2.4c0.9-0.5,2-0.8,3.2-0.8c2.3,0,4.1,1.1,5.5,3.2
		c0.7-1.1,1.6-1.9,2.5-2.4c0.9-0.5,1.9-0.8,3.1-0.8c1.5,0,2.7,0.4,3.7,1.1c1,0.7,1.6,1.6,1.9,2.6c0.3,1,0.4,2.7,0.4,5.1v20.3h-8.4
		V17.2c0-2.4-0.1-3.9-0.2-4.5c-0.2-0.6-0.5-0.9-1.1-0.9c-0.6,0-1,0.3-1.2,0.9c-0.2,0.6-0.3,2.1-0.3,4.5v18.6h-8.4V17.7
		c0-2.8-0.1-4.5-0.2-5c-0.1-0.6-0.5-0.8-1.1-0.8c-0.4,0-0.7,0.1-1,0.4c-0.3,0.3-0.4,0.7-0.5,1.1c0,0.4,0,1.3,0,2.7v19.8h-8.4V7.3
		H168.8z"/>
	<path class="st0" d="M201.9,18.4h-8.1v-1.9c0-2.2,0.3-3.9,0.8-5.1c0.5-1.2,1.5-2.3,3.1-3.2c1.5-0.9,3.5-1.4,6-1.4
		c2.9,0,5.1,0.5,6.6,1.6c1.5,1,2.4,2.3,2.7,3.8c0.3,1.5,0.5,4.6,0.5,9.3v14.3h-8.4v-2.5c-0.5,1-1.2,1.8-2.1,2.3s-1.8,0.8-3,0.8
		c-1.5,0-2.9-0.4-4.2-1.3s-1.9-2.7-1.9-5.6v-2.3c0-2.1,0.3-3.6,1-4.4c0.7-0.8,2.3-1.7,5-2.7c2.8-1.1,4.4-1.9,4.6-2.3
		c0.2-0.4,0.3-1.2,0.3-2.4c0-1.5-0.1-2.5-0.3-2.9c-0.2-0.5-0.6-0.7-1.1-0.7c-0.6,0-1,0.2-1.1,0.6c-0.1,0.4-0.2,1.4-0.2,3V18.4z
		 M204.7,22.3c-1.4,1-2.2,1.9-2.4,2.6c-0.2,0.7-0.3,1.7-0.3,3c0,1.5,0.1,2.4,0.3,2.9s0.6,0.6,1.1,0.6c0.5,0,0.9-0.2,1.1-0.5
		c0.2-0.3,0.2-1.2,0.2-2.7V22.3z"/>
	<path class="st0" d="M225.5,3.5V8h2.3v4.5h-2.3v15.3c0,1.9,0.1,2.9,0.3,3.1s1,0.3,2.4,0.3v4.6h-3.5c-2,0-3.4-0.1-4.2-0.2
		c-0.8-0.2-1.6-0.5-2.2-1.1c-0.6-0.6-1-1.3-1.2-2c-0.2-0.8-0.2-2.6-0.2-5.4V12.5h-1.9V8h1.9V3.5H225.5z"/>
	<path class="st0" d="M238.7,1.1v4.5h-8.9V1.1H238.7z M238.7,7.3v28.5h-8.9V7.3H238.7z"/>
	<path class="st0" d="M261.4,17.3v7c0,2.6-0.1,4.4-0.4,5.6c-0.3,1.2-0.8,2.3-1.7,3.4c-0.8,1-1.9,1.8-3.3,2.3
		c-1.3,0.5-2.8,0.7-4.6,0.7c-1.9,0-3.5-0.2-4.9-0.6s-2.4-1.1-3.1-1.9c-0.7-0.9-1.3-1.9-1.6-3.1c-0.3-1.2-0.5-3-0.5-5.4V18
		c0-2.6,0.3-4.7,0.9-6.2c0.6-1.5,1.6-2.7,3.1-3.6c1.5-0.9,3.4-1.4,5.7-1.4c1.9,0,3.6,0.3,5,0.9s2.5,1.3,3.2,2.3
		c0.8,0.9,1.3,1.9,1.6,2.9S261.4,15.3,261.4,17.3z M252.8,15.2c0-1.5-0.1-2.4-0.2-2.8c-0.2-0.4-0.5-0.6-1-0.6s-0.9,0.2-1,0.6
		c-0.2,0.4-0.3,1.3-0.3,2.8v12.9c0,1.3,0.1,2.2,0.3,2.6s0.5,0.6,1,0.6c0.5,0,0.9-0.2,1-0.6c0.2-0.4,0.2-1.2,0.2-2.4V15.2z"/>
	<path class="st0" d="M273.1,7.3L273,10c0.6-1,1.4-1.8,2.3-2.4c0.9-0.5,2-0.8,3.1-0.8c1.5,0,2.7,0.4,3.7,1.1
		c0.9,0.7,1.6,1.6,1.8,2.7c0.3,1.1,0.4,2.8,0.4,5.3v20h-8.7V16.1c0-2-0.1-3.2-0.2-3.6s-0.5-0.6-1.1-0.6c-0.6,0-1,0.2-1.2,0.7
		c-0.2,0.5-0.2,1.8-0.2,4v19.3h-8.7V7.3H273.1z"/>
	<path class="st0" d="M46.5,69h-9v-6c0-1.8-0.1-2.9-0.3-3.3C37,59.2,36.6,59,35.9,59c-0.7,0-1.2,0.3-1.4,0.8
		c-0.2,0.5-0.3,1.7-0.3,3.4v16.2c0,1.7,0.1,2.8,0.3,3.3c0.2,0.5,0.7,0.8,1.4,0.8c0.7,0,1.1-0.3,1.3-0.8c0.2-0.5,0.3-1.7,0.3-3.6
		v-4.4h9V76c0,3.6-0.3,6.2-0.8,7.7c-0.5,1.5-1.6,2.8-3.4,4s-3.9,1.7-6.4,1.7c-2.6,0-4.8-0.5-6.6-1.4c-1.7-1-2.9-2.3-3.4-4
		s-0.8-4.3-0.8-7.7V66.1c0-2.5,0.1-4.4,0.3-5.6c0.2-1.3,0.7-2.5,1.5-3.6c0.9-1.2,2-2.1,3.5-2.7c1.5-0.7,3.2-1,5.2-1
		c2.7,0,4.9,0.5,6.6,1.5c1.7,1,2.9,2.3,3.4,3.9c0.5,1.5,0.8,3.9,0.8,7.2V69z"/>
	<path class="st0" d="M58.2,53.9v7.8c0.7-0.7,1.6-1.2,2.4-1.6c0.9-0.3,1.8-0.5,2.8-0.5c1.5,0,2.8,0.4,3.9,1.2c1.1,0.8,1.7,1.7,2,2.7
		s0.4,2.9,0.4,5.5v19.7h-8.7V68.6c0-1.7-0.1-2.7-0.2-3.2c-0.2-0.5-0.5-0.7-1.1-0.7c-0.5,0-0.9,0.2-1.1,0.7c-0.2,0.5-0.3,1.5-0.3,2.9
		v20.3h-8.7V53.9H58.2z"/>
	<path class="st0" d="M92.2,74.9H81V81c0,1.3,0.1,2.1,0.3,2.5c0.2,0.4,0.5,0.6,1.1,0.6c0.7,0,1.1-0.2,1.3-0.7
		c0.2-0.5,0.3-1.5,0.3-2.9v-3.8h8.2v2.1c0,1.8-0.1,3.1-0.3,4.1s-0.7,2-1.6,3s-1.9,1.9-3.1,2.4c-1.3,0.5-2.8,0.8-4.7,0.8
		c-1.8,0-3.5-0.3-4.9-0.8c-1.4-0.5-2.5-1.3-3.3-2.2c-0.8-0.9-1.3-1.9-1.6-3.1c-0.3-1.1-0.5-2.7-0.5-4.8V70c0-2.5,0.3-4.5,1-5.9
		c0.7-1.4,1.8-2.5,3.3-3.3c1.5-0.8,3.3-1.1,5.3-1.1c2.4,0,4.4,0.5,6,1.4c1.6,0.9,2.7,2.1,3.3,3.7s1,3.7,1,6.4V74.9z M83.5,70.2v-2.1
		c0-1.5-0.1-2.4-0.2-2.9c-0.2-0.4-0.5-0.6-1-0.6c-0.6,0-1,0.2-1.1,0.5c-0.1,0.4-0.2,1.4-0.2,3v2.1H83.5z"/>
	<path class="st0" d="M102.8,71.2h-8.1v-1.9c0-2.2,0.3-3.9,0.8-5.1c0.5-1.2,1.5-2.3,3.1-3.2c1.5-0.9,3.5-1.4,6-1.4
		c2.9,0,5.1,0.5,6.6,1.6c1.5,1,2.4,2.3,2.7,3.8c0.3,1.5,0.5,4.6,0.5,9.3v14.3h-8.4v-2.5c-0.5,1-1.2,1.8-2.1,2.3s-1.8,0.8-3,0.8
		c-1.5,0-2.9-0.4-4.2-1.3c-1.3-0.9-1.9-2.7-1.9-5.6v-2.3c0-2.1,0.3-3.6,1-4.4c0.7-0.8,2.3-1.7,5-2.7c2.8-1.1,4.4-1.9,4.6-2.3
		c0.2-0.4,0.3-1.2,0.3-2.4c0-1.5-0.1-2.5-0.3-2.9c-0.2-0.5-0.6-0.7-1.1-0.7c-0.6,0-1,0.2-1.1,0.6c-0.1,0.4-0.2,1.4-0.2,3V71.2z
		 M105.6,75.1c-1.4,1-2.2,1.9-2.4,2.6c-0.2,0.7-0.3,1.7-0.3,3c0,1.5,0.1,2.4,0.3,2.9s0.6,0.6,1.1,0.6c0.5,0,0.9-0.2,1.1-0.5
		c0.2-0.3,0.2-1.2,0.2-2.7V75.1z"/>
	<path class="st0" d="M126.4,56.3v4.5h2.3v4.5h-2.3v15.3c0,1.9,0.1,2.9,0.3,3.1s1,0.3,2.4,0.3v4.6h-3.5c-2,0-3.4-0.1-4.2-0.2
		c-0.8-0.2-1.6-0.5-2.2-1.1c-0.6-0.6-1-1.3-1.2-2c-0.2-0.8-0.2-2.6-0.2-5.4V65.3h-1.9v-4.5h1.9v-4.5H126.4z"/>
	<path class="st0" d="M157.8,64.4h-8.4v-2.6c0-1.2-0.1-2-0.3-2.3c-0.2-0.3-0.6-0.5-1.1-0.5c-0.5,0-1,0.2-1.2,0.7
		c-0.3,0.4-0.4,1.1-0.4,2c0,1.2,0.2,2,0.5,2.6c0.3,0.6,1.2,1.3,2.6,2.1c4,2.4,6.6,4.4,7.6,5.9c1,1.5,1.6,4,1.6,7.4
		c0,2.5-0.3,4.3-0.9,5.5c-0.6,1.2-1.7,2.2-3.4,3c-1.7,0.8-3.6,1.2-5.8,1.2c-2.4,0-4.5-0.5-6.2-1.4c-1.7-0.9-2.8-2.1-3.4-3.5
		c-0.5-1.4-0.8-3.4-0.8-6v-2.3h8.4v4.2c0,1.3,0.1,2.1,0.4,2.5c0.2,0.4,0.7,0.6,1.3,0.6s1-0.2,1.3-0.7c0.3-0.5,0.4-1.2,0.4-2.1
		c0-2-0.3-3.4-0.8-4c-0.6-0.6-2-1.7-4.2-3.2c-2.2-1.5-3.7-2.6-4.5-3.2c-0.7-0.7-1.3-1.6-1.8-2.8c-0.5-1.2-0.7-2.7-0.7-4.6
		c0-2.7,0.3-4.6,1-5.8c0.7-1.2,1.8-2.2,3.3-2.9c1.5-0.7,3.4-1,5.5-1c2.3,0,4.4,0.4,6,1.1c1.7,0.8,2.8,1.7,3.3,2.9
		c0.5,1.2,0.8,3.1,0.8,5.9V64.4z"/>
	<path class="st0" d="M169.8,53.9v7.8c0.7-0.7,1.5-1.2,2.4-1.6c0.9-0.3,1.8-0.5,2.8-0.5c1.5,0,2.8,0.4,3.9,1.2
		c1.1,0.8,1.7,1.7,2,2.7s0.4,2.9,0.4,5.5v19.7h-8.7V68.6c0-1.7-0.1-2.7-0.2-3.2c-0.2-0.5-0.5-0.7-1.1-0.7c-0.5,0-0.9,0.2-1.1,0.7
		c-0.2,0.5-0.3,1.5-0.3,2.9v20.3h-8.7V53.9H169.8z"/>
	<path class="st0" d="M203.9,74.9h-11.2V81c0,1.3,0.1,2.1,0.3,2.5c0.2,0.4,0.5,0.6,1.1,0.6c0.7,0,1.1-0.2,1.3-0.7
		c0.2-0.5,0.3-1.5,0.3-2.9v-3.8h8.2v2.1c0,1.8-0.1,3.1-0.3,4.1c-0.2,0.9-0.7,2-1.6,3s-1.9,1.9-3.1,2.4c-1.3,0.5-2.8,0.8-4.7,0.8
		c-1.8,0-3.5-0.3-4.9-0.8c-1.4-0.5-2.5-1.3-3.3-2.2c-0.8-0.9-1.3-1.9-1.6-3.1c-0.3-1.1-0.5-2.7-0.5-4.8V70c0-2.5,0.3-4.5,1-5.9
		c0.7-1.4,1.8-2.5,3.3-3.3c1.5-0.8,3.3-1.1,5.3-1.1c2.4,0,4.4,0.5,6,1.4c1.6,0.9,2.7,2.1,3.3,3.7c0.6,1.5,1,3.7,1,6.4V74.9z
		 M195.2,70.2v-2.1c0-1.5-0.1-2.4-0.2-2.9c-0.2-0.4-0.5-0.6-1-0.6c-0.6,0-1,0.2-1.1,0.5c-0.1,0.4-0.2,1.4-0.2,3v2.1H195.2z"/>
	<path class="st0" d="M226.3,74.9h-11.2V81c0,1.3,0.1,2.1,0.3,2.5c0.2,0.4,0.5,0.6,1.1,0.6c0.7,0,1.1-0.2,1.3-0.7
		c0.2-0.5,0.3-1.5,0.3-2.9v-3.8h8.2v2.1c0,1.8-0.1,3.1-0.3,4.1c-0.2,0.9-0.7,2-1.6,3s-1.9,1.9-3.1,2.4c-1.3,0.5-2.8,0.8-4.7,0.8
		c-1.8,0-3.5-0.3-4.9-0.8c-1.4-0.5-2.5-1.3-3.3-2.2c-0.8-0.9-1.3-1.9-1.6-3.1c-0.3-1.1-0.5-2.7-0.5-4.8V70c0-2.5,0.3-4.5,1-5.9
		c0.7-1.4,1.8-2.5,3.3-3.3c1.5-0.8,3.3-1.1,5.3-1.1c2.4,0,4.4,0.5,6,1.4c1.6,0.9,2.7,2.1,3.3,3.7c0.6,1.5,1,3.7,1,6.4V74.9z
		 M217.6,70.2v-2.1c0-1.5-0.1-2.4-0.2-2.9c-0.2-0.4-0.5-0.6-1-0.6c-0.6,0-1,0.2-1.1,0.5c-0.1,0.4-0.2,1.4-0.2,3v2.1H217.6z"/>
	<path class="st0" d="M238.3,56.3v4.5h2.3v4.5h-2.3v15.3c0,1.9,0.1,2.9,0.3,3.1s1,0.3,2.4,0.3v4.6h-3.5c-2,0-3.4-0.1-4.2-0.2
		c-0.8-0.2-1.6-0.5-2.2-1.1c-0.6-0.6-1-1.3-1.2-2c-0.2-0.8-0.2-2.6-0.2-5.4V65.3h-1.9v-4.5h1.9v-4.5H238.3z"/>
</g>
</svg>
