<?xml version="1.0" encoding="utf-8"?>
<!-- Generator: Adobe Illustrator 21.0.0, SVG Export Plug-In . SVG Version: 6.00 Build 0)  -->
<svg version="1.1" id="Слой_1" xmlns="http://www.w3.org/2000/svg" xmlns:xlink="http://www.w3.org/1999/xlink" x="0px" y="0px"
	 viewBox="0 0 287 106" style="enable-background:new 0 0 287 106;" xml:space="preserve">
<style type="text/css">
	.st0{fill:#405261;}
</style>
<g>
	<path class="st0" d="M120.8,20.7h-10.7v-7.1c0-2.1-0.1-3.4-0.3-3.9s-0.7-0.8-1.5-0.8c-0.9,0-1.4,0.3-1.7,0.9
		c-0.2,0.6-0.4,2-0.4,4.1V33c0,2,0.1,3.3,0.4,3.9c0.2,0.6,0.8,0.9,1.6,0.9c0.8,0,1.3-0.3,1.6-0.9c0.2-0.6,0.4-2,0.4-4.3v-5.2h10.7
		V29c0,4.3-0.3,7.3-0.9,9.1c-0.6,1.8-1.9,3.3-4,4.7c-2.1,1.3-4.6,2-7.6,2c-3.1,0-5.7-0.6-7.7-1.7s-3.4-2.7-4-4.7s-1-5-1-9.1v-12
		c0-3,0.1-5.2,0.3-6.7c0.2-1.5,0.8-2.9,1.8-4.3c1-1.4,2.4-2.5,4.2-3.2c1.8-0.8,3.8-1.2,6.2-1.2c3.1,0,5.7,0.6,7.8,1.8
		c2,1.2,3.4,2.7,4,4.6c0.6,1.8,1,4.6,1,8.5V20.7z"/>
	<path class="st0" d="M147.3,15.3h-9.9v-3c0-1.4-0.1-2.3-0.4-2.7c-0.3-0.4-0.7-0.6-1.3-0.6c-0.6,0-1.1,0.3-1.5,0.8
		c-0.3,0.5-0.5,1.3-0.5,2.4c0,1.4,0.2,2.4,0.6,3.1c0.4,0.7,1.4,1.5,3,2.5c4.8,2.8,7.8,5.1,9,7c1.2,1.8,1.9,4.7,1.9,8.8
		c0,2.9-0.3,5.1-1,6.5c-0.7,1.4-2,2.6-4,3.5s-4.2,1.4-6.9,1.4c-2.9,0-5.3-0.5-7.3-1.6s-3.3-2.5-4-4.1s-0.9-4.1-0.9-7.1v-2.7h9.9v5
		c0,1.5,0.1,2.5,0.4,3c0.3,0.4,0.8,0.7,1.5,0.7s1.2-0.3,1.6-0.8s0.5-1.4,0.5-2.5c0-2.4-0.3-4-1-4.7c-0.7-0.7-2.3-2-5-3.7
		c-2.7-1.8-4.4-3-5.3-3.8c-0.9-0.8-1.6-1.9-2.1-3.3c-0.6-1.4-0.9-3.2-0.9-5.4c0-3.1,0.4-5.5,1.2-6.9c0.8-1.5,2.1-2.6,3.9-3.4
		c1.8-0.8,4-1.2,6.5-1.2c2.8,0,5.1,0.4,7.1,1.3c2,0.9,3.3,2,3.9,3.4c0.6,1.4,1,3.7,1,6.9V15.3z"/>
	<path class="st0" d="M174.2,15.3h-9.9v-3c0-1.4-0.1-2.3-0.4-2.7c-0.3-0.4-0.7-0.6-1.3-0.6c-0.6,0-1.1,0.3-1.5,0.8
		c-0.3,0.5-0.5,1.3-0.5,2.4c0,1.4,0.2,2.4,0.6,3.1c0.4,0.7,1.4,1.5,3,2.5c4.8,2.8,7.8,5.1,9,7c1.2,1.8,1.9,4.7,1.9,8.8
		c0,2.9-0.3,5.1-1,6.5c-0.7,1.4-2,2.6-4,3.5s-4.2,1.4-6.9,1.4c-2.9,0-5.3-0.5-7.3-1.6s-3.3-2.5-4-4.1S151,35,151,31.9v-2.7h9.9v5
		c0,1.5,0.1,2.5,0.4,3c0.3,0.4,0.8,0.7,1.5,0.7s1.2-0.3,1.6-0.8s0.5-1.4,0.5-2.5c0-2.4-0.3-4-1-4.7c-0.7-0.7-2.3-2-5-3.7
		c-2.7-1.8-4.4-3-5.3-3.8c-0.9-0.8-1.6-1.9-2.1-3.3c-0.6-1.4-0.9-3.2-0.9-5.4c0-3.1,0.4-5.5,1.2-6.9c0.8-1.5,2.1-2.6,3.9-3.4
		c1.8-0.8,4-1.2,6.5-1.2c2.8,0,5.1,0.4,7.1,1.3c2,0.9,3.3,2,3.9,3.4c0.6,1.4,1,3.7,1,6.9V15.3z"/>
	<path class="st0" d="M22.7,65.2l6.1,41.1H17.9l-0.6-7.4h-3.8l-0.6,7.4H1.8l5.5-41.1H22.7z M17,91.6c-0.5-4.7-1.1-10.4-1.6-17.3
		c-1.1,7.9-1.8,13.6-2.1,17.3H17z"/>
	<path class="st0" d="M40.8,72.6l-0.2,3.1c0.7-1.2,1.7-2.2,2.7-2.8c1.1-0.6,2.3-0.9,3.7-0.9c1.8,0,3.2,0.4,4.3,1.2
		c1.1,0.8,1.8,1.9,2.2,3.1c0.3,1.3,0.5,3.4,0.5,6.3v23.6H43.7V83c0-2.3-0.1-3.7-0.2-4.2S42.9,78,42.2,78c-0.7,0-1.2,0.3-1.4,0.9
		c-0.2,0.6-0.3,2.1-0.3,4.7v22.8H30.3V72.6H40.8z"/>
	<path class="st0" d="M68.1,65.2v5.4H57.5v-5.4H68.1z M68.1,72.6v33.7H57.5V72.6H68.1z"/>
	<path class="st0" d="M81.9,72.6l-0.2,3.2c0.8-1.3,1.7-2.2,2.8-2.9c1.1-0.6,2.4-1,3.8-1c2.7,0,4.9,1.3,6.5,3.8
		c0.9-1.3,1.8-2.2,2.9-2.9c1.1-0.6,2.3-1,3.6-1c1.7,0,3.2,0.4,4.3,1.3c1.1,0.8,1.9,1.9,2.2,3.1c0.3,1.2,0.5,3.2,0.5,6v23.9h-10v-22
		c0-2.9-0.1-4.7-0.3-5.3c-0.2-0.7-0.6-1-1.4-1c-0.7,0-1.2,0.3-1.4,1c-0.2,0.7-0.3,2.5-0.3,5.4v22H85V84.9c0-3.3-0.1-5.3-0.2-5.9
		c-0.2-0.7-0.6-1-1.3-1c-0.5,0-0.8,0.2-1.2,0.5c-0.3,0.3-0.5,0.8-0.5,1.3c0,0.5-0.1,1.6-0.1,3.2v23.4h-10V72.6H81.9z"/>
	<path class="st0" d="M121,85.7h-9.6v-2.3c0-2.6,0.3-4.6,0.9-6c0.6-1.4,1.8-2.7,3.6-3.7c1.8-1.1,4.2-1.6,7.1-1.6
		c3.5,0,6.1,0.6,7.8,1.8c1.8,1.2,2.8,2.7,3.2,4.5c0.4,1.8,0.5,5.5,0.5,11v16.9h-10v-3c-0.6,1.2-1.4,2.1-2.4,2.7
		c-1,0.6-2.2,0.9-3.5,0.9c-1.8,0-3.4-0.5-4.9-1.5s-2.2-3.2-2.2-6.6V96c0-2.5,0.4-4.2,1.2-5.2s2.8-2,5.9-3.2c3.4-1.3,5.2-2.2,5.4-2.7
		s0.4-1.4,0.4-2.8c0-1.8-0.1-2.9-0.4-3.4s-0.7-0.8-1.3-0.8c-0.7,0-1.1,0.2-1.3,0.7c-0.2,0.4-0.3,1.6-0.3,3.5V85.7z M124.3,90.3
		c-1.6,1.2-2.6,2.2-2.9,3s-0.4,2-0.4,3.5c0,1.7,0.1,2.9,0.3,3.4s0.7,0.8,1.4,0.8c0.6,0,1.1-0.2,1.3-0.6s0.3-1.4,0.3-3.1V90.3z"/>
	<path class="st0" d="M148.9,68.1v5.3h2.8v5.3h-2.8v18c0,2.2,0.1,3.5,0.3,3.7s1.2,0.4,2.9,0.4v5.4h-4.1c-2.3,0-4-0.1-5-0.3
		s-1.9-0.6-2.6-1.3s-1.2-1.5-1.4-2.4s-0.3-3-0.3-6.4V78.8h-2.2v-5.3h2.2v-5.3H148.9z"/>
	<path class="st0" d="M164.5,65.2v5.4h-10.6v-5.4H164.5z M164.5,72.6v33.7h-10.6V72.6H164.5z"/>
	<path class="st0" d="M191.3,84.5v8.3c0,3-0.2,5.3-0.5,6.7s-1,2.7-2,4s-2.3,2.1-3.8,2.7s-3.4,0.9-5.4,0.9c-2.3,0-4.2-0.3-5.8-0.7
		s-2.8-1.3-3.7-2.3s-1.5-2.2-1.9-3.7s-0.6-3.6-0.6-6.4v-8.6c0-3.1,0.3-5.6,1-7.3c0.7-1.8,1.9-3.2,3.7-4.2s4-1.6,6.8-1.6
		c2.3,0,4.3,0.3,5.9,1s2.9,1.6,3.8,2.7c0.9,1.1,1.5,2.2,1.8,3.4S191.3,82.1,191.3,84.5z M181.1,81.9c0-1.7-0.1-2.8-0.3-3.3
		c-0.2-0.4-0.6-0.7-1.2-0.7s-1,0.2-1.2,0.7c-0.2,0.4-0.3,1.5-0.3,3.3v15.2c0,1.6,0.1,2.6,0.3,3.1s0.6,0.7,1.2,0.7
		c0.6,0,1-0.2,1.2-0.7c0.2-0.4,0.3-1.4,0.3-2.8V81.9z"/>
	<path class="st0" d="M205.2,72.6l-0.2,3.1c0.7-1.2,1.7-2.2,2.7-2.8c1.1-0.6,2.3-0.9,3.7-0.9c1.8,0,3.2,0.4,4.3,1.2
		c1.1,0.8,1.8,1.9,2.2,3.1c0.3,1.3,0.5,3.4,0.5,6.3v23.6h-10.3V83c0-2.3-0.1-3.7-0.2-4.2s-0.6-0.8-1.3-0.8c-0.7,0-1.2,0.3-1.4,0.9
		S205,81,205,83.5v22.8h-10.3V72.6H205.2z"/>
	<path class="st0" d="M256.9,65.2l-6.1,18.6l6.7,22.5h-11l-4.3-17.6v17.6h-10.7V65.2h10.7v16l4.8-16H256.9z"/>
	<path class="st0" d="M269.5,65.2v5.4H259v-5.4H269.5z M269.5,72.6v33.7H259V72.6H269.5z"/>
	<path class="st0" d="M284,68.1v5.3h2.8v5.3H284v18c0,2.2,0.1,3.5,0.3,3.7s1.2,0.4,2.9,0.4v5.4h-4.1c-2.3,0-4-0.1-5-0.3
		s-1.9-0.6-2.6-1.3s-1.2-1.5-1.4-2.4s-0.3-3-0.3-6.4V78.8h-2.2v-5.3h2.2v-5.3H284z"/>
</g>
</svg>
