<?xml version="1.0" encoding="utf-8"?>
<!-- Generator: Adobe Illustrator 21.0.0, SVG Export Plug-In . SVG Version: 6.00 Build 0)  -->
<svg version="1.1" id="Слой_1" xmlns="http://www.w3.org/2000/svg" xmlns:xlink="http://www.w3.org/1999/xlink" x="0px" y="0px"
	 viewBox="0 0 224 73" style="enable-background:new 0 0 224 73;" xml:space="preserve">
<style type="text/css">
	.st0{fill:#FFBA6F;}
</style>
<g>
	<path class="st0" d="M8.3,59.9c-0.6,0-1.1-0.1-1.5-0.3c-0.5-0.2-0.8-0.5-1.1-0.9c-0.3-0.4-0.6-0.8-0.7-1.3c-0.2-0.5-0.3-1-0.3-1.6
		c0-0.4,0-0.8,0.1-1.3c0.1-0.5,0.2-1,0.4-1.7c0.1-0.3,0.2-0.8,0.3-1.4c0.1-0.6,0.3-1.3,0.4-2s0.3-1.6,0.4-2.4
		c0.2-0.9,0.3-1.7,0.4-2.5c0.1-0.8,0.2-1.6,0.3-2.3s0.1-1.3,0.1-1.7c0-0.3,0-0.5,0-0.6c0-0.3-0.3-0.6-0.7-0.7
		c-0.5-0.1-0.9-0.3-1.5-0.4c-0.5-0.2-1-0.4-1.4-0.7c-0.4-0.3-0.6-0.9-0.6-1.6c0-0.6,0.1-1.2,0.4-1.8s0.7-0.9,1.1-1.2
		C5,33.2,5.6,33,6.2,33c0.7,0,1.3-0.1,2-0.2c0.4,0,0.6-0.3,0.8-0.7c0.1-0.4,0.3-0.8,0.4-1.1c0.3-1.1,0.6-2.2,0.9-3.4
		c0.3-1.2,0.7-2.5,1.1-3.8c0.4-1.3,0.9-2.5,1.4-3.8c0.5-1.2,1.1-2.4,1.8-3.4c1-1.4,2.2-2.7,3.3-4c1.2-1.2,2.5-2.3,3.8-3.2
		C23,8.5,24.5,7.8,26,7.3c1.5-0.5,3.1-0.8,4.8-0.8c2.1,0,3.7,0.3,5,1c1.3,0.7,2.3,1.7,3.2,3.1c0.2,0.3,0.3,0.7,0.4,1
		c0.1,0.3,0.1,0.7,0.1,1c0,0.6-0.1,1.2-0.3,1.8c-0.2,0.5-0.4,1-0.7,1.4c-0.3,0.4-0.7,0.7-1.1,1c-0.4,0.2-0.8,0.3-1.3,0.3
		c-0.6,0-1.1-0.1-1.5-0.4c-0.3-0.3-0.6-0.6-0.8-0.9c-0.2-0.4-0.4-0.8-0.5-1.2c-0.1-0.5-0.3-0.9-0.4-1.2c-0.2-0.4-0.4-0.7-0.6-0.9
		c-0.3-0.3-0.6-0.4-1.1-0.4c-0.5,0-1,0.1-1.6,0.2c-0.6,0.1-1.2,0.3-1.7,0.6c-1.4,0.7-2.7,1.6-3.9,2.5c-1.2,0.9-2.3,2.1-3.3,3.5
		c-1,1.4-2,3.1-2.8,5.2c-0.9,2-1.7,4.5-2.4,7.5c0,0,0,0.1-0.1,0.2c0,0.1,0,0.1,0,0.1c0,0,0.1,0.1,0.3,0.1c0.7,0,1.4,0,2-0.1
		s1.3-0.2,1.9-0.3c0.6-0.1,1.3-0.2,1.9-0.3c0.6-0.1,1.3-0.1,2-0.1c0.5,0,1,0,1.5,0.1c0.5,0,0.9,0.1,1.2,0.3c0.3,0.2,0.6,0.4,0.8,0.6
		s0.3,0.6,0.3,1.1c0,0.3,0,0.6-0.1,1c-0.1,0.4-0.2,0.8-0.4,1.2c-0.2,0.4-0.4,0.7-0.7,1c-0.3,0.3-0.6,0.5-1,0.6
		c-0.7,0.1-1.4,0.2-2.1,0.3c-0.7,0.1-1.5,0.2-2.4,0.3c-0.9,0.1-1.8,0.3-2.9,0.5c-1.1,0.2-2.3,0.5-3.6,0.8c-0.4,1.6-0.7,3.1-1,4.7
		s-0.4,3.1-0.6,4.6c-0.2,1.5-0.3,3.1-0.5,4.6c-0.2,1.5-0.5,3.1-0.8,4.6c-0.1,0.3-0.2,0.6-0.4,0.9c-0.2,0.3-0.4,0.6-0.6,0.8
		c-0.2,0.2-0.5,0.4-0.8,0.6C9,59.8,8.7,59.9,8.3,59.9z"/>
	<path class="st0" d="M46.8,55.2c0-0.7,0.1-1.5,0.2-2.4c0.2-0.9,0.2-2.1,0.2-3.5c-0.8,0.6-1.6,1.2-2.5,2c-0.9,0.8-1.9,1.5-2.9,2.2
		c-1,0.7-2,1.3-3,1.8c-1,0.5-1.9,0.7-2.8,0.7c-0.7,0-1.4-0.1-2-0.3s-1.2-0.5-1.6-0.8c-1.2-1-2.1-1.9-2.7-2.9s-0.8-2.1-0.8-3.4
		c0-0.6,0.1-1.2,0.2-1.8c0.1-0.6,0.3-1.3,0.5-2.1c0.9-3.7,2.4-7,4.5-10.1c2.1-3.1,4.8-5.8,8-8c1.2-0.9,2.4-1.4,3.7-1.6
		c1.2-0.2,2.4-0.4,3.6-0.4c0.5,0,1.1,0,1.8,0.1c0.7,0.1,1.3,0.1,1.8,0.2c0.5-0.1,1-0.2,1.3-0.2c0.3,0,0.7-0.1,1.1-0.1
		c0.7,0,1.3,0.1,1.7,0.3c0.5,0.2,0.8,0.4,1.1,0.7c0.3,0.3,0.5,0.7,0.6,1.1c0.1,0.4,0.2,0.8,0.2,1.3c0,0.6-0.1,1.2-0.3,1.7
		c-0.2,0.5-0.4,1.1-0.6,1.6l-4.6,18.3c-0.1,1-0.2,1.9-0.2,2.7s-0.2,1.6-0.4,2.3c-0.1,0.2-0.2,0.5-0.3,0.8c-0.1,0.3-0.3,0.6-0.5,0.9
		c-0.2,0.3-0.5,0.5-0.9,0.7s-0.8,0.3-1.4,0.3c-0.7,0-1.3,0-1.7-0.1c-0.4-0.1-0.8-0.2-1-0.4c-0.2-0.2-0.4-0.4-0.5-0.6
		C46.8,55.8,46.8,55.5,46.8,55.2z M35.2,44.7c-0.1,0.3-0.2,0.8-0.3,1.4c-0.1,0.6-0.2,1.2-0.2,1.8c0,0.6,0.1,1.2,0.3,1.7
		c0.2,0.5,0.6,0.7,1.2,0.7c1,0,1.9-0.2,2.7-0.6c0.8-0.4,1.6-0.9,2.4-1.5c1-0.8,2-1.7,3-2.7c1-1,2-2.1,2.9-3.2
		c0.9-1.1,1.7-2.2,2.4-3.4c0.7-1.2,1.2-2.3,1.5-3.5c0.2-0.7,0.3-1.4,0.5-2.3c0.1-0.9,0.2-1.7,0.2-2.4c0-0.3-0.1-0.6-0.2-0.9
		s-0.4-0.4-0.8-0.4c-1.1,0-2.3,0.2-3.4,0.7c-1.1,0.4-2.2,1-3.3,1.8c-1.1,0.7-2.1,1.6-3,2.6c-1,1-1.8,2.1-2.6,3.2
		c-0.8,1.1-1.5,2.3-2,3.5C36,42.4,35.5,43.6,35.2,44.7z"/>
	<path class="st0" d="M66.3,45.3c0.5-1.9,1-3.9,1.6-6.1c0.6-2.2,1.2-4.5,1.9-6.8c0.6-2.3,1.3-4.6,1.9-6.8c0.6-2.3,1.2-4.4,1.8-6.4
		c0.5-2,1-3.8,1.4-5.4c0.4-1.6,0.6-2.9,0.8-3.9L75.9,7c0.1-0.2,0.1-0.4,0.2-0.7c0.1-0.3,0.2-0.5,0.4-0.7c0.2-0.2,0.4-0.4,0.6-0.6
		c0.3-0.2,0.6-0.2,1-0.2c0.7,0,1.3,0.1,1.8,0.4c0.5,0.3,0.9,0.6,1.2,1c0.3,0.4,0.5,0.9,0.6,1.5c0.1,0.6,0.2,1.1,0.2,1.7
		c0,0.6,0,1.2-0.1,1.8c-0.1,0.6-0.2,1.2-0.3,1.6c-0.8,3.2-1.6,6.4-2.6,9.6c-1,3.2-1.9,6.5-2.7,9.7c0.9-0.9,1.9-1.7,2.9-2.4
		s2.1-1.5,3.3-2c1.1-0.6,2.3-1.1,3.5-1.4c1.2-0.3,2.4-0.5,3.6-0.5c1.3,0,2.4,0.2,3.3,0.6c0.9,0.4,1.7,0.9,2.3,1.5
		c0.6,0.6,1,1.4,1.3,2.3c0.3,0.9,0.4,1.8,0.4,2.8c0,0.5,0,1-0.1,1.5c-0.1,0.5-0.1,1-0.3,1.5c-0.6,2.4-1.5,4.6-2.5,6.4
		c-1.1,1.9-2.3,3.6-3.7,5.1c-1.4,1.5-2.9,2.8-4.5,4c-1.6,1.1-3.3,2.2-4.9,3.1c-1.1,0.6-2.1,1-3.1,1.3c-1,0.3-2,0.5-3,0.5
		c-0.9,0-1.7-0.1-2.2-0.3c-0.5-0.2-0.9-0.5-1.3-0.9c-0.1,0.2-0.3,0.5-0.4,0.7c-0.2,0.3-0.4,0.5-0.6,0.7c-0.2,0.2-0.5,0.4-0.9,0.5
		c-0.3,0.1-0.7,0.2-1.1,0.2c-1.3,0-2.3-0.3-2.8-1c-0.6-0.7-0.8-1.5-0.8-2.7c0-0.4,0-0.8,0.1-1.2s0.1-0.8,0.3-1.2L66.3,45.3z
		 M88.3,31.2c-1.1,0-2.3,0.3-3.6,0.8c-1.3,0.6-2.6,1.2-3.9,2.1c-1.3,0.8-2.5,1.7-3.7,2.6c-1.2,0.9-2.3,1.8-3.2,2.5
		c-0.3,0.9-0.6,1.9-0.8,2.7c-0.3,0.9-0.5,1.8-0.8,2.7c-0.3,0.9-0.5,1.8-0.7,2.8c-0.2,0.9-0.4,2-0.6,3l-0.2,1.4l0.2,0.6
		c0.5-0.3,0.9-0.5,1.3-0.6s0.8-0.3,1.2-0.4c0.4-0.1,0.8-0.2,1.2-0.3c0.4-0.1,0.9-0.3,1.4-0.5c3.6-1.5,6.7-3.4,9.1-5.9
		c2.5-2.4,4.1-5.5,5-9c0.1-0.5,0.2-1,0.3-1.4c0.1-0.4,0.1-0.8,0.1-1.1c0-0.7-0.2-1.2-0.6-1.6C89.8,31.4,89.2,31.2,88.3,31.2z"/>
	<path class="st0" d="M103,53.1c0.3-1.6,0.6-3.4,1-5.3c0.4-1.9,0.8-3.9,1.2-5.9c0.4-2,0.8-3.9,1.2-5.9c0.4-1.9,0.7-3.7,1-5.3
		c0-0.2,0-0.4,0-0.6c0-0.2,0-0.4,0-0.6c0-0.7,0-1.4,0.1-2.1c0.1-0.7,0.2-1.4,0.4-2c0.3-0.9,0.5-1.5,0.8-1.8c0.3-0.3,0.8-0.5,1.5-0.5
		c0.7,0,1.2,0.1,1.6,0.4c0.4,0.3,0.7,0.6,1,1.1c0.2,0.4,0.4,0.9,0.5,1.5c0.1,0.6,0.1,1.2,0.1,1.8c0,0.3,0,0.7,0,1.1
		c0,0.4,0,0.7,0,0.9c0.6-0.7,1.3-1.4,2.1-2.1c0.7-0.7,1.5-1.3,2.3-1.9c0.8-0.6,1.7-1,2.6-1.4c0.9-0.4,1.9-0.6,2.9-0.6
		c0.4,0,0.8,0,1.2,0.1c0.4,0.1,0.8,0.2,1.2,0.3c0.5,0.1,0.9,0.3,1.4,0.5c0.5,0.2,1,0.5,1.4,0.8c0.8,0.6,1.4,1.3,1.9,2.2
		c0.5,0.9,0.8,1.8,0.8,2.7c0,0.3-0.1,0.7-0.2,1.1s-0.3,0.8-0.6,1.1c-0.2,0.3-0.5,0.6-0.8,0.8c-0.3,0.2-0.7,0.3-1.1,0.3
		c-0.4,0-0.9-0.1-1.4-0.3c-0.6-0.2-1-0.5-1.4-0.8c-0.2-0.1-0.3-0.3-0.5-0.6c-0.2-0.3-0.3-0.5-0.5-0.8c-0.2-0.3-0.3-0.5-0.4-0.7
		c-0.1-0.2-0.2-0.4-0.3-0.4c-0.1,0-0.2,0-0.4-0.1c-0.1,0-0.3,0-0.4,0c-1.2,0-2.3,0.3-3.4,0.9c-1.1,0.6-2.1,1.3-3,2.2
		c-0.9,0.9-1.8,1.8-2.5,2.8s-1.5,1.9-2,2.7c-0.5,1.9-1,3.9-1.5,6c-0.6,2.1-1.1,4.3-1.7,6.6v0.9c0,0.7,0,1.4-0.1,2.1
		c0,0.7-0.2,1.4-0.4,1.9c-0.3,0.3-0.6,0.6-1.1,0.9c-0.5,0.2-1,0.4-1.6,0.4c-1,0-1.7-0.3-2.2-1c-0.5-0.6-0.7-1.4-0.7-2.2
		C102.8,53.9,102.8,53.5,103,53.1z"/>
	<path class="st0" d="M132.4,50.3c0.3-1.3,0.8-2.9,1.2-4.7c0.5-1.8,1-3.7,1.5-5.7c0.5-2,1.1-4,1.6-6.1s1.1-4.1,1.6-6.1
		c0-0.1,0.1-0.2,0.2-0.5s0.3-0.4,0.6-0.7c0.3-0.2,0.6-0.4,1-0.6c0.4-0.2,0.9-0.2,1.4-0.2c0.4,0,0.8,0,1.1,0.1c0.4,0.1,0.7,0.2,1,0.4
		c0.3,0.2,0.5,0.4,0.7,0.6c0.2,0.3,0.3,0.6,0.3,0.9c0,0.1,0,0.1,0,0.2c0,0.1,0,0.2,0,0.2l-1,3.7c-1.1,4.1-2.2,8.2-3.3,12.4
		c-1.1,4.1-2.2,8.3-3.3,12.4c0,0.1-0.1,0.3-0.2,0.5c-0.1,0.2-0.2,0.4-0.4,0.6c-0.2,0.2-0.4,0.4-0.6,0.5c-0.2,0.1-0.5,0.2-0.8,0.2
		c-0.6,0-1.1-0.1-1.6-0.4c-0.5-0.2-0.9-0.5-1.2-0.9c-0.3-0.4-0.6-0.8-0.7-1.2c-0.2-0.4-0.2-0.9-0.2-1.2c0-0.1,0-0.2,0-0.3
		c0-0.1,0-0.2,0.1-0.3L132.4,50.3z M141.5,14.4c0.1-0.5,0.3-1.1,0.6-1.8c0.3-0.7,0.8-1.3,1.6-1.9c0.4-0.2,0.8-0.4,1.4-0.6
		c0.5-0.2,0.9-0.3,1.1-0.3c0.2,0,0.5,0.1,0.7,0.2c0.2,0.2,0.5,0.3,0.6,0.5c0.2,0.2,0.5,0.5,0.7,0.8c0.6,0,1,0.3,1.1,0.6
		c0.2,0.4,0.3,0.8,0.3,1.3c0,0.4,0,0.7-0.1,1c-0.1,0.3-0.1,0.5-0.2,0.7c-0.1,0.5-0.4,0.9-0.8,1.3c-0.4,0.4-0.8,0.8-1.4,1
		c-0.5,0.3-1,0.5-1.6,0.7c-0.6,0.2-1,0.2-1.5,0.2c-0.5,0-0.9-0.1-1.2-0.3c-0.3-0.2-0.7-0.6-1.1-1.2c-0.3-0.3-0.4-0.6-0.4-0.8
		c0-0.2-0.1-0.4-0.1-0.5c0-0.3,0-0.5,0.1-0.7C141.4,14.8,141.4,14.6,141.5,14.4z"/>
	<path class="st0" d="M150.6,43.1c0.4-1.8,1.1-3.6,2-5.6c0.9-1.9,1.9-3.8,3.1-5.6c1.2-1.8,2.6-3.5,4.2-5c1.6-1.5,3.3-2.8,5.1-3.8
		c0.6-0.3,1.3-0.6,2-0.7c0.7-0.2,1.4-0.2,2.2-0.2c0.8,0,1.5,0.1,2.1,0.2c0.7,0.1,1.2,0.4,1.7,0.7c0.5,0.3,0.8,0.7,1.1,1.2
		c0.3,0.5,0.4,1.1,0.4,1.9c0,0.6-0.1,1.1-0.2,1.7c-0.2,0.6-0.4,1.1-0.7,1.5c-0.3,0.5-0.7,0.8-1.2,1.1s-1.1,0.4-1.7,0.4
		c-0.5,0-1-0.1-1.4-0.3c-0.4-0.2-0.8-0.4-1.2-0.6c-0.2-0.1-0.4-0.3-0.6-0.4c-0.2-0.1-0.4-0.2-0.7-0.3c-0.9,0.4-1.8,1-2.6,1.6
		s-1.6,1.4-2.3,2.3s-1.4,1.7-1.9,2.7c-0.6,0.9-1.1,1.9-1.6,2.8c-0.5,0.9-0.9,1.9-1.2,2.8c-0.3,0.9-0.6,1.8-0.8,2.5
		c-0.2,0.6-0.3,1.2-0.4,1.9c-0.1,0.7-0.2,1.4-0.2,2.1c0,0.5,0,0.9,0.1,1.3c0.1,0.4,0.2,0.8,0.4,1.1c0.2,0.3,0.5,0.6,0.8,0.8
		c0.3,0.2,0.8,0.3,1.3,0.3c0.8,0,1.6-0.1,2.4-0.3c0.8-0.2,1.6-0.5,2.3-0.8c0.8-0.3,1.5-0.7,2.2-1.1c0.7-0.4,1.4-0.9,2.1-1.3
		c0.4-0.3,0.9-0.6,1.3-0.9c0.4-0.3,0.9-0.6,1.2-0.8c0.4-0.2,0.8-0.4,1.1-0.6c0.3-0.1,0.6-0.2,0.9-0.2c0.3,0,0.7,0.1,1,0.3
		c0.3,0.2,0.5,0.5,0.5,0.9c0,0.3-0.1,0.6-0.2,1c-0.3,0.9-0.8,1.7-1.3,2.4c-0.6,0.7-1.2,1.4-1.9,1.9s-1.4,1.1-2.2,1.5
		c-0.8,0.4-1.5,0.8-2.3,1.2c-1.4,0.8-2.9,1.3-4.4,1.7c-1.5,0.4-2.7,0.6-3.7,0.6c-0.3,0-0.7,0-1.1-0.1c-0.4-0.1-0.8-0.2-1.1-0.3
		c-1.9-0.8-3.2-1.9-4.1-3.3c-0.9-1.4-1.3-3-1.3-4.9c0-0.8,0.1-1.7,0.2-2.5C150.1,45,150.3,44.1,150.6,43.1z"/>
	<path class="st0" d="M169.6,72.7c-0.9,0-1.7-0.3-2.1-0.8c-0.5-0.5-0.7-1.1-0.7-1.7c0-1,0.3-1.8,0.8-2.5c0.6-0.7,1.2-1.3,2-1.9
		c0.8-0.5,1.6-1,2.4-1.5c0.8-0.4,1.5-0.8,2-1.3c1-0.9,2-1.9,2.8-3c0.8-1.1,1.4-2.2,1.9-3.2c0.7-1.5,1.4-3.2,2.1-5.1
		c0.7-1.8,1.3-3.8,1.8-5.7c0.6-2,1.1-4,1.5-6c0.5-2,0.8-4,1.2-5.9c0.1-0.6,0.2-1.1,0.2-1.6c0-0.5,0-1,0.1-1.5c0-1.2,0.2-2.2,0.3-2.9
		c0.2-0.7,0.4-1.3,0.8-1.7c0.3-0.4,0.7-0.7,1.2-0.8s1-0.2,1.6-0.2c1.3,0,2.2,0.3,2.7,1c0.5,0.6,0.8,1.6,0.8,2.8c0,0.7-0.1,1.7-0.3,3
		c-0.2,1.3-0.5,2.9-0.9,4.7c-0.4,1.8-0.8,3.7-1.4,5.8s-1.2,4.2-1.9,6.3c-0.7,2.1-1.5,4.3-2.4,6.3c-0.9,2.1-1.8,4-2.8,5.8
		c-0.2,0.4-0.5,0.8-0.8,1.2c-0.3,0.4-0.6,0.9-1,1.3c-0.3,0.4-0.7,0.8-1,1.2c-0.3,0.4-0.6,0.8-0.9,1.1c-0.9,1.1-1.8,2-2.6,2.8
		c-0.8,0.8-1.6,1.5-2.4,2c-0.8,0.5-1.6,1-2.4,1.2C171.4,72.5,170.5,72.7,169.6,72.7z M187.6,15.9c0-0.9,0.2-1.6,0.7-2.2
		c0.4-0.6,1-1.1,1.6-1.6c0.5-0.3,1-0.6,1.4-0.8c0.4-0.2,0.8-0.3,1.3-0.3c0.6,0,1.1,0.1,1.6,0.3c0.4,0.2,0.8,0.5,1,0.8
		c0.3,0.3,0.4,0.7,0.5,1.1c0.1,0.4,0.2,0.8,0.2,1.2c0,0.8-0.2,1.6-0.5,2.4c-0.3,0.7-0.9,1.5-1.8,2.1c-0.3,0.3-0.6,0.5-1,0.6
		c-0.3,0.2-0.7,0.2-1,0.2c-1.2,0-2.1-0.3-2.9-1C188,18.1,187.6,17.2,187.6,15.9z"/>
	<path class="st0" d="M199.5,50.5c0.2,0,0.4,0,0.5,0.1c0.1,0,0.3,0.1,0.5,0.2c0.2,0.1,0.4,0.1,0.6,0.2c0.2,0,0.5,0.1,0.9,0.1
		c1.1,0,2.3-0.1,3.6-0.3c1.3-0.2,2.6-0.5,3.8-0.9c1.2-0.4,2.2-0.8,3-1.3c0.8-0.5,1.3-1,1.4-1.5c0.1-0.3,0.1-0.5,0.1-0.7
		c0-0.4-0.2-0.8-0.6-1.1c-0.4-0.4-0.9-0.7-1.4-1c-0.6-0.3-1.2-0.6-1.9-0.9c-0.7-0.3-1.3-0.5-1.9-0.8l-1.2-0.5
		c-0.6-0.2-1.2-0.5-1.8-0.8c-0.6-0.3-1.1-0.7-1.6-1.2c-0.5-0.4-0.9-1-1.3-1.5c-0.4-0.6-0.7-1.3-0.8-2c-0.1-0.3-0.2-0.6-0.2-1
		c-0.1-0.3-0.1-0.7-0.1-1c0-0.6,0.2-1.3,0.6-2.1c0.4-0.8,0.9-1.5,1.6-2.3s1.5-1.5,2.3-2.2c0.9-0.7,1.8-1.3,2.7-1.7
		c0.7-0.5,1.4-0.9,2-1.3c0.6-0.4,1.3-0.7,2-1c0.7-0.3,1.3-0.5,2-0.7c0.7-0.2,1.4-0.2,2.2-0.2c0.7,0,1.4,0,2.3,0.1
		c0.8,0.1,1.5,0.2,2.2,0.5c0.7,0.3,1.2,0.6,1.7,1.1c0.5,0.5,0.7,1.2,0.7,2c0,0.3,0,0.6-0.1,1s-0.2,0.8-0.3,1.2
		c-0.2,0.4-0.4,0.8-0.6,1.1c-0.2,0.3-0.5,0.5-0.8,0.5c-0.5,0-1-0.1-1.3-0.3c-0.3-0.2-0.7-0.4-0.9-0.7c-0.3-0.2-0.6-0.5-0.9-0.7
		c-0.3-0.2-0.7-0.3-1.1-0.3c-0.5,0-1.1,0.1-1.9,0.3s-1.4,0.5-2.2,0.8c-0.7,0.3-1.5,0.7-2.2,1.2c-0.7,0.4-1.3,0.9-1.9,1.4
		c-0.6,0.5-1,0.9-1.4,1.4c-0.3,0.5-0.5,0.9-0.5,1.2c0,0.4,0.1,0.7,0.4,1c0.3,0.3,0.6,0.5,1,0.7c0.5,0.3,1.1,0.6,1.8,0.8
		c0.7,0.3,1.3,0.6,2,0.8c0.7,0.3,1.3,0.6,2,0.8c0.6,0.3,1.2,0.5,1.6,0.8c0.6,0.3,1.2,0.6,1.7,1c0.5,0.3,0.9,0.7,1.3,1
		c0.3,0.4,0.6,0.8,0.8,1.2c0.2,0.5,0.3,1,0.3,1.6c0,0.3,0,0.6-0.1,0.9c0,0.3-0.1,0.6-0.2,1c-0.1,0.3-0.2,0.8-0.4,1.2
		c-0.2,0.5-0.4,0.9-0.6,1.4c-0.2,0.5-0.4,0.9-0.6,1.2c-0.2,0.4-0.4,0.6-0.5,0.7c-0.9,0.8-2,1.6-3.2,2.3c-1.2,0.7-2.5,1.4-3.8,1.9
		c-1.3,0.5-2.7,1-4,1.3c-1.3,0.3-2.5,0.5-3.7,0.5c-0.6,0-1.2-0.1-1.8-0.3c-0.7-0.2-1.3-0.5-1.9-0.9c-0.6-0.4-1-0.8-1.4-1.2
		c-0.4-0.5-0.6-0.9-0.6-1.4c0-0.2,0.1-0.5,0.2-0.8c0.1-0.3,0.3-0.6,0.5-0.8c0.2-0.2,0.4-0.5,0.7-0.6
		C199.1,50.6,199.3,50.5,199.5,50.5z"/>
</g>
</svg>
