<?xml version="1.0" encoding="utf-8"?>
<!-- Generator: Adobe Illustrator 21.0.0, SVG Export Plug-In . SVG Version: 6.00 Build 0)  -->
<svg version="1.1" id="Слой_1" xmlns="http://www.w3.org/2000/svg" xmlns:xlink="http://www.w3.org/1999/xlink" x="0px" y="0px"
	 viewBox="0 0 261 90" style="enable-background:new 0 0 261 90;" xml:space="preserve">
<style type="text/css">
	.st0{fill:#FF0066;}
</style>
<g>
	<g>
		<g>
			<path class="st0" d="M1.8,6c5.9,18.3,13,36.2,21.2,53.6c0.4,1,2.2,1,2.6,0C29,51.5,32.6,43.4,39,37.1c-0.9-0.4-1.7-0.7-2.6-1.1
				c-0.3,6-0.1,11.7,3.8,16.7c0.7,0.9,2.2,0.3,2.5-0.7c5-17,12.2-33.1,21.5-48.2c1-1.6-1.6-3.2-2.6-1.5
				c-9.4,15.3-16.7,31.7-21.8,48.9c0.8-0.2,1.7-0.4,2.5-0.7c-3.3-4.2-3.1-9.5-2.9-14.6c0.1-1.3-1.7-1.9-2.6-1.1
				c-6.6,6.5-10.4,14.7-14,23.1c0.9,0,1.7,0,2.6,0c-8-17.2-15-34.8-20.9-52.9C4.1,3.4,1.2,4.1,1.8,6L1.8,6z"/>
		</g>
	</g>
	<g>
		<g>
			<path class="st0" d="M59,44.8c-4.8,3.6-3.2,10.4,2.1,12.7c7.4,3.3,16.5-1.5,21-7.3c3.1-4.1,6.5-12.8,0-15.6
				c-7.6-3.2-17.6,1.8-22.8,7c-1.4,1.4,0.8,3.5,2.1,2.1c3.3-3.3,7.3-5.6,11.9-6.5c1.3-0.3,3.9-0.6,5.4-0.3c5.8,1.3,4.3,5.9,2.5,9.1
				c-1.8,3.4-4.9,6.2-8.4,7.9c-2.2,1-4.8,1.7-7.3,1.6c-3.3-0.2-9.9-4.4-5-8.1C62,46.2,60.5,43.6,59,44.8L59,44.8z"/>
		</g>
	</g>
	<g>
		<g>
			<path class="st0" d="M81.3,48.3c0,3.5,0,7.1,0,10.6c0,1.9,3,1.9,3,0c0-3.5,0-7.1,0-10.6C84.3,46.3,81.3,46.3,81.3,48.3L81.3,48.3
				z"/>
		</g>
	</g>
	<g>
		<g>
			<path class="st0" d="M111.6,3.7C103.3,20.9,95,39,98.1,58.6c0.3,1.9,3.2,1.1,2.9-0.8c-3-18.6,5.2-36.3,13.2-52.6
				C115,3.5,112.5,1.9,111.6,3.7L111.6,3.7z"/>
		</g>
	</g>
	<g>
		<g>
			<path class="st0" d="M127.5,7.4c-9.8,17.3-13.5,37.2-10.6,56.8c0.3,1.9,3.2,1.1,2.9-0.8c-2.8-18.9,0.9-38,10.3-54.5
				C131,7.3,128.4,5.7,127.5,7.4L127.5,7.4z"/>
		</g>
	</g>
	<g>
		<g>
			<path class="st0" d="M119.3,45.7c4.7-4.5,9.4-9,14.1-13.5c1.4-1.3-0.7-3.5-2.1-2.1c-4.7,4.5-9.4,9-14.1,13.5
				C115.8,45,117.9,47.1,119.3,45.7L119.3,45.7z"/>
		</g>
	</g>
	<g>
		<g>
			<path class="st0" d="M118.2,42.5c2.5,2.5,4.1,6,5.9,9.1c1.7,3,3.5,6,5.2,9c1,1.7,3.6,0.2,2.6-1.5c-2-3.4-3.9-6.8-5.9-10.2
				c-1.7-2.9-3.2-6.1-5.6-8.5C118.9,39,116.8,41.1,118.2,42.5L118.2,42.5z"/>
		</g>
	</g>
	<g>
		<g>
			<path class="st0" d="M144.4,33.3c5.2,4.2,7,10.3,8.1,16.7c0.5,3,0.2,10.2,3.5,11.9c3.1,1.5,5.1-2.7,6.4-4.7
				c0.6-0.8,4.2-7.4,5.4-6.8c1.1,0.5,2.1,10.1,2.3,11.4c0.3,1.6,2.4,1.2,2.9,0c4.9-11.8,12.8-21.9,23.1-29.4c1.5-1.1,0-3.7-1.5-2.6
				c-11,8-19.3,18.6-24.5,31.2c1,0,1.9,0,2.9,0c-0.8-3.7-1.1-7.8-2.3-11.4c-0.4-1.3-0.8-2.6-2.2-3c-3.4-1-5.8,4.9-7.2,6.9
				c-0.7,1.1-1.5,2.8-2.5,3.7c-2.9,2.4-2.3-0.7-2.6-2.6c-0.6-3.5-1-7.1-2-10.6c-1.4-5-3.7-9.4-7.7-12.7
				C145.1,30,142.9,32.1,144.4,33.3L144.4,33.3z"/>
		</g>
	</g>
	<g>
		<g>
			<path class="st0" d="M201.2,43.9c-3.1,6.5-11.6,19.2-3,25.1c6.7,4.7,15.8-2.9,19.6-8.2c4.2-5.8,7.1-15.4-0.4-19.8
				c-3.9-2.3-15.5-5.4-16.4,1.6c-0.2,1.9,2.8,1.9,3,0c0.2-2,5.9-0.9,6.9-0.7c2.3,0.5,4.8,1.1,6.4,2.9c4.3,4.8-0.2,12.5-3.8,16.5
				c-1.6,1.7-3.5,3.3-5.6,4.4c-3.5,1.9-9,1.9-10.2-2.8c-1.3-5.5,3.8-12.7,6.1-17.6C204.6,43.7,202.1,42.1,201.2,43.9L201.2,43.9z"/>
		</g>
	</g>
	<g>
		<g>
			<path class="st0" d="M216.6,56.8c0.2,4.7,1.3,9.2,3.4,13.4c0.9,1.7,3.5,0.2,2.6-1.5c-1.9-3.7-2.9-7.7-3-11.9
				C219.5,54.9,216.5,54.9,216.6,56.8L216.6,56.8z"/>
		</g>
	</g>
	<g>
		<g>
			<g>
				<path class="st0" d="M215.3,84.8c22.5-4.2,40.8-21.7,44.2-44.6c0.3-1.9-2.6-2.7-2.9-0.8c-3.2,22-20.5,38.5-42.1,42.5
					C212.6,82.3,213.4,85.2,215.3,84.8L215.3,84.8z"/>
			</g>
		</g>
		<g>
			<g>
				<path class="st0" d="M246.9,63.5c-5.3-7.2-10.5-14.4-15.8-21.7c-1.1-1.5-3.7-0.1-2.6,1.5c5.3,7.2,10.5,14.4,15.8,21.7
					C245.4,66.5,248,65.1,246.9,63.5L246.9,63.5z"/>
			</g>
		</g>
	</g>
</g>
</svg>
