<svg xmlns="http://www.w3.org/2000/svg" width="50" height="50" fill="rgb(77, 77, 77)"><path d="M48.336 7.54c-.701 0-1.359.007-2.018.024V5.326h-.734c-14.262 0-19.043 3.411-20.585 5.252-1.542-1.841-6.323-5.252-20.585-5.252H3.68v2.237a73.312 73.312 0 00-2.016-.023H0v32.35h1.664c17.595 0 21.186 4.035 21.698 4.784h3.302c.557-.784 4.218-4.784 21.673-4.784H50V7.54h-1.664zM23.899 38.431c-2.457-1.812-7.611-3.914-18.383-4.054V7.175c15.087.194 18.001 4.327 18.383 5v26.256zm20.585-4.054c-10.772.14-15.926 2.24-18.383 4.054V12.184c.416-.737 3.412-4.814 18.383-5.007v27.2z"/></svg>