<?xml version="1.0" encoding="utf-8"?>
<!-- Generator: Adobe Illustrator 21.0.0, SVG Export Plug-In . SVG Version: 6.00 Build 0)  -->
<svg version="1.1" id="Слой_1" xmlns="http://www.w3.org/2000/svg" xmlns:xlink="http://www.w3.org/1999/xlink" x="0px" y="0px"
	 viewBox="0 0 294 49" style="enable-background:new 0 0 294 49;" xml:space="preserve">
<style type="text/css">
	.st0{fill:#00DDD0;}
</style>
<g>
	<path class="st0" d="M38.3,34.5c0,0.6-0.2,1.1-0.6,1.6c-0.4,0.4-0.9,0.7-1.5,0.7c-0.3,0-0.5-0.1-0.7-0.2c-0.2-0.2-0.5-0.4-0.7-0.7
		c-0.3-0.3-0.5-0.6-0.8-1.1c-0.6-0.9-1.1-1.8-1.5-2.7c-0.5-1-0.8-1.8-1.1-2.5c-0.1-0.2-0.2-0.4-0.2-0.6c-0.1-0.2-0.2-0.4-0.3-0.6
		c-0.1-0.2-0.2-0.4-0.3-0.6s-0.2-0.5-0.3-0.8c-0.4-1.3-0.8-2.2-1-2.6c-0.2,0.2-0.4,0.4-0.6,0.5C28.4,25,28.2,25,28,25.1
		s-0.5,0.1-0.7,0.1s-0.5,0-0.8,0c-0.2,0-0.3,0-0.6,0.1c-0.2,0.1-0.5,0.1-0.7,0.2c-0.3,0.1-0.5,0.2-0.8,0.3c-0.3,0.1-0.5,0.2-0.7,0.2
		c-0.8,0.2-1.5,0.4-2.3,0.6c-0.8,0.2-1.6,0.3-2.4,0.5c-0.8,0.2-1.7,0.3-2.6,0.5c-0.9,0.1-1.9,0.3-2.9,0.5c-0.5,0.1-0.9,0.4-1.3,0.9
		c-0.4,0.5-1.2,1.7-2.5,3.4c-1.2,1.7-2.3,3-3.1,3.8c-0.8,0.8-1.7,1.2-2.5,1.2c-1,0-1.9-0.2-2.5-0.6c-0.8-0.5-1.1-1-1.1-1.6
		c0-0.3,0.2-0.5,0.5-0.6c0.3-0.1,0.8-0.2,1.3-0.4c0.2,0,0.6-0.4,1.3-1.1c0.6-0.7,1.1-1.3,1.4-1.7c0.6-0.8,1.3-1.7,2-2.7
		c0.7-1,1.4-2,2.2-3.2c0.4-0.6,0.7-1.1,1.1-1.6c0.3-0.4,0.6-0.8,0.8-1.1c0.2-0.3,0.5-0.6,0.7-1c0.3-0.4,0.6-0.8,0.9-1.3
		c0.2-0.2,0.3-0.5,0.6-0.8c0.2-0.3,0.5-0.6,0.8-1c0.3-0.4,0.6-0.7,0.8-1.1c0.2-0.3,0.4-0.6,0.6-0.8c0.2-0.2,0.4-0.6,0.7-0.9
		s0.6-0.8,1-1.3c0.1-0.2,0.4-0.5,0.7-1.1c0.4-0.6,0.8-1.3,1.5-2.3c0.9-1.4,1.4-2.5,1.7-3.1c1.8-4.3,3.1-6.5,4-6.5c0.4,0,0.7,0,1,0.1
		c0.2,0.1,0.4,0.2,0.6,0.3c0.1,0.2,0.2,0.4,0.3,0.6s0.1,0.6,0.1,1c0,0.3,0,0.5,0,0.7c0,0.2,0,0.4,0,0.5c0,0.2,0,0.6,0,0.9
		c0,0.4,0,0.8-0.1,1.4c0.8,1.6,1.5,3.3,2.2,5.2c0.4,0.9,0.7,2,1.1,3.1c0.4,1.1,0.8,2.3,1.3,3.7c0.4,1.3,0.8,2.4,1.2,3.4
		c0.3,0.9,0.6,1.7,0.8,2.3c0.2,0.6,0.5,1.2,0.8,2c0.3,0.8,0.7,1.6,1.1,2.5c0.2,0.4,0.7,1.2,1.7,2.5C37.8,32.9,38.3,33.9,38.3,34.5z
		 M28.1,20.9c-0.3-0.8-0.6-1.7-0.9-2.7c-0.3-1-0.7-1.9-1-2.9c-0.3-1-0.7-1.9-1.1-2.8c-0.4-0.9-0.7-1.7-1.1-2.4
		c-0.9,1.2-1.7,2.3-2.4,3.4c-0.8,1.1-1.5,2.1-2.2,3.2c-0.7,1.1-1.4,2.2-2.1,3.3c-0.7,1.1-1.4,2.3-2.1,3.6c0.2,0.1,0.3,0.1,0.5,0.1
		c0.2,0,0.5,0,0.9-0.1c0.4,0,0.7-0.1,1.1-0.1c0.4-0.1,0.7-0.1,1.1-0.2c0.3-0.1,0.6-0.1,0.8-0.2c0.4-0.1,0.7-0.2,1-0.2
		c0.3-0.1,0.5-0.1,0.8-0.2c0.2-0.1,0.5-0.1,0.8-0.2c0.3-0.1,0.6-0.1,1-0.2c0.9-0.2,1.8-0.5,2.6-0.7C26.6,21.4,27.4,21.1,28.1,20.9z"
		/>
	<path class="st0" d="M82.7,19.6c0,0.3,0,0.6-0.1,0.9c-0.1,0.3-0.2,0.6-0.4,0.9c-0.1,0.3-0.3,0.6-0.5,0.9s-0.4,0.6-0.5,0.8
		c-0.4,0.7-1,1.4-1.6,2.1c-0.6,0.7-1.2,1.4-1.9,2.1c-0.7,0.7-1.4,1.3-2.1,1.9c-0.7,0.6-1.4,1.1-2.1,1.6c-0.6,0.4-1.1,0.7-1.6,1
		s-1,0.6-1.5,0.8s-1,0.4-1.6,0.6s-1.2,0.2-1.8,0.2c-1.3,0-2.3-0.3-3.1-1c-0.4-0.3-0.7-0.7-1-1.3c-0.3-0.5-0.6-1.1-0.8-1.7
		c-0.2-0.6-0.4-1.3-0.6-2c-0.2-0.7-0.3-1.4-0.4-2.1c-0.1-0.9-0.3-1.6-0.4-2.3c-0.1-0.7-0.3-1.3-0.4-1.7c-0.2-0.5-0.4-0.8-0.6-1.1
		c-0.2-0.3-0.5-0.4-0.9-0.4c-0.3,0-0.6,0-0.8,0.1c-0.3,0.1-0.5,0.2-0.8,0.4s-0.6,0.4-0.9,0.8c-0.3,0.3-0.7,0.8-1.2,1.3s-1,1.2-1.5,2
		c-0.6,0.8-1.3,1.7-2,2.8c-0.4,0.5-0.8,1.1-1.4,1.8c-0.5,0.6-1.1,1.3-1.6,1.8c-0.5,0.6-1.1,1.1-1.6,1.5c-0.5,0.4-1,0.7-1.4,0.8
		c-1.3-0.3-2-2-2-5c0-0.8,0.1-2,0.3-3.7c0.1-0.7,0.2-1.5,0.3-2.4c0.1-0.8,0.3-1.6,0.5-2.5c0.2-0.8,0.4-1.6,0.6-2.4
		c0.2-0.8,0.5-1.5,0.8-2.1c0.2-0.3,0.3-0.5,0.5-0.7c0.2-0.2,0.3-0.3,0.5-0.4c0.2-0.1,0.4-0.1,0.6-0.2c0.2,0,0.4,0,0.6,0
		c0.2,0,0.5,0.2,0.7,0.5c0.2,0.3,0.3,0.8,0.3,1.4c0,0.4,0,0.7-0.1,1c-0.1,0.3-0.1,0.7-0.3,1c-0.1,0.3-0.2,0.7-0.3,1.1
		c-0.1,0.4-0.2,0.8-0.4,1.3c-0.1,0.4-0.2,0.9-0.3,1.4c-0.1,0.5-0.2,1-0.3,1.5c-0.1,0.5-0.2,1-0.3,1.5C47.1,25.2,47,25.6,47,26
		c0,0.3,0,0.6,0.1,0.8c0.4,0,1.1-0.7,2.1-1.9c0.5-0.6,1.1-1.3,1.7-2.1c0.6-0.7,1.3-1.6,2-2.5c0.5-0.7,1-1.3,1.5-1.9
		c0.5-0.6,1-1.1,1.6-1.5c0.6-0.4,1.1-0.8,1.8-1c0.6-0.3,1.3-0.4,2.1-0.4c0.8,0,1.5,0.2,2,0.5c0.5,0.3,1,0.8,1.3,1.4
		c0.3,0.6,0.6,1.3,0.7,2.2c0.2,0.8,0.3,1.8,0.4,2.8c0.1,0.9,0.2,1.7,0.3,2.5c0.1,0.8,0.2,1.6,0.5,2.3c0.2,0.7,0.6,1.2,1.1,1.6
		s1.1,0.6,2,0.6c0.7,0,1.3-0.2,2.1-0.5c0.7-0.3,1.5-0.7,2.3-1.3c0.8-0.5,1.6-1.2,2.5-1.9c0.8-0.7,1.7-1.5,2.6-2.4
		c0.4-0.3,0.7-0.8,1.2-1.3c0.4-0.5,0.8-1,1.2-1.5c0.4-0.5,0.8-0.9,1.1-1.2c0.4-0.3,0.6-0.5,0.8-0.5c0.1,0,0.2,0,0.4,0.1
		C82.6,19.2,82.7,19.4,82.7,19.6z"/>
	<path class="st0" d="M103.8,21.1c0,0.3-0.1,0.8-0.4,1.3c-0.3,0.6-0.7,1.2-1.2,1.9c-0.5,0.7-1.1,1.4-1.8,2.2
		c-0.7,0.8-1.4,1.6-2.1,2.4c-0.9,0.9-1.8,1.8-2.7,2.7c-1,0.8-2,1.7-3.1,2.5c-2.1,1.6-4.1,2.4-5.7,2.4c-1.9,0-3.3-0.6-4.3-1.9
		c-1-1.3-1.7-2.8-2.1-4.5c-0.4-1.8-0.6-3.6-0.6-5.4c0-0.8,0.1-2,0.3-3.6c0.1-0.8,0.2-1.5,0.3-2.1s0.2-1.1,0.3-1.4
		c0.2-0.7,0.7-1.3,1.4-1.9c0.7-0.6,1.4-0.8,2.2-0.8c0.4,0,0.6,0.4,0.6,1.2c0,0.5,0,1.1-0.1,1.8c-0.1,0.7-0.2,1.3-0.3,2
		c-0.2,1.2-0.3,2.3-0.4,3.2s-0.1,1.8-0.1,2.5c0,1.5,0.2,3.1,0.6,4.7c0.4,1.6,1.2,2.4,2.3,2.4c1.1,0,2.4-0.4,3.9-1.2
		c0.7-0.4,1.5-0.9,2.2-1.4c0.7-0.5,1.5-1.1,2.2-1.7c0.8-0.6,1.5-1.3,2.2-1.9c0.7-0.6,1.4-1.3,2.1-2c0.7-0.7,1.3-1.3,1.8-1.9
		c0.5-0.6,1-1.1,1.4-1.7c0,0,0-0.1,0.1-0.1c0-0.1,0.1-0.1,0.1-0.2c0-0.1,0.1-0.1,0.1-0.2c0,0,0.1-0.1,0.1,0c0.2,0,0.4,0.2,0.5,0.5
		C103.7,20.6,103.8,20.9,103.8,21.1z M88.7,2.4c0,1-0.3,1.8-0.8,2.5C87.5,5.7,86.7,6,85.7,6c-0.6,0-1.3-0.1-2-0.3
		c-0.7-0.2-1.1-0.5-1.1-0.9c0-0.7,0.2-1.5,0.7-2.1C83.8,2,84.3,1.5,85,1c0.5-0.3,0.9-0.5,1-0.5c0.9,0,1.5,0.1,2,0.4
		C88.5,1.2,88.7,1.7,88.7,2.4z"/>
	<path class="st0" d="M151.7,20c0,0.1,0,0.3-0.1,0.5c-0.1,0.2-0.1,0.4-0.2,0.7c-0.1,0.2-0.2,0.5-0.3,0.7c-0.1,0.3-0.2,0.5-0.4,0.7
		c-0.3,0.4-0.6,0.9-1,1.4c-0.4,0.5-0.9,1.1-1.4,1.6c-0.5,0.6-1,1.1-1.6,1.7c-0.6,0.6-1.1,1.1-1.7,1.5c-0.4,0.4-1,0.8-1.5,1.2
		c-0.6,0.4-1.2,0.9-1.8,1.2c-0.6,0.4-1.3,0.7-2,1c-0.7,0.3-1.3,0.4-1.9,0.4c-0.5,0-1-0.1-1.5-0.2c-0.4-0.2-0.8-0.4-1.2-0.9
		c-0.4-0.4-0.7-1-1-1.7s-0.5-1.7-0.7-2.8c-0.1-0.5-0.2-1-0.2-1.6c-0.1-0.6-0.1-1.1-0.2-1.7c-0.1-0.6-0.1-1.1-0.2-1.6
		c-0.1-0.5-0.1-1-0.2-1.4c-0.1-0.4-0.2-0.7-0.3-0.9s-0.2-0.3-0.3-0.3c-0.2,0-0.5,0.2-0.8,0.5c-0.4,0.3-0.8,0.8-1.3,1.5
		c-0.5,0.6-1,1.4-1.6,2.3c-0.6,0.9-1.2,1.9-1.8,3c-1.2,2.2-2.3,3.9-3.1,5c-0.9,1.1-1.6,1.7-2.3,1.7c-1.1,0-1.8-0.5-2.1-1.5
		c-0.3-1-0.5-2.7-0.6-5.1c0-2.3-0.2-4.1-0.5-5.3c-0.3-1.2-0.6-1.9-1.1-1.9c-0.3,0-0.7,0.2-1.2,0.7c-0.5,0.5-1.1,1.2-1.8,2.1
		c-0.7,0.9-1.4,1.9-2.2,3.1c-0.8,1.2-1.6,2.5-2.3,3.9c-0.2,0.4-0.5,0.8-0.7,1.3c-0.3,0.5-0.6,1-0.8,1.4c-0.3,0.5-0.6,0.9-0.8,1.4
		c-0.3,0.4-0.5,0.8-0.7,1.1c-0.4,0.6-1,1-1.6,1c-1.2,0-1.9-0.6-2.3-1.8c-0.1-0.3-0.2-0.6-0.2-0.7c-0.1-0.2-0.1-0.4-0.1-0.6
		c0-0.2-0.1-0.4-0.1-0.6c0-0.2,0-0.5,0-0.9c0-0.6,0-1.2,0.1-1.7c0-0.5,0.1-1,0.1-1.5c0.1-0.5,0.1-1.1,0.2-1.7s0.2-1.3,0.3-2.1
		c0.1-0.7,0.1-1.4,0.2-2.1c0.1-0.7,0.1-1.5,0.2-2.2c0.1-0.7,0.1-1.4,0.2-2c0.1-0.6,0.1-1.1,0.2-1.4c0-0.2,0.2-0.4,0.3-0.6
		c0.2-0.2,0.4-0.5,0.6-0.7c0.2-0.2,0.5-0.4,0.7-0.6c0.2-0.2,0.5-0.2,0.6-0.2c0.3,0,0.6,0.1,0.8,0.2c0.2,0.1,0.4,0.3,0.5,0.6
		c0.1,0.2,0.2,0.5,0.3,0.9c0.1,0.3,0.1,0.7,0.1,1c0,0.4,0,0.8-0.1,1.4c-0.1,0.6-0.2,1.1-0.3,1.8c-0.1,0.6-0.2,1.3-0.4,2
		c-0.1,0.7-0.3,1.3-0.4,2c-0.1,0.6-0.2,1.2-0.3,1.7c-0.1,0.5-0.2,1-0.2,1.3c-0.1,0.8-0.2,1.5-0.3,2c0,0.5-0.1,0.9-0.1,1.2
		c0.2-0.2,0.5-0.5,0.8-0.9c0.3-0.4,0.6-0.9,1-1.4c0.4-0.5,0.8-1.1,1.2-1.8c0.4-0.6,0.8-1.3,1.2-2c0.3-0.5,0.6-1,1-1.6
		c0.4-0.6,0.7-1.2,1.1-1.8c0.4-0.6,0.8-1.2,1.2-1.7c0.4-0.5,0.7-1,1.1-1.4c0.6-0.7,1.3-1.3,2-1.7c0.7-0.4,1.4-0.6,2.2-0.6
		c0.7,0,1.4,0.3,1.9,0.9c0.5,0.6,0.9,1.3,1.1,2.2c0.1,0.4,0.2,0.9,0.2,1.5s0.1,1.1,0.1,1.8c0,0.6,0.1,1.2,0.1,1.8
		c0,0.6,0.1,1.2,0.1,1.7c0,0.5,0.1,1,0.2,1.3c0.1,0.4,0.2,0.6,0.3,0.8c0.1,0.2,0.2,0.4,0.3,0.4c0.1,0.1,0.1,0.1,0.2,0.1
		c0.3,0,0.8-0.6,1.5-1.8c0.4-0.6,0.7-1.3,1.2-2c0.4-0.7,0.9-1.6,1.4-2.5c0.5-0.9,1.1-1.7,1.7-2.6s1.2-1.6,1.8-2.2
		c0.6-0.6,1.1-1.1,1.6-1.5c0.5-0.4,0.9-0.6,1.3-0.6c0.2,0,0.5,0,0.7,0.1c0.2,0,0.5,0.1,0.7,0.2c0.2,0.1,0.4,0.2,0.6,0.3
		s0.3,0.3,0.4,0.4c0.2,0.4,0.4,0.8,0.5,1.3c0.1,0.5,0.2,1,0.2,1.6c0,0.6,0.1,1.3,0.1,2c0,0.7,0.1,1.6,0.2,2.5c0.2,1.9,0.5,3.3,1,4.3
		c0.5,0.9,1.1,1.4,1.9,1.4c0.3,0,0.7-0.1,1.2-0.3c0.5-0.2,1-0.5,1.6-0.8c0.6-0.3,1.1-0.7,1.7-1.2c0.6-0.4,1.1-0.9,1.6-1.3
		c0.5-0.4,1-0.9,1.4-1.3c0.5-0.4,0.9-0.9,1.4-1.3s0.9-0.9,1.4-1.4c0.5-0.5,1-1,1.5-1.6c0.2-0.2,0.4-0.3,0.5-0.3
		C151.6,19.4,151.7,19.6,151.7,20z"/>
	<path class="st0" d="M182.6,20.4c0,0.2,0,0.4-0.1,0.7c0,0.3-0.1,0.5-0.2,0.8c-0.1,0.3-0.2,0.5-0.3,0.7c-0.1,0.2-0.2,0.4-0.3,0.6
		c-0.1,0.1-0.2,0.3-0.4,0.5c-0.2,0.2-0.4,0.4-0.6,0.7c-0.2,0.2-0.4,0.5-0.7,0.8c-0.3,0.3-0.5,0.5-0.8,0.8c-0.9,0.9-1.9,1.7-2.8,2.5
		s-1.8,1.5-2.8,2.2c-1,0.6-2,1.1-3,1.5s-2.2,0.6-3.4,0.5c-0.6,0-1.1-0.1-1.7-0.3c-0.6-0.2-1.1-0.5-1.6-0.9c-0.5-0.4-0.9-0.8-1.3-1.4
		c-0.4-0.5-0.6-1.1-0.8-1.8c-0.4,0.5-0.9,0.9-1.4,1.4c-0.5,0.5-1,1-1.5,1.5c-0.5,0.5-1.1,1-1.6,1.5c-0.6,0.5-1.1,0.9-1.7,1.3
		c-0.3,0.2-0.7,0.4-1.2,0.7c-0.5,0.2-1,0.5-1.5,0.7c-0.5,0.2-1,0.4-1.5,0.5c-0.5,0.1-1,0.2-1.4,0.2c-0.6,0-1.2-0.2-1.6-0.6
		c-0.5-0.4-0.8-0.9-1.1-1.4c-0.3-0.6-0.5-1.2-0.7-1.8s-0.2-1.2-0.2-1.7c0-1,0.1-2,0.4-3.1c0.3-1.1,0.7-2.1,1.1-3.1
		c0.5-1,1-2,1.6-2.9c0.6-0.9,1.1-1.7,1.7-2.4c0.6-0.7,1.3-1.5,2.1-2.2c0.8-0.7,1.6-1.4,2.5-2c0.9-0.6,1.7-1,2.5-1.4
		c0.8-0.4,1.6-0.5,2.2-0.5c0.3,0,0.7,0,1,0c0.4,0,0.7,0,1.1,0.1c0.4,0,0.7,0.1,1,0.2c0.3,0.1,0.6,0.2,0.9,0.4
		c0.1,0.1,0.3,0.3,0.5,0.5c0.2,0.3,0.4,0.6,0.5,0.9c0.2,0.3,0.3,0.6,0.4,1c0.1,0.3,0.2,0.6,0.2,0.8c0,0.5-0.1,1.2-0.3,2
		c-0.2,1.1-0.5,2-0.7,2.9c-0.2,0.9-0.3,1.8-0.3,2.7c0,0.5,0.1,1.1,0.3,1.6c0.2,0.5,0.4,1,0.7,1.5c0.3,0.4,0.7,0.8,1.1,1.1
		c0.5,0.3,1,0.4,1.5,0.4c0.9,0,1.9-0.2,2.9-0.6c1-0.4,2-0.9,3-1.6s2-1.5,3-2.4c1-0.9,2-1.8,2.9-2.9c0.1-0.1,0.2-0.2,0.4-0.5
		s0.4-0.4,0.6-0.7c0.2-0.2,0.4-0.4,0.6-0.6c0.2-0.2,0.3-0.3,0.4-0.3C182.4,19.4,182.6,19.7,182.6,20.4z M162.1,18.5c0-0.3,0-0.6,0-1
		c0-0.4-0.1-0.7-0.3-0.9c-0.2-0.2-0.4-0.4-0.6-0.4c-0.2,0-0.5,0-0.7,0c-0.5,0-1.1,0.1-1.5,0.3c-0.5,0.2-1,0.4-1.5,0.7
		c-0.5,0.3-0.9,0.6-1.4,1c-0.4,0.4-0.9,0.8-1.3,1.2c-0.4,0.4-0.7,0.8-1.1,1.3c-0.4,0.5-0.8,1.1-1.1,1.7c-0.4,0.6-0.7,1.3-1.1,2
		c-0.4,0.7-0.7,1.4-0.9,2c-0.3,0.7-0.5,1.3-0.6,1.9c-0.2,0.6-0.2,1.2-0.2,1.7c0,0.2,0,0.4,0.1,0.6c0,0.3,0.1,0.5,0.2,0.7
		s0.2,0.4,0.3,0.6c0.1,0.2,0.3,0.3,0.5,0.3c0.7,0,1.6-0.2,2.6-0.7c1.4-0.6,2.7-1.4,3.9-2.5c1.2-1.1,2.2-2.3,3-3.7
		C161.5,23.2,162.1,20.9,162.1,18.5z"/>
	<path class="st0" d="M203.4,15.8c0,0.6-0.2,1-0.5,1.3c-0.3,0.3-0.7,0.6-1.1,0.8c-0.5,0.2-1.1,0.4-1.7,0.6c-0.6,0.2-1.3,0.3-1.9,0.5
		s-1.3,0.3-2,0.4c-0.7,0.1-1.3,0.2-1.9,0.2c-0.6,0.1-1.3,0.1-2,0.2c-0.7,0.1-1.4,0.1-2.1,0.2c-0.7,0.1-1.3,0.1-1.9,0.2
		c-0.6,0.1-1,0.2-1.4,0.3c-0.3,1.4-0.7,2.7-1,4c-0.4,1.3-0.7,2.5-0.9,3.8c-0.1,0.3-0.1,0.7-0.2,1.3c-0.1,0.6-0.2,1.2-0.3,1.8
		c-0.1,0.6-0.2,1.2-0.2,1.8c-0.1,0.6-0.1,1-0.1,1.2c0,0.6,0.1,1.1,0.3,1.4c0.2,0.3,0.4,0.6,0.7,0.8c0.2,0.2,0.5,0.4,0.7,0.5
		c0.2,0.2,0.3,0.4,0.3,0.8c0,0.2-0.1,0.4-0.3,0.6c-0.2,0.2-0.5,0.4-0.7,0.5c-0.3,0.2-0.6,0.3-0.9,0.4c-0.3,0.1-0.6,0.1-0.9,0.1
		c-0.4,0-0.8-0.1-1.2-0.4c-0.4-0.2-0.7-0.6-0.9-1c-0.2-0.4-0.4-0.8-0.6-1.3c-0.1-0.5-0.2-1-0.2-1.6c0-0.7,0.1-1.5,0.2-2.3
		c0.1-0.8,0.3-1.6,0.5-2.5c0.2-0.8,0.4-1.7,0.6-2.6c0.2-0.9,0.4-1.8,0.6-2.6c0.1-0.4,0.2-0.7,0.2-1.1c0.1-0.4,0.2-0.8,0.2-1.1
		c0.1-0.3,0.1-0.6,0.2-0.9c0-0.2,0.1-0.4,0.1-0.4c0-0.2-0.1-0.4-0.3-0.6c-0.2-0.1-0.4-0.2-0.6-0.2c-0.2,0-0.5,0-0.8,0
		c-0.4,0-0.8,0.1-1.2,0.1c-0.4,0-0.8,0.1-1.2,0.1c-0.4,0-0.6,0-0.8,0c-0.6,0-1,0-1.4-0.1c-0.4-0.1-0.7-0.2-0.9-0.4s-0.4-0.4-0.5-0.8
		c-0.1-0.3-0.2-0.8-0.2-1.3c0-0.2,0.1-0.4,0.3-0.5c0.2-0.1,0.4-0.2,0.7-0.3c0.3-0.1,0.6-0.1,0.9-0.1c0.3,0,0.6,0,0.8,0
		c0.2,0,0.5,0,1-0.1c0.5,0,0.9-0.1,1.4-0.1c0.5,0,1-0.1,1.4-0.1c0.5,0,0.8-0.1,1-0.1c0.1,0,0.2,0,0.3,0c0.1,0,0.2-0.1,0.4-0.1
		c0.1-0.1,0.2-0.2,0.4-0.3c0.1-0.2,0.2-0.4,0.3-0.7c0.1-0.5,0.2-1,0.4-1.7c0.2-0.6,0.3-1.3,0.5-2c0.2-0.7,0.3-1.3,0.5-1.9
		c0.2-0.6,0.3-1.2,0.4-1.6c0.1-0.4,0.3-0.9,0.4-1.4c0.1-0.5,0.2-1,0.3-1.5c0.1-0.5,0.2-1,0.3-1.4c0.1-0.5,0.2-0.9,0.4-1.3
		c0.3-0.8,0.9-1.2,1.6-1.2c1.1,0,1.7,0.6,1.7,1.9c0,0.8-0.2,1.7-0.5,2.7c-0.7,2.3-1.3,4.2-1.6,5.7c-0.4,1.5-0.5,2.5-0.5,3
		c0,0.6,0.3,0.8,0.8,0.8c0.7,0,1.3,0,1.9,0c0.6,0,1.2-0.1,1.8-0.1c0.6-0.1,1.3-0.1,2-0.2c0.7-0.1,1.5-0.2,2.3-0.3
		c0.6-0.1,1.2-0.2,1.8-0.3c0.6-0.1,1.1-0.2,1.5-0.3c0.5-0.1,0.9-0.2,1.3-0.3s0.7-0.2,0.9-0.2c0.2,0,0.3,0,0.5-0.1c0.2,0,0.3,0,0.4,0
		c0.1,0,0.2,0.1,0.3,0.2C203.3,15.4,203.4,15.6,203.4,15.8z"/>
	<path class="st0" d="M221.8,21.1c0,0.3-0.1,0.8-0.4,1.3c-0.3,0.6-0.7,1.2-1.2,1.9c-0.5,0.7-1.1,1.4-1.8,2.2
		c-0.7,0.8-1.4,1.6-2.1,2.4c-0.9,0.9-1.8,1.8-2.7,2.7c-1,0.8-2,1.7-3.1,2.5c-2.1,1.6-4.1,2.4-5.7,2.4c-1.9,0-3.3-0.6-4.3-1.9
		c-1-1.3-1.7-2.8-2.1-4.5c-0.4-1.8-0.6-3.6-0.6-5.4c0-0.8,0.1-2,0.3-3.6c0.1-0.8,0.2-1.5,0.3-2.1s0.2-1.1,0.3-1.4
		c0.2-0.7,0.7-1.3,1.4-1.9c0.7-0.6,1.4-0.8,2.2-0.8c0.4,0,0.6,0.4,0.6,1.2c0,0.5,0,1.1-0.1,1.8c-0.1,0.7-0.2,1.3-0.3,2
		c-0.2,1.2-0.3,2.3-0.4,3.2s-0.1,1.8-0.1,2.5c0,1.5,0.2,3.1,0.6,4.7c0.4,1.6,1.2,2.4,2.3,2.4c1.1,0,2.4-0.4,3.9-1.2
		c0.7-0.4,1.5-0.9,2.2-1.4c0.7-0.5,1.5-1.1,2.2-1.7c0.8-0.6,1.5-1.3,2.2-1.9c0.7-0.6,1.4-1.3,2.1-2c0.7-0.7,1.3-1.3,1.8-1.9
		c0.5-0.6,1-1.1,1.4-1.7c0,0,0-0.1,0.1-0.1c0-0.1,0.1-0.1,0.1-0.2c0-0.1,0.1-0.1,0.1-0.2c0,0,0.1-0.1,0.1,0c0.2,0,0.4,0.2,0.5,0.5
		C221.8,20.6,221.8,20.9,221.8,21.1z M206.8,2.4c0,1-0.3,1.8-0.8,2.5c-0.5,0.7-1.2,1.1-2.2,1.1c-0.6,0-1.3-0.1-2-0.3
		c-0.7-0.2-1.1-0.5-1.1-0.9c0-0.7,0.2-1.5,0.7-2.1c0.5-0.7,1-1.2,1.7-1.7c0.5-0.3,0.9-0.5,1-0.5c0.9,0,1.5,0.1,2,0.4
		C206.6,1.2,206.8,1.7,206.8,2.4z"/>
	<path class="st0" d="M247.5,20.2c0,0.6-0.2,1-0.6,1.5c-0.1,0.2-0.4,0.4-0.6,0.6c-0.3,0.3-0.6,0.5-0.8,0.7l-2.1,2.1
		c-0.4,0.4-0.8,0.8-1.1,1.1c-0.3,0.3-0.6,0.6-0.9,0.8c-0.4,0.4-1,0.8-1.6,1.3c-0.6,0.5-1.3,1.1-2.1,1.8c-1.6,1.3-3.1,2.4-4.4,3.2
		c-1.3,0.8-2.8,1.5-4.3,2c-1.5,0.5-3.2,0.7-4.9,0.7c-1.1,0-2-0.2-2.8-0.6c-0.8-0.4-1.5-0.9-2.1-1.6c-0.6-0.7-1-1.5-1.3-2.4
		c-0.3-0.9-0.4-1.9-0.4-2.9c0-2,0.4-4.1,1.3-6.1c0.9-2,2-4,3.5-6c0.8-1,1.7-2,2.8-3c1.1-0.9,2.1-1.4,3-1.4c0.5,0,1,0.4,1.6,1.2
		c0.3,0.4,0.6,0.8,0.9,1.3c0.3,0.5,0.5,0.9,0.8,1.4c0.5,1,0.7,1.7,0.7,2.2c0,0.4-0.1,1-0.4,1.7c-0.3,0.7-0.6,1.1-1,1.1
		c-0.6,0-1-0.4-1.4-1.1c-0.2-0.4-0.3-0.7-0.4-1c-0.1-0.3-0.2-0.6-0.3-0.9c-0.4-0.9-0.7-1.6-0.9-2c-1,0.2-1.9,0.7-2.5,1.5
		c-0.3,0.4-0.7,0.9-1,1.4c-0.3,0.6-0.7,1.2-1.1,1.9c-0.3,0.6-0.6,1.2-0.8,1.9c-0.3,0.7-0.5,1.4-0.7,2.1c-0.2,0.7-0.3,1.5-0.4,2.2
		c-0.1,0.7-0.2,1.4-0.2,2c0,0.9,0.4,1.8,1.1,2.6c0.8,0.8,1.6,1.2,2.5,1.2c2,0,3.8-0.3,5.6-1c1.8-0.7,3.4-1.6,5.1-2.8
		c1.6-1.1,3.2-2.4,4.9-3.9c0.8-0.7,1.6-1.5,2.4-2.1c0.7-0.7,1.4-1.3,2.1-1.9c1.1-1,2-1.5,2.8-1.5C247.4,19.6,247.5,19.8,247.5,20.2z
		"/>
	<path class="st0" d="M248,31.2c0,0.3-0.1,0.8-0.2,1.5c-0.1,0.4-0.6,0.9-1.4,1.6c-0.9,0.7-1.5,1.1-1.9,1.1c-0.4,0-0.7-0.1-1-0.2
		c-0.2-0.1-0.4-0.3-0.6-0.5c-0.1-0.2-0.2-0.5-0.3-0.9c0-0.4-0.1-0.8-0.1-1.3c0-0.9,0-1.5,0.1-1.9c0.1-0.7,1.1-1,3.3-1h0.5
		c0.4,0,0.9,0.3,1.4,0.8C248,30.6,248,30.8,248,31.2z"/>
	<path class="st0" d="M262.6,14.8c0,0.1,0,0.3-0.1,0.6c-0.1,0.3-0.2,0.5-0.3,0.8c-0.1,0.3-0.2,0.5-0.3,0.8c-0.1,0.3-0.2,0.4-0.2,0.6
		c-0.1,0.4-0.2,1.1-0.3,1.8c-0.1,0.8-0.1,1.7-0.1,2.8c0,0.4,0,0.8,0,1.4c0,0.5,0,1.1,0,1.7c0,0.6,0,1.2,0,1.7c0,0.6,0,1,0,1.4
		c0,1.4,0,2.6,0,3.8c0,1.1-0.1,2.2-0.2,3.2s-0.2,1.9-0.4,2.8c-0.2,0.9-0.4,1.8-0.6,2.7c-0.3,1-0.6,1.8-1,2.6
		c-0.4,0.8-0.9,1.5-1.4,2.1c-0.6,0.6-1.2,1-1.9,1.3c-0.7,0.3-1.6,0.5-2.5,0.5c-0.5,0-1.1-0.1-1.6-0.2c-0.5-0.1-1-0.3-1.5-0.5
		c-0.5-0.2-0.9-0.4-1.4-0.7c-0.4-0.3-0.8-0.5-1.1-0.8c-0.3-0.3-0.6-0.5-0.7-0.7c-0.2-0.2-0.3-0.4-0.3-0.6c0-0.4,0.1-0.7,0.4-0.7
		c0.1,0,0.3,0,0.7,0.1c0.4,0.1,0.8,0.2,1.3,0.3c0.5,0.1,1.1,0.2,1.7,0.3c0.6,0.1,1.2,0.1,1.8,0.1c2.1,0,3.5-1.1,4.1-3.4
		c0.6-2.2,0.9-4.9,0.9-8.1c0-0.4,0-0.9,0-1.4s0-1.1,0-1.7c0-0.6,0-1.2,0-1.8c0-0.6,0-1.2,0-1.8c0-0.6,0-1.1,0-1.5c0-0.5,0-0.8,0-1.1
		c0-3.5,0.4-6.1,1.1-7.8c0.6-1.4,1.4-2,2.5-2c0.4,0,0.8,0.1,1.1,0.4C262.5,14,262.6,14.4,262.6,14.8z M266.7,3
		c0,0.1-0.1,0.4-0.3,0.7c-0.2,0.4-0.4,0.7-0.6,1.1c-0.2,0.4-0.5,0.7-0.7,1c-0.2,0.3-0.4,0.4-0.6,0.4c-0.4,0-0.6,0-0.9-0.1
		c-0.2-0.1-0.4-0.2-0.6-0.4s-0.4-0.4-0.6-0.7s-0.4-0.6-0.6-1c-0.2-0.3-0.3-0.5-0.4-0.7s-0.1-0.4-0.1-0.5c0-0.2,0.1-0.5,0.2-0.8
		c0.2-0.3,0.4-0.5,0.6-0.7c0.2-0.2,0.5-0.4,0.8-0.5s0.5-0.2,0.8-0.2c0.3,0,0.7,0.1,1,0.2c0.4,0.1,0.7,0.3,1,0.5
		c0.3,0.2,0.5,0.4,0.7,0.7S266.7,2.6,266.7,3z"/>
	<path class="st0" d="M293.4,19.4c0,0.2-0.1,0.5-0.2,0.8c-0.1,0.3-0.3,0.6-0.6,0.9s-0.5,0.6-0.8,1c-0.3,0.3-0.6,0.7-0.9,1
		c-0.2,0.3-0.5,0.5-0.7,0.8c-0.3,0.3-0.6,0.6-0.9,0.9c-0.3,0.3-0.7,0.7-1.2,1.1c-0.4,0.4-1,0.9-1.6,1.5c-0.5,0.5-1.1,1.1-1.8,1.6
		c-0.7,0.6-1.3,1.1-2,1.7c-0.7,0.6-1.3,1.1-1.9,1.6c-0.6,0.5-1.2,0.9-1.6,1.3c-1.1,0.9-2.1,1.8-3.1,2.6c-1,0.8-2,1.5-2.9,2.2
		c-1.9,1.3-3.4,1.9-4.5,1.9c-0.4,0-0.8-0.1-1.3-0.3c-0.5-0.2-0.8-0.5-0.8-0.8c0-1,0.4-1.8,1.1-2.3c0.7-0.5,1.9-1.1,3.4-1.7
		c1.5-0.6,2.7-1.2,3.4-1.8c0.8-0.6,1.1-1.4,1.1-2.4c0-0.5-0.5-1.5-1.6-3.1c-0.5-0.8-1-1.5-1.4-2.1c-0.4-0.6-0.8-1.2-1-1.8
		c-0.6-1.1-0.9-2.2-0.9-3.4c0-1,0.2-2.1,0.6-3.2c0.2-0.6,0.5-1.3,0.9-1.9c0.4-0.7,0.8-1.2,1.3-1.7c0.5-0.5,1-0.9,1.4-1.2
		c0.5-0.3,0.9-0.5,1.3-0.4c1.3,0,2,0.8,2,2.4c0,0.6-0.2,1.2-0.7,1.8c-0.2,0.3-0.5,0.6-0.8,0.9c-0.3,0.3-0.7,0.6-1.1,1
		c-0.4,0.3-0.7,0.6-1,0.8c-0.3,0.2-0.5,0.5-0.7,0.6c0,0.8,0.2,1.7,0.7,2.8c0.3,0.5,0.6,1.1,0.9,1.7c0.3,0.6,0.7,1.3,1.2,2
		c0.4,0.7,0.8,1.3,1.1,1.9c0.3,0.6,0.5,1,0.7,1.2c0,0.1,0.1,0.1,0.3,0.1c0.2,0,0.6-0.2,1.1-0.5c0.5-0.3,1.2-0.7,1.9-1.3
		c0.7-0.5,1.5-1.1,2.4-1.8c0.9-0.7,1.7-1.4,2.6-2.2c0.9-0.8,1.6-1.5,2.2-2.1c0.6-0.6,1.1-1.2,1.7-1.7c0.5-0.5,0.9-0.9,1.2-1.2
		c0.3-0.3,0.4-0.4,0.4-0.4c0.1,0,0.2,0,0.3,0.1c0.1,0.1,0.2,0.2,0.3,0.4c0.1,0.1,0.1,0.3,0.2,0.5C293.3,19.1,293.4,19.3,293.4,19.4z
		"/>
</g>
</svg>
