<svg id="Слой_1" xmlns="http://www.w3.org/2000/svg" viewBox="0 0 300 43"><style>.st0{fill:#00416F;}</style><path class="st0" d="M8.5 42.9H3.4L14 1.8h4.2l10.5 41.1h-5.1l-3-12h-9.3l-2.8 12zM16.3 13h-.4l-3.4 13.9h7.2L16.3 13zM53.8 1.8v41.1h-5.9L37 12.1h-.2v30.8h-4.9V1.8h5.9l11 30.8h.2V1.8h4.8zM72.4 38.3h2.3v4.6h-9.5v-4.6h2.3V6.4h-2.3V1.8h9.5v4.6h-2.3v31.9zM89.9 12.1v30.8h-4.2V1.8h6.8l4.4 26.8h.4l4.4-26.8h6.8v41.1h-4.2V12.1h-.4l-5.1 30.8h-3.4l-5.1-30.8h-.4zM116.5 42.9h-5.1L122 1.8h4.2l10.5 41.1h-5.1l-3-12h-9.3l-2.8 12zm7.8-29.9h-.4l-3.4 13.9h7.2L124.3 13zM148.3 42.9V5.8h-8.2v-4h21.7v4h-8.6v37.1h-4.9zM172.6 19.1h14.3v4h-14.3v15.8h16.7v4h-21.5V1.8h20.5v4h-15.6v13.3zM200.9 38.3v4.6H196v-4.6h4.9zM239.9 40c-2 2-4.3 3-7 3s-5-1-7-3c-3.5-3.5-5.3-9-5.3-16.5 0-8.7 1.9-15 5.7-18.8 2-2 4.2-3 6.8-3 2.7 0 4.8.8 6.3 2.3 3 3 4.4 7 4.2 12H239c-.1-4.5-1-7.5-2.5-9.1-.8-.8-2-1.3-3.4-1.3-1.3 0-2.4.5-3.4 1.5-2.8 2.8-4.2 8.1-4.2 15.8 0 6.8 1.2 11.3 3.6 13.7 1.1 1.1 2.4 1.7 3.8 1.7 1.3 0 2.5-.6 3.6-1.7 1.4-1.4 2.2-4.6 2.3-9.7h5.1c-.4 6.5-1.8 10.8-4 13.1zM265.4 23.5c3.2 1.8 4.9 4.5 4.9 8s-1.1 6.3-3.2 8.4c-2 2-4.7 3-8.2 3-3.4 0-6-.9-7.8-2.7-2.3-2.2-3.4-4.9-3.4-8V30h4.9v1.9c0 2.3.6 3.9 1.7 5.1 1.1 1.1 2.5 1.7 4.2 1.7 2.2 0 3.9-.6 5.1-1.7 1.3-1.3 1.9-2.9 1.9-4.9 0-2.1-1-3.8-3-5.1-3.5-2.2-6.8-4.6-9.9-7.2-2.3-1.8-3.4-4.3-3.6-7.4-.1-3.1.9-5.7 3.2-7.8 2.1-2 4.4-3 7-3 3.1 0 5.5.8 7.2 2.5 2.1 2.1 3.1 5.1 3 8.9h-4.9c.3-2.4-.3-4.3-1.7-5.7-1-1-2.2-1.5-3.6-1.5s-2.6.5-3.6 1.5c-1.3 1.3-1.9 2.7-1.9 4.4 0 1.8 1 3.6 3 5.3 2.8 2.7 5.8 4.8 8.7 6.5zM292.4 23.5c3.2 1.8 4.9 4.5 4.9 8s-1.1 6.3-3.2 8.4c-2 2-4.7 3-8.2 3-3.4 0-6-.9-7.8-2.7-2.3-2.2-3.4-4.9-3.4-8V30h4.9v1.9c0 2.3.6 3.9 1.7 5.1 1.1 1.1 2.5 1.7 4.2 1.7 2.2 0 3.9-.6 5.1-1.7 1.3-1.3 1.9-2.9 1.9-4.9 0-2.1-1-3.8-3-5.1-3.5-2.2-6.8-4.6-9.9-7.2-2.3-1.8-3.4-4.3-3.6-7.4-.1-3.1.9-5.7 3.2-7.8 2.1-2 4.4-3 7-3 3.1 0 5.5.8 7.2 2.5 2.1 2.1 3.1 5.1 3 8.9h-4.9c.3-2.4-.3-4.3-1.7-5.7-1-1-2.2-1.5-3.6-1.5s-2.6.5-3.6 1.5c-1.3 1.3-1.9 2.7-1.9 4.4 0 1.8 1 3.6 3 5.3 2.8 2.7 5.8 4.8 8.7 6.5z"/></svg>