<?xml version="1.0" encoding="utf-8"?>
<!-- Generator: Adobe Illustrator 21.0.0, SVG Export Plug-In . SVG Version: 6.00 Build 0)  -->
<svg version="1.1" id="Слой_1" xmlns="http://www.w3.org/2000/svg" xmlns:xlink="http://www.w3.org/1999/xlink" x="0px" y="0px"
	 viewBox="0 0 98.2 112.1" style="enable-background:new 0 0 98.2 112.1;" xml:space="preserve">
<style type="text/css">
	.st0{fill:#405261;}
</style>
<g>
	<path class="st0" d="M96.7,26.9L50.6,0.4c-0.9-0.5-2.1-0.5-3,0L1.5,26.9C0.6,27.5,0,28.5,0,29.5v53c0,1.1,0.6,2.1,1.5,2.6
		l46.1,26.5c0.9,0.5,2.1,0.5,3,0l46.1-26.5c0.9-0.5,1.5-1.5,1.5-2.6v-53C98.2,28.4,97.6,27.5,96.7,26.9z M45.6,17.4
		c0,0.2-0.1,0.3-0.3,0.4l-16.5,9.5c-0.3,0.2-0.3,0.7,0,0.9l16.5,9.5c0.2,0.1,0.3,0.3,0.3,0.4V45c0,0.4-0.4,0.6-0.7,0.4l-30-17.2
		c-0.3-0.2-0.3-0.7,0-0.9l30-17.3c0.3-0.2,0.8,0,0.8,0.4C45.6,10.5,45.6,17.4,45.6,17.4z M83.3,28.2l-30,17.3
		c-0.3,0.2-0.7,0-0.7-0.4v-6.9c0-0.2,0.1-0.3,0.3-0.4l16.5-9.5c0.3-0.2,0.3-0.7,0-0.9l-16.5-9.5c-0.2-0.1-0.3-0.3-0.3-0.4v-6.9
		c0-0.4,0.4-0.6,0.8-0.4l30,17.3C83.6,27.5,83.6,28,83.3,28.2z"/>
</g>
</svg>
