<svg id="Слой_1" xmlns="http://www.w3.org/2000/svg" viewBox="0 0 284 89"><style>.st0{fill:#FF0D54;}</style><path class="st0" d="M23.3 16.2h-9v-6c0-1.8-.1-2.9-.3-3.3-.2-.4-.6-.7-1.3-.7-.7 0-1.2.3-1.4.8-.2.5-.3 1.7-.3 3.4v16.2c0 1.7.1 2.8.3 3.3.2.5.7.8 1.4.8s1.1-.3 1.3-.8c.2-.5.3-1.7.3-3.6v-4.4h9v1.4c0 3.6-.3 6.2-.8 7.7s-1.6 2.8-3.4 4-3.9 1.7-6.4 1.7c-2.6 0-4.8-.5-6.6-1.4s-2.9-2.3-3.4-4-.8-4.3-.8-7.7V13.3c0-2.5.1-4.4.3-5.6.2-1.3.7-2.5 1.5-3.6.9-1.2 2-2.1 3.5-2.7 1.5-.7 3.2-1 5.2-1 2.7 0 4.9.5 6.6 1.5 1.7 1 2.9 2.3 3.4 3.9.5 1.5.8 3.9.8 7.2v3.2zM45.7 11.6h-8.4V9c0-1.2-.1-2-.3-2.3-.2-.3-.6-.5-1.1-.5-.5 0-1 .2-1.2.7-.3.4-.4 1.1-.4 2 0 1.2.2 2 .5 2.6.3.6 1.2 1.3 2.6 2.1 4 2.4 6.6 4.4 7.6 5.9s1.6 4 1.6 7.4c0 2.5-.3 4.3-.9 5.5-.6 1.2-1.7 2.2-3.4 3-1.7.8-3.6 1.2-5.8 1.2-2.4 0-4.5-.5-6.2-1.4-1.7-.9-2.8-2.1-3.4-3.5-.5-1.4-.8-3.4-.8-6v-2.3h8.4v4.2c0 1.3.1 2.1.4 2.5.2.4.7.6 1.3.6s1-.2 1.3-.7c.3-.5.4-1.2.4-2.1 0-2-.3-3.4-.8-4-.6-.6-2-1.7-4.2-3.2-2.2-1.5-3.7-2.6-4.5-3.2-.7-.7-1.3-1.6-1.8-2.8-.5-1.2-.7-2.7-.7-4.6 0-2.7.3-4.6 1-5.8.7-1.2 1.8-2.2 3.3-2.9 1.5-.7 3.4-1 5.5-1 2.3 0 4.4.4 6 1.1 1.7.8 2.8 1.7 3.3 2.9s.8 3.1.8 5.9v1.3zM68.4 11.6H60V9c0-1.2-.1-2-.3-2.3-.2-.3-.6-.5-1.1-.5-.5 0-1 .2-1.2.7-.3.4-.4 1.1-.4 2 0 1.2.2 2 .5 2.6.3.6 1.2 1.3 2.6 2.1 4 2.4 6.6 4.4 7.6 5.9s1.6 4 1.6 7.4c0 2.5-.3 4.3-.9 5.5-.6 1.2-1.7 2.2-3.4 3-1.7.8-3.6 1.2-5.8 1.2-2.4 0-4.5-.5-6.2-1.4-1.7-.9-2.8-2.1-3.4-3.5-.5-1.4-.8-3.4-.8-6v-2.3h8.4v4.2c0 1.3.1 2.1.4 2.5.2.4.7.6 1.3.6s1-.2 1.3-.7c.3-.5.4-1.2.4-2.1 0-2-.3-3.4-.8-4-.6-.6-2-1.7-4.2-3.2-2.2-1.5-3.7-2.6-4.5-3.2-.7-.7-1.3-1.6-1.8-2.8-.5-1.2-.7-2.7-.7-4.6 0-2.7.3-4.6 1-5.8.7-1.2 1.8-2.2 3.3-2.9 1.5-.7 3.4-1 5.5-1 2.3 0 4.4.4 6 1.1 1.7.8 2.8 1.7 3.3 2.9s.8 3.1.8 5.9v1.3zM88.1 16.1c1.3.4 2.3 1.2 2.9 2.2.6 1 1 3.4 1 7.1 0 2.8-.3 4.9-.9 6.4-.6 1.5-1.7 2.7-3.3 3.5-1.5.8-3.5 1.2-6 1.2-2.8 0-4.9-.5-6.5-1.4s-2.6-2.1-3.1-3.4c-.5-1.3-.7-3.7-.7-7V22h8.7v5.7c0 1.5.1 2.5.3 2.9.2.4.6.6 1.2.6.7 0 1.1-.3 1.3-.8s.3-1.9.3-4V24c0-1.3-.2-2.3-.5-2.9-.3-.6-.7-1-1.3-1.2-.6-.2-1.7-.3-3.4-.3v-5c2.1 0 3.3-.1 3.8-.2.5-.2.8-.5 1.1-1 .2-.5.3-1.4.3-2.5V8.7c0-1.2-.1-2-.4-2.4-.3-.4-.6-.6-1.2-.6s-1 .2-1.2.6c-.2.4-.3 1.3-.3 2.6v2.9h-8.7v-3c0-3.3.8-5.6 2.3-6.7C75.3.9 77.7.3 81 .3c4.1 0 6.9.8 8.4 2.4 1.5 1.6 2.2 3.9 2.2 6.7 0 1.9-.3 3.4-.8 4.2-.5 1-1.4 1.8-2.7 2.5zM118.7 1.1l5.2 34.8h-9.2l-.5-6.3H111l-.5 6.3H101l4.6-34.8h13.1zm-4.8 22.3c-.5-3.9-.9-8.8-1.4-14.6-.9 6.7-1.5 11.5-1.7 14.6h3.1zM134 7.3l-.2 2.6c.6-1 1.4-1.8 2.3-2.4.9-.5 2-.8 3.1-.8 1.5 0 2.7.4 3.7 1.1.9.7 1.6 1.6 1.8 2.7.3 1.1.4 2.8.4 5.3v20h-8.7V16.1c0-2-.1-3.2-.2-3.6s-.5-.6-1.1-.6c-.6 0-1 .2-1.2.7-.2.5-.2 1.8-.2 4v19.3H125V7.3h9zM157.1 1.1v4.5h-8.9V1.1h8.9zm0 6.2v28.5h-8.9V7.3h8.9zM168.8 7.3l-.2 2.7c.7-1.1 1.5-1.9 2.4-2.4.9-.5 2-.8 3.2-.8 2.3 0 4.1 1.1 5.5 3.2.7-1.1 1.6-1.9 2.5-2.4.9-.5 1.9-.8 3.1-.8 1.5 0 2.7.4 3.7 1.1 1 .7 1.6 1.6 1.9 2.6.3 1 .4 2.7.4 5.1v20.3h-8.4V17.2c0-2.4-.1-3.9-.2-4.5-.2-.6-.5-.9-1.1-.9-.6 0-1 .3-1.2.9-.2.6-.3 2.1-.3 4.5v18.6h-8.4V17.7c0-2.8-.1-4.5-.2-5-.1-.6-.5-.8-1.1-.8-.4 0-.7.1-1 .4-.3.3-.4.7-.5 1.1v22.5h-8.4V7.3h8.3zM201.9 18.4h-8.1v-1.9c0-2.2.3-3.9.8-5.1.5-1.2 1.5-2.3 3.1-3.2 1.5-.9 3.5-1.4 6-1.4 2.9 0 5.1.5 6.6 1.6 1.5 1 2.4 2.3 2.7 3.8.3 1.5.5 4.6.5 9.3v14.3h-8.4v-2.5c-.5 1-1.2 1.8-2.1 2.3s-1.8.8-3 .8c-1.5 0-2.9-.4-4.2-1.3s-1.9-2.7-1.9-5.6v-2.3c0-2.1.3-3.6 1-4.4.7-.8 2.3-1.7 5-2.7 2.8-1.1 4.4-1.9 4.6-2.3.2-.4.3-1.2.3-2.4 0-1.5-.1-2.5-.3-2.9-.2-.5-.6-.7-1.1-.7-.6 0-1 .2-1.1.6-.1.4-.2 1.4-.2 3v3zm2.8 3.9c-1.4 1-2.2 1.9-2.4 2.6-.2.7-.3 1.7-.3 3 0 1.5.1 2.4.3 2.9s.6.6 1.1.6c.5 0 .9-.2 1.1-.5.2-.3.2-1.2.2-2.7v-5.9zM225.5 3.5V8h2.3v4.5h-2.3v15.3c0 1.9.1 2.9.3 3.1s1 .3 2.4.3v4.6h-3.5c-2 0-3.4-.1-4.2-.2-.8-.2-1.6-.5-2.2-1.1-.6-.6-1-1.3-1.2-2-.2-.8-.2-2.6-.2-5.4V12.5H215V8h1.9V3.5h8.6zM238.7 1.1v4.5h-8.9V1.1h8.9zm0 6.2v28.5h-8.9V7.3h8.9zM261.4 17.3v7c0 2.6-.1 4.4-.4 5.6-.3 1.2-.8 2.3-1.7 3.4-.8 1-1.9 1.8-3.3 2.3-1.3.5-2.8.7-4.6.7-1.9 0-3.5-.2-4.9-.6s-2.4-1.1-3.1-1.9c-.7-.9-1.3-1.9-1.6-3.1-.3-1.2-.5-3-.5-5.4V18c0-2.6.3-4.7.9-6.2.6-1.5 1.6-2.7 3.1-3.6 1.5-.9 3.4-1.4 5.7-1.4 1.9 0 3.6.3 5 .9s2.5 1.3 3.2 2.3c.8.9 1.3 1.9 1.6 2.9s.6 2.4.6 4.4zm-8.6-2.1c0-1.5-.1-2.4-.2-2.8-.2-.4-.5-.6-1-.6s-.9.2-1 .6c-.2.4-.3 1.3-.3 2.8v12.9c0 1.3.1 2.2.3 2.6s.5.6 1 .6.9-.2 1-.6c.2-.4.2-1.2.2-2.4V15.2zM273.1 7.3L273 10c.6-1 1.4-1.8 2.3-2.4.9-.5 2-.8 3.1-.8 1.5 0 2.7.4 3.7 1.1.9.7 1.6 1.6 1.8 2.7.3 1.1.4 2.8.4 5.3v20h-8.7V16.1c0-2-.1-3.2-.2-3.6s-.5-.6-1.1-.6c-.6 0-1 .2-1.2.7-.2.5-.2 1.8-.2 4v19.3h-8.7V7.3h8.9zM46.5 69h-9v-6c0-1.8-.1-2.9-.3-3.3-.2-.5-.6-.7-1.3-.7-.7 0-1.2.3-1.4.8-.2.5-.3 1.7-.3 3.4v16.2c0 1.7.1 2.8.3 3.3.2.5.7.8 1.4.8s1.1-.3 1.3-.8c.2-.5.3-1.7.3-3.6v-4.4h9V76c0 3.6-.3 6.2-.8 7.7s-1.6 2.8-3.4 4-3.9 1.7-6.4 1.7c-2.6 0-4.8-.5-6.6-1.4-1.7-1-2.9-2.3-3.4-4s-.8-4.3-.8-7.7V66.1c0-2.5.1-4.4.3-5.6.2-1.3.7-2.5 1.5-3.6.9-1.2 2-2.1 3.5-2.7 1.5-.7 3.2-1 5.2-1 2.7 0 4.9.5 6.6 1.5 1.7 1 2.9 2.3 3.4 3.9.5 1.5.8 3.9.8 7.2V69zM58.2 53.9v7.8c.7-.7 1.6-1.2 2.4-1.6.9-.3 1.8-.5 2.8-.5 1.5 0 2.8.4 3.9 1.2 1.1.8 1.7 1.7 2 2.7s.4 2.9.4 5.5v19.7H61V68.6c0-1.7-.1-2.7-.2-3.2-.2-.5-.5-.7-1.1-.7-.5 0-.9.2-1.1.7-.2.5-.3 1.5-.3 2.9v20.3h-8.7V53.9h8.6zM92.2 74.9H81V81c0 1.3.1 2.1.3 2.5.2.4.5.6 1.1.6.7 0 1.1-.2 1.3-.7.2-.5.3-1.5.3-2.9v-3.8h8.2v2.1c0 1.8-.1 3.1-.3 4.1s-.7 2-1.6 3-1.9 1.9-3.1 2.4c-1.3.5-2.8.8-4.7.8-1.8 0-3.5-.3-4.9-.8-1.4-.5-2.5-1.3-3.3-2.2-.8-.9-1.3-1.9-1.6-3.1-.3-1.1-.5-2.7-.5-4.8V70c0-2.5.3-4.5 1-5.9.7-1.4 1.8-2.5 3.3-3.3 1.5-.8 3.3-1.1 5.3-1.1 2.4 0 4.4.5 6 1.4 1.6.9 2.7 2.1 3.3 3.7s1 3.7 1 6.4v3.7zm-8.7-4.7v-2.1c0-1.5-.1-2.4-.2-2.9-.2-.4-.5-.6-1-.6-.6 0-1 .2-1.1.5-.1.4-.2 1.4-.2 3v2.1h2.5zM102.8 71.2h-8.1v-1.9c0-2.2.3-3.9.8-5.1.5-1.2 1.5-2.3 3.1-3.2 1.5-.9 3.5-1.4 6-1.4 2.9 0 5.1.5 6.6 1.6 1.5 1 2.4 2.3 2.7 3.8.3 1.5.5 4.6.5 9.3v14.3H106v-2.5c-.5 1-1.2 1.8-2.1 2.3s-1.8.8-3 .8c-1.5 0-2.9-.4-4.2-1.3-1.3-.9-1.9-2.7-1.9-5.6V80c0-2.1.3-3.6 1-4.4.7-.8 2.3-1.7 5-2.7 2.8-1.1 4.4-1.9 4.6-2.3.2-.4.3-1.2.3-2.4 0-1.5-.1-2.5-.3-2.9-.2-.5-.6-.7-1.1-.7-.6 0-1 .2-1.1.6-.1.4-.2 1.4-.2 3v3zm2.8 3.9c-1.4 1-2.2 1.9-2.4 2.6-.2.7-.3 1.7-.3 3 0 1.5.1 2.4.3 2.9s.6.6 1.1.6c.5 0 .9-.2 1.1-.5.2-.3.2-1.2.2-2.7v-5.9zM126.4 56.3v4.5h2.3v4.5h-2.3v15.3c0 1.9.1 2.9.3 3.1s1 .3 2.4.3v4.6h-3.5c-2 0-3.4-.1-4.2-.2-.8-.2-1.6-.5-2.2-1.1-.6-.6-1-1.3-1.2-2-.2-.8-.2-2.6-.2-5.4V65.3h-1.9v-4.5h1.9v-4.5h8.6zM157.8 64.4h-8.4v-2.6c0-1.2-.1-2-.3-2.3-.2-.3-.6-.5-1.1-.5-.5 0-1 .2-1.2.7-.3.4-.4 1.1-.4 2 0 1.2.2 2 .5 2.6.3.6 1.2 1.3 2.6 2.1 4 2.4 6.6 4.4 7.6 5.9s1.6 4 1.6 7.4c0 2.5-.3 4.3-.9 5.5-.6 1.2-1.7 2.2-3.4 3-1.7.8-3.6 1.2-5.8 1.2-2.4 0-4.5-.5-6.2-1.4-1.7-.9-2.8-2.1-3.4-3.5-.5-1.4-.8-3.4-.8-6v-2.3h8.4v4.2c0 1.3.1 2.1.4 2.5.2.4.7.6 1.3.6s1-.2 1.3-.7c.3-.5.4-1.2.4-2.1 0-2-.3-3.4-.8-4-.6-.6-2-1.7-4.2-3.2-2.2-1.5-3.7-2.6-4.5-3.2-.7-.7-1.3-1.6-1.8-2.8-.5-1.2-.7-2.7-.7-4.6 0-2.7.3-4.6 1-5.8.7-1.2 1.8-2.2 3.3-2.9 1.5-.7 3.4-1 5.5-1 2.3 0 4.4.4 6 1.1 1.7.8 2.8 1.7 3.3 2.9s.8 3.1.8 5.9v1.3zM169.8 53.9v7.8c.7-.7 1.5-1.2 2.4-1.6.9-.3 1.8-.5 2.8-.5 1.5 0 2.8.4 3.9 1.2 1.1.8 1.7 1.7 2 2.7s.4 2.9.4 5.5v19.7h-8.7V68.6c0-1.7-.1-2.7-.2-3.2-.2-.5-.5-.7-1.1-.7-.5 0-.9.2-1.1.7-.2.5-.3 1.5-.3 2.9v20.3h-8.7V53.9h8.6zM203.9 74.9h-11.2V81c0 1.3.1 2.1.3 2.5.2.4.5.6 1.1.6.7 0 1.1-.2 1.3-.7.2-.5.3-1.5.3-2.9v-3.8h8.2v2.1c0 1.8-.1 3.1-.3 4.1-.2.9-.7 2-1.6 3s-1.9 1.9-3.1 2.4c-1.3.5-2.8.8-4.7.8-1.8 0-3.5-.3-4.9-.8-1.4-.5-2.5-1.3-3.3-2.2-.8-.9-1.3-1.9-1.6-3.1-.3-1.1-.5-2.7-.5-4.8V70c0-2.5.3-4.5 1-5.9.7-1.4 1.8-2.5 3.3-3.3 1.5-.8 3.3-1.1 5.3-1.1 2.4 0 4.4.5 6 1.4 1.6.9 2.7 2.1 3.3 3.7.6 1.5 1 3.7 1 6.4v3.7zm-8.7-4.7v-2.1c0-1.5-.1-2.4-.2-2.9-.2-.4-.5-.6-1-.6-.6 0-1 .2-1.1.5-.1.4-.2 1.4-.2 3v2.1h2.5zM226.3 74.9h-11.2V81c0 1.3.1 2.1.3 2.5.2.4.5.6 1.1.6.7 0 1.1-.2 1.3-.7.2-.5.3-1.5.3-2.9v-3.8h8.2v2.1c0 1.8-.1 3.1-.3 4.1-.2.9-.7 2-1.6 3s-1.9 1.9-3.1 2.4c-1.3.5-2.8.8-4.7.8-1.8 0-3.5-.3-4.9-.8-1.4-.5-2.5-1.3-3.3-2.2-.8-.9-1.3-1.9-1.6-3.1-.3-1.1-.5-2.7-.5-4.8V70c0-2.5.3-4.5 1-5.9.7-1.4 1.8-2.5 3.3-3.3 1.5-.8 3.3-1.1 5.3-1.1 2.4 0 4.4.5 6 1.4 1.6.9 2.7 2.1 3.3 3.7.6 1.5 1 3.7 1 6.4v3.7zm-8.7-4.7v-2.1c0-1.5-.1-2.4-.2-2.9-.2-.4-.5-.6-1-.6-.6 0-1 .2-1.1.5-.1.4-.2 1.4-.2 3v2.1h2.5zM238.3 56.3v4.5h2.3v4.5h-2.3v15.3c0 1.9.1 2.9.3 3.1s1 .3 2.4.3v4.6h-3.5c-2 0-3.4-.1-4.2-.2-.8-.2-1.6-.5-2.2-1.1-.6-.6-1-1.3-1.2-2-.2-.8-.2-2.6-.2-5.4V65.3h-1.9v-4.5h1.9v-4.5h8.6z"/></svg>