<svg id="Слой_1" xmlns="http://www.w3.org/2000/svg" viewBox="0 0 220 85"><style>.st0{fill:#00F387;}</style><path class="st0" d="M100.4 20c0 .8-.6 1.8-1.7 3.1l-1 1c-.4.4-.8.8-1.3 1.1-.5.4-.9.8-1.4 1.1-.5.4-.9.7-1.3 1-1.3 1-2.6 1.9-4 2.8s-2.8 1.7-4.2 2.3c-1.4.7-2.9 1.2-4.3 1.6-1.4.4-2.8.6-4.1.6-1.4 0-2.7-.2-3.8-.6-1.1-.4-2-1-2.7-1.8-.7-.8-1.2-1.7-1.6-2.8-.3-1.1-.5-2.3-.5-3.6 0-1.2.1-2.4.4-3.7.3-1.2.6-2.5 1.1-3.7.5-1.2 1-2.4 1.7-3.5.6-.9 1.3-1.9 2.1-2.9.5-.6 1-1.2 1.6-1.8.6-.6 1.2-1.2 1.9-1.7.6-.6 1.3-1.1 2-1.6s1.3-.9 2-1.3c.4-.2.9-.5 1.6-.8s1.3-.6 2-.9c.7-.3 1.4-.5 2.1-.7.7-.2 1.3-.3 1.8-.3.8 0 1.5.1 2 .2s.9.3 1.3.6c.2.1.4.3.6.6.2.3.5.6.7.9s.4.7.5 1c.1.3.2.6.2.8 0 .2-.1.6-.3 1-.2.5-.5.9-.7 1.4s-.6.9-.8 1.4c-.3.4-.5.7-.6.9-.5.6-1.1.9-1.8.9-.5 0-1-.2-1.3-.5-.3-.3-.5-.7-.5-1.2 0-.2.1-.4.3-.8s.5-.8 1-1.3.8-.9 1.1-1.3c.3-.4.4-.7.5-.8-.3-.2-.6-.3-1-.4-.4-.1-.7-.2-1.1-.2-.5 0-1.1.1-1.8.3-.7.2-1.4.5-2.2.9-.9.3-1.6.7-2.3 1.1-.7.4-1.3.8-1.8 1.2-1.4 1.1-2.6 2.4-3.8 3.7-1.2 1.3-2.1 2.8-2.9 4.3-.3.7-.6 1.3-.9 2.1-.3.7-.5 1.4-.7 2.2-.2.7-.4 1.5-.5 2.2-.1.7-.2 1.4-.2 2.1 0 .8.1 1.5.3 2.2.2.7.5 1.3.9 1.8s1 .9 1.6 1.2 1.5.4 2.5.4c1.1 0 2.2-.1 3.3-.4 1.1-.3 2.2-.7 3.4-1.2 1.1-.5 2.2-1.1 3.3-1.7 1.1-.6 2.1-1.3 3.2-2 1-.7 2-1.4 2.9-2.1.9-.7 1.7-1.4 2.5-2 .3-.3.6-.5 1-.8.3-.3.7-.6 1-.9.3-.3.7-.6 1-.9l.8-.8c.6 0 .9.4.9 1z"/><path class="st0" d="M120 7.5c0 .2 0 .4-.1.6 0 .3-.1.5-.2.8-.1.3-.2.5-.3.7l-.3.6c-.3.4-.9.6-1.7.6 0-.9-.1-1.7-.4-2.3-.1-.3-.3-.5-.7-.7s-.7-.4-1.1-.5L114 7c-.4-.1-.7-.1-1-.1h-1.9c-.6 0-1.2.1-1.7.2-.6.1-1.1.2-1.7.4l-1.8.6c-.5.2-1 .4-1.5.7-.5.3-1 .6-1.4.9-.4.3-.8.7-1.1 1.1-.3.4-.5.9-.6 1.4 0 .4.1.8.3 1.3.3.5.6.9 1 1.4.4.5.9.9 1.5 1.2.6.4 1.2.6 1.8.8.1 0 .4.1.7.3.4.1.8.3 1.3.4.4.1.9.3 1.2.4.4.1.6.2.7.2 3 .8 5.3 1.7 6.7 2.8 1.5 1.1 2.2 2.4 2.2 3.9 0 .5-.1 1-.3 1.5-.2.5-.5 1-.8 1.4-.3.4-.7.9-1.1 1.2-.4.4-.7.7-1.1.9-.4.3-.8.6-1.3 1-.5.3-1 .6-1.6 1-.6.3-1.1.6-1.7.9s-1.2.5-1.8.7c-.6.2-1.2.4-1.9.6-.7.2-1.3.3-2 .4-.6.1-1.3.2-1.9.3-.6.1-1.1.1-1.6.1-.3 0-.8-.1-1.4-.1-.6-.1-1.1-.2-1.6-.4s-1-.4-1.4-.6c-.4-.2-.6-.5-.6-.8 0-.2 0-.4.1-.6 0-.3.1-.5.2-.7l.3-.6c.1-.2.2-.3.4-.3.3 0 .5 0 .8.1s.6.2 1 .3c.4.1.9.2 1.4.3.5.1 1.2.1 2 .1s1.6-.1 2.5-.3c.9-.2 1.7-.4 2.5-.7.8-.3 1.6-.6 2.4-1 .8-.4 1.4-.7 2-1.1.3-.2.6-.4.9-.7.3-.2.7-.5.9-.8.3-.3.5-.6.7-.9.2-.3.3-.7.3-1 0-.5-.4-1-1.1-1.5-.7-.5-1.5-.8-2.3-1.1-.8-.3-1.5-.5-2.1-.6-.7-.2-1.6-.4-2.5-.7-.9-.3-1.9-.7-3-1.1-1.8-.7-3.4-1.7-4.6-3-1.3-1.3-1.9-2.9-1.9-4.8 0-.9.2-1.7.8-2.5.6-.8 1.3-1.6 2.3-2.3 1-.7 2.1-1.3 3.3-1.9 1.2-.5 2.5-1 3.8-1.3.3-.1.6-.1 1-.2s.8-.1 1.2-.2c.4 0 .8-.1 1.2-.1h1c.3 0 .7 0 1.2.1.5 0 1 .1 1.5.2l1.5.3c.5.1.8.3 1.1.4.7.4 1.2.8 1.6 1.3.8.4 1 .9 1 1.4zM145.1 7.5c0 .2 0 .4-.1.6 0 .3-.1.5-.2.8-.1.3-.2.5-.3.7l-.3.6c-.3.4-.9.6-1.7.6 0-.9-.1-1.7-.4-2.3-.1-.3-.3-.5-.7-.7-.3-.2-.7-.4-1.1-.5l-1.2-.3c-.4-.1-.7-.1-1-.1h-1.9c-.6 0-1.2.1-1.7.2-.6.1-1.1.2-1.7.4l-1.8.6c-.5.2-1 .4-1.5.7-.5.3-1 .6-1.4.9-.4.3-.8.7-1.1 1.1-.3.4-.5.9-.6 1.4 0 .4.1.8.3 1.3.3.5.6.9 1 1.4.4.5.9.9 1.5 1.2.6.4 1.2.6 1.8.8.1 0 .4.1.7.3.4.1.8.3 1.3.4.4.1.9.3 1.2.4.4.1.6.2.7.2 3 .8 5.3 1.7 6.7 2.8 1.5 1.1 2.2 2.4 2.2 3.9 0 .5-.1 1-.3 1.5-.2.5-.5 1-.8 1.4-.3.4-.7.9-1.1 1.2-.4.4-.7.7-1.1.9-.4.3-.8.6-1.3 1-.5.3-1 .6-1.6 1-.6.3-1.1.6-1.7.9-.6.3-1.2.5-1.8.7-.6.2-1.2.4-1.9.6-.7.2-1.3.3-2 .4-.6.1-1.3.2-1.9.3-.6.1-1.1.1-1.6.1-.3 0-.8-.1-1.4-.1-.6-.1-1.1-.2-1.6-.4s-1-.4-1.4-.6c-.4-.2-.6-.5-.6-.8 0-.2 0-.4.1-.6 0-.3.1-.5.2-.7l.3-.6c.1-.2.2-.3.4-.3.3 0 .5 0 .8.1s.6.2 1 .3c.4.1.9.2 1.4.3.5.1 1.2.1 2 .1s1.6-.1 2.5-.3c.9-.2 1.7-.4 2.5-.7.8-.3 1.6-.6 2.4-1 .8-.4 1.4-.7 2-1.1.3-.2.6-.4.9-.7.3-.2.7-.5 1-.8.3-.3.5-.6.7-.9.2-.3.3-.7.3-1 0-.5-.4-1-1.1-1.5-.7-.5-1.5-.8-2.3-1.1-.8-.3-1.5-.5-2.1-.6-.7-.2-1.6-.4-2.5-.7-.9-.3-1.9-.7-3-1.1-1.8-.7-3.4-1.7-4.6-3-1.3-1.3-1.9-2.9-1.9-4.8 0-.9.2-1.7.8-2.5.6-.8 1.3-1.6 2.3-2.3 1-.7 2.1-1.3 3.3-1.9 1.2-.5 2.5-1 3.8-1.3.3-.1.6-.1 1-.2s.8-.1 1.2-.2c.4 0 .8-.1 1.2-.1h1c.3 0 .7 0 1.2.1.5 0 1 .1 1.5.2l1.5.3c.5.1.8.3 1.1.4.7.4 1.2.8 1.6 1.3.7.4.9.9.9 1.4zM33.7 80.8c0 .5-.2 1-.5 1.4-.3.4-.8.6-1.3.6-.2 0-.4-.1-.6-.2-.2-.1-.4-.3-.6-.6-.2-.2-.5-.6-.7-.9-.5-.8-.9-1.6-1.4-2.4-.4-.8-.7-1.6-1-2.2-.1-.2-.1-.4-.2-.5-.1-.2-.1-.3-.2-.5s-.1-.3-.2-.5-.2-.4-.3-.7c-.4-1.1-.7-1.9-.8-2.3-.2.2-.4.3-.5.4-.2.1-.4.2-.6.2-.2 0-.4.1-.6.1h-.7c-.1 0-.3 0-.5.1s-.4.1-.7.2c-.2.1-.5.1-.7.2-.2.1-.4.1-.6.2-.7.2-1.3.4-2 .5-.7.1-1.4.3-2.1.4-.7.1-1.5.3-2.3.4-.8.1-1.6.3-2.5.4-.4.1-.8.3-1.1.8-.3.5-1.1 1.5-2.2 3s-2 2.6-2.7 3.3c-.7.7-1.4 1.1-2.1 1.1-.9 0-1.6-.2-2.2-.5-.7-.4-1-.9-1-1.4 0-.3.1-.4.4-.5.3-.1.7-.2 1.2-.3.2 0 .5-.3 1.1-1 .5-.6 1-1.1 1.2-1.5.6-.7 1.1-1.5 1.7-2.4.6-.8 1.2-1.8 2-2.8.3-.5.7-1 .9-1.4.3-.4.5-.7.7-1l.6-.9c.2-.3.5-.7.8-1.1.1-.2.3-.4.5-.7.2-.3.4-.6.7-.9.3-.3.5-.7.7-.9.2-.3.4-.5.5-.7.2-.2.4-.5.6-.8.2-.3.5-.7.9-1.1.1-.1.3-.4.6-.9s.7-1.2 1.3-2c.7-1.2 1.2-2.1 1.5-2.7 1.6-3.8 2.7-5.7 3.5-5.7.3 0 .6 0 .8.1.2.1.4.2.5.3.1.1.2.3.2.6 0 .2.1.5.1.9v1.8c0 .3 0 .7-.1 1.2.7 1.4 1.3 2.9 1.9 4.5.3.8.6 1.7 1 2.7.3 1 .7 2 1.1 3.2.4 1.1.7 2.1 1 2.9.3.8.5 1.5.7 2 .2.5.4 1.1.7 1.7.3.7.6 1.4.9 2.2.1.3.6 1 1.5 2.2.8 1 1.2 1.9 1.2 2.4zM24.8 69c-.2-.7-.5-1.5-.8-2.4-.3-.8-.6-1.7-.9-2.5-.3-.8-.6-1.7-.9-2.5-.3-.8-.6-1.5-.9-2.1-.7 1-1.5 2-2.1 2.9-.7.9-1.3 1.9-1.9 2.8-.6.9-1.2 1.9-1.8 2.9-.6 1-1.2 2-1.9 3.2.1.1.3.1.4.1.2 0 .5 0 .8-.1.3 0 .6-.1 1-.1.3 0 .6-.1.9-.1.3-.1.5-.1.7-.1.3-.1.6-.1.8-.2.2-.1.5-.1.7-.2.2-.1.4-.1.7-.2.2-.1.5-.1.9-.2.8-.2 1.5-.4 2.3-.6.7-.3 1.4-.4 2-.6zM39 76.2c.2-.6.4-1.4.6-2.4.2-1 .4-2 .7-3.1s.5-2.3.7-3.5c.2-1.2.5-2.4.7-3.6.2-1.1.4-2.2.5-3.2.1-1 .2-1.9.3-2.6v-.9-.9c0-.3.1-.6.3-.9.1-.3.4-.5.8-.7.5-.2.9-.3 1.2-.3.4 0 .8.2 1.2.4.1.1.2.2.3.4.1.2.2.5.3.8.1.3.2.7.2 1s.1.7.2.9c.2.6.4 1.4.9 2.3.4.9.9 1.9 1.5 3s1.3 2.3 2 3.5c.8 1.2 1.5 2.5 2.4 3.7.8 1.2 1.7 2.4 2.6 3.6.9 1.2 1.7 2.3 2.6 3.3.4-1.4.7-2.7.9-4 .3-1.3.5-2.5.7-3.7l.6-3.6c.2-1.2.4-2.4.6-3.7.1-.7.2-1.4.3-2.2l.3-2.4.3-2.4c.1-.8.1-1.4.1-2v-.7-.7c0-.2.1-.4.1-.6.1-.2.2-.4.4-.5.4-.4.8-.6 1.2-.7.3-.1.7-.1 1.1-.1.2 0 .4.1.5.3.2.2.3.5.4.8l.3.9s.1.6.1.8c0 .2 0 .5-.1.8-.1.4-.1.8-.3 1.2-.1.4-.2.9-.3 1.3-.1.4-.2.8-.3 1-.3 1.2-.6 2.6-.9 4-.3 1.5-.6 2.9-.9 4.4-.3 1.5-.6 3-.8 4.4-.3 1.4-.5 2.7-.7 3.9-.2 1.1-.3 2.1-.4 2.9-.1.8-.1 1.2-.1 1.4v2.7c0 .3 0 .6-.1.8l-.3.6c-.1.2-.3.3-.5.4-.2.1-.3.2-.5.2-.2.1-.4.1-.6.1-.2 0-.5.1-.7.1h-.6s-.3-.1-.4-.2c-.5-.5-.9-.9-1.3-1.4-.3-.4-.6-.9-.7-1.3 0-.1-.1-.3-.2-.5s-.2-.4-.4-.6-.3-.4-.4-.5c-.1-.2-.2-.3-.3-.4-.9-1.1-1.7-2.3-2.6-3.4-.8-1.1-1.7-2.4-2.5-3.7-.8-1.3-1.7-2.7-2.6-4.2-.9-1.5-1.8-3.1-2.7-4.9-.4 1.3-.7 2.8-1 4.3-.3 1.5-.6 3-.8 4.4-.2 1.5-.5 2.8-.6 4.1-.2 1.3-.3 2.4-.5 3.3 0 .3-.1.6-.1 1V81c0 .4-.1.6-.2.8-.1.1-.2.3-.3.5-.1.2-.3.4-.5.6-.2.2-.4.3-.6.5-.2.1-.4.2-.6.2-.4 0-.7-.1-.9-.2-.2-.1-.4-.3-.5-.5s-.2-.5-.3-.9c-.1-.3-.1-.7-.1-1.2V80c0-.4.1-.8.2-1.3s.2-.9.3-1.4c.6-.2.7-.7.8-1.1zM79.9 56.3c0 .3-.2 1.2-.8 2.5-.3.7-.5 1.2-.6 1.7-.1.4-.2.8-.3 1-.3 1.6-.5 3.3-.8 5.1-.2 1.8-.5 3.8-.7 5.9-.1.6-.1 1.1-.2 1.5-.1.4-.1.8-.1 1 0 .3-.1.6-.1.9s-.1.7-.1 1c0 .4 0 .7-.1 1v.9c0 .2.1.4.3.7.2.3.2.5.3.8 0 .5-.3.9-1 1.4-.3.2-.6.4-.9.5-.3.1-.6.2-.8.2-.4 0-.7-.1-.9-.3-.3-.3-.5-.6-.6-1-.2-.4-.3-.7-.3-1 0-.8-.1-1.7 0-2.5 0-.8.1-1.7.2-2.6.1-.9.2-1.8.4-2.9.2-1.1.3-2.3.6-3.6.2-.9.3-1.8.5-2.6s.3-1.6.5-2.3c.1-.7.3-1.6.5-2.5.2-.9.4-1.9.6-3.1.1-.4.1-.7.2-1 .1-.3.1-.5.1-.7 0-.2.1-.4.1-.7.1-.3.1-.7.2-1.2 0-.2.1-.3.2-.6l.3-.6c.1-.2.3-.4.4-.5.2-.1.3-.2.5-.2.3 0 .6 0 .9.2.3.1.6.3.8.6.3.3.5.6.6.9.1.3.2.6.2 1v.6s-.2.3-.1.5zM119.9 51.8c0 .2 0 .3-.1.4-.1.1-.1.2-.3.4-.1.2-.2.3-.3.4s-.1.2-.1.3v.1c0 .1 0 .2-.1.3-.1.2-.1.4-.2.6s-.1.3-.1.3c-.1.5-.2.9-.3 1.4-.1.4-.1.9-.1 1.5 0 1 0 2-.1 3 0 .5-.1 1-.1 1.6-.1.6-.1 1.1-.2 1.8s-.1 1.2-.2 1.8c-.1.6-.1 1.1-.2 1.6-.1.9-.2 1.9-.2 2.9s-.1 2.1-.1 3.2v2.8c0 1.1.1 2.5.1 4 .2.2.4.4.7.6.4.2.6.4.8.6.2.2.3.4.3.7 0 .5-.3 1-.8 1.5s-1.1.7-1.6.7c-1.3 0-2.2-.9-2.7-2.7-.5-1.8-.7-3.7-.7-5.6 0-.6 0-1.2.1-1.8.1-.6.2-1.2.2-1.8 0-.4.1-1 .2-1.9.1-.8.2-1.8.3-3 .1-1.2.2-2.1.3-2.8s.1-1 .1-1.1c0-.1 0-.2.1-.5 0-.2.1-.5.1-.8.1-.7.2-1.3.2-1.8s.1-.9.1-1.2V59v-.3c0-.1-.1-.3-.2-.5-.2.3-.5.7-.8 1.1-.3.4-.7.9-1 1.4-.8 1-1.4 1.9-1.9 2.6-.3.3-.5.7-.8 1-.2.3-.5.7-.8 1-.3.3-.5.7-.9 1.2-.3.4-.7.9-1.1 1.5-.9 1.2-1.7 2.4-2.6 3.7 0 .1-.1.2-.2.3-.1.1-.2.3-.4.5-.3.4-.5.7-.5.7-.9 1.2-1.8 2-2.6 2.2-1.3-.4-2.2-1-2.6-1.8l-.3-.6s-.2-.3-.3-.5c-.1-.1-.2-.3-.2-.4-.1-.1-.2-.3-.3-.5-.3-.5-.5-.9-.7-1.3-.2-.4-.4-.7-.6-1-.3-.6-.7-1.3-1-2-.3-.7-.6-1.4-.9-2.2-.2-.5-.3-.9-.4-1.3-.1-.3-.2-.6-.2-.7-.1-.2-.1-.4-.2-.6-.1-.3-.2-.6-.3-1-.1-.4-.2-.8-.4-1.1-.1-.4-.3-.8-.4-1.2-.3-.8-.4-1.3-.4-1.4-.1.4-.2.8-.4 1.4s-.3 1.2-.5 1.8c-.2.6-.4 1.3-.5 2-.2.7-.3 1.2-.4 1.8-.1.5-.3 1-.4 1.5-.1.5-.2.9-.3 1.4-.2.8-.6 2.1-1 3.9-.3 1.1-.4 2.2-.4 3.3 0 .2 0 .5.1.9 0 .4.1.8.2 1.4.1.5.2 1 .2 1.4 0 .4.1.8.1 1.1 0 .3-.2.8-.5 1.3-.4.5-.7.8-1.1.8H86c-.7 0-1.3-.4-1.6-1.3-.3-.9-.5-1.8-.5-2.8 0-.3.1-.7.2-1.2.1-.3.1-.6.2-1s.2-.8.3-1.3c.1-.5.2-.8.3-1.1.1-.3.1-.4.1-.5.3-1.1.6-2.2.8-3.1.2-.9.5-1.7.6-2.4.2-.7.4-1.4.6-2.2l.6-2.4c.3-1 .5-1.8.7-2.4.2-.7.4-1.3.5-2 .1-.7.2-1.2.2-1.5.1-.3.2-.7.3-1 .1-.3.3-.7.4-1 .3-.7.7-1.1 1.1-1.1 1 0 1.8.1 2.4.3.6.2 1.1.6 1.4 1.3.2.3.3.6.5.9.1.3.2.6.3 1 .1.3.2.7.3 1.1.1.4.2.9.3 1.4.1.3.1.6.2.8l.3.9c1 3.1 2.6 6.3 4.6 9.3.1-.1.3-.2.6-.5.2-.1.3-.3.5-.4l.3-.3c.2-.2.4-.5.6-.8.2-.3.4-.6.6-1 .4-.7.8-1.3 1.1-1.9.4-.6.8-1.1 1.2-1.6.2-.2.5-.5.8-.9s.6-.8 1-1.3.7-.9 1-1.3c.3-.4.5-.7.7-.9.2-.3.4-.5.6-.7s.4-.5.6-.7c.2-.2.4-.5.6-.8.2-.3.5-.6.7-1 .1-.1.3-.4.6-.7.1-.2.3-.3.4-.4l.3-.3c.2-.3.5-.7.8-1.1.3-.4.6-.9.9-1.5.3-.6.7-1 .9-1.5.3-.4.5-.7.7-1 .1-.1.2-.2.4-.2s.4 0 .7.2c.3.1.6.3.9.5.3.2.5.4.7.6.5.4.6.6.6.8zM156.3 80.8c0 .5-.2 1-.5 1.4-.3.4-.8.6-1.3.6-.2 0-.4-.1-.6-.2-.2-.1-.4-.3-.6-.6-.2-.2-.5-.6-.7-.9-.5-.8-.9-1.6-1.4-2.4-.4-.8-.7-1.6-1-2.2-.1-.2-.1-.4-.2-.5-.1-.2-.1-.3-.2-.5s-.2-.3-.2-.5c-.1-.2-.2-.4-.3-.7-.4-1.1-.7-1.9-.8-2.3-.2.2-.4.3-.5.4-.2.1-.4.2-.6.2-.2 0-.4.1-.6.1h-.7c-.1 0-.3 0-.5.1s-.4.1-.7.2c-.2.1-.5.1-.7.2-.2.1-.4.1-.6.2-.7.2-1.3.4-2 .5-.7.1-1.4.3-2.1.4-.7.1-1.5.3-2.3.4-.8.1-1.6.3-2.5.4-.4.1-.8.3-1.1.8-.3.5-1.1 1.5-2.2 3s-2 2.6-2.7 3.3c-.7.7-1.4 1.1-2.1 1.1-.9 0-1.6-.2-2.2-.5-.7-.4-1-.9-1-1.4 0-.3.1-.4.4-.5.3-.1.7-.2 1.2-.3.2 0 .5-.3 1.1-1 .5-.6 1-1.1 1.2-1.5.6-.7 1.1-1.5 1.7-2.4.6-.8 1.2-1.8 2-2.8.3-.5.7-1 .9-1.4.3-.4.5-.7.7-1l.6-.9c.2-.3.5-.7.8-1.1.1-.2.3-.4.5-.7.2-.3.4-.6.7-.9.3-.3.5-.7.7-.9.2-.3.4-.5.5-.7.2-.2.4-.5.6-.8.2-.3.5-.7.9-1.1.1-.1.3-.4.6-.9s.7-1.2 1.3-2c.7-1.2 1.2-2.1 1.5-2.7 1.6-3.8 2.7-5.7 3.5-5.7.3 0 .6 0 .8.1.2.1.4.2.5.3.1.1.2.3.2.6 0 .2.1.5.1.9v1.8c0 .3 0 .7-.1 1.2.7 1.4 1.3 2.9 1.9 4.5.3.8.6 1.7 1 2.7.3 1 .7 2 1.1 3.2.4 1.1.7 2.1 1 2.9.3.8.5 1.5.7 2 .2.5.4 1.1.7 1.7.3.7.6 1.4.9 2.2.1.3.6 1 1.5 2.2.8 1 1.2 1.9 1.2 2.4zM147.4 69c-.2-.7-.5-1.5-.8-2.4-.3-.8-.6-1.7-.9-2.5-.3-.8-.6-1.7-.9-2.5-.3-.8-.6-1.5-.9-2.1-.7 1-1.5 2-2.1 2.9-.7.9-1.3 1.9-1.9 2.8-.6.9-1.2 1.9-1.8 2.9-.6 1-1.2 2-1.9 3.2.1.1.3.1.4.1.2 0 .5 0 .8-.1.3 0 .6-.1 1-.1.3 0 .6-.1.9-.1.3-.1.5-.1.7-.1.3-.1.6-.1.8-.2.2-.1.5-.1.7-.2.2-.1.4-.1.7-.2.2-.1.5-.1.9-.2.8-.2 1.5-.4 2.3-.6.7-.3 1.4-.4 2-.6zM189 55.4c0 .4 0 .7-.1.9-.1.2-.2.4-.3.4-.1.1-.3.1-.5.1h-5.4c-.6 0-1.2 0-2 .1s-1.5.2-2.3.4c-.8.1-1.4.3-2.1.5-.6.2-1 .3-1.3.5l-.3.3c-.1.1-.2.3-.2.4-.1.2-.1.3-.2.5s-.1.3-.1.4c-.1 1.4-.3 2.8-.5 4.2-.2 1.4-.3 2.8-.5 4.1-.1 1.4-.3 2.7-.4 4.1-.1 1.3-.2 2.7-.2 4 0 .2 0 .6.1 1s.1.9.2 1.4c.1.5.1.9.2 1.2.1.4.1.6.1.6 0 .3 0 .5-.1.8s-.2.5-.3.7c-.1.2-.3.4-.5.5-.2.1-.4.2-.7.2-.2 0-.3 0-.5-.1s-.4-.2-.5-.4c-.2-.2-.3-.4-.5-.6-.1-.2-.3-.5-.3-.7-.1-.3-.2-.7-.3-1.2-.1-.4-.1-.9-.2-1.4 0-.5-.1-.9-.1-1.4v-1.3-1-.5c0-.4 0-1 .1-1.9.1-.9.2-1.8.3-2.9s.3-2.2.4-3.3c.1-1.1.3-2.2.4-3.1.1-.9.2-1.7.3-2.3s.1-.9.1-.9c0-.2 0-.4-.1-.5-.1-.1-.2-.2-.3-.2h-.5c-.5 0-1.2 0-2 .1s-1.7.2-2.6.3c-.9.1-1.8.2-2.8.3-.9.1-1.8.1-2.6.1h-.6c-.2 0-.4 0-.6-.1-.2 0-.4-.1-.6-.2-.2-.1-.4-.3-.6-.5v-.5c0-.2 0-.4.1-.7 0-.2.1-.4.3-.6.1-.2.4-.3.6-.4.6-.1 1.3-.2 2.1-.3.8-.1 1.5-.1 2.3-.2s1.6-.1 2.3-.2 1.4-.1 2-.2c.4-.1.9-.1 1.5-.2s1.2-.2 1.9-.3c.6-.1 1.3-.2 1.9-.3.6-.1 1.1-.2 1.5-.3.8-.2 1.7-.3 2.6-.6l2.7-.6c.9-.2 1.8-.4 2.7-.5.9-.1 1.8-.2 2.6-.2h.5c.2 0 .5 0 .8.1.3 0 .6.1.9.1.3.1.6.1.9.2.1 0 .3.1.4.3.1.1.2.3.3.4s.1.3.2.5c.4.6.4.7.4.9zM217.4 53.6c0 .1 0 .3-.1.4-.1.2-.1.4-.2.5-.1.2-.2.3-.3.5s-.2.3-.3.3c-.4.2-.7.3-1 .4-.3.1-.7.2-1.1.3-1.3.2-2.5.4-3.7.6-1.2.2-2.3.3-3.4.4-1.1.1-2.1.2-3 .2-.9 0-1.7.1-2.3.1H197.3c-.4 0-.8 0-1.1-.1-.2.5-.3 1-.4 1.7-.1.7-.1 1.4-.2 2.1s-.1 1.4-.1 2.1c0 .7-.1 1.3-.1 1.8.3.2.5.3.7.4.2.1.4.2.6.2.2 0 .4.1.6.1h3.1c.4 0 .8 0 1.2-.1.4 0 .7-.1 1-.2.5-.1 1-.2 1.4-.2h1.2c.4 0 .8 0 1.2-.1.4 0 .8-.2 1.3-.4.3-.1.7-.3.9-.4.3-.1.5-.2.8-.3.3-.1.5-.1.7-.2.2 0 .5-.1.8-.1.2 0 .4.1.5.2.1.2.3.3.3.6s.1.5.2.8v.8c0 .3-.1.5-.3.7-.2.2-.5.4-.8.5l-.9.3c-.3.1-.5.1-.7.2-.3.1-.7.1-1.2.2-.5 0-1 .1-1.6.1-.5 0-1.1.1-1.6.1s-.9 0-1.3.1c-.9.1-1.9.2-2.9.2s-2 .1-3 .1c-.5 0-1 0-1.3.1l-1.2.3c-.1 0-.2.2-.3.5-.1.3-.2.7-.3 1.2-.1.5-.2 1-.4 1.6-.1.6-.3 1.1-.4 1.7-.2.8-.3 1.6-.4 2.2-.1.7-.1 1.1-.2 1.4l.3.3c.1.1.3.1.4.1h2.8c.5 0 1 0 1.5-.1.5 0 .9 0 1.3-.1.9-.1 1.8-.2 2.8-.3 1-.1 1.9-.2 2.8-.3.9-.1 1.8-.2 2.6-.4.8-.1 1.5-.3 2.1-.4 0 0 .1 0 .3-.1.2-.1.4-.1.8-.2.3-.1.6-.2 1-.3.4-.1.7-.2 1-.3.3-.1.6-.1.8-.2.2-.1.3-.1.3-.1.2 0 .4.1.6.2.2.1.4.3.5.4.1.2.3.4.4.6.1.2.1.5.1.8 0 .1-.1.3-.2.5s-.3.4-.4.6c-.2.2-.4.4-.7.6-.2.2-.5.3-.8.3-.7.1-1.3.2-1.9.3l-1.8.3c-.6.1-1.3.2-2 .2-.7.1-1.5.2-2.3.2-1 .1-2.1.2-3.1.3-1 .1-2 .2-2.9.4-.9.1-1.7.2-2.4.3-.7.1-1.2.2-1.6.3-.3.1-.6.1-1 .3-.4.1-.7.2-1.1.3-.4.1-.7.2-1 .3s-.6.1-.8.1c-.4 0-.7 0-1-.2-.3-.1-.5-.3-.7-.5-.2-.3-.3-.6-.4-1-.1-.4-.1-1-.1-1.6 0-.6.1-1.2.2-1.9.2-.7.4-1.6.6-2.6.1-.8.3-1.7.5-2.5s.4-1.6.5-2.5c.2-.8.3-1.6.4-2.5.1-.8.2-1.7.2-2.5 0-.6.1-1.2.1-1.8.1-.6.1-1.2.2-1.9.1-.6.1-1.3.2-1.9.1-.6.1-1.2.1-1.8v-.4-.4c0-.6.2-1.2.6-1.9.1-.2.3-.4.5-.5.2-.2.5-.4.8-.5.3-.2.6-.3.9-.4.3-.1.5-.1.8-.1.1 0 .4 0 .7.1.3.1.7.1 1 .2s.7.1 1 .2c.3.1.6.1.7.1h4.9c1-.1 2-.1 2.9-.2.9-.1 1.9-.2 2.9-.4.6-.1 1.2-.2 1.7-.4s1-.3 1.5-.5c.5-.1.9-.3 1.4-.4.5-.1.9-.2 1.4-.2.2 0 .3 0 .5.1s.3.2.5.3c.1.1.3.3.3.5.1.9.1 1.1.1 1.2z"/></svg>