<?xml version="1.0" encoding="utf-8"?>
<!-- Generator: Adobe Illustrator 21.0.0, SVG Export Plug-In . SVG Version: 6.00 Build 0)  -->
<svg version="1.1" id="Слой_1" xmlns="http://www.w3.org/2000/svg" xmlns:xlink="http://www.w3.org/1999/xlink" x="0px" y="0px"
	 viewBox="0 0 220 85" style="enable-background:new 0 0 220 85;" xml:space="preserve">
<style type="text/css">
	.st0{fill:#00F387;}
</style>
<g>
	<path class="st0" d="M100.4,20c0,0.8-0.6,1.8-1.7,3.1c-0.3,0.3-0.6,0.6-1,1c-0.4,0.4-0.8,0.8-1.3,1.1c-0.5,0.4-0.9,0.8-1.4,1.1
		c-0.5,0.4-0.9,0.7-1.3,1c-1.3,1-2.6,1.9-4,2.8s-2.8,1.7-4.2,2.3c-1.4,0.7-2.9,1.2-4.3,1.6c-1.4,0.4-2.8,0.6-4.1,0.6
		c-1.4,0-2.7-0.2-3.8-0.6c-1.1-0.4-2-1-2.7-1.8c-0.7-0.8-1.2-1.7-1.6-2.8c-0.3-1.1-0.5-2.3-0.5-3.6c0-1.2,0.1-2.4,0.4-3.7
		c0.3-1.2,0.6-2.5,1.1-3.7c0.5-1.2,1-2.4,1.7-3.5C72.3,14,73,13,73.8,12c0.5-0.6,1-1.2,1.6-1.8c0.6-0.6,1.2-1.2,1.9-1.7
		c0.6-0.6,1.3-1.1,2-1.6c0.7-0.5,1.3-0.9,2-1.3c0.4-0.2,0.9-0.5,1.6-0.8s1.3-0.6,2-0.9c0.7-0.3,1.4-0.5,2.1-0.7
		c0.7-0.2,1.3-0.3,1.8-0.3c0.8,0,1.5,0.1,2,0.2s0.9,0.3,1.3,0.6c0.2,0.1,0.4,0.3,0.6,0.6c0.2,0.3,0.5,0.6,0.7,0.9s0.4,0.7,0.5,1
		c0.1,0.3,0.2,0.6,0.2,0.8c0,0.2-0.1,0.6-0.3,1c-0.2,0.5-0.5,0.9-0.7,1.4s-0.6,0.9-0.8,1.4c-0.3,0.4-0.5,0.7-0.6,0.9
		c-0.5,0.6-1.1,0.9-1.8,0.9c-0.5,0-1-0.2-1.3-0.5c-0.3-0.3-0.5-0.7-0.5-1.2c0-0.2,0.1-0.4,0.3-0.8s0.5-0.8,1-1.3
		c0.5-0.5,0.8-0.9,1.1-1.3c0.3-0.4,0.4-0.7,0.5-0.8c-0.3-0.2-0.6-0.3-1-0.4c-0.4-0.1-0.7-0.2-1.1-0.2c-0.5,0-1.1,0.1-1.8,0.3
		c-0.7,0.2-1.4,0.5-2.2,0.9C84,7.6,83.3,8,82.6,8.4c-0.7,0.4-1.3,0.8-1.8,1.2c-1.4,1.1-2.6,2.4-3.8,3.7c-1.2,1.3-2.1,2.8-2.9,4.3
		c-0.3,0.7-0.6,1.3-0.9,2.1c-0.3,0.7-0.5,1.4-0.7,2.2c-0.2,0.7-0.4,1.5-0.5,2.2c-0.1,0.7-0.2,1.4-0.2,2.1c0,0.8,0.1,1.5,0.3,2.2
		c0.2,0.7,0.5,1.3,0.9,1.8c0.4,0.5,1,0.9,1.6,1.2s1.5,0.4,2.5,0.4c1.1,0,2.2-0.1,3.3-0.4c1.1-0.3,2.2-0.7,3.4-1.2
		c1.1-0.5,2.2-1.1,3.3-1.7c1.1-0.6,2.1-1.3,3.2-2c1-0.7,2-1.4,2.9-2.1c0.9-0.7,1.7-1.4,2.5-2c0.3-0.3,0.6-0.5,1-0.8
		c0.3-0.3,0.7-0.6,1-0.9c0.3-0.3,0.7-0.6,1-0.9c0.3-0.3,0.6-0.6,0.8-0.8C100.1,19,100.4,19.4,100.4,20z"/>
	<path class="st0" d="M120,7.5c0,0.2,0,0.4-0.1,0.6c0,0.3-0.1,0.5-0.2,0.8c-0.1,0.3-0.2,0.5-0.3,0.7c-0.1,0.2-0.2,0.4-0.3,0.6
		c-0.3,0.4-0.9,0.6-1.7,0.6c0-0.9-0.1-1.7-0.4-2.3c-0.1-0.3-0.3-0.5-0.7-0.7s-0.7-0.4-1.1-0.5c-0.4-0.1-0.8-0.2-1.2-0.3
		c-0.4-0.1-0.7-0.1-1-0.1c-0.6,0-1.3,0-1.9,0c-0.6,0-1.2,0.1-1.7,0.2c-0.6,0.1-1.1,0.2-1.7,0.4c-0.6,0.2-1.2,0.4-1.8,0.6
		c-0.5,0.2-1,0.4-1.5,0.7c-0.5,0.3-1,0.6-1.4,0.9c-0.4,0.3-0.8,0.7-1.1,1.1c-0.3,0.4-0.5,0.9-0.6,1.4c0,0.4,0.1,0.8,0.3,1.3
		c0.3,0.5,0.6,0.9,1,1.4c0.4,0.5,0.9,0.9,1.5,1.2c0.6,0.4,1.2,0.6,1.8,0.8c0.1,0,0.4,0.1,0.7,0.3c0.4,0.1,0.8,0.3,1.3,0.4
		c0.4,0.1,0.9,0.3,1.2,0.4c0.4,0.1,0.6,0.2,0.7,0.2c3,0.8,5.3,1.7,6.7,2.8c1.5,1.1,2.2,2.4,2.2,3.9c0,0.5-0.1,1-0.3,1.5
		c-0.2,0.5-0.5,1-0.8,1.4c-0.3,0.4-0.7,0.9-1.1,1.2c-0.4,0.4-0.7,0.7-1.1,0.9c-0.4,0.3-0.8,0.6-1.3,1c-0.5,0.3-1,0.6-1.6,1
		c-0.6,0.3-1.1,0.6-1.7,0.9s-1.2,0.5-1.8,0.7c-0.6,0.2-1.2,0.4-1.9,0.6c-0.7,0.2-1.3,0.3-2,0.4c-0.6,0.1-1.3,0.2-1.9,0.3
		c-0.6,0.1-1.1,0.1-1.6,0.1c-0.3,0-0.8-0.1-1.4-0.1c-0.6-0.1-1.1-0.2-1.6-0.4c-0.5-0.2-1-0.4-1.4-0.6c-0.4-0.2-0.6-0.5-0.6-0.8
		c0-0.2,0-0.4,0.1-0.6c0-0.3,0.1-0.5,0.2-0.7s0.2-0.4,0.3-0.6c0.1-0.2,0.2-0.3,0.4-0.3c0.3,0,0.5,0,0.8,0.1s0.6,0.2,1,0.3
		c0.4,0.1,0.9,0.2,1.4,0.3c0.5,0.1,1.2,0.1,2,0.1c0.8,0,1.6-0.1,2.5-0.3c0.9-0.2,1.7-0.4,2.5-0.7c0.8-0.3,1.6-0.6,2.4-1
		c0.8-0.4,1.4-0.7,2-1.1c0.3-0.2,0.6-0.4,0.9-0.7c0.3-0.2,0.7-0.5,0.9-0.8c0.3-0.3,0.5-0.6,0.7-0.9c0.2-0.3,0.3-0.7,0.3-1
		c0-0.5-0.4-1-1.1-1.5c-0.7-0.5-1.5-0.8-2.3-1.1c-0.8-0.3-1.5-0.5-2.1-0.6c-0.7-0.2-1.6-0.4-2.5-0.7c-0.9-0.3-1.9-0.7-3-1.1
		c-1.8-0.7-3.4-1.7-4.6-3c-1.3-1.3-1.9-2.9-1.9-4.8c0-0.9,0.2-1.7,0.8-2.5c0.6-0.8,1.3-1.6,2.3-2.3c1-0.7,2.1-1.3,3.3-1.9
		c1.2-0.5,2.5-1,3.8-1.3c0.3-0.1,0.6-0.1,1-0.2c0.4-0.1,0.8-0.1,1.2-0.2c0.4,0,0.8-0.1,1.2-0.1c0.4,0,0.7,0,1,0c0.3,0,0.7,0,1.2,0.1
		c0.5,0,1,0.1,1.5,0.2s1,0.2,1.5,0.3c0.5,0.1,0.8,0.3,1.1,0.4c0.7,0.4,1.2,0.8,1.6,1.3C119.8,6.5,120,7,120,7.5z"/>
	<path class="st0" d="M145.1,7.5c0,0.2,0,0.4-0.1,0.6c0,0.3-0.1,0.5-0.2,0.8c-0.1,0.3-0.2,0.5-0.3,0.7c-0.1,0.2-0.2,0.4-0.3,0.6
		c-0.3,0.4-0.9,0.6-1.7,0.6c0-0.9-0.1-1.7-0.4-2.3c-0.1-0.3-0.3-0.5-0.7-0.7c-0.3-0.2-0.7-0.4-1.1-0.5c-0.4-0.1-0.8-0.2-1.2-0.3
		c-0.4-0.1-0.7-0.1-1-0.1c-0.6,0-1.3,0-1.9,0c-0.6,0-1.2,0.1-1.7,0.2c-0.6,0.1-1.1,0.2-1.7,0.4c-0.6,0.2-1.2,0.4-1.8,0.6
		c-0.5,0.2-1,0.4-1.5,0.7c-0.5,0.3-1,0.6-1.4,0.9c-0.4,0.3-0.8,0.7-1.1,1.1c-0.3,0.4-0.5,0.9-0.6,1.4c0,0.4,0.1,0.8,0.3,1.3
		c0.3,0.5,0.6,0.9,1,1.4c0.4,0.5,0.9,0.9,1.5,1.2c0.6,0.4,1.2,0.6,1.8,0.8c0.1,0,0.4,0.1,0.7,0.3c0.4,0.1,0.8,0.3,1.3,0.4
		c0.4,0.1,0.9,0.3,1.2,0.4c0.4,0.1,0.6,0.2,0.7,0.2c3,0.8,5.3,1.7,6.7,2.8c1.5,1.1,2.2,2.4,2.2,3.9c0,0.5-0.1,1-0.3,1.5
		c-0.2,0.5-0.5,1-0.8,1.4c-0.3,0.4-0.7,0.9-1.1,1.2c-0.4,0.4-0.7,0.7-1.1,0.9c-0.4,0.3-0.8,0.6-1.3,1c-0.5,0.3-1,0.6-1.6,1
		c-0.6,0.3-1.1,0.6-1.7,0.9c-0.6,0.3-1.2,0.5-1.8,0.7c-0.6,0.2-1.2,0.4-1.9,0.6c-0.7,0.2-1.3,0.3-2,0.4c-0.6,0.1-1.3,0.2-1.9,0.3
		c-0.6,0.1-1.1,0.1-1.6,0.1c-0.3,0-0.8-0.1-1.4-0.1c-0.6-0.1-1.1-0.2-1.6-0.4c-0.5-0.2-1-0.4-1.4-0.6c-0.4-0.2-0.6-0.5-0.6-0.8
		c0-0.2,0-0.4,0.1-0.6c0-0.3,0.1-0.5,0.2-0.7s0.2-0.4,0.3-0.6c0.1-0.2,0.2-0.3,0.4-0.3c0.3,0,0.5,0,0.8,0.1s0.6,0.2,1,0.3
		c0.4,0.1,0.9,0.2,1.4,0.3c0.5,0.1,1.2,0.1,2,0.1c0.8,0,1.6-0.1,2.5-0.3c0.9-0.2,1.7-0.4,2.5-0.7c0.8-0.3,1.6-0.6,2.4-1
		c0.8-0.4,1.4-0.7,2-1.1c0.3-0.2,0.6-0.4,0.9-0.7c0.3-0.2,0.7-0.5,1-0.8c0.3-0.3,0.5-0.6,0.7-0.9c0.2-0.3,0.3-0.7,0.3-1
		c0-0.5-0.4-1-1.1-1.5c-0.7-0.5-1.5-0.8-2.3-1.1c-0.8-0.3-1.5-0.5-2.1-0.6c-0.7-0.2-1.6-0.4-2.5-0.7c-0.9-0.3-1.9-0.7-3-1.1
		c-1.8-0.7-3.4-1.7-4.6-3c-1.3-1.3-1.9-2.9-1.9-4.8c0-0.9,0.2-1.7,0.8-2.5c0.6-0.8,1.3-1.6,2.3-2.3c1-0.7,2.1-1.3,3.3-1.9
		c1.2-0.5,2.5-1,3.8-1.3c0.3-0.1,0.6-0.1,1-0.2c0.4-0.1,0.8-0.1,1.2-0.2c0.4,0,0.8-0.1,1.2-0.1c0.4,0,0.7,0,1,0c0.3,0,0.7,0,1.2,0.1
		c0.5,0,1,0.1,1.5,0.2s1,0.2,1.5,0.3c0.5,0.1,0.8,0.3,1.1,0.4c0.7,0.4,1.2,0.8,1.6,1.3C144.9,6.5,145.1,7,145.1,7.5z"/>
	<path class="st0" d="M33.7,80.8c0,0.5-0.2,1-0.5,1.4c-0.3,0.4-0.8,0.6-1.3,0.6c-0.2,0-0.4-0.1-0.6-0.2c-0.2-0.1-0.4-0.3-0.6-0.6
		c-0.2-0.2-0.5-0.6-0.7-0.9c-0.5-0.8-0.9-1.6-1.4-2.4c-0.4-0.8-0.7-1.6-1-2.2c-0.1-0.2-0.1-0.4-0.2-0.5c-0.1-0.2-0.1-0.3-0.2-0.5
		s-0.1-0.3-0.2-0.5c-0.1-0.2-0.2-0.4-0.3-0.7c-0.4-1.1-0.7-1.9-0.8-2.3c-0.2,0.2-0.4,0.3-0.5,0.4c-0.2,0.1-0.4,0.2-0.6,0.2
		c-0.2,0-0.4,0.1-0.6,0.1c-0.2,0-0.4,0-0.7,0c-0.1,0-0.3,0-0.5,0.1c-0.2,0.1-0.4,0.1-0.7,0.2c-0.2,0.1-0.5,0.1-0.7,0.2
		c-0.2,0.1-0.4,0.1-0.6,0.2c-0.7,0.2-1.3,0.4-2,0.5c-0.7,0.1-1.4,0.3-2.1,0.4c-0.7,0.1-1.5,0.3-2.3,0.4c-0.8,0.1-1.6,0.3-2.5,0.4
		c-0.4,0.1-0.8,0.3-1.1,0.8c-0.3,0.5-1.1,1.5-2.2,3c-1.1,1.5-2,2.6-2.7,3.3c-0.7,0.7-1.4,1.1-2.1,1.1c-0.9,0-1.6-0.2-2.2-0.5
		c-0.7-0.4-1-0.9-1-1.4c0-0.3,0.1-0.4,0.4-0.5c0.3-0.1,0.7-0.2,1.2-0.3c0.2,0,0.5-0.3,1.1-1c0.5-0.6,1-1.1,1.2-1.5
		c0.6-0.7,1.1-1.5,1.7-2.4c0.6-0.8,1.2-1.8,2-2.8c0.3-0.5,0.7-1,0.9-1.4c0.3-0.4,0.5-0.7,0.7-1c0.2-0.3,0.4-0.6,0.6-0.9
		c0.2-0.3,0.5-0.7,0.8-1.1c0.1-0.2,0.3-0.4,0.5-0.7c0.2-0.3,0.4-0.6,0.7-0.9c0.3-0.3,0.5-0.7,0.7-0.9c0.2-0.3,0.4-0.5,0.5-0.7
		c0.2-0.2,0.4-0.5,0.6-0.8c0.2-0.3,0.5-0.7,0.9-1.1c0.1-0.1,0.3-0.4,0.6-0.9c0.3-0.5,0.7-1.2,1.3-2c0.7-1.2,1.2-2.1,1.5-2.7
		c1.6-3.8,2.7-5.7,3.5-5.7c0.3,0,0.6,0,0.8,0.1c0.2,0.1,0.4,0.2,0.5,0.3c0.1,0.1,0.2,0.3,0.2,0.6c0,0.2,0.1,0.5,0.1,0.9
		c0,0.2,0,0.4,0,0.6c0,0.2,0,0.3,0,0.4c0,0.2,0,0.5,0,0.8c0,0.3,0,0.7-0.1,1.2c0.7,1.4,1.3,2.9,1.9,4.5c0.3,0.8,0.6,1.7,1,2.7
		c0.3,1,0.7,2,1.1,3.2c0.4,1.1,0.7,2.1,1,2.9c0.3,0.8,0.5,1.5,0.7,2c0.2,0.5,0.4,1.1,0.7,1.7c0.3,0.7,0.6,1.4,0.9,2.2
		c0.1,0.3,0.6,1,1.5,2.2C33.3,79.4,33.7,80.3,33.7,80.8z M24.8,69c-0.2-0.7-0.5-1.5-0.8-2.4c-0.3-0.8-0.6-1.7-0.9-2.5
		c-0.3-0.8-0.6-1.7-0.9-2.5c-0.3-0.8-0.6-1.5-0.9-2.1c-0.7,1-1.5,2-2.1,2.9c-0.7,0.9-1.3,1.9-1.9,2.8c-0.6,0.9-1.2,1.9-1.8,2.9
		c-0.6,1-1.2,2-1.9,3.2c0.1,0.1,0.3,0.1,0.4,0.1c0.2,0,0.5,0,0.8-0.1c0.3,0,0.6-0.1,1-0.1c0.3,0,0.6-0.1,0.9-0.1
		c0.3-0.1,0.5-0.1,0.7-0.1c0.3-0.1,0.6-0.1,0.8-0.2c0.2-0.1,0.5-0.1,0.7-0.2c0.2-0.1,0.4-0.1,0.7-0.2c0.2-0.1,0.5-0.1,0.9-0.2
		c0.8-0.2,1.5-0.4,2.3-0.6C23.5,69.3,24.2,69.2,24.8,69z"/>
	<path class="st0" d="M39,76.2c0.2-0.6,0.4-1.4,0.6-2.4c0.2-1,0.4-2,0.7-3.1s0.5-2.3,0.7-3.5c0.2-1.2,0.5-2.4,0.7-3.6
		c0.2-1.1,0.4-2.2,0.5-3.2c0.1-1,0.2-1.9,0.3-2.6c0-0.3,0-0.6,0-0.9c0-0.3,0-0.6,0-0.9c0-0.3,0.1-0.6,0.3-0.9
		c0.1-0.3,0.4-0.5,0.8-0.7c0.5-0.2,0.9-0.3,1.2-0.3c0.4,0,0.8,0.2,1.2,0.4c0.1,0.1,0.2,0.2,0.3,0.4c0.1,0.2,0.2,0.5,0.3,0.8
		c0.1,0.3,0.2,0.7,0.2,1s0.1,0.7,0.2,0.9c0.2,0.6,0.4,1.4,0.9,2.3c0.4,0.9,0.9,1.9,1.5,3c0.6,1.1,1.3,2.3,2,3.5
		c0.8,1.2,1.5,2.5,2.4,3.7c0.8,1.2,1.7,2.4,2.6,3.6c0.9,1.2,1.7,2.3,2.6,3.3c0.4-1.4,0.7-2.7,0.9-4c0.3-1.3,0.5-2.5,0.7-3.7
		c0.2-1.2,0.4-2.4,0.6-3.6c0.2-1.2,0.4-2.4,0.6-3.7c0.1-0.7,0.2-1.4,0.3-2.2s0.2-1.6,0.3-2.4c0.1-0.8,0.2-1.6,0.3-2.4
		c0.1-0.8,0.1-1.4,0.1-2c0-0.2,0-0.5,0-0.7c0-0.2,0-0.4,0-0.7c0-0.2,0.1-0.4,0.1-0.6c0.1-0.2,0.2-0.4,0.4-0.5
		c0.4-0.4,0.8-0.6,1.2-0.7c0.3-0.1,0.7-0.1,1.1-0.1c0.2,0,0.4,0.1,0.5,0.3c0.2,0.2,0.3,0.5,0.4,0.8c0.1,0.3,0.2,0.6,0.3,0.9
		s0.1,0.6,0.1,0.8c0,0.2,0,0.5-0.1,0.8c-0.1,0.4-0.1,0.8-0.3,1.2c-0.1,0.4-0.2,0.9-0.3,1.3c-0.1,0.4-0.2,0.8-0.3,1
		c-0.3,1.2-0.6,2.6-0.9,4c-0.3,1.5-0.6,2.9-0.9,4.4c-0.3,1.5-0.6,3-0.8,4.4c-0.3,1.4-0.5,2.7-0.7,3.9c-0.2,1.1-0.3,2.1-0.4,2.9
		c-0.1,0.8-0.1,1.2-0.1,1.4c0,0.2,0,0.4,0,0.7c0,0.3,0,0.5,0,0.8c0,0.2,0,0.5,0,0.7c0,0.2,0,0.4,0,0.5c0,0.3,0,0.6-0.1,0.8
		c-0.1,0.2-0.2,0.4-0.3,0.6c-0.1,0.2-0.3,0.3-0.5,0.4c-0.2,0.1-0.3,0.2-0.5,0.2c-0.2,0.1-0.4,0.1-0.6,0.1c-0.2,0-0.5,0.1-0.7,0.1
		c-0.2,0-0.4,0-0.6,0s-0.3-0.1-0.4-0.2c-0.5-0.5-0.9-0.9-1.3-1.4c-0.3-0.4-0.6-0.9-0.7-1.3c0-0.1-0.1-0.3-0.2-0.5
		c-0.1-0.2-0.2-0.4-0.4-0.6s-0.3-0.4-0.4-0.5c-0.1-0.2-0.2-0.3-0.3-0.4c-0.9-1.1-1.7-2.3-2.6-3.4c-0.8-1.1-1.7-2.4-2.5-3.7
		c-0.8-1.3-1.7-2.7-2.6-4.2c-0.9-1.5-1.8-3.1-2.7-4.9c-0.4,1.3-0.7,2.8-1,4.3c-0.3,1.5-0.6,3-0.8,4.4c-0.2,1.5-0.5,2.8-0.6,4.1
		c-0.2,1.3-0.3,2.4-0.5,3.3c0,0.3-0.1,0.6-0.1,1c0,0.4,0,0.8,0,1.2s0,0.8,0,1.1c0,0.4-0.1,0.6-0.2,0.8c-0.1,0.1-0.2,0.3-0.3,0.5
		c-0.1,0.2-0.3,0.4-0.5,0.6c-0.2,0.2-0.4,0.3-0.6,0.5c-0.2,0.1-0.4,0.2-0.6,0.2c-0.4,0-0.7-0.1-0.9-0.2c-0.2-0.1-0.4-0.3-0.5-0.5
		s-0.2-0.5-0.3-0.9c-0.1-0.3-0.1-0.7-0.1-1.2c0-0.2,0-0.5,0-0.8c0-0.4,0.1-0.8,0.2-1.3c0.1-0.5,0.2-0.9,0.3-1.4
		C38.8,77.1,38.9,76.6,39,76.2z"/>
	<path class="st0" d="M79.9,56.3c0,0.3-0.2,1.2-0.8,2.5c-0.3,0.7-0.5,1.2-0.6,1.7c-0.1,0.4-0.2,0.8-0.3,1c-0.3,1.6-0.5,3.3-0.8,5.1
		c-0.2,1.8-0.5,3.8-0.7,5.9c-0.1,0.6-0.1,1.1-0.2,1.5c-0.1,0.4-0.1,0.8-0.1,1c0,0.3-0.1,0.6-0.1,0.9s-0.1,0.7-0.1,1
		c0,0.4,0,0.7-0.1,1c0,0.3,0,0.6,0,0.9c0,0.2,0.1,0.4,0.3,0.7c0.2,0.3,0.2,0.5,0.3,0.8c0,0.5-0.3,0.9-1,1.4
		c-0.3,0.2-0.6,0.4-0.9,0.5c-0.3,0.1-0.6,0.2-0.8,0.2c-0.4,0-0.7-0.1-0.9-0.3c-0.3-0.3-0.5-0.6-0.6-1c-0.2-0.4-0.3-0.7-0.3-1
		c0-0.8-0.1-1.7,0-2.5c0-0.8,0.1-1.7,0.2-2.6c0.1-0.9,0.2-1.8,0.4-2.9c0.2-1.1,0.3-2.3,0.6-3.6c0.2-0.9,0.3-1.8,0.5-2.6
		c0.2-0.8,0.3-1.6,0.5-2.3c0.1-0.7,0.3-1.6,0.5-2.5c0.2-0.9,0.4-1.9,0.6-3.1c0.1-0.4,0.1-0.7,0.2-1c0.1-0.3,0.1-0.5,0.1-0.7
		c0-0.2,0.1-0.4,0.1-0.7c0.1-0.3,0.1-0.7,0.2-1.2c0-0.2,0.1-0.3,0.2-0.6c0.1-0.2,0.2-0.4,0.3-0.6c0.1-0.2,0.3-0.4,0.4-0.5
		c0.2-0.1,0.3-0.2,0.5-0.2c0.3,0,0.6,0,0.9,0.2c0.3,0.1,0.6,0.3,0.8,0.6c0.3,0.3,0.5,0.6,0.6,0.9c0.1,0.3,0.2,0.6,0.2,1
		c0,0.2,0,0.4,0,0.6S79.8,56.1,79.9,56.3z"/>
	<path class="st0" d="M119.9,51.8c0,0.2,0,0.3-0.1,0.4c-0.1,0.1-0.1,0.2-0.3,0.4c-0.1,0.2-0.2,0.3-0.3,0.4s-0.1,0.2-0.1,0.3
		c0,0,0,0.1,0,0.1c0,0.1,0,0.2-0.1,0.3c-0.1,0.2-0.1,0.4-0.2,0.6s-0.1,0.3-0.1,0.3c-0.1,0.5-0.2,0.9-0.3,1.4
		c-0.1,0.4-0.1,0.9-0.1,1.5c0,1,0,2-0.1,3c0,0.5-0.1,1-0.1,1.6c-0.1,0.6-0.1,1.1-0.2,1.8s-0.1,1.2-0.2,1.8c-0.1,0.6-0.1,1.1-0.2,1.6
		c-0.1,0.9-0.2,1.9-0.2,2.9c0,1-0.1,2.1-0.1,3.2c0,0.7,0,1.7,0,2.8c0,1.1,0.1,2.5,0.1,4c0.2,0.2,0.4,0.4,0.7,0.6
		c0.4,0.2,0.6,0.4,0.8,0.6c0.2,0.2,0.3,0.4,0.3,0.7c0,0.5-0.3,1-0.8,1.5c-0.5,0.5-1.1,0.7-1.6,0.7c-1.3,0-2.2-0.9-2.7-2.7
		c-0.5-1.8-0.7-3.7-0.7-5.6c0-0.6,0-1.2,0.1-1.8c0.1-0.6,0.2-1.2,0.2-1.8c0-0.4,0.1-1,0.2-1.9c0.1-0.8,0.2-1.8,0.3-3
		c0.1-1.2,0.2-2.1,0.3-2.8s0.1-1,0.1-1.1c0-0.1,0-0.2,0.1-0.5c0-0.2,0.1-0.5,0.1-0.8c0.1-0.7,0.2-1.3,0.2-1.8c0-0.5,0.1-0.9,0.1-1.2
		c0-0.1,0-0.2,0-0.3c0-0.1,0-0.2,0-0.3c0-0.1-0.1-0.3-0.2-0.5c-0.2,0.3-0.5,0.7-0.8,1.1c-0.3,0.4-0.7,0.9-1,1.4
		c-0.8,1-1.4,1.9-1.9,2.6c-0.3,0.3-0.5,0.7-0.8,1c-0.2,0.3-0.5,0.7-0.8,1c-0.3,0.3-0.5,0.7-0.9,1.2c-0.3,0.4-0.7,0.9-1.1,1.5
		c-0.9,1.2-1.7,2.4-2.6,3.7c0,0.1-0.1,0.2-0.2,0.3c-0.1,0.1-0.2,0.3-0.4,0.5c-0.3,0.4-0.5,0.7-0.5,0.7c-0.9,1.2-1.8,2-2.6,2.2
		c-1.3-0.4-2.2-1-2.6-1.8c-0.1-0.2-0.2-0.4-0.3-0.6s-0.2-0.3-0.3-0.5c-0.1-0.1-0.2-0.3-0.2-0.4c-0.1-0.1-0.2-0.3-0.3-0.5
		c-0.3-0.5-0.5-0.9-0.7-1.3c-0.2-0.4-0.4-0.7-0.6-1c-0.3-0.6-0.7-1.3-1-2c-0.3-0.7-0.6-1.4-0.9-2.2c-0.2-0.5-0.3-0.9-0.4-1.3
		c-0.1-0.3-0.2-0.6-0.2-0.7c-0.1-0.2-0.1-0.4-0.2-0.6c-0.1-0.3-0.2-0.6-0.3-1c-0.1-0.4-0.2-0.8-0.4-1.1c-0.1-0.4-0.3-0.8-0.4-1.2
		c-0.3-0.8-0.4-1.3-0.4-1.4c-0.1,0.4-0.2,0.8-0.4,1.4s-0.3,1.2-0.5,1.8c-0.2,0.6-0.4,1.3-0.5,2c-0.2,0.7-0.3,1.2-0.4,1.8
		c-0.1,0.5-0.3,1-0.4,1.5c-0.1,0.5-0.2,0.9-0.3,1.4c-0.2,0.8-0.6,2.1-1,3.9c-0.3,1.1-0.4,2.2-0.4,3.3c0,0.2,0,0.5,0.1,0.9
		c0,0.4,0.1,0.8,0.2,1.4c0.1,0.5,0.2,1,0.2,1.4c0,0.4,0.1,0.8,0.1,1.1c0,0.3-0.2,0.8-0.5,1.3c-0.4,0.5-0.7,0.8-1.1,0.8
		c-0.1,0-0.3,0-0.5,0c-0.2,0-0.4,0-0.6,0c-0.7,0-1.3-0.4-1.6-1.3c-0.3-0.9-0.5-1.8-0.5-2.8c0-0.3,0.1-0.7,0.2-1.2
		c0.1-0.3,0.1-0.6,0.2-1c0.1-0.4,0.2-0.8,0.3-1.3c0.1-0.5,0.2-0.8,0.3-1.1c0.1-0.3,0.1-0.4,0.1-0.5c0.3-1.1,0.6-2.2,0.8-3.1
		c0.2-0.9,0.5-1.7,0.6-2.4c0.2-0.7,0.4-1.4,0.6-2.2c0.2-0.8,0.4-1.6,0.6-2.4c0.3-1,0.5-1.8,0.7-2.4c0.2-0.7,0.4-1.3,0.5-2
		c0.1-0.7,0.2-1.2,0.2-1.5c0.1-0.3,0.2-0.7,0.3-1c0.1-0.3,0.3-0.7,0.4-1c0.3-0.7,0.7-1.1,1.1-1.1c1,0,1.8,0.1,2.4,0.3
		c0.6,0.2,1.1,0.6,1.4,1.3c0.2,0.3,0.3,0.6,0.5,0.9c0.1,0.3,0.2,0.6,0.3,1c0.1,0.3,0.2,0.7,0.3,1.1c0.1,0.4,0.2,0.9,0.3,1.4
		c0.1,0.3,0.1,0.6,0.2,0.8c0.1,0.3,0.2,0.6,0.3,0.9c1,3.1,2.6,6.3,4.6,9.3c0.1-0.1,0.3-0.2,0.6-0.5c0.2-0.1,0.3-0.3,0.5-0.4
		c0.1-0.1,0.2-0.2,0.3-0.3c0.2-0.2,0.4-0.5,0.6-0.8c0.2-0.3,0.4-0.6,0.6-1c0.4-0.7,0.8-1.3,1.1-1.9c0.4-0.6,0.8-1.1,1.2-1.6
		c0.2-0.2,0.5-0.5,0.8-0.9s0.6-0.8,1-1.3c0.4-0.5,0.7-0.9,1-1.3c0.3-0.4,0.5-0.7,0.7-0.9c0.2-0.3,0.4-0.5,0.6-0.7s0.4-0.5,0.6-0.7
		c0.2-0.2,0.4-0.5,0.6-0.8c0.2-0.3,0.5-0.6,0.7-1c0.1-0.1,0.3-0.4,0.6-0.7c0.1-0.2,0.3-0.3,0.4-0.4c0.1-0.1,0.2-0.2,0.3-0.3
		c0.2-0.3,0.5-0.7,0.8-1.1c0.3-0.4,0.6-0.9,0.9-1.5c0.3-0.6,0.7-1,0.9-1.5c0.3-0.4,0.5-0.7,0.7-1c0.1-0.1,0.2-0.2,0.4-0.2
		c0.2,0,0.4,0,0.7,0.2c0.3,0.1,0.6,0.3,0.9,0.5c0.3,0.2,0.5,0.4,0.7,0.6C119.8,51.4,119.9,51.6,119.9,51.8z"/>
	<path class="st0" d="M156.3,80.8c0,0.5-0.2,1-0.5,1.4c-0.3,0.4-0.8,0.6-1.3,0.6c-0.2,0-0.4-0.1-0.6-0.2c-0.2-0.1-0.4-0.3-0.6-0.6
		c-0.2-0.2-0.5-0.6-0.7-0.9c-0.5-0.8-0.9-1.6-1.4-2.4c-0.4-0.8-0.7-1.6-1-2.2c-0.1-0.2-0.1-0.4-0.2-0.5c-0.1-0.2-0.1-0.3-0.2-0.5
		s-0.2-0.3-0.2-0.5c-0.1-0.2-0.2-0.4-0.3-0.7c-0.4-1.1-0.7-1.9-0.8-2.3c-0.2,0.2-0.4,0.3-0.5,0.4c-0.2,0.1-0.4,0.2-0.6,0.2
		c-0.2,0-0.4,0.1-0.6,0.1c-0.2,0-0.4,0-0.7,0c-0.1,0-0.3,0-0.5,0.1c-0.2,0.1-0.4,0.1-0.7,0.2c-0.2,0.1-0.5,0.1-0.7,0.2
		c-0.2,0.1-0.4,0.1-0.6,0.2c-0.7,0.2-1.3,0.4-2,0.5c-0.7,0.1-1.4,0.3-2.1,0.4c-0.7,0.1-1.5,0.3-2.3,0.4c-0.8,0.1-1.6,0.3-2.5,0.4
		c-0.4,0.1-0.8,0.3-1.1,0.8c-0.3,0.5-1.1,1.5-2.2,3c-1.1,1.5-2,2.6-2.7,3.3c-0.7,0.7-1.4,1.1-2.1,1.1c-0.9,0-1.6-0.2-2.2-0.5
		c-0.7-0.4-1-0.9-1-1.4c0-0.3,0.1-0.4,0.4-0.5c0.3-0.1,0.7-0.2,1.2-0.3c0.2,0,0.5-0.3,1.1-1c0.5-0.6,1-1.1,1.2-1.5
		c0.6-0.7,1.1-1.5,1.7-2.4c0.6-0.8,1.2-1.8,2-2.8c0.3-0.5,0.7-1,0.9-1.4c0.3-0.4,0.5-0.7,0.7-1c0.2-0.3,0.4-0.6,0.6-0.9
		c0.2-0.3,0.5-0.7,0.8-1.1c0.1-0.2,0.3-0.4,0.5-0.7c0.2-0.3,0.4-0.6,0.7-0.9c0.3-0.3,0.5-0.7,0.7-0.9c0.2-0.3,0.4-0.5,0.5-0.7
		c0.2-0.2,0.4-0.5,0.6-0.8c0.2-0.3,0.5-0.7,0.9-1.1c0.1-0.1,0.3-0.4,0.6-0.9c0.3-0.5,0.7-1.2,1.3-2c0.7-1.2,1.2-2.1,1.5-2.7
		c1.6-3.8,2.7-5.7,3.5-5.7c0.3,0,0.6,0,0.8,0.1c0.2,0.1,0.4,0.2,0.5,0.3c0.1,0.1,0.2,0.3,0.2,0.6c0,0.2,0.1,0.5,0.1,0.9
		c0,0.2,0,0.4,0,0.6c0,0.2,0,0.3,0,0.4c0,0.2,0,0.5,0,0.8c0,0.3,0,0.7-0.1,1.2c0.7,1.4,1.3,2.9,1.9,4.5c0.3,0.8,0.6,1.7,1,2.7
		c0.3,1,0.7,2,1.1,3.2c0.4,1.1,0.7,2.1,1,2.9c0.3,0.8,0.5,1.5,0.7,2c0.2,0.5,0.4,1.1,0.7,1.7c0.3,0.7,0.6,1.4,0.9,2.2
		c0.1,0.3,0.6,1,1.5,2.2C155.9,79.4,156.3,80.3,156.3,80.8z M147.4,69c-0.2-0.7-0.5-1.5-0.8-2.4c-0.3-0.8-0.6-1.7-0.9-2.5
		c-0.3-0.8-0.6-1.7-0.9-2.5c-0.3-0.8-0.6-1.5-0.9-2.1c-0.7,1-1.5,2-2.1,2.9c-0.7,0.9-1.3,1.9-1.9,2.8c-0.6,0.9-1.2,1.9-1.8,2.9
		c-0.6,1-1.2,2-1.9,3.2c0.1,0.1,0.3,0.1,0.4,0.1c0.2,0,0.5,0,0.8-0.1c0.3,0,0.6-0.1,1-0.1c0.3,0,0.6-0.1,0.9-0.1
		c0.3-0.1,0.5-0.1,0.7-0.1c0.3-0.1,0.6-0.1,0.8-0.2c0.2-0.1,0.5-0.1,0.7-0.2c0.2-0.1,0.4-0.1,0.7-0.2c0.2-0.1,0.5-0.1,0.9-0.2
		c0.8-0.2,1.5-0.4,2.3-0.6C146.1,69.3,146.8,69.2,147.4,69z"/>
	<path class="st0" d="M189,55.4c0,0.4,0,0.7-0.1,0.9c-0.1,0.2-0.2,0.4-0.3,0.4c-0.1,0.1-0.3,0.1-0.5,0.1c-0.2,0-0.4,0-0.5,0
		c-0.5,0-0.9,0-1.2,0c-0.4,0-0.7,0-1.1,0c-0.4,0-0.8,0-1.2,0s-0.9,0-1.4,0c-0.6,0-1.2,0-2,0.1c-0.8,0.1-1.5,0.2-2.3,0.4
		c-0.8,0.1-1.4,0.3-2.1,0.5c-0.6,0.2-1,0.3-1.3,0.5c-0.1,0.1-0.2,0.2-0.3,0.3c-0.1,0.1-0.2,0.3-0.2,0.4c-0.1,0.2-0.1,0.3-0.2,0.5
		s-0.1,0.3-0.1,0.4c-0.1,1.4-0.3,2.8-0.5,4.2c-0.2,1.4-0.3,2.8-0.5,4.1c-0.1,1.4-0.3,2.7-0.4,4.1c-0.1,1.3-0.2,2.7-0.2,4
		c0,0.2,0,0.6,0.1,1c0.1,0.4,0.1,0.9,0.2,1.4c0.1,0.5,0.1,0.9,0.2,1.2c0.1,0.4,0.1,0.6,0.1,0.6c0,0.3,0,0.5-0.1,0.8
		s-0.2,0.5-0.3,0.7c-0.1,0.2-0.3,0.4-0.5,0.5c-0.2,0.1-0.4,0.2-0.7,0.2c-0.2,0-0.3,0-0.5-0.1c-0.2-0.1-0.4-0.2-0.5-0.4
		c-0.2-0.2-0.3-0.4-0.5-0.6c-0.1-0.2-0.3-0.5-0.3-0.7c-0.1-0.3-0.2-0.7-0.3-1.2c-0.1-0.4-0.1-0.9-0.2-1.4c0-0.5-0.1-0.9-0.1-1.4
		c0-0.5,0-0.9,0-1.3c0-0.4,0-0.7,0-1c0-0.3,0-0.4,0-0.5c0-0.4,0-1,0.1-1.9c0.1-0.9,0.2-1.8,0.3-2.9s0.3-2.2,0.4-3.3
		c0.1-1.1,0.3-2.2,0.4-3.1c0.1-0.9,0.2-1.7,0.3-2.3s0.1-0.9,0.1-0.9c0-0.2,0-0.4-0.1-0.5c-0.1-0.1-0.2-0.2-0.3-0.2
		c-0.1,0-0.2,0-0.3,0c-0.1,0-0.2,0-0.2,0c-0.5,0-1.2,0-2,0.1c-0.8,0.1-1.7,0.2-2.6,0.3c-0.9,0.1-1.8,0.2-2.8,0.3
		c-0.9,0.1-1.8,0.1-2.6,0.1c-0.2,0-0.4,0-0.6,0c-0.2,0-0.4,0-0.6-0.1c-0.2,0-0.4-0.1-0.6-0.2c-0.2-0.1-0.4-0.3-0.6-0.5
		c0-0.1,0-0.3,0-0.5c0-0.2,0-0.4,0.1-0.7c0-0.2,0.1-0.4,0.3-0.6c0.1-0.2,0.4-0.3,0.6-0.4c0.6-0.1,1.3-0.2,2.1-0.3
		c0.8-0.1,1.5-0.1,2.3-0.2s1.6-0.1,2.3-0.2s1.4-0.1,2-0.2c0.4-0.1,0.9-0.1,1.5-0.2c0.6-0.1,1.2-0.2,1.9-0.3c0.6-0.1,1.3-0.2,1.9-0.3
		c0.6-0.1,1.1-0.2,1.5-0.3c0.8-0.2,1.7-0.3,2.6-0.6c0.9-0.2,1.8-0.4,2.7-0.6c0.9-0.2,1.8-0.4,2.7-0.5c0.9-0.1,1.8-0.2,2.6-0.2
		c0.1,0,0.3,0,0.5,0c0.2,0,0.5,0,0.8,0.1c0.3,0,0.6,0.1,0.9,0.1c0.3,0.1,0.6,0.1,0.9,0.2c0.1,0,0.3,0.1,0.4,0.3
		c0.1,0.1,0.2,0.3,0.3,0.4s0.1,0.3,0.2,0.5C189,55.1,189,55.2,189,55.4z"/>
	<path class="st0" d="M217.4,53.6c0,0.1,0,0.3-0.1,0.4c-0.1,0.2-0.1,0.4-0.2,0.5c-0.1,0.2-0.2,0.3-0.3,0.5s-0.2,0.3-0.3,0.3
		c-0.4,0.2-0.7,0.3-1,0.4c-0.3,0.1-0.7,0.2-1.1,0.3c-1.3,0.2-2.5,0.4-3.7,0.6c-1.2,0.2-2.3,0.3-3.4,0.4c-1.1,0.1-2.1,0.2-3,0.2
		c-0.9,0-1.7,0.1-2.3,0.1c-0.3,0-0.7,0-0.9,0c-0.3,0-0.5,0-0.8,0s-0.5,0-0.7,0c-0.2,0-0.5,0-0.7,0c-0.6,0-1.1,0-1.6,0
		c-0.4,0-0.8,0-1.1-0.1c-0.2,0.5-0.3,1-0.4,1.7c-0.1,0.7-0.1,1.4-0.2,2.1s-0.1,1.4-0.1,2.1c0,0.7-0.1,1.3-0.1,1.8
		c0.3,0.2,0.5,0.3,0.7,0.4c0.2,0.1,0.4,0.2,0.6,0.2c0.2,0,0.4,0.1,0.6,0.1c0.2,0,0.5,0,0.8,0c0.3,0,0.7,0,1.1,0c0.4,0,0.8,0,1.2,0
		c0.4,0,0.8,0,1.2-0.1c0.4,0,0.7-0.1,1-0.2c0.5-0.1,1-0.2,1.4-0.2c0.4,0,0.8,0,1.2,0c0.4,0,0.8,0,1.2-0.1c0.4,0,0.8-0.2,1.3-0.4
		c0.3-0.1,0.7-0.3,0.9-0.4c0.3-0.1,0.5-0.2,0.8-0.3c0.3-0.1,0.5-0.1,0.7-0.2c0.2,0,0.5-0.1,0.8-0.1c0.2,0,0.4,0.1,0.5,0.2
		c0.1,0.2,0.3,0.3,0.3,0.6s0.1,0.5,0.2,0.8c0,0.3,0,0.6,0,0.8c0,0.3-0.1,0.5-0.3,0.7c-0.2,0.2-0.5,0.4-0.8,0.5
		c-0.3,0.1-0.6,0.2-0.9,0.3c-0.3,0.1-0.5,0.1-0.7,0.2c-0.3,0.1-0.7,0.1-1.2,0.2c-0.5,0-1,0.1-1.6,0.1c-0.5,0-1.1,0.1-1.6,0.1
		c-0.5,0-0.9,0-1.3,0.1c-0.9,0.1-1.9,0.2-2.9,0.2c-1,0-2,0.1-3,0.1c-0.5,0-1,0-1.3,0.1c-0.4,0.1-0.8,0.2-1.2,0.3
		c-0.1,0-0.2,0.2-0.3,0.5c-0.1,0.3-0.2,0.7-0.3,1.2c-0.1,0.5-0.2,1-0.4,1.6c-0.1,0.6-0.3,1.1-0.4,1.7c-0.2,0.8-0.3,1.6-0.4,2.2
		c-0.1,0.7-0.1,1.1-0.2,1.4c0.1,0.1,0.2,0.2,0.3,0.3c0.1,0.1,0.3,0.1,0.4,0.1c0.3,0,0.8,0,1.3,0c0.5,0,1,0,1.5,0c0.5,0,1,0,1.5-0.1
		c0.5,0,0.9,0,1.3-0.1c0.9-0.1,1.8-0.2,2.8-0.3c1-0.1,1.9-0.2,2.8-0.3c0.9-0.1,1.8-0.2,2.6-0.4c0.8-0.1,1.5-0.3,2.1-0.4
		c0,0,0.1,0,0.3-0.1c0.2-0.1,0.4-0.1,0.8-0.2c0.3-0.1,0.6-0.2,1-0.3c0.4-0.1,0.7-0.2,1-0.3c0.3-0.1,0.6-0.1,0.8-0.2
		c0.2-0.1,0.3-0.1,0.3-0.1c0.2,0,0.4,0.1,0.6,0.2c0.2,0.1,0.4,0.3,0.5,0.4c0.1,0.2,0.3,0.4,0.4,0.6c0.1,0.2,0.1,0.5,0.1,0.8
		c0,0.1-0.1,0.3-0.2,0.5c-0.1,0.2-0.3,0.4-0.4,0.6c-0.2,0.2-0.4,0.4-0.7,0.6c-0.2,0.2-0.5,0.3-0.8,0.3c-0.7,0.1-1.3,0.2-1.9,0.3
		c-0.6,0.1-1.2,0.2-1.8,0.3c-0.6,0.1-1.3,0.2-2,0.2c-0.7,0.1-1.5,0.2-2.3,0.2c-1,0.1-2.1,0.2-3.1,0.3c-1,0.1-2,0.2-2.9,0.4
		c-0.9,0.1-1.7,0.2-2.4,0.3c-0.7,0.1-1.2,0.2-1.6,0.3c-0.3,0.1-0.6,0.1-1,0.3c-0.4,0.1-0.7,0.2-1.1,0.3c-0.4,0.1-0.7,0.2-1,0.3
		s-0.6,0.1-0.8,0.1c-0.4,0-0.7,0-1-0.2c-0.3-0.1-0.5-0.3-0.7-0.5c-0.2-0.3-0.3-0.6-0.4-1c-0.1-0.4-0.1-1-0.1-1.6
		c0-0.6,0.1-1.2,0.2-1.9c0.2-0.7,0.4-1.6,0.6-2.6c0.1-0.8,0.3-1.7,0.5-2.5c0.2-0.8,0.4-1.6,0.5-2.5c0.2-0.8,0.3-1.6,0.4-2.5
		c0.1-0.8,0.2-1.7,0.2-2.5c0-0.6,0.1-1.2,0.1-1.8c0.1-0.6,0.1-1.2,0.2-1.9c0.1-0.6,0.1-1.3,0.2-1.9c0.1-0.6,0.1-1.2,0.1-1.8
		c0-0.1,0-0.3,0-0.4c0-0.2,0-0.3,0-0.4c0-0.6,0.2-1.2,0.6-1.9c0.1-0.2,0.3-0.4,0.5-0.5c0.2-0.2,0.5-0.4,0.8-0.5
		c0.3-0.2,0.6-0.3,0.9-0.4c0.3-0.1,0.5-0.1,0.8-0.1c0.1,0,0.4,0,0.7,0.1c0.3,0.1,0.7,0.1,1,0.2s0.7,0.1,1,0.2
		c0.3,0.1,0.6,0.1,0.7,0.1c0.2,0,0.5,0,0.9,0c0.4,0,0.8,0,1.2,0c0.4,0,0.9,0,1.4,0c0.5,0,1,0,1.4,0c1-0.1,2-0.1,2.9-0.2
		c0.9-0.1,1.9-0.2,2.9-0.4c0.6-0.1,1.2-0.2,1.7-0.4c0.5-0.2,1-0.3,1.5-0.5c0.5-0.1,0.9-0.3,1.4-0.4c0.5-0.1,0.9-0.2,1.4-0.2
		c0.2,0,0.3,0,0.5,0.1c0.2,0.1,0.3,0.2,0.5,0.3c0.1,0.1,0.3,0.3,0.3,0.5C217.4,53.3,217.4,53.5,217.4,53.6z"/>
</g>
</svg>
