<?xml version="1.0" encoding="utf-8"?>
<!-- Generator: Adobe Illustrator 21.0.0, SVG Export Plug-In . SVG Version: 6.00 Build 0)  -->
<svg version="1.1" id="Слой_1" xmlns="http://www.w3.org/2000/svg" xmlns:xlink="http://www.w3.org/1999/xlink" x="0px" y="0px"
	 viewBox="0 0 300 64" style="enable-background:new 0 0 300 64;" xml:space="preserve">
<style type="text/css">
	.st0{fill:#32D2C0;}
</style>
<g>
	<path class="st0" d="M28.1,8.2c1.9,0,3.7,0.2,5.4,0.5s3.1,0.8,4.3,1.3c1.2,0.5,2.1,1.1,2.8,1.7c0.7,0.6,1,1.1,1,1.6
		c0,1,0,2.3-0.1,4c-0.1,1.6-0.2,3.6-0.3,5.9l-1.9-0.1c0-0.2,0-0.4,0-0.6s0-0.4,0-0.6c0-1-0.1-2-0.3-2.9c-0.2-0.9-0.6-1.8-1.2-2.7
		c-0.6-0.8-1.3-1.6-2.1-2.2c-0.8-0.7-1.7-1.2-2.7-1.6s-2-0.8-3.1-1s-2.2-0.3-3.4-0.3c-2,0-3.8,0.3-5.4,0.9c-1.6,0.6-3.1,1.5-4.3,2.6
		c-1.3,1.1-2.4,2.4-3.3,3.9c-0.9,1.5-1.7,3.1-2.3,4.9c-0.6,1.7-1.1,3.6-1.4,5.5c-0.3,1.9-0.5,3.9-0.5,5.8c0,2.3,0.2,4.5,0.6,6.6
		c0.4,2.1,0.9,4,1.6,5.7c0.7,1.7,1.6,3.3,2.6,4.7c1,1.4,2.1,2.5,3.4,3.5c1.3,1,2.6,1.7,4.1,2.2c1.5,0.5,3,0.8,4.6,0.8
		c1.1,0,2.3-0.1,3.5-0.4c1.2-0.2,2.4-0.6,3.6-1.2c1.2-0.5,2.5-1.2,3.7-2s2.5-1.8,3.7-2.9c0.1,0.1,0.3,0.1,0.4,0.2
		c0.2,0.1,0.3,0.2,0.4,0.3c0.1,0.1,0.2,0.2,0.3,0.4s0.1,0.3,0.1,0.4c0,0.1-0.1,0.2-0.2,0.4c-1.5,1.6-2.9,2.9-4.4,4
		c-1.5,1.1-3,2-4.5,2.6s-3,1.1-4.5,1.4c-1.5,0.3-3,0.4-4.5,0.4c-2,0-3.9-0.3-5.7-0.8c-1.8-0.6-3.5-1.4-5.1-2.4s-3-2.3-4.2-3.8
		c-1.3-1.5-2.3-3.1-3.2-5c-0.9-1.8-1.6-3.8-2.1-6c-0.5-2.2-0.7-4.4-0.7-6.8c0-2.3,0.2-4.6,0.7-7c0.5-2.3,1.2-4.6,2.1-6.7
		s2.1-4.1,3.5-6c1.4-1.9,3-3.5,4.9-4.8c1.9-1.4,4-2.4,6.3-3.2C22.7,8.6,25.3,8.2,28.1,8.2z"/>
	<path class="st0" d="M50.1,52.4c0.1,1.1,0.4,2.1,0.9,2.9c0.5,0.8,1.1,1.5,1.8,2c0.7,0.5,1.5,0.9,2.4,1.2c0.9,0.3,1.8,0.4,2.6,0.4
		c0.8,0,1.6-0.1,2.4-0.3s1.4-0.5,2-1c0.6-0.4,1-0.9,1.4-1.5c0.3-0.6,0.5-1.3,0.5-2c0-0.8-0.2-1.5-0.6-2.1c-0.4-0.6-0.9-1.1-1.5-1.6
		s-1.3-0.9-2.2-1.4c-0.8-0.4-1.7-0.8-2.6-1.3c-0.8-0.4-1.6-0.7-2.4-1.1c-0.8-0.4-1.6-0.8-2.3-1.2s-1.4-0.9-2.1-1.4
		c-0.6-0.5-1.2-1.1-1.7-1.7c-0.5-0.6-0.9-1.3-1.1-2.1c-0.3-0.8-0.4-1.6-0.4-2.6c0-1,0.2-2,0.5-2.8c0.4-0.9,0.8-1.6,1.5-2.3
		c0.6-0.7,1.3-1.3,2.1-1.8s1.7-1,2.6-1.3c0.9-0.3,1.9-0.6,2.8-0.8c1-0.2,1.9-0.3,2.8-0.3c1.2,0,2.3,0.1,3.4,0.4
		c1.1,0.3,2,0.6,2.8,1.1s1.4,1.1,1.9,1.8c0.5,0.7,0.7,1.5,0.7,2.4c0,0.3-0.1,0.7-0.2,1.1c-0.1,0.4-0.3,0.8-0.6,1.1S67,36.8,66.6,37
		c-0.5,0.2-1,0.4-1.7,0.4c-0.6,0-1.3-0.1-2-0.3l-0.1-0.2c0.2-0.5,0.4-0.9,0.4-1.3c0.1-0.4,0.1-0.8,0.1-1.1c0-0.7-0.2-1.3-0.5-1.7
		c-0.3-0.5-0.8-0.8-1.3-1.1c-0.5-0.3-1.1-0.5-1.7-0.6c-0.6-0.1-1.2-0.2-1.8-0.2c-1.1,0-2,0.1-2.8,0.4c-0.8,0.3-1.5,0.7-2.1,1.1
		c-0.6,0.5-1,1-1.3,1.6c-0.3,0.6-0.5,1.2-0.5,1.8c0,0.8,0.2,1.5,0.6,2.2c0.4,0.6,1,1.2,1.7,1.8s1.5,1,2.5,1.5
		c0.9,0.5,1.9,0.9,2.9,1.4c1.1,0.5,2.2,1.1,3.4,1.7c1.1,0.6,2.1,1.2,3,1.9c0.9,0.7,1.6,1.6,2.1,2.5c0.5,0.9,0.8,2,0.8,3.3
		c0,1.5-0.3,2.9-1,4.1c-0.7,1.2-1.6,2.2-2.7,3s-2.4,1.4-3.9,1.9c-1.5,0.4-3,0.6-4.5,0.6c-0.8,0-1.6-0.1-2.4-0.2
		c-0.8-0.1-1.6-0.3-2.4-0.5c-0.8-0.2-1.5-0.5-2.2-0.9c-0.7-0.3-1.3-0.7-1.8-1.2c-0.5-0.5-0.9-1-1.2-1.5c-0.3-0.6-0.5-1.2-0.5-1.8
		c0-0.6,0.1-1.1,0.4-1.5c0.2-0.4,0.6-0.7,1-1c0.4-0.3,0.8-0.4,1.3-0.6c0.5-0.1,1-0.2,1.5-0.2L50.1,52.4z"/>
	<path class="st0" d="M76.4,52.4c0.1,1.1,0.4,2.1,0.9,2.9c0.5,0.8,1.1,1.5,1.8,2c0.7,0.5,1.5,0.9,2.4,1.2c0.9,0.3,1.8,0.4,2.6,0.4
		c0.8,0,1.6-0.1,2.4-0.3s1.4-0.5,2-1c0.6-0.4,1-0.9,1.4-1.5c0.3-0.6,0.5-1.3,0.5-2c0-0.8-0.2-1.5-0.6-2.1c-0.4-0.6-0.9-1.1-1.5-1.6
		s-1.3-0.9-2.2-1.4c-0.8-0.4-1.7-0.8-2.6-1.3c-0.8-0.4-1.6-0.7-2.4-1.1c-0.8-0.4-1.6-0.8-2.3-1.2s-1.4-0.9-2.1-1.4
		c-0.6-0.5-1.2-1.1-1.7-1.7c-0.5-0.6-0.9-1.3-1.1-2.1c-0.3-0.8-0.4-1.6-0.4-2.6c0-1,0.2-2,0.5-2.8c0.4-0.9,0.8-1.6,1.5-2.3
		c0.6-0.7,1.3-1.3,2.1-1.8s1.7-1,2.6-1.3c0.9-0.3,1.9-0.6,2.8-0.8c1-0.2,1.9-0.3,2.8-0.3c1.2,0,2.3,0.1,3.4,0.4
		c1.1,0.3,2,0.6,2.8,1.1s1.4,1.1,1.9,1.8c0.5,0.7,0.7,1.5,0.7,2.4c0,0.3-0.1,0.7-0.2,1.1c-0.1,0.4-0.3,0.8-0.6,1.1s-0.7,0.6-1.1,0.9
		c-0.5,0.2-1,0.4-1.7,0.4c-0.6,0-1.3-0.1-2-0.3l-0.1-0.2c0.2-0.5,0.4-0.9,0.4-1.3c0.1-0.4,0.1-0.8,0.1-1.1c0-0.7-0.2-1.3-0.5-1.7
		c-0.3-0.5-0.8-0.8-1.3-1.1c-0.5-0.3-1.1-0.5-1.7-0.6c-0.6-0.1-1.2-0.2-1.8-0.2c-1.1,0-2,0.1-2.8,0.4c-0.8,0.3-1.5,0.7-2.1,1.1
		c-0.6,0.5-1,1-1.3,1.6c-0.3,0.6-0.5,1.2-0.5,1.8c0,0.8,0.2,1.5,0.6,2.2c0.4,0.6,1,1.2,1.7,1.8s1.5,1,2.5,1.5
		c0.9,0.5,1.9,0.9,2.9,1.4c1.1,0.5,2.2,1.1,3.4,1.7c1.1,0.6,2.1,1.2,3,1.9c0.9,0.7,1.6,1.6,2.1,2.5c0.5,0.9,0.8,2,0.8,3.3
		c0,1.5-0.3,2.9-1,4.1c-0.7,1.2-1.6,2.2-2.7,3s-2.4,1.4-3.9,1.9c-1.5,0.4-3,0.6-4.5,0.6c-0.8,0-1.6-0.1-2.4-0.2
		c-0.8-0.1-1.6-0.3-2.4-0.5c-0.8-0.2-1.5-0.5-2.2-0.9c-0.7-0.3-1.3-0.7-1.8-1.2c-0.5-0.5-0.9-1-1.2-1.5c-0.3-0.6-0.5-1.2-0.5-1.8
		c0-0.6,0.1-1.1,0.4-1.5c0.2-0.4,0.6-0.7,1-1c0.4-0.3,0.8-0.4,1.3-0.6c0.5-0.1,1-0.2,1.5-0.2L76.4,52.4z"/>
	<path class="st0" d="M110.4,0.8c-0.3,2.5-0.6,5.1-0.9,7.7c-0.3,2.6-0.6,5.3-0.8,8c-0.3,2.7-0.5,5.4-0.7,8.1
		c-0.2,2.7-0.4,5.4-0.6,8.1c-0.2,2.6-0.3,5.2-0.4,7.8s-0.1,5-0.1,7.3c0,1.5,0,2.7,0.1,3.8c0,1.1,0.1,1.9,0.2,2.7
		c0.1,0.7,0.2,1.3,0.3,1.8s0.3,0.8,0.5,1c0.2,0.2,0.5,0.4,0.7,0.5c0.3,0.1,0.6,0.1,1,0.1c0.7,0,1.5-0.1,2.3-0.3
		c0.8-0.2,1.7-0.5,2.5-0.9l0.4,1.2c-0.5,0.4-1.2,0.9-2,1.3s-1.7,0.9-2.5,1.2s-1.8,0.7-2.6,0.9c-0.9,0.2-1.6,0.3-2.2,0.3
		c-0.8,0-1.4-0.2-1.9-0.6c-0.5-0.4-0.8-1.1-1.1-2c-0.2-0.9-0.4-2.1-0.5-3.6c-0.1-1.5-0.1-3.3-0.1-5.4c0-0.8,0-1.9,0.1-3.3
		s0.1-3.1,0.2-5c0.1-1.9,0.2-4,0.3-6.2c0.1-2.3,0.2-4.6,0.3-7c0.1-2.4,0.2-4.8,0.4-7.3c0.1-2.5,0.3-4.8,0.4-7.1
		c0.1-2.3,0.3-4.4,0.4-6.5c0.1-2,0.2-3.8,0.3-5.4c0-0.4,0.1-0.7,0.3-0.9s0.4-0.5,0.7-0.6c0.3-0.2,0.6-0.3,1-0.3
		c0.4-0.1,0.8-0.1,1.1-0.1C108.4,0.1,109.4,0.3,110.4,0.8z"/>
	<path class="st0" d="M116.9,47.6c0-1.5,0.2-3,0.5-4.6c0.3-1.5,0.8-3,1.4-4.5c0.6-1.4,1.4-2.8,2.3-4.1c0.9-1.3,1.9-2.4,3.1-3.3
		c1.2-0.9,2.5-1.7,3.9-2.2c1.4-0.5,3-0.8,4.7-0.8c1.9,0,3.6,0.4,5,1.2s2.7,1.9,3.7,3.2c1,1.3,1.7,2.8,2.3,4.5
		c0.5,1.7,0.8,3.4,0.8,5.1c0,1.5-0.2,3-0.5,4.6c-0.3,1.5-0.8,3-1.4,4.5c-0.6,1.4-1.4,2.8-2.3,4.1c-0.9,1.3-1.9,2.4-3.1,3.3
		c-1.2,0.9-2.5,1.7-3.9,2.2c-1.4,0.5-3,0.8-4.7,0.8c-1.9,0-3.6-0.4-5-1.2c-1.5-0.8-2.7-1.9-3.7-3.2c-1-1.3-1.7-2.8-2.2-4.5
		C117.2,51.1,116.9,49.4,116.9,47.6z M122.2,45.5c0,1,0.1,2,0.2,3.1c0.2,1,0.4,2,0.7,3c0.3,1,0.7,1.9,1.2,2.7
		c0.5,0.8,1.1,1.6,1.7,2.2s1.4,1.1,2.2,1.5c0.8,0.4,1.7,0.5,2.7,0.5c1.1,0,2-0.2,2.9-0.7c0.8-0.5,1.5-1.1,2.1-1.9
		c0.6-0.8,1.1-1.7,1.5-2.6c0.4-1,0.7-2,0.9-3.1c0.2-1.1,0.4-2.1,0.5-3.1c0.1-1,0.1-2,0.1-2.9c0-1-0.1-2-0.2-3.1c-0.2-1-0.4-2-0.7-3
		c-0.3-1-0.7-1.9-1.2-2.7s-1.1-1.6-1.7-2.2c-0.7-0.6-1.4-1.1-2.2-1.5c-0.8-0.4-1.7-0.5-2.7-0.5c-1.1,0-2,0.2-2.9,0.7
		c-0.8,0.5-1.5,1.1-2.1,1.8c-0.6,0.8-1.1,1.7-1.5,2.6c-0.4,1-0.7,2-0.9,3.1c-0.2,1.1-0.4,2.1-0.5,3.1
		C122.3,43.7,122.2,44.7,122.2,45.5z"/>
	<path class="st0" d="M167.3,37.6c0-1.2-0.2-2.2-0.6-3c-0.4-0.9-0.9-1.6-1.5-2.1c-0.6-0.5-1.3-1-2.1-1.2c-0.8-0.3-1.6-0.4-2.4-0.4
		c-1.1,0-1.9,0.1-2.7,0.3s-1.3,0.5-1.8,0.9c-0.5,0.4-0.8,0.8-1,1.4c-0.2,0.5-0.3,1.1-0.3,1.7c0,0.7,0.1,1.4,0.4,2.1
		c0.3,0.7,0.6,1.4,1.1,2.1l-0.1,0.2c-0.8,0.4-1.7,0.6-2.6,0.6c-0.5,0-1-0.1-1.4-0.2c-0.4-0.2-0.8-0.4-1.1-0.7
		c-0.3-0.3-0.6-0.7-0.8-1.1c-0.2-0.4-0.3-0.9-0.3-1.4c0-0.9,0.2-1.7,0.6-2.5c0.4-0.8,1-1.5,1.7-2.1c0.7-0.6,1.5-1.2,2.4-1.7
		c0.9-0.5,1.9-0.9,2.8-1.3c1-0.3,2-0.6,2.9-0.8c1-0.2,1.9-0.3,2.7-0.3c1.6,0,2.9,0.2,4,0.6c1.1,0.4,2,1,2.7,1.8s1.2,1.8,1.5,2.9
		c0.3,1.1,0.5,2.4,0.5,3.8c0,1,0,2.1-0.1,3.2c-0.1,1.2-0.2,2.4-0.3,3.7c-0.1,1.3-0.2,2.6-0.3,4c-0.1,1.4-0.1,2.7-0.1,4.1
		c0,2.1,0.4,3.7,1.2,4.8c0.8,1.1,1.8,1.6,3.1,1.6c1.1,0,2.4-0.4,3.8-1.3l0.6,1c-1,1-2.1,1.7-3.2,2.3c-1.2,0.5-2.4,0.8-3.7,0.8
		c-1,0-1.9-0.2-2.7-0.5c-0.8-0.3-1.5-0.8-2.1-1.5c-0.6-0.6-1.1-1.5-1.4-2.4c-0.3-1-0.5-2.1-0.5-3.4c0-0.4,0-0.8,0-1.2
		c0-0.4,0.1-0.8,0.1-1.2h-0.1c-0.6,1.3-1.4,2.5-2.2,3.8s-1.8,2.3-2.8,3.3c-1,1-2.1,1.8-3.2,2.4c-1.1,0.6-2.3,0.9-3.6,0.9
		c-1,0-2-0.2-2.8-0.5c-0.8-0.4-1.6-0.8-2.2-1.5c-0.6-0.6-1.1-1.4-1.4-2.2c-0.3-0.9-0.5-1.8-0.5-2.8c0-1.3,0.2-2.5,0.7-3.6
		c0.5-1.1,1.1-2,2-2.9c0.9-0.8,1.9-1.6,3.1-2.2c1.2-0.6,2.5-1.1,3.9-1.5c1.4-0.4,2.9-0.7,4.4-0.9c1.6-0.2,3.1-0.3,4.8-0.3
		c0.1-0.9,0.2-1.8,0.3-2.7C167.3,39.6,167.3,38.6,167.3,37.6z M153.7,52.8c0,0.6,0.1,1.1,0.2,1.7c0.1,0.5,0.3,1,0.6,1.4
		c0.3,0.4,0.6,0.7,1,0.9c0.4,0.2,0.9,0.3,1.5,0.3c0.7,0,1.4-0.2,2.1-0.5c0.7-0.3,1.4-0.7,2.1-1.3c0.7-0.5,1.3-1.2,2-2
		c0.6-0.8,1.2-1.6,1.7-2.5c0.5-0.9,0.9-1.9,1.3-2.9c0.3-1,0.6-2,0.7-3.1c-1.1,0-2.2,0.1-3.3,0.2c-1.1,0.1-2.1,0.3-3.1,0.5
		c-1,0.2-1.9,0.5-2.7,0.9c-0.8,0.4-1.5,0.9-2.1,1.4c-0.6,0.6-1.1,1.2-1.4,2C153.9,50.9,153.7,51.8,153.7,52.8z"/>
	<path class="st0" d="M213.5,0.8c-0.5,3.8-1,7.6-1.5,11.6c-0.5,3.9-0.9,7.9-1.3,11.8s-0.7,7.8-0.9,11.6c-0.2,3.8-0.3,7.4-0.3,10.9
		c0,1.7,0,3.1,0.1,4.3c0,1.2,0.1,2.2,0.2,3c0.1,0.8,0.2,1.5,0.3,2c0.1,0.5,0.3,0.9,0.5,1.1s0.5,0.4,0.7,0.5c0.3,0.1,0.6,0.1,1,0.1
		c0.7,0,1.5-0.1,2.3-0.3c0.8-0.2,1.7-0.5,2.5-0.9l0.4,1.2c-0.5,0.4-1.2,0.9-2,1.3c-0.8,0.4-1.7,0.9-2.5,1.2s-1.8,0.7-2.6,0.9
		c-0.9,0.2-1.6,0.3-2.2,0.3c-0.5,0-0.9-0.1-1.2-0.2c-0.3-0.1-0.6-0.3-0.9-0.5c-0.2-0.3-0.5-0.6-0.6-1c-0.2-0.4-0.3-1-0.4-1.6
		c-0.1-0.9-0.2-1.9-0.3-3.1c-0.1-1.2-0.1-2.5-0.1-3.9c0-1.5,0.1-3,0.2-4.5c0.1-1.5,0.3-3.1,0.5-4.6l-0.2,0c-1.1,3-2.4,5.7-3.7,8.2
		c-1.3,2.4-2.7,4.5-4.1,6.2s-2.9,3-4.3,4c-1.4,0.9-2.8,1.4-4.1,1.4c-1.3,0-2.5-0.3-3.4-1s-1.8-1.6-2.4-2.7s-1.1-2.4-1.4-3.8
		c-0.3-1.4-0.4-2.9-0.4-4.4c0-1.8,0.2-3.6,0.6-5.4c0.4-1.8,1-3.4,1.7-5c0.7-1.6,1.6-3.1,2.7-4.4c1.1-1.4,2.2-2.5,3.5-3.5
		c1.3-1,2.7-1.7,4.2-2.3c1.5-0.6,3.1-0.8,4.8-0.8c1.2,0,2.3,0.1,3.5,0.4c1.2,0.3,2.3,0.8,3.5,1.5c0.1-2.5,0.2-5.1,0.3-7.7
		c0.1-2.6,0.2-5.1,0.4-7.6c0.1-2.5,0.3-4.8,0.5-7c0.2-2.2,0.4-4.1,0.6-5.9c0-0.4,0.2-0.7,0.4-0.9s0.4-0.5,0.7-0.6
		c0.3-0.2,0.6-0.3,1-0.3c0.4-0.1,0.7-0.1,1.1-0.1C211.6,0.1,212.6,0.3,213.5,0.8z M205.6,32.1c-2-0.9-4-1.4-6-1.4
		c-1.4,0-2.8,0.2-4,0.7c-1.2,0.5-2.3,1.1-3.3,1.9c-1,0.8-1.8,1.8-2.5,2.8c-0.7,1.1-1.3,2.3-1.8,3.5c-0.5,1.3-0.8,2.6-1.1,3.9
		c-0.2,1.3-0.4,2.7-0.4,4c0,0.5,0,1,0.1,1.6c0,0.6,0.1,1.3,0.3,1.9c0.1,0.7,0.3,1.3,0.5,1.9s0.5,1.2,0.8,1.7
		c0.3,0.5,0.7,0.9,1.1,1.2c0.4,0.3,1,0.5,1.5,0.5c1.1,0,2.2-0.4,3.3-1.2c1.1-0.8,2.2-1.9,3.3-3.2c1.1-1.3,2.1-2.8,3-4.5
		s1.8-3.5,2.5-5.3c0.7-1.8,1.3-3.6,1.8-5.3C205.2,35.1,205.5,33.5,205.6,32.1z"/>
	<path class="st0" d="M242.3,53.5c0.1,0,0.2,0.1,0.3,0.2s0.3,0.2,0.4,0.3c0.1,0.1,0.2,0.2,0.3,0.3c0.1,0.1,0.1,0.2,0.1,0.3
		c0,0.1,0,0.1-0.1,0.2c-0.8,1.2-1.7,2.2-2.7,3s-1.9,1.6-3,2.1c-1,0.6-2.1,1-3.1,1.3s-2.1,0.4-3.2,0.4c-1.8,0-3.4-0.4-4.9-1.1
		c-1.5-0.7-2.8-1.7-3.8-3c-1.1-1.3-1.9-2.7-2.5-4.4c-0.6-1.7-0.9-3.5-0.9-5.5c0-1.6,0.2-3.2,0.5-4.8c0.3-1.6,0.9-3.1,1.5-4.5
		c0.7-1.4,1.5-2.8,2.4-4c0.9-1.2,2-2.3,3.2-3.2c1.2-0.9,2.5-1.6,4-2.1c1.4-0.5,3-0.8,4.7-0.8c1.1,0,2.1,0.1,3.1,0.4
		c1,0.3,1.9,0.7,2.6,1.3c0.7,0.6,1.3,1.2,1.8,2.1s0.7,1.7,0.7,2.8c0,1.5-0.5,2.8-1.5,4c-1,1.1-2.3,2.1-4.1,2.9
		c-1.7,0.8-3.8,1.4-6.1,1.9s-4.9,0.8-7.6,1.1V45c0,1.9,0.2,3.6,0.7,5.2c0.5,1.6,1.1,2.9,2,4c0.8,1.1,1.8,2,3,2.6s2.4,0.9,3.7,0.9
		c1.3,0,2.7-0.3,4.1-1S240.9,55,242.3,53.5z M238.1,35.7c0-0.7-0.1-1.3-0.3-1.9s-0.5-1.1-1-1.5c-0.4-0.4-0.9-0.8-1.5-1
		c-0.6-0.3-1.2-0.4-1.8-0.4c-1,0-1.8,0.2-2.6,0.5c-0.8,0.3-1.5,0.8-2.1,1.4c-0.6,0.6-1.2,1.3-1.6,2c-0.5,0.8-0.9,1.6-1.2,2.5
		s-0.6,1.8-0.8,2.7c-0.2,0.9-0.4,1.8-0.4,2.7c2.1-0.1,4-0.4,5.7-0.8c1.7-0.4,3.1-0.8,4.2-1.4c1.1-0.6,2-1.3,2.6-2
		C237.8,37.6,238.1,36.7,238.1,35.7z"/>
	<path class="st0" d="M251.2,61l-0.4,0c0.1-1.4,0.2-2.9,0.3-4.6c0.1-1.7,0.2-3.3,0.3-5.1c0.1-1.7,0.2-3.4,0.2-5.1
		c0.1-1.7,0.1-3.3,0.2-4.7c0.1-1.5,0.1-2.8,0.1-3.9s0-2.1,0-2.7c0-0.5,0-1-0.1-1.4s-0.1-0.7-0.3-1s-0.4-0.5-0.7-0.6
		c-0.3-0.1-0.7-0.2-1.2-0.2c-0.3,0-0.5,0-0.8,0c-0.3,0-0.6,0.1-0.9,0.1c-0.3,0.1-0.7,0.1-1.1,0.2s-0.9,0.2-1.4,0.3l-0.3-1.6
		c2.5-0.9,4.5-1.5,6-1.9c1.5-0.4,2.6-0.5,3.1-0.5c1,0,1.7,0.3,2.1,0.9c0.4,0.6,0.6,1.4,0.6,2.5c0,0.1,0,0.4,0,0.9
		c0,0.5-0.1,1.2-0.1,2c-0.1,0.8-0.1,1.7-0.2,2.8c-0.1,1.1-0.2,2.2-0.3,3.4c-0.1,1.2-0.2,2.5-0.3,3.8c-0.1,1.3-0.2,2.6-0.4,4l0.2,0
		c0.7-2.9,1.5-5.6,2.4-8.1c0.9-2.5,1.9-4.7,3-6.5c1.1-1.9,2.3-3.3,3.7-4.4c1.3-1.1,2.8-1.6,4.4-1.6c0.6,0,1.1,0.1,1.6,0.3
		c0.5,0.2,0.9,0.4,1.3,0.7c0.4,0.3,0.6,0.7,0.8,1.1c0.2,0.4,0.3,0.9,0.3,1.4c0,0.7-0.1,1.3-0.4,1.9c-0.3,0.6-0.7,1.2-1.4,1.6h-0.2
		c-0.6-0.5-1.2-0.9-1.8-1.1s-1.1-0.3-1.8-0.3c-0.7,0-1.3,0.1-1.9,0.4c-0.6,0.3-1.2,0.6-1.7,1.1c-0.8,0.8-1.6,1.8-2.4,3.1
		c-0.7,1.3-1.4,2.7-2,4.2c-0.6,1.5-1.1,3.2-1.6,4.9s-0.9,3.3-1.2,5c-0.3,1.6-0.6,3.1-0.8,4.5c-0.2,1.4-0.4,2.6-0.5,3.6L251.2,61z"/>
	<path class="st0" d="M277.9,52.4c0.1,1.1,0.4,2.1,0.9,2.9c0.5,0.8,1.1,1.5,1.8,2c0.7,0.5,1.5,0.9,2.4,1.2c0.9,0.3,1.8,0.4,2.6,0.4
		c0.8,0,1.6-0.1,2.4-0.3c0.8-0.2,1.4-0.5,2-1c0.6-0.4,1-0.9,1.4-1.5c0.3-0.6,0.5-1.3,0.5-2c0-0.8-0.2-1.5-0.6-2.1
		c-0.4-0.6-0.9-1.1-1.5-1.6c-0.6-0.5-1.3-0.9-2.2-1.4c-0.8-0.4-1.7-0.8-2.6-1.3c-0.8-0.4-1.6-0.7-2.4-1.1c-0.8-0.4-1.6-0.8-2.3-1.2
		s-1.4-0.9-2.1-1.4c-0.6-0.5-1.2-1.1-1.7-1.7c-0.5-0.6-0.9-1.3-1.1-2.1c-0.3-0.8-0.4-1.6-0.4-2.6c0-1,0.2-2,0.5-2.8
		c0.4-0.9,0.8-1.6,1.5-2.3c0.6-0.7,1.3-1.3,2.1-1.8s1.7-1,2.6-1.3c0.9-0.3,1.9-0.6,2.8-0.8c1-0.2,1.9-0.3,2.8-0.3
		c1.2,0,2.3,0.1,3.4,0.4c1.1,0.3,2,0.6,2.8,1.1s1.4,1.1,1.9,1.8s0.7,1.5,0.7,2.4c0,0.3-0.1,0.7-0.2,1.1c-0.1,0.4-0.3,0.8-0.6,1.1
		s-0.7,0.6-1.1,0.9c-0.5,0.2-1,0.4-1.7,0.4c-0.6,0-1.3-0.1-2-0.3l-0.1-0.2c0.2-0.5,0.4-0.9,0.4-1.3c0.1-0.4,0.1-0.8,0.1-1.1
		c0-0.7-0.2-1.3-0.5-1.7c-0.3-0.5-0.8-0.8-1.3-1.1c-0.5-0.3-1.1-0.5-1.7-0.6c-0.6-0.1-1.2-0.2-1.8-0.2c-1.1,0-2,0.1-2.8,0.4
		c-0.8,0.3-1.5,0.7-2.1,1.1c-0.6,0.5-1,1-1.3,1.6s-0.5,1.2-0.5,1.8c0,0.8,0.2,1.5,0.6,2.2c0.4,0.6,1,1.2,1.7,1.8s1.5,1,2.5,1.5
		c0.9,0.5,1.9,0.9,2.9,1.4c1.1,0.5,2.2,1.1,3.4,1.7c1.1,0.6,2.1,1.2,3,1.9s1.6,1.6,2.1,2.5c0.5,0.9,0.8,2,0.8,3.3
		c0,1.5-0.3,2.9-1,4.1c-0.7,1.2-1.6,2.2-2.7,3s-2.4,1.4-3.9,1.9c-1.5,0.4-3,0.6-4.5,0.6c-0.8,0-1.6-0.1-2.4-0.2
		c-0.8-0.1-1.6-0.3-2.4-0.5c-0.8-0.2-1.5-0.5-2.2-0.9c-0.7-0.3-1.3-0.7-1.8-1.2c-0.5-0.5-0.9-1-1.2-1.5c-0.3-0.6-0.5-1.2-0.5-1.8
		c0-0.6,0.1-1.1,0.4-1.5c0.2-0.4,0.6-0.7,1-1c0.4-0.3,0.8-0.4,1.3-0.6c0.5-0.1,1-0.2,1.5-0.2L277.9,52.4z"/>
</g>
</svg>
