<svg id="Слой_1" xmlns="http://www.w3.org/2000/svg" viewBox="0 0 300 64"><style>.st0{fill:#32D2C0;}</style><path class="st0" d="M28.1 8.2c1.9 0 3.7.2 5.4.5s3.1.8 4.3 1.3c1.2.5 2.1 1.1 2.8 1.7.7.6 1 1.1 1 1.6 0 1 0 2.3-.1 4-.1 1.6-.2 3.6-.3 5.9l-1.9-.1v-.6-.6c0-1-.1-2-.3-2.9-.2-.9-.6-1.8-1.2-2.7-.6-.8-1.3-1.6-2.1-2.2-.8-.7-1.7-1.2-2.7-1.6s-2-.8-3.1-1-2.2-.3-3.4-.3c-2 0-3.8.3-5.4.9-1.6.6-3.1 1.5-4.3 2.6-1.3 1.1-2.4 2.4-3.3 3.9-.9 1.5-1.7 3.1-2.3 4.9-.6 1.7-1.1 3.6-1.4 5.5-.3 1.9-.5 3.9-.5 5.8 0 2.3.2 4.5.6 6.6.4 2.1.9 4 1.6 5.7.7 1.7 1.6 3.3 2.6 4.7 1 1.4 2.1 2.5 3.4 3.5 1.3 1 2.6 1.7 4.1 2.2 1.5.5 3 .8 4.6.8 1.1 0 2.3-.1 3.5-.4 1.2-.2 2.4-.6 3.6-1.2 1.2-.5 2.5-1.2 3.7-2s2.5-1.8 3.7-2.9c.1.1.3.1.4.2.2.1.3.2.4.3.1.1.2.2.3.4s.1.3.1.4c0 .1-.1.2-.2.4-1.5 1.6-2.9 2.9-4.4 4-1.5 1.1-3 2-4.5 2.6s-3 1.1-4.5 1.4c-1.5.3-3 .4-4.5.4-2 0-3.9-.3-5.7-.8-1.8-.6-3.5-1.4-5.1-2.4s-3-2.3-4.2-3.8c-1.3-1.5-2.3-3.1-3.2-5-.9-1.8-1.6-3.8-2.1-6s-.7-4.4-.7-6.8c0-2.3.2-4.6.7-7 .5-2.3 1.2-4.6 2.1-6.7s2.1-4.1 3.5-6c1.4-1.9 3-3.5 4.9-4.8 1.9-1.4 4-2.4 6.3-3.2 2.4-.8 5-1.2 7.8-1.2zM50.1 52.4c.1 1.1.4 2.1.9 2.9.5.8 1.1 1.5 1.8 2s1.5.9 2.4 1.2c.9.3 1.8.4 2.6.4s1.6-.1 2.4-.3 1.4-.5 2-1c.6-.4 1-.9 1.4-1.5.3-.6.5-1.3.5-2 0-.8-.2-1.5-.6-2.1-.4-.6-.9-1.1-1.5-1.6s-1.3-.9-2.2-1.4c-.8-.4-1.7-.8-2.6-1.3-.8-.4-1.6-.7-2.4-1.1-.8-.4-1.6-.8-2.3-1.2s-1.4-.9-2.1-1.4c-.6-.5-1.2-1.1-1.7-1.7-.5-.6-.9-1.3-1.1-2.1-.3-.8-.4-1.6-.4-2.6s.2-2 .5-2.8c.4-.9.8-1.6 1.5-2.3.6-.7 1.3-1.3 2.1-1.8s1.7-1 2.6-1.3c.9-.3 1.9-.6 2.8-.8 1-.2 1.9-.3 2.8-.3 1.2 0 2.3.1 3.4.4 1.1.3 2 .6 2.8 1.1s1.4 1.1 1.9 1.8.7 1.5.7 2.4c0 .3-.1.7-.2 1.1-.1.4-.3.8-.6 1.1s-.5.6-.9.8c-.5.2-1 .4-1.7.4-.6 0-1.3-.1-2-.3l-.1-.2c.2-.5.4-.9.4-1.3.1-.4.1-.8.1-1.1 0-.7-.2-1.3-.5-1.7-.3-.5-.8-.8-1.3-1.1-.5-.3-1.1-.5-1.7-.6-.6-.1-1.2-.2-1.8-.2-1.1 0-2 .1-2.8.4-.8.3-1.5.7-2.1 1.1-.6.5-1 1-1.3 1.6-.3.6-.5 1.2-.5 1.8 0 .8.2 1.5.6 2.2.4.6 1 1.2 1.7 1.8s1.5 1 2.5 1.5c.9.5 1.9.9 2.9 1.4 1.1.5 2.2 1.1 3.4 1.7 1.1.6 2.1 1.2 3 1.9.9.7 1.6 1.6 2.1 2.5.5.9.8 2 .8 3.3 0 1.5-.3 2.9-1 4.1-.7 1.2-1.6 2.2-2.7 3s-2.4 1.4-3.9 1.9c-1.5.4-3 .6-4.5.6-.8 0-1.6-.1-2.4-.2-.8-.1-1.6-.3-2.4-.5-.8-.2-1.5-.5-2.2-.9-.7-.3-1.3-.7-1.8-1.2s-.9-1-1.2-1.5c-.3-.6-.5-1.2-.5-1.8 0-.6.1-1.1.4-1.5.2-.4.6-.7 1-1 .4-.3.8-.4 1.3-.6.5-.1 1-.2 1.5-.2l.2.1zM76.4 52.4c.1 1.1.4 2.1.9 2.9.5.8 1.1 1.5 1.8 2s1.5.9 2.4 1.2c.9.3 1.8.4 2.6.4s1.6-.1 2.4-.3 1.4-.5 2-1c.6-.4 1-.9 1.4-1.5.3-.6.5-1.3.5-2 0-.8-.2-1.5-.6-2.1-.4-.6-.9-1.1-1.5-1.6s-1.3-.9-2.2-1.4c-.8-.4-1.7-.8-2.6-1.3-.8-.4-1.6-.7-2.4-1.1-.8-.4-1.6-.8-2.3-1.2s-1.4-.9-2.1-1.4c-.6-.5-1.2-1.1-1.7-1.7-.5-.6-.9-1.3-1.1-2.1-.3-.8-.4-1.6-.4-2.6s.2-2 .5-2.8c.4-.9.8-1.6 1.5-2.3.6-.7 1.3-1.3 2.1-1.8s1.7-1 2.6-1.3c.9-.3 1.9-.6 2.8-.8 1-.2 1.9-.3 2.8-.3 1.2 0 2.3.1 3.4.4 1.1.3 2 .6 2.8 1.1s1.4 1.1 1.9 1.8.7 1.5.7 2.4c0 .3-.1.7-.2 1.1-.1.4-.3.8-.6 1.1s-.7.6-1.1.9c-.5.2-1 .4-1.7.4-.6 0-1.3-.1-2-.3l-.1-.2c.2-.5.4-.9.4-1.3.1-.4.1-.8.1-1.1 0-.7-.2-1.3-.5-1.7-.3-.5-.8-.8-1.3-1.1-.5-.3-1.1-.5-1.7-.6-.6-.1-1.2-.2-1.8-.2-1.1 0-2 .1-2.8.4-.8.3-1.5.7-2.1 1.1-.6.5-1 1-1.3 1.6-.3.6-.5 1.2-.5 1.8 0 .8.2 1.5.6 2.2.4.6 1 1.2 1.7 1.8s1.5 1 2.5 1.5c.9.5 1.9.9 2.9 1.4 1.1.5 2.2 1.1 3.4 1.7 1.1.6 2.1 1.2 3 1.9.9.7 1.6 1.6 2.1 2.5.5.9.8 2 .8 3.3 0 1.5-.3 2.9-1 4.1-.7 1.2-1.6 2.2-2.7 3s-2.4 1.4-3.9 1.9c-1.5.4-3 .6-4.5.6-.8 0-1.6-.1-2.4-.2-.8-.1-1.6-.3-2.4-.5-.8-.2-1.5-.5-2.2-.9-.7-.3-1.3-.7-1.8-1.2s-.9-1-1.2-1.5c-.3-.6-.5-1.2-.5-1.8 0-.6.1-1.1.4-1.5.2-.4.6-.7 1-1 .4-.3.8-.4 1.3-.6.5-.1 1-.2 1.5-.2h.4zM110.4.8c-.3 2.5-.6 5.1-.9 7.7-.3 2.6-.6 5.3-.8 8-.3 2.7-.5 5.4-.7 8.1l-.6 8.1c-.2 2.6-.3 5.2-.4 7.8s-.1 5-.1 7.3c0 1.5 0 2.7.1 3.8 0 1.1.1 1.9.2 2.7.1.7.2 1.3.3 1.8s.3.8.5 1c.2.2.5.4.7.5.3.1.6.1 1 .1.7 0 1.5-.1 2.3-.3.8-.2 1.7-.5 2.5-.9l.4 1.2c-.5.4-1.2.9-2 1.3s-1.7.9-2.5 1.2-1.8.7-2.6.9c-.9.2-1.6.3-2.2.3-.8 0-1.4-.2-1.9-.6-.5-.4-.8-1.1-1.1-2-.2-.9-.4-2.1-.5-3.6-.1-1.5-.1-3.3-.1-5.4 0-.8 0-1.9.1-3.3s.1-3.1.2-5 .2-4 .3-6.2c.1-2.3.2-4.6.3-7 .1-2.4.2-4.8.4-7.3.1-2.5.3-4.8.4-7.1.1-2.3.3-4.4.4-6.5.1-2 .2-3.8.3-5.4 0-.4.1-.7.3-.9s.4-.5.7-.6c.3-.2.6-.3 1-.3.4-.1.8-.1 1.1-.1.9 0 1.9.2 2.9.7zM116.9 47.6c0-1.5.2-3 .5-4.6.3-1.5.8-3 1.4-4.5.6-1.4 1.4-2.8 2.3-4.1.9-1.3 1.9-2.4 3.1-3.3 1.2-.9 2.5-1.7 3.9-2.2 1.4-.5 3-.8 4.7-.8 1.9 0 3.6.4 5 1.2s2.7 1.9 3.7 3.2c1 1.3 1.7 2.8 2.3 4.5.5 1.7.8 3.4.8 5.1 0 1.5-.2 3-.5 4.6-.3 1.5-.8 3-1.4 4.5-.6 1.4-1.4 2.8-2.3 4.1-.9 1.3-1.9 2.4-3.1 3.3-1.2.9-2.5 1.7-3.9 2.2-1.4.5-3 .8-4.7.8-1.9 0-3.6-.4-5-1.2-1.5-.8-2.7-1.9-3.7-3.2-1-1.3-1.7-2.8-2.2-4.5-.6-1.6-.9-3.3-.9-5.1zm5.3-2.1c0 1 .1 2 .2 3.1.2 1 .4 2 .7 3 .3 1 .7 1.9 1.2 2.7.5.8 1.1 1.6 1.7 2.2s1.4 1.1 2.2 1.5c.8.4 1.7.5 2.7.5 1.1 0 2-.2 2.9-.7.8-.5 1.5-1.1 2.1-1.9.6-.8 1.1-1.7 1.5-2.6.4-1 .7-2 .9-3.1.2-1.1.4-2.1.5-3.1.1-1 .1-2 .1-2.9 0-1-.1-2-.2-3.1-.2-1-.4-2-.7-3-.3-1-.7-1.9-1.2-2.7s-1.1-1.6-1.7-2.2c-.7-.6-1.4-1.1-2.2-1.5-.8-.4-1.7-.5-2.7-.5-1.1 0-2 .2-2.9.7-.8.5-1.5 1.1-2.1 1.8-.6.8-1.1 1.7-1.5 2.6-.4 1-.7 2-.9 3.1-.2 1.1-.4 2.1-.5 3.1 0 1.2-.1 2.2-.1 3zM167.3 37.6c0-1.2-.2-2.2-.6-3-.4-.9-.9-1.6-1.5-2.1s-1.3-1-2.1-1.2c-.8-.3-1.6-.4-2.4-.4-1.1 0-1.9.1-2.7.3s-1.3.5-1.8.9-.8.8-1 1.4c-.2.5-.3 1.1-.3 1.7 0 .7.1 1.4.4 2.1.3.7.6 1.4 1.1 2.1l-.1.2c-.8.4-1.7.6-2.6.6-.5 0-1-.1-1.4-.2-.4-.2-.8-.4-1.1-.7-.3-.3-.6-.7-.8-1.1-.2-.4-.3-.9-.3-1.4 0-.9.2-1.7.6-2.5.4-.8 1-1.5 1.7-2.1.7-.6 1.5-1.2 2.4-1.7.9-.5 1.9-.9 2.8-1.3 1-.3 2-.6 2.9-.8 1-.2 1.9-.3 2.7-.3 1.6 0 2.9.2 4 .6 1.1.4 2 1 2.7 1.8s1.2 1.8 1.5 2.9c.3 1.1.5 2.4.5 3.8 0 1 0 2.1-.1 3.2-.1 1.2-.2 2.4-.3 3.7-.1 1.3-.2 2.6-.3 4-.1 1.4-.1 2.7-.1 4.1 0 2.1.4 3.7 1.2 4.8.8 1.1 1.8 1.6 3.1 1.6 1.1 0 2.4-.4 3.8-1.3l.6 1c-1 1-2.1 1.7-3.2 2.3-1.2.5-2.4.8-3.7.8-1 0-1.9-.2-2.7-.5-.8-.3-1.5-.8-2.1-1.5-.6-.6-1.1-1.5-1.4-2.4-.3-1-.5-2.1-.5-3.4v-1.2c0-.4.1-.8.1-1.2h-.1c-.6 1.3-1.4 2.5-2.2 3.8s-1.8 2.3-2.8 3.3c-1 1-2.1 1.8-3.2 2.4-1.1.6-2.3.9-3.6.9-1 0-2-.2-2.8-.5-.8-.4-1.6-.8-2.2-1.5-.6-.6-1.1-1.4-1.4-2.2-.3-.9-.5-1.8-.5-2.8 0-1.3.2-2.5.7-3.6.5-1.1 1.1-2 2-2.9.9-.8 1.9-1.6 3.1-2.2 1.2-.6 2.5-1.1 3.9-1.5 1.4-.4 2.9-.7 4.4-.9 1.6-.2 3.1-.3 4.8-.3l.3-2.7c.6-.9.6-1.9.6-2.9zm-13.6 15.2c0 .6.1 1.1.2 1.7.1.5.3 1 .6 1.4.3.4.6.7 1 .9.4.2.9.3 1.5.3.7 0 1.4-.2 2.1-.5.7-.3 1.4-.7 2.1-1.3.7-.5 1.3-1.2 2-2 .6-.8 1.2-1.6 1.7-2.5.5-.9.9-1.9 1.3-2.9.3-1 .6-2 .7-3.1-1.1 0-2.2.1-3.3.2-1.1.1-2.1.3-3.1.5s-1.9.5-2.7.9c-.8.4-1.5.9-2.1 1.4-.6.6-1.1 1.2-1.4 2-.4 1.1-.6 2-.6 3zM213.5.8c-.5 3.8-1 7.6-1.5 11.6-.5 3.9-.9 7.9-1.3 11.8s-.7 7.8-.9 11.6c-.2 3.8-.3 7.4-.3 10.9 0 1.7 0 3.1.1 4.3 0 1.2.1 2.2.2 3 .1.8.2 1.5.3 2 .1.5.3.9.5 1.1s.5.4.7.5c.3.1.6.1 1 .1.7 0 1.5-.1 2.3-.3.8-.2 1.7-.5 2.5-.9l.4 1.2c-.5.4-1.2.9-2 1.3s-1.7.9-2.5 1.2-1.8.7-2.6.9c-.9.2-1.6.3-2.2.3-.5 0-.9-.1-1.2-.2-.3-.1-.6-.3-.9-.5-.2-.3-.5-.6-.6-1-.2-.4-.3-1-.4-1.6-.1-.9-.2-1.9-.3-3.1-.1-1.2-.1-2.5-.1-3.9 0-1.5.1-3 .2-4.5s.3-3.1.5-4.6h-.2c-1.1 3-2.4 5.7-3.7 8.2-1.3 2.4-2.7 4.5-4.1 6.2s-2.9 3-4.3 4c-1.4.9-2.8 1.4-4.1 1.4-1.3 0-2.5-.3-3.4-1s-1.8-1.6-2.4-2.7-1.1-2.4-1.4-3.8c-.3-1.4-.4-2.9-.4-4.4 0-1.8.2-3.6.6-5.4.4-1.8 1-3.4 1.7-5s1.6-3.1 2.7-4.4c1.1-1.4 2.2-2.5 3.5-3.5 1.3-1 2.7-1.7 4.2-2.3 1.5-.6 3.1-.8 4.8-.8 1.2 0 2.3.1 3.5.4 1.2.3 2.3.8 3.5 1.5.1-2.5.2-5.1.3-7.7.1-2.6.2-5.1.4-7.6.1-2.5.3-4.8.5-7s.4-4.1.6-5.9c0-.4.2-.7.4-.9s.4-.5.7-.6c.3-.2.6-.3 1-.3.4-.1.7-.1 1.1-.1.7-.2 1.7 0 2.6.5zm-7.9 31.3c-2-.9-4-1.4-6-1.4-1.4 0-2.8.2-4 .7-1.2.5-2.3 1.1-3.3 1.9-1 .8-1.8 1.8-2.5 2.8-.7 1.1-1.3 2.3-1.8 3.5-.5 1.3-.8 2.6-1.1 3.9-.2 1.3-.4 2.7-.4 4 0 .5 0 1 .1 1.6 0 .6.1 1.3.3 1.9.1.7.3 1.3.5 1.9s.5 1.2.8 1.7c.3.5.7.9 1.1 1.2.4.3 1 .5 1.5.5 1.1 0 2.2-.4 3.3-1.2 1.1-.8 2.2-1.9 3.3-3.2 1.1-1.3 2.1-2.8 3-4.5s1.8-3.5 2.5-5.3c.7-1.8 1.3-3.6 1.8-5.3.5-1.7.8-3.3.9-4.7zM242.3 53.5c.1 0 .2.1.3.2s.3.2.4.3l.3.3c.1.1.1.2.1.3 0 .1 0 .1-.1.2-.8 1.2-1.7 2.2-2.7 3s-1.9 1.6-3 2.1c-1 .6-2.1 1-3.1 1.3s-2.1.4-3.2.4c-1.8 0-3.4-.4-4.9-1.1-1.5-.7-2.8-1.7-3.8-3-1.1-1.3-1.9-2.7-2.5-4.4-.6-1.7-.9-3.5-.9-5.5 0-1.6.2-3.2.5-4.8.3-1.6.9-3.1 1.5-4.5.7-1.4 1.5-2.8 2.4-4 .9-1.2 2-2.3 3.2-3.2 1.2-.9 2.5-1.6 4-2.1 1.4-.5 3-.8 4.7-.8 1.1 0 2.1.1 3.1.4 1 .3 1.9.7 2.6 1.3.7.6 1.3 1.2 1.8 2.1s.7 1.7.7 2.8c0 1.5-.5 2.8-1.5 4-1 1.1-2.3 2.1-4.1 2.9-1.7.8-3.8 1.4-6.1 1.9s-4.9.8-7.6 1.1v.3c0 1.9.2 3.6.7 5.2.5 1.6 1.1 2.9 2 4 .8 1.1 1.8 2 3 2.6s2.4.9 3.7.9c1.3 0 2.7-.3 4.1-1s3-1.7 4.4-3.2zm-4.2-17.8c0-.7-.1-1.3-.3-1.9s-.5-1.1-1-1.5c-.4-.4-.9-.8-1.5-1-.6-.3-1.2-.4-1.8-.4-1 0-1.8.2-2.6.5s-1.5.8-2.1 1.4c-.6.6-1.2 1.3-1.6 2-.5.8-.9 1.6-1.2 2.5s-.6 1.8-.8 2.7c-.2.9-.4 1.8-.4 2.7 2.1-.1 4-.4 5.7-.8 1.7-.4 3.1-.8 4.2-1.4 1.1-.6 2-1.3 2.6-2 .5-.9.8-1.8.8-2.8zM251.2 61h-.4c.1-1.4.2-2.9.3-4.6.1-1.7.2-3.3.3-5.1.1-1.7.2-3.4.2-5.1.1-1.7.1-3.3.2-4.7.1-1.5.1-2.8.1-3.9v-2.7c0-.5 0-1-.1-1.4s-.1-.7-.3-1-.4-.5-.7-.6c-.3-.1-.7-.2-1.2-.2h-.8c-.3 0-.6.1-.9.1-.3.1-.7.1-1.1.2s-.9.2-1.4.3l-.3-1.6c2.5-.9 4.5-1.5 6-1.9 1.5-.4 2.6-.5 3.1-.5 1 0 1.7.3 2.1.9.4.6.6 1.4.6 2.5v.9c0 .5-.1 1.2-.1 2-.1.8-.1 1.7-.2 2.8-.1 1.1-.2 2.2-.3 3.4-.1 1.2-.2 2.5-.3 3.8-.1 1.3-.2 2.6-.4 4h.2c.7-2.9 1.5-5.6 2.4-8.1.9-2.5 1.9-4.7 3-6.5 1.1-1.9 2.3-3.3 3.7-4.4 1.3-1.1 2.8-1.6 4.4-1.6.6 0 1.1.1 1.6.3.5.2.9.4 1.3.7.4.3.6.7.8 1.1.2.4.3.9.3 1.4 0 .7-.1 1.3-.4 1.9-.3.6-.7 1.2-1.4 1.6h-.2c-.6-.5-1.2-.9-1.8-1.1s-1.1-.3-1.8-.3-1.3.1-1.9.4c-.6.3-1.2.6-1.7 1.1-.8.8-1.6 1.8-2.4 3.1-.7 1.3-1.4 2.7-2 4.2-.6 1.5-1.1 3.2-1.6 4.9s-.9 3.3-1.2 5c-.3 1.6-.6 3.1-.8 4.5-.2 1.4-.4 2.6-.5 3.6l-4.4.6zM277.9 52.4c.1 1.1.4 2.1.9 2.9.5.8 1.1 1.5 1.8 2s1.5.9 2.4 1.2c.9.3 1.8.4 2.6.4s1.6-.1 2.4-.3c.8-.2 1.4-.5 2-1 .6-.4 1-.9 1.4-1.5.3-.6.5-1.3.5-2 0-.8-.2-1.5-.6-2.1-.4-.6-.9-1.1-1.5-1.6s-1.3-.9-2.2-1.4c-.8-.4-1.7-.8-2.6-1.3-.8-.4-1.6-.7-2.4-1.1-.8-.4-1.6-.8-2.3-1.2s-1.4-.9-2.1-1.4c-.6-.5-1.2-1.1-1.7-1.7-.5-.6-.9-1.3-1.1-2.1-.3-.8-.4-1.6-.4-2.6s.2-2 .5-2.8c.4-.9.8-1.6 1.5-2.3.6-.7 1.3-1.3 2.1-1.8s1.7-1 2.6-1.3c.9-.3 1.9-.6 2.8-.8 1-.2 1.9-.3 2.8-.3 1.2 0 2.3.1 3.4.4 1.1.3 2 .6 2.8 1.1s1.4 1.1 1.9 1.8.7 1.5.7 2.4c0 .3-.1.7-.2 1.1-.1.4-.3.8-.6 1.1s-.7.6-1.1.9c-.5.2-1 .4-1.7.4-.6 0-1.3-.1-2-.3l-.1-.2c.2-.5.4-.9.4-1.3.1-.4.1-.8.1-1.1 0-.7-.2-1.3-.5-1.7-.3-.5-.8-.8-1.3-1.1-.5-.3-1.1-.5-1.7-.6-.6-.1-1.2-.2-1.8-.2-1.1 0-2 .1-2.8.4-.8.3-1.5.7-2.1 1.1-.6.5-1 1-1.3 1.6s-.5 1.2-.5 1.8c0 .8.2 1.5.6 2.2.4.6 1 1.2 1.7 1.8s1.5 1 2.5 1.5c.9.5 1.9.9 2.9 1.4 1.1.5 2.2 1.1 3.4 1.7 1.1.6 2.1 1.2 3 1.9s1.6 1.6 2.1 2.5c.5.9.8 2 .8 3.3 0 1.5-.3 2.9-1 4.1-.7 1.2-1.6 2.2-2.7 3s-2.4 1.4-3.9 1.9c-1.5.4-3 .6-4.5.6-.8 0-1.6-.1-2.4-.2-.8-.1-1.6-.3-2.4-.5-.8-.2-1.5-.5-2.2-.9-.7-.3-1.3-.7-1.8-1.2s-.9-1-1.2-1.5c-.3-.6-.5-1.2-.5-1.8 0-.6.1-1.1.4-1.5.2-.4.6-.7 1-1 .4-.3.8-.4 1.3-.6.5-.1 1-.2 1.5-.2h.4z"/></svg>