<?xml version="1.0" encoding="utf-8"?>
<!-- Generator: Adobe Illustrator 19.2.1, SVG Export Plug-In . SVG Version: 6.00 Build 0)  -->
<svg version="1.1" id="Слой_1" xmlns="http://www.w3.org/2000/svg" xmlns:xlink="http://www.w3.org/1999/xlink" x="0px" y="0px"
	 viewBox="0 0 291 47" style="enable-background:new 0 0 291 47;" xml:space="preserve">
<style type="text/css">
	.st0{enable-background:new    ;}
	.st1{fill:#FF7E6F;}
</style>
<g class="st0">
	<path class="st1" d="M28.8,21H16.9V13c0-2.3-0.1-3.7-0.4-4.3c-0.3-0.6-0.8-0.9-1.7-0.9c-1,0-1.6,0.3-1.9,1
		c-0.3,0.7-0.4,2.2-0.4,4.5v21.2c0,2.2,0.1,3.7,0.4,4.3s0.9,1,1.8,1c0.9,0,1.5-0.3,1.7-1s0.4-2.3,0.4-4.8v-5.7h11.9v1.8
		c0,4.7-0.3,8.1-1,10s-2.1,3.7-4.4,5.2c-2.3,1.5-5.1,2.2-8.4,2.2c-3.5,0-6.3-0.6-8.6-1.9c-2.3-1.3-3.7-3-4.5-5.2s-1.1-5.6-1.1-10
		V17.2c0-3.3,0.1-5.8,0.3-7.4c0.2-1.6,0.9-3.2,2-4.7c1.1-1.5,2.7-2.7,4.6-3.6c2-0.9,4.3-1.3,6.8-1.3c3.5,0,6.4,0.7,8.6,2
		c2.3,1.4,3.8,3,4.5,5.1c0.7,2,1.1,5.2,1.1,9.4V21z"/>
	<path class="st1" d="M58.8,9.3v37.4H47.2l0.2-3.1c-0.8,1.3-1.8,2.2-2.9,2.8c-1.2,0.6-2.5,0.9-4,0.9c-1.7,0-3.1-0.3-4.3-0.9
		s-2-1.4-2.5-2.4c-0.5-1-0.9-2-1-3.1c-0.1-1.1-0.2-3.2-0.2-6.4V9.3h11.4v25.4c0,2.9,0.1,4.6,0.3,5.2c0.2,0.5,0.7,0.8,1.5,0.8
		c0.8,0,1.3-0.3,1.5-0.8c0.2-0.6,0.2-2.4,0.2-5.4V9.3H58.8z"/>
	<path class="st1" d="M74.2,1.1v10.8c0.9-1.1,2-1.9,3.1-2.4c1.2-0.5,2.4-0.8,3.8-0.8c1.6,0,2.9,0.2,4.1,0.7s2,1.2,2.6,2.1
		c0.6,0.9,1,1.7,1.1,2.6c0.1,0.8,0.2,2.6,0.2,5.4v16.8c0,2.7-0.2,4.8-0.5,6.1s-1.2,2.5-2.6,3.5s-3,1.5-4.8,1.5
		c-1.3,0-2.6-0.3-3.7-0.9c-1.2-0.6-2.2-1.5-3.2-2.6l-0.7,2.8H62.9V1.1H74.2z M77.7,20c0-1.9-0.1-3.2-0.4-3.8s-0.7-0.9-1.4-0.9
		c-0.7,0-1.1,0.3-1.4,0.8c-0.2,0.5-0.3,1.8-0.3,3.9v16.1c0,2,0.1,3.3,0.4,3.9c0.2,0.6,0.7,0.8,1.4,0.8c0.7,0,1.2-0.3,1.4-0.9
		c0.2-0.6,0.3-2,0.3-4.2V20z"/>
	<path class="st1" d="M104.6,1.1v5.9H92.8V1.1H104.6z M104.6,9.3v37.4H92.8V9.3H104.6z"/>
	<path class="st1" d="M133.8,23.4h-10.7v-4.3c0-1.5-0.1-2.5-0.4-3.1c-0.2-0.5-0.7-0.8-1.4-0.8s-1.1,0.2-1.3,0.7
		c-0.2,0.5-0.3,1.5-0.3,3.2v17.6c0,1.3,0.2,2.3,0.5,3c0.3,0.7,0.8,1,1.5,1c0.8,0,1.3-0.3,1.6-1c0.3-0.7,0.4-2,0.4-3.9v-4.5h10.1
		c0,3-0.1,5.2-0.3,6.7s-0.8,3-1.9,4.6c-1.1,1.6-2.4,2.8-4.2,3.5c-1.7,0.8-3.8,1.2-6.3,1.2c-3.2,0-5.8-0.5-7.6-1.6
		c-1.9-1.1-3.2-2.6-4-4.6s-1.2-4.8-1.2-8.4V22.1c0-3.2,0.3-5.6,1-7.2c0.6-1.6,2-3.1,4.1-4.3c2.1-1.3,4.6-1.9,7.6-1.9
		c3,0,5.5,0.6,7.6,1.9s3.5,2.8,4.2,4.8S133.8,19.9,133.8,23.4z"/>
	<path class="st1" d="M158.7,1.1v10.8c0.9-1.1,2-1.9,3.1-2.4c1.2-0.5,2.4-0.8,3.8-0.8c1.6,0,2.9,0.2,4.1,0.7s2,1.2,2.6,2.1
		c0.6,0.9,1,1.7,1.1,2.6c0.1,0.8,0.2,2.6,0.2,5.4v16.8c0,2.7-0.2,4.8-0.5,6.1s-1.2,2.5-2.6,3.5c-1.4,1-3,1.5-4.8,1.5
		c-1.3,0-2.6-0.3-3.7-0.9c-1.2-0.6-2.2-1.5-3.2-2.6l-0.7,2.8h-10.6V1.1H158.7z M162.2,20c0-1.9-0.1-3.2-0.4-3.8s-0.7-0.9-1.4-0.9
		c-0.7,0-1.1,0.3-1.4,0.8c-0.2,0.5-0.3,1.8-0.3,3.9v16.1c0,2,0.1,3.3,0.4,3.9c0.2,0.6,0.7,0.8,1.4,0.8c0.7,0,1.2-0.3,1.4-0.9
		c0.2-0.6,0.3-2,0.3-4.2V20z"/>
	<path class="st1" d="M203.1,28.7h-14.7v8.1c0,1.7,0.1,2.8,0.4,3.3c0.2,0.5,0.7,0.7,1.4,0.7c0.9,0,1.4-0.3,1.7-1
		c0.3-0.6,0.4-1.9,0.4-3.8v-4.9h10.8v2.8c0,2.3-0.1,4.1-0.4,5.3c-0.3,1.2-1,2.6-2,4c-1.1,1.4-2.4,2.5-4.1,3.2
		c-1.6,0.7-3.7,1.1-6.2,1.1c-2.4,0-4.5-0.3-6.4-1s-3.3-1.6-4.3-2.9c-1-1.2-1.7-2.5-2.1-4c-0.4-1.5-0.6-3.6-0.6-6.4V22.2
		c0-3.3,0.4-5.8,1.3-7.7s2.3-3.3,4.3-4.3c2-1,4.3-1.5,6.9-1.5c3.2,0,5.8,0.6,7.9,1.8c2.1,1.2,3.5,2.8,4.4,4.8c0.8,2,1.3,4.8,1.3,8.4
		V28.7z M191.7,22.6v-2.7c0-1.9-0.1-3.2-0.3-3.7s-0.6-0.8-1.3-0.8c-0.8,0-1.3,0.2-1.5,0.7c-0.2,0.5-0.3,1.8-0.3,3.9v2.7H191.7z"/>
	<path class="st1" d="M224.5,9.3v8.3l-8.4,21.6h8.4v7.5h-19.4v-7.8l8.6-22.1H206V9.3H224.5z"/>
	<path class="st1" d="M238.8,1.1v5.9h-11.7V1.1H238.8z M238.8,9.3v37.4h-11.7V9.3H238.8z"/>
	<path class="st1" d="M268.7,28.7h-14.7v8.1c0,1.7,0.1,2.8,0.4,3.3s0.7,0.7,1.4,0.7c0.9,0,1.4-0.3,1.7-1c0.3-0.6,0.4-1.9,0.4-3.8
		v-4.9h10.8v2.8c0,2.3-0.1,4.1-0.4,5.3c-0.3,1.2-1,2.6-2,4c-1.1,1.4-2.4,2.5-4.1,3.2c-1.6,0.7-3.7,1.1-6.2,1.1c-2.4,0-4.5-0.3-6.4-1
		c-1.8-0.7-3.3-1.6-4.3-2.9s-1.7-2.5-2.1-4c-0.4-1.5-0.6-3.6-0.6-6.4V22.2c0-3.3,0.4-5.8,1.3-7.7s2.3-3.3,4.3-4.3
		c2-1,4.3-1.5,6.9-1.5c3.2,0,5.8,0.6,7.9,1.8c2.1,1.2,3.5,2.8,4.4,4.8c0.8,2,1.3,4.8,1.3,8.4V28.7z M257.3,22.6v-2.7
		c0-1.9-0.1-3.2-0.3-3.7c-0.2-0.6-0.6-0.8-1.3-0.8c-0.8,0-1.3,0.2-1.5,0.7c-0.2,0.5-0.3,1.8-0.3,3.9v2.7H257.3z"/>
	<path class="st1" d="M283.8,9.3l-0.5,4.9c1.7-3.5,4-5.4,7.2-5.6v13.2c-2.1,0-3.6,0.3-4.6,0.8c-1,0.6-1.6,1.3-1.8,2.4
		c-0.2,1-0.3,3.3-0.3,6.9v14.8h-11.4V9.3H283.8z"/>
</g>
</svg>
