<svg id="Слой_1" xmlns="http://www.w3.org/2000/svg" viewBox="0 0 291 47"><style>.st0{enable-background:new ;} .st1{fill:#FF7E6F;}</style><g class="st0"><path class="st1" d="M28.8 21H16.9v-8c0-2.3-.1-3.7-.4-4.3-.3-.6-.8-.9-1.7-.9-1 0-1.6.3-1.9 1-.3.7-.4 2.2-.4 4.5v21.2c0 2.2.1 3.7.4 4.3s.9 1 1.8 1 1.5-.3 1.7-1 .4-2.3.4-4.8v-5.7h11.9v1.8c0 4.7-.3 8.1-1 10s-2.1 3.7-4.4 5.2c-2.3 1.5-5.1 2.2-8.4 2.2-3.5 0-6.3-.6-8.6-1.9-2.3-1.3-3.7-3-4.5-5.2S.7 34.8.7 30.4V17.2c0-3.3.1-5.8.3-7.4.2-1.6.9-3.2 2-4.7s2.7-2.7 4.6-3.6C9.6.6 11.9.2 14.4.2c3.5 0 6.4.7 8.6 2 2.3 1.4 3.8 3 4.5 5.1.7 2 1.1 5.2 1.1 9.4V21zM58.8 9.3v37.4H47.2l.2-3.1c-.8 1.3-1.8 2.2-2.9 2.8-1.2.6-2.5.9-4 .9-1.7 0-3.1-.3-4.3-.9s-2-1.4-2.5-2.4-.9-2-1-3.1c-.1-1.1-.2-3.2-.2-6.4V9.3h11.4v25.4c0 2.9.1 4.6.3 5.2.2.5.7.8 1.5.8s1.3-.3 1.5-.8c.2-.6.2-2.4.2-5.4V9.3h11.4zM74.2 1.1v10.8c.9-1.1 2-1.9 3.1-2.4 1.2-.5 2.4-.8 3.8-.8 1.6 0 2.9.2 4.1.7s2 1.2 2.6 2.1c.6.9 1 1.7 1.1 2.6.1.8.2 2.6.2 5.4v16.8c0 2.7-.2 4.8-.5 6.1s-1.2 2.5-2.6 3.5-3 1.5-4.8 1.5c-1.3 0-2.6-.3-3.7-.9-1.2-.6-2.2-1.5-3.2-2.6l-.7 2.8H62.9V1.1h11.3zM77.7 20c0-1.9-.1-3.2-.4-3.8s-.7-.9-1.4-.9-1.1.3-1.4.8c-.2.5-.3 1.8-.3 3.9v16.1c0 2 .1 3.3.4 3.9.2.6.7.8 1.4.8s1.2-.3 1.4-.9c.2-.6.3-2 .3-4.2V20zM104.6 1.1V7H92.8V1.1h11.8zm0 8.2v37.4H92.8V9.3h11.8zM133.8 23.4h-10.7v-4.3c0-1.5-.1-2.5-.4-3.1-.2-.5-.7-.8-1.4-.8s-1.1.2-1.3.7c-.2.5-.3 1.5-.3 3.2v17.6c0 1.3.2 2.3.5 3 .3.7.8 1 1.5 1 .8 0 1.3-.3 1.6-1 .3-.7.4-2 .4-3.9v-4.5h10.1c0 3-.1 5.2-.3 6.7s-.8 3-1.9 4.6c-1.1 1.6-2.4 2.8-4.2 3.5-1.7.8-3.8 1.2-6.3 1.2-3.2 0-5.8-.5-7.6-1.6-1.9-1.1-3.2-2.6-4-4.6s-1.2-4.8-1.2-8.4V22.1c0-3.2.3-5.6 1-7.2.6-1.6 2-3.1 4.1-4.3 2.1-1.3 4.6-1.9 7.6-1.9s5.5.6 7.6 1.9 3.5 2.8 4.2 4.8 1 4.5 1 8zM158.7 1.1v10.8c.9-1.1 2-1.9 3.1-2.4 1.2-.5 2.4-.8 3.8-.8 1.6 0 2.9.2 4.1.7s2 1.2 2.6 2.1c.6.9 1 1.7 1.1 2.6.1.8.2 2.6.2 5.4v16.8c0 2.7-.2 4.8-.5 6.1s-1.2 2.5-2.6 3.5c-1.4 1-3 1.5-4.8 1.5-1.3 0-2.6-.3-3.7-.9-1.2-.6-2.2-1.5-3.2-2.6l-.7 2.8h-10.6V1.1h11.2zm3.5 18.9c0-1.9-.1-3.2-.4-3.8s-.7-.9-1.4-.9-1.1.3-1.4.8c-.2.5-.3 1.8-.3 3.9v16.1c0 2 .1 3.3.4 3.9.2.6.7.8 1.4.8s1.2-.3 1.4-.9c.2-.6.3-2 .3-4.2V20zM203.1 28.7h-14.7v8.1c0 1.7.1 2.8.4 3.3.2.5.7.7 1.4.7.9 0 1.4-.3 1.7-1 .3-.6.4-1.9.4-3.8v-4.9h10.8v2.8c0 2.3-.1 4.1-.4 5.3-.3 1.2-1 2.6-2 4-1.1 1.4-2.4 2.5-4.1 3.2-1.6.7-3.7 1.1-6.2 1.1-2.4 0-4.5-.3-6.4-1s-3.3-1.6-4.3-2.9c-1-1.2-1.7-2.5-2.1-4-.4-1.5-.6-3.6-.6-6.4v-11c0-3.3.4-5.8 1.3-7.7s2.3-3.3 4.3-4.3 4.3-1.5 6.9-1.5c3.2 0 5.8.6 7.9 1.8 2.1 1.2 3.5 2.8 4.4 4.8.8 2 1.3 4.8 1.3 8.4v5zm-11.4-6.1v-2.7c0-1.9-.1-3.2-.3-3.7s-.6-.8-1.3-.8c-.8 0-1.3.2-1.5.7-.2.5-.3 1.8-.3 3.9v2.7h3.4zM224.5 9.3v8.3l-8.4 21.6h8.4v7.5h-19.4v-7.8l8.6-22.1H206V9.3h18.5zM238.8 1.1V7h-11.7V1.1h11.7zm0 8.2v37.4h-11.7V9.3h11.7zM268.7 28.7H254v8.1c0 1.7.1 2.8.4 3.3s.7.7 1.4.7c.9 0 1.4-.3 1.7-1 .3-.6.4-1.9.4-3.8v-4.9h10.8v2.8c0 2.3-.1 4.1-.4 5.3-.3 1.2-1 2.6-2 4-1.1 1.4-2.4 2.5-4.1 3.2-1.6.7-3.7 1.1-6.2 1.1-2.4 0-4.5-.3-6.4-1-1.8-.7-3.3-1.6-4.3-2.9s-1.7-2.5-2.1-4c-.4-1.5-.6-3.6-.6-6.4v-11c0-3.3.4-5.8 1.3-7.7s2.3-3.3 4.3-4.3 4.3-1.5 6.9-1.5c3.2 0 5.8.6 7.9 1.8 2.1 1.2 3.5 2.8 4.4 4.8.8 2 1.3 4.8 1.3 8.4v5zm-11.4-6.1v-2.7c0-1.9-.1-3.2-.3-3.7-.2-.6-.6-.8-1.3-.8-.8 0-1.3.2-1.5.7-.2.5-.3 1.8-.3 3.9v2.7h3.4zM283.8 9.3l-.5 4.9c1.7-3.5 4-5.4 7.2-5.6v13.2c-2.1 0-3.6.3-4.6.8-1 .6-1.6 1.3-1.8 2.4-.2 1-.3 3.3-.3 6.9v14.8h-11.4V9.3h11.4z"/></g></svg>