<svg id="Слой_1" xmlns="http://www.w3.org/2000/svg" viewBox="0 0 224 73"><style>.st0{fill:#FFBA6F;}</style><path class="st0" d="M8.3 59.9c-.6 0-1.1-.1-1.5-.3-.5-.2-.8-.5-1.1-.9-.3-.4-.6-.8-.7-1.3-.2-.5-.3-1-.3-1.6 0-.4 0-.8.1-1.3s.2-1 .4-1.7c.1-.3.2-.8.3-1.4.1-.6.3-1.3.4-2s.3-1.6.4-2.4c.2-.9.3-1.7.4-2.5.1-.8.2-1.6.3-2.3s.1-1.3.1-1.7v-.6c0-.3-.3-.6-.7-.7-.5-.1-.9-.3-1.5-.4-.5-.2-1-.4-1.4-.7-.4-.3-.6-.9-.6-1.6 0-.6.1-1.2.4-1.8s.7-.9 1.1-1.2c.6-.3 1.2-.5 1.8-.5.7 0 1.3-.1 2-.2.4 0 .6-.3.8-.7.1-.4.3-.8.4-1.1.3-1.1.6-2.2.9-3.4.3-1.2.7-2.5 1.1-3.8.4-1.3.9-2.5 1.4-3.8.5-1.2 1.1-2.4 1.8-3.4 1-1.4 2.2-2.7 3.3-4 1.2-1.2 2.5-2.3 3.8-3.2 1.3-.9 2.8-1.6 4.3-2.1s3.1-.8 4.8-.8c2.1 0 3.7.3 5 1 1.3.7 2.3 1.7 3.2 3.1.2.3.3.7.4 1 .1.3.1.7.1 1 0 .6-.1 1.2-.3 1.8-.2.5-.4 1-.7 1.4-.3.4-.7.7-1.1 1-.4.2-.8.3-1.3.3-.6 0-1.1-.1-1.5-.4-.3-.3-.6-.6-.8-.9-.2-.4-.4-.8-.5-1.2-.1-.5-.3-.9-.4-1.2-.2-.4-.4-.7-.6-.9-.3-.3-.6-.4-1.1-.4-.5 0-1 .1-1.6.2-.6.1-1.2.3-1.7.6-1.4.7-2.7 1.6-3.9 2.5-1.2.9-2.3 2.1-3.3 3.5s-2 3.1-2.8 5.2c-.9 2-1.7 4.5-2.4 7.5 0 0 0 .1-.1.2v.1s.1.1.3.1c.7 0 1.4 0 2-.1s1.3-.2 1.9-.3c.6-.1 1.3-.2 1.9-.3.6-.1 1.3-.1 2-.1.5 0 1 0 1.5.1.5 0 .9.1 1.2.3.3.2.6.4.8.6s.3.6.3 1.1c0 .3 0 .6-.1 1s-.2.8-.4 1.2c-.2.4-.4.7-.7 1-.3.3-.6.5-1 .6l-2.1.3c-.7.1-1.5.2-2.4.3-.9.1-1.8.3-2.9.5-1.1.2-2.3.5-3.6.8-.4 1.6-.7 3.1-1 4.7s-.4 3.1-.6 4.6c-.2 1.5-.3 3.1-.5 4.6-.2 1.5-.5 3.1-.8 4.6-.1.3-.2.6-.4.9-.2.3-.4.6-.6.8-.2.2-.5.4-.8.6-.4 0-.7.1-1.1.1zM46.8 55.2c0-.7.1-1.5.2-2.4.2-.9.2-2.1.2-3.5-.8.6-1.6 1.2-2.5 2-.9.8-1.9 1.5-2.9 2.2-1 .7-2 1.3-3 1.8s-1.9.7-2.8.7c-.7 0-1.4-.1-2-.3s-1.2-.5-1.6-.8c-1.2-1-2.1-1.9-2.7-2.9s-.8-2.1-.8-3.4c0-.6.1-1.2.2-1.8.1-.6.3-1.3.5-2.1.9-3.7 2.4-7 4.5-10.1 2.1-3.1 4.8-5.8 8-8 1.2-.9 2.4-1.4 3.7-1.6 1.2-.2 2.4-.4 3.6-.4.5 0 1.1 0 1.8.1s1.3.1 1.8.2c.5-.1 1-.2 1.3-.2.3 0 .7-.1 1.1-.1.7 0 1.3.1 1.7.3.5.2.8.4 1.1.7.3.3.5.7.6 1.1.1.4.2.8.2 1.3 0 .6-.1 1.2-.3 1.7-.2.5-.4 1.1-.6 1.6l-4.6 18.3c-.1 1-.2 1.9-.2 2.7s-.2 1.6-.4 2.3c-.1.2-.2.5-.3.8-.1.3-.3.6-.5.9-.2.3-.5.5-.9.7s-.8.3-1.4.3c-.7 0-1.3 0-1.7-.1-.4-.1-.8-.2-1-.4-.2-.2-.4-.4-.5-.6.2-.4.2-.7.2-1zM35.2 44.7c-.1.3-.2.8-.3 1.4-.1.6-.2 1.2-.2 1.8 0 .6.1 1.2.3 1.7.2.5.6.7 1.2.7 1 0 1.9-.2 2.7-.6.8-.4 1.6-.9 2.4-1.5 1-.8 2-1.7 3-2.7 1-1 2-2.1 2.9-3.2.9-1.1 1.7-2.2 2.4-3.4.7-1.2 1.2-2.3 1.5-3.5.2-.7.3-1.4.5-2.3.1-.9.2-1.7.2-2.4 0-.3-.1-.6-.2-.9s-.4-.4-.8-.4c-1.1 0-2.3.2-3.4.7-1.1.4-2.2 1-3.3 1.8-1.1.7-2.1 1.6-3 2.6-1 1-1.8 2.1-2.6 3.2s-1.5 2.3-2 3.5c-.5 1.2-1 2.4-1.3 3.5zM66.3 45.3c.5-1.9 1-3.9 1.6-6.1.6-2.2 1.2-4.5 1.9-6.8.6-2.3 1.3-4.6 1.9-6.8.6-2.3 1.2-4.4 1.8-6.4.5-2 1-3.8 1.4-5.4.4-1.6.6-2.9.8-3.9l.2-2.9c.1-.2.1-.4.2-.7.1-.3.2-.5.4-.7l.6-.6c.3-.2.6-.2 1-.2.7 0 1.3.1 1.8.4.5.3.9.6 1.2 1 .3.4.5.9.6 1.5.1.6.2 1.1.2 1.7 0 .6 0 1.2-.1 1.8-.1.6-.2 1.2-.3 1.6-.8 3.2-1.6 6.4-2.6 9.6-1 3.2-1.9 6.5-2.7 9.7.9-.9 1.9-1.7 2.9-2.4s2.1-1.5 3.3-2c1.1-.6 2.3-1.1 3.5-1.4 1.2-.3 2.4-.5 3.6-.5 1.3 0 2.4.2 3.3.6.9.4 1.7.9 2.3 1.5.6.6 1 1.4 1.3 2.3.3.9.4 1.8.4 2.8 0 .5 0 1-.1 1.5s-.1 1-.3 1.5c-.6 2.4-1.5 4.6-2.5 6.4-1.1 1.9-2.3 3.6-3.7 5.1-1.4 1.5-2.9 2.8-4.5 4-1.6 1.1-3.3 2.2-4.9 3.1-1.1.6-2.1 1-3.1 1.3-1 .3-2 .5-3 .5-.9 0-1.7-.1-2.2-.3-.5-.2-.9-.5-1.3-.9-.1.2-.3.5-.4.7-.2.3-.4.5-.6.7-.2.2-.5.4-.9.5-.3.1-.7.2-1.1.2-1.3 0-2.3-.3-2.8-1-.6-.7-.8-1.5-.8-2.7 0-.4 0-.8.1-1.2s.1-.8.3-1.2l1.3-5.9zm22-14.1c-1.1 0-2.3.3-3.6.8-1.3.6-2.6 1.2-3.9 2.1-1.3.8-2.5 1.7-3.7 2.6-1.2.9-2.3 1.8-3.2 2.5-.3.9-.6 1.9-.8 2.7-.3.9-.5 1.8-.8 2.7-.3.9-.5 1.8-.7 2.8-.2.9-.4 2-.6 3l-.2 1.4.2.6c.5-.3.9-.5 1.3-.6s.8-.3 1.2-.4l1.2-.3c.4-.1.9-.3 1.4-.5 3.6-1.5 6.7-3.4 9.1-5.9 2.5-2.4 4.1-5.5 5-9 .1-.5.2-1 .3-1.4.1-.4.1-.8.1-1.1 0-.7-.2-1.2-.6-1.6-.2-.2-.8-.4-1.7-.4zM103 53.1c.3-1.6.6-3.4 1-5.3s.8-3.9 1.2-5.9c.4-2 .8-3.9 1.2-5.9.4-1.9.7-3.7 1-5.3v-.6-.6c0-.7 0-1.4.1-2.1.1-.7.2-1.4.4-2 .3-.9.5-1.5.8-1.8.3-.3.8-.5 1.5-.5s1.2.1 1.6.4c.4.3.7.6 1 1.1.2.4.4.9.5 1.5.1.6.1 1.2.1 1.8v2c.6-.7 1.3-1.4 2.1-2.1.7-.7 1.5-1.3 2.3-1.9.8-.6 1.7-1 2.6-1.4.9-.4 1.9-.6 2.9-.6.4 0 .8 0 1.2.1l1.2.3c.5.1.9.3 1.4.5.5.2 1 .5 1.4.8.8.6 1.4 1.3 1.9 2.2.5.9.8 1.8.8 2.7 0 .3-.1.7-.2 1.1s-.3.8-.6 1.1c-.2.3-.5.6-.8.8-.3.2-.7.3-1.1.3-.4 0-.9-.1-1.4-.3-.6-.2-1-.5-1.4-.8-.2-.1-.3-.3-.5-.6s-.3-.5-.5-.8c-.2-.3-.3-.5-.4-.7-.1-.2-.2-.4-.3-.4-.1 0-.2 0-.4-.1h-.4c-1.2 0-2.3.3-3.4.9-1.1.6-2.1 1.3-3 2.2-.9.9-1.8 1.8-2.5 2.8s-1.5 1.9-2 2.7c-.5 1.9-1 3.9-1.5 6-.6 2.1-1.1 4.3-1.7 6.6v.9c0 .7 0 1.4-.1 2.1 0 .7-.2 1.4-.4 1.9-.3.3-.6.6-1.1.9-.5.2-1 .4-1.6.4-1 0-1.7-.3-2.2-1-.5-.6-.7-1.4-.7-2.2-.2-.4-.2-.8 0-1.2zM132.4 50.3c.3-1.3.8-2.9 1.2-4.7.5-1.8 1-3.7 1.5-5.7s1.1-4 1.6-6.1 1.1-4.1 1.6-6.1c0-.1.1-.2.2-.5s.3-.4.6-.7c.3-.2.6-.4 1-.6.4-.2.9-.2 1.4-.2.4 0 .8 0 1.1.1.4.1.7.2 1 .4.3.2.5.4.7.6.2.3.3.6.3.9v.4l-1 3.7c-1.1 4.1-2.2 8.2-3.3 12.4-1.1 4.1-2.2 8.3-3.3 12.4 0 .1-.1.3-.2.5s-.2.4-.4.6c-.2.2-.4.4-.6.5-.2.1-.5.2-.8.2-.6 0-1.1-.1-1.6-.4-.5-.2-.9-.5-1.2-.9-.3-.4-.6-.8-.7-1.2-.2-.4-.2-.9-.2-1.2v-.3c0-.1 0-.2.1-.3l1-3.8zm9.1-35.9c.1-.5.3-1.1.6-1.8s.8-1.3 1.6-1.9c.4-.2.8-.4 1.4-.6.5-.2.9-.3 1.1-.3.2 0 .5.1.7.2.2.2.5.3.6.5.2.2.5.5.7.8.6 0 1 .3 1.1.6.2.4.3.8.3 1.3 0 .4 0 .7-.1 1-.1.3-.1.5-.2.7-.1.5-.4.9-.8 1.3s-.8.8-1.4 1c-.5.3-1 .5-1.6.7-.6.2-1 .2-1.5.2s-.9-.1-1.2-.3c-.3-.2-.7-.6-1.1-1.2-.3-.3-.4-.6-.4-.8 0-.2-.1-.4-.1-.5 0-.3 0-.5.1-.7.1.2.1 0 .2-.2zM150.6 43.1c.4-1.8 1.1-3.6 2-5.6.9-1.9 1.9-3.8 3.1-5.6 1.2-1.8 2.6-3.5 4.2-5s3.3-2.8 5.1-3.8c.6-.3 1.3-.6 2-.7.7-.2 1.4-.2 2.2-.2.8 0 1.5.1 2.1.2.7.1 1.2.4 1.7.7.5.3.8.7 1.1 1.2.3.5.4 1.1.4 1.9 0 .6-.1 1.1-.2 1.7-.2.6-.4 1.1-.7 1.5-.3.5-.7.8-1.2 1.1s-1.1.4-1.7.4c-.5 0-1-.1-1.4-.3l-1.2-.6c-.2-.1-.4-.3-.6-.4-.2-.1-.4-.2-.7-.3-.9.4-1.8 1-2.6 1.6s-1.6 1.4-2.3 2.3-1.4 1.7-1.9 2.7c-.6.9-1.1 1.9-1.6 2.8-.5.9-.9 1.9-1.2 2.8-.3.9-.6 1.8-.8 2.5-.2.6-.3 1.2-.4 1.9-.1.7-.2 1.4-.2 2.1 0 .5 0 .9.1 1.3s.2.8.4 1.1c.2.3.5.6.8.8.3.2.8.3 1.3.3.8 0 1.6-.1 2.4-.3.8-.2 1.6-.5 2.3-.8.8-.3 1.5-.7 2.2-1.1.7-.4 1.4-.9 2.1-1.3.4-.3.9-.6 1.3-.9.4-.3.9-.6 1.2-.8.4-.2.8-.4 1.1-.6.3-.1.6-.2.9-.2.3 0 .7.1 1 .3.3.2.5.5.5.9 0 .3-.1.6-.2 1-.3.9-.8 1.7-1.3 2.4-.6.7-1.2 1.4-1.9 1.9s-1.4 1.1-2.2 1.5c-.8.4-1.5.8-2.3 1.2-1.4.8-2.9 1.3-4.4 1.7-1.5.4-2.7.6-3.7.6-.3 0-.7 0-1.1-.1-.4-.1-.8-.2-1.1-.3-1.9-.8-3.2-1.9-4.1-3.3-.9-1.4-1.3-3-1.3-4.9 0-.8.1-1.7.2-2.5.1-.9.3-1.8.6-2.8zM169.6 72.7c-.9 0-1.7-.3-2.1-.8-.5-.5-.7-1.1-.7-1.7 0-1 .3-1.8.8-2.5.6-.7 1.2-1.3 2-1.9l2.4-1.5c.8-.4 1.5-.8 2-1.3 1-.9 2-1.9 2.8-3 .8-1.1 1.4-2.2 1.9-3.2.7-1.5 1.4-3.2 2.1-5.1.7-1.8 1.3-3.8 1.8-5.7.6-2 1.1-4 1.5-6 .5-2 .8-4 1.2-5.9.1-.6.2-1.1.2-1.6s0-1 .1-1.5c0-1.2.2-2.2.3-2.9.2-.7.4-1.3.8-1.7.3-.4.7-.7 1.2-.8s1-.2 1.6-.2c1.3 0 2.2.3 2.7 1 .5.6.8 1.6.8 2.8 0 .7-.1 1.7-.3 3-.2 1.3-.5 2.9-.9 4.7-.4 1.8-.8 3.7-1.4 5.8s-1.2 4.2-1.9 6.3c-.7 2.1-1.5 4.3-2.4 6.3-.9 2.1-1.8 4-2.8 5.8-.2.4-.5.8-.8 1.2-.3.4-.6.9-1 1.3-.3.4-.7.8-1 1.2-.3.4-.6.8-.9 1.1-.9 1.1-1.8 2-2.6 2.8-.8.8-1.6 1.5-2.4 2-.8.5-1.6 1-2.4 1.2-.8.6-1.7.8-2.6.8zm18-56.8c0-.9.2-1.6.7-2.2.4-.6 1-1.1 1.6-1.6.5-.3 1-.6 1.4-.8.4-.2.8-.3 1.3-.3.6 0 1.1.1 1.6.3.4.2.8.5 1 .8.3.3.4.7.5 1.1.1.4.2.8.2 1.2 0 .8-.2 1.6-.5 2.4-.3.7-.9 1.5-1.8 2.1-.3.3-.6.5-1 .6-.3.2-.7.2-1 .2-1.2 0-2.1-.3-2.9-1-.7-.6-1.1-1.5-1.1-2.8zM199.5 50.5c.2 0 .4 0 .5.1.1 0 .3.1.5.2s.4.1.6.2c.2 0 .5.1.9.1 1.1 0 2.3-.1 3.6-.3 1.3-.2 2.6-.5 3.8-.9 1.2-.4 2.2-.8 3-1.3.8-.5 1.3-1 1.4-1.5.1-.3.1-.5.1-.7 0-.4-.2-.8-.6-1.1-.4-.4-.9-.7-1.4-1-.6-.3-1.2-.6-1.9-.9-.7-.3-1.3-.5-1.9-.8l-1.2-.5c-.6-.2-1.2-.5-1.8-.8-.6-.3-1.1-.7-1.6-1.2-.5-.4-.9-1-1.3-1.5-.4-.6-.7-1.3-.8-2-.1-.3-.2-.6-.2-1-.1-.3-.1-.7-.1-1 0-.6.2-1.3.6-2.1.4-.8.9-1.5 1.6-2.3s1.5-1.5 2.3-2.2c.9-.7 1.8-1.3 2.7-1.7.7-.5 1.4-.9 2-1.3.6-.4 1.3-.7 2-1 .7-.3 1.3-.5 2-.7.7-.2 1.4-.2 2.2-.2.7 0 1.4 0 2.3.1.8.1 1.5.2 2.2.5.7.3 1.2.6 1.7 1.1.5.5.7 1.2.7 2 0 .3 0 .6-.1 1L223 29c-.2.4-.4.8-.6 1.1-.2.3-.5.5-.8.5-.5 0-1-.1-1.3-.3-.3-.2-.7-.4-.9-.7-.3-.2-.6-.5-.9-.7-.3-.2-.7-.3-1.1-.3-.5 0-1.1.1-1.9.3s-1.4.5-2.2.8c-.7.3-1.5.7-2.2 1.2-.7.4-1.3.9-1.9 1.4-.6.5-1 .9-1.4 1.4-.3.5-.5.9-.5 1.2 0 .4.1.7.4 1 .3.3.6.5 1 .7.5.3 1.1.6 1.8.8.7.3 1.3.6 2 .8.7.3 1.3.6 2 .8.6.3 1.2.5 1.6.8.6.3 1.2.6 1.7 1 .5.3.9.7 1.3 1 .3.4.6.8.8 1.2.2.5.3 1 .3 1.6 0 .3 0 .6-.1.9 0 .3-.1.6-.2 1-.1.3-.2.8-.4 1.2-.2.5-.4.9-.6 1.4-.2.5-.4.9-.6 1.2-.2.4-.4.6-.5.7-.9.8-2 1.6-3.2 2.3-1.2.7-2.5 1.4-3.8 1.9-1.3.5-2.7 1-4 1.3-1.3.3-2.5.5-3.7.5-.6 0-1.2-.1-1.8-.3-.7-.2-1.3-.5-1.9-.9-.6-.4-1-.8-1.4-1.2-.4-.5-.6-.9-.6-1.4 0-.2.1-.5.2-.8.1-.3.3-.6.5-.8.2-.2.4-.5.7-.6.3-.4.5-.5.7-.5z"/></svg>