<?xml version="1.0" encoding="iso-8859-1"?>
<!-- Generator: Adobe Illustrator 19.0.0, SVG Export Plug-In . SVG Version: 6.00 Build 0)  -->
<svg version="1.1" id="Capa_1" xmlns="http://www.w3.org/2000/svg" xmlns:xlink="http://www.w3.org/1999/xlink" x="0px" y="0px"
	 viewBox="0 0 56 56" style="enable-background:new 0 0 56 56;" xml:space="preserve">
<g>
	<path d="M28,23c-2.757,0-5,2.243-5,5s2.243,5,5,5s5-2.243,5-5S30.757,23,28,23z M28,31c-1.654,0-3-1.346-3-3s1.346-3,3-3
		s3,1.346,3,3S29.654,31,28,31z"/>
	<path d="M55,27h-3.025c-0.242-5.864-2.595-11.191-6.322-15.239l2.146-2.146c0.391-0.391,0.391-1.023,0-1.414s-1.023-0.391-1.414,0
		l-2.146,2.146C40.191,6.621,34.864,4.267,29,4.025V1c0-0.553-0.447-1-1-1s-1,0.447-1,1v3.025
		c-5.864,0.242-11.191,2.595-15.239,6.322L9.615,8.201c-0.391-0.391-1.023-0.391-1.414,0s-0.391,1.023,0,1.414l2.146,2.146
		C6.621,15.809,4.267,21.136,4.025,27H1c-0.553,0-1,0.447-1,1s0.447,1,1,1h3.025c0.242,5.864,2.595,11.191,6.322,15.239
		l-2.146,2.146c-0.391,0.391-0.391,1.023,0,1.414c0.195,0.195,0.451,0.293,0.707,0.293s0.512-0.098,0.707-0.293l2.146-2.146
		c4.048,3.726,9.375,6.08,15.239,6.322V55c0,0.553,0.447,1,1,1s1-0.447,1-1v-3.025c5.864-0.242,11.191-2.595,15.239-6.322
		l2.146,2.146c0.195,0.195,0.451,0.293,0.707,0.293s0.512-0.098,0.707-0.293c0.391-0.391,0.391-1.023,0-1.414l-2.146-2.146
		c3.726-4.048,6.08-9.375,6.322-15.239H55c0.553,0,1-0.447,1-1S55.553,27,55,27z M28,50C15.869,50,6,40.131,6,28S15.869,6,28,6
		s22,9.869,22,22S40.131,50,28,50z"/>
</g>
<g>
</g>
<g>
</g>
<g>
</g>
<g>
</g>
<g>
</g>
<g>
</g>
<g>
</g>
<g>
</g>
<g>
</g>
<g>
</g>
<g>
</g>
<g>
</g>
<g>
</g>
<g>
</g>
<g>
</g>
</svg>
