<?xml version="1.0" encoding="iso-8859-1"?>
<!-- Generator: Adobe Illustrator 19.0.0, SVG Export Plug-In . SVG Version: 6.00 Build 0)  -->
<svg version="1.1" id="Capa_1" xmlns="http://www.w3.org/2000/svg" xmlns:xlink="http://www.w3.org/1999/xlink" x="0px" y="0px"
	 viewBox="0 0 60 60" style="enable-background:new 0 0 60 60;" xml:space="preserve">
<g>
	<path d="M59,31c0.553,0,1-0.447,1-1s-0.447-1-1-1h-3.025c-0.062-1.629-0.276-3.218-0.625-4.757l2.921-0.783
		c0.533-0.143,0.85-0.691,0.707-1.225c-0.142-0.533-0.69-0.848-1.225-0.707l-2.915,0.781c-0.034-0.11-0.073-0.217-0.109-0.326
		c-0.002-0.006,0-0.011-0.002-0.017c-0.002-0.006-0.007-0.01-0.01-0.017c-0.461-1.413-1.04-2.773-1.726-4.069l2.622-1.514
		c0.479-0.276,0.643-0.888,0.366-1.366c-0.277-0.479-0.891-0.644-1.366-0.366l-2.626,1.516c-0.858-1.357-1.835-2.63-2.922-3.802
		l2.146-2.146c0.391-0.391,0.391-1.023,0-1.414s-1.023-0.391-1.414,0l-2.146,2.146C46.48,9.847,45.207,8.87,43.85,8.012l1.516-2.626
		C45.643,4.907,45.479,4.296,45,4.02c-0.478-0.276-1.09-0.114-1.366,0.366L42.12,7.008c-1.406-0.744-2.886-1.367-4.429-1.846
		l0.781-2.915c0.143-0.533-0.174-1.082-0.707-1.225c-0.531-0.141-1.082,0.174-1.225,0.707L35.757,4.65
		C34.218,4.301,32.629,4.087,31,4.025V1c0-0.553-0.447-1-1-1s-1,0.447-1,1v3.025c-1.629,0.062-3.218,0.275-4.757,0.625L23.46,1.729
		c-0.143-0.534-0.69-0.849-1.225-0.707c-0.533,0.143-0.85,0.691-0.707,1.225l0.781,2.915c-1.543,0.479-3.023,1.102-4.429,1.846
		l-1.514-2.622C16.089,3.905,15.476,3.743,15,4.02c-0.479,0.276-0.643,0.888-0.366,1.366l1.516,2.626
		c-1.357,0.858-2.63,1.835-3.803,2.922l-2.146-2.146c-0.391-0.391-1.023-0.391-1.414,0s-0.391,1.023,0,1.414l2.146,2.146
		C9.847,13.52,8.87,14.793,8.012,16.15l-2.626-1.516C4.908,14.356,4.296,14.521,4.02,15c-0.276,0.479-0.112,1.09,0.366,1.366
		l2.622,1.514c-0.686,1.296-1.264,2.656-1.726,4.069c-0.002,0.006-0.007,0.01-0.01,0.017c-0.002,0.006,0,0.011-0.002,0.017
		c-0.035,0.109-0.075,0.217-0.109,0.326l-2.915-0.781c-0.531-0.14-1.082,0.174-1.225,0.707s0.174,1.082,0.707,1.225l2.921,0.783
		C4.301,25.782,4.087,27.371,4.025,29H1c-0.553,0-1,0.447-1,1s0.447,1,1,1h3.025c0.062,1.629,0.276,3.218,0.625,4.757L1.729,36.54
		c-0.533,0.143-0.85,0.691-0.707,1.225c0.119,0.447,0.523,0.741,0.965,0.741c0.086,0,0.173-0.011,0.26-0.034l2.915-0.781
		c0.479,1.543,1.102,3.023,1.846,4.429l-2.622,1.514C3.907,43.91,3.743,44.521,4.02,45c0.186,0.321,0.521,0.5,0.867,0.5
		c0.17,0,0.342-0.043,0.499-0.134l2.626-1.516c0.858,1.357,1.835,2.63,2.922,3.802l-2.146,2.146c-0.391,0.391-0.391,1.023,0,1.414
		c0.195,0.195,0.451,0.293,0.707,0.293s0.512-0.098,0.707-0.293l2.146-2.146c0.736,0.682,1.511,1.322,2.323,1.916
		c0.018,0.015,0.028,0.037,0.048,0.052c0.028,0.02,0.06,0.028,0.089,0.045c0.438,0.316,0.886,0.619,1.344,0.909l-1.516,2.626
		c-0.276,0.479-0.112,1.09,0.366,1.366c0.157,0.091,0.329,0.134,0.499,0.134c0.346,0,0.682-0.179,0.867-0.5l1.514-2.622
		c1.406,0.744,2.886,1.367,4.429,1.846l-0.781,2.915c-0.143,0.533,0.174,1.082,0.707,1.225c0.087,0.023,0.174,0.034,0.26,0.034
		c0.441,0,0.846-0.294,0.965-0.741l0.783-2.921c1.539,0.35,3.129,0.563,4.757,0.625V59c0,0.553,0.447,1,1,1s1-0.447,1-1v-3.025
		c1.629-0.062,3.218-0.275,4.757-0.625l0.783,2.921c0.119,0.447,0.523,0.741,0.965,0.741c0.086,0,0.173-0.011,0.26-0.034
		c0.533-0.143,0.85-0.691,0.707-1.225l-0.781-2.915c1.543-0.479,3.023-1.102,4.429-1.846l1.514,2.622
		c0.186,0.321,0.521,0.5,0.867,0.5c0.17,0,0.342-0.043,0.499-0.134c0.479-0.276,0.643-0.888,0.366-1.366l-1.516-2.626
		c0.458-0.29,0.906-0.593,1.344-0.909c0.029-0.017,0.061-0.025,0.088-0.045c0.02-0.014,0.029-0.036,0.048-0.052
		c0.811-0.594,1.586-1.234,2.323-1.916l2.146,2.146c0.195,0.195,0.451,0.293,0.707,0.293s0.512-0.098,0.707-0.293
		c0.391-0.391,0.391-1.023,0-1.414l-2.146-2.146c1.086-1.172,2.064-2.446,2.922-3.802l2.626,1.516
		c0.157,0.091,0.329,0.134,0.499,0.134c0.346,0,0.682-0.179,0.867-0.5c0.276-0.479,0.112-1.09-0.366-1.366l-2.622-1.514
		c0.744-1.406,1.367-2.886,1.846-4.429l2.915,0.781c0.087,0.023,0.174,0.034,0.26,0.034c0.441,0,0.846-0.294,0.965-0.741
		c0.143-0.533-0.174-1.082-0.707-1.225l-2.921-0.783c0.349-1.539,0.563-3.129,0.625-4.757H59z M44.893,48.799l-7.655-10.537
		C39.538,36.244,41,33.293,41,30c0-0.836-0.102-1.648-0.28-2.431l12.39-4.026C53.686,25.599,54,27.763,54,30
		C54,37.61,50.436,44.399,44.893,48.799z M30,54c-4.907,0-9.474-1.483-13.279-4.021l7.658-10.541C26.026,40.423,27.945,41,30,41
		s3.974-0.577,5.622-1.562l7.658,10.541C39.474,52.517,34.907,54,30,54z M6,30c0-2.237,0.314-4.401,0.89-6.458l12.39,4.026
		C19.102,28.352,19,29.164,19,30c0,3.293,1.462,6.244,3.761,8.262l-7.655,10.537C9.564,44.399,6,37.61,6,30z M29,6.025v13.025
		c-4.094,0.371-7.546,2.991-9.107,6.614L7.505,21.639C10.796,12.813,19.139,6.432,29,6.025z M52.495,21.639l-12.388,4.026
		c-1.56-3.624-5.013-6.243-9.107-6.614V6.025C40.861,6.432,49.204,12.813,52.495,21.639z M30,39c-4.963,0-9-4.037-9-9s4.037-9,9-9
		s9,4.037,9,9S34.963,39,30,39z"/>
	<circle cx="30" cy="30" r="1"/>
</g>
<g>
</g>
<g>
</g>
<g>
</g>
<g>
</g>
<g>
</g>
<g>
</g>
<g>
</g>
<g>
</g>
<g>
</g>
<g>
</g>
<g>
</g>
<g>
</g>
<g>
</g>
<g>
</g>
<g>
</g>
</svg>
