<?xml version="1.0" encoding="utf-8"?>
<!-- Generator: Adobe Illustrator 21.1.0, SVG Export Plug-In . SVG Version: 6.00 Build 0)  -->
<svg version="1.1" id="logo-words" xmlns="http://www.w3.org/2000/svg" xmlns:xlink="http://www.w3.org/1999/xlink" x="0px" y="0px"
	 viewBox="0 0 1293.8 1075.4" style="enable-background:new 0 0 1293.8 1075.4;" xml:space="preserve">
<style type="text/css">
	.st0{stroke:#000000;stroke-width:3;stroke-miterlimit:10;}
	.st1{fill:#7AC7C4;}
	.st2{fill:none;stroke:#000000;stroke-width:28;stroke-linecap:round;stroke-linejoin:round;stroke-miterlimit:1.5;}
</style>
<g>
	<path class="st0" d="M7.3,1075.4l-7.3-6.8c4.9-5.1,8.8-11.2,11.7-18.5c2.9-7.2,4.4-15.7,4.4-25.3V913.7h9.6v110.6
		c0,11.3-1.6,21.2-4.9,29.8C17.4,1062.7,13,1069.8,7.3,1075.4z M12.7,875.7c0-2.4,0.8-4.5,2.5-6.2s3.7-2.5,5.9-2.5s4.2,0.8,5.9,2.5
		s2.5,3.8,2.5,6.2s-0.8,4.5-2.5,6.1c-1.6,1.6-3.7,2.4-5.9,2.4c-2.3,0-4.2-0.8-5.9-2.4C13.5,880.1,12.7,878.1,12.7,875.7z
		 M154.6,1023.8h-7.9l-0.8-29.3c-3.8,9.1-10.2,16.8-18.3,22.3c-8.3,5.6-17.9,8.5-28.8,8.5c-10.5,0-18.9-3.1-25-9.2s-9.4-14-9.7-23.6
		v-78.7h9.6v77c0.4,6.6,2.8,12.2,7.2,16.9c4.4,4.7,10.8,7.3,19,7.9c6.2,0,12-1,17.4-3.1c5.2-2,10-4.8,14.2-8.5
		c4.1-3.5,7.4-7.9,9.7-12.8c2.3-5,3.5-10.5,3.5-16.5v-60.9h9.9V1023.8z M249.1,924.5l-5.6,6.8c-2.3-2.8-5.7-5.1-10.4-6.9
		c-4.7-1.8-9.1-2.7-13.3-2.7c-2.3,0-4.7,0.3-7.2,1c-2.5,0.6-4.8,1.7-6.9,3.2c-2.1,1.6-3.9,3.5-5.2,5.8c-1.4,2.3-2.1,5.2-2.1,8.6
		c0,4.7,1.4,8.5,4.1,11.3c2.7,2.8,6.1,5.2,10.2,7.2s8.5,3.8,13.3,5.4s9.2,3.5,13.3,5.8c4,2.2,7.4,5.2,10.2,8.9
		c2.7,3.7,4.1,8.4,4.1,14.2c0,4.3-0.8,8.4-2.3,12.3c-1.5,3.9-3.8,7.4-6.8,10.3c-3.1,3.1-6.8,5.5-10.9,7.1c-4.2,1.7-9.2,2.5-14.8,2.5
		c-5.8,0-11.9-1-18.3-3.1c-6.4-2.1-11.7-5.5-15.8-10.4c1.1-1.1,2.4-2.5,3.8-4.1c1.4-1.6,2.3-2.6,2.7-3c0.9,1.3,2.4,2.6,4.5,3.9
		c2.3,1.4,4.7,2.6,7.2,3.5c2.7,1,5.5,1.9,8.3,2.5c2.6,0.6,5.2,1,7.9,1c2.3,0,4.8-0.4,7.6-1.1c2.9-0.8,5.6-2,8-3.7
		c2.6-1.8,4.8-4.1,6.5-6.8c1.8-2.8,2.7-6.2,2.7-10.2c0-4.9-1.4-8.8-4.1-11.7c-2.7-2.9-6.2-5.3-10.3-7.2c-4.3-2-8.7-3.6-13.3-5.1
		c-4.6-1.5-9.1-3.4-13.3-5.8c-4-2.3-7.5-5.3-10.3-9c-2.7-3.7-4.1-8.5-4.1-14.5c0-4.9,0.9-9.1,2.8-12.7c1.8-3.4,4.2-6.5,7.2-8.9
		c2.9-2.4,6.3-4.1,9.9-5.2c3.6-1.1,7.4-1.7,11.1-1.7c4.5,0,9.5,0.9,15.1,2.8C240.1,916.8,245,920,249.1,924.5L249.1,924.5z
		 M292.3,865.8h9.9v49.7h34.4v8.7h-34.4v98.7h-9.9v-98.7h-24v-8.7h24V865.8z M356.3,962h52.2v9.9h-52.2V962z M438.4,968.5
		c0-7.9,1.5-15.3,4.5-22.3c2.9-6.8,7-12.9,12.1-18.2c5.1-5.2,11.2-9.4,17.9-12.3c6.9-3,14.2-4.5,22.1-4.5c5.6,0,11,0.8,16.1,2.4
		s9.7,3.8,13.8,6.6s7.8,6.1,10.9,9.7c3,3.5,5.4,7.5,7.2,11.7c0-4.7,0.1-9.4,0.3-14.1c0.2-4.7,0.5-9.3,0.8-13.8h8.5v109.2h-9.6V995
		c-3.2,8.3-9,15.3-17.5,21.2c-8.5,5.8-18.6,8.7-30.5,8.7c-8.1,0-15.6-1.5-22.4-4.5c-6.7-2.9-12.8-7-17.9-12.1
		c-5.1-5.1-9.2-11.2-12-17.9C439.9,983.4,438.4,976,438.4,968.5L438.4,968.5z M448,968.2c0,6.6,1.2,12.7,3.7,18.5
		c2.3,5.6,5.7,10.7,10,15c4.2,4.2,9.3,7.6,15.1,10s12,3.7,18.6,3.7c6.6,0,12.8-1.2,18.6-3.7c5.7-2.3,10.8-5.7,15.2-10
		c4.3-4.3,7.8-9.3,10.2-15c2.4-5.7,3.7-11.9,3.7-18.5c0-6.6-1.2-12.8-3.7-18.6c-2.3-5.7-5.8-10.8-10.2-15.1
		c-4.4-4.3-9.6-7.7-15.2-10c-5.9-2.5-12.2-3.7-18.6-3.7c-6.6,0-12.8,1.2-18.6,3.7c-5.8,2.4-10.9,5.8-15.1,10
		c-4.2,4.2-7.6,9.3-10,15.1C449.2,955.5,448,961.8,448,968.2z M592.2,913.7h8.2c0,0.8,0,2.5,0.1,5.4c0.1,2.8,0.1,5.8,0.1,9
		s0,6.2,0.1,8.9c0.1,2.7,0.1,4.4,0.1,4.9c3.9-9,10.1-16.4,18.3-22s17.9-8.5,28.8-8.5c10.5,0,18.9,3,25,9c6.1,6,9.4,13.8,9.7,23.4v79
		h-9.9v-77.3c-0.4-6.6-2.7-12.2-7.1-16.9c-4.3-4.7-10.6-7.2-18.9-7.6c-6,0-11.9,1-17.5,3.1c-5.5,2.1-10.2,4.9-14.2,8.5
		c-4.1,3.6-7.4,8-9.7,13c-2.5,5.1-3.7,10.7-3.7,16.4v60.9h-9.6V913.7z M717.7,875.7c0-2.4,0.8-4.5,2.5-6.2c1.7-1.7,3.7-2.5,5.9-2.5
		c2.1,0,3.9,0.8,5.6,2.5s2.5,3.8,2.5,6.2s-0.8,4.5-2.5,6.1s-3.6,2.4-5.6,2.4c-2.3,0-4.2-0.8-5.9-2.4S717.7,878.1,717.7,875.7z
		 M730.7,1022.9h-9.6V913.7h9.6V1022.9L730.7,1022.9z M770.2,913.7h7.9c0,0.8,0,2.5,0.1,5.4c0.1,2.8,0.2,5.8,0.3,9
		c0.1,3.2,0.2,6.2,0.3,8.9c0.1,2.7,0.1,4.4,0.1,4.9c3.9-9,9.9-16.4,17.8-22s17.4-8.5,28.5-8.5c9.8,0,17.7,2.7,23.8,8
		c6.1,5.4,9.6,12.4,10.6,21c4.3-8.7,10.3-15.7,18.1-21c7.7-5.4,16.9-8,27.6-8s19.1,3,25.2,9c6.1,6,9.4,13.8,9.7,23.4v79h-9.9v-77.3
		c-0.4-6.6-2.7-12.2-7.1-16.9s-10.6-7.2-18.9-7.6c-6,0-11.7,1-16.9,3c-5.1,1.9-9.8,4.6-14,8.2c-4,3.5-7.3,7.7-9.7,12.4
		c-2.4,4.8-3.8,10.1-3.9,15.9v62.3h-9.6v-77.3c-0.4-6.6-2.8-12.2-7.2-16.9c-4.4-4.7-10.7-7.2-18.8-7.6c-6.2,0-12,1-17.4,3.1
		c-5.2,2-9.9,4.8-14.1,8.5c-4.1,3.6-7.3,8-9.6,13c-2.4,5.1-3.6,10.7-3.5,16.4v60.9h-9.6V913.7z M969.9,968.5
		c0-7.9,1.5-15.3,4.5-22.3c2.9-6.8,7-12.9,12.1-18.2c5.1-5.2,11.2-9.4,17.9-12.3c6.9-3,14.2-4.5,22.1-4.5c5.6,0,11,0.8,16.1,2.4
		s9.7,3.8,13.8,6.6c4.1,2.8,7.8,6.1,10.9,9.7c3,3.5,5.4,7.5,7.2,11.7c0-4.7,0.1-9.4,0.3-14.1c0.2-4.7,0.5-9.3,0.8-13.8h8.5v109.2
		h-9.6V995c-3.2,8.3-9,15.3-17.5,21.2c-8.5,5.8-18.6,8.7-30.5,8.7c-8.1,0-15.6-1.5-22.4-4.5c-6.7-2.9-12.8-7-17.9-12.1
		c-5.1-5.1-9.2-11.2-12-17.9C971.4,983.4,969.9,976,969.9,968.5L969.9,968.5z M979.5,968.2c0,6.6,1.2,12.7,3.7,18.5
		c2.3,5.6,5.7,10.7,10,15c4.2,4.2,9.3,7.6,15.1,10c5.8,2.4,12,3.7,18.6,3.7c6.6,0,12.8-1.2,18.6-3.7c5.7-2.3,10.8-5.7,15.2-10
		c4.3-4.3,7.8-9.3,10.2-15c2.4-5.7,3.7-11.9,3.7-18.5c0-6.6-1.2-12.8-3.7-18.6c-2.3-5.7-5.8-10.8-10.2-15.1
		c-4.4-4.3-9.6-7.7-15.2-10c-5.9-2.5-12.2-3.7-18.6-3.7c-6.6,0-12.8,1.2-18.6,3.7c-5.8,2.4-10.9,5.8-15.1,10
		c-4.2,4.2-7.6,9.3-10,15.1C980.7,955.5,979.5,961.8,979.5,968.2z M1132.2,865.8h9.9v49.7h34.4v8.7H1142v98.7h-9.9v-98.7h-24v-8.7
		h24V865.8z M1283.9,1009.7c-5.1,4.7-11.1,8.4-17.9,11.1c-7,2.7-14.4,4.1-21.9,4.1c-7.9,0-15.3-1.5-22.3-4.5
		c-6.8-2.9-12.9-7-18.2-12.1c-5.2-5.1-9.3-11.2-12.1-17.9c-2.9-6.9-4.4-14.2-4.4-22.1c0-7.9,1.5-15.3,4.5-22.3
		c2.9-6.8,7-12.9,12.1-18.2c5.1-5.2,11.2-9.4,17.9-12.3c6.9-3,14.2-4.5,22.1-4.5c12,0,22.3,3.5,30.9,10.6c8.6,7.1,14.9,16,19,26.9
		c-6.8,2.6-14.1,5.5-22,8.7c-7.9,3.2-16,6.5-24.3,9.9c-8.2,3.3-16.4,6.7-24.5,10c-8.1,3.3-15.7,6.3-22.9,9.2
		c3.6,8.7,9.3,15.7,17.1,21c7.8,5.4,16.7,8,26.7,8c6.4,0,12.4-1.1,18.1-3.4c5.6-2.3,10.5-5.4,14.7-9.3L1283.9,1009.7L1283.9,1009.7z
		 M1281.4,945.6c-3.4-7.5-8.3-13.5-14.8-18.1c-6.5-4.5-14.1-6.8-22.7-6.8c-6.6,0-12.7,1.3-18.5,3.8c-5.6,2.4-10.6,5.9-15,10.2
		c-4.2,4.2-7.6,9.2-10,15c-3.2,7.6-4.4,15.9-3.2,24.1c0.3,1.9,0.6,3.8,1,5.6c6.4-2.6,13.2-5.4,20.3-8.3c7.1-2.9,14.3-5.8,21.6-8.7
		c7.2-2.9,14.4-5.8,21.4-8.6S1275.2,948.3,1281.4,945.6L1281.4,945.6z"/>
</g>
<path class="st1" d="M755.8,3.4l354.6,709.2H401.2L755.8,3.4z"/>
<path class="st2" d="M123.3,552.3l132,146L606.7,15.8l40.6,82.8"/>
</svg>
