<svg id="Слой_1" xmlns="http://www.w3.org/2000/svg" viewBox="0 0 281 73"><style>.st0{fill:#00F387;}</style><path class="st0" d="M53.1 32.2c0 .1-.2.6-.6 1.3-.4.8-1 1.7-1.8 2.9s-1.6 2.5-2.7 3.9c-1 1.4-2.2 2.9-3.4 4.4-1.2 1.5-2.5 2.9-3.9 4.3s-2.8 2.7-4.3 3.8c-1.5 1.1-2.9 2-4.4 2.6-1.5.7-2.9 1-4.3 1-.9 0-1.8-.1-2.6-.4-.8-.2-1.6-.6-2.3-1-.7-.4-1.4-.9-2.1-1.5-.7-.6-1.3-1.2-1.9-1.9-.8-.9-1.6-1.8-2.3-2.6s-1.4-1.7-2.1-2.5c-.7-.8-1.3-1.5-1.9-2.1-.6-.6-1.2-1.1-1.9-1.4l-.4.4s-.5.5-.7.8-.5.5-.8.8c-.3.3-.5.5-.6.7-.6.7-1.1 1.3-1.4 1.9-.4.6-.6 1.1-.7 1.5-.1.4-.2.8-.2 1.3s-.1 1-.1 1.5c0 .9-.1 1.7-.2 2.3-.1.6-.3 1.1-.6 1.4-.3.4-.6.6-1 .8-.4.1-1 .2-1.6.2-.8 0-1.3-.2-1.5-.6-.2-.4-.3-1-.3-1.9 0-.6 0-1.3.1-2s.2-1.4.3-2.2c.1-.7.2-1.5.4-2.2l.3-2.1c.3-1.8.5-3.5.7-5.3.2-1.7.4-3.4.7-5.1.2-1.7.4-3.4.6-5.2s.4-3.5.6-5.4c.4-2.9.6-5.8.8-8.8.2-3 .4-5.8.5-8.3 0-.4.1-.9.2-1.4.1-.5.4-.9.7-1.3.3-.4.6-.7 1-1 .4-.3.9-.4 1.4-.4.7 0 1.2.1 1.6.3.4.2.7.5 1 .8.2.3.4.7.5 1 0 .5.1.8.1 1.1 0 .4-.1 1-.2 1.7-.1.8-.3 1.6-.4 2.6-.2.9-.4 1.9-.6 2.9s-.4 1.9-.6 2.8c-.2.9-.3 1.6-.5 2.2s-.2 1-.2 1.2c-.5 2.7-.9 4.9-1.1 6.6s-.5 3-.6 3.9c-.3 2.7-.6 5-.9 6.9-.2 1.9-.5 3.4-.6 4.5.9-1 1.8-2.1 2.8-3.2 1-1.1 1.9-2.2 2.9-3.4 1-1.1 1.9-2.3 2.9-3.4s1.9-2.3 2.7-3.4c.5-.7 1.2-1.5 1.9-2.5s1.5-2 2.4-2.9c.8-1 1.7-1.8 2.7-2.5s1.9-1.2 2.8-1.4c.5-.1 1 0 1.4.1.4.2.7.4 1 .8.3.3.4.7.6 1 .1.4.2.7.2 1 0 .5-.3 1-.8 1.7-.5.6-1.2 1.3-2 2s-1.6 1.4-2.5 2.1c-.9.7-1.7 1.4-2.3 2-1 .9-1.9 1.8-2.7 2.6L18 34.8c-.7.8-1.4 1.5-2 2.2-.6.7-1.3 1.5-1.9 2.2.7.5 1.4 1 2 1.5.6.6 1.3 1.2 1.9 1.8.7.7 1.3 1.4 2 2.1.7.7 1.4 1.5 2.2 2.3 1.5 1.4 2.7 2.4 3.8 2.9 1.1.5 2.1.8 2.9.8 1 0 2.1-.3 3.2-.9 1.2-.6 2.4-1.4 3.6-2.4 1.2-1 2.5-2.1 3.7-3.3 1.3-1.2 2.5-2.5 3.6-3.8 1.2-1.3 2.3-2.6 3.3-3.8 1-1.2 1.9-2.4 2.7-3.3.8-1 1.4-1.8 1.9-2.4.5-.6.8-.9.9-.9.2 0 .4.1.5.2.1.2.2.3.3.6.1.2.1.5.2.7.3.5.3.8.3.9z"/><path class="st0" d="M94.4 27c0 .4-.1.8-.3 1.2-.2.4-.4.8-.7 1.1-.3.4-.6.7-.9 1-.3.3-.7.6-1 .8-.8.5-1.9 1-3.4 1.4-1.4.4-3.2.6-5.4.6-1.7 0-3.4-.2-5.2-.7-1.7-.4-3.4-1.2-5-2.2.5.8.8 1.5 1 2.3.1.7.2 1.6.2 2.6 0 1.8-.4 3.7-1.3 5.7s-2 3.9-3.4 5.6c-1.4 1.7-2.9 3.2-4.4 4.3-.9.7-1.8 1.2-2.9 1.7-1 .5-2.1.9-3.3 1.2-1.1.3-2.3.5-3.6.7-1.2.1-2.5.2-3.7.2-.9 0-1.7-.3-2.6-.8-.8-.6-1.6-1.2-2.2-2.1-.7-.8-1.2-1.7-1.6-2.6-.4-.9-.6-1.8-.6-2.5 0-1.8.2-3.6.7-5.2.5-1.7 1.1-3.3 2-4.9.8-1.6 1.8-3.1 2.8-4.6 1.1-1.5 2.2-3 3.4-4.5.7-.8 1.4-1.6 2.3-2.4s1.8-1.5 2.7-2.1c.9-.6 1.9-1.1 2.9-1.5 1-.4 1.9-.6 2.8-.6.7 0 1.3.1 1.9.3.5.2 1 .5 1.5.9s.9.8 1.4 1.4c.5.6 1 1.2 1.7 1.9.2.2.8.5 1.7.9.9.4 2 .8 3.2 1.1 1.2.4 2.6.7 3.9 1 1.4.3 2.6.4 3.7.4s2.2 0 3.1-.1 1.9-.2 2.7-.4c.9-.2 1.8-.4 2.6-.7.9-.3 1.8-.7 2.8-1.1.4.2.5.5.5.7zm-25.2 8.1c0-.6 0-1.3-.1-2.1s-.3-1.5-.6-2.3c-.3-.7-.7-1.3-1.1-1.7-.5-.4-1-.6-1.7-.5-1-.4-1.9-.8-2.6-1.3-.7-.4-1.2-.7-1.5-.7-.3 0-.6.1-.9.3-.3.2-.6.4-1 .7-.3.3-.7.6-1 1-.3.4-.7.8-1 1.2-.7.9-1.3 1.7-1.9 2.4-.6.7-1.1 1.4-1.6 2.1-.5.7-1 1.4-1.5 2.2-.5.8-.9 1.6-1.4 2.6-.2.4-.4.9-.5 1.4-.2.6-.3 1.1-.4 1.7l-.3 1.8c-.1.6-.1 1.1-.1 1.6 0 .3.1.6.3 1.1s.5.8.8 1.2.7.7 1.1 1c.4.3.8.4 1.2.4 1.1 0 2.1-.1 2.9-.2.8-.1 1.6-.3 2.2-.5.7-.3 1.4-.6 2.1-1.1.7-.4 1.5-1 2.4-1.8.4-.3.9-.7 1.3-1.2.4-.4.9-.9 1.3-1.4l1.2-1.5c.4-.5.7-1 1.1-1.6.2-.3.4-.8.6-1.2.2-.5.3-1 .4-1.5.1-.5.2-.9.2-1.3.1-.3.1-.6.1-.8z"/><path class="st0" d="M145.2 31.2c0 .4-.1.9-.2 1.3s-.3.9-.5 1.3-.5.9-.7 1.3c-.3.4-.5.8-.8 1.2-.7 1-1.4 2-2.3 3.1-.9 1-1.8 2.1-2.8 3-1 1-2 1.9-3.1 2.8-1.1.9-2.1 1.7-3.1 2.3-.8.5-1.6 1-2.3 1.5-.7.5-1.5.9-2.2 1.2-.7.3-1.5.6-2.3.8-.8.2-1.7.3-2.7.3-1.9 0-3.4-.5-4.5-1.4-.6-.5-1.1-1.1-1.5-1.8-.4-.8-.8-1.6-1.1-2.5-.3-.9-.6-1.9-.8-2.9-.2-1-.4-2.1-.6-3.1-.2-1.3-.4-2.4-.6-3.4-.2-1-.4-1.8-.6-2.5-.2-.7-.5-1.2-.9-1.6-.3-.4-.8-.6-1.3-.6-.4 0-.8 0-1.2.1-.4.1-.8.3-1.2.5-.4.3-.9.7-1.4 1.1-.5.5-1.1 1.1-1.7 2-.7.8-1.4 1.8-2.3 3-.9 1.2-1.9 2.6-3 4.2-.6.8-1.2 1.7-2 2.6s-1.5 1.8-2.3 2.7c-.8.9-1.6 1.6-2.3 2.3-.8.7-1.4 1.1-2 1.2-2-.4-3-2.9-3-7.4 0-1.2.1-3 .4-5.4.1-1.1.3-2.3.5-3.5.2-1.2.4-2.4.7-3.6s.6-2.4.9-3.5.8-2.2 1.2-3.2c.2-.4.5-.8.7-1.1.2-.3.5-.4.8-.6s.5-.2.8-.2c.3 0 .6-.1.9-.1.4 0 .7.2 1 .7.3.5.4 1.2.4 2.1 0 .5 0 1-.1 1.5s-.2 1-.4 1.4c-.2.5-.3 1-.5 1.6-.2.6-.4 1.2-.5 2-.1.6-.3 1.3-.5 2s-.3 1.5-.5 2.3c-.1.8-.3 1.5-.4 2.2-.1.7-.2 1.4-.2 2 0 .4.1.8.2 1.2.6-.1 1.7-1 3.1-2.8.7-.9 1.6-1.9 2.4-3 .9-1.1 1.8-2.3 2.9-3.6.8-1 1.5-1.9 2.3-2.8.8-.9 1.5-1.6 2.3-2.2.8-.6 1.7-1.1 2.6-1.5.9-.4 1.9-.6 3-.6 1.2 0 2.1.3 2.9.8.8.5 1.4 1.2 1.9 2.1.5.9.8 1.9 1.1 3.2.3 1.2.5 2.6.6 4.1.1 1.3.3 2.5.4 3.7.1 1.2.4 2.3.7 3.3.4 1 .9 1.8 1.6 2.4.7.6 1.6.9 2.9.9 1 0 2-.2 3-.7 1.1-.4 2.2-1.1 3.3-1.9 1.2-.8 2.4-1.7 3.6-2.8 1.2-1.1 2.5-2.3 3.9-3.5.5-.5 1.1-1.1 1.7-1.9.6-.8 1.2-1.5 1.8-2.2.6-.7 1.2-1.3 1.7-1.8s.9-.7 1.2-.7c.1 0 .4.1.7.2.1.3.3.5.3.9z"/><path class="st0" d="M188 28.6c0 .3-.1.6-.2.8s-.3.5-.5.7l-.7.7c-.3.2-.5.4-.8.7-.7.6-1.5 1.2-2.4 1.7-.9.5-1.8 1-2.8 1.4-1 .4-2 .7-2.9.9-1 .2-1.9.3-2.7.3-.6 0-1.2-.1-1.9-.2s-1.4-.3-2.2-.5-1.4-.4-2.1-.7c-.7-.3-1.3-.5-1.8-.8-.1.1-.2.5-.5 1-.3.6-.6 1.3-1 2.1-.4.9-.8 1.8-1.3 2.9-.5 1.1-1 2.3-1.5 3.5-1.1 2.4-2.2 4.7-3.2 6.7l-2.7 5.4c-.4.8-.8 1.4-1.2 1.9-.4.5-.7.9-1.1 1.2-.3.3-.6.5-.9.6-.3.1-.5.2-.7.2-.5 0-1-.1-1.4-.4-.4-.3-.9-.8-1.4-1.4 0-.3.1-.5.1-.7V56c0-1-.3-2.4-.9-4.3-.6-1.9-1.6-4.1-2.8-6.8-.6-1.3-1.2-2.7-1.8-4.1-.6-1.4-1.1-2.8-1.6-4.1-.5-1.3-.8-2.6-1.1-3.8-.3-1.2-.4-2.2-.4-3 0-.6.1-1.2.2-1.9s.4-1.3.7-1.8c.3-.5.7-1 1.1-1.4.5-.4 1-.5 1.6-.5.9 0 1.7.3 2.3.9.6.6.9 1.3.9 2.3 0 .3 0 .7-.1 1-.1.4-.2.7-.2 1.1-.1.4-.2.7-.2 1.1-.1.4-.1.7-.1 1s0 .8.1 1.5.2 1.5.4 2.3c.2.9.4 1.8.7 2.7.3 1 .6 1.9 1 2.8.4.8.8 1.8 1.2 2.9.4 1.1.9 2.1 1.3 3.1s.8 1.8 1.1 2.5.6 1 .7 1c.1 0 .3-.2.6-.7.3-.4.6-1 1-1.8s.8-1.6 1.2-2.5c.4-1 .9-1.9 1.3-3l1.2-3s.8-1.9 1.1-2.8c.3-.7.5-1.4.8-2.1.3-.7.5-1.4.8-2 .3-.6.5-1.2.8-1.8.2-.6.5-1.1.7-1.5.3-.6.7-1.1 1.2-1.4.5-.3 1-.5 1.7-.5.3 0 .6.1.9.2s.6.3.8.5c.3.2.5.4.8.6.2.2.5.4.7.5.2.1.5.3.9.5s.9.4 1.4.6c.5.2 1 .4 1.6.6.6.2 1.1.2 1.6.2 1 0 1.8-.1 2.6-.2s1.5-.3 2.2-.5c.7-.2 1.3-.5 1.9-.7.6-.3 1.2-.5 1.8-.8.9-.4 1.6-.6 2.1-.8s1-.3 1.4-.3c.3.2.6.4.6.8z"/><path class="st0" d="M229.7 32.3c0 .3 0 .6-.1 1s-.2.7-.3 1.1c-.1.4-.3.7-.4 1.1s-.3.6-.5.8c-.1.2-.3.4-.6.7-.3.3-.5.6-.9 1-.3.4-.7.7-1 1.1-.4.4-.8.8-1.2 1.1-1.4 1.3-2.8 2.5-4.1 3.7-1.3 1.2-2.7 2.3-4.1 3.2-1.4.9-2.9 1.7-4.4 2.2-1.5.6-3.2.8-5 .8-.8 0-1.7-.2-2.5-.5s-1.6-.7-2.4-1.3-1.4-1.2-1.9-2-.9-1.7-1.1-2.6c-.7.7-1.3 1.4-2.1 2.1s-1.5 1.5-2.2 2.2c-.8.7-1.6 1.5-2.4 2.2-.8.7-1.7 1.3-2.6 1.9-.5.3-1.1.7-1.8 1-.7.4-1.4.7-2.2 1-.8.3-1.5.6-2.3.7s-1.4.3-2 .3c-.9 0-1.7-.3-2.4-.9-.7-.6-1.2-1.3-1.7-2.1-.4-.8-.8-1.7-1-2.7-.2-.9-.3-1.8-.3-2.5 0-1.5.2-3 .6-4.5.4-1.6 1-3.1 1.7-4.5.7-1.5 1.4-2.9 2.3-4.2.8-1.3 1.7-2.5 2.5-3.5.9-1.1 1.9-2.2 3-3.2s2.4-2 3.6-2.9c1.3-.8 2.5-1.5 3.7-2 1.2-.5 2.3-.8 3.2-.8h1.5s1 0 1.6.1 1 .1 1.5.3.9.3 1.3.6c.2.1.4.4.7.8.3.4.5.8.8 1.3.2.5.4.9.6 1.4.2.5.2.8.2 1.1 0 .7-.2 1.7-.5 3-.4 1.5-.7 3-1 4.2-.3 1.3-.5 2.6-.5 3.9 0 .8.1 1.5.4 2.3.2.8.6 1.5 1.1 2.2s1 1.2 1.7 1.6 1.4.6 2.2.6c1.4 0 2.8-.3 4.2-.9 1.4-.6 2.9-1.4 4.4-2.4 1.5-1 2.9-2.2 4.4-3.5 1.5-1.3 2.9-2.7 4.3-4.2.1-.1.3-.4.6-.7.3-.3.6-.7.9-1l.9-.9s.5-.4.6-.4c.8.2 1 .7 1 1.6zm-30-2.8c0-.4 0-.9-.1-1.4 0-.6-.2-1-.4-1.4-.2-.4-.5-.5-.9-.5h-1.1c-.8 0-1.5.1-2.3.4-.7.2-1.4.6-2.1 1-.7.4-1.4.9-2 1.5-.6.6-1.3 1.2-1.9 1.8-.5.5-1.1 1.2-1.6 1.9-.6.8-1.1 1.6-1.7 2.5-.6.9-1.1 1.9-1.6 2.9s-1 2-1.3 3c-.4 1-.7 1.9-.9 2.8-.2.9-.3 1.7-.3 2.5 0 .2 0 .5.1.9s.1.7.3 1.1c.1.3.3.6.5.9.2.2.5.4.8.4 1 0 2.3-.3 3.9-1 2.1-.9 4-2.1 5.7-3.7 1.7-1.6 3.2-3.4 4.4-5.4 1.6-3.2 2.5-6.6 2.5-10.2z"/><path class="st0" d="M235.8 24.2c0 .2-.1.5-.2.8-.1.4-.3.8-.5 1.1-.2.4-.3.8-.5 1.1-.2.4-.3.6-.3.8-.2.7-.3 1.5-.4 2.7s-.1 2.5-.1 4.1v2s0 1.6.1 2.5c0 .9 0 1.7.1 2.5v2c0 2 0 3.9-.1 5.5 0 1.7-.1 3.2-.2 4.6-.1 1.4-.3 2.8-.5 4.1s-.5 2.6-.9 3.9c-.4 1.4-.9 2.7-1.4 3.9-.6 1.2-1.3 2.2-2.1 3-.8.8-1.8 1.5-2.8 2s-2.3.7-3.7.7c-.8 0-1.6-.1-2.4-.3-.8-.2-1.5-.4-2.3-.7-.7-.3-1.4-.6-2-1-.6-.4-1.2-.7-1.6-1.1-.5-.4-.8-.7-1.1-1.1-.3-.3-.4-.6-.4-.9 0-.7.2-1 .6-1 .1 0 .5.1 1 .2s1.2.3 1.9.5 1.6.3 2.5.5c.9.1 1.8.2 2.7.2 3.1 0 5.1-1.7 6-5 .9-3.3 1.3-7.2 1.3-11.8v-2.1c0-.8 0-1.6-.1-2.5 0-.9 0-1.7-.1-2.6s0-1.8-.1-2.6 0-1.6-.1-2.2 0-1.2 0-1.7c0-5.2.5-9 1.6-11.4.9-2 2.1-3 3.7-3 .7 0 1.2.2 1.6.6.6.5.8 1 .8 1.7zm6-17.5c0 .2-.1.5-.4 1-.2.5-.5 1.1-.9 1.6-.3.6-.7 1.1-1 1.5-.3.4-.6.7-.8.7-.5 0-.9-.1-1.3-.2-.3-.1-.6-.3-.9-.6-.3-.3-.6-.6-.8-1s-.7-.7-1-1.3c-.2-.4-.4-.7-.6-1s-.2-.5-.2-.7c0-.4.1-.7.3-1.1.2-.4.5-.8.9-1.1.4-.3.7-.6 1.1-.8s.8-.3 1.2-.3c.5 0 1 .1 1.5.2.5.2 1 .4 1.4.7.4.3.8.6 1 1.1.4.4.5.8.5 1.3zM280.9 30.9c0 .4-.1.8-.3 1.2-.2.4-.5.9-.8 1.4s-.7.9-1.1 1.4-.9 1-1.3 1.4c-.3.4-.7.8-1.1 1.2l-1.3 1.3c-.5.5-1.1 1-1.7 1.7-.7.6-1.4 1.4-2.3 2.2-.8.8-1.7 1.6-2.6 2.4-1 .8-1.9 1.7-2.9 2.5s-1.9 1.6-2.8 2.3c-.9.7-1.7 1.4-2.4 2-1.6 1.3-3.2 2.6-4.6 3.8-1.5 1.2-2.9 2.2-4.3 3.2-2.8 1.9-5 2.8-6.7 2.8-.6 0-1.2-.1-2-.4-.8-.3-1.1-.7-1.1-1.2 0-1.5.6-2.6 1.7-3.4 1.1-.8 2.8-1.6 5.1-2.6 2.2-.9 3.9-1.8 5.1-2.6 1.1-.9 1.7-2 1.7-3.5 0-.7-.8-2.2-2.3-4.5-.8-1.1-1.4-2.2-2-3.2s-1.1-1.8-1.5-2.6c-.9-1.6-1.3-3.2-1.3-5 0-1.5.3-3.1.8-4.8.3-.9.7-1.9 1.3-2.8.6-1 1.2-1.8 1.9-2.6s1.4-1.4 2.1-1.8c.7-.4 1.3-.7 1.9-.6 2 0 3 1.2 3 3.5 0 .9-.3 1.8-1 2.6-.3.4-.7.8-1.1 1.3-.4.4-1 .9-1.5 1.4-.6.5-1 .9-1.4 1.2-.4.4-.7.7-1 .9 0 1.2.4 2.5 1.1 4.1.4.8.8 1.6 1.3 2.5.5.9 1.1 1.9 1.7 2.9.7 1 1.2 2 1.7 2.8s.8 1.4 1 1.8c0 .1.1.1.4.1.3 0 .9-.2 1.6-.7.8-.5 1.7-1.1 2.8-1.9 1.1-.8 2.2-1.7 3.5-2.7s2.5-2.1 3.8-3.3c1.3-1.2 2.4-2.2 3.2-3.1s1.7-1.7 2.4-2.5c.8-.8 1.3-1.4 1.7-1.8l.6-.6c.2 0 .3.1.5.2s.3.3.4.5c.1.2.2.4.3.7-.2.5-.2.7-.2.9z"/></svg>