<?xml version="1.0" encoding="utf-8"?>
<!-- Generator: Adobe Illustrator 21.0.0, SVG Export Plug-In . SVG Version: 6.00 Build 0)  -->
<svg version="1.1" id="Слой_1" xmlns="http://www.w3.org/2000/svg" xmlns:xlink="http://www.w3.org/1999/xlink" x="0px" y="0px"
	 viewBox="0 0 281 73" style="enable-background:new 0 0 281 73;" xml:space="preserve">
<style type="text/css">
	.st0{fill:#00F387;}
</style>
<g>
	<path class="st0" d="M53.1,32.2c0,0.1-0.2,0.6-0.6,1.3c-0.4,0.8-1,1.7-1.8,2.9c-0.8,1.2-1.6,2.5-2.7,3.9c-1,1.4-2.2,2.9-3.4,4.4
		c-1.2,1.5-2.5,2.9-3.9,4.3c-1.4,1.4-2.8,2.7-4.3,3.8c-1.5,1.1-2.9,2-4.4,2.6c-1.5,0.7-2.9,1-4.3,1c-0.9,0-1.8-0.1-2.6-0.4
		c-0.8-0.2-1.6-0.6-2.3-1c-0.7-0.4-1.4-0.9-2.1-1.5c-0.7-0.6-1.3-1.2-1.9-1.9c-0.8-0.9-1.6-1.8-2.3-2.6s-1.4-1.7-2.1-2.5
		c-0.7-0.8-1.3-1.5-1.9-2.1c-0.6-0.6-1.2-1.1-1.9-1.4c0,0-0.2,0.2-0.4,0.4s-0.5,0.5-0.7,0.8S9,44.7,8.7,45c-0.3,0.3-0.5,0.5-0.6,0.7
		c-0.6,0.7-1.1,1.3-1.4,1.9c-0.4,0.6-0.6,1.1-0.7,1.5c-0.1,0.4-0.2,0.8-0.2,1.3c0,0.5-0.1,1-0.1,1.5c0,0.9-0.1,1.7-0.2,2.3
		c-0.1,0.6-0.3,1.1-0.6,1.4c-0.3,0.4-0.6,0.6-1,0.8c-0.4,0.1-1,0.2-1.6,0.2c-0.8,0-1.3-0.2-1.5-0.6c-0.2-0.4-0.3-1-0.3-1.9
		c0-0.6,0-1.3,0.1-2s0.2-1.4,0.3-2.2c0.1-0.7,0.2-1.5,0.4-2.2c0.1-0.7,0.2-1.4,0.3-2.1c0.3-1.8,0.5-3.5,0.7-5.3
		c0.2-1.7,0.4-3.4,0.7-5.1c0.2-1.7,0.4-3.4,0.6-5.2s0.4-3.5,0.6-5.4c0.4-2.9,0.6-5.8,0.8-8.8c0.2-3,0.4-5.8,0.5-8.3
		c0-0.4,0.1-0.9,0.2-1.4c0.1-0.5,0.4-0.9,0.7-1.3c0.3-0.4,0.6-0.7,1-1c0.4-0.3,0.9-0.4,1.4-0.4c0.7,0,1.2,0.1,1.6,0.3
		c0.4,0.2,0.7,0.5,1,0.8c0.2,0.3,0.4,0.7,0.5,1C11.9,6,12,6.3,12,6.6c0,0.4-0.1,1-0.2,1.7c-0.1,0.8-0.3,1.6-0.4,2.6
		c-0.2,0.9-0.4,1.9-0.6,2.9s-0.4,1.9-0.6,2.8c-0.2,0.9-0.3,1.6-0.5,2.2s-0.2,1-0.2,1.2c-0.5,2.7-0.9,4.9-1.1,6.6s-0.5,3-0.6,3.9
		c-0.3,2.7-0.6,5-0.9,6.9c-0.2,1.9-0.5,3.4-0.6,4.5c0.9-1,1.8-2.1,2.8-3.2c1-1.1,1.9-2.2,2.9-3.4c1-1.1,1.9-2.3,2.9-3.4
		c1-1.1,1.9-2.3,2.7-3.4c0.5-0.7,1.2-1.5,1.9-2.5c0.7-1,1.5-2,2.4-2.9c0.8-1,1.7-1.8,2.7-2.5s1.9-1.2,2.8-1.4c0.5-0.1,1,0,1.4,0.1
		c0.4,0.2,0.7,0.4,1,0.8c0.3,0.3,0.4,0.7,0.6,1c0.1,0.4,0.2,0.7,0.2,1c0,0.5-0.3,1-0.8,1.7c-0.5,0.6-1.2,1.3-2,2
		c-0.8,0.7-1.6,1.4-2.5,2.1c-0.9,0.7-1.7,1.4-2.3,2c-1,0.9-1.9,1.8-2.7,2.6c-0.8,0.8-1.6,1.6-2.3,2.3c-0.7,0.8-1.4,1.5-2,2.2
		c-0.6,0.7-1.3,1.5-1.9,2.2c0.7,0.5,1.4,1,2,1.5c0.6,0.6,1.3,1.2,1.9,1.8c0.7,0.7,1.3,1.4,2,2.1c0.7,0.7,1.4,1.5,2.2,2.3
		c1.5,1.4,2.7,2.4,3.8,2.9c1.1,0.5,2.1,0.8,2.9,0.8c1,0,2.1-0.3,3.2-0.9c1.2-0.6,2.4-1.4,3.6-2.4c1.2-1,2.5-2.1,3.7-3.3
		c1.3-1.2,2.5-2.5,3.6-3.8c1.2-1.3,2.3-2.6,3.3-3.8c1-1.2,1.9-2.4,2.7-3.3c0.8-1,1.4-1.8,1.9-2.4c0.5-0.6,0.8-0.9,0.9-0.9
		c0.2,0,0.4,0.1,0.5,0.2c0.1,0.2,0.2,0.3,0.3,0.6c0.1,0.2,0.1,0.5,0.2,0.7C53.1,31.8,53.1,32.1,53.1,32.2z"/>
	<path class="st0" d="M94.4,27c0,0.4-0.1,0.8-0.3,1.2c-0.2,0.4-0.4,0.8-0.7,1.1c-0.3,0.4-0.6,0.7-0.9,1c-0.3,0.3-0.7,0.6-1,0.8
		c-0.8,0.5-1.9,1-3.4,1.4c-1.4,0.4-3.2,0.6-5.4,0.6c-1.7,0-3.4-0.2-5.2-0.7c-1.7-0.4-3.4-1.2-5-2.2c0.5,0.8,0.8,1.5,1,2.3
		c0.1,0.7,0.2,1.6,0.2,2.6c0,1.8-0.4,3.7-1.3,5.7c-0.9,2-2,3.9-3.4,5.6c-1.4,1.7-2.9,3.2-4.4,4.3c-0.9,0.7-1.8,1.2-2.9,1.7
		c-1,0.5-2.1,0.9-3.3,1.2c-1.1,0.3-2.3,0.5-3.6,0.7c-1.2,0.1-2.5,0.2-3.7,0.2c-0.9,0-1.7-0.3-2.6-0.8c-0.8-0.6-1.6-1.2-2.2-2.1
		c-0.7-0.8-1.2-1.7-1.6-2.6c-0.4-0.9-0.6-1.8-0.6-2.5c0-1.8,0.2-3.6,0.7-5.2c0.5-1.7,1.1-3.3,2-4.9c0.8-1.6,1.8-3.1,2.8-4.6
		c1.1-1.5,2.2-3,3.4-4.5c0.7-0.8,1.4-1.6,2.3-2.4s1.8-1.5,2.7-2.1c0.9-0.6,1.9-1.1,2.9-1.5c1-0.4,1.9-0.6,2.8-0.6
		c0.7,0,1.3,0.1,1.9,0.3c0.5,0.2,1,0.5,1.5,0.9c0.5,0.4,0.9,0.8,1.4,1.4c0.5,0.6,1,1.2,1.7,1.9c0.2,0.2,0.8,0.5,1.7,0.9
		c0.9,0.4,2,0.8,3.2,1.1c1.2,0.4,2.6,0.7,3.9,1c1.4,0.3,2.6,0.4,3.7,0.4c1.1,0,2.2,0,3.1-0.1s1.9-0.2,2.7-0.4
		c0.9-0.2,1.8-0.4,2.6-0.7c0.9-0.3,1.8-0.7,2.8-1.1C94.3,26.5,94.4,26.8,94.4,27z M69.2,35.1c0-0.6,0-1.3-0.1-2.1
		c-0.1-0.8-0.3-1.5-0.6-2.3c-0.3-0.7-0.7-1.3-1.1-1.7c-0.5-0.4-1-0.6-1.7-0.5c-1-0.4-1.9-0.8-2.6-1.3c-0.7-0.4-1.2-0.7-1.5-0.7
		c-0.3,0-0.6,0.1-0.9,0.3c-0.3,0.2-0.6,0.4-1,0.7c-0.3,0.3-0.7,0.6-1,1c-0.3,0.4-0.7,0.8-1,1.2c-0.7,0.9-1.3,1.7-1.9,2.4
		c-0.6,0.7-1.1,1.4-1.6,2.1c-0.5,0.7-1,1.4-1.5,2.2c-0.5,0.8-0.9,1.6-1.4,2.6c-0.2,0.4-0.4,0.9-0.5,1.4c-0.2,0.6-0.3,1.1-0.4,1.7
		c-0.1,0.6-0.2,1.2-0.3,1.8c-0.1,0.6-0.1,1.1-0.1,1.6c0,0.3,0.1,0.6,0.3,1.1s0.5,0.8,0.8,1.2s0.7,0.7,1.1,1c0.4,0.3,0.8,0.4,1.2,0.4
		c1.1,0,2.1-0.1,2.9-0.2c0.8-0.1,1.6-0.3,2.2-0.5c0.7-0.3,1.4-0.6,2.1-1.1c0.7-0.4,1.5-1,2.4-1.8c0.4-0.3,0.9-0.7,1.3-1.2
		c0.4-0.4,0.9-0.9,1.3-1.4c0.4-0.5,0.8-1,1.2-1.5c0.4-0.5,0.7-1,1.1-1.6c0.2-0.3,0.4-0.8,0.6-1.2c0.2-0.5,0.3-1,0.4-1.5
		c0.1-0.5,0.2-0.9,0.2-1.3C69.2,35.6,69.2,35.3,69.2,35.1z"/>
	<path class="st0" d="M145.2,31.2c0,0.4-0.1,0.9-0.2,1.3c-0.1,0.4-0.3,0.9-0.5,1.3c-0.2,0.4-0.5,0.9-0.7,1.3
		c-0.3,0.4-0.5,0.8-0.8,1.2c-0.7,1-1.4,2-2.3,3.1c-0.9,1-1.8,2.1-2.8,3c-1,1-2,1.9-3.1,2.8c-1.1,0.9-2.1,1.7-3.1,2.3
		c-0.8,0.5-1.6,1-2.3,1.5c-0.7,0.5-1.5,0.9-2.2,1.2c-0.7,0.3-1.5,0.6-2.3,0.8c-0.8,0.2-1.7,0.3-2.7,0.3c-1.9,0-3.4-0.5-4.5-1.4
		c-0.6-0.5-1.1-1.1-1.5-1.8c-0.4-0.8-0.8-1.6-1.1-2.5c-0.3-0.9-0.6-1.9-0.8-2.9c-0.2-1-0.4-2.1-0.6-3.1c-0.2-1.3-0.4-2.4-0.6-3.4
		c-0.2-1-0.4-1.8-0.6-2.5c-0.2-0.7-0.5-1.2-0.9-1.6c-0.3-0.4-0.8-0.6-1.3-0.6c-0.4,0-0.8,0-1.2,0.1c-0.4,0.1-0.8,0.3-1.2,0.5
		c-0.4,0.3-0.9,0.7-1.4,1.1c-0.5,0.5-1.1,1.1-1.7,2c-0.7,0.8-1.4,1.8-2.3,3c-0.9,1.2-1.9,2.6-3,4.2c-0.6,0.8-1.2,1.7-2,2.6
		s-1.5,1.8-2.3,2.7c-0.8,0.9-1.6,1.6-2.3,2.3c-0.8,0.7-1.4,1.1-2,1.2c-2-0.4-3-2.9-3-7.4c0-1.2,0.1-3,0.4-5.4
		c0.1-1.1,0.3-2.3,0.5-3.5c0.2-1.2,0.4-2.4,0.7-3.6s0.6-2.4,0.9-3.5s0.8-2.2,1.2-3.2c0.2-0.4,0.5-0.8,0.7-1.1
		c0.2-0.3,0.5-0.4,0.8-0.6s0.5-0.2,0.8-0.2c0.3,0,0.6-0.1,0.9-0.1c0.4,0,0.7,0.2,1,0.7c0.3,0.5,0.4,1.2,0.4,2.1c0,0.5,0,1-0.1,1.5
		s-0.2,1-0.4,1.4c-0.2,0.5-0.3,1-0.5,1.6c-0.2,0.6-0.4,1.2-0.5,2c-0.1,0.6-0.3,1.3-0.5,2c-0.2,0.7-0.3,1.5-0.5,2.3
		c-0.1,0.8-0.3,1.5-0.4,2.2c-0.1,0.7-0.2,1.4-0.2,2c0,0.4,0.1,0.8,0.2,1.2c0.6-0.1,1.7-1,3.1-2.8c0.7-0.9,1.6-1.9,2.4-3
		c0.9-1.1,1.8-2.3,2.9-3.6c0.8-1,1.5-1.9,2.3-2.8c0.8-0.9,1.5-1.6,2.3-2.2c0.8-0.6,1.7-1.1,2.6-1.5c0.9-0.4,1.9-0.6,3-0.6
		c1.2,0,2.1,0.3,2.9,0.8c0.8,0.5,1.4,1.2,1.9,2.1c0.5,0.9,0.8,1.9,1.1,3.2c0.3,1.2,0.5,2.6,0.6,4.1c0.1,1.3,0.3,2.5,0.4,3.7
		c0.1,1.2,0.4,2.3,0.7,3.3c0.4,1,0.9,1.8,1.6,2.4c0.7,0.6,1.6,0.9,2.9,0.9c1,0,2-0.2,3-0.7c1.1-0.4,2.2-1.1,3.3-1.9
		c1.2-0.8,2.4-1.7,3.6-2.8c1.2-1.1,2.5-2.3,3.9-3.5c0.5-0.5,1.1-1.1,1.7-1.9c0.6-0.8,1.2-1.5,1.8-2.2c0.6-0.7,1.2-1.3,1.7-1.8
		c0.5-0.5,0.9-0.7,1.2-0.7c0.1,0,0.4,0.1,0.7,0.2C145,30.6,145.2,30.8,145.2,31.2z"/>
	<path class="st0" d="M188,28.6c0,0.3-0.1,0.6-0.2,0.8s-0.3,0.5-0.5,0.7c-0.2,0.2-0.5,0.5-0.7,0.7c-0.3,0.2-0.5,0.4-0.8,0.7
		c-0.7,0.6-1.5,1.2-2.4,1.7c-0.9,0.5-1.8,1-2.8,1.4c-1,0.4-2,0.7-2.9,0.9c-1,0.2-1.9,0.3-2.7,0.3c-0.6,0-1.2-0.1-1.9-0.2
		c-0.7-0.1-1.4-0.3-2.2-0.5s-1.4-0.4-2.1-0.7c-0.7-0.3-1.3-0.5-1.8-0.8c-0.1,0.1-0.2,0.5-0.5,1c-0.3,0.6-0.6,1.3-1,2.1
		c-0.4,0.9-0.8,1.8-1.3,2.9c-0.5,1.1-1,2.3-1.5,3.5c-1.1,2.4-2.2,4.7-3.2,6.7c-1,2-1.9,3.8-2.7,5.4c-0.4,0.8-0.8,1.4-1.2,1.9
		c-0.4,0.5-0.7,0.9-1.1,1.2c-0.3,0.3-0.6,0.5-0.9,0.6c-0.3,0.1-0.5,0.2-0.7,0.2c-0.5,0-1-0.1-1.4-0.4c-0.4-0.3-0.9-0.8-1.4-1.4
		c0-0.3,0.1-0.5,0.1-0.7c0-0.2,0-0.4,0-0.6c0-1-0.3-2.4-0.9-4.3c-0.6-1.9-1.6-4.1-2.8-6.8c-0.6-1.3-1.2-2.7-1.8-4.1
		c-0.6-1.4-1.1-2.8-1.6-4.1c-0.5-1.3-0.8-2.6-1.1-3.8c-0.3-1.2-0.4-2.2-0.4-3c0-0.6,0.1-1.2,0.2-1.9c0.1-0.7,0.4-1.3,0.7-1.8
		c0.3-0.5,0.7-1,1.1-1.4c0.5-0.4,1-0.5,1.6-0.5c0.9,0,1.7,0.3,2.3,0.9c0.6,0.6,0.9,1.3,0.9,2.3c0,0.3,0,0.7-0.1,1
		c-0.1,0.4-0.2,0.7-0.2,1.1c-0.1,0.4-0.2,0.7-0.2,1.1c-0.1,0.4-0.1,0.7-0.1,1s0,0.8,0.1,1.5c0.1,0.7,0.2,1.5,0.4,2.3
		c0.2,0.9,0.4,1.8,0.7,2.7c0.3,1,0.6,1.9,1,2.8c0.4,0.8,0.8,1.8,1.2,2.9c0.4,1.1,0.9,2.1,1.3,3.1c0.4,1,0.8,1.8,1.1,2.5s0.6,1,0.7,1
		c0.1,0,0.3-0.2,0.6-0.7c0.3-0.4,0.6-1,1-1.8s0.8-1.6,1.2-2.5c0.4-1,0.9-1.9,1.3-3c0.4-1,0.8-2,1.2-3s0.8-1.9,1.1-2.8
		c0.3-0.7,0.5-1.4,0.8-2.1c0.3-0.7,0.5-1.4,0.8-2c0.3-0.6,0.5-1.2,0.8-1.8c0.2-0.6,0.5-1.1,0.7-1.5c0.3-0.6,0.7-1.1,1.2-1.4
		c0.5-0.3,1-0.5,1.7-0.5c0.3,0,0.6,0.1,0.9,0.2s0.6,0.3,0.8,0.5c0.3,0.2,0.5,0.4,0.8,0.6c0.2,0.2,0.5,0.4,0.7,0.5
		c0.2,0.1,0.5,0.3,0.9,0.5c0.4,0.2,0.9,0.4,1.4,0.6c0.5,0.2,1,0.4,1.6,0.6c0.6,0.2,1.1,0.2,1.6,0.2c1,0,1.8-0.1,2.6-0.2
		c0.8-0.1,1.5-0.3,2.2-0.5c0.7-0.2,1.3-0.5,1.9-0.7c0.6-0.3,1.2-0.5,1.8-0.8c0.9-0.4,1.6-0.6,2.1-0.8s1-0.3,1.4-0.3
		C187.7,28,188,28.2,188,28.6z"/>
	<path class="st0" d="M229.7,32.3c0,0.3,0,0.6-0.1,1c-0.1,0.4-0.2,0.7-0.3,1.1c-0.1,0.4-0.3,0.7-0.4,1.1s-0.3,0.6-0.5,0.8
		c-0.1,0.2-0.3,0.4-0.6,0.7c-0.3,0.3-0.5,0.6-0.9,1c-0.3,0.4-0.7,0.7-1,1.1c-0.4,0.4-0.8,0.8-1.2,1.1c-1.4,1.3-2.8,2.5-4.1,3.7
		c-1.3,1.2-2.7,2.3-4.1,3.2c-1.4,0.9-2.9,1.7-4.4,2.2c-1.5,0.6-3.2,0.8-5,0.8c-0.8,0-1.7-0.2-2.5-0.5c-0.8-0.3-1.6-0.7-2.4-1.3
		s-1.4-1.2-1.9-2s-0.9-1.7-1.1-2.6c-0.7,0.7-1.3,1.4-2.1,2.1s-1.5,1.5-2.2,2.2c-0.8,0.7-1.6,1.5-2.4,2.2c-0.8,0.7-1.7,1.3-2.6,1.9
		c-0.5,0.3-1.1,0.7-1.8,1c-0.7,0.4-1.4,0.7-2.2,1c-0.8,0.3-1.5,0.6-2.3,0.7s-1.4,0.3-2,0.3c-0.9,0-1.7-0.3-2.4-0.9
		c-0.7-0.6-1.2-1.3-1.7-2.1c-0.4-0.8-0.8-1.7-1-2.7c-0.2-0.9-0.3-1.8-0.3-2.5c0-1.5,0.2-3,0.6-4.5c0.4-1.6,1-3.1,1.7-4.5
		c0.7-1.5,1.4-2.9,2.3-4.2c0.8-1.3,1.7-2.5,2.5-3.5c0.9-1.1,1.9-2.2,3-3.2s2.4-2,3.6-2.9c1.3-0.8,2.5-1.5,3.7-2
		c1.2-0.5,2.3-0.8,3.2-0.8c0.5,0,1,0,1.5,0s1,0,1.6,0.1s1,0.1,1.5,0.3s0.9,0.3,1.3,0.6c0.2,0.1,0.4,0.4,0.7,0.8
		c0.3,0.4,0.5,0.8,0.8,1.3c0.2,0.5,0.4,0.9,0.6,1.4c0.2,0.5,0.2,0.8,0.2,1.1c0,0.7-0.2,1.7-0.5,3c-0.4,1.5-0.7,3-1,4.2
		c-0.3,1.3-0.5,2.6-0.5,3.9c0,0.8,0.1,1.5,0.4,2.3c0.2,0.8,0.6,1.5,1.1,2.2s1,1.2,1.7,1.6s1.4,0.6,2.2,0.6c1.4,0,2.8-0.3,4.2-0.9
		c1.4-0.6,2.9-1.4,4.4-2.4c1.5-1,2.9-2.2,4.4-3.5c1.5-1.3,2.9-2.7,4.3-4.2c0.1-0.1,0.3-0.4,0.6-0.7c0.3-0.3,0.6-0.7,0.9-1
		c0.3-0.3,0.6-0.6,0.9-0.9s0.5-0.4,0.6-0.4C229.5,30.9,229.7,31.4,229.7,32.3z M199.7,29.5c0-0.4,0-0.9-0.1-1.4c0-0.6-0.2-1-0.4-1.4
		c-0.2-0.4-0.5-0.5-0.9-0.5s-0.7,0-1.1,0c-0.8,0-1.5,0.1-2.3,0.4c-0.7,0.2-1.4,0.6-2.1,1c-0.7,0.4-1.4,0.9-2,1.5
		c-0.6,0.6-1.3,1.2-1.9,1.8c-0.5,0.5-1.1,1.2-1.6,1.9c-0.6,0.8-1.1,1.6-1.7,2.5c-0.6,0.9-1.1,1.9-1.6,2.9c-0.5,1-1,2-1.3,3
		c-0.4,1-0.7,1.9-0.9,2.8c-0.2,0.9-0.3,1.7-0.3,2.5c0,0.2,0,0.5,0.1,0.9c0.1,0.4,0.1,0.7,0.3,1.1c0.1,0.3,0.3,0.6,0.5,0.9
		c0.2,0.2,0.5,0.4,0.8,0.4c1,0,2.3-0.3,3.9-1c2.1-0.9,4-2.1,5.7-3.7c1.7-1.6,3.2-3.4,4.4-5.4C198.8,36.5,199.7,33.1,199.7,29.5z"/>
	<path class="st0" d="M235.8,24.2c0,0.2-0.1,0.5-0.2,0.8c-0.1,0.4-0.3,0.8-0.5,1.1c-0.2,0.4-0.3,0.8-0.5,1.1
		c-0.2,0.4-0.3,0.6-0.3,0.8c-0.2,0.7-0.3,1.5-0.4,2.7s-0.1,2.5-0.1,4.1c0,0.5,0,1.2,0,2s0,1.6,0.1,2.5c0,0.9,0,1.7,0.1,2.5
		c0,0.8,0,1.5,0,2c0,2,0,3.9-0.1,5.5c0,1.7-0.1,3.2-0.2,4.6c-0.1,1.4-0.3,2.8-0.5,4.1s-0.5,2.6-0.9,3.9c-0.4,1.4-0.9,2.7-1.4,3.9
		c-0.6,1.2-1.3,2.2-2.1,3c-0.8,0.8-1.8,1.5-2.8,2s-2.3,0.7-3.7,0.7c-0.8,0-1.6-0.1-2.4-0.3c-0.8-0.2-1.5-0.4-2.3-0.7
		c-0.7-0.3-1.4-0.6-2-1c-0.6-0.4-1.2-0.7-1.6-1.1c-0.5-0.4-0.8-0.7-1.1-1.1c-0.3-0.3-0.4-0.6-0.4-0.9c0-0.7,0.2-1,0.6-1
		c0.1,0,0.5,0.1,1,0.2c0.5,0.1,1.2,0.3,1.9,0.5c0.7,0.2,1.6,0.3,2.5,0.5c0.9,0.1,1.8,0.2,2.7,0.2c3.1,0,5.1-1.7,6-5
		c0.9-3.3,1.3-7.2,1.3-11.8c0-0.6,0-1.3,0-2.1c0-0.8,0-1.6-0.1-2.5c0-0.9,0-1.7-0.1-2.6s0-1.8-0.1-2.6s0-1.6-0.1-2.2s0-1.2,0-1.7
		c0-5.2,0.5-9,1.6-11.4c0.9-2,2.1-3,3.7-3c0.7,0,1.2,0.2,1.6,0.6C235.6,23,235.8,23.5,235.8,24.2z M241.8,6.7c0,0.2-0.1,0.5-0.4,1
		c-0.2,0.5-0.5,1.1-0.9,1.6c-0.3,0.6-0.7,1.1-1,1.5c-0.3,0.4-0.6,0.7-0.8,0.7c-0.5,0-0.9-0.1-1.3-0.2c-0.3-0.1-0.6-0.3-0.9-0.6
		c-0.3-0.3-0.6-0.6-0.8-1S235,9,234.7,8.4c-0.2-0.4-0.4-0.7-0.6-1s-0.2-0.5-0.2-0.7c0-0.4,0.1-0.7,0.3-1.1c0.2-0.4,0.5-0.8,0.9-1.1
		c0.4-0.3,0.7-0.6,1.1-0.8s0.8-0.3,1.2-0.3c0.5,0,1,0.1,1.5,0.2c0.5,0.2,1,0.4,1.4,0.7c0.4,0.3,0.8,0.6,1,1.1
		C241.7,5.8,241.8,6.2,241.8,6.7z"/>
	<path class="st0" d="M280.9,30.9c0,0.4-0.1,0.8-0.3,1.2c-0.2,0.4-0.5,0.9-0.8,1.4s-0.7,0.9-1.1,1.4s-0.9,1-1.3,1.4
		c-0.3,0.4-0.7,0.8-1.1,1.2c-0.4,0.4-0.8,0.8-1.3,1.3c-0.5,0.5-1.1,1-1.7,1.7c-0.7,0.6-1.4,1.4-2.3,2.2c-0.8,0.8-1.7,1.6-2.6,2.4
		c-1,0.8-1.9,1.7-2.9,2.5c-1,0.8-1.9,1.6-2.8,2.3c-0.9,0.7-1.7,1.4-2.4,2c-1.6,1.3-3.2,2.6-4.6,3.8c-1.5,1.2-2.9,2.2-4.3,3.2
		c-2.8,1.9-5,2.8-6.7,2.8c-0.6,0-1.2-0.1-2-0.4c-0.8-0.3-1.1-0.7-1.1-1.2c0-1.5,0.6-2.6,1.7-3.4c1.1-0.8,2.8-1.6,5.1-2.6
		c2.2-0.9,3.9-1.8,5.1-2.6c1.1-0.9,1.7-2,1.7-3.5c0-0.7-0.8-2.2-2.3-4.5c-0.8-1.1-1.4-2.2-2-3.2s-1.1-1.8-1.5-2.6
		c-0.9-1.6-1.3-3.2-1.3-5c0-1.5,0.3-3.1,0.8-4.8c0.3-0.9,0.7-1.9,1.3-2.8c0.6-1,1.2-1.8,1.9-2.6c0.7-0.8,1.4-1.4,2.1-1.8
		c0.7-0.4,1.3-0.7,1.9-0.6c2,0,3,1.2,3,3.5c0,0.9-0.3,1.8-1,2.6c-0.3,0.4-0.7,0.8-1.1,1.3c-0.4,0.4-1,0.9-1.5,1.4
		c-0.6,0.5-1,0.9-1.4,1.2c-0.4,0.4-0.7,0.7-1,0.9c0,1.2,0.4,2.5,1.1,4.1c0.4,0.8,0.8,1.6,1.3,2.5c0.5,0.9,1.1,1.9,1.7,2.9
		c0.7,1,1.2,2,1.7,2.8s0.8,1.4,1,1.8c0,0.1,0.1,0.1,0.4,0.1c0.3,0,0.9-0.2,1.6-0.7c0.8-0.5,1.7-1.1,2.8-1.9c1.1-0.8,2.2-1.7,3.5-2.7
		s2.5-2.1,3.8-3.3c1.3-1.2,2.4-2.2,3.2-3.1s1.7-1.7,2.4-2.5c0.8-0.8,1.3-1.4,1.7-1.8c0.4-0.4,0.6-0.6,0.6-0.6c0.2,0,0.3,0.1,0.5,0.2
		s0.3,0.3,0.4,0.5c0.1,0.2,0.2,0.4,0.3,0.7C280.9,30.5,280.9,30.7,280.9,30.9z"/>
</g>
</svg>
