<svg width="397" height="140" viewBox="0 0 397 140" xmlns="http://www.w3.org/2000/svg"><title>Slice 1</title><g fill="none" fill-rule="evenodd"><g fill="#f64040"><path d="M226.668 90.47c9.75-6.14 26.736-17.268 30.643-18.36-3.906 5.98-22.632 19.87-30.082 25.35-2.14 1.35-4.34 3.36-7.06 2.97-2.91-1.03-4.11-5.01-2.34-7.51 5.56-9.95 14.46-11.79 8.84-2.45zM70.628 75.968c-.73 2.99-2.75 5.44-4.4 7.97-3.418 4.838-14.568 21.96-16.79 23.774-2.537 2.07-3.926 1.963-3.325-.805.57-2.63 10.986-21.3 15.875-29.15-17.13 5.32-33.46 12.95-49.07 21.73-16.24 9.27-17.32 1.59-2.38-6.32 17.07-8.94 34.86-16.66 53.46-21.82 3-1.31 6.99 1.27 6.63 4.62z"/><path d="M269.155 19.09c2.263.444 4.268 2.46 4.008 4.878-.73 2.99-2.75 5.44-4.4 7.97-11.03 15.61-23.38 30.25-33.98 46.17-6.803 11.167-11.79 20.57-13.39 21.73-3.58 1.06-7.26-3.83-4.33-6.72 15.54-22.64 32.92-44.02 47.46-67.36 3.574-5.358 3.758-6.838 4.632-6.667z"/><path d="M202.103 54.127c1.532 1.393 9.862 2.295 11.734 3.085 1.42-.958-4.242-2.37-6.243-5.336 11.553-3.477 23.528-5.364 35.535-6.34 12.54-.938 25.19-.863 37.67.812 6.954.94 13.896 2.415 20.36 5.227 1.816.9 4.21.697 5.52-.982 1.332-1.79-.072-4.316-2.02-4.908-9.124-3.387-18.858-4.73-28.52-5.442-11.352-.724-22.756-.334-34.06.874-12.882 1.436-25.705 3.822-38.017 7.94-2.166.398-3.42 3.337-1.96 5.07zM278.556 78.08c3.04-1.51 6.53-2.82 9.91-1.6 3.11.68 5.99 3.91 4.67 7.2-2.04 3.86-5.44 6.76-8.61 9.67-4.14 3.39-8.45 6.92-13.65 8.47-3.37 1.34-6.4-2.65-5.8-5.76.83-3.44 2.92-6.38 4.66-9.41 2.545-3.76 8.3-8.57 8.82-8.57zm-8.38 18.864c6.956-2.678 15.79-10.652 17.063-13.286 1.902-3.936-3.372-4.6-5.214-3.957-3.073 1.077-18.804 19.92-11.85 17.244z"/><path d="M282.755 94.843c6.55-1.34 16.47-7.35 21.6-11.42 1.06-.73 2.25-2.02 3.68-1.43.62.533 1.237 1.083 1.847 1.644.225.207.36.957.204 1.122-2.236 2.348-4.59 4.614-6.15 7.483 6.39-2.49 11.03-7.74 16.45-11.73 2.38-1.71 4.99-3.69 8.09-3.5 2.92.63 4.67 4.66 2.58 7.03-2.96 3.51-6.085 8.2-6.085 10.8l-.006.186c-.004.15 0 .292.007.43.253 4.132 5.81 2.648 10.358 1.998 20.62-3.56 41.167-13.145 60.817-20.175-.24.45-.71 1.34-.94 1.78-18.77 6.72-36.49 16.24-55.71 21.67-6.02 1.28-13.7 3.45-18.68-1.4-3.72-4-1.62-9.75.62-13.92-5.76 4.94-11.12 10.88-18.38 13.6-8.993 1.72-3.66-6.17-2.62-8.7-3.81 3.01-17.363 8.883-29.848 11.603-1.76.67 13.798-9.073 12.168-7.073zM262.766 64.93c4.344-3.717 13.696-10.25 17.33-14.808.254.204-9.79 14.008-12.506 17.86-.736.877-2.876 2.012-4.593.608-1.718-1.404-.23-3.66-.23-3.66zM274.868 83.905c-7.65 2.06-19.35 14.505-27.13 16.165-3.8.93-9.54-2.4-7.19-6.76 3.75-6.86 8.107-13.717 13.7-19.248 3.424-3.385 6.03-2.93 6.866.946-9.543 9.478-12.226 16.182-13.556 18.532 7.37-1.08 32.693-19.065 34.563-15.985.927 1.24-5.442 5.64-7.252 6.35zM180.597 30.968c-.73 2.99-2.75 5.44-4.4 7.97-11.03 15.61-23.38 30.25-33.98 46.17 13.07-9.47 26.99-17.87 41.67-24.58 3.64-1.55 8.83-3.93 11.85-.01 2.09 1.76-.35 3.87-1.35 5.52-6.87 8.42-13.75 16.9-19.37 26.24 9.75-6.14 30.45-19 30.97-19 3.04-1.51 6.53-2.82 9.91-1.6 3.11.68 5.99 3.91 4.67 7.2-2.04 3.86-5.44 6.76-8.61 9.67-4.14 3.39-8.45 6.92-13.65 8.47-3.37 1.34-6.4-2.65-5.8-5.76.83-3.44 2.92-6.38 4.66-9.41-7.08 5.94-14.14 11.94-21.59 17.42-2.14 1.35-4.34 3.36-7.06 2.97-2.91-1.03-4.11-5.01-2.34-7.51 5.56-9.95 12.41-19.11 19.02-28.37-19.63 8.41-37.11 21.28-52.04 36.47-1.4 1.39-2.73 2.85-4.33 4.01-3.58 1.06-7.26-3.83-4.33-6.72 15.54-22.64 32.92-44.02 47.46-67.36-17.13 5.32-33.46 12.95-49.07 21.73-16.24 9.27-31.77 19.88-45.76 32.32-7.79 6.94-15.12 14.53-20.75 23.37-1.49 2.62-4.61 4.36-7.62 3.38-3.13-1.1-3.5-5.38-1.59-7.73 8.43-11.76 19.31-21.51 30.63-30.42 13.39-10.33 27.77-19.33 42.71-27.24 17.07-8.94 34.86-16.66 53.46-21.82 3-1.31 6.99 1.27 6.63 4.62zm16.047 60.424c-2.315 6.328 21.108-11.657 19.243-14.704-1.865-3.048-4.59-1.73-6.43-.79-1.27.65-10.753 9.864-12.813 15.494z"/><path d="M354.592 75.06l-5.693-.656 4.242-2.823-.918-4.954 3.914 2.95 4.705-2.812-1.51 5.218 4.018 3.028-5.09.428-2.134 5.187"/></g><path d="M197.183 94.118c8.415-1.453 30.35-15.127 33.388-19.943.067-.104 4.455-.013 0 4.816-6.784 2.76-22.156 16.407-29.22 18.402-6.02 1.28-8.927-2.594-4.167-3.274z" fill="#f64040"/><g transform="translate(191 127)"><path fill="#f64040" d="M83 4h1v7h-1zM86 7h1v4h-1zM89 4h1v7h-1z"/><path fill="#f64040" d="M90 10v1h-7v-1z"/><path fill="#3A0839" d="M86 10h1v1h-1z"/><g fill="#f64040"><path d="M102 1h1v10h-1zM107 4h1v7h-1z"/><path d="M108 4v1h-6V4zM108 10v1h-6v-1z"/></g><g fill="#f64040"><path d="M61 1h1v10h-1zM66 4h1v7h-1z"/><path d="M67 4v1h-6V4z"/><g><path d="M70 4h1v7h-1z"/><path d="M76 4v1h-6V4zM76 7v1h-6V7zM76 10v1h-6v-1z"/></g><g><path d="M54 1h1v10h-1z"/><path d="M59 4v1h-6V4z"/></g></g><g fill="#f64040"><path d="M26 4h1v7h-1zM29 4h1v7h-1z"/><path d="M30 4v1h-4V4zM30 10v1h-4v-1z"/><g><path d="M33 4h1v7h-1zM44 4h1v4h-1zM38 7h1v4h-1z"/><path d="M45 4v1H33V4zM45 7v1H33V7z"/></g><g><path d="M19 1h1v10h-1z"/><path d="M22 4v1h-4V4zM24 1v1h-5V1z"/></g></g><path fill="#f64040" d="M93 4h1v7h-1z"/><path fill="#f64040" d="M99 4v1h-6V4zM99 7v1h-6V7zM99 10v1h-6v-1z"/><circle fill="#f64040" cx="123" cy="8" r="1"/><circle fill="#f64040" cx="1" cy="8" r="1"/><path fill="#f64040" d="M0 7h2v2H0zM122 7h2v2h-2z"/></g></g></svg>
