<svg id="Слой_1" xmlns="http://www.w3.org/2000/svg" viewBox="0 0 287 64"><style>.st0{fill:#FF9797;}</style><path class="st0" d="M61.5 62.3c-1.4 0-2.5-.7-3.4-2.1-.8-1.2-1.4-3.3-2.1-6.1l-1.4-6.6c-1-4.1-2.7-13-5-26.9l-7.6 23-2.2 7.2c-.9 2.9-1.9 5.2-2.9 7-1.1 1.9-2.5 2.9-4.3 2.9-1.5 0-2.7-.8-3.5-2.4-.6-1.1-1.1-2.4-1.5-4.1L26.5 50c-2.6-9-4.8-18.6-6.8-28.8L18.3 28l-4.9 20.1c-.2 2.4-.8 5.9-1.9 10.5-.8 2-2 3-3.8 3-1.2 0-2.2-.4-3-1.3-.6-.8-1-1.7-1-2.8 0-4.2.9-9.4 2.6-15.6l4.2-15.3 2.2-12c1.1-5.6 2.3-9.3 3.5-11 1-1.5 2.3-2.2 3.8-2.2 1.7 0 2.9.9 3.7 2.8 1 2.3 2.1 6.9 3.2 13.8 1.3 8.4 3.4 17.4 6.3 27.1 3.8-9.8 7-20 9.8-30.5L44.3 9c.5-2.2 1.1-4 1.8-5.4 1-1.9 2.3-2.8 4.1-2.8 2.2 0 3.8 2.1 5 6.3.4 1.4.9 4.4 1.5 9 1.5 11.5 3.4 21.3 5.6 29.4l1.9 6.6c1 3.5 1.4 5.7 1.4 6.5 0 1.1-.4 2-1.2 2.7-1 .7-1.9 1-2.9 1zM99 61.5c-7.2 0-13.2-2.1-18.2-6.4-5.3-4.6-7.9-10.5-7.9-17.7 0-8.8 2.6-16.8 7.8-24 5.8-8 13.1-12 21.7-12 8.4 0 14.6 1.9 18.6 5.6 4.2 3.9 6.4 10.1 6.4 18.5 0 8.8-2.4 16.7-7.2 23.8-5.4 8.2-12.5 12.2-21.2 12.2zm3.4-52.2c-6.2 0-11.5 3.1-15.8 9.3-4 5.7-6 12-6 18.8 0 4.9 1.8 8.9 5.4 12 3.5 2.9 7.8 4.3 12.9 4.3 6.2 0 11.3-3.1 15.3-9.3 3.6-5.6 5.4-11.8 5.4-18.7 0-6.1-1.4-10.3-4.1-12.8-2.5-2.4-6.9-3.6-13.1-3.6zM182.6 11.1c-1.9 0-4.8-.2-8.7-.5-3.8-.3-6.7-.4-8.7-.4h-2.7c.1 3.5.4 9.2 1 17.1.6 7.3.8 13 .8 17.1 0 .9.1 2.2.3 4 .2 1.8.3 3.2.3 4.1 0 1.7-.3 3.2-.8 4.5-.7 1.7-1.8 2.5-3.3 2.5-1 0-1.9-.4-2.7-1.1-.8-.7-1.2-1.6-1.2-2.7 0-.4.1-1 .2-1.7s.2-1.3.2-1.7c0-1.2-.1-3.1-.2-5.6-.2-2.5-.2-4.4-.2-5.6 0-3.6-.3-8.7-.9-15.3-.6-7.1-1-12.2-1-15.3h-3.5c-5.6 0-9.9-.4-13.1-1.2-2.1-.5-3.1-1.8-3.1-3.8 0-1 .3-2 1-2.7.8-.9 1.7-1.3 2.9-1.2.9.1 2.9.3 6.1.7 2.5.3 4.6.5 6.2.5 1.5 0 3.8 0 6.9-.1 3.1-.1 5.4-.1 6.9-.1 2 0 4.9.1 8.7.4 3.8.3 6.7.4 8.7.4 1.1 0 2 .4 2.7 1.1.7.7 1.1 1.7 1.1 2.8 0 1.1-.4 2-1.1 2.8-.8.6-1.7 1-2.8 1zM220.2 11.7c-1.6 0-3.7-.2-6.1-.5l-6.1-.8c-.6 7.4-.9 14.4-.9 21.2 0 1.8.1 4 .2 6.6.1 2.6.2 4.8.2 6.6 0 2.4-.1 4.6-.3 6.5l12-.2c1.1 0 2 .4 2.7 1.1.7.7 1.1 1.7 1.1 2.8 0 1.1-.4 2.1-1.1 2.8-.7.7-1.6 1.1-2.7 1.1-1.4 0-3.6 0-6.4.1-2.8.1-5 .1-6.4.1-1.7 0-4.2.2-7.5.7-3.3.5-5.9.7-7.6.7-1.1 0-2-.4-2.7-1.1-.7-.7-1.1-1.7-1.1-2.8 0-1.1.4-2 1.1-2.8.7-.8 1.6-1.1 2.7-1.1 1.7 0 4.4-.3 8.2-.8.3-2.1.4-4.4.4-7 0-1.8-.1-3.9-.2-6.4-.2-2.5-.2-4.7-.2-6.4 0-5.9.4-13.2 1.1-22l-5 .2-5 .1c-1.1 0-2-.4-2.7-1.1-.7-.7-1.1-1.7-1.1-2.8 0-2.4 1.2-3.7 3.6-3.9 2.1-.2 5.9-.3 11.5-.3 5.1 0 11.4.5 19 1.6 2.3.3 3.4 1.7 3.4 4.1 0 1.2-.4 2.1-1.3 2.9-1 .5-1.8.8-2.8.8zM256.9 61.5c-7.2 0-13.2-2.1-18.2-6.4-5.3-4.6-7.9-10.5-7.9-17.7 0-8.8 2.6-16.8 7.8-24 5.8-8 13.1-12 21.7-12 8.4 0 14.6 1.9 18.6 5.6 4.2 3.9 6.4 10.1 6.4 18.5 0 8.8-2.4 16.7-7.2 23.8-5.4 8.2-12.5 12.2-21.2 12.2zm3.4-52.2c-6.2 0-11.5 3.1-15.8 9.3-4 5.7-6 12-6 18.8 0 4.9 1.8 8.9 5.4 12 3.5 2.9 7.8 4.3 12.9 4.3 6.2 0 11.3-3.1 15.3-9.3 3.6-5.6 5.4-11.8 5.4-18.7 0-6.1-1.4-10.3-4.1-12.8-2.5-2.4-6.9-3.6-13.1-3.6z"/></svg>