<?xml version="1.0" encoding="utf-8"?>
<!-- Generator: Adobe Illustrator 21.0.0, SVG Export Plug-In . SVG Version: 6.00 Build 0)  -->
<svg version="1.1" id="Слой_1" xmlns="http://www.w3.org/2000/svg" xmlns:xlink="http://www.w3.org/1999/xlink" x="0px" y="0px"
	 viewBox="0 0 287 64" style="enable-background:new 0 0 287 64;" xml:space="preserve">
<style type="text/css">
	.st0{fill:#FF9797;}
</style>
<g>
	<path class="st0" d="M61.5,62.3c-1.4,0-2.5-0.7-3.4-2.1c-0.8-1.2-1.4-3.3-2.1-6.1l-1.4-6.6c-1-4.1-2.7-13-5-26.9l-7.6,23l-2.2,7.2
		c-0.9,2.9-1.9,5.2-2.9,7c-1.1,1.9-2.5,2.9-4.3,2.9c-1.5,0-2.7-0.8-3.5-2.4c-0.6-1.1-1.1-2.4-1.5-4.1l-1.1-4.2
		c-2.6-9-4.8-18.6-6.8-28.8l-1.4,6.8l-4.9,20.1c-0.2,2.4-0.8,5.9-1.9,10.5c-0.8,2-2,3-3.8,3c-1.2,0-2.2-0.4-3-1.3
		c-0.6-0.8-1-1.7-1-2.8c0-4.2,0.9-9.4,2.6-15.6l4.2-15.3l2.2-12c1.1-5.6,2.3-9.3,3.5-11c1-1.5,2.3-2.2,3.8-2.2
		c1.7,0,2.9,0.9,3.7,2.8c1,2.3,2.1,6.9,3.2,13.8c1.3,8.4,3.4,17.4,6.3,27.1c3.8-9.8,7-20,9.8-30.5L44.3,9c0.5-2.2,1.1-4,1.8-5.4
		c1-1.9,2.3-2.8,4.1-2.8c2.2,0,3.8,2.1,5,6.3c0.4,1.4,0.9,4.4,1.5,9c1.5,11.5,3.4,21.3,5.6,29.4l1.9,6.6c1,3.5,1.4,5.7,1.4,6.5
		c0,1.1-0.4,2-1.2,2.7C63.4,62,62.5,62.3,61.5,62.3z"/>
	<path class="st0" d="M99,61.5c-7.2,0-13.2-2.1-18.2-6.4c-5.3-4.6-7.9-10.5-7.9-17.7c0-8.8,2.6-16.8,7.8-24c5.8-8,13.1-12,21.7-12
		c8.4,0,14.6,1.9,18.6,5.6c4.2,3.9,6.4,10.1,6.4,18.5c0,8.8-2.4,16.7-7.2,23.8C114.8,57.5,107.7,61.5,99,61.5z M102.4,9.3
		c-6.2,0-11.5,3.1-15.8,9.3c-4,5.7-6,12-6,18.8c0,4.9,1.8,8.9,5.4,12c3.5,2.9,7.8,4.3,12.9,4.3c6.2,0,11.3-3.1,15.3-9.3
		c3.6-5.6,5.4-11.8,5.4-18.7c0-6.1-1.4-10.3-4.1-12.8C113,10.5,108.6,9.3,102.4,9.3z"/>
	<path class="st0" d="M182.6,11.1c-1.9,0-4.8-0.2-8.7-0.5c-3.8-0.3-6.7-0.4-8.7-0.4h-2.7c0.1,3.5,0.4,9.2,1,17.1
		c0.6,7.3,0.8,13,0.8,17.1c0,0.9,0.1,2.2,0.3,4c0.2,1.8,0.3,3.2,0.3,4.1c0,1.7-0.3,3.2-0.8,4.5c-0.7,1.7-1.8,2.5-3.3,2.5
		c-1,0-1.9-0.4-2.7-1.1c-0.8-0.7-1.2-1.6-1.2-2.7c0-0.4,0.1-1,0.2-1.7s0.2-1.3,0.2-1.7c0-1.2-0.1-3.1-0.2-5.6
		c-0.2-2.5-0.2-4.4-0.2-5.6c0-3.6-0.3-8.7-0.9-15.3c-0.6-7.1-1-12.2-1-15.3l-3.5,0c-5.6,0-9.9-0.4-13.1-1.2
		c-2.1-0.5-3.1-1.8-3.1-3.8c0-1,0.3-2,1-2.7c0.8-0.9,1.7-1.3,2.9-1.2c0.9,0.1,2.9,0.3,6.1,0.7c2.5,0.3,4.6,0.5,6.2,0.5
		c1.5,0,3.8,0,6.9-0.1c3.1-0.1,5.4-0.1,6.9-0.1c2,0,4.9,0.1,8.7,0.4c3.8,0.3,6.7,0.4,8.7,0.4c1.1,0,2,0.4,2.7,1.1
		c0.7,0.7,1.1,1.7,1.1,2.8c0,1.1-0.4,2-1.1,2.8C184.6,10.7,183.7,11.1,182.6,11.1z"/>
	<path class="st0" d="M220.2,11.7c-1.6,0-3.7-0.2-6.1-0.5l-6.1-0.8c-0.6,7.4-0.9,14.4-0.9,21.2c0,1.8,0.1,4,0.2,6.6
		c0.1,2.6,0.2,4.8,0.2,6.6c0,2.4-0.1,4.6-0.3,6.5l12-0.2c1.1,0,2,0.4,2.7,1.1c0.7,0.7,1.1,1.7,1.1,2.8c0,1.1-0.4,2.1-1.1,2.8
		c-0.7,0.7-1.6,1.1-2.7,1.1c-1.4,0-3.6,0-6.4,0.1c-2.8,0.1-5,0.1-6.4,0.1c-1.7,0-4.2,0.2-7.5,0.7c-3.3,0.5-5.9,0.7-7.6,0.7
		c-1.1,0-2-0.4-2.7-1.1c-0.7-0.7-1.1-1.7-1.1-2.8c0-1.1,0.4-2,1.1-2.8c0.7-0.8,1.6-1.1,2.7-1.1c1.7,0,4.4-0.3,8.2-0.8
		c0.3-2.1,0.4-4.4,0.4-7c0-1.8-0.1-3.9-0.2-6.4c-0.2-2.5-0.2-4.7-0.2-6.4c0-5.9,0.4-13.2,1.1-22l-5,0.2l-5,0.1c-1.1,0-2-0.4-2.7-1.1
		c-0.7-0.7-1.1-1.7-1.1-2.8c0-2.4,1.2-3.7,3.6-3.9c2.1-0.2,5.9-0.3,11.5-0.3c5.1,0,11.4,0.5,19,1.6c2.3,0.3,3.4,1.7,3.4,4.1
		c0,1.2-0.4,2.1-1.3,2.9C222,11.4,221.2,11.7,220.2,11.7z"/>
	<path class="st0" d="M256.9,61.5c-7.2,0-13.2-2.1-18.2-6.4c-5.3-4.6-7.9-10.5-7.9-17.7c0-8.8,2.6-16.8,7.8-24
		c5.8-8,13.1-12,21.7-12c8.4,0,14.6,1.9,18.6,5.6c4.2,3.9,6.4,10.1,6.4,18.5c0,8.8-2.4,16.7-7.2,23.8
		C272.7,57.5,265.6,61.5,256.9,61.5z M260.3,9.3c-6.2,0-11.5,3.1-15.8,9.3c-4,5.7-6,12-6,18.8c0,4.9,1.8,8.9,5.4,12
		c3.5,2.9,7.8,4.3,12.9,4.3c6.2,0,11.3-3.1,15.3-9.3c3.6-5.6,5.4-11.8,5.4-18.7c0-6.1-1.4-10.3-4.1-12.8
		C270.9,10.5,266.5,9.3,260.3,9.3z"/>
</g>
</svg>
