<svg id="Слой_1" xmlns="http://www.w3.org/2000/svg" viewBox="0 0 300 66"><style>.st0{fill:#FF0066;}</style><path class="st0" d="M57.4 2.3v63.2H43V22.8l-5.7 42.7H27l-6-41.7v41.7H6.6V2.3h21.3c.6 3.8 1.3 8.3 2 13.4l2.3 16.1L36 2.3h21.4zM99.2 32v12.7c0 4.7-.2 8.1-.7 10.3-.5 2.2-1.5 4.2-3 6.1-1.5 1.9-3.5 3.3-5.9 4.2-2.4.9-5.2 1.3-8.3 1.3-3.5 0-6.4-.4-8.9-1.2s-4.3-1.9-5.6-3.5c-1.3-1.5-2.3-3.4-2.9-5.6-.6-2.2-.9-5.5-.9-9.9V33.1c0-4.8.5-8.6 1.6-11.3 1-2.7 2.9-4.9 5.6-6.5 2.7-1.6 6.2-2.5 10.4-2.5 3.5 0 6.6.5 9.1 1.6s4.5 2.4 5.9 4.1c1.4 1.7 2.3 3.4 2.8 5.2s.8 4.6.8 8.3zm-15.8-4c0-2.7-.1-4.3-.4-5-.3-.7-.9-1-1.8-1s-1.6.3-1.9 1c-.3.7-.5 2.4-.5 5v23.4c0 2.4.2 4 .5 4.8s.9 1.1 1.8 1.1 1.6-.3 1.9-1c.3-.7.4-2.1.4-4.4V28zM121 6.8V15h4.3v8.2H121v27.7c0 3.4.2 5.3.5 5.7s1.8.6 4.4.6v8.4h-6.4c-3.6 0-6.2-.1-7.7-.4-1.5-.3-2.9-1-4.1-2.1-1.2-1.1-1.9-2.3-2.2-3.7-.3-1.4-.4-4.7-.4-9.8V23.2h-3.4V15h3.4V6.8H121zM145 2.3v8.2h-16.3V2.3H145zm0 11.4v51.8h-16.3V13.7H145zM186.4 32v12.7c0 4.7-.2 8.1-.7 10.3-.5 2.2-1.5 4.2-3 6.1-1.5 1.9-3.5 3.3-5.9 4.2-2.4.9-5.2 1.3-8.3 1.3-3.5 0-6.4-.4-8.9-1.2s-4.3-1.9-5.6-3.5c-1.3-1.5-2.3-3.4-2.9-5.6-.6-2.2-.9-5.5-.9-9.9V33.1c0-4.8.5-8.6 1.6-11.3 1-2.7 2.9-4.9 5.6-6.5 2.7-1.6 6.2-2.5 10.4-2.5 3.5 0 6.6.5 9.1 1.6s4.5 2.4 5.9 4.1c1.4 1.7 2.3 3.4 2.8 5.2s.8 4.6.8 8.3zm-15.8-4c0-2.7-.1-4.3-.4-5-.3-.7-.9-1-1.8-1s-1.6.3-1.9 1c-.3.7-.5 2.4-.5 5v23.4c0 2.4.2 4 .5 4.8s.9 1.1 1.8 1.1 1.6-.3 1.9-1c.3-.7.4-2.1.4-4.4V28zM207.6 13.7l-.3 4.8c1.1-1.9 2.5-3.3 4.2-4.3 1.7-1 3.6-1.4 5.7-1.4 2.7 0 4.9.6 6.6 1.9 1.7 1.3 2.8 2.9 3.3 4.8s.7 5.2.7 9.7v36.3H212V29.7c0-3.6-.1-5.7-.4-6.5s-.9-1.2-2-1.2-1.8.4-2.1 1.3c-.3.9-.4 3.3-.4 7.2v35h-15.8V13.7h16.3zM271.3 2.3v42.3c0 4.8-.2 8.2-.5 10.1-.3 1.9-1.2 3.9-2.8 6-1.5 2-3.6 3.6-6.1 4.6-2.5 1.1-5.5 1.6-8.9 1.6-3.8 0-7.1-.6-10-1.9s-5.1-2.9-6.5-4.9c-1.4-2-2.3-4.1-2.5-6.3-.3-2.2-.4-6.9-.4-14V2.3H250v47.4c0 2.8.1 4.5.4 5.3.3.8.9 1.2 1.8 1.2 1 0 1.7-.4 2-1.3.3-.8.4-2.8.4-6V2.3h16.7zM294.1 2.3v63.2h-16.4V2.3h16.4z"/></svg>