<?xml version="1.0" encoding="utf-8"?>
<!-- Generator: Adobe Illustrator 21.0.0, SVG Export Plug-In . SVG Version: 6.00 Build 0)  -->
<svg version="1.1" id="Слой_1" xmlns="http://www.w3.org/2000/svg" xmlns:xlink="http://www.w3.org/1999/xlink" x="0px" y="0px"
	 viewBox="0 0 270 59" style="enable-background:new 0 0 270 59;" xml:space="preserve">
<style type="text/css">
	.st0{fill:#00F387;}
</style>
<g>
	<path class="st0" d="M64.7,4.2c0,0.3,0,0.5-0.1,0.7c-0.1,0.2-0.2,0.4-0.4,0.7C64,5.8,63.8,6,63.7,6.2s-0.2,0.4-0.2,0.6
		c0,0,0,0.1-0.1,0.2c0,0.1-0.1,0.3-0.1,0.5c-0.1,0.4-0.2,0.7-0.3,1c-0.1,0.3-0.1,0.4-0.2,0.6c-0.2,0.8-0.4,1.5-0.5,2.3
		c-0.1,0.7-0.1,1.6-0.1,2.5c0,1.7-0.1,3.3-0.2,5.1c0,0.9-0.1,1.7-0.2,2.7c-0.1,0.9-0.2,1.9-0.3,2.9c-0.1,1-0.2,2-0.3,3
		c-0.1,0.9-0.2,1.9-0.3,2.7c-0.2,1.6-0.3,3.2-0.4,4.9c-0.1,1.7-0.1,3.5-0.1,5.3c0,1.2,0,2.8,0.1,4.7c0,1.9,0.1,4.1,0.1,6.7
		c0.3,0.3,0.7,0.6,1.2,1c0.6,0.4,1.1,0.7,1.4,1c0.3,0.3,0.4,0.7,0.4,1.1c0,0.9-0.4,1.7-1.3,2.5c-0.9,0.8-1.8,1.2-2.7,1.2
		c-2.3,0-3.8-1.5-4.5-4.6c-0.8-3.1-1.2-6.2-1.2-9.4c0-1,0.1-2,0.2-3c0.1-1,0.3-2,0.4-3.1c0.1-0.7,0.2-1.8,0.3-3.1
		c0.1-1.4,0.3-3,0.6-5.1c0.2-2,0.4-3.6,0.5-4.6c0.1-1.1,0.2-1.7,0.2-1.9c0-0.2,0.1-0.4,0.1-0.8c0-0.4,0.1-0.8,0.2-1.4
		c0.2-1.2,0.3-2.2,0.3-3c0.1-0.9,0.1-1.5,0.1-2c0-0.2,0-0.3,0.1-0.4s0-0.3,0-0.5c0-0.2-0.1-0.4-0.3-0.9c-0.4,0.5-0.8,1.1-1.3,1.8
		c-0.5,0.7-1.1,1.5-1.8,2.4c-1.3,1.8-2.4,3.2-3.2,4.3c-0.4,0.6-0.8,1.1-1.3,1.7c-0.4,0.6-0.8,1.1-1.3,1.7c-0.4,0.6-0.9,1.2-1.5,1.9
		c-0.6,0.7-1.2,1.6-1.8,2.5c-1.5,2-2.9,4.1-4.3,6.2c-0.1,0.1-0.2,0.3-0.3,0.5c-0.2,0.2-0.4,0.5-0.6,0.9c-0.5,0.7-0.8,1.1-0.8,1.2
		c-1.6,2.1-3,3.3-4.3,3.7c-2.2-0.6-3.6-1.6-4.4-3c-0.2-0.4-0.4-0.7-0.5-0.9s-0.3-0.5-0.4-0.8c-0.1-0.2-0.3-0.5-0.4-0.7
		c-0.1-0.2-0.3-0.5-0.4-0.8c-0.4-0.8-0.9-1.5-1.2-2.2c-0.4-0.7-0.7-1.2-1-1.8c-0.6-1-1.1-2.1-1.7-3.3c-0.5-1.2-1-2.4-1.5-3.7
		c-0.3-0.9-0.5-1.6-0.7-2.1c-0.2-0.6-0.3-0.9-0.4-1.2c-0.1-0.3-0.2-0.6-0.3-1.1c-0.1-0.4-0.3-1-0.5-1.6c-0.2-0.6-0.4-1.3-0.6-1.9
		c-0.2-0.7-0.4-1.3-0.7-2c-0.4-1.4-0.7-2.2-0.7-2.3c-0.2,0.6-0.4,1.4-0.7,2.4c-0.3,1-0.6,2-0.9,3.1c-0.3,1.1-0.6,2.2-0.9,3.3
		c-0.3,1.1-0.5,2.1-0.7,3c-0.2,0.9-0.4,1.7-0.6,2.5c-0.2,0.8-0.4,1.6-0.6,2.3c-0.4,1.4-1,3.6-1.7,6.6c-0.5,1.9-0.7,3.8-0.7,5.6
		c0,0.4,0,0.9,0.1,1.5c0.1,0.6,0.2,1.4,0.3,2.3c0.2,0.9,0.3,1.7,0.3,2.4c0.1,0.7,0.1,1.3,0.1,1.9c0,0.6-0.3,1.3-0.9,2.2
		c-0.6,0.9-1.2,1.3-1.8,1.3c-0.2,0-0.5,0-0.9-0.1c-0.4,0-0.7-0.1-0.9-0.1c-1.3,0-2.2-0.8-2.7-2.3c-0.6-1.5-0.8-3-0.8-4.6
		c0-0.4,0.1-1.1,0.3-2c0.1-0.4,0.2-1,0.4-1.6c0.2-0.6,0.3-1.4,0.5-2.1c0.2-0.8,0.4-1.4,0.5-1.9c0.1-0.4,0.2-0.7,0.2-0.8
		c0.5-1.9,0.9-3.6,1.3-5.1c0.4-1.5,0.8-2.9,1.1-4c0.3-1.2,0.6-2.4,1-3.7c0.3-1.3,0.7-2.6,1.1-4c0.4-1.6,0.8-3,1.2-4.1
		c0.3-1.1,0.6-2.2,0.8-3.3c0.2-1.2,0.3-2.1,0.4-2.5c0.1-0.6,0.3-1.1,0.5-1.7c0.2-0.6,0.4-1.2,0.7-1.8c0.5-1.2,1.1-1.8,1.9-1.8
		c1.7,0,3,0.2,4,0.5c1,0.3,1.8,1,2.4,2.2c0.3,0.5,0.6,1,0.8,1.6c0.2,0.5,0.4,1.1,0.6,1.6c0.2,0.5,0.3,1.2,0.5,1.9
		c0.2,0.7,0.4,1.5,0.5,2.4c0.1,0.5,0.2,0.9,0.4,1.4c0.2,0.4,0.4,1,0.6,1.5c1.7,5.3,4.3,10.5,7.8,15.7c0.1-0.1,0.5-0.4,1.1-0.8
		c0.3-0.2,0.5-0.4,0.8-0.6c0.2-0.2,0.4-0.4,0.5-0.5c0.3-0.4,0.6-0.8,1-1.3c0.3-0.5,0.7-1,1-1.6c0.7-1.2,1.3-2.3,1.9-3.3
		c0.6-1,1.3-1.9,2-2.7c0.4-0.4,0.8-0.9,1.3-1.5s1-1.3,1.7-2.1c0.6-0.8,1.2-1.5,1.7-2.1c0.5-0.6,0.9-1.1,1.2-1.5
		c0.4-0.4,0.7-0.8,1.1-1.2s0.6-0.8,0.9-1.2c0.3-0.4,0.6-0.8,1-1.3c0.4-0.5,0.8-1,1.2-1.7c0.2-0.2,0.5-0.6,1-1.2
		c0.2-0.3,0.4-0.5,0.6-0.7c0.2-0.2,0.3-0.4,0.4-0.6c0.4-0.6,0.8-1.2,1.3-1.9c0.5-0.7,1-1.5,1.6-2.5C57.5,4.8,58,4,58.5,3.3
		c0.4-0.7,0.8-1.3,1.1-1.7c0.1-0.2,0.4-0.3,0.7-0.3c0.3,0,0.7,0.1,1.2,0.3c0.5,0.2,1,0.5,1.5,0.8c0.5,0.3,0.9,0.6,1.2,1
		S64.8,3.9,64.7,4.2z"/>
	<path class="st0" d="M122.6,27c0,0.4-0.1,0.8-0.3,1.2c-0.2,0.4-0.4,0.8-0.7,1.1c-0.3,0.4-0.6,0.7-0.9,1c-0.3,0.3-0.7,0.6-1,0.8
		c-0.8,0.5-1.9,1-3.4,1.4c-1.4,0.4-3.2,0.6-5.4,0.6c-1.7,0-3.4-0.2-5.2-0.7c-1.7-0.4-3.4-1.2-5-2.2c0.5,0.8,0.8,1.5,1,2.3
		c0.1,0.7,0.2,1.6,0.2,2.6c0,1.8-0.4,3.7-1.3,5.7c-0.9,2-2,3.9-3.4,5.6c-1.4,1.7-2.9,3.2-4.4,4.3c-0.9,0.7-1.8,1.2-2.9,1.7
		c-1,0.5-2.1,0.9-3.3,1.2c-1.1,0.3-2.3,0.5-3.6,0.7c-1.2,0.1-2.5,0.2-3.7,0.2c-0.9,0-1.7-0.3-2.6-0.8c-0.8-0.6-1.6-1.2-2.2-2.1
		c-0.7-0.8-1.2-1.7-1.6-2.6c-0.4-0.9-0.6-1.8-0.6-2.5c0-1.8,0.2-3.6,0.7-5.2c0.5-1.7,1.1-3.3,2-4.9c0.8-1.6,1.8-3.1,2.8-4.6
		c1.1-1.5,2.2-3,3.4-4.5c0.7-0.8,1.4-1.6,2.3-2.4s1.8-1.5,2.7-2.1c0.9-0.6,1.9-1.1,2.9-1.5c1-0.4,1.9-0.6,2.8-0.6
		c0.7,0,1.3,0.1,1.9,0.3s1,0.5,1.5,0.9c0.5,0.4,0.9,0.8,1.4,1.4c0.5,0.6,1,1.2,1.7,1.9c0.2,0.2,0.8,0.5,1.7,0.9
		c0.9,0.4,2,0.8,3.2,1.1c1.2,0.4,2.6,0.7,3.9,1c1.4,0.3,2.6,0.4,3.7,0.4s2.2,0,3.1-0.1s1.9-0.2,2.7-0.4c0.9-0.2,1.8-0.4,2.6-0.7
		c0.9-0.3,1.8-0.7,2.8-1.1C122.5,26.5,122.6,26.8,122.6,27z M97.4,35.1c0-0.6,0-1.3-0.1-2.1c-0.1-0.8-0.3-1.5-0.6-2.3
		C96.4,30,96,29.4,95.6,29c-0.5-0.4-1-0.6-1.7-0.5c-1-0.4-1.9-0.8-2.6-1.3c-0.7-0.4-1.2-0.7-1.5-0.7c-0.3,0-0.6,0.1-0.9,0.3
		c-0.3,0.2-0.6,0.4-1,0.7c-0.3,0.3-0.7,0.6-1,1c-0.3,0.4-0.7,0.8-1,1.2c-0.7,0.9-1.3,1.7-1.9,2.4c-0.6,0.7-1.1,1.4-1.6,2.1
		c-0.5,0.7-1,1.4-1.5,2.2c-0.5,0.8-0.9,1.6-1.4,2.6c-0.2,0.4-0.4,0.9-0.5,1.4c-0.2,0.6-0.3,1.1-0.4,1.7c-0.1,0.6-0.2,1.2-0.3,1.8
		c-0.1,0.6-0.1,1.1-0.1,1.6c0,0.3,0.1,0.6,0.3,1.1s0.5,0.8,0.8,1.2s0.7,0.7,1.1,1c0.4,0.3,0.8,0.4,1.2,0.4c1.1,0,2.1-0.1,2.9-0.2
		c0.8-0.1,1.6-0.3,2.2-0.5c0.7-0.3,1.4-0.6,2.1-1.1c0.7-0.4,1.5-1,2.4-1.8c0.4-0.3,0.9-0.7,1.3-1.2c0.4-0.4,0.9-0.9,1.3-1.4
		c0.4-0.5,0.8-1,1.2-1.5c0.4-0.5,0.7-1,1.1-1.6c0.2-0.3,0.4-0.8,0.6-1.2c0.2-0.5,0.3-1,0.4-1.5c0.1-0.5,0.2-0.9,0.2-1.3
		C97.4,35.6,97.4,35.3,97.4,35.1z"/>
	<path class="st0" d="M163.8,28.6c0,0.3-0.1,0.6-0.2,0.8s-0.3,0.5-0.5,0.7c-0.2,0.2-0.5,0.5-0.7,0.7c-0.3,0.2-0.5,0.4-0.8,0.7
		c-0.7,0.6-1.5,1.2-2.4,1.7c-0.9,0.5-1.8,1-2.8,1.4c-1,0.4-2,0.7-2.9,0.9c-1,0.2-1.9,0.3-2.7,0.3c-0.6,0-1.2-0.1-1.9-0.2
		c-0.7-0.1-1.4-0.3-2.2-0.5s-1.4-0.4-2.1-0.7c-0.7-0.3-1.3-0.5-1.8-0.8c-0.1,0.1-0.2,0.5-0.5,1c-0.3,0.6-0.6,1.3-1,2.1
		c-0.4,0.9-0.8,1.8-1.3,2.9c-0.5,1.1-1,2.3-1.5,3.5c-1.1,2.4-2.2,4.7-3.2,6.7c-1,2-1.9,3.8-2.7,5.4c-0.4,0.8-0.8,1.4-1.2,1.9
		c-0.4,0.5-0.7,0.9-1.1,1.2c-0.3,0.3-0.6,0.5-0.9,0.6c-0.3,0.1-0.5,0.2-0.7,0.2c-0.5,0-1-0.1-1.4-0.4c-0.4-0.3-0.9-0.8-1.4-1.4
		c0-0.3,0.1-0.5,0.1-0.7c0-0.2,0-0.4,0-0.6c0-1-0.3-2.4-0.9-4.3c-0.6-1.9-1.6-4.1-2.8-6.8c-0.6-1.3-1.2-2.7-1.8-4.1
		c-0.6-1.4-1.1-2.8-1.6-4.1c-0.5-1.3-0.8-2.6-1.1-3.8c-0.3-1.2-0.4-2.2-0.4-3c0-0.6,0.1-1.2,0.2-1.9c0.1-0.7,0.4-1.3,0.7-1.8
		c0.3-0.5,0.7-1,1.1-1.4c0.5-0.4,1-0.5,1.6-0.5c0.9,0,1.7,0.3,2.3,0.9c0.6,0.6,0.9,1.3,0.9,2.3c0,0.3,0,0.7-0.1,1
		c-0.1,0.4-0.2,0.7-0.2,1.1c-0.1,0.4-0.2,0.7-0.2,1.1c-0.1,0.4-0.1,0.7-0.1,1s0,0.8,0.1,1.5c0.1,0.7,0.2,1.5,0.4,2.3
		c0.2,0.9,0.4,1.8,0.7,2.7c0.3,1,0.6,1.9,1,2.8c0.4,0.8,0.8,1.8,1.2,2.9c0.4,1.1,0.9,2.1,1.3,3.1c0.4,1,0.8,1.8,1.1,2.5s0.6,1,0.7,1
		c0.1,0,0.3-0.2,0.6-0.7c0.3-0.4,0.6-1,1-1.8s0.8-1.6,1.2-2.5c0.4-1,0.9-1.9,1.3-3c0.4-1,0.8-2,1.2-3s0.8-1.9,1.1-2.8
		c0.3-0.7,0.5-1.4,0.8-2.1c0.3-0.7,0.5-1.4,0.8-2c0.3-0.6,0.5-1.2,0.8-1.8c0.2-0.6,0.5-1.1,0.7-1.5c0.3-0.6,0.7-1.1,1.2-1.4
		c0.5-0.3,1-0.5,1.7-0.5c0.3,0,0.6,0.1,0.9,0.2s0.6,0.3,0.8,0.5c0.3,0.2,0.5,0.4,0.8,0.6c0.2,0.2,0.5,0.4,0.7,0.5
		c0.2,0.1,0.5,0.3,0.9,0.5c0.4,0.2,0.9,0.4,1.4,0.6c0.5,0.2,1,0.4,1.6,0.6c0.6,0.2,1.1,0.2,1.6,0.2c1,0,1.8-0.1,2.6-0.2
		c0.8-0.1,1.5-0.3,2.2-0.5c0.7-0.2,1.3-0.5,1.9-0.7c0.6-0.3,1.2-0.5,1.8-0.8c0.9-0.4,1.6-0.6,2.1-0.8s1-0.3,1.4-0.3
		C163.5,28,163.8,28.2,163.8,28.6z"/>
	<path class="st0" d="M197,32c0,0.3-0.2,0.9-0.7,1.8c-1.2,1.7-2.5,3.4-3.9,5.1c-1.4,1.7-3,3.3-4.6,4.8c-1.6,1.5-3.3,2.9-5.1,4.2
		c-1.8,1.3-3.5,2.4-5.3,3.4c-1.8,1-3.6,1.7-5.4,2.2c-1.8,0.5-3.5,0.8-5.2,0.7c-3.6,0-6.4-1-8.4-3.1c-2-2.1-3-5.2-3-9.5
		c0-3.5,0.5-7,1.6-10.3c1.1-3.3,2.9-6.5,5.6-9.6c0.5-0.5,1-1.1,1.7-1.5c0.6-0.5,1.3-0.9,2-1.3c0.7-0.4,1.4-0.7,2.1-0.9
		c0.7-0.2,1.5-0.4,2.2-0.4c0.2,0,0.4,0,0.7,0.1c0.3,0,0.7,0.1,1,0.2c0.4,0.1,0.7,0.3,1,0.4c0.3,0.2,0.6,0.4,0.8,0.6
		c0.6,0.7,1.1,1.5,1.5,2.2c0.4,0.8,0.6,1.6,0.6,2.5c0,1-0.1,2-0.4,3c-0.3,1-0.8,2-1.4,3.1c-0.7,1-1.5,2.1-2.6,3.2
		c-1.1,1.1-2.4,2.3-3.9,3.6c-1,0.8-2,1.7-3.2,2.7c-1.2,1-2.6,2-4.3,3.1c0,2.2,0.7,3.8,2,5c1.3,1.1,3.1,1.7,5.4,1.7
		c1.3,0,2.6-0.2,3.9-0.5c1.3-0.3,2.6-0.8,3.8-1.3s2.5-1.2,3.7-1.9c1.2-0.7,2.3-1.4,3.3-2.2c1.9-1.4,3.6-2.8,5.2-4.2
		c1.6-1.4,3.1-2.8,4.6-4.4l1.8-1.8c1.1-1,1.9-1.4,2.4-1.4C196.8,31.4,197,31.6,197,32z M171.2,25.3c0-0.3-0.1-0.7-0.2-1
		s-0.2-0.6-0.4-0.9c-0.2-0.2-0.3-0.4-0.5-0.6c-0.2-0.1-0.4-0.2-0.7-0.2c-1.2,0.1-2.4,0.8-3.6,2.2c-1.2,1.4-2.3,3.2-3.4,5.5
		c-0.2,0.5-0.5,1.1-0.7,1.7c-0.2,0.6-0.4,1.2-0.5,1.9c-0.2,0.6-0.3,1.3-0.4,1.9c-0.1,0.6-0.2,1.2-0.3,1.7c1.2-0.9,2.2-1.7,3.2-2.4
		c1-0.7,1.9-1.5,2.8-2.3c0.5-0.5,1.1-1,1.7-1.6c0.6-0.6,1.1-1.2,1.5-1.8c0.5-0.6,0.8-1.3,1.1-2S171.2,26,171.2,25.3z"/>
	<path class="st0" d="M224.6,19.2c0,4.2-0.1,7.8-0.4,10.9c-0.2,3.1-0.6,5.6-1.1,7.6c-0.1,0.5-0.3,1.2-0.6,1.9
		c-0.3,0.8-0.7,1.6-1.2,2.7c-0.5,1-0.9,2-1.3,2.8c-0.4,0.8-0.8,1.5-1.2,2.1c-0.2,0.2-0.4,0.6-0.7,1s-0.7,0.9-1.2,1.4
		c-1.7,2-3.6,3.5-5.5,4.4c-2,0.9-4.2,1.4-6.8,1.4c-1.9,0-3.8-0.1-5.9-0.4c-2-0.3-3.9-0.8-5.8-1.5c-1.9-0.7-3.3-1.7-4.4-2.8
		c-0.4-0.4-0.6-0.8-0.6-1.4c0-0.5,0.1-0.9,0.3-1.4s0.5-0.8,0.8-1.1c0.3-0.3,0.7-0.5,1.2-0.7c0.4-0.2,0.9-0.2,1.4-0.2
		c0.5,0,2,0.5,4.2,1.4c1.2,0.5,2.2,0.9,3,1.2c0.8,0.3,1.4,0.6,1.9,0.8c0.9,0.3,1.9,0.5,2.8,0.5c3,0,5.5-0.7,7.3-2
		c1.9-1.3,3.4-3.4,4.5-6.3c1.7-4,2.5-9.4,2.5-16.1c0-0.9,0-2.5-0.1-4.5s-0.2-4.8-0.4-8.1c0-1.2-0.1-2.2-0.1-3.1
		c0-0.9-0.1-1.6-0.1-2.2c0-0.1,0-0.3,0.2-0.5s0.3-0.4,0.6-0.6s0.4-0.4,0.7-0.6c0.2-0.2,0.4-0.3,0.5-0.4c0.3-0.3,0.7-0.4,1.3-0.4
		c0.7,0,1.2,0.2,1.7,0.5c0.5,0.3,0.8,0.8,1,1.3c0,0,0.1,0.4,0.1,1s0.2,1.5,0.3,2.7c0.3,2.3,0.6,4.2,0.7,5.8
		C224.6,17.8,224.6,18.8,224.6,19.2z"/>
	<path class="st0" d="M268.6,12.5c0,0.3,0,0.7-0.1,1.1c-0.1,0.4-0.2,0.9-0.3,1.3c-0.1,0.4-0.3,0.9-0.4,1.2c-0.2,0.4-0.4,0.7-0.6,0.9
		c-0.5,0.7-1.5,1-2.9,1c0-1.5-0.2-2.8-0.6-3.8c-0.2-0.5-0.6-0.9-1.1-1.2c-0.5-0.3-1.1-0.6-1.8-0.8c-0.7-0.2-1.3-0.4-2-0.5
		c-0.7-0.1-1.2-0.2-1.7-0.2c-1.1,0-2.1,0-3.1,0.1c-1,0-2,0.1-2.9,0.3c-1,0.1-1.9,0.3-2.9,0.6c-1,0.3-2,0.6-3,1
		c-0.8,0.3-1.7,0.7-2.5,1.2c-0.9,0.5-1.7,1-2.4,1.6c-0.7,0.6-1.4,1.2-1.9,1.9c-0.5,0.7-0.9,1.5-1,2.3c0,0.6,0.1,1.3,0.6,2.2
		s1,1.6,1.7,2.4c0.7,0.8,1.6,1.5,2.5,2.1c1,0.6,1.9,1.1,3,1.4c0.2,0.1,0.6,0.2,1.2,0.4c0.7,0.2,1.4,0.5,2.1,0.7
		c0.8,0.2,1.4,0.5,2.1,0.7c0.6,0.2,1,0.3,1.2,0.4c5.1,1.3,8.8,2.8,11.3,4.6c2.5,1.8,3.7,4,3.7,6.6c0,0.8-0.2,1.7-0.6,2.5
		c-0.4,0.8-0.8,1.6-1.4,2.4c-0.6,0.8-1.2,1.4-1.8,2.1c-0.7,0.6-1.3,1.2-1.8,1.6c-0.7,0.5-1.4,1-2.2,1.6c-0.8,0.6-1.7,1.1-2.7,1.6
		s-1.9,1-2.9,1.4c-1,0.4-2,0.8-3.1,1.2c-1,0.3-2.1,0.6-3.2,0.9c-1.1,0.3-2.2,0.5-3.3,0.7c-1.1,0.2-2.1,0.4-3.1,0.5
		c-1,0.1-1.9,0.2-2.7,0.2c-0.6,0-1.3-0.1-2.3-0.3c-0.9-0.2-1.8-0.4-2.7-0.7c-0.9-0.3-1.7-0.7-2.3-1.1c-0.6-0.4-1-0.9-1-1.3
		c0-0.3,0-0.7,0.1-1.1c0.1-0.4,0.2-0.8,0.3-1.2s0.3-0.7,0.5-1c0.2-0.3,0.4-0.4,0.7-0.4c0.4,0,0.9,0.1,1.4,0.2s1.1,0.3,1.7,0.5
		c0.7,0.2,1.4,0.3,2.4,0.5c0.9,0.1,2,0.2,3.3,0.2c1.3,0,2.7-0.1,4.2-0.4c1.4-0.3,2.9-0.7,4.3-1.1c1.4-0.5,2.7-1,4-1.6
		c1.3-0.6,2.4-1.2,3.4-1.9c0.5-0.3,1-0.7,1.6-1.1c0.6-0.4,1.1-0.9,1.6-1.4s0.9-1,1.2-1.6c0.3-0.6,0.5-1.1,0.5-1.8
		c0-0.9-0.6-1.7-1.9-2.5c-1.2-0.8-2.5-1.4-3.8-1.8c-1.3-0.4-2.4-0.8-3.5-1c-1.2-0.3-2.6-0.7-4.2-1.2c-1.5-0.5-3.2-1.1-5.1-1.9
		c-3.1-1.2-5.6-2.9-7.7-5.1c-2.1-2.2-3.2-5-3.2-8.1c0-1.5,0.4-2.9,1.4-4.3c1-1.4,2.2-2.6,3.9-3.8c1.6-1.2,3.5-2.2,5.5-3.1
		c2.1-0.9,4.2-1.6,6.4-2.1c0.4-0.1,1-0.2,1.6-0.3c0.6-0.1,1.3-0.2,2-0.3c0.7-0.1,1.3-0.1,2-0.2c0.6-0.1,1.2-0.1,1.6-0.1
		c0.5,0,1.2,0,2,0.1c0.8,0.1,1.7,0.2,2.5,0.3s1.7,0.3,2.5,0.5c0.8,0.2,1.4,0.4,1.9,0.7c1.1,0.6,2,1.3,2.7,2.2
		C268.3,10.8,268.6,11.7,268.6,12.5z"/>
</g>
</svg>
