<?xml version="1.0" encoding="utf-8"?>
<!-- Generator: Adobe Illustrator 21.0.0, SVG Export Plug-In . SVG Version: 6.00 Build 0)  -->
<svg version="1.1" id="Слой_1" xmlns="http://www.w3.org/2000/svg" xmlns:xlink="http://www.w3.org/1999/xlink" x="0px" y="0px"
	 viewBox="0 0 283 81" style="enable-background:new 0 0 283 81;" xml:space="preserve">
<style type="text/css">
	.st0{fill:#FF0066;}
</style>
<g>
	<path class="st0" d="M19.6,13.5l-0.3,5.2c1.6-2.1,3.3-3.6,5.2-4.7c1.9-1,4-1.5,6.2-1.5c2.8,0,5.1,0.7,7.1,2.2
		c2,1.5,3.3,3.2,3.8,5.1c0.5,1.9,0.7,5.2,0.7,9.8v24.6c0,5.3-0.3,9.1-0.9,11.3c-0.6,2.2-1.9,4-3.9,5.4c-1.9,1.3-4.3,2-7.1,2
		c-2.2,0-4.2-0.5-6.1-1.5c-1.9-1-3.6-2.6-5.1-4.6v13.4H1.5V13.5H19.6z M24.6,30.5c0-3.6-0.1-5.8-0.4-6.5c-0.3-0.8-1-1.1-2.2-1.1
		c-1.2,0-1.9,0.4-2.3,1.3c-0.3,0.9-0.5,3-0.5,6.4v24.2c0,3.5,0.2,5.7,0.5,6.6s1.1,1.3,2.3,1.3c1.1,0,1.9-0.4,2.1-1.2
		c0.3-0.8,0.4-2.8,0.4-5.9V30.5z"/>
	<path class="st0" d="M64.1,36.1H47.4v-3.9c0-4.5,0.5-8,1.6-10.4c1-2.4,3.1-4.6,6.3-6.5c3.1-1.9,7.2-2.8,12.2-2.8
		c6,0,10.5,1.1,13.6,3.2c3,2.1,4.9,4.7,5.5,7.8c0.6,3.1,0.9,9.5,0.9,19.1v29.3H70.2v-5.2c-1.1,2.1-2.5,3.6-4.2,4.7
		c-1.7,1-3.8,1.6-6.1,1.6c-3.1,0-6-0.9-8.5-2.6c-2.6-1.7-3.9-5.6-3.9-11.4V54c0-4.4,0.7-7.3,2.1-8.9c1.4-1.6,4.8-3.4,10.2-5.5
		c5.8-2.3,8.9-3.8,9.4-4.6c0.4-0.8,0.6-2.4,0.6-4.8c0-3-0.2-5-0.7-6c-0.5-0.9-1.2-1.4-2.3-1.4c-1.2,0-1.9,0.4-2.2,1.2
		c-0.3,0.8-0.4,2.8-0.4,6V36.1z M69.7,44.1c-2.8,2.1-4.5,3.8-4.9,5.2c-0.5,1.4-0.7,3.4-0.7,6.1c0,3,0.2,5,0.6,5.8s1.2,1.3,2.4,1.3
		c1.1,0,1.8-0.3,2.2-1c0.3-0.7,0.5-2.5,0.5-5.4V44.1z"/>
	<path class="st0" d="M111.6,13.5l-0.3,5.2c1.6-2.1,3.3-3.6,5.2-4.7c1.9-1,4-1.5,6.2-1.5c2.8,0,5.1,0.7,7.1,2.2
		c2,1.5,3.3,3.2,3.8,5.1s0.7,5.2,0.7,9.8v24.6c0,5.3-0.3,9.1-0.9,11.3s-1.9,4-3.9,5.4s-4.3,2-7.1,2c-2.2,0-4.2-0.5-6.1-1.5
		s-3.6-2.6-5.1-4.6v13.4H93.6V13.5H111.6z M116.7,30.5c0-3.6-0.1-5.8-0.4-6.5c-0.3-0.8-1-1.1-2.2-1.1c-1.2,0-1.9,0.4-2.3,1.3
		c-0.3,0.9-0.5,3-0.5,6.4v24.2c0,3.5,0.2,5.7,0.5,6.6s1.1,1.3,2.3,1.3c1.1,0,1.9-0.4,2.1-1.2c0.3-0.8,0.4-2.8,0.4-5.9V30.5z"/>
	<path class="st0" d="M180.5,43.7h-23v12.6c0,2.6,0.2,4.3,0.6,5.1c0.4,0.8,1.1,1.1,2.2,1.1c1.3,0,2.2-0.5,2.7-1.5s0.7-3,0.7-5.9
		v-7.7h16.8v4.3c0,3.6-0.2,6.4-0.7,8.3c-0.5,1.9-1.5,4-3.2,6.2s-3.8,3.8-6.4,4.9s-5.8,1.6-9.6,1.6c-3.8,0-7.1-0.5-9.9-1.6
		c-2.9-1.1-5.1-2.6-6.7-4.5s-2.7-4-3.3-6.2c-0.6-2.3-0.9-5.6-0.9-9.9v-17c0-5.1,0.7-9.1,2.1-12.1s3.6-5.2,6.8-6.8
		c3.1-1.6,6.7-2.4,10.8-2.4c5,0,9.1,0.9,12.3,2.8c3.2,1.9,5.5,4.4,6.8,7.5s2,7.5,2,13.2V43.7z M162.7,34.2V30c0-3-0.2-5-0.5-5.8
		s-1-1.3-2-1.3c-1.2,0-2,0.4-2.3,1.1s-0.4,2.8-0.4,6v4.3H162.7z"/>
	<path class="st0" d="M204,13.5l-0.7,7.7c2.6-5.5,6.3-8.4,11.2-8.7V33c-3.3,0-5.6,0.4-7.2,1.3s-2.5,2.1-2.8,3.7
		c-0.4,1.6-0.5,5.2-0.5,10.8v23h-17.8V13.5H204z"/>
	<path class="st0" d="M237.3,13.5v46.1c0,5.4-0.1,9.1-0.3,11c-0.2,1.9-0.9,3.6-2,5.1s-2.6,2.5-4.5,3.2c-1.9,0.7-4.7,1.1-8.5,1.1
		h-6.9v-9.3c2.1,0,3.3-0.2,3.6-0.7c0.3-0.5,0.4-3.4,0.4-8.8V13.5H237.3z M237.3,0.7V10H219V0.7H237.3z"/>
	<path class="st0" d="M279.9,32.2h-15.7V29c0-2.7-0.2-4.4-0.5-5.1c-0.3-0.7-1.1-1.1-2.3-1.1c-1,0-1.7,0.3-2.2,1s-0.7,1.6-0.7,3
		c0,1.8,0.1,3.1,0.4,3.9s1,1.8,2.2,2.7c1.2,1,3.8,2.4,7.7,4.4c5.2,2.5,8.5,4.9,10.2,7.1c1.6,2.2,2.4,5.5,2.4,9.7
		c0,4.7-0.6,8.3-1.8,10.7s-3.3,4.3-6.2,5.6c-2.9,1.3-6.4,2-10.4,2c-4.5,0-8.4-0.7-11.6-2.1c-3.2-1.4-5.4-3.3-6.6-5.7
		c-1.2-2.4-1.8-6-1.8-10.9v-2.8h15.7V55c0,3.1,0.2,5.2,0.6,6.1c0.4,0.9,1.2,1.4,2.4,1.4c1.3,0,2.1-0.3,2.6-0.9c0.5-0.6,0.7-2,0.7-4
		c0-2.8-0.3-4.5-1-5.2c-0.7-0.7-4.1-2.8-10.3-6.2c-5.2-2.9-8.4-5.6-9.5-8c-1.1-2.4-1.7-5.2-1.7-8.5c0-4.7,0.6-8.1,1.8-10.3
		c1.2-2.2,3.3-3.9,6.3-5.1c2.9-1.2,6.4-1.8,10.3-1.8c3.9,0,7.2,0.5,9.9,1.5c2.7,1,4.8,2.3,6.2,3.9c1.5,1.6,2.3,3.1,2.6,4.5
		c0.3,1.4,0.5,3.5,0.5,6.5V32.2z"/>
</g>
</svg>
