<svg id="Слой_1" xmlns="http://www.w3.org/2000/svg" viewBox="0 0 294 60"><style>.st0{enable-background:new ;} .st1{fill:#00C4D4;} .st2{fill:none;stroke:#000000;stroke-miterlimit:10;}</style><g class="st0"><path class="st1" d="M8.8 40.2h-.1v16.9H4.2V16.3h4.5v4.9h.1c2.2-3.7 5.4-5.6 9.7-5.6 3.6 0 6.4 1.3 8.4 3.8s3 5.9 3 10.1c0 4.7-1.1 8.4-3.4 11.3-2.3 2.8-5.4 4.2-9.4 4.2-3.5-.1-6.3-1.7-8.3-4.8zm-.1-11.3v3.9c0 2.3.8 4.3 2.3 5.9s3.4 2.4 5.7 2.4c2.7 0 4.8-1 6.4-3.1 1.5-2.1 2.3-5 2.3-8.7 0-3.1-.7-5.6-2.2-7.3-1.4-1.8-3.4-2.7-5.9-2.7-2.6 0-4.7.9-6.3 2.7-1.5 1.9-2.3 4.2-2.3 6.9zM51.7 20.8c-.8-.6-1.9-.9-3.4-.9-1.9 0-3.5.9-4.8 2.7s-1.9 4.3-1.9 7.4v14.3h-4.5v-28h4.5V22h.1c.6-2 1.6-3.5 2.9-4.6 1.3-1.1 2.8-1.7 4.4-1.7 1.2 0 2.1.1 2.7.4v4.7zM67.6 44.9c-4.1 0-7.4-1.3-9.9-3.9-2.5-2.6-3.7-6.1-3.7-10.4 0-4.7 1.3-8.4 3.9-11 2.6-2.6 6-4 10.4-4 4.2 0 7.4 1.3 9.8 3.9 2.3 2.6 3.5 6.1 3.5 10.7 0 4.5-1.3 8-3.8 10.7-2.6 2.7-6 4-10.2 4zm.3-25.5c-2.9 0-5.2 1-6.8 2.9-1.7 2-2.5 4.7-2.5 8.1 0 3.3.8 5.9 2.5 7.8s4 2.9 6.8 2.9c2.9 0 5.1-.9 6.7-2.8 1.6-1.9 2.3-4.5 2.3-8s-.8-6.2-2.3-8.1c-1.6-1.9-3.8-2.8-6.7-2.8zM112.6 42c0 10.3-4.9 15.4-14.8 15.4-3.5 0-6.5-.7-9.1-2V51c3.2 1.8 6.2 2.6 9 2.6 6.9 0 10.3-3.7 10.3-11v-3.1c-2.1 3.6-5.3 5.4-9.6 5.4-3.5 0-6.3-1.2-8.4-3.7-2.1-2.5-3.2-5.8-3.2-10 0-4.8 1.1-8.5 3.4-11.3 2.3-2.8 5.4-4.2 9.4-4.2 3.8 0 6.6 1.5 8.4 4.5h.1v-3.9h4.5V42zm-4.5-10.4v-4.1c0-2.2-.8-4.1-2.3-5.7s-3.4-2.4-5.6-2.4c-2.8 0-4.9 1-6.5 3-1.6 2-2.4 4.8-2.4 8.5 0 3.1.8 5.6 2.3 7.5 1.5 1.9 3.5 2.8 6 2.8s4.6-.9 6.1-2.7c1.6-1.8 2.4-4.1 2.4-6.9zM136.2 20.8c-.8-.6-1.9-.9-3.4-.9-1.9 0-3.5.9-4.8 2.7s-1.9 4.3-1.9 7.4v14.3h-4.5v-28h4.5V22h.1c.6-2 1.6-3.5 2.9-4.6 1.3-1.1 2.8-1.7 4.4-1.7 1.2 0 2.1.1 2.7.4v4.7zM162.9 31.4h-19.8c.1 3.1.9 5.5 2.5 7.2 1.6 1.7 3.8 2.5 6.6 2.5 3.2 0 6.1-1 8.7-3.1v4.2c-2.5 1.8-5.7 2.7-9.8 2.7-4 0-7.1-1.3-9.3-3.8-2.3-2.5-3.4-6.1-3.4-10.7 0-4.4 1.2-7.9 3.7-10.7 2.5-2.7 5.5-4.1 9.2-4.1s6.5 1.2 8.5 3.6c2 2.4 3 5.7 3 9.9v2.3zm-4.6-3.8c0-2.6-.6-4.6-1.9-6-1.2-1.4-2.9-2.2-5.1-2.2-2.1 0-3.9.8-5.4 2.3-1.5 1.5-2.4 3.5-2.7 5.9h15.1zM168 43.2v-4.8c2.4 1.8 5.1 2.7 8.1 2.7 3.9 0 5.9-1.3 5.9-3.9 0-.7-.2-1.4-.5-1.9s-.8-1-1.4-1.4c-.6-.4-1.2-.8-2-1.1-.8-.3-1.6-.7-2.5-1-1.2-.5-2.3-1-3.3-1.5-.9-.5-1.7-1.1-2.4-1.7s-1.1-1.3-1.4-2.1c-.3-.8-.5-1.7-.5-2.8 0-1.3.3-2.5.9-3.5s1.4-1.9 2.4-2.5 2.1-1.2 3.4-1.5c1.3-.3 2.6-.5 4-.5 2.4 0 4.6.4 6.5 1.3v4.5c-2.1-1.3-4.4-2-7.1-2-.8 0-1.6.1-2.3.3s-1.3.5-1.7.8c-.5.3-.9.8-1.1 1.2-.3.5-.4 1-.4 1.6 0 .7.1 1.3.4 1.8s.7.9 1.2 1.3 1.1.7 1.9 1c.7.3 1.6.6 2.5 1 1.2.5 2.4 1 3.3 1.5 1 .5 1.8 1.1 2.5 1.7s1.2 1.4 1.6 2.2.6 1.8.6 2.9c0 1.4-.3 2.6-.9 3.6-.6 1-1.4 1.9-2.4 2.5-1 .7-2.2 1.2-3.5 1.5s-2.7.5-4.2.5c-3 0-5.5-.6-7.6-1.7zM191.7 43.2v-4.8c2.4 1.8 5.1 2.7 8.1 2.7 3.9 0 5.9-1.3 5.9-3.9 0-.7-.2-1.4-.5-1.9s-.8-1-1.4-1.4c-.6-.4-1.2-.8-2-1.1-.8-.3-1.6-.7-2.5-1-1.2-.5-2.3-1-3.3-1.5-.9-.5-1.7-1.1-2.4-1.7s-1.1-1.3-1.4-2.1c-.3-.8-.5-1.7-.5-2.8 0-1.3.3-2.5.9-3.5s1.4-1.9 2.4-2.5 2.1-1.2 3.4-1.5c1.3-.3 2.6-.5 4-.5 2.4 0 4.6.4 6.5 1.3v4.5c-2.1-1.3-4.4-2-7.1-2-.8 0-1.6.1-2.3.3s-1.3.5-1.7.8c-.5.3-.9.8-1.1 1.2-.3.5-.4 1-.4 1.6 0 .7.1 1.3.4 1.8s.7.9 1.2 1.3 1.1.7 1.9 1c.7.3 1.6.6 2.5 1 1.2.5 2.4 1 3.3 1.5 1 .5 1.8 1.1 2.5 1.7s1.2 1.4 1.6 2.2.6 1.8.6 2.9c0 1.4-.3 2.6-.9 3.6-.6 1-1.4 1.9-2.4 2.5-1 .7-2.2 1.2-3.5 1.5s-2.7.5-4.2.5c-3 0-5.5-.6-7.6-1.7zM221.8 40.2h-.1v4h-4.5V2.8h4.5v18.4h.1c2.2-3.7 5.4-5.6 9.7-5.6 3.6 0 6.4 1.3 8.4 3.8s3 5.9 3 10.1c0 4.7-1.1 8.4-3.4 11.3s-5.4 4.2-9.4 4.2c-3.6-.1-6.4-1.7-8.3-4.8zm-.1-11.3v3.9c0 2.3.8 4.3 2.3 5.9s3.4 2.4 5.7 2.4c2.7 0 4.8-1 6.4-3.1s2.3-5 2.3-8.7c0-3.1-.7-5.6-2.2-7.3-1.4-1.8-3.4-2.7-5.9-2.7-2.6 0-4.7.9-6.3 2.7-1.5 1.9-2.3 4.2-2.3 6.9zM269.4 44.3h-4.5v-4.4h-.1c-2 3.4-4.8 5-8.6 5-2.8 0-5-.7-6.5-2.2s-2.4-3.4-2.4-5.9c0-5.2 3.1-8.3 9.2-9.1l8.4-1.2c0-4.8-1.9-7.1-5.8-7.1-3.4 0-6.4 1.1-9.1 3.4v-4.6c2.8-1.8 5.9-2.6 9.5-2.6 6.6 0 9.9 3.5 9.9 10.4v18.3zm-4.5-14.2l-6.8.9c-2.1.3-3.6.8-4.7 1.5s-1.6 2-1.6 3.9c0 1.4.5 2.5 1.5 3.3 1 .9 2.3 1.3 3.9 1.3 2.2 0 4.1-.8 5.5-2.3s2.2-3.5 2.2-5.9v-2.7zM292.5 20.8c-.8-.6-1.9-.9-3.4-.9-1.9 0-3.5.9-4.8 2.7s-1.9 4.3-1.9 7.4v14.3h-4.5v-28h4.5V22h.1c.6-2 1.6-3.5 2.9-4.6 1.3-1.1 2.8-1.7 4.4-1.7 1.2 0 2.1.1 2.7.4v4.7z"/></g><g class="st0"><path class="st2" d="M8.8 40.2h-.1v16.9H4.2V16.3h4.5v4.9h.1c2.2-3.7 5.4-5.6 9.7-5.6 3.6 0 6.4 1.3 8.4 3.8s3 5.9 3 10.1c0 4.7-1.1 8.4-3.4 11.3-2.3 2.8-5.4 4.2-9.4 4.2-3.5-.1-6.3-1.7-8.3-4.8zm-.1-11.3v3.9c0 2.3.8 4.3 2.3 5.9s3.4 2.4 5.7 2.4c2.7 0 4.8-1 6.4-3.1 1.5-2.1 2.3-5 2.3-8.7 0-3.1-.7-5.6-2.2-7.3-1.4-1.8-3.4-2.7-5.9-2.7-2.6 0-4.7.9-6.3 2.7-1.5 1.9-2.3 4.2-2.3 6.9zM51.7 20.8c-.8-.6-1.9-.9-3.4-.9-1.9 0-3.5.9-4.8 2.7s-1.9 4.3-1.9 7.4v14.3h-4.5v-28h4.5V22h.1c.6-2 1.6-3.5 2.9-4.6 1.3-1.1 2.8-1.7 4.4-1.7 1.2 0 2.1.1 2.7.4v4.7zM67.6 44.9c-4.1 0-7.4-1.3-9.9-3.9-2.5-2.6-3.7-6.1-3.7-10.4 0-4.7 1.3-8.4 3.9-11 2.6-2.6 6-4 10.4-4 4.2 0 7.4 1.3 9.8 3.9 2.3 2.6 3.5 6.1 3.5 10.7 0 4.5-1.3 8-3.8 10.7-2.6 2.7-6 4-10.2 4zm.3-25.5c-2.9 0-5.2 1-6.8 2.9-1.7 2-2.5 4.7-2.5 8.1 0 3.3.8 5.9 2.5 7.8s4 2.9 6.8 2.9c2.9 0 5.1-.9 6.7-2.8 1.6-1.9 2.3-4.5 2.3-8s-.8-6.2-2.3-8.1c-1.6-1.9-3.8-2.8-6.7-2.8zM112.6 42c0 10.3-4.9 15.4-14.8 15.4-3.5 0-6.5-.7-9.1-2V51c3.2 1.8 6.2 2.6 9 2.6 6.9 0 10.3-3.7 10.3-11v-3.1c-2.1 3.6-5.3 5.4-9.6 5.4-3.5 0-6.3-1.2-8.4-3.7-2.1-2.5-3.2-5.8-3.2-10 0-4.8 1.1-8.5 3.4-11.3 2.3-2.8 5.4-4.2 9.4-4.2 3.8 0 6.6 1.5 8.4 4.5h.1v-3.9h4.5V42zm-4.5-10.4v-4.1c0-2.2-.8-4.1-2.3-5.7s-3.4-2.4-5.6-2.4c-2.8 0-4.9 1-6.5 3-1.6 2-2.4 4.8-2.4 8.5 0 3.1.8 5.6 2.3 7.5 1.5 1.9 3.5 2.8 6 2.8s4.6-.9 6.1-2.7c1.6-1.8 2.4-4.1 2.4-6.9zM136.2 20.8c-.8-.6-1.9-.9-3.4-.9-1.9 0-3.5.9-4.8 2.7s-1.9 4.3-1.9 7.4v14.3h-4.5v-28h4.5V22h.1c.6-2 1.6-3.5 2.9-4.6 1.3-1.1 2.8-1.7 4.4-1.7 1.2 0 2.1.1 2.7.4v4.7zM162.9 31.4h-19.8c.1 3.1.9 5.5 2.5 7.2 1.6 1.7 3.8 2.5 6.6 2.5 3.2 0 6.1-1 8.7-3.1v4.2c-2.5 1.8-5.7 2.7-9.8 2.7-4 0-7.1-1.3-9.3-3.8-2.3-2.5-3.4-6.1-3.4-10.7 0-4.4 1.2-7.9 3.7-10.7 2.5-2.7 5.5-4.1 9.2-4.1s6.5 1.2 8.5 3.6c2 2.4 3 5.7 3 9.9v2.3zm-4.6-3.8c0-2.6-.6-4.6-1.9-6-1.2-1.4-2.9-2.2-5.1-2.2-2.1 0-3.9.8-5.4 2.3-1.5 1.5-2.4 3.5-2.7 5.9h15.1zM168 43.2v-4.8c2.4 1.8 5.1 2.7 8.1 2.7 3.9 0 5.9-1.3 5.9-3.9 0-.7-.2-1.4-.5-1.9s-.8-1-1.4-1.4c-.6-.4-1.2-.8-2-1.1-.8-.3-1.6-.7-2.5-1-1.2-.5-2.3-1-3.3-1.5-.9-.5-1.7-1.1-2.4-1.7s-1.1-1.3-1.4-2.1c-.3-.8-.5-1.7-.5-2.8 0-1.3.3-2.5.9-3.5s1.4-1.9 2.4-2.5 2.1-1.2 3.4-1.5c1.3-.3 2.6-.5 4-.5 2.4 0 4.6.4 6.5 1.3v4.5c-2.1-1.3-4.4-2-7.1-2-.8 0-1.6.1-2.3.3s-1.3.5-1.7.8c-.5.3-.9.8-1.1 1.2-.3.5-.4 1-.4 1.6 0 .7.1 1.3.4 1.8s.7.9 1.2 1.3 1.1.7 1.9 1c.7.3 1.6.6 2.5 1 1.2.5 2.4 1 3.3 1.5 1 .5 1.8 1.1 2.5 1.7s1.2 1.4 1.6 2.2.6 1.8.6 2.9c0 1.4-.3 2.6-.9 3.6-.6 1-1.4 1.9-2.4 2.5-1 .7-2.2 1.2-3.5 1.5s-2.7.5-4.2.5c-3 0-5.5-.6-7.6-1.7zM191.7 43.2v-4.8c2.4 1.8 5.1 2.7 8.1 2.7 3.9 0 5.9-1.3 5.9-3.9 0-.7-.2-1.4-.5-1.9s-.8-1-1.4-1.4c-.6-.4-1.2-.8-2-1.1-.8-.3-1.6-.7-2.5-1-1.2-.5-2.3-1-3.3-1.5-.9-.5-1.7-1.1-2.4-1.7s-1.1-1.3-1.4-2.1c-.3-.8-.5-1.7-.5-2.8 0-1.3.3-2.5.9-3.5s1.4-1.9 2.4-2.5 2.1-1.2 3.4-1.5c1.3-.3 2.6-.5 4-.5 2.4 0 4.6.4 6.5 1.3v4.5c-2.1-1.3-4.4-2-7.1-2-.8 0-1.6.1-2.3.3s-1.3.5-1.7.8c-.5.3-.9.8-1.1 1.2-.3.5-.4 1-.4 1.6 0 .7.1 1.3.4 1.8s.7.9 1.2 1.3 1.1.7 1.9 1c.7.3 1.6.6 2.5 1 1.2.5 2.4 1 3.3 1.5 1 .5 1.8 1.1 2.5 1.7s1.2 1.4 1.6 2.2.6 1.8.6 2.9c0 1.4-.3 2.6-.9 3.6-.6 1-1.4 1.9-2.4 2.5-1 .7-2.2 1.2-3.5 1.5s-2.7.5-4.2.5c-3 0-5.5-.6-7.6-1.7zM221.8 40.2h-.1v4h-4.5V2.8h4.5v18.4h.1c2.2-3.7 5.4-5.6 9.7-5.6 3.6 0 6.4 1.3 8.4 3.8s3 5.9 3 10.1c0 4.7-1.1 8.4-3.4 11.3s-5.4 4.2-9.4 4.2c-3.6-.1-6.4-1.7-8.3-4.8zm-.1-11.3v3.9c0 2.3.8 4.3 2.3 5.9s3.4 2.4 5.7 2.4c2.7 0 4.8-1 6.4-3.1s2.3-5 2.3-8.7c0-3.1-.7-5.6-2.2-7.3-1.4-1.8-3.4-2.7-5.9-2.7-2.6 0-4.7.9-6.3 2.7-1.5 1.9-2.3 4.2-2.3 6.9zM269.4 44.3h-4.5v-4.4h-.1c-2 3.4-4.8 5-8.6 5-2.8 0-5-.7-6.5-2.2s-2.4-3.4-2.4-5.9c0-5.2 3.1-8.3 9.2-9.1l8.4-1.2c0-4.8-1.9-7.1-5.8-7.1-3.4 0-6.4 1.1-9.1 3.4v-4.6c2.8-1.8 5.9-2.6 9.5-2.6 6.6 0 9.9 3.5 9.9 10.4v18.3zm-4.5-14.2l-6.8.9c-2.1.3-3.6.8-4.7 1.5s-1.6 2-1.6 3.9c0 1.4.5 2.5 1.5 3.3 1 .9 2.3 1.3 3.9 1.3 2.2 0 4.1-.8 5.5-2.3s2.2-3.5 2.2-5.9v-2.7zM292.5 20.8c-.8-.6-1.9-.9-3.4-.9-1.9 0-3.5.9-4.8 2.7s-1.9 4.3-1.9 7.4v14.3h-4.5v-28h4.5V22h.1c.6-2 1.6-3.5 2.9-4.6 1.3-1.1 2.8-1.7 4.4-1.7 1.2 0 2.1.1 2.7.4v4.7z"/></g></svg>