<?xml version="1.0" encoding="utf-8"?>
<!-- Generator: Adobe Illustrator 21.0.0, SVG Export Plug-In . SVG Version: 6.00 Build 0)  -->
<svg version="1.1" id="Слой_1" xmlns="http://www.w3.org/2000/svg" xmlns:xlink="http://www.w3.org/1999/xlink" x="0px" y="0px"
	 viewBox="0 0 287 56" style="enable-background:new 0 0 287 56;" xml:space="preserve">
<style type="text/css">
	.st0{fill:#89EBE2;}
</style>
<g>
	<path class="st0" d="M4.6,39.4c0,0.4-0.1,0.7-0.1,1c0,0.3,0,0.7,0,1c0,1.7,0.2,3.1,0.7,4.3c0.5,1.2,1.1,2.1,1.9,2.9s1.8,1.3,3,1.6
		c1.2,0.3,2.5,0.5,4,0.5s2.9-0.2,4.2-0.6c1.3-0.4,2.5-1,3.5-1.8c1-0.8,1.8-1.8,2.4-3C24.7,44,25,42.6,25,41c0-1-0.1-1.9-0.4-2.8
		s-0.7-1.6-1.1-2.3c-0.5-0.7-1.1-1.4-1.7-1.9s-1.4-1.2-2.2-1.7c-0.8-0.5-1.6-1-2.5-1.5c-0.9-0.5-1.7-1-2.6-1.5
		c-0.9-0.5-1.9-1-2.8-1.6C10.8,27.2,9.9,26.7,9,26c-0.8-0.6-1.6-1.3-2.4-2c-0.7-0.7-1.4-1.5-1.9-2.3c-0.5-0.9-0.9-1.8-1.2-2.8
		c-0.3-1-0.5-2.2-0.5-3.4c0-1.6,0.2-3,0.6-4.4c0.4-1.4,1-2.6,1.7-3.7C6.1,6.2,7,5.2,8,4.3c1-0.9,2.1-1.6,3.3-2.3
		c1.2-0.6,2.5-1.1,3.8-1.4c1.4-0.3,2.7-0.5,4.2-0.5c0.7,0,1.3,0,2.1,0.1c0.7,0.1,1.5,0.2,2.2,0.4C24.3,0.8,25,1,25.7,1.2
		s1.3,0.5,1.8,0.8c0.5,0.3,0.9,0.6,1.2,1s0.5,0.7,0.5,1.1c0,0.4,0,1,0,1.6c0,0.6,0,1.4-0.1,2.2c0,0.8-0.1,1.7-0.1,2.7
		c0,1-0.1,2-0.2,3.1l-2.2-0.1c0-0.5,0.1-1,0.1-1.5c0-1.5-0.2-2.8-0.7-3.9c-0.4-1.1-1.1-2.1-1.8-2.8c-0.8-0.7-1.7-1.3-2.9-1.7
		c-1.1-0.4-2.4-0.6-3.7-0.6s-2.6,0.2-3.8,0.7c-1.2,0.5-2.2,1.1-3.1,1.9c-0.9,0.8-1.5,1.8-2,2.9C8.2,9.7,8,10.9,8,12.2
		c0,1.1,0.1,2.1,0.4,2.9c0.3,0.9,0.7,1.7,1.2,2.4c0.5,0.7,1.1,1.4,1.8,2c0.7,0.6,1.4,1.2,2.2,1.7s1.6,1.1,2.5,1.5s1.8,1,2.7,1.5
		c0.9,0.5,1.9,1,2.8,1.5c0.9,0.5,1.8,1.1,2.7,1.7c0.8,0.6,1.6,1.2,2.3,1.9c0.7,0.7,1.3,1.5,1.9,2.3c0.5,0.8,0.9,1.8,1.2,2.8
		c0.3,1,0.5,2.1,0.5,3.4c0,2-0.3,3.8-0.8,5.4c-0.6,1.6-1.3,2.9-2.2,4.1c-0.9,1.2-2,2.1-3.2,2.9c-1.2,0.8-2.5,1.4-3.8,1.9
		s-2.6,0.8-3.9,1.1s-2.5,0.3-3.6,0.3c-1.5,0-2.8-0.1-4.1-0.3C7.1,53.1,6,52.9,5,52.5c-1-0.3-1.7-0.7-2.3-1.1
		c-0.6-0.4-0.8-0.9-0.8-1.3c0-1,0-2.4,0.1-4.3c0.1-1.9,0.2-4.1,0.3-6.6L4.6,39.4z"/>
	<path class="st0" d="M60.1,0.2c1.9,0,3.7,0.2,5.4,0.5s3.1,0.8,4.3,1.3c1.2,0.5,2.1,1.1,2.8,1.7c0.7,0.6,1,1.1,1,1.6
		c0,1,0,2.3-0.1,4c-0.1,1.6-0.2,3.6-0.3,5.9l-1.9-0.1c0-0.2,0-0.4,0-0.6s0-0.4,0-0.6c0-1-0.1-2-0.3-2.9c-0.2-0.9-0.6-1.8-1.2-2.7
		c-0.6-0.8-1.3-1.6-2.1-2.2C66.9,5.5,66,4.9,65,4.5s-2-0.8-3.1-1s-2.2-0.3-3.4-0.3c-2,0-3.8,0.3-5.4,0.9c-1.6,0.6-3.1,1.5-4.3,2.6
		c-1.3,1.1-2.4,2.4-3.3,3.9c-0.9,1.5-1.7,3.1-2.3,4.9c-0.6,1.7-1.1,3.6-1.4,5.5c-0.3,1.9-0.5,3.9-0.5,5.8c0,2.3,0.2,4.5,0.6,6.6
		c0.4,2.1,0.9,4,1.6,5.7c0.7,1.7,1.6,3.3,2.6,4.7c1,1.4,2.1,2.5,3.4,3.5c1.3,1,2.6,1.7,4.1,2.2c1.5,0.5,3,0.8,4.6,0.8
		c1.1,0,2.3-0.1,3.5-0.4c1.2-0.2,2.4-0.6,3.6-1.2c1.2-0.5,2.5-1.2,3.7-2s2.5-1.8,3.7-2.9c0.1,0.1,0.3,0.1,0.4,0.2
		c0.2,0.1,0.3,0.2,0.4,0.3c0.1,0.1,0.2,0.2,0.3,0.4s0.1,0.3,0.1,0.4c0,0.1-0.1,0.2-0.2,0.4c-1.5,1.6-2.9,2.9-4.4,4
		c-1.5,1.1-3,2-4.5,2.6s-3,1.1-4.5,1.4c-1.5,0.3-3,0.4-4.5,0.4c-2,0-3.9-0.3-5.7-0.8c-1.8-0.6-3.5-1.4-5.1-2.4s-3-2.3-4.2-3.8
		c-1.3-1.5-2.3-3.1-3.2-5c-0.9-1.8-1.6-3.8-2.1-6c-0.5-2.2-0.7-4.4-0.7-6.8c0-2.3,0.2-4.6,0.7-7c0.5-2.3,1.2-4.6,2.1-6.7
		s2.1-4.1,3.5-6c1.4-1.9,3-3.5,4.9-4.8c1.9-1.4,4-2.4,6.3-3.2C54.7,0.6,57.3,0.2,60.1,0.2z"/>
	<path class="st0" d="M84.3,8.3c0-0.6-0.1-1.2-0.2-1.6c-0.1-0.4-0.3-0.8-0.5-1.1C83.4,5.3,83,5.1,82.6,5c-0.5-0.1-1-0.2-1.8-0.2
		c-1,0-2.2,0.1-3.8,0.3l-0.3-2c1.4-0.3,2.9-0.5,4.5-0.8c1.6-0.3,3.3-0.5,5-0.7c1.7-0.2,3.5-0.4,5.2-0.5s3.4-0.2,5-0.2
		c2.1,0,4.1,0.2,6,0.6c1.8,0.4,3.4,1,4.8,1.9c1.3,0.9,2.4,2,3.2,3.5c0.8,1.4,1.2,3.2,1.2,5.4c0,2-0.3,3.8-1,5.4
		c-0.6,1.6-1.6,3.1-2.7,4.4c-1.2,1.3-2.6,2.4-4.3,3.3s-3.5,1.6-5.6,2.2c1.5,2.6,2.9,5,4.2,7c1.3,2,2.4,3.8,3.5,5.3
		c1.1,1.5,2,2.8,2.9,3.9c0.9,1.1,1.7,2,2.5,2.8c0.6,0.6,1.2,1.2,1.7,1.6s1,0.8,1.5,1.1s1,0.5,1.5,0.6c0.5,0.1,1,0.2,1.6,0.2
		c0.6,0,1.2-0.1,1.7-0.2c0.5-0.1,1.1-0.3,1.8-0.5l0.6,1.8c-1.9,0.9-3.5,1.5-5,1.9c-1.5,0.4-2.7,0.6-3.6,0.6c-0.5,0-1-0.1-1.4-0.2
		c-0.4-0.1-0.9-0.3-1.3-0.5c-0.4-0.2-0.9-0.5-1.3-0.9c-0.4-0.3-0.9-0.8-1.4-1.2c-0.8-0.8-1.7-1.8-2.8-3.1c-1.1-1.3-2.2-2.9-3.6-4.9
		c-1.3-1.9-2.8-4.3-4.4-6.9c-1.6-2.7-3.4-5.7-5.3-9.2l0-0.3c2.6-0.1,4.8-0.5,6.6-1.1s3.3-1.5,4.4-2.5c1.1-1.1,1.9-2.3,2.4-3.8
		c0.5-1.5,0.8-3.1,0.8-4.9c0-3.5-0.9-6.1-2.8-7.8c-1.8-1.7-4.6-2.6-8.2-2.6c-0.8,0-1.5,0-2.2,0.1c-0.7,0.1-1.5,0.1-2.3,0.2
		c0,1.1-0.1,2.7-0.1,4.6c-0.1,1.9-0.1,4.1-0.2,6.6c-0.1,2.5-0.1,5.2-0.2,8.2c-0.1,3-0.2,6-0.3,9.3c-0.1,3.2-0.2,6.5-0.3,9.9
		c-0.1,3.4-0.2,6.8-0.3,10.2l-5.3,0.7l-0.4,0c0.2-4.3,0.3-8.3,0.5-12.1c0.1-3.8,0.3-7.5,0.4-11.1c0.1-3.6,0.2-7.2,0.2-10.7
		C84.3,15.6,84.3,12,84.3,8.3z"/>
	<path class="st0" d="M140.3,53.6c-3,0-5.7-0.5-8.2-1.6c-2.5-1-4.6-2.6-6.4-4.6c-1.8-2-3.2-4.6-4.2-7.6c-1-3-1.5-6.6-1.5-10.6
		c0-2.5,0.2-5,0.6-7.5c0.4-2.4,1-4.7,1.9-6.9c0.8-2.2,1.9-4.1,3.1-5.9c1.2-1.8,2.7-3.4,4.3-4.7c1.6-1.3,3.5-2.3,5.5-3
		s4.3-1.1,6.7-1.1c3,0,5.7,0.5,8.2,1.6c2.5,1,4.6,2.6,6.4,4.6s3.2,4.6,4.2,7.6c1,3.1,1.5,6.6,1.5,10.6c0,2.5-0.2,5-0.6,7.5
		c-0.4,2.4-1,4.7-1.9,6.9c-0.8,2.2-1.9,4.1-3.1,5.9c-1.2,1.8-2.7,3.4-4.3,4.7c-1.6,1.3-3.5,2.3-5.5,3S142.7,53.6,140.3,53.6z
		 M141.3,50.8c1.7,0,3.3-0.3,4.7-0.8c1.4-0.6,2.7-1.4,3.8-2.4c1.1-1,2.1-2.3,2.9-3.7s1.5-3.1,2-4.9c0.5-1.8,0.9-3.7,1.2-5.8
		c0.3-2.1,0.4-4.2,0.4-6.5c0-4-0.4-7.5-1.2-10.5c-0.8-3-1.9-5.4-3.2-7.4c-1.4-1.9-3-3.4-4.8-4.4c-1.8-1-3.7-1.4-5.8-1.4
		c-1.7,0-3.3,0.3-4.7,0.8c-1.4,0.6-2.7,1.4-3.8,2.4c-1.1,1-2.1,2.3-2.9,3.7c-0.8,1.5-1.5,3.1-2,4.9c-0.5,1.8-0.9,3.7-1.2,5.8
		c-0.3,2.1-0.4,4.2-0.4,6.5c0,4,0.4,7.5,1.2,10.5s1.9,5.4,3.2,7.4s3,3.4,4.8,4.4C137.3,50.3,139.2,50.8,141.3,50.8z"/>
	<path class="st0" d="M173.6,8.4c0-0.7,0-1.3-0.1-1.8c-0.1-0.5-0.2-0.9-0.5-1.2c-0.2-0.3-0.6-0.5-1-0.7s-1-0.2-1.7-0.2
		c-0.5,0-1.1,0-1.8,0.1s-1.5,0.1-2.2,0.3L166,3c2.2-0.6,4-1,5.6-1.2s2.9-0.4,3.9-0.4c1,0,1.7,0.1,2.3,0.4c0.5,0.3,0.9,0.6,1.2,1.2
		c0.2,0.5,0.4,1.1,0.4,1.9c0,0.7,0.1,1.6,0.1,2.5c0,0.1,0,0.5,0,1.5c0,0.9,0,2.1-0.1,3.7c0,1.5-0.1,3.3-0.1,5.3
		c-0.1,2-0.1,4.1-0.2,6.4c-0.1,2.2-0.1,4.6-0.2,6.9c-0.1,2.4-0.2,4.7-0.3,6.9c-0.1,2.2-0.2,4.4-0.4,6.4c-0.1,2-0.3,3.7-0.4,5.2
		c1.4-0.2,2.8-0.4,4-0.5s2.4-0.1,3.5-0.1c1.5,0,3,0,4.3,0.1c1.3,0.1,2.6,0.1,3.9,0.1c0.9,0,1.7-0.1,2.4-0.4c0.7-0.3,1.3-0.7,1.8-1.4
		c0.5-0.7,0.9-1.6,1.3-2.7c0.3-1.1,0.6-2.6,0.8-4.4l1.9,0.2c0,2.6-0.2,4.8-0.5,6.4s-0.7,3-1.3,4c-0.6,1-1.2,1.6-2.1,2
		c-0.8,0.4-1.7,0.6-2.8,0.6c-0.8,0-1.7-0.1-2.6-0.2c-0.9-0.1-2-0.3-3.1-0.5s-2.3-0.4-3.6-0.5c-1.3-0.1-2.7-0.2-4.2-0.2
		c-1.3,0-2.8,0.1-4.4,0.3c-1.6,0.2-3.2,0.5-4.9,0.9l-0.4,0c0.3-2,0.5-4.2,0.7-6.5c0.2-2.3,0.3-4.8,0.5-7.3c0.1-2.5,0.2-5.1,0.3-7.7
		c0.1-2.6,0.2-5.3,0.2-7.9c0-2.6,0.1-5.2,0.1-7.8C173.5,13.2,173.6,10.8,173.6,8.4z"/>
	<path class="st0" d="M210.3,8.4c0-0.7,0-1.3-0.1-1.8c-0.1-0.5-0.2-0.9-0.5-1.2c-0.2-0.3-0.6-0.5-1-0.7s-1-0.2-1.7-0.2
		c-0.5,0-1.1,0-1.8,0.1s-1.5,0.1-2.2,0.3L202.8,3c2.2-0.6,4-1,5.6-1.2s2.9-0.4,3.9-0.4c1,0,1.7,0.1,2.3,0.4c0.5,0.3,0.9,0.6,1.2,1.2
		c0.2,0.5,0.4,1.1,0.4,1.9c0,0.7,0.1,1.6,0.1,2.5c0,0.1,0,0.5,0,1.5c0,0.9,0,2.1-0.1,3.7c0,1.5-0.1,3.3-0.1,5.3
		c-0.1,2-0.1,4.1-0.2,6.4c-0.1,2.2-0.1,4.6-0.2,6.9c-0.1,2.4-0.2,4.7-0.3,6.9c-0.1,2.2-0.2,4.4-0.4,6.4c-0.1,2-0.3,3.7-0.4,5.2
		c1.4-0.2,2.8-0.4,4-0.5s2.4-0.1,3.5-0.1c1.5,0,3,0,4.3,0.1c1.3,0.1,2.6,0.1,3.9,0.1c0.9,0,1.7-0.1,2.4-0.4c0.7-0.3,1.3-0.7,1.8-1.4
		c0.5-0.7,0.9-1.6,1.3-2.7c0.3-1.1,0.6-2.6,0.8-4.4l1.9,0.2c0,2.6-0.2,4.8-0.5,6.4s-0.7,3-1.3,4c-0.6,1-1.2,1.6-2.1,2
		c-0.8,0.4-1.7,0.6-2.8,0.6c-0.8,0-1.7-0.1-2.6-0.2c-0.9-0.1-2-0.3-3.1-0.5s-2.3-0.4-3.6-0.5c-1.3-0.1-2.7-0.2-4.2-0.2
		c-1.3,0-2.8,0.1-4.4,0.3c-1.6,0.2-3.2,0.5-4.9,0.9l-0.4,0c0.3-2,0.5-4.2,0.7-6.5c0.2-2.3,0.3-4.8,0.5-7.3c0.1-2.5,0.2-5.1,0.3-7.7
		c0.1-2.6,0.2-5.3,0.2-7.9c0-2.6,0.1-5.2,0.1-7.8C210.3,13.2,210.3,10.8,210.3,8.4z"/>
	<path class="st0" d="M247.1,8.3c0-0.6-0.1-1.2-0.2-1.6s-0.3-0.8-0.5-1.1c-0.3-0.3-0.6-0.5-1.1-0.6c-0.5-0.1-1-0.2-1.8-0.2
		c-1,0-2.2,0.1-3.8,0.3l-0.3-2c1.4-0.3,2.9-0.5,4.5-0.8s3.3-0.5,5-0.7c1.7-0.2,3.5-0.4,5.2-0.5s3.4-0.2,5-0.2c2.1,0,4.1,0.2,6,0.6
		c1.8,0.4,3.4,1,4.8,1.9c1.3,0.9,2.4,2,3.2,3.5c0.8,1.4,1.2,3.2,1.2,5.4c0,2-0.3,3.8-1,5.4s-1.6,3.1-2.7,4.4
		c-1.2,1.3-2.6,2.4-4.3,3.3s-3.5,1.6-5.6,2.2c1.5,2.6,2.9,5,4.2,7s2.4,3.8,3.5,5.3s2,2.8,2.9,3.9c0.9,1.1,1.7,2,2.5,2.8
		c0.6,0.6,1.2,1.2,1.7,1.6s1,0.8,1.5,1.1c0.5,0.3,1,0.5,1.5,0.6c0.5,0.1,1,0.2,1.6,0.2c0.6,0,1.2-0.1,1.7-0.2
		c0.5-0.1,1.1-0.3,1.8-0.5l0.6,1.8c-1.9,0.9-3.5,1.5-5,1.9c-1.5,0.4-2.7,0.6-3.6,0.6c-0.5,0-1-0.1-1.4-0.2c-0.4-0.1-0.9-0.3-1.3-0.5
		c-0.4-0.2-0.9-0.5-1.3-0.9s-0.9-0.8-1.4-1.2c-0.8-0.8-1.7-1.8-2.8-3.1c-1.1-1.3-2.2-2.9-3.6-4.9c-1.3-1.9-2.8-4.3-4.4-6.9
		c-1.6-2.7-3.4-5.7-5.3-9.2l0-0.3c2.6-0.1,4.8-0.5,6.6-1.1s3.3-1.5,4.4-2.5s1.9-2.3,2.4-3.8c0.5-1.5,0.8-3.1,0.8-4.9
		c0-3.5-0.9-6.1-2.8-7.8c-1.8-1.7-4.6-2.6-8.2-2.6c-0.8,0-1.5,0-2.2,0.1c-0.7,0.1-1.5,0.1-2.3,0.2c0,1.1-0.1,2.7-0.1,4.6
		c-0.1,1.9-0.1,4.1-0.2,6.6c-0.1,2.5-0.1,5.2-0.2,8.2c-0.1,3-0.2,6-0.3,9.3c-0.1,3.2-0.2,6.5-0.3,9.9c-0.1,3.4-0.2,6.8-0.3,10.2
		l-5.3,0.7l-0.4,0c0.2-4.3,0.3-8.3,0.5-12.1c0.1-3.8,0.3-7.5,0.4-11.1c0.1-3.6,0.2-7.2,0.2-10.7C247,15.6,247.1,12,247.1,8.3z"/>
</g>
</svg>
