<svg id="Слой_1" xmlns="http://www.w3.org/2000/svg" viewBox="0 0 292 60"><style>.st0{fill:#428AFF;}</style><path class="st0" d="M2.1 48.7c.8.3 1.6.6 2.4 1 .8.4 1.7.7 2.5 1.1.9.3 1.8.6 2.8.8 1 .2 2 .3 3.1.3 1.3 0 2.6-.1 3.8-.5 1.3-.3 2.6-.7 3.8-1.3 1.2-.6 2.4-1.3 3.6-2.1 1.1-.8 2.2-1.8 3.1-2.9 1-1.2 1.9-2.2 2.6-3.2.7-1 1.3-1.8 1.7-2.6.4-.8.7-1.4.9-1.9.2-.5.3-1 .3-1.4 0-.6-.2-1.1-.6-1.5-.4-.4-.9-.8-1.6-1.1-.7-.3-1.4-.5-2.2-.6-.8-.1-1.7-.2-2.6-.2-.5 0-1.2 0-1.9.1-.7 0-1.4.1-2.2.1-.7 0-1.5.1-2.1.1h-1.8c-.8 0-1.6-.1-2.4-.3-.8-.2-1.6-.5-2.4-.8-.8-.4-1.5-.9-2.2-1.6-.7-.8-1.2-1.6-1.7-2.6-.1-.3-.3-.7-.4-1.1-.1-.5-.1-.9-.1-1.5s0-1.1.1-1.6.2-1 .3-1.4c.3-1.2.9-2.3 1.6-3.5.8-1.2 1.7-2.4 2.7-3.5 1.1-1.1 2.2-2.2 3.4-3.3 1.2-1.1 2.5-2.1 3.8-3 1.3-.9 2.6-1.8 3.8-2.5s2.4-1.4 3.5-1.9c1.5-.7 3.1-1.3 4.7-1.6s3.1-.5 4.7-.5c.9 0 1.8.1 2.6.4.8.2 1.6.6 2.2 1.1.6.5 1.1 1 1.5 1.7.4.7.6 1.5.6 2.3 0 .5-.1.9-.2 1.3-.1.3-.3.6-.5.8-.2.2-.4.4-.6.5-.2.1-.4.1-.7.1-.6 0-1.2-.1-1.7-.2s-1-.3-1.5-.5-1-.3-1.5-.5c-.3-.1-.8-.2-1.4-.2-1.7 0-3.4.3-5.2 1-1.8.7-3.5 1.5-5.2 2.6-1.7 1.1-3.3 2.2-4.8 3.5-1.5 1.3-2.8 2.6-4 3.8-.6.6-1.1 1.3-1.4 1.9-.3.6-.4 1.3-.4 1.8 0 .9.4 1.5 1.1 2 .7.5 1.6.7 2.7.7h2.1c.8 0 1.6-.1 2.4-.1.8 0 1.6-.1 2.4-.1.8 0 1.5-.1 2.1-.1 1.4 0 2.8.2 4.1.6 1.3.4 2.5 1 3.5 1.8s1.8 1.8 2.4 2.9c.6 1.2.9 2.5.9 4 0 .9-.1 1.9-.4 2.8-.3.9-.7 1.9-1.1 2.9s-1 1.9-1.7 2.8c-.6.9-1.3 1.9-2 2.8-1.2 1.6-2.6 3.1-4.2 4.6-1.5 1.4-3.2 2.7-4.9 3.7-1.7 1.1-3.6 1.9-5.5 2.5s-3.9.9-5.9.9c-.9 0-1.8-.1-2.7-.2-.9-.2-1.8-.4-2.7-.7-.9-.3-1.8-.7-2.5-1.2-.8-.5-1.5-1-2.1-1.6-.6-.6-1.1-1.3-1.4-2-.4-.5-.5-1.3-.5-2.2 0-.4 0-.8.2-1.2.1-.4.4-.5.9-.5zM45.2 55c.1-.4.2-.8.4-1.2l.6-1.2c.2-.5.4-1 .7-1.6.2-.6.5-1.4.7-2.4l1.4-5.5c.3-1.3.7-2.7 1-4.1s.8-3 1.2-4.7c.4-1.4.8-2.9 1.3-4.4.5-1.5 1.1-3.1 1.6-4.8.6-1.6 1.1-3.3 1.7-5.1.6-1.7 1.1-3.5 1.6-5.4v-.3c0-.2-.1-.3-.2-.3s-.3-.1-.5-.1c-.6 0-1.1-.1-1.4-.3-.4-.2-.7-.4-.9-.7s-.4-.6-.5-1c-.1-.4-.1-.7-.1-1.1 0-1 .1-1.8.4-2.4.2-.6.6-1.1.9-1.4.4-.3.8-.6 1.2-.7.5-.2.9-.3 1.3-.4.4-.1.8-.2 1.1-.3.3-.1.6-.3.7-.6l.6-1.5c.2-.5.4-1 .7-1.5.3-.5.7-.8 1.1-1.1.4-.3 1-.5 1.7-.5.5 0 1 .1 1.4.4.4.3.7.6 1 1 .3.4.5.9.7 1.3.2.5.4.9.6 1.3 2.4.1 4.4.2 6.2.4 1.7.2 3.1.4 3.9.6 1.7.3 3.5.8 5.2 1.5 1.7.6 3.3 1.5 4.7 2.5 1.4 1 2.5 2.2 3.4 3.6s1.3 3 1.3 4.8c0 .9-.1 1.9-.3 2.9l.1 1.3c-.2 1-.6 1.9-1.2 2.7-.6.8-1.3 1.6-2 2.3-2.1 1.9-4.3 3.5-6.8 4.8-2.5 1.3-5 2.4-7.7 3.2-2.7.9-5.4 1.6-8.1 2.2-2.8.6-5.5 1.2-8.2 1.7l-1 .1c-.5.1-.8.3-.9.6-.5 1.6-.8 3-1.1 4.2-.3 1.2-.5 2.4-.7 3.4-.2 1.1-.5 2.2-.7 3.3-.2 1.1-.5 2.3-.9 3.7-.1.4-.3 1-.6 1.6-.3.6-.7 1.2-1.1 1.7-.4.5-.9 1-1.4 1.4-.5.4-1.1.6-1.7.6-.4 0-.8-.1-1.1-.3-.3-.2-.5-.5-.7-.9-.2-.4-.3-.7-.5-1.2-.1-.4-.2-.8-.2-1.2v-.4c.1-.2.1-.3.1-.5zM59 29.4c0 .2-.1.4-.2.6-.1.2-.2.5-.2.8-.1.3-.1.5-.2.7 0 .2-.1.4-.1.5 0 .1 0 .2.1.3 0 .1.1.1.2.1s.3 0 .7-.1c.4-.1.8-.1 1.3-.2s1.1-.2 1.7-.3c.6-.1 1.2-.2 1.7-.3 1.5-.3 3.1-.7 4.8-1.2 1.7-.5 3.4-1.1 5.1-1.7 1.7-.6 3.3-1.3 4.9-2 1.5-.7 2.9-1.5 4.1-2.3 1.3-.9 2.3-1.7 3.1-2.6.8-.9 1.1-1.8 1.1-2.7 0-.6-.1-1.1-.2-1.5-.2-.5-.3-.9-.5-1.2-.7-1.1-1.6-2-2.6-2.7-1-.6-2.2-1.1-3.4-1.5-1.2-.3-2.5-.5-3.8-.6-1.3-.1-2.7-.1-4-.1-.3 0-.9 0-1.6.1-.7 0-1.4.1-2.2.2-.8.1-1.5.2-2.1.3-.7.1-1.1.2-1.3.4l-.3.3c-.1.2-.1.3-.2.4-.2.5-.4 1.1-.8 1.9-.3.8-.7 1.7-1 2.8-.4 1-.8 2.1-1.2 3.2l-1.2 3.3c-.4 1.1-.7 2.1-1 3-.3.7-.5 1.5-.7 2.1zM97 36.8c.2-.9.5-1.9.7-3 .3-1.1.6-2.2.9-3.4s.7-2.4 1-3.6c.3-1.2.7-2.4 1-3.5.3-1.1.6-2.1.9-3.1s.5-1.8.7-2.4c.4-1.5.9-3 1.2-4.5.4-1.5.8-3.1 1.1-4.8.5-.9 1.1-1.5 1.9-1.9.8-.4 1.6-.6 2.6-.6.7.4 1.3.9 1.8 1.6s.6 1.5.6 2.3c0 .6-.1 1.3-.3 2.1s-.4 1.6-.7 2.5c-.3.9-.6 1.8-1 2.8-.4 1-.7 2-1.1 3-.6 1.9-1.3 3.8-1.9 5.7-.6 1.9-1.3 3.9-1.9 6-.2.6-.3 1.1-.5 1.7l-.6 1.8c-.2.6-.4 1.4-.6 2.2-.2.8-.5 1.7-.7 2.8-.3 1.2-.5 2.5-.7 3.7s-.4 2.5-.6 3.7c-.2 1.2-.4 2.5-.6 3.8-.2 1.3-.5 2.6-.8 3.8-.1.5-.3.9-.6 1.2-.3.4-.6.7-1 .9-.4.3-.8.5-1.2.6s-.8.2-1.2.2c-.4 0-.7 0-1.1-.1-.3-.1-.6-.2-.8-.4-.3-.3-.5-.6-.7-1-.2-.4-.2-.8-.2-1.2v-.3c0-.1 0-.2.1-.3L97 36.8zM124.1 14.7c.1-.6.3-1.2.5-1.9s.5-1.3.8-1.9.8-1 1.4-1.4c.6-.4 1.3-.6 2.1-.6s1.5.2 2.2.7c.6.5 1.2.9 1.7 1.4.6.4 1.2 1.2 1.7 2.4.6 1.2 1.1 2.7 1.7 4.4.6 1.8 1.2 3.7 1.9 6s1.4 4.5 2.3 7c.8 2.4 1.7 4.9 2.8 7.4 1 2.5 2.2 5 3.5 7.4.2.4.4.8.7 1.3.3.5.6 1 .8 1.4.3.4.6.8.8 1.1.2.3.4.5.5.5.1 0 .2-.2.2-.5s.2-.8.3-1.2c.1-.5.2-1 .4-1.5.1-.5.2-.9.4-1.2.4-1.1.9-2.3 1.4-3.7.5-1.4 1.1-3 1.7-5 .6-2 1.3-4.3 2.1-7s1.6-5.9 2.5-9.5c.2-.9.5-1.9.7-3.1.3-1.1.5-2.3.8-3.5.2-1.2.5-2.4.6-3.5.2-1.1.3-2.1.4-2.9v-.7c0-.3.1-.7.1-1.2.1-.4.1-.9.2-1.4s.2-.9.4-1.3c.1-.4.3-.7.6-1 .2-.3.5-.4.8-.4.3 0 .7 0 1.2.1s.9.2 1.3.4c.4.6.8 1.3 1.2 2.2.4.8.5 2 .5 3.4 0 .9-.1 2-.3 3.2s-.4 2.6-.7 4.1c-.3 1.4-.6 2.9-1 4.5s-.7 3-1.1 4.4-.7 2.7-1.1 3.8c-.3 1.2-.6 2.1-.8 2.9-.4 1.3-.8 2.7-1.3 4.1-.5 1.4-.9 2.9-1.5 4.5-.5 1.6-1.1 3.2-1.8 5-.6 1.7-1.3 3.6-2.1 5.6-.3.9-.7 1.8-1.2 2.7-.5.9-1 1.7-1.5 2.4-.6.7-1.2 1.3-2 1.8-.7.5-1.5.7-2.4.7-.5 0-1.1-.1-1.6-.2-.6-.2-1-.5-1.4-.9-1.9-2.2-3.6-4.7-5.1-7.5-1.5-2.8-2.8-5.7-4-8.7s-2.2-6.1-3.1-9.2-1.7-6.1-2.5-8.9l-.2-.8c-.1-.3-.2-.7-.3-1-.1-.3-.2-.6-.2-.9-.1-.3-.2-.5-.3-.7-.1-.2-.2-.3-.4-.3s-.3.3-.5.8-.4 1.1-.6 1.7c-.2.6-.4 1.3-.6 1.9-.2.6-.3 1-.3 1.1-.2.6-.4 1.5-.7 2.6-.3 1.1-.7 2.4-1.1 3.8-.4 1.4-.8 2.9-1.3 4.5s-.9 3.1-1.4 4.6c-.4 1.5-.9 2.8-1.2 4.1-.4 1.2-.7 2.3-1 3-.2.6-.5 1.4-.8 2.3-.3.9-.6 1.9-.9 2.9-.3 1-.6 1.8-.8 2.6-.3.8-.4 1.3-.5 1.6-.3.9-.7 1.5-1.2 2s-1.1.7-1.6.7c-.3 0-.7-.1-1-.4-.3-.2-.7-.5-.9-.9s-.5-.7-.7-1.1c-.2-.4-.3-.8-.3-1.1 0-.2.1-.5.2-.9s.3-1.1.6-2.1l.9-3.6 10.4-33.4zM183.4 8.8c.6 0 1.1.1 1.5.2.4.1.7.3.9.6.2.3.4.6.4 1.1.1.4.1 1 .1 1.6 0 .5 0 1-.1 1.5 0 .5-.1 1-.2 1.4l-.3 1.5c-.1.5-.2 1.1-.4 1.7-.4 1.8-1 3.7-1.6 5.5-.6 1.8-1.2 3.7-1.8 5.7l-1.3 4.2c1.3-.3 2.6-.8 3.7-1.5s2.3-1.4 3.4-2.2 2.2-1.8 3.3-2.8c1.1-1 2.1-2.1 3.3-3.2 1.7-1.8 3.5-3.6 5.2-5.5 1.7-1.9 3.4-3.9 5-5.8.3-.3.5-.8.8-1.4.3-.6.6-1.2 1-1.8.4-.6.8-1.1 1.3-1.6.5-.4 1.1-.7 1.8-.7.5 0 .9.2 1.2.5.4.3.7.7.9 1.1.2.5.4.9.5 1.5.1.5.2 1 .2 1.5 0 .4 0 .7-.1 1-1.3 1.9-2.7 3.8-4.2 5.6-1.5 1.8-3 3.5-4.6 5.2s-3.3 3.3-5 4.9c-1.7 1.6-3.4 3.1-5.1 4.7 2.4.8 4.6 1.9 6.5 3.2 2 1.3 3.7 2.9 5.2 4.7 1.5 1.8 2.8 4 3.8 6.4s1.8 5.2 2.3 8.2c-.1.4-.3.8-.6 1.2-.3.4-.6.7-.9 1-.3.3-.7.5-1.2.7-.4.2-.9.3-1.4.3-.8 0-1.4-.2-1.9-.5s-.8-.8-1-1.3c-.2-.5-.4-1.1-.5-1.7l-.3-1.8-.1-.9c-.3-1.5-.7-3-1.4-4.4-.7-1.4-1.5-2.6-2.4-3.6-.9-1.1-1.9-2-3-2.7-1.1-.8-2.1-1.3-3.2-1.7l-1-.4c-.4-.2-.9-.3-1.4-.5-.5-.2-1.1-.4-1.6-.5-.5-.2-1.1-.3-1.6-.4-.5-.1-1-.2-1.4-.2-.2 0-.7.1-1.4.4-.7.3-1.4.6-2.2.9-.8.3-1.6.6-2.3.9-.8.3-1.3.5-1.7.6l-.9 3.5c-.3 1-.4 2-.5 3-.1 1-.2 1.9-.2 2.7 0 .7-.1 1.5-.1 2.3 0 .8-.2 1.6-.4 2.3-.2.7-.6 1.3-1.1 1.8s-1.2.7-2.2.7c-.6 0-1.1-.2-1.4-.5-.4-.3-.6-.8-.8-1.3-.2-.5-.3-1.1-.3-1.7 0-.6-.1-1.1-.1-1.6 0-.6 0-1.3.1-2 .1-.8.2-1.5.3-2.3.1-.8.3-1.6.4-2.3.2-.8.3-1.5.5-2.1l8.1-32.5c.6-1.6 1.7-2.4 3.5-2.4zM222.7 36.8c.2-.9.5-1.9.7-3 .3-1.1.6-2.2.9-3.4s.7-2.4 1-3.6c.3-1.2.7-2.4 1-3.5.3-1.1.6-2.1.9-3.1s.5-1.8.7-2.4c.4-1.5.9-3 1.2-4.5.4-1.5.8-3.1 1.1-4.8.5-.9 1.1-1.5 1.9-1.9.8-.4 1.6-.6 2.6-.6.7.4 1.3.9 1.8 1.6s.6 1.5.6 2.3c0 .6-.1 1.3-.3 2.1s-.4 1.6-.7 2.5c-.3.9-.6 1.8-1 2.8-.4 1-.7 2-1.1 3-.6 1.9-1.3 3.8-1.9 5.7-.6 1.9-1.3 3.9-1.9 6-.2.6-.3 1.1-.5 1.7l-.6 1.8c-.2.6-.4 1.4-.6 2.2-.2.8-.5 1.7-.7 2.8-.3 1.2-.5 2.5-.7 3.7s-.4 2.5-.6 3.7c-.2 1.2-.4 2.5-.6 3.8-.2 1.3-.5 2.6-.8 3.8-.1.5-.3.9-.6 1.2-.3.4-.6.7-1 .9-.4.3-.8.5-1.2.6s-.8.2-1.2.2c-.4 0-.7 0-1.1-.1-.3-.1-.6-.2-.8-.4-.3-.3-.5-.6-.7-1-.2-.4-.2-.8-.2-1.2v-.3c0-.1 0-.2.1-.3l4.3-18.3zM253.9 51.1c.9-3.8 1.9-7.7 3-11.6 1.1-3.9 2.2-7.8 3.2-11.6.4-1.6.8-3 1.2-4.4.3-1.3.6-2.5.8-3.6.2-1.1.4-2 .5-2.9.1-.9.2-1.7.2-2.4v-.5-.6c-.2 0-.7.1-1.5.4-.8.3-1.7.6-2.8 1-1.1.4-2.2.9-3.4 1.4-1.2.5-2.3 1-3.3 1.6-.8.4-1.5.8-2 1s-1 .5-1.4.6c-.4.2-.8.3-1.1.3-.3.1-.7.1-1 .1-.7 0-1.3-.3-1.9-.8-.5-.6-.8-1.3-.8-2.1 0-.5.1-1 .2-1.3.1-.4.3-.7.5-1 .2-.3.5-.6.9-.8.4-.3.8-.5 1.4-.8 5.8-3.1 11.8-5.3 17.8-6.7 6-1.4 12-2.1 18-2.1h1.7c.7 0 1.4.1 2.1.1.7.1 1.4.1 2.1.2.7.1 1.3.2 1.8.4s1 .5 1.4 1c.4.5.6 1.1.6 1.6s0 .9-.1 1.4c-.1.4-.2.8-.4 1.1-.2.3-.5.6-.8.8-.3.2-.7.3-1.2.3-.8-.1-1.8-.2-2.9-.3-1.1-.1-2.2-.2-3.2-.2-2.2 0-4.3.1-6.5.2s-4.4.4-6.6.9c-.1 0-.2.2-.2.4s-.1.4-.1.7c-.1 1.2-.2 2.3-.3 3.3-.1.9-.3 1.9-.6 2.8-.2.9-.5 2-.9 3.1-.3 1.1-.8 2.4-1.2 4-.5 1.5-1 3.4-1.6 5.5-.6 2.1-1.3 4.7-2 7.7l-1.7 6.7c-.4 1.5-.7 2.9-.9 4.2-.2 1.2-.4 2.5-.6 3.7-.1.4-.4.8-1.1 1.1s-1.3.5-2.2.5c-.5 0-.9-.1-1.3-.4-.4-.3-.7-.6-1-1-.3-.4-.4-.9-.5-1.4-.4-.6-.4-1.1-.3-1.6z"/></svg>