<svg id="Слой_1" xmlns="http://www.w3.org/2000/svg" viewBox="0 0 281 47"><style>.st0{fill:#07B189;} .st2{font-size:42px;} .st3{enable-background:new ;} .st4{fill:#07B189;stroke:#07B189;stroke-width:2;stroke-miterlimit:10;}</style><g class="st3"><path class="st4" d="M4.1 34.7v-4.1c.5.4 1 .8 1.7 1.1s1.3.6 2.1.8c.7.2 1.4.4 2.2.5s1.4.2 2 .2c2.1 0 3.7-.4 4.7-1.2 1-.8 1.6-1.9 1.6-3.4 0-.8-.2-1.5-.5-2.1-.3-.6-.8-1.1-1.4-1.6-.6-.5-1.3-.9-2.2-1.4-.8-.4-1.7-.9-2.7-1.4-1-.5-2-1-2.9-1.6S7 19.4 6.4 18.7s-1.4-1.2-1.7-2c-.4-.8-.6-1.8-.6-2.9 0-1.3.3-2.5.9-3.5.6-1 1.4-1.8 2.3-2.5s2-1.1 3.3-1.4S13 6 14.3 6c2.9 0 5 .3 6.3 1v3.9c-1.7-1.2-4-1.8-6.7-1.8-.8 0-1.5.1-2.3.2s-1.4.4-2 .8-1 .9-1.3 1.4-.6 1.2-.6 2.1c0 .8.1 1.4.4 1.9s.7 1 1.2 1.5 1.2.9 2 1.3 1.7.9 2.7 1.4c1.1.5 2.1 1.1 3 1.6s1.8 1.2 2.5 1.9 1.3 1.5 1.7 2.3c.4.8.6 1.8.6 2.9 0 1.4-.3 2.7-.9 3.7-.6 1-1.3 1.8-2.3 2.5-1 .6-2.1 1.1-3.3 1.4s-2.6.4-4 .4c-.5 0-1 0-1.7-.1-.6-.1-1.3-.2-2-.3-.7-.1-1.4-.3-2-.5-.6-.3-1.2-.5-1.5-.8zM49.6 6.5L38.7 35.9h-3.8L24.3 6.5h3.8l8.1 23.3c.3.8.5 1.6.6 2.6h.1c.1-.8.3-1.7.7-2.6l8.3-23.3h3.7zM75.8 33.9c-3 1.7-6.2 2.5-9.8 2.5-4.2 0-7.6-1.4-10.2-4.1-2.6-2.7-3.9-6.3-3.9-10.7 0-4.6 1.4-8.3 4.3-11.2S62.8 6 67.2 6c3.2 0 5.9.5 8.1 1.6v3.8c-2.4-1.5-5.2-2.3-8.4-2.3-3.3 0-6 1.1-8.1 3.4s-3.2 5.2-3.2 8.8c0 3.7 1 6.6 2.9 8.8 2 2.1 4.6 3.2 8 3.2 2.3 0 4.3-.5 6-1.4v-8.2h-6.4v-3.1H76v13.3zM124.1 35.9h-3.4V16.2c0-1.6.1-3.5.3-5.7h-.1c-.3 1.3-.6 2.3-.9 2.9L110 36h-1.7l-10-22.4c-.3-.7-.6-1.7-.9-3h-.1c.1 1.2.2 3.1.2 5.8v19.7h-3.3V6.5h4.6l9 20.5c.7 1.6 1.1 2.7 1.4 3.5h.1c.6-1.6 1.1-2.8 1.4-3.6l9.2-20.4h4.3v29.4zM140.2 36.4c-3.1 0-5.6-1-7.4-2.9-1.9-2-2.8-4.6-2.8-7.8 0-3.5 1-6.3 2.9-8.3s4.5-3 7.8-3c3.1 0 5.6 1 7.3 2.9 1.8 1.9 2.6 4.6 2.6 8 0 3.3-.9 6-2.8 8-1.9 2.1-4.4 3.1-7.6 3.1zm.2-19.1c-2.2 0-3.9.7-5.1 2.2s-1.9 3.5-1.9 6.1c0 2.5.6 4.5 1.9 5.9s3 2.2 5.1 2.2c2.2 0 3.8-.7 5-2.1 1.2-1.4 1.8-3.4 1.8-6s-.6-4.6-1.8-6.1c-1.1-1.5-2.8-2.2-5-2.2zM167 18.3c-.6-.5-1.4-.7-2.5-.7-1.4 0-2.6.7-3.6 2-1 1.4-1.4 3.2-1.4 5.5v10.7H156v-21h3.4v4.3h.1c.5-1.5 1.2-2.6 2.2-3.5 1-.8 2.1-1.2 3.3-1.2.9 0 1.5.1 2 .3v3.6zM174.1 32.9l-.1 12.7h-3.4V14.9h3.4v3.7h.1c1.7-2.8 4.1-4.2 7.3-4.2 2.7 0 4.8.9 6.3 2.8s2.3 4.4 2.3 7.6c0 3.5-.9 6.3-2.6 8.4-1.7 2.1-4 3.2-7 3.2-2.7 0-4.8-1.2-6.3-3.5zm-.1-8.5v2.9c0 1.7.6 3.2 1.7 4.4 1.1 1.2 2.6 1.8 4.3 1.8 2 0 3.6-.8 4.8-2.3 1.2-1.6 1.7-3.7 1.7-6.5 0-2.3-.5-4.2-1.6-5.5s-2.5-2-4.4-2c-2 0-3.5.7-4.7 2s-1.8 3.2-1.8 5.2zM212.8 35.9h-3.4V23.8c0-4.4-1.6-6.6-4.9-6.6-1.6 0-3 .6-4.1 1.9-1.1 1.3-1.7 2.9-1.7 4.9v11.9h-3.4V4.8h3.4v13.6h.1c1.6-2.7 3.9-4 6.9-4 4.7 0 7.1 2.9 7.1 8.6v12.9zM236 26.3h-14.8c.1 2.3.7 4.1 1.9 5.4s2.9 1.9 5 1.9c2.4 0 4.5-.8 6.5-2.3v3.2c-1.8 1.3-4.3 2-7.3 2s-5.3-1-7-2.9c-1.7-1.9-2.5-4.6-2.5-8 0-3.3.9-5.9 2.8-8 1.9-2.1 4.2-3.1 6.9-3.1s4.9.9 6.4 2.7 2.3 4.2 2.3 7.4v1.7zm-3.5-2.9c0-1.9-.5-3.5-1.4-4.5-.9-1.1-2.2-1.6-3.8-1.6-1.6 0-2.9.6-4 1.7s-1.8 2.6-2.1 4.5h11.3zM258 35.9h-3.4v-3.3h-.1c-1.4 2.5-3.6 3.8-6.5 3.8-5 0-7.5-3-7.5-8.9V14.9h3.3v12c0 4.4 1.7 6.6 5.1 6.6 1.6 0 3-.6 4-1.8 1.1-1.2 1.6-2.8 1.6-4.7V14.9h3.4v21zM263.6 35.2v-3.6c1.8 1.4 3.8 2 6 2 3 0 4.4-1 4.4-3 0-.6-.1-1-.4-1.4-.3-.4-.6-.7-1-1-.4-.3-.9-.6-1.5-.8-.6-.2-1.2-.5-1.9-.7-.9-.4-1.7-.7-2.5-1.1-.7-.4-1.3-.8-1.8-1.3s-.8-1-1.1-1.6c-.2-.6-.4-1.3-.4-2.1 0-1 .2-1.9.7-2.6.5-.8 1.1-1.4 1.8-1.9.8-.5 1.6-.9 2.6-1.2 1-.3 2-.4 3-.4 1.8 0 3.4.3 4.9.9v3.4c-1.5-1-3.3-1.5-5.3-1.5-.6 0-1.2.1-1.7.2s-.9.3-1.3.6-.6.6-.8.9-.3.8-.3 1.2c0 .5.1 1 .3 1.4s.5.7.9 1 .8.5 1.4.8 1.2.5 1.9.8c.9.4 1.8.7 2.5 1.1.7.4 1.4.8 1.9 1.3s.9 1 1.2 1.6.4 1.3.4 2.2c0 1-.2 1.9-.7 2.7-.5.8-1.1 1.4-1.8 1.9s-1.6.9-2.6 1.1-2 .4-3.1.4c-2.3-.1-4.2-.5-5.7-1.3z"/></g></svg>