<?xml version="1.0" encoding="utf-8"?>
<!-- Generator: Adobe Illustrator 19.2.1, SVG Export Plug-In . SVG Version: 6.00 Build 0)  -->
<svg version="1.1" id="Capa_1" xmlns="http://www.w3.org/2000/svg" xmlns:xlink="http://www.w3.org/1999/xlink" x="0px" y="0px"
	 viewBox="0 0 31.2 36.9" style="enable-background:new 0 0 31.2 36.9;" xml:space="preserve" preserveAspectRatio="none slice">
<style type="text/css">
	.st0{fill:#010002;}
</style>
<g>
	<g>
		<path class="st0" d="M30.3,7.5H1c-0.5,0-0.9-0.4-0.9-0.9S0.5,5.8,1,5.8h29.3c0.5,0,0.9,0.4,0.9,0.9S30.7,7.5,30.3,7.5z"/>
	</g>
	<g>
		<path class="st0" d="M24.7,14.9H6.5c-0.5,0-0.9-0.4-0.9-0.9s0.4-0.9,0.9-0.9h18.2c0.5,0,0.9,0.4,0.9,0.9
			C25.6,14.5,25.2,14.9,24.7,14.9z"/>
	</g>
	<g>
		<path class="st0" d="M30.3,22.2H1c-0.5,0-0.9-0.4-0.9-0.9s0.4-0.9,0.9-0.9h29.3c0.5,0,0.9,0.4,0.9,0.9
			C31.1,21.8,30.7,22.2,30.3,22.2z"/>
	</g>
	<g>
		<path class="st0" d="M24.7,29.6H6.5c-0.5,0-0.9-0.4-0.9-0.9c0-0.5,0.4-0.9,0.9-0.9h18.2c0.5,0,0.9,0.4,0.9,0.9
			C25.6,29.2,25.2,29.6,24.7,29.6z"/>
	</g>
	<g>
		<path class="st0" d="M30.2,36.9H0.9C0.4,36.9,0,36.5,0,36c0-0.5,0.4-0.9,0.9-0.9h29.3c0.5,0,0.9,0.4,0.9,0.9S30.7,36.9,30.2,36.9z
			"/>
	</g>
</g>
</svg>
