<svg xmlns="http://www.w3.org/2000/svg" xmlns:xlink="http://www.w3.org/1999/xlink" viewBox="0 0 50 50" version="1.1" width="50" height="50">
<g id="surface1">
<path style=" " d="M 14 2 C 10 2 4.996094 6.25 2.789063 10.046875 C 2.261719 10.953125 2.238281 11.082031 2.679688 10.710938 C 2.863281 10.558594 3.320313 10.28125 3.695313 10.097656 C 7.367188 8.296875 11.25 10.234375 11.460938 13.96875 C 11.597656 16.382813 10.859375 17.867188 7.742188 21.449219 C 5.339844 24.207031 4.242188 25.773438 3.472656 27.550781 C 1.859375 31.277344 1.875 35.542969 3.511719 38.988281 C 5.863281 43.933594 10.144531 47.804688 16 48 L 19 48 L 16 47 C 12 45 10.804688 42.734375 9.753906 38.800781 C 9.324219 37.195313 9.332031 34.320313 9.765625 32.859375 C 10.84375 29.222656 12.589844 27.28125 17.707031 24.027344 C 20.78125 22.078125 21.992188 21.074219 23.136719 19.6875 C 27 15 25 7 20.230469 3.84375 C 17.816406 2.25 16 2 14 2 Z M 36.292969 10.378906 L 35.925781 10.875 C 35.105469 11.996094 34.574219 13.679688 34.429688 15.609375 L 34.355469 16.640625 L 33.847656 17.089844 C 32.660156 18.144531 29.949219 19.644531 26.859375 20.960938 L 25.449219 21.558594 L 26.59375 21.632813 C 30 21.851563 33.363281 23.007813 37.636719 25.433594 C 39.152344 26.296875 40.042969 26.648438 41.136719 26.824219 C 42.578125 27.050781 44.695313 26.839844 45.683594 26.363281 L 46 26.214844 L 45.996094 24.9375 C 45.972656 20.375 43.15625 16.425781 38.933594 15.03125 C 38.4375 14.871094 38.351563 14.796875 38.289063 14.488281 C 38.042969 13.238281 37.3125 11.597656 36.652344 10.8125 Z M 23.160156 23.519531 C 22.59375 23.550781 22.066406 23.613281 21.613281 23.710938 C 21.097656 23.820313 20.410156 24.027344 20.074219 24.171875 L 19.46875 24.4375 L 21.34375 24.507813 C 26.734375 24.703125 31.171875 27.425781 34.109375 32.339844 C 34.65625 33.261719 34.710938 33.3125 35.277344 33.511719 C 36.609375 33.976563 38.414063 33.734375 40.496094 32.804688 C 42.554688 31.886719 44.3125 31.679688 45.714844 32.191406 C 46.285156 32.402344 46.273438 32.398438 46.269531 32.171875 C 46.265625 31.761719 45.722656 30.832031 45.230469 30.390625 C 44.570313 29.808594 43.730469 29.527344 42.003906 29.3125 C 39.046875 28.941406 37.941406 28.53125 34.890625 26.679688 C 32.566406 25.265625 31.183594 24.679688 28.683594 24.050781 C 26.949219 23.617188 24.859375 23.425781 23.160156 23.519531 Z M 21.210938 26.519531 C 20.734375 26.507813 20.261719 26.53125 19.800781 26.597656 C 16.566406 27.058594 13.960938 28.941406 12.800781 31.664063 L 12.578125 32.1875 L 13.160156 31.628906 C 15.632813 29.285156 19.261719 28.496094 22.464844 29.609375 C 26.230469 30.917969 28.492188 34.167969 28.46875 38.234375 C 28.445313 42.003906 26.644531 45.394531 23 47 L 20 48 L 38 48 C 38 48 37.058594 44.6875 33 44 L 32 44 C 32 44 35 37 30.410156 31.355469 C 28.179688 28.609375 24.554688 26.621094 21.210938 26.519531 Z M 19.097656 32 C 18.847656 32.007813 18.59375 32.03125 18.339844 32.066406 C 12.917969 32.878906 10.707031 39.328125 14.5625 43.078125 C 18.605469 47.015625 25.480469 44.53125 25.980469 38.949219 C 26.3125 35.230469 22.890625 31.898438 19.097656 32 Z M 19.027344 35.65625 C 19.523438 35.609375 20.050781 35.683594 20.570313 35.90625 C 22.296875 36.644531 22.800781 38.949219 21.53125 40.316406 C 19.800781 42.175781 16.660156 41.171875 16.46875 38.691406 C 16.339844 37.050781 17.539063 35.800781 19.027344 35.65625 Z "/>
</g>
</svg>