<?xml version="1.0" encoding="utf-8"?>
<!-- Generator: Adobe Illustrator 19.2.1, SVG Export Plug-In . SVG Version: 6.00 Build 0)  -->
<svg version="1.1" id="Слой_1" xmlns="http://www.w3.org/2000/svg" xmlns:xlink="http://www.w3.org/1999/xlink" x="0px" y="0px"
	 viewBox="0 0 276 112" style="enable-background:new 0 0 276 112;" xml:space="preserve">
<style type="text/css">
	.st0{enable-background:new    ;}
	.st1{fill:#00406E;}
</style>
<g class="st0">
	<path class="st1" d="M20.4,20.6c0.7,2.2,1.5,4.8,2.3,7.9c0.8,3.1,1.7,6.7,2.7,10.9c0.9,4.2,1.9,9,3,14.4c1.1,5.4,2.2,11.5,3.3,18.3
		h0.2c1.7-3.4,3.4-6.7,5.1-10.1c1.7-3.3,3.2-6.6,4.7-9.7c1.5-3.2,2.8-6.2,4-9.1c1.2-2.9,2.3-5.6,3.1-8.2c0.9-2.5,1.6-4.9,2-7
		c0.5-2.1,0.7-3.9,0.7-5.5c0-3.9-1.3-7-3.9-9.3l0.2-0.5c0.4-0.1,0.7-0.1,1.1-0.1c0.4,0,0.8-0.1,1.2-0.1c1,0,1.9,0.1,2.8,0.4
		c0.9,0.2,1.8,0.6,2.5,1.2c0.7,0.5,1.3,1.3,1.8,2.2c0.5,0.9,0.7,2.1,0.7,3.4c0,1.2-0.3,2.9-0.9,5s-1.4,4.6-2.5,7.5
		c-1.1,2.9-2.4,6.1-4,9.6c-1.6,3.5-3.3,7.3-5.3,11.3c-1.9,4-4.1,8.2-6.4,12.6c-2.3,4.4-4.8,8.9-7.3,13.5L27,79.5l-0.6-0.1
		c-2.9-14.8-5.4-26.9-7.4-36.2s-3.8-15.9-5.3-19.8c-0.4-1-0.8-1.8-1.2-2.6c-0.4-0.7-0.8-1.3-1.3-1.7s-1.1-0.8-1.8-1
		c-0.7-0.2-1.5-0.3-2.5-0.3c-0.6,0-1.3,0-2,0.1c-0.7,0.1-1.6,0.2-2.6,0.4L2,15.9c2.9-0.7,5.3-1.3,7.3-1.7c1.9-0.4,3.6-0.6,4.9-0.6
		c1,0,1.7,0.1,2.4,0.4c0.6,0.3,1.1,0.7,1.6,1.3c0.4,0.6,0.8,1.3,1.2,2.2C19.6,18.3,20,19.4,20.4,20.6z"/>
	<path class="st1" d="M84.3,69.6c0.1,0.1,0.3,0.1,0.4,0.2s0.3,0.2,0.5,0.3c0.1,0.1,0.3,0.3,0.4,0.4c0.1,0.1,0.2,0.3,0.2,0.4
		c0,0.1,0,0.2-0.1,0.2c-1,1.5-2.2,2.7-3.4,3.8s-2.5,2-3.8,2.7c-1.3,0.7-2.6,1.3-4,1.6c-1.3,0.3-2.7,0.5-4,0.5
		c-2.2,0-4.3-0.5-6.2-1.4c-1.9-0.9-3.5-2.2-4.8-3.8c-1.3-1.6-2.4-3.5-3.2-5.6c-0.8-2.1-1.1-4.4-1.1-6.9c0-2,0.2-4,0.7-6
		c0.4-2,1.1-3.9,1.9-5.7c0.8-1.8,1.8-3.5,3-5.1c1.2-1.6,2.6-2.9,4.1-4.1s3.2-2.1,5-2.7c1.8-0.7,3.8-1,5.9-1c1.4,0,2.7,0.2,4,0.6
		c1.3,0.4,2.4,0.9,3.3,1.6c0.9,0.7,1.7,1.6,2.3,2.6s0.8,2.2,0.8,3.5c0,1.9-0.6,3.6-1.9,5c-1.2,1.4-3,2.6-5.2,3.6
		c-2.2,1-4.8,1.8-7.7,2.4s-6.2,1.1-9.6,1.4v0.5c0,2.4,0.3,4.6,0.9,6.6c0.6,2,1.4,3.7,2.5,5.1c1.1,1.4,2.3,2.5,3.8,3.3s3,1.2,4.7,1.2
		c1.7,0,3.4-0.4,5.2-1.2S82.5,71.5,84.3,69.6z M79.1,47.1c0-0.9-0.1-1.7-0.4-2.4s-0.7-1.4-1.2-2c-0.5-0.6-1.1-1-1.8-1.3
		c-0.7-0.3-1.5-0.5-2.3-0.5c-1.2,0-2.3,0.2-3.3,0.6c-1,0.4-1.9,1-2.7,1.8c-0.8,0.7-1.5,1.6-2.1,2.6c-0.6,1-1.1,2-1.5,3.1
		s-0.8,2.2-1,3.4c-0.3,1.2-0.4,2.3-0.6,3.4c2.7-0.2,5-0.5,7.1-1c2.1-0.5,3.9-1,5.3-1.8c1.5-0.7,2.6-1.6,3.3-2.6
		C78.7,49.5,79.1,48.4,79.1,47.1z"/>
	<path class="st1" d="M105,3c-0.4,3.2-0.7,6.4-1.1,9.8c-0.4,3.3-0.7,6.7-1,10.1c-0.3,3.4-0.6,6.8-0.9,10.3
		c-0.3,3.4-0.5,6.8-0.7,10.2c-0.2,3.3-0.4,6.6-0.5,9.8c-0.1,3.2-0.2,6.3-0.2,9.3c0,1.9,0,3.4,0.1,4.8s0.1,2.5,0.2,3.4
		s0.2,1.7,0.4,2.2c0.2,0.6,0.4,1,0.7,1.3c0.3,0.3,0.6,0.5,0.9,0.6s0.8,0.2,1.3,0.2c0.9,0,1.9-0.1,2.9-0.4c1-0.3,2.1-0.7,3.2-1.1
		l0.5,1.5c-0.7,0.5-1.5,1.1-2.5,1.7s-2.1,1.1-3.2,1.5s-2.2,0.8-3.3,1.1s-2,0.4-2.8,0.4c-1,0-1.8-0.3-2.4-0.8c-0.6-0.5-1-1.4-1.3-2.5
		c-0.3-1.2-0.5-2.7-0.6-4.5c-0.1-1.9-0.1-4.1-0.1-6.8c0-1,0-2.4,0.1-4.2c0.1-1.8,0.1-3.9,0.2-6.3c0.1-2.4,0.2-5,0.4-7.9
		c0.1-2.8,0.3-5.8,0.4-8.8c0.1-3,0.3-6.1,0.5-9.2c0.2-3.1,0.3-6.1,0.5-9c0.2-2.9,0.3-5.6,0.5-8.2c0.2-2.6,0.3-4.8,0.4-6.8
		c0-0.4,0.1-0.8,0.4-1.2c0.2-0.3,0.6-0.6,0.9-0.8c0.4-0.2,0.8-0.3,1.3-0.4s1-0.1,1.4-0.1C102.6,2.1,103.8,2.4,105,3z"/>
	<path class="st1" d="M113.3,62.2c0-1.9,0.2-3.8,0.6-5.8c0.4-1.9,1-3.8,1.7-5.7c0.8-1.8,1.7-3.5,2.8-5.1c1.1-1.6,2.4-3,3.9-4.2
		c1.5-1.2,3.1-2.1,4.9-2.8s3.8-1,5.9-1c2.4,0,4.5,0.5,6.4,1.5c1.8,1,3.4,2.3,4.6,4c1.3,1.7,2.2,3.5,2.8,5.7s1,4.3,1,6.5
		c0,1.9-0.2,3.8-0.6,5.8c-0.4,1.9-1,3.8-1.8,5.7c-0.8,1.8-1.7,3.5-2.9,5.1c-1.1,1.6-2.4,3-3.9,4.2c-1.5,1.2-3.1,2.1-4.9,2.8
		s-3.8,1-5.9,1c-2.4,0-4.5-0.5-6.4-1.5c-1.8-1-3.4-2.3-4.6-4s-2.2-3.5-2.8-5.7C113.6,66.6,113.3,64.4,113.3,62.2z M120,59.5
		c0,1.3,0.1,2.6,0.3,3.9c0.2,1.3,0.5,2.6,0.9,3.8c0.4,1.2,0.9,2.4,1.5,3.4c0.6,1.1,1.3,2,2.2,2.8c0.8,0.8,1.8,1.4,2.8,1.9
		c1,0.4,2.2,0.7,3.4,0.7c1.4,0,2.6-0.3,3.6-0.9s1.9-1.4,2.7-2.3c0.8-1,1.4-2.1,1.9-3.3c0.5-1.3,0.9-2.5,1.2-3.9
		c0.3-1.3,0.5-2.7,0.6-4c0.1-1.3,0.2-2.5,0.2-3.6c0-1.3-0.1-2.6-0.3-3.9s-0.5-2.6-0.9-3.8c-0.4-1.2-0.9-2.3-1.5-3.4
		c-0.6-1.1-1.3-2-2.2-2.8c-0.8-0.8-1.8-1.4-2.8-1.8s-2.2-0.7-3.4-0.7c-1.4,0-2.6,0.3-3.6,0.9c-1,0.6-1.9,1.4-2.7,2.3
		c-0.8,1-1.4,2.1-1.9,3.3s-0.9,2.5-1.2,3.9c-0.3,1.3-0.5,2.7-0.6,4C120.1,57.2,120,58.4,120,59.5z"/>
	<path class="st1" d="M177.7,49.5c0.5-1,0.8-2.1,0.8-3.1c0-0.7-0.1-1.4-0.4-2.1c-0.3-0.6-0.6-1.2-1.1-1.7s-1.1-0.9-1.9-1.2
		c-0.8-0.3-1.6-0.4-2.7-0.4c-1.5,0-2.8,0.3-3.9,0.8c-1.2,0.5-2.2,1.2-3.1,2.1s-1.6,1.9-2.3,3.1c-0.6,1.2-1.1,2.4-1.5,3.8
		s-0.7,2.7-0.9,4.1c-0.2,1.4-0.3,2.8-0.3,4.1c0,2.4,0.3,4.6,0.9,6.6s1.5,3.7,2.5,5.1c1.1,1.4,2.3,2.5,3.7,3.2
		c1.4,0.8,2.9,1.2,4.5,1.2c1.7,0,3.4-0.4,5.2-1.3c1.8-0.9,3.4-2.3,5.1-4.3c0.1,0.1,0.3,0.1,0.4,0.2c0.2,0.1,0.3,0.2,0.5,0.4
		c0.1,0.1,0.3,0.3,0.4,0.4c0.1,0.1,0.2,0.3,0.2,0.4c0,0.1,0,0.1,0,0.1l-0.1,0.1c-1.8,2.9-4,5.1-6.5,6.6c-2.5,1.5-5.3,2.2-8.4,2.2
		c-1.6,0-3.2-0.2-4.5-0.7c-1.4-0.5-2.6-1.1-3.8-1.9c-1.1-0.8-2.1-1.8-3-2.9c-0.9-1.1-1.6-2.3-2.1-3.6c-0.6-1.3-1-2.7-1.3-4.1
		c-0.3-1.4-0.4-2.9-0.4-4.3c0-2,0.2-3.9,0.6-5.9c0.4-2,1.1-3.9,1.9-5.7c0.8-1.8,1.8-3.5,3-5.1c1.2-1.6,2.5-3,4-4.1
		c1.5-1.2,3.2-2.1,5-2.8s3.8-1,5.8-1c1.5,0,3,0.2,4.3,0.6c1.3,0.4,2.5,0.9,3.4,1.6c1,0.7,1.7,1.5,2.3,2.5c0.6,1,0.8,2,0.8,3.2
		c0,0.8-0.1,1.4-0.4,2c-0.2,0.6-0.6,1.1-1,1.5s-0.9,0.7-1.5,1s-1.2,0.3-1.9,0.3c-0.4,0-0.8,0-1.3-0.1s-0.9-0.2-1.3-0.4L177.7,49.5z"
		/>
	<path class="st1" d="M200.6,38.8c-0.3,2.1-0.6,4.3-0.8,6.4c-0.2,2.1-0.4,4.2-0.5,6.2c-0.1,2-0.2,3.9-0.3,5.7
		c-0.1,1.8-0.1,3.4-0.1,4.8c0,1.9,0,3.6,0.1,5c0.1,1.4,0.1,2.6,0.3,3.5c0.1,1,0.3,1.7,0.5,2.3c0.2,0.6,0.4,1,0.7,1.3
		c0.3,0.3,0.6,0.5,1,0.6c0.4,0.1,0.8,0.1,1.3,0.1c0.9,0,1.9-0.1,2.9-0.4c1-0.3,2.1-0.7,3.2-1.1l0.5,1.5c-0.7,0.5-1.5,1.1-2.5,1.7
		s-2.1,1.1-3.2,1.5s-2.2,0.8-3.3,1.1s-2,0.4-2.8,0.4c-0.5,0-1,0-1.4-0.1c-0.4-0.1-0.8-0.3-1.2-0.6s-0.7-0.8-0.9-1.5
		s-0.5-1.5-0.7-2.7s-0.3-2.5-0.4-4.2c-0.1-1.7-0.1-3.7-0.1-6.1c0-1.4,0-3,0-4.8c0-1.8,0.1-3.7,0.1-5.7c0.1-2,0.1-4.2,0.2-6.4
		s0.2-4.6,0.4-7c0-0.5,0.2-0.9,0.4-1.3c0.2-0.3,0.5-0.6,0.9-0.8s0.7-0.3,1.1-0.4c0.4-0.1,0.8-0.1,1.1-0.1
		C198.3,38,199.5,38.3,200.6,38.8z M198.2,26.1c-0.7,0-1.2-0.1-1.7-0.4c-0.5-0.3-0.9-0.6-1.3-1.1c-0.4-0.4-0.6-0.9-0.8-1.5
		c-0.2-0.6-0.3-1.2-0.3-1.8c0-0.8,0.1-1.6,0.4-2.2c0.3-0.6,0.6-1.2,1.1-1.6c0.4-0.4,0.9-0.8,1.5-1c0.5-0.2,1.1-0.3,1.6-0.3
		c0.6,0,1.2,0.1,1.7,0.4c0.5,0.2,0.9,0.6,1.3,1c0.4,0.4,0.6,0.9,0.8,1.4c0.2,0.5,0.3,1.1,0.3,1.7c0,0.7-0.1,1.3-0.3,2
		c-0.2,0.6-0.5,1.2-0.9,1.8c-0.4,0.5-0.9,0.9-1.5,1.3C199.5,26,198.9,26.1,198.2,26.1z"/>
	<path class="st1" d="M226.2,17.6c-0.8,3.6-1.4,7.2-2,11c-0.5,3.8-1,7.5-1.4,11.2c0.9,0,1.7,0.1,2.6,0.1c0.8,0,1.6,0,2.3,0.1
		c0.7,0,1.4,0,2,0c0.6,0,1.1,0,1.5,0c1.7,0,3.1-0.1,4.2-0.3c0.1,0.3,0.2,0.6,0.2,0.9c0.1,0.3,0.1,0.5,0.1,0.7c0,0.8-0.3,1.4-1,1.6
		c-0.7,0.2-1.7,0.4-3,0.4c-1.2,0-2.6-0.1-4.1-0.2c-1.5-0.1-3.2-0.3-5-0.4c-0.2,2-0.4,4-0.5,5.9c-0.1,1.9-0.3,3.7-0.3,5.4
		s-0.1,3.2-0.2,4.7c0,1.4-0.1,2.7-0.1,3.8c0,2,0.1,3.8,0.3,5.4c0.2,1.6,0.6,2.9,1.1,4c0.5,1.1,1.2,1.9,2.2,2.5
		c0.9,0.6,2.1,0.9,3.5,0.9c1,0,2.1-0.2,3.4-0.5s2.7-0.9,4.3-1.7c0.5,0.5,0.8,1.1,0.9,1.9c-1.2,0.8-2.3,1.5-3.5,2.1
		c-1.2,0.6-2.3,1.2-3.5,1.6s-2.2,0.8-3.3,1c-1.1,0.2-2.1,0.4-3,0.4c-1.3,0-2.4-0.2-3.4-0.7c-1-0.5-1.9-1.3-2.7-2.4
		c-0.8-1.2-1.3-2.7-1.8-4.7c-0.4-2-0.6-4.5-0.6-7.5c0-1.7,0-3.5,0.1-5.3c0.1-1.8,0.1-3.6,0.2-5.5c0.1-1.9,0.2-3.7,0.4-5.6
		c0.1-1.9,0.3-3.7,0.5-5.5c-1.5,0-2.8,0.1-4.1,0.2c-1.3,0.1-2.3,0.3-3.2,0.5c-0.1-0.1-0.1-0.2-0.1-0.4c0-0.4,0.2-0.8,0.6-1.1
		c0.4-0.3,0.9-0.7,1.6-0.9c0.7-0.3,1.5-0.5,2.5-0.7c1-0.2,2-0.3,3.1-0.4c0.4-3.9,0.9-7.6,1.4-11.1c0.5-3.5,1-6.6,1.5-9.3
		c0.1-0.5,0.3-0.9,0.5-1.2c0.3-0.3,0.5-0.6,0.9-0.8c0.3-0.2,0.7-0.3,1.1-0.4c0.4-0.1,0.8-0.1,1.2-0.1c0.6,0,1.2,0.1,1.7,0.2
		C225.3,17.2,225.7,17.4,226.2,17.6z"/>
	<path class="st1" d="M252,78.6c-0.5-1.8-1-3.6-1.6-5.6c-0.6-1.9-1.1-3.9-1.7-5.9c-0.6-2-1.1-3.9-1.7-5.8c-0.6-1.9-1.1-3.7-1.7-5.4
		c-0.5-1.7-1-3.3-1.5-4.8c-0.5-1.5-0.9-2.7-1.3-3.8c-0.4-1.1-0.8-2-1.1-2.7c-0.4-0.7-0.7-1.2-1.1-1.6c-0.4-0.4-0.8-0.7-1.2-0.8
		c-0.4-0.1-0.9-0.2-1.4-0.2c-0.6,0-1.2,0.1-1.9,0.2c-0.7,0.1-1.5,0.3-2.5,0.5l-0.4-2c1.1-0.4,2.2-0.8,3.3-1.1s2.1-0.6,3-0.9
		s1.7-0.4,2.4-0.6c0.7-0.1,1.3-0.2,1.7-0.2c0.5,0,0.9,0.1,1.4,0.3c0.4,0.2,0.9,0.5,1.3,0.9c0.4,0.4,0.8,1,1.2,1.7
		c0.4,0.7,0.8,1.7,1.2,2.8c0.3,0.7,0.6,1.6,0.9,2.7c0.4,1.1,0.8,2.4,1.2,3.8c0.4,1.4,0.9,3,1.4,4.6c0.5,1.7,1,3.4,1.5,5.2
		c0.5,1.8,1,3.7,1.5,5.5c0.5,1.9,1,3.8,1.4,5.6c0.9-2.5,1.9-5,2.9-7.7c1-2.7,2.1-5.3,3.1-8c1.1-2.7,2.1-5.4,3.2-8
		c1-2.6,2.1-5.2,3-7.6c0.2-0.4,0.4-0.7,0.7-1c0.3-0.3,0.6-0.5,1-0.6c0.4-0.2,0.7-0.3,1.1-0.3c0.4-0.1,0.8-0.1,1.1-0.1
		c0.6,0,1.2,0.1,1.8,0.3c0.6,0.2,1.1,0.4,1.7,0.7c-0.8,1.4-1.7,2.9-2.6,4.6c-0.9,1.7-1.8,3.5-2.8,5.4c-1,1.9-1.9,3.9-2.9,5.9
		c-1,2.1-1.9,4.2-2.9,6.3c-1,2.1-1.9,4.3-2.8,6.5s-1.8,4.3-2.7,6.4c-0.9,2.1-1.7,4.2-2.5,6.3c-0.8,2.1-1.6,4.1-2.3,6
		c-0.7,1.9-1.5,3.8-2.2,5.6c-0.7,1.8-1.5,3.5-2.2,5c-0.7,1.4-1.5,2.8-2.3,4c-0.8,1.2-1.7,2.3-2.7,3.2c-1,0.9-2,1.6-3.2,2.1
		c-1.2,0.5-2.5,0.8-3.9,0.8c-0.9,0-1.7-0.1-2.4-0.4c-0.7-0.2-1.3-0.5-1.8-0.9c-0.5-0.4-0.9-0.8-1.1-1.3c-0.3-0.5-0.4-1-0.4-1.6
		c0-0.6,0.2-1.3,0.5-1.9c0.4-0.7,0.8-1.2,1.4-1.5c0.8,0.5,1.6,0.8,2.4,1c0.8,0.2,1.5,0.3,2.2,0.3c1.5,0,2.9-0.4,4.1-1.2
		c1.2-0.8,2.3-2.1,3.4-3.7s2.1-3.8,3.2-6.3c1.1-2.5,2.2-5.4,3.5-8.8l0.6-1.5L252,78.6z"/>
</g>
</svg>
