<svg xmlns="http://www.w3.org/2000/svg" viewBox="0 0 512 512"><path d="M507.113 428.415L287.215 47.541C280.7 36.256 269.031 29.519 256 29.519c-13.031 0-24.7 6.737-31.215 18.022L4.887 428.415c-6.516 11.285-6.516 24.76 0 36.044 6.515 11.285 18.184 18.022 31.215 18.022h439.796c13.031 0 24.7-6.737 31.215-18.022 6.516-11.284 6.516-24.759 0-36.044zm-26.012 21.026c-.647 1.122-2.186 3.004-5.202 3.004H36.102c-3.018 0-4.556-1.881-5.202-3.004-.647-1.121-1.509-3.394 0-6.007L250.797 62.559c1.509-2.613 3.907-3.004 5.202-3.004 1.296 0 3.694.39 5.202 3.004L481.1 443.434c1.51 2.613.648 4.886.001 6.007z"/><path d="M240.987 166.095h30.037v160.197h-30.037z"/><circle cx="256.005" cy="376.354" r="20.025"/></svg>